<svg width="225" height="180" viewBox="0 0 225 180" fill="none" xmlns="http://www.w3.org/2000/svg">
<g clip-path="url(#clip0_11630_146862)">
<path d="M176.643 179.435H116.578L116.566 179.098L113.698 97.0723H179.522L176.643 179.435ZM117.252 178.737H175.969L178.8 97.7698H114.42L117.252 178.737Z" fill="#3F3D56"/>
<path d="M130.907 112.271H126.338V168.808H130.907V112.271Z" fill="#3F3D56"/>
<path d="M148.895 112.271H144.326V168.808H148.895V112.271Z" fill="#3F3D56"/>
<path d="M166.884 112.271H162.315V168.808H166.884V112.271Z" fill="#3F3D56"/>
<path d="M217.691 121.16L217.396 120.974L142.787 73.8248L149.259 63.584L149.554 63.7703L224.162 110.919L217.691 121.16ZM143.75 73.6078L217.474 120.198L223.2 111.136L149.476 64.5462L143.75 73.6078Z" fill="#3F3D56"/>
<path d="M199.678 70.0245C197.509 68.652 194.992 67.9305 192.426 67.9455C189.859 67.9606 187.351 68.7116 185.199 70.1095C183.046 71.5073 181.34 73.4933 180.283 75.8318C179.225 78.1703 178.861 80.7631 179.232 83.3025L182.79 85.5507C181.896 83.4748 181.69 81.1672 182.202 78.9658C182.714 76.7643 183.918 74.7847 185.637 73.3168C187.356 71.8489 189.499 70.9698 191.754 70.8082C194.008 70.6466 196.255 71.211 198.165 72.4188C200.076 73.6266 201.55 75.4144 202.371 77.5202C203.192 79.6261 203.317 81.9395 202.728 84.1217C202.139 86.3039 200.867 88.2403 199.098 89.6473C197.329 91.0543 195.156 91.858 192.898 91.9407L196.455 94.1889C198.909 93.4358 201.095 91.9945 202.753 90.0362C204.412 88.0779 205.475 85.6848 205.814 83.1408C206.154 80.5969 205.757 78.0089 204.669 75.684C203.582 73.3591 201.851 71.3949 199.681 70.0245H199.678Z" fill="#3F3D56"/>
<path d="M200.838 178.953H0.837891V179.953H200.838V178.953Z" fill="#3F3D56"/>
<path d="M41.6575 174.194H36.5779L34.1602 154.602H41.6589L41.6575 174.194Z" fill="#FEB8B8"/>
<path d="M26.7822 178.91H42.7462V172.742H32.8646C31.2515 172.742 29.7044 173.383 28.5637 174.524C27.4231 175.664 26.7822 177.211 26.7822 178.825V178.91Z" fill="#2F2E41"/>
<path d="M39.8721 143.834L43.3759 147.512L59.2286 135.748L54.0576 130.32L39.8721 143.834Z" fill="#FEB8B8"/>
<path d="M46.986 149.197L40.1676 142.043L35.7021 146.299L46.7173 157.857L46.7791 157.798C47.3574 157.247 47.8215 156.587 48.1449 155.856C48.4682 155.126 48.6446 154.339 48.6638 153.54C48.683 152.742 48.5447 151.947 48.2568 151.202C47.9689 150.457 47.5371 149.776 46.986 149.197Z" fill="#2F2E41"/>
<path d="M4.51652 90.159C4.19505 89.6418 3.99086 89.0604 3.91833 88.4557C3.8458 87.8511 3.90668 87.2379 4.09671 86.6594C4.28674 86.0808 4.60128 85.5509 5.0182 85.107C5.43511 84.6632 5.94426 84.3161 6.50979 84.0902L26.4526 33.2637L34.2262 37.9181L12.0725 86.6774C12.389 87.6529 12.3367 88.7107 11.9255 89.6502C11.5142 90.5897 10.7726 91.3457 9.84113 91.7749C8.90967 92.2041 7.85313 92.2766 6.87175 91.9788C5.89036 91.681 5.05234 91.0334 4.51652 90.159Z" fill="#FEB8B8"/>
<path d="M80.213 93.8004C79.6054 93.7569 79.0147 93.5808 78.4825 93.2843C77.9503 92.9878 77.4896 92.5782 77.1329 92.0844C76.7762 91.5905 76.5321 91.0245 76.4179 90.4261C76.3036 89.8277 76.322 89.2115 76.4717 88.621L47.0508 42.6279L55.3835 39.0703L81.8335 85.6403C82.8102 85.9561 83.6371 86.6195 84.1569 87.5046C84.6768 88.3898 84.8536 89.435 84.6537 90.4419C84.4538 91.4487 83.8911 92.3472 83.0725 92.9665C82.2539 93.5859 81.2363 93.8831 80.213 93.8018V93.8004Z" fill="#FEB8B8"/>
<path d="M26.6494 85.0686L31.857 162.467L44.3022 161.369L46.8643 104.266L53.8189 128.791L68.8262 129.888L62.8861 81.4082L26.6494 85.0686Z" fill="#2F2E41"/>
<path d="M56.0144 125.131L53.8171 128.791L38.4453 139.406L49.4263 145.263C49.4263 145.263 70.6561 133.55 68.8261 129.889L56.0144 125.131Z" fill="#2F2E41"/>
<path d="M15.751 53.754L20.0832 41.5468C21.047 38.8306 22.5399 36.3326 24.4756 34.1972C26.4112 32.0619 28.7511 30.3316 31.3599 29.1065C37.2235 26.9463 43.6008 26.5973 49.6652 28.1045L51.2417 28.4958C55.4456 29.5148 59.3844 31.4171 62.7961 34.0763C65.4656 36.1808 67.8673 38.8455 68.0811 41.7118C68.0822 41.7179 68.0839 41.7238 68.0863 41.7295C68.8257 44.9704 69.1916 61.8077 69.1916 61.8077H62.6694L63.7011 84.5017L63.6178 84.3374C63.6178 84.3374 25.9999 91.4564 25.9999 87.7959V64.3691L25.2287 55.8868L15.751 53.754Z" fill="#CCCCCC"/>
<path d="M50.8641 24.9313C56.6215 24.9313 61.2888 20.2641 61.2888 14.5067C61.2888 8.74931 56.6215 4.08203 50.8641 4.08203C45.1067 4.08203 40.4395 8.74931 40.4395 14.5067C40.4395 20.2641 45.1067 24.9313 50.8641 24.9313Z" fill="#FEB8B8"/>
<path d="M52.4251 9.83158L60.5196 10.1559C61.538 10.1528 62.6499 10.1169 63.4256 9.45839C64.594 8.46472 64.3984 6.58968 63.7727 5.18898C62.0288 1.28894 58.1388 -0.10827 53.8673 0.00647837C49.5958 0.121227 45.1199 1.569 42.8198 5.16841C40.5196 8.76781 39.898 13.3131 40.7644 17.4957C41.766 15.3689 43.3079 13.542 45.2362 12.1974C47.1646 10.8528 49.4118 10.0376 51.7537 9.83298L52.4251 9.83158Z" fill="#2F2E41"/>
<path d="M100.492 111.799L71.1942 91.2656C70.922 91.0741 70.7368 90.7825 70.6792 90.4546C70.6215 90.1268 70.6961 89.7895 70.8866 89.5166L93.8821 56.706C94.0737 56.4338 94.3653 56.2486 94.6931 56.1909C95.0209 56.1332 95.3582 56.2078 95.6312 56.3983L124.929 76.932C125.201 77.1235 125.387 77.4151 125.444 77.743C125.502 78.0708 125.427 78.4081 125.237 78.681L102.242 111.491C102.05 111.763 101.759 111.949 101.431 112.007C101.103 112.064 100.765 111.99 100.492 111.799Z" fill="#DADADA"/>
<path d="M107.081 89.5189L89.8892 77.4701C89.6904 77.3308 89.521 77.1536 89.3906 76.9488C89.2603 76.744 89.1716 76.5155 89.1295 76.2764C89.0875 76.0373 89.0929 75.7922 89.1456 75.5552C89.1982 75.3182 89.297 75.0939 89.4364 74.8951C89.5757 74.6963 89.7528 74.5269 89.9576 74.3965C90.1625 74.2662 90.391 74.1774 90.6301 74.1354C90.8692 74.0933 91.1142 74.0988 91.3512 74.1514C91.5882 74.2041 91.8126 74.3029 92.0114 74.4422L109.203 86.491C109.604 86.7724 109.878 87.2018 109.963 87.6847C110.048 88.1676 109.937 88.6645 109.656 89.066C109.374 89.4675 108.945 89.7408 108.462 89.8258C107.979 89.9107 107.482 89.8003 107.081 89.5189Z" fill="white"/>
<path d="M103.136 95.1487L85.9443 83.0999C85.7452 82.9607 85.5756 82.7836 85.445 82.5787C85.3144 82.3739 85.2255 82.1453 85.1834 81.9061C85.1412 81.6669 85.1466 81.4217 85.1992 81.1845C85.2518 80.9474 85.3507 80.723 85.4901 80.524C85.6295 80.3251 85.8067 80.1556 86.0117 80.0252C86.2166 79.8948 86.4453 79.8061 86.6846 79.7641C86.9238 79.7222 87.169 79.7277 87.4061 79.7806C87.6432 79.8334 87.8676 79.9325 88.0664 80.0721L105.258 92.1208C105.659 92.4024 105.932 92.8317 106.017 93.3144C106.101 93.7971 105.991 94.2936 105.71 94.6949C105.428 95.0962 104.999 95.3694 104.517 95.4545C104.034 95.5396 103.537 95.4296 103.136 95.1487Z" fill="white"/>
<path d="M99.1472 100.839L81.9557 88.7904C81.7568 88.6511 81.5874 88.474 81.4571 88.2691C81.3267 88.0643 81.238 87.8358 81.1959 87.5967C81.1539 87.3576 81.1593 87.1126 81.212 86.8756C81.2646 86.6386 81.3634 86.4142 81.5028 86.2154C81.6421 86.0166 81.8192 85.8472 82.0241 85.7168C82.2289 85.5865 82.4574 85.4977 82.6965 85.4557C82.9356 85.4136 83.1806 85.4191 83.4176 85.4717C83.6546 85.5244 83.879 85.6232 84.0778 85.7625L101.269 97.8113C101.671 98.0927 101.944 98.5221 102.029 99.005C102.114 99.4879 102.004 99.9848 101.722 100.386C101.441 100.788 101.011 101.061 100.529 101.146C100.046 101.231 99.5487 101.121 99.1472 100.839Z" fill="white"/>
<path d="M107.033 78.382L100.374 73.7152C100.175 73.5759 100.005 73.3988 99.8747 73.194C99.7441 72.9891 99.6552 72.7606 99.6131 72.5213C99.5709 72.2821 99.5762 72.0369 99.6289 71.7998C99.6815 71.5626 99.7803 71.3382 99.9198 71.1393C100.059 70.9403 100.236 70.7708 100.441 70.6405C100.646 70.5101 100.875 70.4213 101.114 70.3794C101.354 70.3374 101.599 70.343 101.836 70.3958C102.073 70.4487 102.297 70.5477 102.496 70.6873L109.155 75.3541C109.556 75.6355 109.83 76.0649 109.915 76.5478C110 77.0307 109.889 77.5276 109.608 77.9291C109.326 78.3307 108.897 78.6039 108.414 78.6889C107.931 78.7738 107.434 78.6634 107.033 78.382Z" fill="white"/>
<path d="M101.706 104.701L69.701 88.7098C69.4035 88.5605 69.1774 88.2994 69.072 87.9836C68.9667 87.6679 68.9908 87.3233 69.139 87.0252L87.047 51.1835C87.1964 50.886 87.4575 50.6599 87.7732 50.5545C88.089 50.4492 88.4336 50.4732 88.7316 50.6214L120.736 66.6123C121.034 66.7617 121.26 67.0228 121.365 67.3385C121.471 67.6543 121.447 67.9989 121.298 68.2969L103.391 104.138C103.242 104.435 102.98 104.662 102.665 104.767C102.349 104.873 102.004 104.849 101.706 104.701Z" fill="#0077B6"/>
<path d="M104.938 81.6926L86.1585 72.3095C85.9413 72.201 85.7477 72.0507 85.5885 71.8674C85.4294 71.684 85.308 71.4711 85.2311 71.2408C85.1543 71.0105 85.1236 70.7673 85.1407 70.5251C85.1579 70.283 85.2225 70.0465 85.331 69.8293C85.4395 69.6122 85.5898 69.4185 85.7731 69.2594C85.9565 69.1002 86.1694 68.9788 86.3997 68.902C86.63 68.8251 86.8732 68.7944 87.1154 68.8115C87.3575 68.8287 87.594 68.8933 87.8112 69.0019L106.591 78.385C107.03 78.6042 107.363 78.9886 107.518 79.4537C107.673 79.9188 107.638 80.4265 107.418 80.8652C107.199 81.3038 106.815 81.6374 106.35 81.7925C105.885 81.9477 105.377 81.9118 104.938 81.6926Z" fill="white"/>
<path d="M101.866 87.8418L83.0857 78.4586C82.8683 78.3502 82.6744 78.2001 82.5151 78.0167C82.3558 77.8333 82.2342 77.6204 82.1572 77.39C82.0802 77.1596 82.0494 76.9163 82.0665 76.674C82.0836 76.4317 82.1482 76.1951 82.2568 75.9778C82.3654 75.7605 82.5157 75.5667 82.6992 75.4075C82.8827 75.2484 83.0958 75.1269 83.3262 75.0501C83.5567 74.9734 83.8 74.9427 84.0423 74.96C84.2846 74.9774 84.5212 75.0423 84.7384 75.151L103.518 84.5342C103.956 84.7536 104.289 85.138 104.444 85.6029C104.599 86.0678 104.563 86.5752 104.344 87.0136C104.125 87.452 103.741 87.7854 103.276 87.9407C102.811 88.096 102.304 88.0604 101.866 87.8418Z" fill="white"/>
<path d="M98.7596 94.0579L79.9798 84.6747C79.7626 84.5662 79.569 84.416 79.4098 84.2326C79.2507 84.0492 79.1293 83.8363 79.0524 83.606C78.9756 83.3757 78.9449 83.1326 78.962 82.8904C78.9791 82.6482 79.0438 82.4118 79.1523 82.1946C79.2608 81.9774 79.4111 81.7837 79.5944 81.6246C79.7778 81.4655 79.9907 81.344 80.221 81.2672C80.4513 81.1903 80.6945 81.1596 80.9367 81.1768C81.1788 81.1939 81.4153 81.2586 81.6324 81.3671L100.412 90.7503C100.851 90.9694 101.184 91.3538 101.34 91.8189C101.495 92.2841 101.459 92.7918 101.24 93.2304C101.021 93.669 100.636 94.0026 100.171 94.1578C99.7059 94.313 99.1982 94.277 98.7596 94.0579Z" fill="white"/>
<path d="M103.249 70.6848L95.9754 67.0504C95.758 66.942 95.5641 66.7919 95.4048 66.6085C95.2454 66.4252 95.1238 66.2122 95.0468 65.9818C94.9698 65.7514 94.939 65.5081 94.9561 65.2658C94.9732 65.0235 95.0379 64.7869 95.1465 64.5696C95.255 64.3523 95.4054 64.1585 95.5889 63.9993C95.7724 63.8402 95.9855 63.7187 96.2159 63.6419C96.4464 63.5651 96.6897 63.5345 96.932 63.5518C97.1743 63.5692 97.4108 63.634 97.628 63.7428L104.902 67.3772C105.341 67.5963 105.674 67.9807 105.829 68.4459C105.985 68.911 105.949 69.4187 105.729 69.8573C105.51 70.2959 105.126 70.6295 104.661 70.7847C104.196 70.9399 103.688 70.9039 103.249 70.6848Z" fill="white"/>
</g>
<defs>
<clipPath id="clip0_11630_146862">
<rect width="223.325" height="180" fill="white" transform="translate(0.837891)"/>
</clipPath>
</defs>
</svg>
