<svg width="114" height="110" viewBox="0 0 114 110" fill="none" xmlns="http://www.w3.org/2000/svg">
<path d="M92.0614 68.1062C97.0659 68.1062 101.123 64.053 101.123 59.0531C101.123 54.0532 97.0659 50 92.0614 50C87.0569 50 83 54.0532 83 59.0531C83 64.053 87.0569 68.1062 92.0614 68.1062Z" fill="#FFB4A5"/>
<path d="M24.9833 106.445H24.9741C24.655 106.444 24.3491 106.318 24.1235 106.092C23.8979 105.867 23.771 105.561 23.7706 105.242V34.6565C23.771 34.3377 23.8979 34.0321 24.1235 33.8067C24.3491 33.5813 24.655 33.4545 24.9741 33.4541H84.4394C84.7585 33.4545 85.0644 33.5812 85.29 33.8067C85.5156 34.0321 85.6426 34.3377 85.6429 34.6565V89.541C85.6426 89.8581 85.5169 90.1623 85.2933 90.3875C85.0697 90.6126 84.7662 90.7405 84.4488 90.7433L24.9833 106.445Z" fill="#F2F2F2"/>
<path d="M44.92 11H65.08C65.5892 11 66.0776 11.1449 66.4376 11.4027C66.7977 11.6606 67 12.0103 67 12.375V33H43V12.375C43 12.0103 43.2023 11.6606 43.5624 11.4027C43.9224 11.1449 44.4108 11 44.92 11Z" fill="#E6E6E6"/>
<path d="M51.5211 6.50693H45.7162V0.707275C45.7164 0.51976 45.7911 0.339986 45.9238 0.207393C46.0565 0.0747996 46.2364 0.000214524 46.4241 0H50.8132C51.0009 0.000214524 51.1808 0.0747996 51.3135 0.207393C51.4463 0.339986 51.5209 0.51976 51.5211 0.707275V6.50693ZM45.9994 6.22402H51.238V0.707275C51.2378 0.594764 51.1931 0.486896 51.1134 0.407339C51.0338 0.327782 50.9258 0.283033 50.8132 0.28291H46.4241C46.3115 0.283033 46.2035 0.327782 46.1239 0.407339C46.0443 0.486896 45.9995 0.594764 45.9994 0.707275V6.22402Z" fill="#3F3D56"/>
<path d="M63.7422 12.4688V21H62.6113V12.4688H63.7422Z" fill="black"/>
<path d="M60.5254 12.4688V21H59.3887L55.0938 14.4199V21H53.9629V12.4688H55.0938L59.4062 19.0664V12.4688H60.5254Z" fill="black"/>
<path d="M51.0625 12.4688H52.1875V18.2402C52.1875 18.8809 52.0449 19.4141 51.7598 19.8398C51.4746 20.2656 51.0957 20.5859 50.623 20.8008C50.1543 21.0117 49.6445 21.1172 49.0938 21.1172C48.5156 21.1172 47.9922 21.0117 47.5234 20.8008C47.0586 20.5859 46.6895 20.2656 46.416 19.8398C46.1465 19.4141 46.0117 18.8809 46.0117 18.2402V12.4688H47.1309V18.2402C47.1309 18.6855 47.2129 19.0527 47.377 19.3418C47.541 19.6309 47.7695 19.8457 48.0625 19.9863C48.3594 20.127 48.7031 20.1973 49.0938 20.1973C49.4883 20.1973 49.832 20.127 50.125 19.9863C50.4219 19.8457 50.6523 19.6309 50.8164 19.3418C50.9805 19.0527 51.0625 18.6855 51.0625 18.2402V12.4688Z" fill="black"/>
<path d="M94.5 108.602C94.3011 108.602 94.1103 108.588 93.9697 108.565C93.829 108.541 93.75 108.509 93.75 108.475V82.7284C93.7494 82.7118 93.7684 82.6953 93.8058 82.6799C93.8433 82.6646 93.8984 82.6506 93.9681 82.6388C94.0378 82.627 94.1207 82.6176 94.212 82.6112C94.3032 82.6049 94.4012 82.6016 94.5 82.6016C94.5989 82.6016 94.6968 82.6049 94.788 82.6112C94.8793 82.6176 94.9622 82.627 95.0319 82.6388C95.1016 82.6506 95.1568 82.6646 95.1942 82.6799C95.2316 82.6953 95.2506 82.7118 95.25 82.7284V108.475C95.25 108.509 95.171 108.541 95.0303 108.565C94.8897 108.588 94.6989 108.602 94.5 108.602Z" fill="#CCCCCC"/>
<path d="M110.294 109.001H98.1172V108.859C98.1168 108.06 98.274 107.269 98.5798 106.531C98.8856 105.792 99.334 105.121 99.8994 104.556C100.465 103.991 101.136 103.543 101.875 103.237C102.614 102.931 103.406 102.773 104.206 102.773C105.005 102.773 105.797 102.931 106.536 103.237C107.275 103.543 107.947 103.991 108.512 104.556C109.077 105.121 109.526 105.792 109.832 106.531C110.137 107.269 110.295 108.06 110.294 108.859L110.294 109.001ZM98.4021 108.718H110.009C109.972 107.205 109.345 105.766 108.26 104.708C107.176 103.651 105.721 103.059 104.206 103.059C102.691 103.059 101.235 103.651 100.151 104.708C99.0667 105.766 98.439 107.205 98.4021 108.718Z" fill="#3F3D56"/>
<path d="M104.203 105.406C104.16 105.406 104.12 105.423 104.089 105.453C104.059 105.483 104.042 105.524 104.042 105.567V107.273L102.379 105.846C102.363 105.833 102.344 105.822 102.324 105.816C102.304 105.809 102.283 105.806 102.262 105.808C102.241 105.809 102.22 105.815 102.201 105.825C102.183 105.834 102.166 105.847 102.152 105.863C102.138 105.879 102.128 105.898 102.121 105.918C102.115 105.938 102.112 105.959 102.114 105.98C102.115 106.001 102.121 106.022 102.131 106.041C102.14 106.06 102.154 106.076 102.17 106.09L104.042 107.696V108.698C104.042 108.719 104.046 108.74 104.054 108.76C104.062 108.779 104.074 108.797 104.089 108.812C104.104 108.827 104.122 108.839 104.141 108.847C104.161 108.855 104.182 108.859 104.203 108.859C104.224 108.859 104.245 108.855 104.265 108.847C104.284 108.839 104.302 108.827 104.317 108.812C104.332 108.797 104.344 108.779 104.352 108.76C104.36 108.74 104.364 108.719 104.364 108.698V105.567C104.364 105.524 104.347 105.483 104.317 105.453C104.287 105.423 104.246 105.406 104.203 105.406Z" fill="#3F3D56"/>
<path d="M14.8381 91.7815C14.7817 91.7815 14.7267 91.7815 14.6703 91.7801C10.8851 91.7374 7.26937 90.2055 4.60733 87.5166C1.9453 84.8278 0.451637 81.1988 0.450317 77.4168C0.450317 73.2414 2.17143 66.5591 4.63576 61.1664C6.40798 57.2883 10.09 50.7822 14.8381 50.7822C16.7938 50.7822 18.7632 51.8959 20.6914 54.0924C20.7871 54.2007 20.8829 54.3122 20.9774 54.4266L21.0097 54.4658V90.3934L20.9299 90.432C20.8346 90.4782 20.7379 90.5215 20.6412 90.5633C18.8644 91.3489 16.9454 91.763 15.0024 91.7801C14.9496 91.7815 14.8931 91.7815 14.8381 91.7815ZM14.8381 51.0651C10.2484 51.0651 6.63735 57.4675 4.89335 61.2839C2.44409 66.6436 0.733486 73.2777 0.733486 77.4168C0.733486 85.0942 6.98783 91.4107 14.6754 91.4972C14.7327 91.4987 14.7862 91.4991 14.8419 91.4986C14.8932 91.4986 14.9459 91.4986 14.9973 91.4973C16.903 91.4806 18.785 91.0746 20.5278 90.3041C20.5946 90.2752 20.6609 90.2458 20.7266 90.2153V54.5677C20.6446 54.4693 20.5617 54.3732 20.4788 54.2792C18.6064 52.1464 16.7087 51.0651 14.8381 51.0651Z" fill="#3F3D56"/>
<path d="M15.0313 108.933C14.8987 108.933 14.7715 108.915 14.6777 108.885C14.5839 108.854 14.5313 108.813 14.5313 108.77V75.5466C14.5309 75.5252 14.5435 75.5039 14.5685 75.4841C14.5934 75.4642 14.6302 75.4461 14.6767 75.4309C14.7231 75.4157 14.7784 75.4036 14.8392 75.3954C14.9001 75.3872 14.9653 75.3829 15.0312 75.3829C15.0972 75.3829 15.1624 75.3872 15.2233 75.3954C15.2841 75.4036 15.3394 75.4157 15.3858 75.4309C15.4323 75.4461 15.4691 75.4642 15.494 75.4841C15.519 75.5039 15.5316 75.5252 15.5312 75.5466V108.77C15.5312 108.813 15.4786 108.854 15.3848 108.885C15.291 108.915 15.1639 108.933 15.0313 108.933Z" fill="#CCCCCC"/>
<path d="M14.8375 81.7541C14.8142 81.7541 14.7911 81.7491 14.7698 81.7395C14.7486 81.7298 14.7296 81.7156 14.7144 81.698L6.52178 72.2587C6.49358 72.226 6.47948 72.1836 6.48259 72.1406C6.48569 72.0976 6.50574 72.0576 6.53835 72.0293C6.57095 72.0011 6.61343 71.9869 6.65648 71.9899C6.69952 71.9929 6.73961 72.0129 6.76795 72.0454L14.9605 81.4847C14.981 81.5083 14.9942 81.5372 14.9987 81.5681C15.0031 81.599 14.9986 81.6305 14.9856 81.6589C14.9727 81.6872 14.9518 81.7113 14.9256 81.7282C14.8993 81.7451 14.8688 81.7541 14.8375 81.7541Z" fill="#CCCCCC"/>
<path d="M14.8374 87.2017C14.8052 87.2017 14.7737 87.1921 14.747 87.1742C14.7202 87.1563 14.6993 87.1309 14.687 87.1012C14.6746 87.0715 14.6714 87.0387 14.6777 87.0072C14.684 86.9756 14.6995 86.9466 14.7223 86.9238L19.3774 82.2728C19.408 82.2425 19.4494 82.2254 19.4925 82.2255C19.5356 82.2256 19.577 82.2427 19.6075 82.2732C19.638 82.3036 19.6551 82.3449 19.6552 82.388C19.6552 82.4311 19.6382 82.4724 19.6078 82.503L14.9526 87.154C14.9375 87.1691 14.9196 87.1811 14.8998 87.1893C14.88 87.1975 14.8588 87.2017 14.8374 87.2017Z" fill="#CCCCCC"/>
<path d="M68.937 23.4802H41.3281V7.49575C41.3285 7.15822 41.4629 6.83463 41.7018 6.59596C41.9407 6.3573 42.2645 6.22304 42.6024 6.22266H67.6628C68.0006 6.22304 68.3245 6.3573 68.5634 6.59596C68.8023 6.83463 68.9367 7.15822 68.937 7.49575V23.4802ZM41.6113 23.1972H68.6539V7.49575C68.6536 7.23323 68.5491 6.98154 68.3633 6.79591C68.1775 6.61028 67.9255 6.50586 67.6628 6.50557H42.6024C42.3396 6.50586 42.0877 6.61028 41.9019 6.79591C41.7161 6.98154 41.6116 7.23323 41.6113 7.49575V23.1972Z" fill="#3F3D56"/>
<path d="M27.6302 24.6132L27.735 24.8197C27.7814 24.9088 27.8057 25.0078 27.8058 25.1082V30.6957H32.7612V25.1082C32.7613 25.0078 32.7856 24.9088 32.832 24.8197L32.9368 24.6132H27.6302ZM32.4781 25.1082V30.4128H28.089V25.1082C28.089 25.0368 28.0805 24.9655 28.0634 24.8961H32.5036C32.4866 24.9655 32.478 25.0368 32.4781 25.1082ZM33.8599 24.6132L33.9647 24.8197C34.0111 24.9088 34.0354 25.0078 34.0355 25.1082V30.6957H38.9909V25.1082C38.991 25.0078 39.0153 24.9088 39.0617 24.8197L39.1665 24.6132H33.8599ZM38.7078 25.1082V30.4128H34.3187V25.1082C34.3187 25.0368 34.3102 24.9655 34.2932 24.8961H38.7333C38.7163 24.9655 38.7077 25.0368 38.7078 25.1082ZM40.0896 24.6132L40.1944 24.8197C40.2408 24.9088 40.2651 25.0078 40.2652 25.1082V30.6957H45.2206V25.1082C45.2207 25.0078 45.245 24.9088 45.2914 24.8197L45.3962 24.6132H40.0896ZM44.9375 25.1082V30.4128H40.5484V25.1082C40.5484 25.0368 40.5399 24.9655 40.5229 24.8961H44.963C44.946 24.9655 44.9374 25.0368 44.9375 25.1082ZM46.3193 24.6132L46.4241 24.8197C46.4706 24.9088 46.4948 25.0078 46.4949 25.1082V30.6957H51.4503V25.1082C51.4504 25.0078 51.4747 24.9088 51.5211 24.8197L51.6259 24.6132H46.3193ZM51.1672 25.1082V30.4128H46.7781V25.1082C46.7781 25.0368 46.7696 24.9655 46.7526 24.8961H51.1927C51.1757 24.9655 51.1671 25.0368 51.1672 25.1082ZM52.549 24.6132L52.6538 24.8197C52.7003 24.9088 52.7245 25.0078 52.7246 25.1082V30.6957H57.68V25.1082C57.6801 25.0078 57.7044 24.9088 57.7508 24.8197L57.8556 24.6132H52.549ZM57.3969 25.1082V30.4128H53.0078V25.1082C53.0078 25.0368 52.9993 24.9655 52.9823 24.8961H57.4224C57.4054 24.9655 57.3968 25.0368 57.3969 25.1082ZM58.7787 24.6132L58.8835 24.8197C58.93 24.9088 58.9542 25.0078 58.9543 25.1082V30.6957H63.9098V25.1082C63.9098 25.0078 63.9341 24.9088 63.9805 24.8197L64.0853 24.6132H58.7787ZM63.6266 25.1082V30.4128H59.2375V25.1082C59.2375 25.0368 59.229 24.9655 59.212 24.8961H63.6521C63.6351 24.9655 63.6265 25.0368 63.6266 25.1082ZM65.0084 24.6132L65.1132 24.8197C65.1597 24.9088 65.1839 25.0078 65.184 25.1082V30.6957H70.1395V25.1082C70.1395 25.0078 70.1638 24.9088 70.2102 24.8197L70.3151 24.6132H65.0084ZM69.8563 25.1082V30.4128H65.4672V25.1082C65.4673 25.0368 65.4587 24.9655 65.4417 24.8961H69.8818C69.8648 24.9655 69.8562 25.0368 69.8563 25.1082ZM71.2381 24.6132L71.3429 24.8197C71.3894 24.9088 71.4136 25.0078 71.4137 25.1082V30.6957H76.3692V25.1082C76.3692 25.0078 76.3935 24.9088 76.4399 24.8197L76.5448 24.6132H71.2381ZM76.086 25.1082V30.4128H71.6969V25.1082C71.697 25.0368 71.6884 24.9655 71.6714 24.8961H76.1115C76.0945 24.9655 76.0859 25.0368 76.086 25.1082ZM77.4678 24.6132L77.5726 24.8197C77.6191 24.9088 77.6433 25.0078 77.6434 25.1082V30.6957H82.5989V25.1082C82.5989 25.0078 82.6232 24.9088 82.6697 24.8197L82.7745 24.6132H77.4678ZM82.3157 25.1082V30.4128H77.9266V25.1082C77.9267 25.0368 77.9181 24.9655 77.9011 24.8961H82.3412C82.3242 24.9655 82.3156 25.0368 82.3157 25.1082ZM77.4678 24.6132L77.5726 24.8197C77.6191 24.9088 77.6433 25.0078 77.6434 25.1082V30.6957H82.5989V25.1082C82.5989 25.0078 82.6232 24.9088 82.6697 24.8197L82.7745 24.6132H77.4678ZM82.3157 25.1082V30.4128H77.9266V25.1082C77.9267 25.0368 77.9181 24.9655 77.9011 24.8961H82.3412C82.3242 24.9655 82.3156 25.0368 82.3157 25.1082ZM71.2381 24.6132L71.3429 24.8197C71.3894 24.9088 71.4136 25.0078 71.4137 25.1082V30.6957H76.3692V25.1082C76.3692 25.0078 76.3935 24.9088 76.4399 24.8197L76.5448 24.6132H71.2381ZM76.086 25.1082V30.4128H71.6969V25.1082C71.697 25.0368 71.6884 24.9655 71.6714 24.8961H76.1115C76.0945 24.9655 76.0859 25.0368 76.086 25.1082ZM65.0084 24.6132L65.1132 24.8197C65.1597 24.9088 65.1839 25.0078 65.184 25.1082V30.6957H70.1395V25.1082C70.1395 25.0078 70.1638 24.9088 70.2102 24.8197L70.3151 24.6132H65.0084ZM69.8563 25.1082V30.4128H65.4672V25.1082C65.4673 25.0368 65.4587 24.9655 65.4417 24.8961H69.8818C69.8648 24.9655 69.8562 25.0368 69.8563 25.1082ZM58.7787 24.6132L58.8835 24.8197C58.93 24.9088 58.9542 25.0078 58.9543 25.1082V30.6957H63.9098V25.1082C63.9098 25.0078 63.9341 24.9088 63.9805 24.8197L64.0853 24.6132H58.7787ZM63.6266 25.1082V30.4128H59.2375V25.1082C59.2375 25.0368 59.229 24.9655 59.212 24.8961H63.6521C63.6351 24.9655 63.6265 25.0368 63.6266 25.1082ZM52.549 24.6132L52.6538 24.8197C52.7003 24.9088 52.7245 25.0078 52.7246 25.1082V30.6957H57.68V25.1082C57.6801 25.0078 57.7044 24.9088 57.7508 24.8197L57.8556 24.6132H52.549ZM57.3969 25.1082V30.4128H53.0078V25.1082C53.0078 25.0368 52.9993 24.9655 52.9823 24.8961H57.4224C57.4054 24.9655 57.3968 25.0368 57.3969 25.1082ZM46.3193 24.6132L46.4241 24.8197C46.4706 24.9088 46.4948 25.0078 46.4949 25.1082V30.6957H51.4503V25.1082C51.4504 25.0078 51.4747 24.9088 51.5211 24.8197L51.6259 24.6132H46.3193ZM51.1672 25.1082V30.4128H46.7781V25.1082C46.7781 25.0368 46.7696 24.9655 46.7526 24.8961H51.1927C51.1757 24.9655 51.1671 25.0368 51.1672 25.1082ZM40.0896 24.6132L40.1944 24.8197C40.2408 24.9088 40.2651 25.0078 40.2652 25.1082V30.6957H45.2206V25.1082C45.2207 25.0078 45.245 24.9088 45.2914 24.8197L45.3962 24.6132H40.0896ZM44.9375 25.1082V30.4128H40.5484V25.1082C40.5484 25.0368 40.5399 24.9655 40.5229 24.8961H44.963C44.946 24.9655 44.9374 25.0368 44.9375 25.1082ZM33.8599 24.6132L33.9647 24.8197C34.0111 24.9088 34.0354 25.0078 34.0355 25.1082V30.6957H38.9909V25.1082C38.991 25.0078 39.0153 24.9088 39.0617 24.8197L39.1665 24.6132H33.8599ZM38.7078 25.1082V30.4128H34.3187V25.1082C34.3187 25.0368 34.3102 24.9655 34.2932 24.8961H38.7333C38.7163 24.9655 38.7077 25.0368 38.7078 25.1082ZM27.6302 24.6132L27.735 24.8197C27.7814 24.9088 27.8057 25.0078 27.8058 25.1082V30.6957H32.7612V25.1082C32.7613 25.0078 32.7856 24.9088 32.832 24.8197L32.9368 24.6132H27.6302ZM32.4781 25.1082V30.4128H28.089V25.1082C28.089 25.0368 28.0805 24.9655 28.0634 24.8961H32.5036C32.4866 24.9655 32.478 25.0368 32.4781 25.1082ZM77.4678 24.6132L77.5726 24.8197C77.6191 24.9088 77.6433 25.0078 77.6434 25.1082V30.6957H82.5989V25.1082C82.5989 25.0078 82.6232 24.9088 82.6697 24.8197L82.7745 24.6132H77.4678ZM82.3157 25.1082V30.4128H77.9266V25.1082C77.9267 25.0368 77.9181 24.9655 77.9011 24.8961H82.3412C82.3242 24.9655 82.3156 25.0368 82.3157 25.1082ZM71.2381 24.6132L71.3429 24.8197C71.3894 24.9088 71.4136 25.0078 71.4137 25.1082V30.6957H76.3692V25.1082C76.3692 25.0078 76.3935 24.9088 76.4399 24.8197L76.5448 24.6132H71.2381ZM76.086 25.1082V30.4128H71.6969V25.1082C71.697 25.0368 71.6884 24.9655 71.6714 24.8961H76.1115C76.0945 24.9655 76.0859 25.0368 76.086 25.1082ZM65.0084 24.6132L65.1132 24.8197C65.1597 24.9088 65.1839 25.0078 65.184 25.1082V30.6957H70.1395V25.1082C70.1395 25.0078 70.1638 24.9088 70.2102 24.8197L70.3151 24.6132H65.0084ZM69.8563 25.1082V30.4128H65.4672V25.1082C65.4673 25.0368 65.4587 24.9655 65.4417 24.8961H69.8818C69.8648 24.9655 69.8562 25.0368 69.8563 25.1082ZM58.7787 24.6132L58.8835 24.8197C58.93 24.9088 58.9542 25.0078 58.9543 25.1082V30.6957H63.9098V25.1082C63.9098 25.0078 63.9341 24.9088 63.9805 24.8197L64.0853 24.6132H58.7787ZM63.6266 25.1082V30.4128H59.2375V25.1082C59.2375 25.0368 59.229 24.9655 59.212 24.8961H63.6521C63.6351 24.9655 63.6265 25.0368 63.6266 25.1082ZM52.549 24.6132L52.6538 24.8197C52.7003 24.9088 52.7245 25.0078 52.7246 25.1082V30.6957H57.68V25.1082C57.6801 25.0078 57.7044 24.9088 57.7508 24.8197L57.8556 24.6132H52.549ZM57.3969 25.1082V30.4128H53.0078V25.1082C53.0078 25.0368 52.9993 24.9655 52.9823 24.8961H57.4224C57.4054 24.9655 57.3968 25.0368 57.3969 25.1082ZM46.3193 24.6132L46.4241 24.8197C46.4706 24.9088 46.4948 25.0078 46.4949 25.1082V30.6957H51.4503V25.1082C51.4504 25.0078 51.4747 24.9088 51.5211 24.8197L51.6259 24.6132H46.3193ZM51.1672 25.1082V30.4128H46.7781V25.1082C46.7781 25.0368 46.7696 24.9655 46.7526 24.8961H51.1927C51.1757 24.9655 51.1671 25.0368 51.1672 25.1082ZM40.0896 24.6132L40.1944 24.8197C40.2408 24.9088 40.2651 25.0078 40.2652 25.1082V30.6957H45.2206V25.1082C45.2207 25.0078 45.245 24.9088 45.2914 24.8197L45.3962 24.6132H40.0896ZM44.9375 25.1082V30.4128H40.5484V25.1082C40.5484 25.0368 40.5399 24.9655 40.5229 24.8961H44.963C44.946 24.9655 44.9374 25.0368 44.9375 25.1082ZM33.8599 24.6132L33.9647 24.8197C34.0111 24.9088 34.0354 25.0078 34.0355 25.1082V30.6957H38.9909V25.1082C38.991 25.0078 39.0153 24.9088 39.0617 24.8197L39.1665 24.6132H33.8599ZM38.7078 25.1082V30.4128H34.3187V25.1082C34.3187 25.0368 34.3102 24.9655 34.2932 24.8961H38.7333C38.7163 24.9655 38.7077 25.0368 38.7078 25.1082ZM27.6302 24.6132L27.735 24.8197C27.7814 24.9088 27.8057 25.0078 27.8058 25.1082V30.6957H32.7612V25.1082C32.7613 25.0078 32.7856 24.9088 32.832 24.8197L32.9368 24.6132H27.6302ZM32.4781 25.1082V30.4128H28.089V25.1082C28.089 25.0368 28.0805 24.9655 28.0634 24.8961H32.5036C32.4866 24.9655 32.478 25.0368 32.4781 25.1082ZM77.4678 24.6132L77.5726 24.8197C77.6191 24.9088 77.6433 25.0078 77.6434 25.1082V30.6957H82.5989V25.1082C82.5989 25.0078 82.6232 24.9088 82.6697 24.8197L82.7745 24.6132H77.4678ZM82.3157 25.1082V30.4128H77.9266V25.1082C77.9267 25.0368 77.9181 24.9655 77.9011 24.8961H82.3412C82.3242 24.9655 82.3156 25.0368 82.3157 25.1082ZM71.2381 24.6132L71.3429 24.8197C71.3894 24.9088 71.4136 25.0078 71.4137 25.1082V30.6957H76.3692V25.1082C76.3692 25.0078 76.3935 24.9088 76.4399 24.8197L76.5448 24.6132H71.2381ZM76.086 25.1082V30.4128H71.6969V25.1082C71.697 25.0368 71.6884 24.9655 71.6714 24.8961H76.1115C76.0945 24.9655 76.0859 25.0368 76.086 25.1082ZM65.0084 24.6132L65.1132 24.8197C65.1597 24.9088 65.1839 25.0078 65.184 25.1082V30.6957H70.1395V25.1082C70.1395 25.0078 70.1638 24.9088 70.2102 24.8197L70.3151 24.6132H65.0084ZM69.8563 25.1082V30.4128H65.4672V25.1082C65.4673 25.0368 65.4587 24.9655 65.4417 24.8961H69.8818C69.8648 24.9655 69.8562 25.0368 69.8563 25.1082ZM58.7787 24.6132L58.8835 24.8197C58.93 24.9088 58.9542 25.0078 58.9543 25.1082V30.6957H63.9098V25.1082C63.9098 25.0078 63.9341 24.9088 63.9805 24.8197L64.0853 24.6132H58.7787ZM63.6266 25.1082V30.4128H59.2375V25.1082C59.2375 25.0368 59.229 24.9655 59.212 24.8961H63.6521C63.6351 24.9655 63.6265 25.0368 63.6266 25.1082ZM52.549 24.6132L52.6538 24.8197C52.7003 24.9088 52.7245 25.0078 52.7246 25.1082V30.6957H57.68V25.1082C57.6801 25.0078 57.7044 24.9088 57.7508 24.8197L57.8556 24.6132H52.549ZM57.3969 25.1082V30.4128H53.0078V25.1082C53.0078 25.0368 52.9993 24.9655 52.9823 24.8961H57.4224C57.4054 24.9655 57.3968 25.0368 57.3969 25.1082ZM46.3193 24.6132L46.4241 24.8197C46.4706 24.9088 46.4948 25.0078 46.4949 25.1082V30.6957H51.4503V25.1082C51.4504 25.0078 51.4747 24.9088 51.5211 24.8197L51.6259 24.6132H46.3193ZM51.1672 25.1082V30.4128H46.7781V25.1082C46.7781 25.0368 46.7696 24.9655 46.7526 24.8961H51.1927C51.1757 24.9655 51.1671 25.0368 51.1672 25.1082ZM40.0896 24.6132L40.1944 24.8197C40.2408 24.9088 40.2651 25.0078 40.2652 25.1082V30.6957H45.2206V25.1082C45.2207 25.0078 45.245 24.9088 45.2914 24.8197L45.3962 24.6132H40.0896ZM44.9375 25.1082V30.4128H40.5484V25.1082C40.5484 25.0368 40.5399 24.9655 40.5229 24.8961H44.963C44.946 24.9655 44.9374 25.0368 44.9375 25.1082ZM33.8599 24.6132L33.9647 24.8197C34.0111 24.9088 34.0354 25.0078 34.0355 25.1082V30.6957H38.9909V25.1082C38.991 25.0078 39.0153 24.9088 39.0617 24.8197L39.1665 24.6132H33.8599ZM38.7078 25.1082V30.4128H34.3187V25.1082C34.3187 25.0368 34.3102 24.9655 34.2932 24.8961H38.7333C38.7163 24.9655 38.7077 25.0368 38.7078 25.1082ZM27.6302 24.6132L27.735 24.8197C27.7814 24.9088 27.8057 25.0078 27.8058 25.1082V30.6957H32.7612V25.1082C32.7613 25.0078 32.7856 24.9088 32.832 24.8197L32.9368 24.6132H27.6302ZM32.4781 25.1082V30.4128H28.089V25.1082C28.089 25.0368 28.0805 24.9655 28.0634 24.8961H32.5036C32.4866 24.9655 32.478 25.0368 32.4781 25.1082ZM77.4678 24.6132L77.5726 24.8197C77.6191 24.9088 77.6433 25.0078 77.6434 25.1082V30.6957H82.5989V25.1082C82.5989 25.0078 82.6232 24.9088 82.6697 24.8197L82.7745 24.6132H77.4678ZM82.3157 25.1082V30.4128H77.9266V25.1082C77.9267 25.0368 77.9181 24.9655 77.9011 24.8961H82.3412C82.3242 24.9655 82.3156 25.0368 82.3157 25.1082ZM71.2381 24.6132L71.3429 24.8197C71.3894 24.9088 71.4136 25.0078 71.4137 25.1082V30.6957H76.3692V25.1082C76.3692 25.0078 76.3935 24.9088 76.4399 24.8197L76.5448 24.6132H71.2381ZM76.086 25.1082V30.4128H71.6969V25.1082C71.697 25.0368 71.6884 24.9655 71.6714 24.8961H76.1115C76.0945 24.9655 76.0859 25.0368 76.086 25.1082ZM65.0084 24.6132L65.1132 24.8197C65.1597 24.9088 65.1839 25.0078 65.184 25.1082V30.6957H70.1395V25.1082C70.1395 25.0078 70.1638 24.9088 70.2102 24.8197L70.3151 24.6132H65.0084ZM69.8563 25.1082V30.4128H65.4672V25.1082C65.4673 25.0368 65.4587 24.9655 65.4417 24.8961H69.8818C69.8648 24.9655 69.8562 25.0368 69.8563 25.1082ZM58.7787 24.6132L58.8835 24.8197C58.93 24.9088 58.9542 25.0078 58.9543 25.1082V30.6957H63.9098V25.1082C63.9098 25.0078 63.9341 24.9088 63.9805 24.8197L64.0853 24.6132H58.7787ZM63.6266 25.1082V30.4128H59.2375V25.1082C59.2375 25.0368 59.229 24.9655 59.212 24.8961H63.6521C63.6351 24.9655 63.6265 25.0368 63.6266 25.1082ZM52.549 24.6132L52.6538 24.8197C52.7003 24.9088 52.7245 25.0078 52.7246 25.1082V30.6957H57.68V25.1082C57.6801 25.0078 57.7044 24.9088 57.7508 24.8197L57.8556 24.6132H52.549ZM57.3969 25.1082V30.4128H53.0078V25.1082C53.0078 25.0368 52.9993 24.9655 52.9823 24.8961H57.4224C57.4054 24.9655 57.3968 25.0368 57.3969 25.1082ZM46.3193 24.6132L46.4241 24.8197C46.4706 24.9088 46.4948 25.0078 46.4949 25.1082V30.6957H51.4503V25.1082C51.4504 25.0078 51.4747 24.9088 51.5211 24.8197L51.6259 24.6132H46.3193ZM51.1672 25.1082V30.4128H46.7781V25.1082C46.7781 25.0368 46.7696 24.9655 46.7526 24.8961H51.1927C51.1757 24.9655 51.1671 25.0368 51.1672 25.1082ZM40.0896 24.6132L40.1944 24.8197C40.2408 24.9088 40.2651 25.0078 40.2652 25.1082V30.6957H45.2206V25.1082C45.2207 25.0078 45.245 24.9088 45.2914 24.8197L45.3962 24.6132H40.0896ZM44.9375 25.1082V30.4128H40.5484V25.1082C40.5484 25.0368 40.5399 24.9655 40.5229 24.8961H44.963C44.946 24.9655 44.9374 25.0368 44.9375 25.1082ZM33.8599 24.6132L33.9647 24.8197C34.0111 24.9088 34.0354 25.0078 34.0355 25.1082V30.6957H38.9909V25.1082C38.991 25.0078 39.0153 24.9088 39.0617 24.8197L39.1665 24.6132H33.8599ZM38.7078 25.1082V30.4128H34.3187V25.1082C34.3187 25.0368 34.3102 24.9655 34.2932 24.8961H38.7333C38.7163 24.9655 38.7077 25.0368 38.7078 25.1082ZM27.6302 24.6132L27.735 24.8197C27.7814 24.9088 27.8057 25.0078 27.8058 25.1082V30.6957H32.7612V25.1082C32.7613 25.0078 32.7856 24.9088 32.832 24.8197L32.9368 24.6132H27.6302ZM32.4781 25.1082V30.4128H28.089V25.1082C28.089 25.0368 28.0805 24.9655 28.0634 24.8961H32.5036C32.4866 24.9655 32.478 25.0368 32.4781 25.1082ZM77.4678 24.6132L77.5726 24.8197C77.6191 24.9088 77.6433 25.0078 77.6434 25.1082V30.6957H82.5989V25.1082C82.5989 25.0078 82.6232 24.9088 82.6697 24.8197L82.7745 24.6132H77.4678ZM82.3157 25.1082V30.4128H77.9266V25.1082C77.9267 25.0368 77.9181 24.9655 77.9011 24.8961H82.3412C82.3242 24.9655 82.3156 25.0368 82.3157 25.1082ZM71.3429 24.8197C71.3894 24.9088 71.4136 25.0078 71.4137 25.1082V30.6957H76.3692V25.1082C76.3692 25.0078 76.3935 24.9088 76.4399 24.8197L76.5448 24.6132H71.2381L71.3429 24.8197ZM76.1115 24.8961C76.0945 24.9655 76.0859 25.0368 76.086 25.1082V30.4128H71.6969V25.1082C71.697 25.0368 71.6884 24.9655 71.6714 24.8961H76.1115ZM65.1132 24.8197C65.1597 24.9088 65.1839 25.0078 65.184 25.1082V30.6957H70.1395V25.1082C70.1395 25.0078 70.1638 24.9088 70.2102 24.8197L70.3151 24.6132H65.0084L65.1132 24.8197ZM69.8818 24.8961C69.8648 24.9655 69.8562 25.0368 69.8563 25.1082V30.4128H65.4672V25.1082C65.4673 25.0368 65.4587 24.9655 65.4417 24.8961H69.8818ZM58.8835 24.8197C58.93 24.9088 58.9542 25.0078 58.9543 25.1082V30.6957H63.9098V25.1082C63.9098 25.0078 63.9341 24.9088 63.9805 24.8197L64.0853 24.6132H58.7787L58.8835 24.8197ZM63.6521 24.8961C63.6351 24.9655 63.6265 25.0368 63.6266 25.1082V30.4128H59.2375V25.1082C59.2375 25.0368 59.229 24.9655 59.212 24.8961H63.6521ZM52.6538 24.8197C52.7003 24.9088 52.7245 25.0078 52.7246 25.1082V30.6957H57.68V25.1082C57.6801 25.0078 57.7044 24.9088 57.7508 24.8197L57.8556 24.6132H52.549L52.6538 24.8197ZM57.4224 24.8961C57.4054 24.9655 57.3968 25.0368 57.3969 25.1082V30.4128H53.0078V25.1082C53.0078 25.0368 52.9993 24.9655 52.9823 24.8961H57.4224ZM46.4241 24.8197C46.4706 24.9088 46.4948 25.0078 46.4949 25.1082V30.6957H51.4503V25.1082C51.4504 25.0078 51.4747 24.9088 51.5211 24.8197L51.6259 24.6132H46.3193L46.4241 24.8197ZM51.1927 24.8961C51.1757 24.9655 51.1671 25.0368 51.1672 25.1082V30.4128H46.7781V25.1082C46.7781 25.0368 46.7696 24.9655 46.7526 24.8961H51.1927ZM40.1944 24.8197C40.2408 24.9088 40.2651 25.0078 40.2652 25.1082V30.6957H45.2206V25.1082C45.2207 25.0078 45.245 24.9088 45.2914 24.8197L45.3962 24.6132H40.0896L40.1944 24.8197ZM44.963 24.8961C44.946 24.9655 44.9374 25.0368 44.9375 25.1082V30.4128H40.5484V25.1082C40.5484 25.0368 40.5399 24.9655 40.5229 24.8961H44.963ZM33.9647 24.8197C34.0111 24.9088 34.0354 25.0078 34.0355 25.1082V30.6957H38.9909V25.1082C38.991 25.0078 39.0153 24.9088 39.0617 24.8197L39.1665 24.6132H33.8599L33.9647 24.8197ZM38.7333 24.8961C38.7163 24.9655 38.7077 25.0368 38.7078 25.1082V30.4128H34.3187V25.1082C34.3187 25.0368 34.3102 24.9655 34.2932 24.8961H38.7333ZM27.735 24.8197C27.7814 24.9088 27.8057 25.0078 27.8058 25.1082V30.6957H32.7612V25.1082C32.7613 25.0078 32.7856 24.9088 32.832 24.8197L32.9368 24.6132H27.6302L27.735 24.8197ZM32.5036 24.8961C32.4866 24.9655 32.478 25.0368 32.4781 25.1082V30.4128H28.089V25.1082C28.089 25.0368 28.0805 24.9655 28.0634 24.8961H32.5036ZM77.5726 24.8197C77.6191 24.9088 77.6433 25.0078 77.6434 25.1082V30.6957H82.5989V25.1082C82.5989 25.0078 82.6232 24.9088 82.6697 24.8197L82.7745 24.6132H77.4678L77.5726 24.8197ZM82.3412 24.8961C82.3242 24.9655 82.3156 25.0368 82.3157 25.1082V30.4128H77.9266V25.1082C77.9267 25.0368 77.9181 24.9655 77.9011 24.8961H82.3412ZM71.3429 24.8197C71.3894 24.9088 71.4136 25.0078 71.4137 25.1082V30.6957H76.3692V25.1082C76.3692 25.0078 76.3935 24.9088 76.4399 24.8197L76.5448 24.6132H71.2381L71.3429 24.8197ZM76.1115 24.8961C76.0945 24.9655 76.0859 25.0368 76.086 25.1082V30.4128H71.6969V25.1082C71.697 25.0368 71.6884 24.9655 71.6714 24.8961H76.1115ZM65.1132 24.8197C65.1597 24.9088 65.1839 25.0078 65.184 25.1082V30.6957H70.1395V25.1082C70.1395 25.0078 70.1638 24.9088 70.2102 24.8197L70.3151 24.6132H65.0084L65.1132 24.8197ZM69.8818 24.8961C69.8648 24.9655 69.8562 25.0368 69.8563 25.1082V30.4128H65.4672V25.1082C65.4673 25.0368 65.4587 24.9655 65.4417 24.8961H69.8818ZM58.8835 24.8197C58.93 24.9088 58.9542 25.0078 58.9543 25.1082V30.6957H63.9098V25.1082C63.9098 25.0078 63.9341 24.9088 63.9805 24.8197L64.0853 24.6132H58.7787L58.8835 24.8197ZM63.6521 24.8961C63.6351 24.9655 63.6265 25.0368 63.6266 25.1082V30.4128H59.2375V25.1082C59.2375 25.0368 59.229 24.9655 59.212 24.8961H63.6521ZM52.6538 24.8197C52.7003 24.9088 52.7245 25.0078 52.7246 25.1082V30.6957H57.68V25.1082C57.6801 25.0078 57.7044 24.9088 57.7508 24.8197L57.8556 24.6132H52.549L52.6538 24.8197ZM57.4224 24.8961C57.4054 24.9655 57.3968 25.0368 57.3969 25.1082V30.4128H53.0078V25.1082C53.0078 25.0368 52.9993 24.9655 52.9823 24.8961H57.4224ZM46.4241 24.8197C46.4706 24.9088 46.4948 25.0078 46.4949 25.1082V30.6957H51.4503V25.1082C51.4504 25.0078 51.4747 24.9088 51.5211 24.8197L51.6259 24.6132H46.3193L46.4241 24.8197ZM51.1927 24.8961C51.1757 24.9655 51.1671 25.0368 51.1672 25.1082V30.4128H46.7781V25.1082C46.7781 25.0368 46.7696 24.9655 46.7526 24.8961H51.1927ZM40.1944 24.8197C40.2408 24.9088 40.2651 25.0078 40.2652 25.1082V30.6957H45.2206V25.1082C45.2207 25.0078 45.245 24.9088 45.2914 24.8197L45.3962 24.6132H40.0896L40.1944 24.8197ZM44.963 24.8961C44.946 24.9655 44.9374 25.0368 44.9375 25.1082V30.4128H40.5484V25.1082C40.5484 25.0368 40.5399 24.9655 40.5229 24.8961H44.963ZM33.9647 24.8197C34.0111 24.9088 34.0354 25.0078 34.0355 25.1082V30.6957H38.9909V25.1082C38.991 25.0078 39.0153 24.9088 39.0617 24.8197L39.1665 24.6132H33.8599L33.9647 24.8197ZM38.7333 24.8961C38.7163 24.9655 38.7077 25.0368 38.7078 25.1082V30.4128H34.3187V25.1082C34.3187 25.0368 34.3102 24.9655 34.2932 24.8961H38.7333ZM27.735 24.8197C27.7814 24.9088 27.8057 25.0078 27.8058 25.1082V30.6957H32.7612V25.1082C32.7613 25.0078 32.7856 24.9088 32.832 24.8197L32.9368 24.6132H27.6302L27.735 24.8197ZM32.5036 24.8961C32.4866 24.9655 32.478 25.0368 32.4781 25.1082V30.4128H28.089V25.1082C28.089 25.0368 28.0805 24.9655 28.0634 24.8961H32.5036ZM88.2622 31.5444H86.5746C86.4815 31.219 86.285 30.9327 86.0148 30.7286C85.7446 30.5244 85.4153 30.4136 85.0766 30.4128H84.1563V25.1082C84.1567 24.9944 84.135 24.8815 84.0925 24.7758C84.253 24.6814 84.3778 24.5369 84.4479 24.3646C84.518 24.1923 84.5293 24.0017 84.4802 23.8223C84.4311 23.6429 84.3242 23.4846 84.1761 23.3719C84.028 23.2592 83.8469 23.1983 83.6607 23.1986H26.7439C26.5577 23.1983 26.3766 23.2592 26.2285 23.3719C26.0804 23.4846 25.9736 23.6429 25.9245 23.8223C25.8753 24.0017 25.8867 24.1923 25.9567 24.3646C26.0268 24.5369 26.1517 24.6814 26.3121 24.7758C26.2696 24.8815 26.248 24.9944 26.2484 25.1082V30.4128H25.3281C24.9893 30.4136 24.66 30.5244 24.3898 30.7286C24.1196 30.9327 23.9232 31.219 23.8301 31.5444H22.0008C21.663 31.545 21.3392 31.6792 21.1004 31.9179C20.8615 32.1565 20.7271 32.4801 20.7266 32.8175V107.506C20.7273 107.843 20.8618 108.167 21.1006 108.405C21.3394 108.644 21.6631 108.778 22.0008 108.779H88.2622C88.6 108.778 88.9239 108.644 89.1627 108.405C89.4016 108.167 89.536 107.843 89.5365 107.506V32.8175C89.536 32.4801 89.4016 32.1565 89.1627 31.9179C88.9238 31.6792 88.6 31.545 88.2622 31.5444ZM89.2533 107.506C89.2531 107.708 89.191 107.905 89.0753 108.071C88.9597 108.237 88.796 108.363 88.6063 108.434C88.4964 108.475 88.3798 108.497 88.2622 108.496H22.0008C21.8833 108.497 21.7666 108.475 21.6568 108.434C21.4671 108.363 21.3034 108.237 21.1877 108.071C21.0721 107.905 21.01 107.708 21.0097 107.506V32.8175C21.01 32.555 21.1146 32.3033 21.3004 32.1177C21.4862 31.9321 21.7381 31.8277 22.0008 31.8274H24.0566L24.0793 31.7142C24.1388 31.427 24.2955 31.1691 24.5228 30.9836C24.7502 30.7982 25.0345 30.6965 25.3281 30.6957H26.5315V25.1082C26.5316 24.9931 26.5629 24.8802 26.6222 24.7815L26.7099 24.6358L26.5499 24.5764C26.4249 24.5311 26.3199 24.4432 26.2533 24.3282C26.1868 24.2131 26.163 24.0783 26.1862 23.9475C26.2094 23.8166 26.278 23.6982 26.38 23.6129C26.4821 23.5277 26.6109 23.4812 26.7439 23.4815H83.6607C83.7937 23.4812 83.9226 23.5277 84.0246 23.6129C84.1266 23.6982 84.1952 23.8166 84.2184 23.9475C84.2416 24.0783 84.2178 24.2131 84.1513 24.3282C84.0848 24.4432 83.9797 24.5311 83.8547 24.5764L83.6947 24.6358L83.7825 24.7815C83.8418 24.8802 83.8731 24.9931 83.8731 25.1082V30.6957H85.0766C85.3701 30.6965 85.6544 30.7981 85.8818 30.9836C86.1092 31.1691 86.2658 31.427 86.3253 31.7142L86.348 31.8274H88.2622C88.525 31.8277 88.7769 31.9321 88.9627 32.1177C89.1485 32.3033 89.253 32.555 89.2533 32.8175L89.2533 107.506ZM27.6302 24.6132L27.735 24.8197C27.7814 24.9088 27.8057 25.0078 27.8058 25.1082V30.6957H32.7612V25.1082C32.7613 25.0078 32.7856 24.9088 32.832 24.8197L32.9368 24.6132H27.6302ZM32.4781 25.1082V30.4128H28.089V25.1082C28.089 25.0368 28.0805 24.9655 28.0634 24.8961H32.5036C32.4866 24.9655 32.478 25.0368 32.4781 25.1082ZM33.8599 24.6132L33.9647 24.8197C34.0111 24.9088 34.0354 25.0078 34.0355 25.1082V30.6957H38.9909V25.1082C38.991 25.0078 39.0153 24.9088 39.0617 24.8197L39.1665 24.6132H33.8599ZM38.7078 25.1082V30.4128H34.3187V25.1082C34.3187 25.0368 34.3102 24.9655 34.2932 24.8961H38.7333C38.7163 24.9655 38.7077 25.0368 38.7078 25.1082ZM40.0896 24.6132L40.1944 24.8197C40.2408 24.9088 40.2651 25.0078 40.2652 25.1082V30.6957H45.2206V25.1082C45.2207 25.0078 45.245 24.9088 45.2914 24.8197L45.3962 24.6132H40.0896ZM44.9375 25.1082V30.4128H40.5484V25.1082C40.5484 25.0368 40.5399 24.9655 40.5229 24.8961H44.963C44.946 24.9655 44.9374 25.0368 44.9375 25.1082ZM46.3193 24.6132L46.4241 24.8197C46.4706 24.9088 46.4948 25.0078 46.4949 25.1082V30.6957H51.4503V25.1082C51.4504 25.0078 51.4747 24.9088 51.5211 24.8197L51.6259 24.6132H46.3193ZM51.1672 25.1082V30.4128H46.7781V25.1082C46.7781 25.0368 46.7696 24.9655 46.7526 24.8961H51.1927C51.1757 24.9655 51.1671 25.0368 51.1672 25.1082ZM52.549 24.6132L52.6538 24.8197C52.7003 24.9088 52.7245 25.0078 52.7246 25.1082V30.6957H57.68V25.1082C57.6801 25.0078 57.7044 24.9088 57.7508 24.8197L57.8556 24.6132H52.549ZM57.3969 25.1082V30.4128H53.0078V25.1082C53.0078 25.0368 52.9993 24.9655 52.9823 24.8961H57.4224C57.4054 24.9655 57.3968 25.0368 57.3969 25.1082ZM58.7787 24.6132L58.8835 24.8197C58.93 24.9088 58.9542 25.0078 58.9543 25.1082V30.6957H63.9098V25.1082C63.9098 25.0078 63.9341 24.9088 63.9805 24.8197L64.0853 24.6132H58.7787ZM63.6266 25.1082V30.4128H59.2375V25.1082C59.2375 25.0368 59.229 24.9655 59.212 24.8961H63.6521C63.6351 24.9655 63.6265 25.0368 63.6266 25.1082ZM65.0084 24.6132L65.1132 24.8197C65.1597 24.9088 65.1839 25.0078 65.184 25.1082V30.6957H70.1395V25.1082C70.1395 25.0078 70.1638 24.9088 70.2102 24.8197L70.3151 24.6132H65.0084ZM69.8563 25.1082V30.4128H65.4672V25.1082C65.4673 25.0368 65.4587 24.9655 65.4417 24.8961H69.8818C69.8648 24.9655 69.8562 25.0368 69.8563 25.1082ZM71.2381 24.6132L71.3429 24.8197C71.3894 24.9088 71.4136 25.0078 71.4137 25.1082V30.6957H76.3692V25.1082C76.3692 25.0078 76.3935 24.9088 76.4399 24.8197L76.5448 24.6132H71.2381ZM76.086 25.1082V30.4128H71.6969V25.1082C71.697 25.0368 71.6884 24.9655 71.6714 24.8961H76.1115C76.0945 24.9655 76.0859 25.0368 76.086 25.1082ZM77.4678 24.6132L77.5726 24.8197C77.6191 24.9088 77.6433 25.0078 77.6434 25.1082V30.6957H82.5989V25.1082C82.5989 25.0078 82.6232 24.9088 82.6697 24.8197L82.7745 24.6132H77.4678ZM82.3157 25.1082V30.4128H77.9266V25.1082C77.9267 25.0368 77.9181 24.9655 77.9011 24.8961H82.3412C82.3242 24.9655 82.3156 25.0368 82.3157 25.1082ZM27.6302 24.6132L27.735 24.8197C27.7814 24.9088 27.8057 25.0078 27.8058 25.1082V30.6957H32.7612V25.1082C32.7613 25.0078 32.7856 24.9088 32.832 24.8197L32.9368 24.6132H27.6302ZM32.4781 25.1082V30.4128H28.089V25.1082C28.089 25.0368 28.0805 24.9655 28.0634 24.8961H32.5036C32.4866 24.9655 32.478 25.0368 32.4781 25.1082ZM33.8599 24.6132L33.9647 24.8197C34.0111 24.9088 34.0354 25.0078 34.0355 25.1082V30.6957H38.9909V25.1082C38.991 25.0078 39.0153 24.9088 39.0617 24.8197L39.1665 24.6132H33.8599ZM38.7078 25.1082V30.4128H34.3187V25.1082C34.3187 25.0368 34.3102 24.9655 34.2932 24.8961H38.7333C38.7163 24.9655 38.7077 25.0368 38.7078 25.1082ZM40.0896 24.6132L40.1944 24.8197C40.2408 24.9088 40.2651 25.0078 40.2652 25.1082V30.6957H45.2206V25.1082C45.2207 25.0078 45.245 24.9088 45.2914 24.8197L45.3962 24.6132H40.0896ZM44.9375 25.1082V30.4128H40.5484V25.1082C40.5484 25.0368 40.5399 24.9655 40.5229 24.8961H44.963C44.946 24.9655 44.9374 25.0368 44.9375 25.1082ZM46.3193 24.6132L46.4241 24.8197C46.4706 24.9088 46.4948 25.0078 46.4949 25.1082V30.6957H51.4503V25.1082C51.4504 25.0078 51.4747 24.9088 51.5211 24.8197L51.6259 24.6132H46.3193ZM51.1672 25.1082V30.4128H46.7781V25.1082C46.7781 25.0368 46.7696 24.9655 46.7526 24.8961H51.1927C51.1757 24.9655 51.1671 25.0368 51.1672 25.1082ZM52.549 24.6132L52.6538 24.8197C52.7003 24.9088 52.7245 25.0078 52.7246 25.1082V30.6957H57.68V25.1082C57.6801 25.0078 57.7044 24.9088 57.7508 24.8197L57.8556 24.6132H52.549ZM57.3969 25.1082V30.4128H53.0078V25.1082C53.0078 25.0368 52.9993 24.9655 52.9823 24.8961H57.4224C57.4054 24.9655 57.3968 25.0368 57.3969 25.1082ZM58.7787 24.6132L58.8835 24.8197C58.93 24.9088 58.9542 25.0078 58.9543 25.1082V30.6957H63.9098V25.1082C63.9098 25.0078 63.9341 24.9088 63.9805 24.8197L64.0853 24.6132H58.7787ZM63.6266 25.1082V30.4128H59.2375V25.1082C59.2375 25.0368 59.229 24.9655 59.212 24.8961H63.6521C63.6351 24.9655 63.6265 25.0368 63.6266 25.1082ZM65.0084 24.6132L65.1132 24.8197C65.1597 24.9088 65.1839 25.0078 65.184 25.1082V30.6957H70.1395V25.1082C70.1395 25.0078 70.1638 24.9088 70.2102 24.8197L70.3151 24.6132H65.0084ZM69.8563 25.1082V30.4128H65.4672V25.1082C65.4673 25.0368 65.4587 24.9655 65.4417 24.8961H69.8818C69.8648 24.9655 69.8562 25.0368 69.8563 25.1082ZM71.2381 24.6132L71.3429 24.8197C71.3894 24.9088 71.4136 25.0078 71.4137 25.1082V30.6957H76.3692V25.1082C76.3692 25.0078 76.3935 24.9088 76.4399 24.8197L76.5448 24.6132H71.2381ZM76.086 25.1082V30.4128H71.6969V25.1082C71.697 25.0368 71.6884 24.9655 71.6714 24.8961H76.1115C76.0945 24.9655 76.0859 25.0368 76.086 25.1082ZM77.4678 24.6132L77.5726 24.8197C77.6191 24.9088 77.6433 25.0078 77.6434 25.1082V30.6957H82.5989V25.1082C82.5989 25.0078 82.6232 24.9088 82.6697 24.8197L82.7745 24.6132H77.4678ZM82.3157 25.1082V30.4128H77.9266V25.1082C77.9267 25.0368 77.9181 24.9655 77.9011 24.8961H82.3412C82.3242 24.9655 82.3156 25.0368 82.3157 25.1082ZM27.6302 24.6132L27.735 24.8197C27.7814 24.9088 27.8057 25.0078 27.8058 25.1082V30.6957H32.7612V25.1082C32.7613 25.0078 32.7856 24.9088 32.832 24.8197L32.9368 24.6132H27.6302ZM32.4781 25.1082V30.4128H28.089V25.1082C28.089 25.0368 28.0805 24.9655 28.0634 24.8961H32.5036C32.4866 24.9655 32.478 25.0368 32.4781 25.1082ZM33.8599 24.6132L33.9647 24.8197C34.0111 24.9088 34.0354 25.0078 34.0355 25.1082V30.6957H38.9909V25.1082C38.991 25.0078 39.0153 24.9088 39.0617 24.8197L39.1665 24.6132H33.8599ZM38.7078 25.1082V30.4128H34.3187V25.1082C34.3187 25.0368 34.3102 24.9655 34.2932 24.8961H38.7333C38.7163 24.9655 38.7077 25.0368 38.7078 25.1082ZM40.0896 24.6132L40.1944 24.8197C40.2408 24.9088 40.2651 25.0078 40.2652 25.1082V30.6957H45.2206V25.1082C45.2207 25.0078 45.245 24.9088 45.2914 24.8197L45.3962 24.6132H40.0896ZM44.9375 25.1082V30.4128H40.5484V25.1082C40.5484 25.0368 40.5399 24.9655 40.5229 24.8961H44.963C44.946 24.9655 44.9374 25.0368 44.9375 25.1082ZM46.3193 24.6132L46.4241 24.8197C46.4706 24.9088 46.4948 25.0078 46.4949 25.1082V30.6957H51.4503V25.1082C51.4504 25.0078 51.4747 24.9088 51.5211 24.8197L51.6259 24.6132H46.3193ZM51.1672 25.1082V30.4128H46.7781V25.1082C46.7781 25.0368 46.7696 24.9655 46.7526 24.8961H51.1927C51.1757 24.9655 51.1671 25.0368 51.1672 25.1082ZM52.549 24.6132L52.6538 24.8197C52.7003 24.9088 52.7245 25.0078 52.7246 25.1082V30.6957H57.68V25.1082C57.6801 25.0078 57.7044 24.9088 57.7508 24.8197L57.8556 24.6132H52.549ZM57.3969 25.1082V30.4128H53.0078V25.1082C53.0078 25.0368 52.9993 24.9655 52.9823 24.8961H57.4224C57.4054 24.9655 57.3968 25.0368 57.3969 25.1082ZM58.7787 24.6132L58.8835 24.8197C58.93 24.9088 58.9542 25.0078 58.9543 25.1082V30.6957H63.9098V25.1082C63.9098 25.0078 63.9341 24.9088 63.9805 24.8197L64.0853 24.6132H58.7787ZM63.6266 25.1082V30.4128H59.2375V25.1082C59.2375 25.0368 59.229 24.9655 59.212 24.8961H63.6521C63.6351 24.9655 63.6265 25.0368 63.6266 25.1082ZM65.0084 24.6132L65.1132 24.8197C65.1597 24.9088 65.1839 25.0078 65.184 25.1082V30.6957H70.1395V25.1082C70.1395 25.0078 70.1638 24.9088 70.2102 24.8197L70.3151 24.6132H65.0084ZM69.8563 25.1082V30.4128H65.4672V25.1082C65.4673 25.0368 65.4587 24.9655 65.4417 24.8961H69.8818C69.8648 24.9655 69.8562 25.0368 69.8563 25.1082ZM71.2381 24.6132L71.3429 24.8197C71.3894 24.9088 71.4136 25.0078 71.4137 25.1082V30.6957H76.3692V25.1082C76.3692 25.0078 76.3935 24.9088 76.4399 24.8197L76.5448 24.6132H71.2381ZM76.086 25.1082V30.4128H71.6969V25.1082C71.697 25.0368 71.6884 24.9655 71.6714 24.8961H76.1115C76.0945 24.9655 76.0859 25.0368 76.086 25.1082ZM77.4678 24.6132L77.5726 24.8197C77.6191 24.9088 77.6433 25.0078 77.6434 25.1082V30.6957H82.5989V25.1082C82.5989 25.0078 82.6232 24.9088 82.6697 24.8197L82.7745 24.6132H77.4678ZM82.3157 25.1082V30.4128H77.9266V25.1082C77.9267 25.0368 77.9181 24.9655 77.9011 24.8961H82.3412C82.3242 24.9655 82.3156 25.0368 82.3157 25.1082ZM27.6302 24.6132L27.735 24.8197C27.7814 24.9088 27.8057 25.0078 27.8058 25.1082V30.6957H32.7612V25.1082C32.7613 25.0078 32.7856 24.9088 32.832 24.8197L32.9368 24.6132H27.6302ZM32.4781 25.1082V30.4128H28.089V25.1082C28.089 25.0368 28.0805 24.9655 28.0634 24.8961H32.5036C32.4866 24.9655 32.478 25.0368 32.4781 25.1082ZM33.8599 24.6132L33.9647 24.8197C34.0111 24.9088 34.0354 25.0078 34.0355 25.1082V30.6957H38.9909V25.1082C38.991 25.0078 39.0153 24.9088 39.0617 24.8197L39.1665 24.6132H33.8599ZM38.7078 25.1082V30.4128H34.3187V25.1082C34.3187 25.0368 34.3102 24.9655 34.2932 24.8961H38.7333C38.7163 24.9655 38.7077 25.0368 38.7078 25.1082ZM40.0896 24.6132L40.1944 24.8197C40.2408 24.9088 40.2651 25.0078 40.2652 25.1082V30.6957H45.2206V25.1082C45.2207 25.0078 45.245 24.9088 45.2914 24.8197L45.3962 24.6132H40.0896ZM44.9375 25.1082V30.4128H40.5484V25.1082C40.5484 25.0368 40.5399 24.9655 40.5229 24.8961H44.963C44.946 24.9655 44.9374 25.0368 44.9375 25.1082ZM46.3193 24.6132L46.4241 24.8197C46.4706 24.9088 46.4948 25.0078 46.4949 25.1082V30.6957H51.4503V25.1082C51.4504 25.0078 51.4747 24.9088 51.5211 24.8197L51.6259 24.6132H46.3193ZM51.1672 25.1082V30.4128H46.7781V25.1082C46.7781 25.0368 46.7696 24.9655 46.7526 24.8961H51.1927C51.1757 24.9655 51.1671 25.0368 51.1672 25.1082ZM52.549 24.6132L52.6538 24.8197C52.7003 24.9088 52.7245 25.0078 52.7246 25.1082V30.6957H57.68V25.1082C57.6801 25.0078 57.7044 24.9088 57.7508 24.8197L57.8556 24.6132H52.549ZM57.3969 25.1082V30.4128H53.0078V25.1082C53.0078 25.0368 52.9993 24.9655 52.9823 24.8961H57.4224C57.4054 24.9655 57.3968 25.0368 57.3969 25.1082ZM58.7787 24.6132L58.8835 24.8197C58.93 24.9088 58.9542 25.0078 58.9543 25.1082V30.6957H63.9098V25.1082C63.9098 25.0078 63.9341 24.9088 63.9805 24.8197L64.0853 24.6132H58.7787ZM63.6266 25.1082V30.4128H59.2375V25.1082C59.2375 25.0368 59.229 24.9655 59.212 24.8961H63.6521C63.6351 24.9655 63.6265 25.0368 63.6266 25.1082ZM65.0084 24.6132L65.1132 24.8197C65.1597 24.9088 65.1839 25.0078 65.184 25.1082V30.6957H70.1395V25.1082C70.1395 25.0078 70.1638 24.9088 70.2102 24.8197L70.3151 24.6132H65.0084ZM69.8563 25.1082V30.4128H65.4672V25.1082C65.4673 25.0368 65.4587 24.9655 65.4417 24.8961H69.8818C69.8648 24.9655 69.8562 25.0368 69.8563 25.1082ZM71.2381 24.6132L71.3429 24.8197C71.3894 24.9088 71.4136 25.0078 71.4137 25.1082V30.6957H76.3692V25.1082C76.3692 25.0078 76.3935 24.9088 76.4399 24.8197L76.5448 24.6132H71.2381ZM76.086 25.1082V30.4128H71.6969V25.1082C71.697 25.0368 71.6884 24.9655 71.6714 24.8961H76.1115C76.0945 24.9655 76.0859 25.0368 76.086 25.1082ZM77.4678 24.6132L77.5726 24.8197C77.6191 24.9088 77.6433 25.0078 77.6434 25.1082V30.6957H82.5989V25.1082C82.5989 25.0078 82.6232 24.9088 82.6697 24.8197L82.7745 24.6132H77.4678ZM82.3157 25.1082V30.4128H77.9266V25.1082C77.9267 25.0368 77.9181 24.9655 77.9011 24.8961H82.3412C82.3242 24.9655 82.3156 25.0368 82.3157 25.1082Z" fill="#3F3D56"/>
<path d="M44.4635 49.3678H34.0226C33.8027 49.3675 33.5919 49.2801 33.4364 49.1248C33.2809 48.9694 33.1934 48.7588 33.1932 48.5391V42.9822C33.1934 42.7625 33.2809 42.5519 33.4364 42.3965C33.5919 42.2412 33.8027 42.1538 34.0226 42.1536H44.4635C44.6834 42.1538 44.8942 42.2412 45.0497 42.3965C45.2052 42.5519 45.2926 42.7625 45.2929 42.9822V48.5391C45.2926 48.7588 45.2052 48.9694 45.0497 49.1248C44.8942 49.2801 44.6834 49.3675 44.4635 49.3678Z" fill="#0077B6"/>
<path d="M60.352 49.3678H49.9111C49.6912 49.3675 49.4804 49.2801 49.3249 49.1248C49.1694 48.9694 49.0819 48.7588 49.0817 48.5391V42.9822C49.0819 42.7625 49.1694 42.5519 49.3249 42.3965C49.4804 42.2412 49.6912 42.1538 49.9111 42.1536H60.352C60.5719 42.1538 60.7827 42.2412 60.9382 42.3965C61.0937 42.5519 61.1811 42.7625 61.1814 42.9822V48.5391C61.1811 48.7588 61.0937 48.9694 60.9382 49.1248C60.7827 49.2801 60.5719 49.3675 60.352 49.3678Z" fill="#0077B6"/>
<path d="M76.2405 49.3678H65.7996C65.5797 49.3675 65.3689 49.2801 65.2134 49.1248C65.0579 48.9694 64.9704 48.7588 64.9702 48.5391V42.9822C64.9704 42.7625 65.0579 42.5519 65.2134 42.3965C65.3689 42.2412 65.5797 42.1538 65.7996 42.1536H76.2405C76.4604 42.1538 76.6712 42.2412 76.8267 42.3965C76.9822 42.5519 77.0696 42.7625 77.0699 42.9822V48.5391C77.0696 48.7588 76.9822 48.9694 76.8267 49.1248C76.6712 49.2801 76.4604 49.3675 76.2405 49.3678Z" fill="#0077B6"/>
<path d="M44.4635 67.8984H34.0226C33.8027 67.8981 33.5919 67.8107 33.4364 67.6554C33.2809 67.5 33.1934 67.2894 33.1932 67.0697V61.5128C33.1934 61.2931 33.2809 61.0825 33.4364 60.9271C33.5919 60.7718 33.8027 60.6844 34.0226 60.6842H44.4635C44.6834 60.6844 44.8942 60.7718 45.0497 60.9271C45.2052 61.0825 45.2926 61.2931 45.2929 61.5128V67.0697C45.2926 67.2894 45.2052 67.5 45.0497 67.6554C44.8942 67.8107 44.6834 67.8981 44.4635 67.8984Z" fill="#0077B6"/>
<path d="M60.352 67.8984H49.9111C49.6912 67.8981 49.4804 67.8107 49.3249 67.6554C49.1694 67.5 49.0819 67.2894 49.0817 67.0697V61.5128C49.0819 61.2931 49.1694 61.0825 49.3249 60.9271C49.4804 60.7718 49.6912 60.6844 49.9111 60.6842H60.352C60.5719 60.6844 60.7827 60.7718 60.9382 60.9271C61.0937 61.0825 61.1811 61.2931 61.1814 61.5128V67.0697C61.1811 67.2894 61.0937 67.5 60.9382 67.6554C60.7827 67.8107 60.5719 67.8981 60.352 67.8984Z" fill="#0077B6"/>
<path d="M76.2405 67.8984H65.7996C65.5797 67.8981 65.3689 67.8107 65.2134 67.6554C65.0579 67.5 64.9704 67.2894 64.9702 67.0697V61.5128C64.9704 61.2931 65.0579 61.0825 65.2134 60.9271C65.3689 60.7718 65.5797 60.6844 65.7996 60.6842H76.2405C76.4604 60.6844 76.6712 60.7718 76.8267 60.9271C76.9822 61.0825 77.0696 61.2931 77.0699 61.5128V67.0697C77.0696 67.2894 76.9822 67.5 76.8267 67.6554C76.6712 67.8107 76.4604 67.8981 76.2405 67.8984Z" fill="#0077B6"/>
<path d="M44.4634 86.2142H34.0225C33.8026 86.214 33.5918 86.1266 33.4363 85.9712C33.2808 85.8159 33.1934 85.6052 33.1931 85.3855V79.8287C33.1934 79.609 33.2808 79.3983 33.4363 79.243C33.5918 79.0876 33.8026 79.0002 34.0225 79H44.4634C44.6833 79.0002 44.8941 79.0876 45.0496 79.243C45.2051 79.3983 45.2926 79.609 45.2928 79.8287V85.3855C45.2926 85.6052 45.2051 85.8159 45.0496 85.9712C44.8941 86.1266 44.6833 86.214 44.4634 86.2142Z" fill="#0077B6"/>
<path d="M60.3521 86.2142H49.9112C49.6913 86.214 49.4805 86.1266 49.325 85.9712C49.1695 85.8159 49.082 85.6052 49.0818 85.3855V79.8287C49.082 79.609 49.1695 79.3983 49.325 79.243C49.4805 79.0876 49.6913 79.0002 49.9112 79H60.3521C60.572 79.0002 60.7828 79.0876 60.9383 79.243C61.0938 79.3983 61.1812 79.609 61.1815 79.8287V85.3855C61.1812 85.6052 61.0938 85.8159 60.9383 85.9712C60.7828 86.1266 60.572 86.214 60.3521 86.2142Z" fill="#0077B6"/>
<path d="M76.2405 86.2142H65.7996C65.5797 86.214 65.3689 86.1266 65.2134 85.9712C65.0579 85.8159 64.9705 85.6052 64.9702 85.3855V79.8287C64.9705 79.609 65.0579 79.3983 65.2134 79.243C65.3689 79.0876 65.5797 79.0002 65.7996 79H76.2405C76.4604 79.0002 76.6712 79.0876 76.8267 79.243C76.9822 79.3983 77.0697 79.609 77.0699 79.8287V85.3855C77.0697 85.6052 76.9822 85.8159 76.8267 85.9712C76.6712 86.1266 76.4604 86.214 76.2405 86.2142Z" fill="#0077B6"/>
<path d="M42.7732 50.0809H30.678C30.3857 50.0806 30.1055 49.9644 29.8988 49.7579C29.6922 49.5514 29.5759 49.2714 29.5756 48.9794V42.5421C29.5759 42.2501 29.6922 41.9702 29.8988 41.7637C30.1055 41.5572 30.3857 41.441 30.678 41.4407H42.7732C43.0655 41.441 43.3457 41.5572 43.5523 41.7637C43.759 41.9701 43.8753 42.2501 43.8756 42.5421V48.9794C43.8753 49.2715 43.759 49.5514 43.5523 49.7579C43.3457 49.9644 43.0655 50.0806 42.7732 50.0809ZM30.678 41.7236C30.4608 41.7238 30.2526 41.8102 30.099 41.9636C29.9454 42.1171 29.859 42.3251 29.8588 42.5421V48.9794C29.859 49.1964 29.9454 49.4045 30.099 49.558C30.2526 49.7114 30.4608 49.7977 30.678 49.798H42.7732C42.9904 49.7977 43.1986 49.7114 43.3522 49.558C43.5058 49.4045 43.5922 49.1964 43.5924 48.9794V42.5421C43.5922 42.3251 43.5058 42.1171 43.3522 41.9636C43.1986 41.8101 42.9904 41.7238 42.7732 41.7236H30.678Z" fill="#3F3D56"/>
<path d="M61.1791 50.0809H49.084C48.7917 50.0806 48.5115 49.9644 48.3048 49.7579C48.0981 49.5514 47.9819 49.2715 47.9815 48.9794V42.5421C47.9819 42.2501 48.0981 41.9701 48.3048 41.7637C48.5115 41.5572 48.7917 41.441 49.084 41.4407H61.1791C61.4714 41.441 61.7516 41.5572 61.9583 41.7637C62.165 41.9701 62.2812 42.2501 62.2815 42.5421V48.9794C62.2812 49.2715 62.165 49.5514 61.9583 49.7579C61.7516 49.9644 61.4714 50.0806 61.1791 50.0809ZM49.084 41.7236C48.8667 41.7238 48.6585 41.8101 48.5049 41.9636C48.3513 42.1171 48.2649 42.3251 48.2647 42.5421V48.9794C48.2649 49.1964 48.3513 49.4045 48.5049 49.558C48.6585 49.7114 48.8667 49.7977 49.084 49.798H61.1791C61.3963 49.7977 61.6046 49.7114 61.7581 49.558C61.9117 49.4045 61.9981 49.1964 61.9984 48.9794V42.5421C61.9981 42.3251 61.9117 42.1171 61.7581 41.9636C61.6046 41.8101 61.3963 41.7238 61.1791 41.7236H49.084Z" fill="#3F3D56"/>
<path d="M79.5851 50.0809H67.4899C67.1976 50.0806 66.9174 49.9644 66.7107 49.7579C66.5041 49.5514 66.3878 49.2715 66.3875 48.9794V42.5421C66.3878 42.2501 66.5041 41.9701 66.7107 41.7637C66.9174 41.5572 67.1976 41.441 67.4899 41.4407H79.585C79.8773 41.441 80.1576 41.5572 80.3642 41.7637C80.5709 41.9701 80.6871 42.2501 80.6875 42.5421V48.9794C80.6871 49.2715 80.5709 49.5514 80.3642 49.7579C80.1576 49.9644 79.8773 50.0806 79.5851 50.0809ZM67.4899 41.7236C67.2727 41.7238 67.0644 41.8101 66.9109 41.9636C66.7573 42.1171 66.6709 42.3251 66.6706 42.5421V48.9794C66.6709 49.1964 66.7573 49.4045 66.9109 49.558C67.0644 49.7114 67.2727 49.7977 67.4899 49.798H79.585C79.8023 49.7977 80.0105 49.7114 80.1641 49.558C80.3177 49.4045 80.4041 49.1964 80.4043 48.9794V42.5421C80.4041 42.3251 80.3177 42.1171 80.1641 41.9636C80.0105 41.8101 79.8023 41.7238 79.585 41.7236H67.4899Z" fill="#3F3D56"/>
<path d="M42.7732 68.6115H30.678C30.3857 68.6111 30.1055 68.495 29.8988 68.2885C29.6922 68.082 29.5759 67.802 29.5756 67.51V61.0727C29.5759 60.7807 29.6922 60.5007 29.8988 60.2943C30.1055 60.0878 30.3857 59.9716 30.678 59.9713H42.7732C43.0655 59.9716 43.3457 60.0878 43.5523 60.2943C43.759 60.5007 43.8753 60.7807 43.8756 61.0727V67.51C43.8753 67.802 43.759 68.082 43.5523 68.2885C43.3457 68.495 43.0655 68.6111 42.7732 68.6115ZM30.678 60.2542C30.4608 60.2544 30.2526 60.3407 30.099 60.4942C29.9454 60.6477 29.859 60.8557 29.8588 61.0727V67.51C29.859 67.727 29.9454 67.9351 30.099 68.0885C30.2526 68.242 30.4608 68.3283 30.678 68.3286H42.7732C42.9904 68.3283 43.1986 68.242 43.3522 68.0886C43.5058 67.9351 43.5922 67.727 43.5924 67.51V61.0727C43.5922 60.8557 43.5058 60.6477 43.3522 60.4942C43.1986 60.3407 42.9904 60.2544 42.7732 60.2542H30.678Z" fill="#3F3D56"/>
<path d="M61.1791 68.6115H49.084C48.7917 68.6111 48.5115 68.495 48.3048 68.2885C48.0981 68.082 47.9819 67.802 47.9815 67.51V61.0727C47.9819 60.7807 48.0981 60.5007 48.3048 60.2943C48.5115 60.0878 48.7917 59.9716 49.084 59.9713H61.1791C61.4714 59.9716 61.7516 60.0878 61.9583 60.2943C62.165 60.5007 62.2812 60.7807 62.2815 61.0727V67.51C62.2812 67.802 62.165 68.082 61.9583 68.2885C61.7516 68.495 61.4714 68.6111 61.1791 68.6115ZM49.084 60.2542C48.8667 60.2544 48.6585 60.3407 48.5049 60.4942C48.3513 60.6477 48.2649 60.8557 48.2647 61.0727V67.51C48.2649 67.727 48.3513 67.9351 48.5049 68.0886C48.6585 68.242 48.8667 68.3283 49.084 68.3286H61.1791C61.3963 68.3283 61.6046 68.242 61.7581 68.0886C61.9117 67.9351 61.9981 67.727 61.9984 67.51V61.0727C61.9981 60.8557 61.9117 60.6477 61.7581 60.4942C61.6046 60.3407 61.3963 60.2544 61.1791 60.2542H49.084Z" fill="#3F3D56"/>
<path d="M79.5851 68.6115H67.4899C67.1976 68.6111 66.9174 68.495 66.7107 68.2885C66.5041 68.082 66.3878 67.802 66.3875 67.51V61.0727C66.3878 60.7807 66.5041 60.5007 66.7107 60.2943C66.9174 60.0878 67.1976 59.9716 67.4899 59.9713H79.585C79.8773 59.9716 80.1576 60.0878 80.3642 60.2943C80.5709 60.5007 80.6871 60.7807 80.6875 61.0727V67.51C80.6871 67.802 80.5709 68.082 80.3642 68.2885C80.1576 68.495 79.8773 68.6111 79.5851 68.6115ZM67.4899 60.2542C67.2727 60.2544 67.0644 60.3407 66.9109 60.4942C66.7573 60.6477 66.6709 60.8557 66.6706 61.0727V67.51C66.6709 67.727 66.7573 67.9351 66.9109 68.0886C67.0644 68.242 67.2727 68.3283 67.4899 68.3286H79.585C79.8023 68.3283 80.0105 68.242 80.1641 68.0886C80.3177 67.9351 80.4041 67.727 80.4043 67.51V61.0727C80.4041 60.8557 80.3177 60.6477 80.1641 60.4942C80.0105 60.3407 79.8023 60.2544 79.585 60.2542H67.4899Z" fill="#3F3D56"/>
<path d="M42.7732 87.1421H30.678C30.3857 87.1417 30.1055 87.0256 29.8988 86.8191C29.6922 86.6126 29.5759 86.3326 29.5756 86.0406V79.6033C29.5759 79.3113 29.6922 79.0313 29.8988 78.8248C30.1055 78.6184 30.3857 78.5022 30.678 78.5019H42.7732C43.0655 78.5022 43.3457 78.6184 43.5523 78.8248C43.759 79.0313 43.8753 79.3113 43.8756 79.6033V86.0406C43.8753 86.3326 43.759 86.6126 43.5523 86.8191C43.3457 87.0256 43.0655 87.1417 42.7732 87.1421ZM30.678 78.7848C30.4608 78.785 30.2526 78.8713 30.099 79.0248C29.9454 79.1783 29.859 79.3863 29.8588 79.6033V86.0406C29.859 86.2576 29.9454 86.4657 30.099 86.6191C30.2526 86.7726 30.4608 86.8589 30.678 86.8592H42.7732C42.9904 86.8589 43.1986 86.7726 43.3522 86.6191C43.5058 86.4657 43.5922 86.2576 43.5924 86.0406V79.6033C43.5922 79.3863 43.5058 79.1782 43.3522 79.0248C43.1986 78.8713 42.9904 78.785 42.7732 78.7848H30.678Z" fill="#3F3D56"/>
<path d="M61.1791 87.1421H49.084C48.7917 87.1417 48.5115 87.0256 48.3048 86.8191C48.0981 86.6126 47.9819 86.3326 47.9815 86.0406V79.6033C47.9819 79.3113 48.0981 79.0313 48.3048 78.8248C48.5115 78.6184 48.7917 78.5022 49.084 78.5019H61.1791C61.4714 78.5022 61.7516 78.6184 61.9583 78.8248C62.165 79.0313 62.2812 79.3113 62.2815 79.6033V86.0406C62.2812 86.3326 62.165 86.6126 61.9583 86.8191C61.7516 87.0256 61.4714 87.1417 61.1791 87.1421ZM49.084 78.7848C48.8667 78.785 48.6585 78.8713 48.5049 79.0248C48.3513 79.1782 48.2649 79.3863 48.2647 79.6033V86.0406C48.2649 86.2576 48.3513 86.4657 48.5049 86.6191C48.6585 86.7726 48.8667 86.8589 49.084 86.8592H61.1791C61.3963 86.8589 61.6046 86.7726 61.7581 86.6191C61.9117 86.4657 61.9981 86.2576 61.9984 86.0406V79.6033C61.9981 79.3863 61.9117 79.1782 61.7581 79.0248C61.6046 78.8713 61.3963 78.785 61.1791 78.7848H49.084Z" fill="#3F3D56"/>
<path d="M79.5851 87.1421H67.4899C67.1976 87.1417 66.9174 87.0256 66.7107 86.8191C66.5041 86.6126 66.3878 86.3326 66.3875 86.0406V79.6033C66.3878 79.3113 66.5041 79.0313 66.7107 78.8248C66.9174 78.6184 67.1976 78.5022 67.4899 78.5019H79.585C79.8773 78.5022 80.1576 78.6184 80.3642 78.8248C80.5709 79.0313 80.6871 79.3113 80.6875 79.6033V86.0406C80.6871 86.3326 80.5709 86.6126 80.3642 86.8191C80.1576 87.0256 79.8773 87.1417 79.5851 87.1421ZM67.4899 78.7848C67.2727 78.785 67.0644 78.8713 66.9109 79.0248C66.7573 79.1782 66.6709 79.3863 66.6706 79.6033V86.0406C66.6709 86.2576 66.7573 86.4657 66.9109 86.6191C67.0644 86.7726 67.2727 86.8589 67.4899 86.8592H79.585C79.8023 86.8589 80.0105 86.7726 80.1641 86.6191C80.3177 86.4657 80.4041 86.2576 80.4043 86.0406V79.6033C80.4041 79.3863 80.3177 79.1782 80.1641 79.0248C80.0105 78.8713 79.8023 78.785 79.585 78.7848H67.4899Z" fill="#3F3D56"/>
<path d="M64.7499 92.1164C64.7553 91.7195 64.5811 91.337 64.2654 91.0529C63.9498 90.7688 63.5186 90.6065 63.0667 90.6016H54.75V108.602H64.7499V92.1164Z" fill="#3F3D56"/>
<path d="M55.75 109.602H44.75V92.354C44.7506 91.8894 44.9605 91.4439 45.3337 91.1154C45.7068 90.7869 46.2128 90.6021 46.7405 90.6016H55.75V109.602ZM45.169 109.233H55.331V90.9705H46.7405C46.3238 90.9709 45.9244 91.1168 45.6298 91.3762C45.3352 91.6355 45.1695 91.9872 45.169 92.354V109.233Z" fill="#3F3D56"/>
<path d="M110.5 97.5H78.5V67.4346C78.5004 66.8641 78.6438 66.3414 78.8705 65.979C78.9504 65.8513 79.0968 65.7275 79.2854 65.6338C79.475 65.5396 79.6581 65.5003 79.7684 65.5H109.232C109.342 65.5003 109.525 65.5396 109.715 65.6338C109.903 65.7275 110.05 65.8513 110.13 65.979C110.356 66.3415 110.5 66.8642 110.5 67.4348V97.5Z" fill="white" stroke="#0077B6"/>
<path d="M1.96445 109.487L113.536 109.602C113.593 109.601 113.647 109.554 113.687 109.471C113.727 109.388 113.75 109.276 113.75 109.159C113.75 109.042 113.727 108.929 113.687 108.846C113.647 108.763 113.593 108.717 113.536 108.716L1.96445 108.602C1.90747 108.602 1.85293 108.649 1.81274 108.732C1.77256 108.815 1.75 108.927 1.75 109.044C1.75 109.161 1.77256 109.274 1.81274 109.357C1.85293 109.44 1.90747 109.487 1.96445 109.487Z" fill="#001D32"/>
<path fill-rule="evenodd" clip-rule="evenodd" d="M90 68H81V77H84V80H81V83H84V80H87V83H89V86H81V95H90V86H99V89H96H95H93V95H96V92H98V95H101V92H104V89H102V86H105V89H108V86H105V83H108V80H105V77H108V68H99V77H90V68ZM90 80V77H87V80H90ZM90 80V83H93V80H90ZM102 80H105V83H102V80ZM102 80H100V77H102V80ZM99 83H102V86H99V83ZM99 83H96V80H99V83ZM88 70H83V75H88V70ZM88 88H83V93H88V88ZM87 71H84V74H87V71ZM84 89H87V92H84V89ZM93 68H96V76H93V68ZM108 92H105V95H108V92ZM106 70H101V75H106V70ZM105 71H102V74H105V71Z" fill="black"/>
</svg>
