<svg width="100" height="118" viewBox="0 0 100 118" fill="none" xmlns="http://www.w3.org/2000/svg">
<path d="M17.6335 112.078H19.1349L19.8494 106.362H17.6335V112.078Z" fill="#987250"/>
<path d="M17.1435 111.063L19.5422 110.922V111.936L21.8226 113.491C21.9353 113.567 22.0201 113.678 22.0648 113.805C22.1094 113.933 22.1115 114.072 22.0708 114.201C22.03 114.33 21.9486 114.442 21.8383 114.523C21.7281 114.603 21.5948 114.646 21.4579 114.646H18.6022L18.11 113.642L17.9178 114.646H16.8411L17.1435 111.063Z" fill="#2F2E41"/>
<path d="M29.6415 112.078H31.1429L31.8576 106.362H29.6415V112.078Z" fill="#987250"/>
<path d="M29.1516 111.063L31.5503 110.922V111.936L33.8307 113.491C33.9434 113.567 34.0282 113.678 34.0728 113.805C34.1175 113.933 34.1196 114.072 34.0789 114.201C34.0381 114.33 33.9567 114.442 33.8464 114.523C33.7362 114.603 33.6029 114.646 33.466 114.646H30.6103L30.1181 113.642L29.9259 114.646H28.8492L29.1516 111.063Z" fill="#2F2E41"/>
<path d="M18.8221 77.1645L26.8045 77.362V68.8462L20.2476 68.8782L18.8221 77.1645Z" fill="#987250"/>
<path d="M26.845 71.0332L27.9121 74.5425L30.1272 79.1456L34.8064 105.733L34.091 109.411L27.1543 109.124L24.0649 86.3272L24.0152 89.4743L23.9911 90.9976C23.9911 90.9976 25.1179 100.905 23.8045 102.828C22.491 104.751 23.7777 104.524 23.7777 104.524L23.7151 108.491L15.496 108.548L17.3092 97.1292C17.3092 97.1292 18.2299 96.4116 17.7373 95.6902C17.2447 94.9689 18.2148 94.0854 18.2148 94.0854L17.7797 85.171C17.7797 85.171 18.2614 83.6312 17.6948 83.431C17.1281 83.2309 17.6204 81.9068 17.6204 81.9068L17.5362 80.1813L19.4007 73.222L26.845 71.0332Z" fill="#2F2E41"/>
<path d="M19.11 68.8461L18.294 66.4295L17.711 65.624L17.4779 63.3224C17.4779 57.1081 18.8821 58.1429 18.8821 58.1429L20.7138 55.9574L22.7977 55.8931L24.4445 55.8423L25.8136 58.0863L27.7955 58.7768L28.5716 62.7574L27.1543 67.0049L27.2168 66.6893C27.884 67.905 27.7143 68.0879 27.1618 69.0007L27.1344 69.3304C27.0694 70.1097 27.6197 70.244 26.845 70.4079C20.1927 71.815 19.5591 74.6292 18.7672 73.5348C18.5908 73.2911 19.3392 70.3827 19.0839 70.4079C18.3847 70.4769 19.11 68.8461 19.11 68.8461Z" fill="#E6E6E6"/>
<path d="M23.1868 55.0698C25.0969 55.0698 26.6453 53.5414 26.6453 51.656C26.6453 49.7706 25.0969 48.2422 23.1868 48.2422C21.2768 48.2422 19.7284 49.7706 19.7284 51.656C19.7284 53.5414 21.2768 55.0698 23.1868 55.0698Z" fill="#987250"/>
<path d="M15.8917 76.0126L16.2458 63.9866L18.5525 64.9827L17.4025 75.9688C17.5833 76.1155 17.7144 76.3131 17.7783 76.5353C17.8422 76.7575 17.8359 76.9937 17.7603 77.2122C17.6846 77.4308 17.5431 77.6213 17.3548 77.7584C17.1665 77.8955 16.9402 77.9726 16.7063 77.9794C16.4724 77.9862 16.242 77.9224 16.0458 77.7964C15.8497 77.6705 15.6971 77.4885 15.6086 77.2746C15.52 77.0608 15.4997 76.8255 15.5503 76.5999C15.6008 76.3744 15.72 76.1695 15.8917 76.0126Z" fill="#987250"/>
<path d="M18.8408 58.0808L18.5726 58.1644C17.8558 58.3879 17.2299 58.8309 16.7855 59.4294C16.3412 60.0278 16.1017 60.7505 16.1017 61.4924L15.5971 63.7731C16.3281 65.011 17.4086 65.6244 18.9129 65.4807L18.8408 58.0808Z" fill="#E6E6E6"/>
<path d="M34.6086 62.2319C34.6087 62.0634 34.5707 61.897 34.4974 61.7448C34.4242 61.5926 34.3175 61.4584 34.1851 61.3521C34.0527 61.2457 33.8979 61.1698 33.732 61.1299C33.5662 61.09 33.3934 61.0871 33.2263 61.1214C33.0591 61.1557 32.9019 61.2264 32.7659 61.3282C32.6299 61.4301 32.5186 61.5606 32.4401 61.7102C32.3617 61.8599 32.318 62.0249 32.3123 62.1933C32.3066 62.3618 32.339 62.5293 32.4071 62.6838L30.1453 66.2018V64.0918L27.5939 64.364L27.9511 68.1245C27.9796 68.4255 28.1048 68.7097 28.3084 68.9355C28.512 69.1614 28.7833 69.3173 29.0829 69.3803C29.3824 69.4434 29.6945 69.4104 29.9737 69.2862C30.253 69.162 30.4847 68.953 30.6353 68.6897L33.6926 63.3422C33.9514 63.2894 34.1837 63.1501 34.3506 62.9478C34.5174 62.7456 34.6085 62.4927 34.6086 62.2319Z" fill="#987250"/>
<path d="M27.387 58.6462L27.6437 58.7262C28.3293 58.94 28.9281 59.3638 29.3532 59.9363C29.7783 60.5088 30.0074 61.2001 30.0074 61.9099L30.4901 64.0916C29.7908 65.2758 28.7572 65.8627 27.3181 65.7252L27.387 58.6462Z" fill="#E6E6E6"/>
<path d="M18.7477 52.4185C18.9409 51.6927 19.0135 50.9333 19.2925 50.2353C19.5696 49.5423 20.0389 48.9405 20.6467 48.4988C21.2544 48.0571 21.976 47.7935 22.7287 47.7382C23.4813 47.6829 24.2345 47.8382 24.9018 48.1862C25.5692 48.5342 26.1236 49.0608 26.5015 49.7056C26.8327 50.2289 26.9723 50.8483 26.8971 51.4608C26.787 52.127 26.34 52.7605 26.4799 53.4213C26.5736 53.8633 26.9118 54.2068 27.1804 54.5724C27.449 54.938 27.661 55.4215 27.4675 55.8308C27.2573 56.2752 26.6736 56.4066 26.1785 56.3648C25.6835 56.3231 25.1876 56.1653 24.6989 56.2538L24.9316 55.3536C24.3523 55.904 23.773 56.4544 23.1937 57.0048C23.2578 56.432 22.9882 55.8823 22.8022 55.336C22.6163 54.7898 22.5296 54.1314 22.898 53.6843C23.1183 53.4169 23.4578 53.2818 23.7608 53.1106C24.0639 52.9394 24.3646 52.683 24.3954 52.3397C24.4336 51.9152 24.0483 51.5745 23.6699 51.3693C23.2915 51.1641 22.8558 50.992 22.6434 50.621C22.7958 50.944 22.9483 51.267 23.1007 51.59C22.5938 51.5546 22.1052 51.3879 21.6844 51.1066C21.2636 50.8253 20.9254 50.4395 20.7039 49.988L20.495 50.123C18.7583 52.0454 20.9823 54.9258 19.6786 55.9337C20.2512 54.926 18.4503 53.536 18.7477 52.4185Z" fill="#2F2E41"/>
<path d="M63.9591 16.2623L32.2291 25.3233C27.2941 26.7326 24.4509 31.8239 25.8786 36.6952L46.8548 108.266C48.2825 113.137 53.4404 115.943 58.3754 114.534L90.1054 105.473C95.0404 104.064 97.8836 98.9724 96.4559 94.1012L75.4797 22.5308C74.052 17.6595 68.894 14.853 63.9591 16.2623Z" fill="#3F3D56"/>
<path d="M64.2012 17.0883L60.0518 18.2732L60.4665 19.6881C60.6542 20.3286 60.5765 21.0164 60.2504 21.6003C59.9243 22.1842 59.3767 22.6163 58.7278 22.8016L40.1894 28.0955C39.5406 28.2808 38.8438 28.2041 38.2523 27.8822C37.6607 27.5604 37.223 27.0198 37.0353 26.3793L36.6206 24.9644L32.4712 26.1493C30.3247 26.7649 28.5133 28.1957 27.4342 30.128C26.3552 32.0602 26.0967 34.3361 26.7154 36.4563L47.6916 108.027C48.3152 110.145 49.7648 111.933 51.7223 112.999C53.6799 114.064 55.9855 114.319 58.1334 113.708L89.8633 104.647C92.0098 104.031 93.8212 102.601 94.9003 100.668C95.9793 98.7361 96.2378 96.4603 95.6191 94.3401L74.6429 22.7698C74.0193 20.651 72.5697 18.8629 70.6122 17.7978C68.6546 16.7327 66.349 16.4775 64.2012 17.0883Z" fill="white"/>
<path opacity="0.35" d="M41.3954 77.6723C41.0308 77.591 40.4642 77.6222 40.572 78.0417L48.0179 106.111C49.4691 110.593 54.3293 111.722 57.5611 110.895L88.6683 102.797C93.6891 100.801 95.3248 97.2913 93.9357 92.1205C93.6259 90.9676 93.2239 89.3451 92.8281 89.2599C74.7395 85.3633 63.0954 82.5114 41.3954 77.6723Z" fill="#CDE5FF"/>
<path fill-rule="evenodd" clip-rule="evenodd" d="M53.6514 52.8598L45 55.3406L47.4807 63.9919L50.3645 63.165L51.1914 66.0488L48.3076 66.8757L49.1346 69.7595L52.0183 68.9326L51.1914 66.0488L54.0752 65.2219L54.9021 68.1057L56.8247 67.5544L57.6516 70.4382L49.9615 72.6433L52.4422 81.2946L61.0936 78.8139L58.6128 70.1626L67.2642 67.6818L68.0911 70.5656L65.2073 71.3925L64.246 71.6681L62.3235 72.2194L63.9773 77.987L66.8611 77.1601L66.0342 74.2763L67.9567 73.725L68.7837 76.6088L71.6674 75.7819L70.8405 72.8981L73.7243 72.0712L72.8974 69.1874L70.9749 69.7387L70.148 66.8549L73.0318 66.028L73.8587 68.9118L76.7425 68.0849L75.9155 65.2011L73.0318 66.028L72.2048 63.1442L75.0886 62.3173L74.2617 59.4335L71.3779 60.2604L70.551 57.3766L73.4348 56.5497L70.9541 47.8984L62.3027 50.3791L64.7834 59.0305L56.1321 61.5112L53.6514 52.8598ZM56.959 64.395L56.1321 61.5112L53.2483 62.3381L54.0752 65.2219L56.959 64.395ZM56.959 64.395L57.7859 67.2788L60.6697 66.4519L59.8428 63.5681L56.959 64.395ZM68.4941 61.0873L71.3779 60.2604L72.2048 63.1442L69.3211 63.9711L68.4941 61.0873ZM68.4941 61.0873L66.5716 61.6386L65.7447 58.7548L67.6672 58.2035L68.4941 61.0873ZM66.4373 64.798L69.3211 63.9711L70.148 66.8549L67.2642 67.6818L66.4373 64.798ZM66.4373 64.798L63.5535 65.6249L62.7266 62.7412L65.6104 61.9142L66.4373 64.798ZM52.2801 55.3336L47.4738 56.7118L48.852 61.5181L53.6583 60.1399L52.2801 55.3336ZM57.2416 72.6363L52.4353 74.0145L53.8135 78.8208L58.6198 77.4427L57.2416 72.6363ZM51.5945 56.5705L48.7107 57.3974L49.5376 60.2812L52.4214 59.4543L51.5945 56.5705ZM53.6722 74.7002L56.556 73.8732L57.3829 76.757L54.4991 77.5839L53.6722 74.7002ZM56.5351 52.0329L59.4189 51.206L61.624 58.8961L58.7402 59.723L56.5351 52.0329ZM77.5694 70.9686L74.6856 71.7956L75.5125 74.6793L78.3963 73.8524L77.5694 70.9686ZM69.5828 50.3722L64.7765 51.7504L66.1547 56.5567L70.961 55.1785L69.5828 50.3722ZM68.8972 51.6091L66.0134 52.436L66.8403 55.3198L69.7241 54.4928L68.8972 51.6091Z" fill="black"/>
<path d="M28.3694 46.0377C28.208 46.0836 28.0347 46.0644 27.8876 45.9844C27.7405 45.9044 27.6316 45.77 27.5847 45.6108L27.2326 44.4093C27.2095 44.3304 27.2023 44.2478 27.2115 44.1662C27.2208 44.0845 27.2462 44.0055 27.2864 43.9336C27.3265 43.8617 27.3806 43.7983 27.4456 43.747C27.5106 43.6957 27.5852 43.6576 27.6651 43.6347C27.7451 43.6119 27.8287 43.6049 27.9114 43.614C27.9941 43.6231 28.0742 43.6482 28.147 43.6878C28.2199 43.7274 28.2841 43.7809 28.3361 43.845C28.388 43.9092 28.4267 43.9828 28.4498 44.0617L28.8019 45.2632C28.8484 45.4225 28.829 45.5935 28.7479 45.7387C28.6668 45.8839 28.5307 45.9915 28.3694 46.0377Z" fill="#3F3D56"/>
<path d="M30.175 52.1985C30.0136 52.2444 29.8404 52.2252 29.6933 52.1452C29.5462 52.0651 29.4372 51.9308 29.3904 51.7715L28.421 48.4642C28.3979 48.3853 28.3908 48.3027 28.4 48.2211C28.4092 48.1395 28.4346 48.0604 28.4748 47.9885C28.515 47.9166 28.5691 47.8532 28.6341 47.8019C28.6991 47.7506 28.7737 47.7125 28.8536 47.6897C28.9335 47.6668 29.0172 47.6598 29.0999 47.6689C29.1826 47.678 29.2626 47.7031 29.3355 47.7427C29.4084 47.7824 29.4726 47.8358 29.5245 47.9C29.5765 47.9641 29.6151 48.0377 29.6382 48.1166L30.6076 51.424C30.6541 51.5833 30.6347 51.7543 30.5536 51.8995C30.4725 52.0447 30.3364 52.1522 30.175 52.1985Z" fill="#3F3D56"/>
<path d="M31.6267 57.1516C31.4653 57.1975 31.292 57.1783 31.1449 57.0983C30.9978 57.0183 30.8889 56.8839 30.842 56.7247L29.8727 53.4173C29.826 53.258 29.8453 53.0869 29.9264 52.9416C30.0075 52.7964 30.1438 52.6889 30.3052 52.6428C30.4666 52.5967 30.64 52.6158 30.7871 52.6959C30.9343 52.7759 31.0432 52.9104 31.0899 53.0697L32.0592 56.3771C32.1057 56.5364 32.0863 56.7074 32.0052 56.8526C31.9241 56.9978 31.788 57.1054 31.6267 57.1516Z" fill="#3F3D56"/>
<path d="M80.7398 40.1968C80.5784 40.2427 80.4051 40.2235 80.258 40.1435C80.1109 40.0634 80.002 39.9291 79.9551 39.7698L77.5899 31.6998C77.5432 31.5405 77.5625 31.3694 77.6437 31.2241C77.7248 31.0789 77.861 30.9714 78.0224 30.9253C78.1838 30.8792 78.3572 30.8983 78.5043 30.9783C78.6515 31.0584 78.7604 31.1929 78.8071 31.3522L81.1723 39.4223C81.2188 39.5816 81.1994 39.7526 81.1183 39.8978C81.0372 40.043 80.9011 40.1505 80.7398 40.1968Z" fill="#3F3D56"/>
<path d="M73.2605 38.5079L37.0056 48.8611C36.4464 49.0201 35.8461 48.9537 35.3364 48.6764C34.8268 48.3991 34.4494 47.9335 34.287 47.3819L32.2497 40.4308C32.0886 39.8788 32.1559 39.2863 32.4369 38.7832C32.7178 38.2801 33.1894 37.9076 33.7483 37.7473L70.0032 27.3941C70.5624 27.2351 71.1627 27.3015 71.6724 27.5788C72.182 27.8561 72.5594 28.3217 72.7218 28.8733L74.7591 35.8244C74.9202 36.3764 74.8529 36.969 74.5719 37.472C74.291 37.9751 73.8194 38.3476 73.2605 38.5079ZM33.8363 38.0477C33.3581 38.1848 32.9546 38.5036 32.7142 38.9341C32.4738 39.3645 32.4162 39.8716 32.554 40.3439L34.5913 47.295C34.7302 47.767 35.0532 48.1654 35.4893 48.4027C35.9254 48.64 36.439 48.6968 36.9175 48.5607L73.1725 38.2075C73.6507 38.0704 74.0543 37.7516 74.2946 37.3211C74.535 36.8907 74.5926 36.3836 74.4548 35.9113L72.4175 28.9602C72.2786 28.4882 71.9556 28.0898 71.5195 27.8525C71.0834 27.6153 70.5698 27.5584 70.0913 27.6945L33.8363 38.0477Z" fill="#3F3D56"/>
<path d="M50.209 23.1747L45.4923 24.5216C45.3916 24.55 45.2836 24.5378 45.1919 24.4877C45.1003 24.4376 45.0325 24.3537 45.0034 24.2544C44.9743 24.1551 44.9862 24.0484 45.0366 23.9577C45.087 23.8671 45.1717 23.7998 45.2722 23.7707L49.9889 22.4238C50.0389 22.4093 50.0913 22.4047 50.1432 22.4102C50.195 22.4158 50.2452 22.4314 50.2909 22.4561C50.3366 22.4809 50.3769 22.5143 50.4095 22.5545C50.4421 22.5946 50.4663 22.6408 50.4808 22.6902C50.4953 22.7396 50.4998 22.7914 50.4939 22.8425C50.4881 22.8937 50.4721 22.9432 50.4468 22.9882C50.4216 23.0332 50.3876 23.0729 50.3467 23.1049C50.3059 23.1369 50.2591 23.1606 50.209 23.1747Z" fill="white"/>
<path d="M52.5333 22.4169C52.7083 22.4169 52.8501 22.2769 52.8501 22.1042C52.8501 21.9315 52.7083 21.7915 52.5333 21.7915C52.3584 21.7915 52.2166 21.9315 52.2166 22.1042C52.2166 22.2769 52.3584 22.4169 52.5333 22.4169Z" fill="white"/>
<path d="M0.187643 115.19L97.8124 115.282C97.8622 115.281 97.9099 115.244 97.9451 115.177C97.9802 115.11 97.9999 115.02 97.9999 114.925C97.9999 114.831 97.9802 114.741 97.9451 114.674C97.9099 114.607 97.8622 114.57 97.8124 114.569L0.187643 114.477C0.13779 114.478 0.0900644 114.515 0.0549009 114.582C0.0197373 114.649 0 114.739 0 114.833C0 114.928 0.0197373 115.018 0.0549009 115.085C0.0900644 115.152 0.13779 115.189 0.187643 115.19Z" fill="#001D32"/>
<path opacity="0.75" d="M70.2186 2.53137L73.9903 12.9905L82.731 6.11891L76.9053 15.5889L87.7275 18.1383L76.6913 19.488L81.4456 29.5386L73.5094 21.7517L68.6158 31.7353L69.7557 20.6754L58.8991 23.0741L68.2568 17.0696L59.6125 10.0771L70.1413 13.6495L70.2186 2.53137Z" fill="#6DD2FF"/>
</svg>
