<svg width="260" height="160" viewBox="0 0 260 160" fill="none" xmlns="http://www.w3.org/2000/svg">
<g clip-path="url(#clip0_69492_307552)">
<path d="M152.394 159.645L162.347 157.028L197.404 136.874C202.277 134.072 202.316 127.055 197.475 124.198L160.223 102.231C157.113 100.398 153.105 101.406 151.235 104.495L142.017 119.709L152.397 159.645H152.394Z" fill="#94989E"/>
<path d="M153.123 26.0144L109.233 0.676069C107.841 -0.12824 106.588 -0.188302 105.687 0.354868C105.658 0.370536 105.629 0.386204 105.601 0.404484C105.572 0.420152 105.543 0.435821 105.514 0.454101C105.486 0.469769 105.457 0.485437 105.428 0.503717C105.4 0.519385 105.371 0.535054 105.342 0.553333C105.313 0.569002 105.285 0.58467 105.256 0.60295C105.227 0.618618 105.198 0.634287 105.17 0.652566C105.141 0.668235 105.112 0.683903 105.084 0.702183C105.055 0.717851 105.026 0.73352 104.997 0.751799C104.969 0.767468 104.94 0.783136 104.911 0.801416C104.882 0.817084 104.854 0.832752 104.825 0.851032C104.796 0.866701 104.768 0.882369 104.739 0.900649C104.71 0.916317 104.681 0.931985 104.653 0.950265C104.624 0.965933 104.595 0.981602 104.566 0.999882C104.538 1.01555 104.509 1.03122 104.48 1.0495C104.452 1.06517 104.423 1.08083 104.394 1.09911C104.365 1.11478 104.337 1.13045 104.308 1.14873C104.279 1.1644 104.25 1.18007 104.222 1.19835C104.193 1.21402 104.164 1.22968 104.136 1.24796C104.107 1.26363 104.078 1.2793 104.049 1.29758C104.021 1.31325 103.992 1.32892 103.963 1.3472C103.935 1.36286 103.906 1.37853 103.877 1.39681C103.848 1.41248 103.82 1.42815 103.791 1.44643C103.762 1.4621 103.733 1.47777 103.705 1.49605C103.676 1.51171 103.647 1.52738 103.619 1.54566C103.59 1.56133 103.561 1.577 103.532 1.59528C103.504 1.61095 103.475 1.62662 103.446 1.6449C103.417 1.66056 103.389 1.67623 103.36 1.69451C103.331 1.71018 103.303 1.72585 103.274 1.74413C103.245 1.7598 103.216 1.77547 103.188 1.79374C103.159 1.80941 103.13 1.82508 103.101 1.84336C103.073 1.85903 103.044 1.8747 103.015 1.89298C102.987 1.90865 102.958 1.92431 102.929 1.94259C102.9 1.95826 102.872 1.97393 102.843 1.99221C102.814 2.00788 102.786 2.02355 102.757 2.04183C102.728 2.0575 102.699 2.07316 102.671 2.09144C102.642 2.10711 102.613 2.12278 102.584 2.14106C102.556 2.15673 102.527 2.1724 102.498 2.19068C102.47 2.20634 102.441 2.22201 102.412 2.24029C102.383 2.25596 102.355 2.27163 102.326 2.28991C102.297 2.30558 102.268 2.32125 102.24 2.33953C102.211 2.35519 102.182 2.37086 102.154 2.38914C102.125 2.40481 102.096 2.42048 102.067 2.43876C102.039 2.45443 102.01 2.4701 101.981 2.48837C101.952 2.50404 101.924 2.51971 101.895 2.53799C101.866 2.55366 101.838 2.56933 101.809 2.58761C101.78 2.60328 101.751 2.61894 101.723 2.63722C101.694 2.65289 101.665 2.66856 101.636 2.68684C100.723 3.16473 100.145 4.2824 100.145 5.89102V125.391C100.145 128.553 102.365 132.4 105.104 133.982L148.994 159.321C150.383 160.122 151.639 160.185 152.54 159.642C152.569 159.626 152.598 159.611 152.627 159.592C152.655 159.577 152.684 159.561 152.713 159.543C152.741 159.527 152.77 159.511 152.799 159.493C152.828 159.477 152.856 159.462 152.885 159.443C152.914 159.428 152.943 159.412 152.971 159.394C153 159.378 153.029 159.363 153.057 159.344C153.086 159.329 153.115 159.313 153.144 159.295C153.172 159.279 153.201 159.263 153.23 159.245C153.258 159.229 153.287 159.214 153.316 159.195C153.345 159.18 153.373 159.164 153.402 159.146C153.431 159.13 153.46 159.114 153.488 159.096C153.517 159.08 153.546 159.065 153.574 159.047C153.603 159.031 153.632 159.015 153.661 158.997C153.689 158.981 153.718 158.966 153.747 158.947C153.776 158.932 153.804 158.916 153.833 158.898C153.862 158.882 153.89 158.866 153.919 158.848C153.948 158.832 153.977 158.817 154.005 158.798C154.034 158.783 154.063 158.767 154.092 158.749C154.12 158.733 154.149 158.718 154.178 158.699C154.206 158.684 154.235 158.668 154.264 158.65C154.293 158.634 154.321 158.618 154.35 158.6C154.379 158.584 154.408 158.569 154.436 158.55C154.465 158.535 154.494 158.519 154.522 158.501C154.551 158.485 154.58 158.469 154.609 158.451C154.637 158.435 154.666 158.42 154.695 158.402C154.723 158.386 154.752 158.37 154.781 158.352C154.81 158.336 154.838 158.321 154.867 158.302C154.896 158.287 154.925 158.271 154.953 158.253C154.982 158.237 155.011 158.221 155.039 158.203C155.068 158.187 155.097 158.172 155.126 158.153C155.154 158.138 155.183 158.122 155.212 158.104C155.241 158.088 155.269 158.073 155.298 158.054C155.327 158.039 155.355 158.023 155.384 158.005C155.413 157.989 155.442 157.973 155.47 157.955C155.499 157.939 155.528 157.924 155.557 157.905C155.585 157.89 155.614 157.874 155.643 157.856C155.671 157.84 155.7 157.824 155.729 157.806C155.758 157.79 155.786 157.775 155.815 157.757C155.844 157.741 155.872 157.725 155.901 157.707C155.93 157.691 155.959 157.676 155.987 157.657C156.016 157.642 156.045 157.626 156.074 157.608C156.102 157.592 156.131 157.576 156.16 157.558C156.188 157.542 156.217 157.527 156.246 157.508C156.275 157.493 156.303 157.477 156.332 157.459C156.361 157.443 156.39 157.427 156.418 157.409C156.447 157.394 156.476 157.378 156.504 157.36C156.533 157.344 156.562 157.328 156.591 157.31C157.515 156.803 158.092 155.686 158.092 154.077V34.6059C158.092 31.4435 155.872 27.5969 153.133 26.0144H153.123Z" fill="#007BBD"/>
<path d="M148.994 159.323L105.104 133.985C102.365 132.402 100.145 128.556 100.145 125.393V5.89066C100.145 2.72826 102.368 1.44607 105.107 3.02596L148.997 28.3643C151.736 29.9468 153.958 33.7934 153.958 36.9558V156.456C153.958 159.618 151.736 160.9 148.997 159.32L148.994 159.323Z" fill="#B9C8DA"/>
<path d="M105.107 132.618C103.023 131.415 101.328 128.479 101.328 126.074V6.57444C101.328 4.16935 103.025 3.19007 105.107 4.39393L148.996 29.7323C151.08 30.9361 152.775 33.8713 152.775 36.2764V155.779C152.775 158.184 151.078 159.163 148.996 157.959L105.107 132.618Z" fill="#007BBD"/>
<path d="M105.107 132.163C103.242 131.087 101.722 128.458 101.722 126.303V6.80337C101.722 4.64897 103.242 3.77154 105.107 4.85005L148.996 30.1884C150.861 31.2643 152.381 33.8939 152.381 36.0483V155.548C152.381 157.703 150.861 158.58 148.996 157.502L105.107 132.163Z" fill="#007BBD"/>
<path d="M105.828 130.761C104.431 129.954 103.297 127.993 103.297 126.379V8.54784C103.297 6.934 104.431 6.28116 105.828 7.08808L148.271 31.5934C149.668 32.4003 150.801 34.3615 150.801 35.9753V153.807C150.801 155.42 149.668 156.073 148.271 155.266L105.828 130.761Z" fill="#191919"/>
<path d="M132.9 25.5993L121.353 18.9324C120.311 18.3318 119.355 17.1123 118.869 15.77L117.788 12.7773L136.316 23.4736L135.164 25.3303C134.72 26.0432 133.851 26.1477 132.903 25.5993H132.9Z" fill="#007BBD"/>
<g style="mix-blend-mode:screen">
<path d="M104.864 4.46023C102.999 3.38434 101.479 4.25915 101.479 6.41355V125.913C101.479 127.441 102.244 129.206 103.354 130.491L139.146 24.252L104.864 4.46023Z" fill="#333333"/>
</g>
</g>
<circle cx="166" cy="98" r="36" fill="#F2F2F2"/>
<path fill-rule="evenodd" clip-rule="evenodd" d="M166 58C143.92 58 126 75.92 126 98C126 120.08 143.92 138 166 138C188.08 138 206 120.08 206 98C206 75.92 188.08 58 166 58ZM191.44 117.32C185.72 110.36 171.84 108 166 108C160.16 108 146.28 110.36 140.56 117.32C136.48 111.96 134 105.28 134 98C134 80.36 148.36 66 166 66C183.64 66 198 80.36 198 98C198 105.28 195.52 111.96 191.44 117.32ZM152 88C152 80.24 158.24 74 166 74C173.76 74 180 80.24 180 88C180 95.76 173.76 102 166 102C158.24 102 152 95.76 152 88Z" fill="#007BBD"/>
<circle cx="78" cy="52" r="36" fill="#F2F2F2"/>
<path d="M82.0001 32H74.0001V48H58.0001V56H74.0001V72H82.0001V56H98.0001V48H82.0001V32ZM78.0001 12C55.9201 12 38.0001 29.92 38.0001 52C38.0001 74.08 55.9201 92 78.0001 92C100.08 92 118 74.08 118 52C118 29.92 100.08 12 78.0001 12ZM78.0001 84C60.3601 84 46.0001 69.64 46.0001 52C46.0001 34.36 60.3601 20 78.0001 20C95.6401 20 110 34.36 110 52C110 69.64 95.6401 84 78.0001 84Z" fill="#007BBD"/>
<defs>
<clipPath id="clip0_69492_307552">
<rect width="101.082" height="160" fill="white" transform="translate(100)"/>
</clipPath>
</defs>
</svg>
