<svg width="89" height="54" viewBox="0 0 89 54" fill="none" xmlns="http://www.w3.org/2000/svg">
<g clip-path="url(#clip0_69568_102446)">
<path d="M52.0796 53.8802L55.448 52.9971L67.3138 46.1949C68.9631 45.2492 68.9763 42.881 67.3376 41.9168L54.7294 34.503C53.6768 33.8843 52.3201 34.2245 51.6872 35.2671L48.5672 40.4018L52.0805 53.8802H52.0796Z" fill="#94989E"/>
<path d="M52.326 8.80488L37.4711 0.228823C37 -0.0434043 36.5757 -0.063733 36.2708 0.120109C36.2611 0.125412 36.2514 0.130715 36.2416 0.136902C36.2319 0.142205 36.2222 0.147509 36.2125 0.153696C36.2027 0.158999 36.193 0.164302 36.1833 0.170489C36.1736 0.175792 36.1639 0.181095 36.1541 0.187282C36.1444 0.192585 36.1347 0.197888 36.125 0.204075C36.1152 0.209379 36.1055 0.214682 36.0958 0.220869C36.0861 0.226172 36.0764 0.231475 36.0666 0.237662C36.0569 0.242965 36.0472 0.248268 36.0375 0.254455C36.0277 0.259758 36.018 0.265061 36.0083 0.271248C35.9986 0.276552 35.9889 0.281855 35.9791 0.288042C35.9694 0.293345 35.9597 0.298648 35.95 0.304835C35.9402 0.310138 35.9305 0.315441 35.9208 0.321628C35.9111 0.326931 35.9014 0.332234 35.8916 0.338421C35.8819 0.343725 35.8722 0.349028 35.8625 0.355215C35.8527 0.360518 35.843 0.365821 35.8333 0.372008C35.8236 0.377311 35.8139 0.382614 35.8041 0.388801C35.7944 0.394104 35.7847 0.399408 35.775 0.405595C35.7652 0.410898 35.7555 0.416201 35.7458 0.422388C35.7361 0.427691 35.7264 0.432994 35.7166 0.439181C35.7069 0.444484 35.6972 0.449787 35.6875 0.455974C35.6777 0.461277 35.668 0.466581 35.6583 0.472768C35.6486 0.478071 35.6388 0.483374 35.6291 0.489561C35.6194 0.494864 35.6097 0.500167 35.6 0.506354C35.5902 0.511657 35.5805 0.51696 35.5708 0.523147C35.5611 0.52845 35.5513 0.533754 35.5416 0.539941C35.5319 0.545244 35.5222 0.550547 35.5125 0.556734C35.5027 0.562037 35.493 0.56734 35.4833 0.573527C35.4736 0.57883 35.4638 0.584133 35.4541 0.59032C35.4444 0.595624 35.4347 0.600927 35.425 0.607114C35.4152 0.612417 35.4055 0.61772 35.3958 0.623907C35.3861 0.62921 35.3763 0.634513 35.3666 0.6407C35.3569 0.646003 35.3472 0.651306 35.3375 0.657493C35.3277 0.662797 35.318 0.6681 35.3083 0.674287C35.2986 0.67959 35.2888 0.684893 35.2791 0.69108C35.2694 0.696383 35.2597 0.701686 35.25 0.707873C35.2402 0.713176 35.2305 0.71848 35.2208 0.724666C35.2111 0.72997 35.2013 0.735273 35.1916 0.74146C35.1819 0.746763 35.1722 0.752066 35.1625 0.758253C35.1527 0.763556 35.143 0.768859 35.1333 0.775046C35.1236 0.780349 35.1138 0.785653 35.1041 0.79184C35.0944 0.797143 35.0847 0.802446 35.0749 0.808633C35.0652 0.813936 35.0555 0.819239 35.0458 0.825426C35.0361 0.830729 35.0263 0.836032 35.0166 0.842219C35.0069 0.847522 34.9972 0.852826 34.9874 0.859013C34.9777 0.864316 34.968 0.869619 34.9583 0.875806C34.9486 0.881109 34.9388 0.886412 34.9291 0.892599C34.9194 0.897902 34.9097 0.903205 34.8999 0.909392C34.5906 1.07114 34.3953 1.44943 34.3953 1.99388V42.44C34.3953 43.5104 35.1465 44.8123 36.0737 45.3479L50.9287 53.924C51.3989 54.1953 51.824 54.2165 52.1289 54.0327C52.1387 54.0274 52.1484 54.0221 52.1581 54.0159C52.1678 54.0106 52.1776 54.0053 52.1873 53.9991C52.197 53.9938 52.2067 53.9885 52.2164 53.9823C52.2262 53.977 52.2359 53.9717 52.2456 53.9655C52.2553 53.9602 52.2651 53.9549 52.2748 53.9487C52.2845 53.9434 52.2942 53.9381 52.3039 53.9319C52.3137 53.9266 52.3234 53.9213 52.3331 53.9151C52.3428 53.9098 52.3526 53.9045 52.3623 53.8983C52.372 53.893 52.3817 53.8877 52.3915 53.8815C52.4012 53.8762 52.4109 53.8709 52.4206 53.8647C52.4303 53.8594 52.4401 53.8541 52.4498 53.8479C52.4595 53.8426 52.4692 53.8373 52.479 53.8311C52.4887 53.8258 52.4984 53.8205 52.5081 53.8144C52.5178 53.809 52.5276 53.8037 52.5373 53.7976C52.547 53.7923 52.5567 53.787 52.5665 53.7808C52.5762 53.7755 52.5859 53.7702 52.5956 53.764C52.6053 53.7587 52.6151 53.7534 52.6248 53.7472C52.6345 53.7419 52.6442 53.7366 52.654 53.7304C52.6637 53.7251 52.6734 53.7198 52.6831 53.7136C52.6928 53.7083 52.7026 53.703 52.7123 53.6968C52.722 53.6915 52.7317 53.6862 52.7415 53.68C52.7512 53.6747 52.7609 53.6694 52.7706 53.6632C52.7803 53.6579 52.7901 53.6526 52.7998 53.6464C52.8095 53.6411 52.8192 53.6358 52.829 53.6296C52.8387 53.6243 52.8484 53.619 52.8581 53.6128C52.8678 53.6075 52.8776 53.6022 52.8873 53.596C52.897 53.5907 52.9067 53.5854 52.9165 53.5792C52.9262 53.5739 52.9359 53.5686 52.9456 53.5625C52.9554 53.5572 52.9651 53.5518 52.9748 53.5457C52.9845 53.5404 52.9942 53.5351 53.004 53.5289C53.0137 53.5236 53.0234 53.5183 53.0331 53.5121C53.0429 53.5068 53.0526 53.5015 53.0623 53.4953C53.072 53.49 53.0817 53.4847 53.0915 53.4785C53.1012 53.4732 53.1109 53.4679 53.1206 53.4617C53.1304 53.4564 53.1401 53.4511 53.1498 53.4449C53.1595 53.4396 53.1692 53.4343 53.179 53.4281C53.1887 53.4228 53.1984 53.4175 53.2081 53.4113C53.2179 53.406 53.2276 53.4007 53.2373 53.3945C53.247 53.3892 53.2567 53.3839 53.2665 53.3777C53.2762 53.3724 53.2859 53.3671 53.2956 53.3609C53.3054 53.3556 53.3151 53.3503 53.3248 53.3441C53.3345 53.3388 53.3442 53.3335 53.354 53.3273C53.3637 53.322 53.3734 53.3167 53.3831 53.3106C53.3929 53.3052 53.4026 53.2999 53.4123 53.2938C53.422 53.2885 53.4318 53.2832 53.4415 53.277C53.4512 53.2717 53.4609 53.2664 53.4706 53.2602C53.4804 53.2549 53.4901 53.2496 53.4998 53.2434C53.8127 53.0719 54.008 52.6936 54.008 52.1492V11.7128C54.008 10.6424 53.2567 9.34049 52.3296 8.80488H52.326Z" fill="#007BBD"/>
<path d="M50.9287 53.9254L36.0737 45.3493C35.1465 44.8137 34.3953 43.5118 34.3953 42.4414V1.99441C34.3953 0.924058 35.1474 0.490084 36.0746 1.02482L50.9296 9.60087C51.8567 10.1365 52.6089 11.4384 52.6089 12.5088V52.9549C52.6089 54.0252 51.8567 54.4592 50.9296 53.9245L50.9287 53.9254Z" fill="#B9C8DA"/>
<path d="M36.0745 44.8869C35.3692 44.4794 34.7955 43.486 34.7955 42.6719V2.22581C34.7955 1.41178 35.37 1.08033 36.0745 1.48779L50.9294 10.0638C51.6348 10.4713 52.2084 11.4648 52.2084 12.2788V52.7258C52.2084 53.5398 51.6339 53.8713 50.9294 53.4638L36.0745 44.8869Z" fill="#007BBD"/>
<path d="M36.0744 44.7321C35.4434 44.368 34.929 43.4779 34.929 42.7488V2.30263C34.929 1.57345 35.4434 1.27648 36.0744 1.64151L50.9294 10.2176C51.5605 10.5817 52.0749 11.4718 52.0749 12.2009V52.6471C52.0749 53.3762 51.5605 53.6732 50.9294 53.3082L36.0744 44.7321Z" fill="#007BBD"/>
<path d="M36.3185 44.2569C35.8456 43.9837 35.462 43.32 35.462 42.7737V2.8924C35.462 2.34617 35.8456 2.12521 36.3185 2.39832L50.6838 10.6924C51.1567 10.9655 51.5403 11.6293 51.5403 12.1755V52.0569C51.5403 52.6031 51.1567 52.8241 50.6838 52.551L36.3185 44.2569Z" fill="#191919"/>
<path d="M45.4815 8.66395L41.573 6.40747C41.2204 6.20418 40.8969 5.79142 40.7325 5.33712L40.3666 4.32422L46.6375 7.94449L46.2478 8.57291C46.0975 8.81421 45.8032 8.84956 45.4823 8.66395H45.4815Z" fill="#007BBD"/>
<g style="mix-blend-mode:screen">
<path d="M35.9922 1.50929C35.3611 1.14514 34.8467 1.44123 34.8467 2.17041V42.6165C34.8467 43.1336 35.1056 43.7311 35.4813 44.1659L47.5954 8.20803L35.9922 1.50929Z" fill="#333333"/>
</g>
</g>
<ellipse cx="26.9001" cy="17.5494" rx="12.1846" ry="12.15" fill="#F2F2F2"/>
<path d="M28.2539 10.7998H25.5462V16.1998H20.1308V18.8998H25.5462V24.2998H28.2539V18.8998H33.6693V16.1998H28.2539V10.7998ZM26.9 4.0498C19.4268 4.0498 13.3616 10.0978 13.3616 17.5498C13.3616 25.0018 19.4268 31.0498 26.9 31.0498C34.3733 31.0498 40.4385 25.0018 40.4385 17.5498C40.4385 10.0978 34.3733 4.0498 26.9 4.0498ZM26.9 28.3498C20.9296 28.3498 16.0693 23.5033 16.0693 17.5498C16.0693 11.5963 20.9296 6.7498 26.9 6.7498C32.8705 6.7498 37.7308 11.5963 37.7308 17.5498C37.7308 23.5033 32.8705 28.3498 26.9 28.3498Z" fill="#007BBD"/>
<rect x="46.7846" y="23.2207" width="19.8" height="19.8" rx="1.26923" fill="#F2F2F2"/>
<rect x="46.6577" y="23.0946" width="20.0538" height="20.0538" rx="1.39615" stroke="#007BBD" stroke-width="1.26923"/>
<path fill-rule="evenodd" clip-rule="evenodd" d="M54.3152 26.0137H49.5768V30.7521H54.3152V26.0137ZM53.2623 27.0667H50.6298V29.6992H53.2623V27.0667ZM54.3153 35.4906H49.5768V40.2291H54.3153V35.4906ZM53.2623 36.5437H50.6298V39.1761H53.2623V36.5437ZM52.7358 27.5932H51.1563V29.1727H52.7358V27.5932ZM51.1563 37.0701H52.7358V38.6496H51.1563V37.0701ZM57.4743 37.0701H59.0537V35.4906H60.6332V37.0701H61.6862V38.6496H57.4743V40.2291H55.8948V37.0701H56.9478H57.4743ZM52.7358 30.7522H51.1563V32.3316H52.7358V30.7522ZM55.8948 26.0137H57.4743V30.2257H55.8948V26.0137ZM62.2127 30.7522V32.3316H60.6332V30.7522H59.5802V32.3316H54.3153V30.7522H59.0537V26.0137H63.7922V30.7522H62.2127ZM54.3152 33.9111H55.8948V32.3317H57.4743V33.9111H59.0537V35.4906H53.7887V33.9112H52.7357V32.3317H54.3152V33.9111ZM60.6332 33.9111H62.2127V32.3317H63.7922V33.9112H62.2127V35.4906H60.6332V33.9111ZM60.1067 38.6496H58.5272V40.2291H60.1067V38.6496ZM49.5768 32.3317H51.1563V33.9112H49.5768V32.3317ZM60.6332 32.3317H59.0537V33.9112H60.6332V32.3317ZM62.2127 35.4906H63.7922V37.0701H62.2127V35.4906ZM63.7922 38.6496H62.2127V40.2291H63.7922V38.6496ZM62.7391 27.0667H60.1066V29.6992H62.7391V27.0667ZM62.2127 27.5932H60.6332V29.1727H62.2127V27.5932Z" fill="#007BBD"/>
<defs>
<clipPath id="clip0_69568_102446">
<rect width="34.2123" height="54" fill="white" transform="translate(34.3461)"/>
</clipPath>
</defs>
</svg>
