<svg width="260" height="160" viewBox="0 0 260 160" fill="none" xmlns="http://www.w3.org/2000/svg">
<g clip-path="url(#clip0_69492_308104)">
<path d="M88.0001 10.666C58.5068 10.666 34.6668 34.506 34.6668 63.9994C34.6668 93.4927 58.5068 117.333 88.0001 117.333C117.493 117.333 141.333 93.4927 141.333 63.9994C141.333 34.506 117.493 10.666 88.0001 10.666ZM88.0001 106.666C64.4801 106.666 45.3335 87.5194 45.3335 63.9994C45.3335 40.4794 64.4801 21.3327 88.0001 21.3327C111.52 21.3327 130.667 40.4794 130.667 63.9994C130.667 87.5194 111.52 106.666 88.0001 106.666ZM107.147 37.3327L88.0001 56.4794L68.8535 37.3327L61.3335 44.8527L80.4801 63.9994L61.3335 83.146L68.8535 90.666L88.0001 71.5194L107.147 90.666L114.667 83.146L95.5201 63.9994L114.667 44.8527L107.147 37.3327Z" fill="#F55C5C"/>
<path d="M116.939 47.5987L126.668 122.414C127.17 126.431 129.994 130.322 135.204 133.46C147.066 140.553 166.649 140.804 178.951 133.9C184.725 130.699 187.863 126.493 188.365 122.225L197.717 47.3477L116.939 47.5987Z" fill="#0D4A73"/>
<path d="M186.599 29.4612C202.102 38.8131 201.537 53.6254 185.407 62.6635C169.277 71.6388 143.606 71.3878 128.103 62.0986C112.6 52.8095 113.165 37.9344 129.296 28.8963C145.426 19.921 171.097 20.1721 186.599 29.4612Z" fill="#2F628C"/>
<path d="M118.63 52.6826C120.45 56.1346 123.589 59.3356 128.108 62.0972C143.61 71.4491 169.218 71.7002 185.411 62.6621C189.868 60.2143 193.069 57.2644 195.14 54.1262C193.194 49.8582 189.993 46.0923 186.792 49.9837C186.165 50.7369 185.537 51.9922 184.596 51.7411C184.282 51.6784 184.031 51.4273 183.842 51.1762C183.089 50.2348 182.587 49.105 182.462 47.9125C182.336 46.72 182.524 45.5275 182.524 44.3977C182.524 44.2722 182.524 44.1466 182.524 44.0211C182.336 40.7574 179.825 37.8074 176.624 37.117C175.432 36.866 174.177 36.9287 173.047 36.5522C171.98 36.1756 171.101 35.5479 170.16 34.9203C167.461 33.1001 164.511 31.7193 161.435 30.8406C160.055 30.4013 158.486 30.1502 157.167 30.6523C154.155 31.8448 153.151 36.8032 149.887 36.6777C149.008 36.6777 148.192 36.1756 147.502 35.6735C146.309 34.7948 145.242 33.7278 143.924 33.1001C142.606 32.4725 140.849 32.4097 139.782 33.4767C139.091 34.1671 138.84 35.1713 138.087 35.6735C136.393 36.8032 133.882 34.7948 132.125 35.799C131.183 36.3639 130.806 37.5564 130.555 38.6234C130.116 40.6318 129.614 42.7031 129.175 44.7115C127.668 45.2136 126.162 43.0169 124.656 43.5818C122.271 44.5232 120.262 50.4231 118.818 52.6198C118.818 52.6198 118.818 52.7454 118.756 52.7454L118.63 52.6826Z" fill="#E0E2E8"/>
<path d="M157.229 70.4454C146.371 70.4454 135.575 67.9976 127.478 63.102C119.696 58.4575 115.49 52.2438 115.616 45.5908C115.742 38.7495 120.386 32.473 128.671 27.8285C145.115 18.6649 171.351 18.9159 187.167 28.3934C194.95 33.0379 199.155 39.2516 199.03 45.9046C198.904 52.7459 194.26 59.0223 185.975 63.6669C177.941 68.1232 167.585 70.3827 157.229 70.3827V70.4454ZM157.48 23.4977C147.563 23.4977 137.584 25.6317 129.864 29.9625C122.332 34.1677 118.127 39.7537 118.001 45.6535C117.876 51.3651 121.704 56.8256 128.671 61.0308C143.797 70.1316 168.966 70.3827 184.72 61.5957C192.251 57.3905 196.456 51.8044 196.582 45.9046C196.708 40.193 192.879 34.7325 185.912 30.5273C178.192 25.8828 167.836 23.4977 157.417 23.4977H157.48Z" fill="#2F628C"/>
<mask id="mask0_69492_308104" style="mask-type:luminance" maskUnits="userSpaceOnUse" x="117" y="22" width="82" height="48">
<path d="M187.105 29.467C202.608 38.8189 202.043 53.6313 185.913 62.6694C169.782 71.6447 144.112 71.3936 128.609 62.1045C113.106 52.8154 113.671 37.9402 129.802 28.9022C145.932 19.9269 171.603 20.1779 187.105 29.467Z" fill="white"/>
</mask>
<g mask="url(#mask0_69492_308104)">
<path d="M141.286 56.3856C141.286 56.3856 141.788 56.6994 142.102 56.8877C143.294 57.5781 145.428 56.6367 146.621 57.4526C147.939 58.3941 148.19 60.7791 148.692 62.2854C149.006 63.2269 149.32 64.2311 149.885 65.0471C150.889 66.4279 152.584 67.1811 154.215 67.8715C155.471 68.3736 156.789 68.9385 158.107 68.6874C159.425 68.4363 160.429 67.5576 161.371 66.6162C163.505 64.4194 165.199 61.7833 166.392 58.9589C164.885 58.9589 162.877 58.4568 162.689 56.9505C162.689 56.3856 162.877 55.8835 163.128 55.3814C164.195 53.5612 166.894 52.9963 166.706 50.7368C166.517 47.9752 163.379 47.0337 161.496 46.2805C160.868 46.0295 160.492 45.3391 160.053 44.7742C158.421 42.6402 155.094 41.9498 154.09 39.4392C153.964 39.1254 153.902 38.8116 153.588 38.6861C153.148 38.435 152.646 38.8116 152.395 39.2509C152.144 39.6903 152.019 40.1924 151.579 40.5062C150.826 41.0083 149.759 40.4435 148.943 40.7573C146.621 41.636 146.307 46.7199 145.428 48.7283C144.487 50.7996 142.541 52.2431 141.537 54.2516C140.784 55.758 140.533 55.9462 141.286 56.5111V56.3856Z" fill="#C2C7CF"/>
<path d="M123.964 61.783C125.534 61.4064 127.04 60.967 128.609 60.5904C128.986 60.4649 129.425 60.3394 129.739 60.0255C129.99 59.7117 130.053 59.2724 130.115 58.8958L130.68 55.1299C130.806 54.1257 130.994 53.1215 131.433 52.2428C132.249 50.6737 133.756 49.7322 135.262 48.7907C136.392 48.1003 137.647 47.3472 138.965 47.4099C140.283 47.4099 141.476 48.1631 142.48 48.9163C144.928 50.7364 146.999 53.0587 148.631 55.6948C147.124 56.0086 145.242 56.699 145.304 58.2682C145.304 58.833 145.618 59.3351 145.995 59.7745C146.873 60.8415 148.003 61.5947 149.321 61.9712C149.635 62.034 149.949 62.1595 150.137 62.4106C150.325 62.7244 150.137 63.0382 150.074 63.3521L148.945 66.4275C148.505 67.62 147.94 68.9381 146.685 69.3147C145.43 69.6913 141.35 65.9254 140.032 65.5488C139.907 65.5488 139.718 65.486 139.593 65.5488C139.216 65.7371 139.342 66.2392 139.279 66.6786C139.216 67.7456 137.584 68.1849 136.957 67.3062C137.521 68.1221 134.383 69.754 133.881 69.8168C132.563 70.0678 131.998 69.6913 130.931 69.0636C128.107 67.3062 125.596 64.5446 123.902 61.6574L123.964 61.783Z" fill="#F1F3F9"/>
<path d="M156.473 36.8036C160.867 39.0004 159.423 46.9715 163.88 48.9799C165.009 49.482 166.516 49.5448 167.206 50.549C167.771 51.365 167.646 52.6203 168.273 53.3734C168.901 54.1894 170.156 54.2521 171.223 54.0011C172.227 53.75 173.169 53.1851 174.236 52.9968C175.428 52.7458 176.684 52.9968 177.939 52.9968C182.709 52.9968 187.228 49.1682 187.918 44.4609C184.592 43.5822 184.655 38.4355 181.705 36.6154C180.763 36.0505 179.696 35.9249 178.755 35.2973C177.374 34.4186 176.809 32.5357 177.374 31.0293C177.248 31.3432 173.169 27.5773 172.792 27.4518C170.972 26.5103 170.282 27.0124 168.524 28.0794C164.319 30.59 160.365 33.9165 156.411 36.8036H156.473Z" fill="#C2C7CF"/>
<path d="M130.301 55.5066C128.606 53.7492 127.226 52.745 126.912 50.4227C126.661 48.477 126.096 46.4058 126.096 44.3973C126.096 40.3176 128.606 37.1166 132.874 37.0539C134.318 37.0539 135.887 37.4305 137.205 36.8656C138.084 36.489 138.774 35.6731 139.527 35.0454C140.281 34.4178 141.348 33.9784 142.226 34.4178C142.728 34.6688 143.105 35.1709 143.482 35.6103C144.109 36.489 144.737 37.3677 145.364 38.3092C145.678 38.7485 146.055 39.2506 146.18 39.8155C146.494 40.9453 145.929 42.1378 145.302 43.2048C144.36 44.8367 143.231 46.4058 141.975 47.9121C141.222 48.7908 140.406 49.6695 140.281 50.7993C140.155 51.4269 140.281 52.0546 140.155 52.6194C139.778 54.063 138.084 54.7534 136.515 54.8789C135.008 55.0045 133.377 54.8789 132.058 55.6321C131.745 55.8204 131.431 56.0715 131.054 56.0087C130.74 56.0087 130.489 55.7576 130.301 55.5066Z" fill="#C2C7CF"/>
</g>
<path d="M157.229 70.4454C146.371 70.4454 135.575 67.9976 127.478 63.102C119.696 58.4575 115.49 52.2438 115.616 45.5908C115.742 38.7495 120.386 32.473 128.671 27.8285C145.115 18.6649 171.351 18.9159 187.167 28.3934C194.95 33.0379 199.155 39.2516 199.03 45.9046C198.904 52.7459 194.26 59.0223 185.975 63.6669C177.941 68.1232 167.585 70.3827 157.229 70.3827V70.4454ZM157.48 23.4977C147.563 23.4977 137.584 25.6317 129.864 29.9625C122.332 34.1677 118.127 39.7537 118.001 45.6535C117.876 51.3651 121.704 56.8256 128.671 61.0308C143.797 70.1316 168.966 70.3827 184.72 61.5957C192.251 57.3905 196.456 51.8044 196.582 45.9046C196.708 40.193 192.879 34.7325 185.912 30.5273C178.192 25.8828 167.836 23.4977 157.417 23.4977H157.48Z" fill="#2F628C"/>
<path d="M188.116 123.482C188.87 122.792 189.811 122.039 190.815 122.29C190.878 124.737 194.456 126.181 196.276 124.486C199.288 125.428 202.427 126.181 205.565 126.683C206.192 126.809 206.883 126.871 207.385 127.185C208.013 127.562 208.452 128.252 208.829 128.88C210.209 131.202 211.59 133.901 210.711 136.474C210.147 138.106 208.64 139.864 209.519 141.37C209.77 141.747 210.084 142.123 210.021 142.5C210.021 142.751 209.77 142.939 209.582 143.065C207.385 144.759 204.372 144.571 201.611 145.01C198.849 145.45 195.774 147.27 195.962 150.031C194.581 148.525 194.33 146.328 193.953 144.32C193.577 142.311 192.824 140.115 191.004 139.236C190.25 138.859 189.434 138.797 188.618 138.734C185.731 138.483 182.781 138.169 179.894 137.918C179.58 137.29 179.58 136.537 179.894 135.972C176.003 136.914 178.827 132.144 179.894 131.139C182.593 128.566 185.417 126.055 188.116 123.482Z" fill="#E6E8EE"/>
<path d="M146.687 144.507C145.118 144.884 143.611 145.323 142.042 145.7C141.666 145.825 141.226 145.951 140.913 146.265C140.661 146.578 140.599 147.018 140.536 147.394C140.348 148.65 140.159 149.905 139.971 151.16C139.846 152.165 139.657 153.169 139.218 154.047C138.402 155.617 136.896 156.558 135.389 157.499C134.26 158.19 133.004 158.943 131.686 158.88C130.368 158.88 129.176 158.127 128.171 157.311C125.724 155.428 123.652 153.169 122.02 150.533C123.527 150.219 125.41 149.528 125.347 147.959C125.347 147.394 125.033 146.892 124.657 146.453C123.778 145.386 122.648 144.633 121.33 144.256C121.016 144.193 120.702 144.068 120.514 143.817C120.326 143.503 120.514 143.189 120.577 142.875C120.954 141.871 121.33 140.804 121.707 139.8C122.146 138.607 122.711 137.289 123.966 136.913C125.221 136.536 129.301 140.302 130.619 140.679C130.745 140.679 130.933 140.741 131.059 140.679C131.435 140.49 131.31 139.988 131.372 139.549C131.435 138.482 133.067 138.043 133.695 138.921C133.13 138.105 136.268 136.473 136.77 136.411C138.088 136.16 138.653 136.536 139.72 137.164C142.544 138.921 145.055 141.683 146.75 144.57L146.687 144.507Z" fill="#F1F3F9"/>
<path d="M106.14 138.92C110.722 137.226 115.555 143.753 120.074 141.87C121.266 141.368 122.27 140.364 123.526 140.49C124.53 140.615 125.346 141.557 126.35 141.619C127.417 141.682 128.296 140.866 128.798 139.925C129.3 138.983 129.551 137.916 130.116 137.038C130.744 135.971 131.811 135.217 132.689 134.339C136.016 130.887 136.267 124.924 133.317 121.221C130.43 123.041 126.664 119.464 123.337 120.405C122.333 120.719 121.454 121.409 120.387 121.66C118.818 122.037 117.061 121.221 116.308 119.777C116.433 120.028 110.91 120.468 110.533 120.593C108.588 121.284 108.462 122.162 108.023 124.108C106.956 128.878 106.705 134.025 106.077 138.92H106.14Z" fill="#D8DAE0"/>
<path d="M218.172 99.4421C216.477 97.6847 215.096 96.6805 214.782 94.3582C214.531 92.4125 213.966 90.3413 213.966 88.3329C213.966 84.2532 216.477 81.0522 220.745 80.9894C222.189 80.9894 223.758 81.366 225.076 80.8011C225.954 80.4245 226.645 79.6086 227.398 78.981C228.151 78.3533 229.218 77.914 230.097 78.3533C230.599 78.6044 230.976 79.1065 231.352 79.5458C231.98 80.4245 232.607 81.3032 233.235 82.2447C233.549 82.6841 233.926 83.1862 234.051 83.7511C234.365 84.8808 233.8 86.0733 233.172 87.1403C232.231 88.7722 231.101 90.3413 229.846 91.8477C229.093 92.7264 228.277 93.6051 228.151 94.7348C228.026 95.3625 228.151 95.9901 228.026 96.555C227.649 97.9986 225.954 98.689 224.385 98.8145C222.879 98.94 221.247 98.8145 219.929 99.5677C219.615 99.756 219.301 100.007 218.925 99.9443C218.611 99.9443 218.36 99.6932 218.172 99.4421Z" fill="#C2C7CF"/>
</g>
<defs>
<clipPath id="clip0_69492_308104">
<rect width="260" height="160" fill="white"/>
</clipPath>
</defs>
</svg>
