<svg width="177" height="136" viewBox="0 0 177 136" fill="none" xmlns="http://www.w3.org/2000/svg">
<g id="undraw_throw_away_re_x60k 2">
<path id="Path 8" d="M122.806 135.437H62.7402L62.7287 135.1L59.8607 53.0742H125.685L122.806 135.437ZM63.4141 134.739H122.132L124.963 53.7718H60.5827L63.4141 134.739Z" fill="#3F3D56"/>
<g id="Group 1">
<path id="Rectangle 17" d="M77.0684 68.2734H72.4998V124.809H77.0684V68.2734Z" fill="#3F3D56"/>
<path id="Rectangle 18" d="M95.0571 68.2734H90.4884V124.809H95.0571V68.2734Z" fill="#3F3D56"/>
<path id="Rectangle 19" d="M113.046 68.2734H108.477V124.809H113.046V68.2734Z" fill="#3F3D56"/>
</g>
<path id="Vector" d="M163.853 77.1621L163.558 76.9758L88.9495 29.8267L95.4213 19.5859L95.7163 19.7722L170.325 66.9211L163.853 77.1621ZM89.912 29.6098L163.636 76.1995L169.362 67.1384L95.6386 20.5481L89.912 29.6098Z" fill="#3F3D56"/>
<path id="Path 10" d="M145.84 26.0245C143.671 24.652 141.154 23.9305 138.588 23.9455C136.021 23.9606 133.513 24.7116 131.361 26.1095C129.208 27.5073 127.502 29.4933 126.444 31.8318C125.387 34.1703 125.022 36.7631 125.394 39.3025L128.952 41.5507C128.058 39.4748 127.852 37.1672 128.364 34.9658C128.876 32.7643 130.08 30.7847 131.799 29.3168C133.517 27.8489 135.661 26.9698 137.915 26.8082C140.17 26.6466 142.417 27.211 144.327 28.4188C146.238 29.6266 147.711 31.4144 148.532 33.5202C149.353 35.6261 149.479 37.9395 148.89 40.1217C148.301 42.3039 147.029 44.2403 145.26 45.6473C143.491 47.0543 141.318 47.858 139.059 47.9407L142.617 50.1889C145.07 49.4358 147.256 47.9945 148.915 46.0362C150.574 44.0779 151.637 41.6848 151.976 39.1408C152.316 36.5969 151.918 34.0089 150.831 31.684C149.744 29.3591 148.013 27.3949 145.843 26.0245H145.84Z" fill="#3F3D56"/>
<path id="Rectangle 21" d="M177 135H0V136H177V135Z" fill="#3F3D56"/>
<g id="Group 7">
<path id="Path 81" d="M57.0513 45.1137L23.6158 32.383C23.3049 32.264 23.0539 32.0266 22.9177 31.7229C22.7815 31.4192 22.7712 31.0739 22.8891 30.7626L31.356 8.45226C31.475 8.14143 31.7123 7.89044 32.016 7.75423C32.3197 7.61802 32.6651 7.60771 32.9763 7.72554L66.4118 20.4562C66.7227 20.5752 66.9737 20.8126 67.1099 21.1163C67.2461 21.42 67.2564 21.7653 67.1386 22.0766L58.6721 44.386C58.5532 44.6971 58.3159 44.9484 58.0121 45.0848C57.7083 45.2212 57.3628 45.2316 57.0513 45.1137Z" fill="#0077B6"/>
<path id="Path 82" d="M52.1909 37.0335L32.5715 29.5634C32.3446 29.477 32.1369 29.3467 31.9604 29.1801C31.7838 29.0134 31.6418 28.8137 31.5425 28.5921C31.4431 28.3706 31.3884 28.1317 31.3813 27.889C31.3743 27.6463 31.4152 27.4047 31.5016 27.1778C31.588 26.9509 31.7182 26.7432 31.8848 26.5667C32.0515 26.3901 32.2513 26.2481 32.4728 26.1487C32.6943 26.0494 32.9332 25.9946 33.1759 25.9876C33.4186 25.9806 33.6603 26.0215 33.8872 26.1079L53.5066 33.578C53.9648 33.7525 54.3349 34.1018 54.5356 34.5492C54.7362 34.9966 54.7509 35.5054 54.5765 35.9636C54.402 36.4218 54.0526 36.7919 53.6053 36.9926C53.1579 37.1932 52.6491 37.2079 52.1909 37.0335Z" fill="white"/>
<path id="Path 85" d="M45.982 25.2985L36.1202 21.5717C35.8931 21.4855 35.6853 21.3554 35.5085 21.1887C35.3317 21.0221 35.1895 20.8223 35.09 20.6007C34.9905 20.3791 34.9357 20.14 34.9286 19.8972C34.9215 19.6544 34.9624 19.4126 35.0488 19.1856C35.1353 18.9586 35.2656 18.7508 35.4324 18.5742C35.5991 18.3976 35.7991 18.2555 36.0208 18.1562C36.2425 18.0569 36.4815 18.0023 36.7244 17.9954C36.9672 17.9886 37.209 18.0296 37.4359 18.1162L47.2977 21.843C47.7559 22.0175 48.1261 22.3669 48.3267 22.8143C48.5274 23.2616 48.5421 23.7704 48.3676 24.2286C48.1931 24.6869 47.8438 25.057 47.3964 25.2577C46.949 25.4583 46.4402 25.473 45.982 25.2985Z" fill="#7CC4F8"/>
</g>
</g>
</svg>
