<svg width="261" height="160" viewBox="0 0 261 160" fill="none" xmlns="http://www.w3.org/2000/svg">
<circle cx="64.5" cy="64" r="48" fill="#F8F9FF"/>
<path d="M64.4994 10.666C35.006 10.666 11.166 34.506 11.166 63.9994C11.166 93.4927 35.006 117.333 64.4994 117.333C93.9927 117.333 117.833 93.4927 117.833 63.9994C117.833 34.506 93.9927 10.666 64.4994 10.666ZM64.4994 106.666C40.9794 106.666 21.8327 87.5194 21.8327 63.9994C21.8327 40.4794 40.9794 21.3327 64.4994 21.3327C88.0194 21.3327 107.166 40.4794 107.166 63.9994C107.166 87.5194 88.0194 106.666 64.4994 106.666ZM83.646 37.3327L64.4994 56.4794L45.3527 37.3327L37.8327 44.8527L56.9794 63.9994L37.8327 83.146L45.3527 90.666L64.4994 71.5194L83.646 90.666L91.166 83.146L72.0194 63.9994L91.166 44.8527L83.646 37.3327Z" fill="#F55C5C"/>
<g clip-path="url(#clip0_64723_226549)">
<path fill-rule="evenodd" clip-rule="evenodd" d="M131.024 116.717C148.171 116.717 162.066 123.951 162.066 132.858C162.066 141.766 148.159 149 131.024 149C113.889 149 99.9824 141.766 99.9824 132.858C99.9824 123.951 113.889 116.717 131.024 116.717Z" fill="#C2C7CF"/>
<path d="M139.69 118.215C139.69 118.215 144.241 122.261 148.043 123.187C149.577 123.564 148.895 127.267 148.844 127.37C148.69 127.696 145.912 128.159 142.588 127.199C139.247 126.221 136.861 124.438 136.861 124.438C136.861 124.438 132.633 124.37 130.196 122.792C129.309 121.249 130.843 117.203 130.843 117.203L139.69 118.215Z" fill="#623F21"/>
<path d="M120.308 125.828C120.308 125.828 119.728 128.863 120.359 130.097C120.989 131.349 122.592 135.601 123.648 137.453C125.029 139.853 129.529 139.184 130.382 138.807C131.234 138.413 132.649 136.355 131.268 134.624C127.944 130.492 127.262 125.828 127.262 125.828H120.308Z" fill="#623F21"/>
<path d="M152.405 50.6106C152.405 50.6106 152.149 52.8223 148.433 56.8514L144.615 51.0735L148.468 47.9531L152.422 50.6106H152.405Z" fill="#C2C7CF"/>
<path d="M151.843 35.8335C150.48 41.5428 150.497 42.6401 148.451 47.9551C147.36 50.8012 151.673 51.5555 152.406 50.6126C154.639 45.8977 157.145 42.5029 159.003 38.2681C159.701 37.4794 159.684 36.9308 159.684 36.9308L158.355 33.416L152.798 34.3247C152.798 34.3247 152.508 34.6848 151.843 35.8506V35.8335Z" fill="#FFDCC4"/>
<path d="M141.871 18.0536C141.871 18.0536 145.144 17.7278 150.82 22.477C154.008 25.1516 158.576 25.9575 159.616 27.8434C160.656 29.7294 160.315 33.1413 160.315 33.1413C160.315 33.1413 157.502 30.8438 153.19 32.8327C150.326 32.2154 146.832 30.5524 146.832 30.5524L144.36 25.1174L139.502 20.471L141.888 18.0536H141.871Z" fill="#FFDCC6"/>
<path d="M128.762 16.5782C128.881 17.5212 128.762 18.0527 128.762 18.0527L128.506 21.2931L131.966 26.2995L136.296 28.374L139.944 27.1396L140.642 23.1791L139.671 16.7496L133.023 15.3438C133.023 15.3438 129 15.9953 128.762 16.5953V16.5782Z" fill="#FFDCC6"/>
<path d="M133.57 26.8138L137.832 26.8309L139.622 23.8477L140.985 24.8421L139.502 29.8999L134.406 28.5111L133.57 26.8138Z" fill="#FF9746"/>
<path d="M125.013 51.8625C124.638 49.8222 123.479 48.022 123.479 48.022L119.354 29.3167L121.774 27.105L124.126 25.6648L124.314 24.6532C124.314 24.6532 126.666 22.5444 128.234 20.5384C128.149 27.3621 138.547 28.1508 138.547 28.1508C138.547 28.1508 141.496 24.1903 137.831 20.5384C139.45 20.3669 141.002 20.6584 141.002 20.6584C141.002 20.6584 146.03 26.0763 146.831 31.1169C149.678 48.965 140.49 62.6639 140.49 62.6639L124.177 59.5435C124.177 59.5435 126.734 55.2229 125.013 51.8797V51.8625Z" fill="#FF9746"/>
<path opacity="0.3" d="M137.83 26.8313L141.443 24.6539C141.443 24.6539 140.403 23.7624 139.653 23.4195C139.449 23.3166 139.006 23.8481 139.006 23.8481C139.006 23.8481 139.006 24.8768 138.648 25.5455C138.307 26.2313 137.812 26.8142 137.812 26.8142L137.83 26.8313Z" fill="#191C20"/>
<path d="M139.501 24.0715L141.001 24.6544C141.001 24.6544 139.927 23.0599 139.058 22.1855L138.342 23.0942L139.501 24.0715Z" fill="#FF9746"/>
<path d="M137.83 26.8319C137.83 26.8319 138.921 25.3745 138.137 23.3857L138.597 22.4941C138.597 22.4941 139.449 23.9172 139.501 24.0886C139.228 25.3231 137.83 26.849 137.83 26.849V26.8319Z" fill="#FF9746"/>
<path d="M135.325 26.4883L137.831 26.8312C137.831 26.8312 136.808 27.4141 133.654 27.0026L135.325 26.4883Z" fill="#FF9746"/>
<path opacity="0.3" d="M137.831 26.8313L133.996 29.1287C127.979 26.7627 127.604 21.3105 127.604 21.3105L134.132 26.5741L135.325 26.4884L137.831 26.8313Z" fill="#191C20"/>
<path d="M127.519 20.9507C128.064 19.5962 128.763 18.0703 128.763 18.0703C128.763 18.0703 128.201 22.0994 135.326 26.5057L133.996 28.7346C128.218 25.6485 127.502 20.9507 127.502 20.9507H127.519Z" fill="#FF9746"/>
<path d="M135.291 19.9385C146.303 23.1274 145.893 35.832 145.893 35.832L148.467 34.1689C148.467 34.1689 147.854 21.9959 137.729 18.4297C136.075 19.3041 135.802 19.3898 135.291 19.9385Z" fill="#183248"/>
<path d="M148.466 58.0703C147.461 82.6564 142.415 93.6121 141.052 118.13C140.949 120.496 131.915 121.61 130.193 117.77C130.585 112.557 132.818 65.357 132.818 65.357C132.818 65.357 140.097 64.174 148.466 58.0703Z" fill="#0D4A73"/>
<path d="M133.57 59.1157C125.558 59.0814 127.246 54.4865 125.013 51.8633C125.013 51.8633 125.575 54.4008 123.666 57.8641C118.092 67.9968 122.371 88.4852 120.683 97.4864C119.456 104.036 119.354 120.838 119.354 126.599C119.354 130.611 129.325 130.319 129.206 126.033C128.831 112.386 131.984 102.167 132.564 99.1152C133.859 92.3086 136.57 74.1862 136.57 74.1862C136.57 74.1862 144.445 68.2197 148.468 58.0698L145.706 54.195C145.706 54.195 133.263 59.3386 133.587 59.0985L133.57 59.1157Z" fill="#183248"/>
<path d="M132.069 4.14844H135.955C135.955 4.14844 139.603 5.38289 140.012 5.45147C144.035 8.57188 143.762 13.2525 143.779 13.6468C143.779 14.0412 143.217 14.727 143.217 14.727C143.404 16.39 142.16 22.9052 141.87 23.6596C141.598 24.414 140.029 25.3912 138.683 25.1512C136.313 24.7397 132.393 21.5507 131.933 20.8821C131.472 20.2134 131.097 18.1731 131.097 18.1731C131.097 18.1731 128.762 18.0017 128.421 15.4814C128.183 13.7154 128.148 12.6867 128.148 12.6867L128.711 7.98894L132.086 4.18273L132.069 4.14844Z" fill="#FFDCC4"/>
<path d="M128.573 16.1843C128.573 16.1843 128.25 13.9211 129.153 13.7325C131.301 13.2867 131.386 16.5443 131.386 16.5443C131.386 16.5443 132.324 16.4071 133.244 16.75C133.039 14.9327 133.96 13.8354 133.789 12.258C133.636 10.6635 131.284 9.51481 132.46 8.00604C133.636 6.49727 137.488 10.0292 140.267 8.69185C142.551 7.59456 139.449 1.6795 133.636 2.48532C129.017 3.11969 127.738 5.91434 127.142 8.94902C126.358 12.961 128.556 16.2014 128.556 16.2014L128.573 16.1843Z" fill="#2F1400"/>
<path d="M133.295 41.9018C144.664 37.6498 148.738 32.832 148.738 32.832C149.045 43.4963 148.278 51.2116 148.466 58.0525H144.375L133.295 61.9616C133.295 61.9616 134.642 51.8802 133.295 41.8846V41.9018Z" fill="#183248"/>
<path d="M121.773 27.0889C132.632 25.8373 134.49 42.1766 134.49 42.1766L137.438 40.7364C137.438 40.7364 135.223 24.6543 124.313 24.6543C122.677 25.5287 122.268 26.5574 121.773 27.106V27.0889Z" fill="#183248"/>
<path d="M145.944 13.0805C145.467 11.5717 143.455 10.6459 143.455 10.6459L126.512 10.0801V11.4003C126.512 13.1319 130.449 15.8751 132.529 15.8751C132.529 15.8751 135.665 17.9668 139.04 17.7268C139.364 17.7954 144.87 17.6754 145.978 14.2806C146.012 14.1435 146.029 14.0235 146.046 13.8863L145.944 13.0976V13.0805Z" fill="#FFDCC6"/>
<path d="M127.467 7.7832C127.467 7.7832 125.013 10.1321 127.996 12.8753C130.399 15.1042 132.53 15.2585 132.53 15.2585C132.53 15.2585 135.786 17.6245 139.041 17.7274C139.365 17.7959 144.871 17.6759 145.979 14.2812C146.542 12.0866 143.456 10.0635 143.456 10.0635L127.467 7.80035V7.7832Z" fill="#FF9746"/>
<path d="M143.505 10.0299C143.505 16.6479 129.579 17.5394 126.732 10.0299C126.732 5.19497 128.147 0 135.119 0C141 0 143.505 5.19497 143.505 10.0299Z" fill="#FF9746"/>
<path d="M133.297 13.7327C133.297 13.9727 133.28 14.1785 133.245 14.3842C129.12 13.7841 126.734 10.0294 126.802 9.13782C127.126 7.6119 128.439 7.09755 130.007 8.00624C131.814 9.05209 133.28 11.6239 133.28 13.7327H133.297Z" fill="#FF9746"/>
<path d="M125.25 108.803L98.3516 93.1839V84.1484L125.25 99.7676V108.803Z" fill="#42474E"/>
<path d="M99.9038 92.531L124.126 106.59V107.036L99.5117 92.7368V88.8105L99.9038 89.0506V92.531Z" fill="#3A4857"/>
<path d="M124.126 106.59L99.9043 92.5312V89.0508L124.126 103.11V106.59Z" fill="#2D3135"/>
<path d="M125.25 101.294L98.3516 85.6744V84.1484L125.25 99.7676V101.294Z" fill="#191C20"/>
<path d="M135.138 103.059L125.252 108.803V99.7675L135.138 94.041V103.059Z" fill="#2D3135"/>
<path d="M135.138 95.5669L125.252 101.293V99.7675L135.138 94.041V95.5669Z" fill="#191C20"/>
<path d="M125.489 100.418L97.5 84.1647V81.25L125.489 97.5036V100.418Z" fill="#42474E"/>
<path d="M135.988 94.3151L125.488 100.419V97.504L135.988 91.4004V94.3151Z" fill="#2D3135"/>
<path d="M135.989 91.4005L125.489 97.5041L97.5 81.2506L108 75.1641L135.989 91.4005Z" fill="#3A4857"/>
<path d="M125.949 85.9313L125.489 86.2056L117.017 81.285L112.483 83.9253L111.988 83.651L117.017 80.7363L125.949 85.9313Z" fill="#42474E"/>
<path d="M125.488 86.2058L120.937 88.8461L120.289 88.4518L123.818 86.4115V85.8458L117.153 81.971L113.13 84.3027L112.482 83.9255L117.017 81.2852L125.488 86.2058Z" fill="#191C20"/>
<path d="M123.82 86.4115L120.291 88.4518L119.797 88.1774L123.82 85.8457V86.4115Z" fill="#42474E"/>
<path d="M114 83.8212L113.131 84.3013V79.6378L114 79.1406V83.8212Z" fill="#F55C5C"/>
<path d="M120.937 88.8446L119.795 88.176V83.5125L113.13 79.6377V84.3012L111.988 83.6497V77.8203L120.937 82.9981V88.8446Z" fill="#F55C5C"/>
<path d="M121.809 88.3489L120.939 88.8461V82.9996L121.809 82.5195V88.3489Z" fill="#F55C5C"/>
<path d="M121.807 82.5196L120.937 82.9997L111.988 77.8219L112.875 77.3418L121.807 82.5196Z" fill="#F55C5C"/>
<path d="M116.287 89.3251L113.832 90.7482V93.6457L113.27 93.9714V90.6453L116.287 88.8965V89.3251Z" fill="#F55C5C"/>
<path d="M113.268 93.9708L108.479 91.1933V87.8672L113.268 90.6447V93.9708Z" fill="#F55C5C"/>
<path d="M116.285 88.8966L113.268 90.6454L108.479 87.8679L111.496 86.1191L116.285 88.8966Z" fill="#F55C5C"/>
<path d="M118.758 76.7747C118.758 76.7747 120.991 78.7979 121.383 79.878C121.775 80.941 121.383 82.2612 121.383 82.2612L119.815 81.3525V87.6447C119.815 87.6447 113.661 85.5873 113.286 83.6499C112.894 81.7125 113.712 76.6719 113.712 76.6719L118.775 76.7747H118.758Z" fill="#C2C7CF"/>
<path d="M119.353 64.9626C119.353 67.8602 118.432 70.6891 118.756 76.7756C118.841 78.353 114 78.2501 113.693 76.6727C112.756 71.8207 112.381 70.4491 111.818 64.3797C112.193 63.6939 116.284 63.9854 116.284 63.9854C116.284 63.9854 118.483 64.4311 119.353 64.9455V64.9626Z" fill="#FFDCC4"/>
<path d="M123.341 29.0941C117.256 27.2767 116.199 34.1519 115.654 37.238C114.529 43.5646 113.762 49.9426 112.62 54.6232C112.398 55.549 112.364 56.8863 112.125 58.0008C112.057 58.3265 111.989 58.6351 111.921 58.9266C111.256 62.0299 119.097 62.407 119.694 60.0925C119.779 59.7667 119.745 59.3038 119.881 58.8066C120.768 56.9035 124.023 49.0339 125.881 39.484C126.495 36.3293 127.722 30.4143 123.324 29.0941H123.341Z" fill="#FFDCC6"/>
<path d="M119.985 64.0885C119.882 66.4031 111.104 65.5629 111.172 63.4198C111.24 61.2767 110.78 59.1678 111.377 58.3277C111.479 58.1905 111.735 58.0877 112.127 58.002C112.127 58.002 111.888 59.9736 115.502 60.4023C119.149 60.848 119.882 58.8249 119.882 58.8249C120.002 58.9106 120.087 59.0135 120.138 59.1164C120.615 59.9908 120.053 62.0996 119.968 64.1056L119.985 64.0885Z" fill="white"/>
<path d="M152.116 33.1577C151.553 30.9117 160.57 30.8946 160.809 33.1577C160.962 34.7522 160.553 37.2897 159.752 37.9412C159.616 38.0441 159.394 38.1813 159.002 38.267C159.002 38.267 159.445 36.3296 156.599 35.6438C153.019 34.7865 151.843 35.8495 151.843 35.8495C151.724 35.7638 151.417 35.6781 151.349 35.5752C150.871 34.7008 152.406 34.375 152.099 33.1577H152.116Z" fill="white"/>
</g>
<g clip-path="url(#clip1_64723_226549)">
<path fill-rule="evenodd" clip-rule="evenodd" d="M201.667 116.717C218.814 116.717 232.708 123.951 232.708 132.858C232.708 141.766 218.801 149 201.667 149C184.532 149 170.625 141.766 170.625 132.858C170.625 123.951 184.532 116.717 201.667 116.717Z" fill="#C2C7CF"/>
<path d="M239.596 59.041H241.959L245.572 61.1317L242.845 70.074L239.596 59.041Z" fill="#FFDAD7"/>
<path d="M257.183 53.2803L239.662 43.1677V2.17188L257.183 12.2845V53.2803Z" fill="#007BBD"/>
<path d="M253.537 46.8042L243.311 40.8957V19.6934L253.537 25.6018V46.8042Z" fill="#CEE5FF"/>
<path d="M249.672 41.6563L247.172 40.2133V24.8398L249.672 26.2829V41.6563Z" fill="#9BCBFB"/>
<path d="M249.671 41.6559L247.172 40.2129L242.49 61.4266H244.456L249.671 41.6559Z" fill="#9BCBFB"/>
<path d="M249.673 34.1911L247.173 32.748L239.992 59.9839L242.492 61.4269L249.673 34.1911Z" fill="#9BCBFB"/>
<path d="M257.186 53.2806L259.685 51.8376V10.8418L257.186 12.2848V53.2806Z" fill="#0D4A73"/>
<path d="M239.662 2.17155L242.162 0.728516L259.683 10.8411L257.183 12.2842L239.662 2.17155Z" fill="#0D4A73"/>
<path d="M248.752 9.74023L244.377 17.4554L253.115 22.5003L248.752 9.74023Z" fill="#FF9746"/>
<path d="M248.887 12.9785L247.58 15.251L249.034 16.0918L248.887 12.9785Z" fill="#42474E"/>
<path d="M248.603 18.8633L249.909 16.5908L248.455 15.75L248.603 18.8633Z" fill="#42474E"/>
<path d="M236.719 68.4946L239.207 59.041L242.832 61.1317L240.343 70.5853L236.719 68.4946Z" fill="#F55C5C"/>
<path d="M240.346 70.5864L242.834 61.1328H245.572L243.084 70.5864H240.346Z" fill="#FFDAD7"/>
<path d="M242.275 60.8145L242.832 61.1326H245.571L245.014 60.8145H242.275Z" fill="#FFDAD7"/>
<path d="M239.209 59.041L242.834 61.1317H243.22L239.595 59.041H239.209Z" fill="#FFDAD7"/>
<path d="M186.599 127.864C186.508 127.886 186.054 129.329 185.167 130.818C184.281 132.306 183.327 133.874 183.145 135.147C182.963 136.42 182.668 137.715 182.815 138.658C182.963 139.601 183.827 140.578 185.372 141.056C186.917 141.533 187.815 141.294 188.69 140.317C189.565 139.34 189.86 136.511 189.872 136.431C189.883 136.351 190.61 132.318 190.871 131.545C191.133 130.772 191.542 129.489 191.542 128.568C191.542 127.648 189.906 126.443 189.906 126.443L186.599 127.875V127.864Z" fill="#42474E"/>
<path d="M190.327 127.967C190.384 127.967 191.747 128.069 191.758 128.842C191.77 129.614 191.429 131.569 190.804 133.114C190.179 134.659 190.599 136.955 189.781 139.261C188.963 141.556 188.441 141.749 187.747 142.09C187.054 142.431 185.498 142.318 183.952 141.704C182.407 141.09 181.953 139.045 181.918 138.102C181.896 137.159 182.623 134.091 184.168 133.012C185.714 131.932 190.327 127.967 190.327 127.967Z" fill="#42474E"/>
<path d="M207.086 123.33C207.086 123.33 206.608 125.58 206.677 126.262C206.745 126.943 207.881 129 209.074 130.454C210.267 131.909 209.915 133.352 210.642 134.783C211.369 136.215 213.108 137.908 214.346 138.249C215.585 138.59 217.664 137.51 218.005 136.17C218.346 134.829 218.312 133.681 218.085 133.011C217.857 132.341 213.596 126.602 213.551 126.557C213.517 126.512 212.006 123.33 212.006 123.33H207.086Z" fill="#42474E"/>
<path d="M207.777 123.99C207.777 123.99 206.255 124.285 205.982 125.342C205.709 126.399 205.664 126.955 205.687 127.421C205.709 127.887 206.437 128.887 207.277 129.773C208.107 130.671 208.948 131.66 208.948 131.66L209.777 134.455C209.777 134.455 210.47 136.386 211.697 137.591C212.925 138.795 213.845 139.227 215.595 138.988C217.345 138.75 217.822 137.898 218.163 137.034C218.504 136.159 218.606 134.284 218.208 133.591C217.811 132.898 207.789 123.979 207.789 123.979L207.777 123.99Z" fill="#42474E"/>
<path d="M188.92 59.4508C188.92 59.4508 187.897 60.2803 186.397 64.7912C184.897 69.3021 183.716 71.4723 183.386 76.9036C183.045 82.3462 185.215 95.254 185.068 97.3901C184.931 99.5263 188.851 101.197 190.26 101.072C191.669 100.947 192.851 100.833 193.885 99.6967C194.919 98.5604 198.055 84.3687 198.294 84.1642C198.532 83.9597 199.805 83.7779 201.18 83.4597C202.554 83.1416 203.486 69.4157 203.304 67.4159C203.123 65.4161 188.92 59.4395 188.92 59.4395V59.4508Z" fill="#007BBD"/>
<path d="M198.109 80.5384C198.109 80.5384 202.381 97.4231 202.995 100.15C203.608 102.866 208.119 103.184 209.926 103.354C211.733 103.525 213.335 100.923 213.494 99.8205C213.642 98.7297 213.403 94.7415 213.869 88.2535C214.335 81.7769 213.38 65.7218 210.221 60.9723C207.074 56.2114 199.541 65.7104 199.007 68.7442C198.484 71.778 198.098 80.5384 198.098 80.5384H198.109Z" fill="#007BBD"/>
<path d="M205.939 94.5254C205.882 94.6731 203.246 95.264 202.951 98.1387C202.758 99.9794 203.201 102.854 203.655 105.717C203.905 107.32 204.314 111.74 204.382 113.773C204.564 119.455 206.098 123 206.019 124.193C205.928 125.375 207.939 127.749 209.541 128.215C211.154 128.681 212.893 127.647 212.95 126.658C213.007 125.67 214.484 103.968 213.506 99.8317C212.529 95.7071 205.939 94.5481 205.939 94.5481V94.5254Z" fill="#007BBD"/>
<path d="M186.248 93.7758C186.248 93.7758 184.703 90.7989 184.998 95.7756C185.294 100.752 184.169 103.968 184.328 111.558C184.464 118.08 184.123 128.534 184.441 129.693C184.76 130.852 186.918 131.999 188.509 131.999C191.191 131.999 192.384 129.454 192.316 127.897C192.259 126.329 193.69 111.433 194.429 107.024C195.156 102.616 195.804 93.7417 195.804 93.7417L186.248 93.7872V93.7758Z" fill="#007BBD"/>
<path d="M211.982 63.0751C212.346 65.1886 211.982 66.5066 210.823 67.6883C209.653 68.87 202.256 71.1084 197.87 70.7789C193.472 70.438 188.518 68.8018 187.019 67.7337C185.519 66.6657 185.382 65.7112 185.416 64.8363C185.451 63.9614 187.121 56.7349 187.03 54.5874C186.939 52.4399 185.076 40.3502 183.53 36.7142C181.985 33.0782 181.724 28.3741 181.78 27.8515C181.837 27.3174 188.234 25.0336 189.916 24.3405C191.598 23.636 198.676 21.6703 200.619 21.9203C202.562 22.1702 208.062 22.3975 209.266 22.7497C210.471 23.102 211.982 33.2827 211.516 38.0891C211.277 40.4979 211.414 46.5768 211.312 49.2243C211.209 51.8717 210.891 51.0764 211.221 53.1671C211.88 57.3371 211.993 63.0865 211.993 63.0865L211.982 63.0751Z" fill="#9BCBFB"/>
<path d="M213.439 36.112C214.133 36.3279 219.087 39.748 224.12 40.6002C228.063 41.2706 228.779 35.2712 227.972 34.1804C227.165 33.0782 220.507 28.556 219.223 28.3742C217.928 28.1924 213.439 36.1234 213.439 36.1234V36.112Z" fill="#FFDCC4"/>
<path d="M225.542 36.1693C224.792 37.2601 223.599 39.3849 224.11 40.6006C224.621 41.8164 235.961 48.3385 237.086 49.5088C238.211 50.6792 239.824 54.5879 240.029 55.0083C240.233 55.4287 242.188 56.6899 242.188 56.6899C242.188 56.6899 245.028 56.7922 245.244 57.099C245.46 57.4057 246.437 57.6557 246.608 57.4171C246.778 57.1785 246.858 56.8944 246.858 56.8944L247.573 56.2354L247.073 54.3606C247.073 54.3606 247.914 53.5198 247.653 52.9062C247.392 52.2926 247.255 52.1563 247.255 52.1563L247.642 50.6792C247.642 50.6792 246.676 48.5998 245.767 47.9635C244.858 47.3159 242.608 47.7363 242.608 47.7363C242.608 47.7363 239.267 45.1797 238.722 44.5662C238.177 43.9526 230.302 34.5899 227.632 33.8741C224.962 33.1582 225.53 36.1579 225.53 36.1579L225.542 36.1693Z" fill="#FFDCC4"/>
<path d="M179.099 42.0996C179.099 42.0996 178.577 50.576 178.031 53.0076C177.486 55.4391 179.327 57.3821 179.986 57.9162C180.645 58.4502 184.053 56.689 184.474 54.3938C184.906 52.0872 186.258 44.3721 186.315 43.179C186.371 41.986 179.099 42.111 179.099 42.111V42.0996Z" fill="#FFDCC4"/>
<path d="M186.51 84.1418L185.362 84.3236C185.362 84.3236 184.272 82.801 184.215 82.4261C184.158 82.0511 184.533 79.5968 184.533 79.5968C184.533 79.5968 185.112 77.5743 185.022 77.188C184.942 76.8016 183.715 74.5064 183.499 73.9951C183.465 73.9269 183.283 72.1089 183.363 71.4158C185.146 55.3607 184.465 54.3948 184.465 54.3948L179.727 52.9405C179.727 52.9405 178.545 51.611 177.931 53.9517C177.318 56.2924 177.375 59.3943 177.931 63.3712C178.477 67.3481 179.454 73.3815 179.113 74.6428C178.772 75.904 179.829 80.7558 179.852 81.5057C179.874 82.2556 181.988 84.9713 182.295 85.119C182.601 85.2667 184.306 85.6644 184.987 85.5848C185.658 85.5053 186.646 85.3121 186.794 84.869C186.942 84.4259 186.51 84.1418 186.51 84.1418Z" fill="#FFDCC4"/>
<path d="M185.998 78.5617C185.714 78.0277 184.998 77.0051 184.782 76.5619C184.566 76.1188 183.862 75.937 183.43 77.1187C183.009 78.3004 183.964 79.7207 184.202 79.9479C184.452 80.1752 184.941 81.6182 184.941 81.6182C184.941 81.6182 184.702 82.9704 185.282 83.6067C185.555 83.9021 186.066 84.1407 186.305 83.6067C186.543 83.0726 186.645 81.6409 186.645 81.6409C186.645 81.6409 186.282 79.0958 185.998 78.5617Z" fill="#FFDCC4"/>
<path d="M190.373 19.4094C190.373 19.4094 191.452 22.5569 191.179 23.8863C190.907 25.2157 190.1 26.9882 192.634 28.5903C195.168 30.1924 197.486 29.363 199.383 28.329C201.281 27.295 201.542 24.6475 201.326 23.8067C201.11 22.9659 200.906 21.9319 200.61 21.9092C200.315 21.8865 201.894 19.1367 202.042 17.0688C202.201 15.0122 193.634 14.2168 193.634 14.2168L190.361 19.4094H190.373Z" fill="#F0BC96"/>
<path d="M192.294 4.77344C191.908 4.94387 190.044 4.89843 189.408 7.55724C188.772 10.2161 188.954 18.2152 189.294 19.9083C189.635 21.6013 191.806 23.8283 192.112 24.1237C192.419 24.4192 195.567 24.8055 195.93 24.8396C196.282 24.8737 200.043 22.4762 200.782 21.2036C201.532 19.931 202.736 13.318 202.861 11.7159C202.986 10.1138 202.27 6.61416 200.271 5.81879C198.271 5.02341 192.306 4.7848 192.306 4.7848L192.294 4.77344Z" fill="#FFDCC4"/>
<path d="M194.359 7.79586C198.575 8.44353 199.756 7.88676 200.063 8.18219C200.37 8.47761 200.177 11.1478 200.347 11.9318C200.518 12.7158 201.62 14.1702 201.609 14.3747C201.609 14.5793 201.415 16.2155 201.415 16.2155L202.04 16.2723C202.04 16.2723 202.461 14.1248 202.722 13.7839C202.983 13.443 202.949 14.7156 202.802 15.3292C202.654 15.9428 202.063 17.0563 202.018 17.3517C201.972 17.6471 201.722 18.6698 201.722 18.6698C201.722 18.6698 202.79 17.3631 203.131 16.1814C203.472 14.9997 205.017 12.4999 205.006 7.26183C205.006 4.60301 203.449 3.08044 200.711 2.78501C198.075 1.16018 193.507 0.807944 190.746 2.68275C188.678 4.0917 188.371 9.56841 188.337 10.7956C188.303 12.0227 188.973 13.693 188.973 13.693L189.496 8.72759C189.496 8.72759 189.894 6.77324 190.155 6.48918C190.417 6.20512 191.916 7.43227 194.348 7.80723L194.359 7.79586Z" fill="#623F21"/>
<path d="M202.576 14.6603C202.576 14.6603 202.746 13.3308 203.701 13.399C204.655 13.4558 204.337 15.0011 203.803 15.9329C203.269 16.8646 202.769 18.5121 202.201 18.5235C201.633 18.5462 201.917 17.16 202.042 16.8646C202.167 16.5692 202.576 14.6603 202.576 14.6603Z" fill="#FFDCC4"/>
<path d="M189.009 12.0228C189.009 12.0228 188.805 11.0684 188.612 11.4661C188.418 11.8638 188.259 12.9091 188.43 13.9999C188.6 15.1021 188.828 16.4201 189.021 16.3292C189.214 16.2383 188.998 12.0228 188.998 12.0228H189.009Z" fill="#FFDCC4"/>
<path d="M181.771 27.8517C183.646 27.0904 187.498 32.9875 187.487 39.1005C187.487 42.3275 186.998 45.9635 186.862 46.4066C186.737 46.8497 184.635 47.6678 181.078 46.3498C178.772 45.4976 178.681 44.1 178.544 43.8387C178.408 43.5774 179.84 33.8965 180.271 31.2036C180.703 28.5107 181.748 27.8517 181.748 27.8517H181.771Z" fill="#CEE5FF"/>
<path d="M245.549 57.3258L244.47 61.4276H242.504L243.299 57.8143L243.924 55.0078C244.026 55.0533 244.106 55.1214 244.151 55.1896C244.379 55.5191 244.833 56.2918 245.004 56.5417C245.242 56.8826 245.56 57.3258 245.56 57.3258H245.549Z" fill="#9BCBFB"/>
<path d="M244.139 55.1898L243.435 57.8713L242.492 61.4278L239.992 59.9847L241.072 55.917C241.083 55.8488 241.106 55.7806 241.117 55.7238C241.447 54.5762 241.731 54.3944 242.344 54.5535C242.856 54.6898 243.537 54.8034 243.912 55.008C244.015 55.0534 244.094 55.1216 244.139 55.1898Z" fill="#9BCBFB"/>
<path d="M211.586 36.1113C211.314 40.0427 210.984 48.8487 210.984 48.8487C210.984 48.8487 209.371 46.4285 209.155 44.9968C208.928 43.5651 208.382 37.918 207.769 37.3839C207.155 36.8499 190.452 39.0997 190.35 39.5655C190.248 40.0314 190.18 46.9511 189.748 48.8941C189.316 50.8371 186.941 50.9166 186.941 50.9166L185.953 49.0191C185.953 49.0191 186.305 54.5867 186.169 55.7343C186.032 56.8819 185.26 62.3814 184.612 65.881C183.964 69.3693 183.635 74.2438 183.635 74.2438C183.635 74.2438 195.372 72.9371 200.349 72.6871C205.314 72.4372 213.336 74.6301 213.143 72.903C212.95 71.1759 212.78 61.086 212.359 57.0296C211.939 52.9732 211.609 45.4172 211.609 45.4172L211.586 36.1113Z" fill="#007BBD"/>
<path d="M220.175 28.0442C219.936 27.5897 212.392 23.0447 208.585 22.6016C208.142 22.6016 207.642 35.2934 210.676 36.7024C215.016 38.7135 216.562 39.3271 217.13 39.293C217.698 39.2589 219.732 33.2368 220.311 31.4075C220.902 29.5781 220.175 28.0442 220.175 28.0442Z" fill="#CEE5FF"/>
<path d="M194.369 40.8835C194.369 40.8835 193.846 37.3384 193.096 33.0093C192.517 29.6914 190.176 27.0554 189.744 26.2713C189.313 25.4873 188.494 24.8965 188.494 24.8965L184.643 26.4077C184.643 26.4077 186.279 26.7372 188.347 31.3504C190.426 35.9635 190.301 42.9401 190.426 43.815C190.551 44.7013 194.289 43.2923 194.289 43.2923L194.369 40.8948V40.8835Z" fill="#0D4A73"/>
<path d="M206.46 22.3743C206.46 22.3743 206.29 24.8399 206.46 27.851C206.631 30.862 207.812 39.8725 207.767 41.2132C207.722 42.554 203.904 41.9632 203.904 41.9632C203.904 41.9632 202.949 32.0892 202.722 27.8623C202.495 23.6355 202.722 22.1016 202.722 22.1016L206.449 22.3856L206.46 22.3743Z" fill="#0D4A73"/>
</g>
<defs>
<clipPath id="clip0_64723_226549">
<rect width="64.5667" height="149" fill="white" transform="translate(97.5)"/>
</clipPath>
<clipPath id="clip1_64723_226549">
<rect width="94.3667" height="149" fill="white" transform="translate(166.5)"/>
</clipPath>
</defs>
</svg>
