<svg width="261" height="160" viewBox="0 0 261 160" fill="none" xmlns="http://www.w3.org/2000/svg">
<g clip-path="url(#clip0_66528_8555)">
<circle cx="64.5" cy="64" r="48" fill="#F7F9FF"/>
<path d="M64.4994 10.6664C35.006 10.6664 11.166 34.5064 11.166 63.9997C11.166 93.4931 35.006 117.333 64.4994 117.333C93.9927 117.333 117.833 93.4931 117.833 63.9997C117.833 34.5064 93.9927 10.6664 64.4994 10.6664ZM64.4994 106.666C40.9794 106.666 21.8327 87.5197 21.8327 63.9997C21.8327 40.4797 40.9794 21.333 64.4994 21.333C88.0194 21.333 107.166 40.4797 107.166 63.9997C107.166 87.5197 88.0194 106.666 64.4994 106.666ZM83.646 37.3331L64.4994 56.4797L45.3527 37.3331L37.8327 44.8531L56.9794 63.9997L37.8327 83.1464L45.3527 90.6664L64.4994 71.5197L83.646 90.6664L91.166 83.1464L72.0194 63.9997L91.166 44.8531L83.646 37.3331Z" fill="#FF5354"/>
<path d="M93.4395 47.5997L103.168 122.415C103.67 126.432 106.494 130.323 111.704 133.461C123.566 140.554 143.149 140.805 155.451 133.901C161.225 130.7 164.363 126.494 164.865 122.226L174.217 47.3486L93.4395 47.5997Z" fill="#006685"/>
<path d="M163.1 29.4595C178.603 38.8114 178.038 53.6238 161.907 62.6619C145.777 71.6372 120.106 71.3861 104.603 62.097C89.1007 52.8079 89.6656 37.9327 105.796 28.8947C121.926 19.9194 147.597 20.1704 163.1 29.4595Z" fill="#0077B6"/>
<path d="M95.1299 52.6826C96.95 56.1346 100.088 59.3356 104.607 62.0972C120.11 71.4491 145.718 71.7002 161.911 62.6621C166.367 60.2143 169.568 57.2644 171.64 54.1262C169.694 49.8582 166.493 46.0923 163.292 49.9837C162.664 50.7369 162.037 51.9922 161.095 51.7411C160.781 51.6784 160.53 51.4273 160.342 51.1762C159.589 50.2348 159.087 49.105 158.961 47.9125C158.836 46.72 159.024 45.5275 159.024 44.3977C159.024 44.2722 159.024 44.1466 159.024 44.0211C158.836 40.7574 156.325 37.8074 153.124 37.117C151.932 36.866 150.676 36.9287 149.547 36.5522C148.48 36.1756 147.601 35.5479 146.659 34.9203C143.961 33.1001 141.011 31.7193 137.935 30.8406C136.554 30.4013 134.985 30.1502 133.667 30.6523C130.654 31.8448 129.65 36.8032 126.387 36.6777C125.508 36.6777 124.692 36.1756 124.001 35.6735C122.809 34.7948 121.742 33.7278 120.424 33.1001C119.106 32.4725 117.348 32.4097 116.281 33.4767C115.591 34.1671 115.34 35.1713 114.587 35.6735C112.892 36.8032 110.382 34.7948 108.624 35.799C107.683 36.3639 107.306 37.5564 107.055 38.6234C106.616 40.6318 106.114 42.7031 105.674 44.7115C104.168 45.2136 102.662 43.0169 101.155 43.5818C98.7702 44.5232 96.7618 50.4231 95.3182 52.6198C95.3182 52.6198 95.3182 52.7454 95.2554 52.7454L95.1299 52.6826Z" fill="#E0E2E8"/>
<path d="M133.729 70.4451C122.871 70.4451 112.075 67.9973 103.978 63.1017C96.1957 58.4571 91.9905 52.2434 92.116 45.5904C92.2415 38.7491 96.8861 32.4727 105.171 27.8281C121.615 18.6645 147.851 18.9156 163.667 28.393C171.45 33.0375 175.655 39.2512 175.53 45.9042C175.404 52.7455 170.76 59.022 162.475 63.6665C154.441 68.1228 144.085 70.3823 133.729 70.3823V70.4451ZM133.98 23.4974C124.063 23.4974 114.084 25.6314 106.364 29.9621C98.8318 34.1673 94.6266 39.7533 94.5011 45.6532C94.3755 51.3647 98.2042 56.8252 105.171 61.0304C120.297 70.1313 145.466 70.3823 161.22 61.5953C168.751 57.3901 172.956 51.8041 173.082 45.9042C173.208 40.1927 169.379 34.7322 162.412 30.527C154.692 25.8824 144.336 23.4974 133.917 23.4974H133.98Z" fill="#364954"/>
<mask id="mask0_66528_8555" style="mask-type:luminance" maskUnits="userSpaceOnUse" x="93" y="22" width="82" height="48">
<path d="M163.1 29.4595C178.603 38.8114 178.038 53.6238 161.907 62.6619C145.777 71.6372 120.106 71.3861 104.603 62.097C89.1007 52.8079 89.6656 37.9327 105.796 28.8947C121.926 19.9194 147.597 20.1704 163.1 29.4595Z" fill="white"/>
</mask>
<g mask="url(#mask0_66528_8555)">
<path d="M117.787 56.3859C117.787 56.3859 118.289 56.6997 118.603 56.888C119.795 57.5784 121.929 56.637 123.122 57.4529C124.44 58.3944 124.691 60.7794 125.193 62.2857C125.507 63.2272 125.821 64.2314 126.386 65.0474C127.39 66.4282 129.084 67.1814 130.716 67.8718C131.972 68.3739 133.29 68.9388 134.608 68.6877C135.926 68.4366 136.93 67.5579 137.871 66.6165C140.005 64.4197 141.7 61.7836 142.893 58.9592C141.386 58.9592 139.378 58.4571 139.189 56.9508C139.189 56.3859 139.378 55.8838 139.629 55.3817C140.696 53.5615 143.395 52.9966 143.206 50.7371C143.018 47.9755 139.88 47.034 137.997 46.2808C137.369 46.0298 136.993 45.3394 136.553 44.7745C134.921 42.6405 131.595 41.9501 130.591 39.4395C130.465 39.1257 130.402 38.8119 130.089 38.6864C129.649 38.4353 129.147 38.8119 128.896 39.2512C128.645 39.6906 128.519 40.1927 128.08 40.5065C127.327 41.0086 126.26 40.4438 125.444 40.7576C123.122 41.6363 122.808 46.7202 121.929 48.7287C120.988 50.7999 119.042 52.2435 118.038 54.2519C117.285 55.7583 117.034 55.9465 117.787 56.5114V56.3859Z" fill="#C2C7CF"/>
<path d="M100.465 61.7826C102.034 61.4061 103.541 60.9667 105.11 60.5901C105.486 60.4646 105.926 60.3391 106.239 60.0252C106.49 59.7114 106.553 59.2721 106.616 58.8955L107.181 55.1296C107.306 54.1254 107.495 53.1212 107.934 52.2425C108.75 50.6734 110.256 49.7319 111.763 48.7904C112.892 48.1 114.148 47.3469 115.466 47.4096C116.784 47.4096 117.976 48.1628 118.981 48.916C121.428 50.7361 123.5 53.0584 125.131 55.6945C123.625 56.0083 121.742 56.6987 121.805 58.2678C121.805 58.8327 122.119 59.3348 122.495 59.7742C123.374 60.8412 124.504 61.5944 125.822 61.9709C126.136 62.0337 126.45 62.1592 126.638 62.4103C126.826 62.7241 126.638 63.0379 126.575 63.3518L125.445 66.4272C125.006 67.6197 124.441 68.9378 123.186 69.3144C121.931 69.6909 117.851 65.9251 116.533 65.5485C116.407 65.5485 116.219 65.4857 116.093 65.5485C115.717 65.7368 115.842 66.2389 115.78 66.6783C115.717 67.7453 114.085 68.1846 113.457 67.3059C114.022 68.1218 110.884 69.7537 110.382 69.8165C109.064 70.0675 108.499 69.691 107.432 69.0633C104.608 67.3059 102.097 64.5443 100.402 61.6571L100.465 61.7826Z" fill="#F1F4F9"/>
<path d="M132.974 36.8036C137.367 39.0004 135.924 46.9715 140.38 48.9799C141.51 49.482 143.016 49.5448 143.707 50.549C144.271 51.365 144.146 52.6203 144.774 53.3734C145.401 54.1894 146.657 54.2521 147.724 54.0011C148.728 53.75 149.669 53.1851 150.736 52.9968C151.929 52.7458 153.184 52.9968 154.439 52.9968C159.209 52.9968 163.728 49.1682 164.419 44.4609C161.092 43.5822 161.155 38.4355 158.205 36.6154C157.264 36.0505 156.197 35.9249 155.255 35.2973C153.874 34.4186 153.31 32.5357 153.874 31.0293C153.749 31.3432 149.669 27.5773 149.293 27.4518C147.472 26.5103 146.782 27.0124 145.025 28.0794C140.819 30.59 136.865 33.9165 132.911 36.8036H132.974Z" fill="#C2C7CF"/>
<path d="M106.802 55.5085C105.107 53.7511 103.726 52.7469 103.413 50.4246C103.162 48.4789 102.597 46.4077 102.597 44.3993C102.597 40.3196 105.107 37.1186 109.375 37.0558C110.819 37.0558 112.388 37.4324 113.706 36.8675C114.585 36.491 115.275 35.675 116.028 35.0474C116.781 34.4197 117.848 33.9804 118.727 34.4197C119.229 34.6708 119.606 35.1729 119.982 35.6123C120.61 36.491 121.238 37.3697 121.865 38.3111C122.179 38.7505 122.556 39.2526 122.681 39.8175C122.995 40.9472 122.43 42.1397 121.803 43.2067C120.861 44.8386 119.731 46.4077 118.476 47.9141C117.723 48.7928 116.907 49.6715 116.781 50.8012C116.656 51.4289 116.781 52.0565 116.656 52.6214C116.279 54.065 114.585 54.7554 113.016 54.8809C111.509 55.0064 109.877 54.8809 108.559 55.6341C108.245 55.8224 107.932 56.0734 107.555 56.0107C107.241 56.0107 106.99 55.7596 106.802 55.5085Z" fill="#C2C7CF"/>
</g>
<path d="M133.729 70.4451C122.871 70.4451 112.075 67.9973 103.978 63.1017C96.1957 58.4571 91.9905 52.2434 92.116 45.5904C92.2415 38.7491 96.8861 32.4727 105.171 27.8281C121.615 18.6645 147.851 18.9156 163.667 28.393C171.45 33.0375 175.655 39.2512 175.53 45.9042C175.404 52.7455 170.76 59.022 162.475 63.6665C154.441 68.1228 144.085 70.3823 133.729 70.3823V70.4451ZM133.98 23.4974C124.063 23.4974 114.084 25.6314 106.364 29.9621C98.8318 34.1673 94.6266 39.7533 94.5011 45.6532C94.3755 51.3647 98.2042 56.8252 105.171 61.0304C120.297 70.1313 145.466 70.3823 161.22 61.5953C168.751 57.3901 172.956 51.8041 173.082 45.9042C173.208 40.1927 169.379 34.7322 162.412 30.527C154.692 25.8824 144.336 23.4974 133.917 23.4974H133.98Z" fill="#364954"/>
<path d="M164.616 123.48C165.37 122.79 166.311 122.037 167.315 122.288C167.378 124.736 170.956 126.179 172.776 124.485C175.788 125.426 178.927 126.179 182.065 126.681C182.692 126.807 183.383 126.87 183.885 127.184C184.513 127.56 184.952 128.251 185.329 128.878C186.709 131.201 188.09 133.899 187.211 136.473C186.647 138.105 185.14 139.862 186.019 141.368C186.27 141.745 186.584 142.122 186.521 142.498C186.521 142.749 186.27 142.937 186.082 143.063C183.885 144.758 180.872 144.569 178.111 145.009C175.349 145.448 172.274 147.268 172.462 150.03C171.081 148.523 170.83 146.327 170.453 144.318C170.077 142.31 169.324 140.113 167.504 139.234C166.75 138.858 165.934 138.795 165.118 138.732C162.231 138.481 159.281 138.167 156.394 137.916C156.08 137.289 156.08 136.535 156.394 135.971C152.503 136.912 155.327 132.142 156.394 131.138C159.093 128.564 161.917 126.054 164.616 123.48Z" fill="#F1F4F9"/>
<path d="M123.187 144.507C121.618 144.884 120.111 145.323 118.542 145.7C118.166 145.825 117.726 145.951 117.413 146.265C117.161 146.578 117.099 147.018 117.036 147.394C116.848 148.65 116.659 149.905 116.471 151.16C116.346 152.165 116.157 153.169 115.718 154.047C114.902 155.617 113.396 156.558 111.889 157.499C110.76 158.19 109.504 158.943 108.186 158.88C106.868 158.88 105.676 158.127 104.671 157.311C102.224 155.428 100.152 153.169 98.5205 150.533C100.027 150.219 101.91 149.528 101.847 147.959C101.847 147.394 101.533 146.892 101.157 146.453C100.278 145.386 99.1481 144.633 97.8301 144.256C97.5163 144.193 97.2024 144.068 97.0142 143.817C96.8259 143.503 97.0142 143.189 97.0769 142.875C97.4535 141.871 97.8301 140.804 98.2067 139.8C98.646 138.607 99.2109 137.289 100.466 136.913C101.721 136.536 105.801 140.302 107.119 140.679C107.245 140.679 107.433 140.741 107.559 140.679C107.935 140.49 107.81 139.988 107.872 139.549C107.935 138.482 109.567 138.043 110.195 138.921C109.63 138.105 112.768 136.473 113.27 136.411C114.588 136.16 115.153 136.536 116.22 137.164C119.044 138.921 121.555 141.683 123.25 144.57L123.187 144.507Z" fill="#F1F4F9"/>
<path d="M82.6399 138.921C87.2217 137.226 92.0546 143.754 96.5736 141.871C97.7661 141.369 98.7703 140.364 100.026 140.49C101.03 140.615 101.846 141.557 102.85 141.62C103.917 141.682 104.796 140.866 105.298 139.925C105.8 138.984 106.051 137.917 106.616 137.038C107.244 135.971 108.311 135.218 109.189 134.339C112.516 130.887 112.767 124.924 109.817 121.221C106.93 123.041 103.164 119.464 99.8373 120.405C98.8331 120.719 97.9544 121.41 96.8874 121.661C95.3183 122.037 93.5609 121.221 92.8077 119.778C92.9333 120.029 87.41 120.468 87.0334 120.594C85.0877 121.284 84.9622 122.163 84.5228 124.108C83.4558 128.878 83.2048 134.025 82.5771 138.921H82.6399Z" fill="#E0E2E8"/>
<path d="M194.672 99.4427C192.977 97.6853 191.597 96.6811 191.283 94.3588C191.032 92.4131 190.467 90.3419 190.467 88.3335C190.467 84.2538 192.977 81.0528 197.245 80.99C198.689 80.99 200.258 81.3666 201.576 80.8017C202.455 80.4252 203.145 79.6092 203.898 78.9816C204.652 78.3539 205.719 77.9146 206.597 78.3539C207.099 78.605 207.476 79.1071 207.853 79.5465C208.48 80.4252 209.108 81.3039 209.735 82.2453C210.049 82.6847 210.426 83.1868 210.551 83.7517C210.865 84.8814 210.3 86.0739 209.673 87.1409C208.731 88.7728 207.601 90.3419 206.346 91.8483C205.593 92.727 204.777 93.6057 204.652 94.7354C204.526 95.3631 204.652 95.9907 204.526 96.5556C204.149 97.9992 202.455 98.6896 200.886 98.8151C199.379 98.9406 197.747 98.8151 196.429 99.5683C196.116 99.7566 195.802 100.008 195.425 99.9449C195.111 99.9449 194.86 99.6938 194.672 99.4427Z" fill="#C2C7CF"/>
</g>
<defs>
<clipPath id="clip0_66528_8555">
<rect width="260" height="160" fill="white" transform="translate(0.5)"/>
</clipPath>
</defs>
</svg>
