<svg width="199" height="160" viewBox="0 0 199 160" fill="none" xmlns="http://www.w3.org/2000/svg">
<g id="undraw_throw_away_re_x60k 2" clip-path="url(#clip0_62180_21071)">
<path id="red?" d="M102.021 88H161.577L157.577 159.111H104.244L102.021 88Z" fill="#FF5354"/>
<path id="red?_2" d="M132.244 57.333L198.022 98.6663L192.689 107.111L127.355 65.333L132.244 57.333Z" fill="#FF5354"/>
<path id="Path 8" d="M156.515 159.498H103.124L103.114 159.199L100.564 86.2871H159.075L156.515 159.498ZM103.723 158.878H155.916L158.433 86.9072H101.206L103.723 158.878Z" fill="#3F3D56"/>
<g id="Group 1">
<path id="Rectangle 17" d="M115.861 99.7959H111.8V150.05H115.861V99.7959Z" fill="#3F3D56"/>
<path id="Rectangle 18" d="M131.851 99.7959H127.79V150.05H131.851V99.7959Z" fill="#3F3D56"/>
<path id="Rectangle 19" d="M147.84 99.7959H143.779V150.05H147.84V99.7959Z" fill="#3F3D56"/>
</g>
<path id="Vector" d="M193.003 107.697L192.741 107.532L126.422 65.6215L132.175 56.5186L132.437 56.6842L198.755 98.5943L193.003 107.697ZM127.277 65.4286L192.81 106.842L197.9 98.7874L132.368 57.3739L127.277 65.4286Z" fill="#3F3D56"/>
<path id="Path 10" d="M176.991 62.2437C175.063 61.0237 172.826 60.3823 170.545 60.3957C168.263 60.4091 166.034 61.0767 164.121 62.3192C162.207 63.5618 160.691 65.3271 159.751 67.4057C158.811 69.4844 158.487 71.7891 158.817 74.0464L161.979 76.0448C161.185 74.1995 161.002 72.1483 161.457 70.1915C161.912 68.2346 162.982 66.475 164.51 65.1702C166.038 63.8653 167.943 63.0839 169.947 62.9403C171.951 62.7967 173.948 63.2984 175.647 64.372C177.345 65.4456 178.655 67.0347 179.385 68.9066C180.114 70.7785 180.226 72.8348 179.702 74.7746C179.179 76.7143 178.048 78.4355 176.476 79.6862C174.903 80.9368 172.972 81.6512 170.964 81.7248L174.126 83.7232C176.307 83.0537 178.25 81.7726 179.725 80.0318C181.199 78.2911 182.144 76.1639 182.446 73.9026C182.747 71.6413 182.394 69.3409 181.428 67.2743C180.462 65.2078 178.923 63.4618 176.994 62.2437H176.991Z" fill="#3F3D56"/>
<path id="Rectangle 21" d="M178.022 159.07H0.244141V159.959H178.022V159.07Z" fill="#3F3D56"/>
<g id="Group 6">
<path id="Path 111" d="M36.5286 154.839H32.0133L29.8643 137.424H36.5298L36.5286 154.839Z" fill="#FEB8B8"/>
<path id="Path 112" d="M23.3057 159.031H37.4959V153.549H28.7122C27.2783 153.549 25.9031 154.118 24.8892 155.132C23.8753 156.146 23.3057 157.521 23.3057 158.955V159.031Z" fill="#2F2E41"/>
<path id="Path 113" d="M34.9414 127.853L38.0559 131.122L52.1472 120.666L47.5508 115.841L34.9414 127.853Z" fill="#FEB8B8"/>
<path id="Path 114" d="M41.2644 132.62L35.2037 126.261L31.2344 130.044L41.0256 140.317L41.0806 140.265C41.5946 139.775 42.0071 139.189 42.2946 138.539C42.582 137.89 42.7387 137.191 42.7558 136.481C42.7729 135.771 42.6499 135.064 42.3941 134.402C42.1382 133.74 41.7543 133.134 41.2644 132.62Z" fill="#2F2E41"/>
<path id="Path 115" d="M3.51414 80.141C3.22839 79.6812 3.04689 79.1644 2.98242 78.627C2.91795 78.0895 2.97207 77.5445 3.14098 77.0302C3.30989 76.5159 3.58949 76.0449 3.96008 75.6504C4.33066 75.2558 4.78324 74.9473 5.28594 74.7465L23.0129 29.5674L29.9228 33.7047L10.2305 77.0463C10.5119 77.9134 10.4655 78.8536 10.0999 79.6887C9.73433 80.5239 9.07509 81.1959 8.24712 81.5774C7.41916 81.9588 6.48002 82.0233 5.60768 81.7586C4.73534 81.4939 3.99043 80.9183 3.51414 80.141Z" fill="#FEB8B8"/>
<path id="Path 116" d="M70.7998 83.3784C70.2597 83.3398 69.7346 83.1832 69.2616 82.9197C68.7885 82.6561 68.379 82.292 68.0619 81.8531C67.7448 81.4141 67.5279 80.911 67.4263 80.3791C67.3248 79.8472 67.3411 79.2995 67.4742 78.7746L41.3223 37.8918L48.7291 34.7295L72.2402 76.1251C73.1084 76.4057 73.8434 76.9954 74.3055 77.7822C74.7677 78.569 74.9248 79.4981 74.7471 80.3931C74.5694 81.2881 74.0692 82.0867 73.3416 82.6372C72.6139 83.1878 71.7094 83.452 70.7998 83.3797V83.3784Z" fill="#FEB8B8"/>
<path id="Path 117" d="M23.1875 75.617L27.8165 144.416L38.8788 143.44L41.1563 92.6818L47.3382 114.481L60.678 115.457L55.3979 72.3633L23.1875 75.617Z" fill="#2F2E41"/>
<path id="Path 118" d="M49.2908 111.228L47.3376 114.481L33.6738 123.917L43.4347 129.123C43.4347 129.123 62.3056 118.711 60.6789 115.457L49.2908 111.228Z" fill="#2F2E41"/>
<path id="Path 119" d="M13.5 47.7813L17.3508 36.9304C18.2076 34.516 19.5346 32.2955 21.2552 30.3974C22.9758 28.4993 25.0557 26.9613 27.3746 25.8724C32.5867 23.9522 38.2554 23.6419 43.646 24.9817L45.0473 25.3295C48.7841 26.2352 52.2852 27.9262 55.3178 30.2899C57.6908 32.1606 59.8256 34.5292 60.0157 37.077C60.0166 37.0824 60.0182 37.0877 60.0203 37.0928C60.6776 39.9736 61.0028 54.9401 61.0028 54.9401H55.2053L56.1223 75.1125L56.0483 74.9665C56.0483 74.9665 22.6101 81.2944 22.6101 78.0407V57.2169L21.9246 49.6771L13.5 47.7813Z" fill="#CCCCCC"/>
<path id="Ellipse 12" d="M44.7117 22.1607C49.8293 22.1607 53.978 18.012 53.978 12.8943C53.978 7.77662 49.8293 3.62793 44.7117 3.62793C39.594 3.62793 35.4453 7.77662 35.4453 12.8943C35.4453 18.012 39.594 22.1607 44.7117 22.1607Z" fill="#FEB8B8"/>
<path id="Path 120" d="M46.0997 8.73919L53.2948 9.02751C54.2 9.02472 55.1884 8.99279 55.8779 8.40746C56.9165 7.52419 56.7426 5.85749 56.1864 4.61243C54.6362 1.14572 51.1785 -0.09624 47.3817 0.00575855C43.5848 0.107757 39.6062 1.39467 37.5616 4.59414C35.5169 7.7936 34.9645 11.8339 35.7346 15.5517C36.6249 13.6612 37.9955 12.0373 39.7096 10.8422C41.4236 9.64697 43.4212 8.92228 45.5029 8.74043L46.0997 8.73919Z" fill="#2F2E41"/>
</g>
<g id="Group 4">
<path id="Path 81" d="M88.826 99.3773L62.7833 81.1251C62.5414 80.9548 62.3768 80.6956 62.3255 80.4042C62.2743 80.1129 62.3406 79.813 62.5099 79.5704L82.9503 50.4054C83.1206 50.1634 83.3798 49.9988 83.6712 49.9476C83.9626 49.8963 84.2624 49.9626 84.505 50.132L110.548 68.3841C110.79 68.5544 110.954 68.8136 111.006 69.105C111.057 69.3964 110.99 69.6962 110.821 69.9388L90.3813 99.1031C90.2111 99.3453 89.9518 99.5102 89.6603 99.5616C89.3688 99.613 89.0687 99.5467 88.826 99.3773Z" fill="#DADADA"/>
<path id="Path 82" d="M94.6827 79.5721L79.4013 68.8621C79.2246 68.7382 79.074 68.5808 78.9581 68.3987C78.8423 68.2167 78.7634 68.0136 78.726 67.801C78.6886 67.5885 78.6935 67.3707 78.7403 67.16C78.7871 66.9493 78.8749 66.7499 78.9988 66.5732C79.1226 66.3965 79.2801 66.2459 79.4621 66.13C79.6442 66.0141 79.8473 65.9353 80.0598 65.8979C80.2724 65.8605 80.4902 65.8654 80.7009 65.9122C80.9115 65.959 81.1109 66.0468 81.2877 66.1706L96.5691 76.8807C96.926 77.1308 97.1689 77.5125 97.2444 77.9418C97.3199 78.371 97.2218 78.8127 96.9716 79.1696C96.7215 79.5265 96.3398 79.7694 95.9106 79.8449C95.4813 79.9204 95.0396 79.8223 94.6827 79.5721Z" fill="white"/>
<path id="Path 83" d="M91.1751 84.5769L75.8937 73.8668C75.7168 73.7431 75.566 73.5856 75.4499 73.4035C75.3339 73.2215 75.2548 73.0183 75.2174 72.8056C75.1799 72.593 75.1846 72.3751 75.2314 72.1643C75.2782 71.9535 75.3661 71.754 75.49 71.5771C75.6139 71.4003 75.7715 71.2496 75.9536 71.1337C76.1358 71.0178 76.3391 70.939 76.5517 70.9017C76.7644 70.8644 76.9824 70.8693 77.1931 70.9163C77.4039 70.9633 77.6033 71.0513 77.78 71.1754L93.0614 81.8854C93.4179 82.1357 93.6605 82.5173 93.7357 82.9464C93.811 83.3754 93.7128 83.8168 93.4628 84.1735C93.2128 84.5302 92.8314 84.773 92.4025 84.8487C91.9735 84.9243 91.532 84.8266 91.1751 84.5769Z" fill="white"/>
<path id="Path 84" d="M87.631 89.6347L72.3496 78.9246C72.1729 78.8008 72.0223 78.6433 71.9064 78.4612C71.7905 78.2792 71.7116 78.0761 71.6743 77.8635C71.6369 77.651 71.6417 77.4332 71.6885 77.2225C71.7353 77.0118 71.8231 76.8124 71.947 76.6357C72.0709 76.459 72.2283 76.3084 72.4104 76.1925C72.5924 76.0767 72.7955 75.9978 73.0081 75.9604C73.2206 75.923 73.4384 75.9279 73.6491 75.9747C73.8598 76.0215 74.0592 76.1093 74.2359 76.2332L89.5173 86.9432C89.8742 87.1933 90.1171 87.575 90.1926 88.0043C90.2681 88.4335 90.17 88.8752 89.9199 89.2321C89.6697 89.589 89.288 89.8319 88.8588 89.9074C88.4296 89.9829 87.9879 89.8848 87.631 89.6347Z" fill="white"/>
<path id="Path 85" d="M94.6398 69.6733L88.7209 65.525C88.5439 65.4013 88.3931 65.2438 88.2771 65.0618C88.161 64.8797 88.082 64.6765 88.0445 64.4639C88.007 64.2512 88.0118 64.0333 88.0586 63.8225C88.1053 63.6117 88.1932 63.4122 88.3171 63.2353C88.4411 63.0585 88.5986 62.9078 88.7808 62.7919C88.963 62.676 89.1662 62.5972 89.3789 62.5599C89.5916 62.5226 89.8095 62.5275 90.0203 62.5745C90.231 62.6215 90.4305 62.7095 90.6072 62.8336L96.5261 66.9819C96.883 67.232 97.1259 67.6137 97.2014 68.043C97.2769 68.4722 97.1788 68.9139 96.9287 69.2708C96.6785 69.6277 96.2969 69.8706 95.8676 69.9461C95.4384 70.0216 94.9967 69.9235 94.6398 69.6733Z" fill="white"/>
</g>
<g id="Group 7">
<path id="Path 81_2" d="M89.9048 93.0672L61.4562 78.8531C61.1918 78.7203 60.9908 78.4882 60.8972 78.2076C60.8035 77.9269 60.8249 77.6206 60.9566 77.3557L76.8749 45.4963C77.0077 45.2319 77.2398 45.0309 77.5204 44.9373C77.8011 44.8436 78.1074 44.865 78.3723 44.9967L106.821 59.2108C107.085 59.3436 107.286 59.5757 107.38 59.8564C107.474 60.137 107.452 60.4433 107.321 60.7083L91.4026 92.5668C91.27 92.8314 91.0379 93.0327 90.7571 93.1265C90.4764 93.2203 90.1698 93.199 89.9048 93.0672Z" fill="#0077B6"/>
<path id="Path 82_2" d="M92.7784 72.6157L76.0852 64.2751C75.8922 64.1786 75.72 64.0451 75.5786 63.8821C75.4371 63.7191 75.3292 63.5299 75.2609 63.3251C75.1926 63.1204 75.1653 62.9043 75.1805 62.689C75.1958 62.4737 75.2532 62.2636 75.3497 62.0705C75.4461 61.8775 75.5797 61.7053 75.7427 61.5639C75.9057 61.4224 76.0949 61.3145 76.2996 61.2462C76.5043 61.1779 76.7205 61.1506 76.9358 61.1658C77.151 61.181 77.3612 61.2385 77.5543 61.335L94.2474 69.6756C94.6373 69.8704 94.9338 70.2121 95.0717 70.6255C95.2097 71.039 95.1777 71.4903 94.9829 71.8801C94.7881 72.27 94.4464 72.5665 94.033 72.7045C93.6196 72.8424 93.1683 72.8105 92.7784 72.6157Z" fill="white"/>
<path id="Path 83_2" d="M90.0472 78.0821L73.3541 69.7415C73.1609 69.6452 72.9885 69.5117 72.8469 69.3487C72.7052 69.1857 72.5971 68.9964 72.5287 68.7916C72.4603 68.5868 72.4329 68.3706 72.4481 68.1552C72.4633 67.9398 72.5208 67.7295 72.6173 67.5364C72.7138 67.3432 72.8474 67.171 73.0105 67.0295C73.1736 66.888 73.363 66.78 73.5679 66.7118C73.7727 66.6435 73.989 66.6163 74.2044 66.6317C74.4198 66.6471 74.63 66.7048 74.8231 66.8014L91.5162 75.142C91.9057 75.3371 92.2018 75.6788 92.3395 76.092C92.4772 76.5053 92.4452 76.9563 92.2505 77.346C92.0558 77.7356 91.7144 78.032 91.3012 78.1701C90.8881 78.3081 90.4371 78.2765 90.0472 78.0821Z" fill="white"/>
<path id="Path 84_2" d="M87.2862 83.6069L70.5931 75.2663C70.4 75.1698 70.2279 75.0363 70.0864 74.8733C69.945 74.7103 69.837 74.5211 69.7687 74.3164C69.7004 74.1117 69.6731 73.8955 69.6883 73.6802C69.7036 73.465 69.761 73.2548 69.8575 73.0617C69.954 72.8687 70.0875 72.6965 70.2505 72.5551C70.4135 72.4137 70.6027 72.3057 70.8074 72.2374C71.0122 72.1691 71.2283 72.1418 71.4436 72.157C71.6589 72.1723 71.869 72.2297 72.0621 72.3262L88.7552 80.6668C89.1451 80.8616 89.4416 81.2033 89.5795 81.6167C89.7175 82.0302 89.6855 82.4815 89.4907 82.8713C89.2959 83.2612 88.9542 83.5578 88.5408 83.6957C88.1274 83.8336 87.6761 83.8017 87.2862 83.6069Z" fill="white"/>
<path id="Path 85_2" d="M91.2769 62.8305L84.8111 59.5999C84.6179 59.5036 84.4455 59.3701 84.3039 59.2071C84.1623 59.0441 84.0542 58.8548 83.9857 58.65C83.9173 58.4452 83.8899 58.229 83.9051 58.0136C83.9203 57.7982 83.9778 57.5879 84.0743 57.3948C84.1708 57.2016 84.3045 57.0294 84.4676 56.8879C84.6307 56.7464 84.8201 56.6384 85.0249 56.5702C85.2298 56.5019 85.4461 56.4747 85.6615 56.4901C85.8768 56.5055 86.0871 56.5632 86.2801 56.6598L92.7459 59.8904C93.1358 60.0852 93.4323 60.4269 93.5702 60.8403C93.7082 61.2538 93.6762 61.7051 93.4814 62.0949C93.2866 62.4848 92.9449 62.7814 92.5315 62.9193C92.1181 63.0572 91.6668 63.0253 91.2769 62.8305Z" fill="white"/>
</g>
</g>
<defs>
<clipPath id="clip0_62180_21071">
<rect width="198.511" height="160" fill="white" transform="translate(0.244141)"/>
</clipPath>
</defs>
</svg>
