<svg width="261" height="160" viewBox="0 0 261 160" fill="none" xmlns="http://www.w3.org/2000/svg">
<g clip-path="url(#clip0_67956_6289)">
<path d="M64.5001 10.6665C35.0068 10.6665 11.1667 34.5065 11.1667 63.9998C11.1667 93.4932 35.0068 117.333 64.5001 117.333C93.9934 117.333 117.833 93.4932 117.833 63.9998C117.833 34.5065 93.9934 10.6665 64.5001 10.6665ZM64.5001 106.667C40.9801 106.667 21.8334 87.5198 21.8334 63.9998C21.8334 40.4798 40.9801 21.3332 64.5001 21.3332C88.0201 21.3332 107.167 40.4798 107.167 63.9998C107.167 87.5198 88.0201 106.667 64.5001 106.667ZM83.6468 37.3332L64.5001 56.4798L45.3534 37.3332L37.8334 44.8532L56.9801 63.9998L37.8334 83.1465L45.3534 90.6665L64.5001 71.5198L83.6468 90.6665L91.1668 83.1465L72.0201 63.9998L91.1668 44.8532L83.6468 37.3332Z" fill="#F55C5C"/>
<path d="M93.4395 47.5994L103.168 122.415C103.67 126.431 106.494 130.323 111.704 133.461C123.566 140.553 143.149 140.804 155.451 133.9C161.225 130.699 164.363 126.494 164.865 122.226L174.217 47.3484L93.4395 47.5994Z" fill="#0D4A73"/>
<path d="M163.099 29.4609C178.602 38.8128 178.037 53.6252 161.907 62.6633C145.776 71.6386 120.106 71.3875 104.603 62.0984C89.1002 52.8093 89.6651 37.9341 105.796 28.8961C121.926 19.9208 147.597 20.1718 163.099 29.4609Z" fill="#183248"/>
<path d="M95.1304 52.6833C96.9505 56.1354 100.089 59.3363 104.608 62.098C120.111 71.4499 145.718 71.7009 161.912 62.6628C166.368 60.215 169.569 57.2651 171.64 54.1269C169.694 49.8589 166.493 46.0931 163.292 49.9845C162.665 50.7376 162.037 51.9929 161.096 51.7419C160.782 51.6791 160.531 51.428 160.342 51.177C159.589 50.2355 159.087 49.1058 158.962 47.9132C158.836 46.7207 159.024 45.5282 159.024 44.3984C159.024 44.2729 159.024 44.1474 159.024 44.0218C158.836 40.7581 156.326 37.8082 153.125 37.1178C151.932 36.8667 150.677 36.9295 149.547 36.5529C148.48 36.1763 147.601 35.5487 146.66 34.921C143.961 33.1009 141.011 31.72 137.936 30.8413C136.555 30.402 134.986 30.1509 133.668 30.653C130.655 31.8456 129.651 36.8039 126.387 36.6784C125.508 36.6784 124.692 36.1763 124.002 35.6742C122.809 34.7955 121.742 33.7285 120.424 33.1009C119.106 32.4732 117.349 32.4104 116.282 33.4774C115.592 34.1678 115.34 35.1721 114.587 35.6742C112.893 36.8039 110.382 34.7955 108.625 35.7997C107.683 36.3646 107.307 37.5571 107.056 38.6241C106.616 40.6326 106.114 42.7038 105.675 44.7123C104.168 45.2144 102.662 43.0176 101.156 43.5825C98.7707 44.524 96.7622 50.4238 95.3187 52.6206C95.3187 52.6206 95.3187 52.7461 95.2559 52.7461L95.1304 52.6833Z" fill="#E0E2E8"/>
<path d="M133.729 70.4459C122.871 70.4459 112.075 67.9981 103.978 63.1025C96.1957 58.458 91.9905 52.2443 92.116 45.5913C92.2415 38.75 96.8861 32.4735 105.171 27.829C121.615 18.6654 147.851 18.9164 163.667 28.3938C171.45 33.0384 175.655 39.2521 175.53 45.9051C175.404 52.7464 170.76 59.0228 162.475 63.6674C154.441 68.1237 144.085 70.3832 133.729 70.3832V70.4459ZM133.98 23.4982C124.063 23.4982 114.084 25.6322 106.364 29.9629C98.8318 34.1682 94.6266 39.7542 94.5011 45.654C94.3755 51.3656 98.2042 56.8261 105.171 61.0313C120.297 70.1321 145.466 70.3832 161.22 61.5962C168.751 57.391 172.956 51.8049 173.082 45.9051C173.208 40.1935 169.379 34.733 162.412 30.5278C154.692 25.8833 144.336 23.4982 133.917 23.4982H133.98Z" fill="#183248"/>
<mask id="mask0_67956_6289" style="mask-type:luminance" maskUnits="userSpaceOnUse" x="93" y="22" width="82" height="48">
<path d="M163.099 29.4609C178.602 38.8128 178.037 53.6252 161.907 62.6633C145.776 71.6386 120.106 71.3875 104.603 62.0984C89.1002 52.8093 89.6651 37.9341 105.796 28.8961C121.926 19.9208 147.597 20.1718 163.099 29.4609Z" fill="white"/>
</mask>
<g mask="url(#mask0_67956_6289)">
<path d="M117.786 56.3863C117.786 56.3863 118.288 56.7001 118.602 56.8884C119.794 57.5788 121.928 56.6374 123.121 57.4533C124.439 58.3948 124.69 60.7798 125.192 62.2862C125.506 63.2276 125.82 64.2319 126.385 65.0478C127.389 66.4286 129.083 67.1818 130.715 67.8722C131.971 68.3743 133.289 68.9392 134.607 68.6881C135.925 68.4371 136.929 67.5584 137.87 66.6169C140.004 64.4202 141.699 61.7841 142.892 58.9597C141.385 58.9597 139.377 58.4576 139.188 56.9512C139.188 56.3863 139.377 55.8842 139.628 55.3821C140.695 53.5619 143.394 52.9971 143.205 50.7375C143.017 47.9759 139.879 47.0344 137.996 46.2813C137.368 46.0302 136.992 45.3398 136.552 44.7749C134.92 42.6409 131.594 41.9505 130.59 39.44C130.464 39.1261 130.401 38.8123 130.088 38.6868C129.648 38.4357 129.146 38.8123 128.895 39.2517C128.644 39.691 128.519 40.1931 128.079 40.507C127.326 41.0091 126.259 40.4442 125.443 40.758C123.121 41.6367 122.807 46.7206 121.928 48.7291C120.987 50.8003 119.041 52.2439 118.037 54.2523C117.284 55.7587 117.033 55.947 117.786 56.5119V56.3863Z" fill="#C2C7CF"/>
<path d="M100.464 61.7842C102.033 61.4076 103.54 60.9682 105.109 60.5917C105.485 60.4661 105.925 60.3406 106.238 60.0268C106.49 59.7129 106.552 59.2736 106.615 58.897L107.18 55.1312C107.305 54.1269 107.494 53.1227 107.933 52.244C108.749 50.6749 110.255 49.7334 111.762 48.792C112.891 48.1015 114.147 47.3484 115.465 47.4111C116.783 47.4111 117.975 48.1643 118.98 48.9175C121.427 50.7377 123.499 53.0599 125.131 55.696C123.624 56.0099 121.741 56.7003 121.804 58.2694C121.804 58.8343 122.118 59.3364 122.494 59.7757C123.373 60.8427 124.503 61.5959 125.821 61.9725C126.135 62.0352 126.449 62.1608 126.637 62.4118C126.825 62.7256 126.637 63.0395 126.574 63.3533L125.444 66.4287C125.005 67.6213 124.44 68.9393 123.185 69.3159C121.93 69.6925 117.85 65.9266 116.532 65.55C116.406 65.55 116.218 65.4873 116.092 65.55C115.716 65.7383 115.841 66.2404 115.779 66.6798C115.716 67.7468 114.084 68.1861 113.456 67.3074C114.021 68.1234 110.883 69.7552 110.381 69.818C109.063 70.0691 108.498 69.6925 107.431 69.0648C104.607 67.3074 102.096 64.5458 100.401 61.6586L100.464 61.7842Z" fill="#F2F3F9"/>
<path d="M132.973 36.8041C137.367 39.0009 135.923 46.972 140.38 48.9804C141.509 49.4825 143.016 49.5453 143.706 50.5495C144.271 51.3655 144.145 52.6207 144.773 53.3739C145.401 54.1898 146.656 54.2526 147.723 54.0016C148.727 53.7505 149.669 53.1856 150.736 52.9973C151.928 52.7463 153.184 52.9973 154.439 52.9973C159.209 52.9973 163.728 49.1687 164.418 44.4614C161.092 43.5827 161.155 38.436 158.205 36.6158C157.263 36.051 156.196 35.9254 155.255 35.2978C153.874 34.4191 153.309 32.5362 153.874 31.0298C153.748 31.3436 149.669 27.5778 149.292 27.4523C147.472 26.5108 146.782 27.0129 145.024 28.0799C140.819 30.5905 136.865 33.917 132.911 36.8041H132.973Z" fill="#C2C7CF"/>
<path d="M106.801 55.5078C105.106 53.7504 103.725 52.7462 103.412 50.4239C103.161 48.4782 102.596 46.407 102.596 44.3985C102.596 40.3188 105.106 37.1179 109.374 37.0551C110.818 37.0551 112.387 37.4317 113.705 36.8668C114.584 36.4902 115.274 35.6743 116.027 35.0466C116.78 34.419 117.847 33.9796 118.726 34.419C119.228 34.6701 119.605 35.1722 119.981 35.6115C120.609 36.4902 121.237 37.3689 121.864 38.3104C122.178 38.7497 122.555 39.2519 122.68 39.8167C122.994 40.9465 122.429 42.139 121.802 43.206C120.86 44.8379 119.73 46.407 118.475 47.9133C117.722 48.792 116.906 49.6707 116.78 50.8005C116.655 51.4281 116.78 52.0558 116.655 52.6206C116.278 54.0642 114.584 54.7546 113.015 54.8802C111.508 55.0057 109.876 54.8802 108.558 55.6333C108.244 55.8216 107.931 56.0727 107.554 56.0099C107.24 56.0099 106.989 55.7589 106.801 55.5078Z" fill="#C2C7CF"/>
</g>
<path d="M133.729 70.4459C122.871 70.4459 112.075 67.9981 103.978 63.1025C96.1957 58.458 91.9905 52.2443 92.116 45.5913C92.2415 38.75 96.8861 32.4735 105.171 27.829C121.615 18.6654 147.851 18.9164 163.667 28.3938C171.45 33.0384 175.655 39.2521 175.53 45.9051C175.404 52.7464 170.76 59.0228 162.475 63.6674C154.441 68.1237 144.085 70.3832 133.729 70.3832V70.4459ZM133.98 23.4982C124.063 23.4982 114.084 25.6322 106.364 29.9629C98.8318 34.1682 94.6266 39.7542 94.5011 45.654C94.3755 51.3656 98.2042 56.8261 105.171 61.0313C120.297 70.1321 145.466 70.3832 161.22 61.5962C168.751 57.391 172.956 51.8049 173.082 45.9051C173.208 40.1935 169.379 34.733 162.412 30.5278C154.692 25.8833 144.336 23.4982 133.917 23.4982H133.98Z" fill="#183248"/>
<path d="M164.616 123.482C165.37 122.791 166.311 122.038 167.315 122.289C167.378 124.737 170.956 126.181 172.776 124.486C175.788 125.428 178.927 126.181 182.065 126.683C182.692 126.808 183.383 126.871 183.885 127.185C184.513 127.562 184.952 128.252 185.329 128.88C186.709 131.202 188.09 133.901 187.211 136.474C186.647 138.106 185.14 139.863 186.019 141.37C186.27 141.746 186.584 142.123 186.521 142.499C186.521 142.751 186.27 142.939 186.082 143.064C183.885 144.759 180.872 144.571 178.111 145.01C175.349 145.449 172.274 147.27 172.462 150.031C171.081 148.525 170.83 146.328 170.453 144.32C170.077 142.311 169.324 140.114 167.504 139.236C166.75 138.859 165.934 138.796 165.118 138.734C162.231 138.483 159.281 138.169 156.394 137.918C156.08 137.29 156.08 136.537 156.394 135.972C152.503 136.913 155.327 132.143 156.394 131.139C159.093 128.566 161.917 126.055 164.616 123.482Z" fill="#E6E8EE"/>
<path d="M123.187 144.508C121.618 144.884 120.111 145.323 118.542 145.7C118.166 145.826 117.726 145.951 117.413 146.265C117.161 146.579 117.099 147.018 117.036 147.395C116.848 148.65 116.659 149.905 116.471 151.161C116.346 152.165 116.157 153.169 115.718 154.048C114.902 155.617 113.396 156.558 111.889 157.5C110.76 158.19 109.504 158.943 108.186 158.881C106.868 158.881 105.676 158.127 104.671 157.311C102.224 155.429 100.152 153.169 98.5205 150.533C100.027 150.219 101.91 149.529 101.847 147.96C101.847 147.395 101.533 146.893 101.157 146.453C100.278 145.386 99.1481 144.633 97.8301 144.256C97.5163 144.194 97.2024 144.068 97.0142 143.817C96.8259 143.503 97.0142 143.189 97.0769 142.876C97.4535 141.871 97.8301 140.804 98.2067 139.8C98.646 138.608 99.2109 137.29 100.466 136.913C101.721 136.536 105.801 140.302 107.119 140.679C107.245 140.679 107.433 140.742 107.559 140.679C107.935 140.491 107.81 139.988 107.872 139.549C107.935 138.482 109.567 138.043 110.195 138.921C109.63 138.106 112.768 136.474 113.27 136.411C114.588 136.16 115.153 136.536 116.22 137.164C119.044 138.921 121.555 141.683 123.25 144.57L123.187 144.508Z" fill="#F2F3F9"/>
<path d="M82.6399 138.922C87.2217 137.227 92.0546 143.755 96.5736 141.872C97.7661 141.369 98.7703 140.365 100.026 140.491C101.03 140.616 101.846 141.558 102.85 141.621C103.917 141.683 104.796 140.867 105.298 139.926C105.8 138.984 106.051 137.917 106.616 137.039C107.244 135.972 108.311 135.219 109.189 134.34C112.516 130.888 112.767 124.925 109.817 121.222C106.93 123.042 103.164 119.465 99.8373 120.406C98.8331 120.72 97.9544 121.41 96.8874 121.661C95.3183 122.038 93.5609 121.222 92.8077 119.779C92.9333 120.03 87.41 120.469 87.0334 120.595C85.0877 121.285 84.9622 122.164 84.5228 124.109C83.4558 128.879 83.2048 134.026 82.5771 138.922H82.6399Z" fill="#D8DAE0"/>
<path d="M194.672 99.4431C192.977 97.6857 191.596 96.6815 191.282 94.3592C191.031 92.4135 190.466 90.3423 190.466 88.3338C190.466 84.2541 192.977 81.0532 197.245 80.9904C198.688 80.9904 200.258 81.367 201.576 80.8021C202.454 80.4255 203.145 79.6096 203.898 78.9819C204.651 78.3543 205.718 77.9149 206.597 78.3543C207.099 78.6054 207.475 79.1075 207.852 79.5468C208.48 80.4255 209.107 81.3042 209.735 82.2457C210.049 82.685 210.425 83.1871 210.551 83.752C210.865 84.8818 210.3 86.0743 209.672 87.1413C208.731 88.7732 207.601 90.3423 206.346 91.8486C205.593 92.7273 204.777 93.606 204.651 94.7358C204.526 95.3634 204.651 95.9911 204.526 96.556C204.149 97.9995 202.454 98.6899 200.885 98.8155C199.379 98.941 197.747 98.8155 196.429 99.5686C196.115 99.7569 195.801 100.008 195.425 99.9452C195.111 99.9452 194.86 99.6942 194.672 99.4431Z" fill="#C2C7CF"/>
</g>
<defs>
<clipPath id="clip0_67956_6289">
<rect width="260" height="160" fill="white" transform="translate(0.5)"/>
</clipPath>
</defs>
</svg>
