<svg width="261" height="160" viewBox="0 0 261 160" fill="none" xmlns="http://www.w3.org/2000/svg">
<g clip-path="url(#clip0_67945_31984)">
<path d="M46.7398 155.662L37.2881 153.177L3.99262 134.03C-0.635265 131.368 -0.672462 124.702 3.92566 121.988L39.3044 101.119C42.2582 99.3774 46.0652 100.335 47.8409 103.27L56.5957 117.723L46.7373 155.662H46.7398Z" fill="#C2C7CF"/>
<path d="M46.1725 28.7137L87.8677 4.64227C89.19 3.87817 90.3808 3.82111 91.2367 4.33712C91.264 4.35201 91.2912 4.36689 91.3185 4.38426C91.3458 4.39914 91.3731 4.41403 91.4004 4.4314C91.4277 4.44628 91.455 4.46117 91.4823 4.47853C91.5096 4.49342 91.5369 4.5083 91.5641 4.52567C91.5914 4.54055 91.6187 4.55544 91.646 4.5728C91.6733 4.58769 91.7006 4.60257 91.7279 4.61994C91.7552 4.63482 91.7825 4.64971 91.8097 4.66707C91.837 4.68196 91.8643 4.69684 91.8916 4.71421C91.9189 4.72909 91.9462 4.74398 91.9735 4.76134C92.0008 4.77623 92.0281 4.79111 92.0553 4.80848C92.0826 4.82337 92.1099 4.83825 92.1372 4.85562C92.1645 4.8705 92.1918 4.88539 92.2191 4.90275C92.2464 4.91764 92.2737 4.93252 92.3009 4.94989C92.3282 4.96477 92.3555 4.97966 92.3828 4.99702C92.4101 5.01191 92.4374 5.02679 92.4647 5.04416C92.492 5.05904 92.5193 5.07393 92.5465 5.09129C92.5738 5.10618 92.6011 5.12106 92.6284 5.13843C92.6557 5.15331 92.683 5.1682 92.7103 5.18557C92.7376 5.20045 92.7649 5.21534 92.7921 5.2327C92.8194 5.24759 92.8467 5.26247 92.874 5.27984C92.9013 5.29472 92.9286 5.30961 92.9559 5.32697C92.9832 5.34186 93.0105 5.35674 93.0377 5.37411C93.065 5.38899 93.0923 5.40388 93.1196 5.42124C93.1469 5.43613 93.1742 5.45101 93.2015 5.46838C93.2288 5.48326 93.2561 5.49815 93.2833 5.51551C93.3106 5.5304 93.3379 5.54528 93.3652 5.56265C93.3925 5.57754 93.4198 5.59242 93.4471 5.60979C93.4744 5.62467 93.5017 5.63956 93.529 5.65692C93.5562 5.67181 93.5835 5.68669 93.6108 5.70406C93.6381 5.71894 93.6654 5.73383 93.6927 5.75119C93.72 5.76608 93.7473 5.78096 93.7746 5.79833C93.8018 5.81321 93.8291 5.8281 93.8564 5.84546C93.8837 5.86035 93.911 5.87523 93.9383 5.8926C93.9656 5.90749 93.9929 5.92237 94.0202 5.93974C94.0474 5.95462 94.0747 5.96951 94.102 5.98687C94.1293 6.00176 94.1566 6.01664 94.1839 6.03401C94.2112 6.04889 94.2385 6.06378 94.2658 6.08114C94.293 6.09603 94.3203 6.11091 94.3476 6.12828C94.3749 6.14316 94.4022 6.15805 94.4295 6.17541C94.4568 6.1903 94.4841 6.20518 94.5114 6.22255C94.5386 6.23743 94.5659 6.25232 94.5932 6.26969C94.6205 6.28457 94.6478 6.29945 94.6751 6.31682C94.7024 6.33171 94.7297 6.34659 94.757 6.36396C94.7842 6.37884 94.8115 6.39373 94.8388 6.41109C94.8661 6.42598 94.8934 6.44086 94.9207 6.45823C94.948 6.47311 94.9753 6.488 95.0026 6.50536C95.0298 6.52025 95.0571 6.53513 95.0844 6.5525C95.9527 7.00649 96.501 8.06828 96.501 9.59647V123.121C96.501 126.126 94.3923 129.78 91.7899 131.283L50.0947 155.355C48.7749 156.116 47.5816 156.176 46.7257 155.66C46.6985 155.645 46.6712 155.63 46.6439 155.613C46.6166 155.598 46.5893 155.583 46.562 155.566C46.5347 155.551 46.5074 155.536 46.4801 155.518C46.4529 155.504 46.4256 155.489 46.3983 155.471C46.371 155.456 46.3437 155.442 46.3164 155.424C46.2891 155.409 46.2618 155.394 46.2346 155.377C46.2073 155.362 46.18 155.347 46.1527 155.33C46.1254 155.315 46.0981 155.3 46.0708 155.283C46.0435 155.268 46.0162 155.253 45.9889 155.236C45.9617 155.221 45.9344 155.206 45.9071 155.188C45.8798 155.174 45.8525 155.159 45.8252 155.141C45.7979 155.126 45.7706 155.112 45.7433 155.094C45.7161 155.079 45.6888 155.064 45.6615 155.047C45.6342 155.032 45.6069 155.017 45.5796 155C45.5523 154.985 45.525 154.97 45.4977 154.953C45.4705 154.938 45.4432 154.923 45.4159 154.906C45.3886 154.891 45.3613 154.876 45.334 154.859C45.3067 154.844 45.2794 154.829 45.2521 154.811C45.2249 154.797 45.1976 154.782 45.1703 154.764C45.143 154.749 45.1157 154.735 45.0884 154.717C45.0611 154.702 45.0338 154.687 45.0065 154.67C44.9792 154.655 44.952 154.64 44.9247 154.623C44.8974 154.608 44.8701 154.593 44.8428 154.576C44.8155 154.561 44.7882 154.546 44.7609 154.529C44.7337 154.514 44.7064 154.499 44.6791 154.481C44.6518 154.467 44.6245 154.452 44.5972 154.434C44.5699 154.419 44.5426 154.405 44.5153 154.387C44.488 154.372 44.4608 154.357 44.4335 154.34C44.4062 154.325 44.3789 154.31 44.3516 154.293C44.3243 154.278 44.297 154.263 44.2697 154.246C44.2425 154.231 44.2152 154.216 44.1879 154.199C44.1606 154.184 44.1333 154.169 44.106 154.152C44.0787 154.137 44.0514 154.122 44.0241 154.104C43.9968 154.089 43.9696 154.075 43.9423 154.057C43.915 154.042 43.8877 154.027 43.8604 154.01C43.8331 153.995 43.8058 153.98 43.7785 153.963C43.7512 153.948 43.724 153.933 43.6967 153.916C43.6694 153.901 43.6421 153.886 43.6148 153.869C43.5875 153.854 43.5602 153.839 43.5329 153.822C43.5056 153.807 43.4784 153.792 43.4511 153.774C43.4238 153.76 43.3965 153.745 43.3692 153.727C43.3419 153.712 43.3146 153.698 43.2873 153.68C43.26 153.665 43.2328 153.65 43.2055 153.633C43.1782 153.618 43.1509 153.603 43.1236 153.586C43.0963 153.571 43.069 153.556 43.0417 153.539C43.0144 153.524 42.9871 153.509 42.9599 153.492C42.9326 153.477 42.9053 153.462 42.878 153.444C41.9998 152.963 41.4515 151.901 41.4515 150.373V36.8756C41.4515 33.8713 43.5602 30.2171 46.1626 28.7137H46.1725Z" fill="#007BBD"/>
<path d="M50.0947 155.357L91.7899 131.286C94.3923 129.783 96.501 126.128 96.501 123.124V9.59666C96.501 6.59239 94.3898 5.3743 91.7874 6.8752L50.0922 30.9466C47.4898 32.45 45.3787 36.1043 45.3787 39.1085V152.633C45.3787 155.638 47.4898 156.856 50.0922 155.355L50.0947 155.357Z" fill="#D5E4F6"/>
<path d="M91.7872 129.988C93.7669 128.845 95.377 126.056 95.377 123.771V10.2465C95.377 7.96171 93.7644 7.0314 91.7872 8.17506L50.092 32.2465C48.1123 33.3901 46.5023 36.1786 46.5023 38.4634V151.991C46.5023 154.276 48.1148 155.206 50.092 154.062L91.7872 129.988Z" fill="#007BBD"/>
<path d="M91.7878 129.555C93.5591 128.532 95.0029 126.034 95.0029 123.988V10.4627C95.0029 8.41599 93.5591 7.58243 91.7878 8.60701L50.0926 32.6784C48.3213 33.7005 46.8775 36.1987 46.8775 38.2454V151.77C46.8775 153.817 48.3213 154.651 50.0926 153.626L91.7878 129.555Z" fill="#007BBD"/>
<path d="M91.1019 128.222C92.4292 127.455 93.5059 125.592 93.5059 124.059V12.1194C93.5059 10.5863 92.4292 9.96607 91.1019 10.7326L50.7811 34.0127C49.4539 34.7793 48.3772 36.6424 48.3772 38.1755V150.115C48.3772 151.648 49.4539 152.269 50.7811 151.502L91.1019 128.222Z" fill="#183248"/>
<path d="M65.3837 28.3193L76.3539 21.9857C77.3438 21.4151 78.2517 20.2566 78.7132 18.9815L79.7402 16.1384L62.1388 26.2999L63.2328 28.0637C63.6546 28.741 64.4807 28.8402 65.3812 28.3193H65.3837Z" fill="#007BBD"/>
<g style="mix-blend-mode:screen">
<path d="M91.7878 8.60665C93.5591 7.58455 95.0029 8.41563 95.0029 10.4623V123.987C95.0029 125.439 94.276 127.116 93.2217 128.336L59.2195 27.4088L91.7878 8.60665Z" fill="#191C20"/>
</g>
</g>
<path d="M110.5 76V84H150.5V76H110.5ZM130.5 40C108.42 40 90.5 57.92 90.5 80C90.5 102.08 108.42 120 130.5 120C152.58 120 170.5 102.08 170.5 80C170.5 57.92 152.58 40 130.5 40ZM130.5 112C112.86 112 98.5 97.64 98.5 80C98.5 62.36 112.86 48 130.5 48C148.14 48 162.5 62.36 162.5 80C162.5 97.64 148.14 112 130.5 112Z" fill="#F55C5C"/>
<g clip-path="url(#clip1_67945_31984)">
<path fill-rule="evenodd" clip-rule="evenodd" d="M186.838 127.445C169.527 127.445 155.5 134.74 155.5 143.723C155.5 152.705 169.54 160 186.838 160C204.136 160 218.176 152.705 218.176 143.723C218.176 134.74 204.136 127.445 186.838 127.445Z" fill="#D1CDCB"/>
<path fill-rule="evenodd" clip-rule="evenodd" d="M207.58 59.5179C209.356 66.2196 217.458 74.4468 218.896 77.4976C219.296 78.3603 223.047 76.4223 221.834 74.5593C219.871 71.5335 219.208 68.9579 217.595 61.9685C217.245 60.4431 214.294 55.4293 211.806 56.092C209.331 56.7671 207.167 57.2673 207.568 59.5179H207.58Z" fill="#DB9669"/>
<path fill-rule="evenodd" clip-rule="evenodd" d="M221.16 74.1717C222.36 74.2842 223.585 75.7971 223.998 76.5348C225.161 77.6226 226.136 81.5362 226.249 81.7862C226.424 82.2363 225.536 82.1363 225.661 82.5739C225.373 82.7115 224.911 81.6487 224.198 82.799C223.685 82.6489 223.473 81.2236 222.773 82.824C222.385 82.3364 222.247 82.2613 221.972 81.8487C221.322 81.9488 221.51 82.5614 221.222 82.2363C220.034 81.6862 218.471 79.2355 218.559 78.3478L218.284 76.2223C218.509 73.6591 219.734 73.384 221.147 74.1717H221.16Z" fill="#DB9669"/>
<path fill-rule="evenodd" clip-rule="evenodd" d="M223.748 75.0594C224.398 75.4345 225.049 76.0347 225.586 76.5598C226.274 77.2225 226.512 77.7726 227.199 78.4353C226.599 78.9354 225.911 78.9104 224.761 77.5601C224.311 77.1725 223.936 76.8849 223.548 76.8099C222.648 76.6098 221.373 77.1225 221.11 75.372C220.998 74.5968 221.523 73.7716 223.736 75.0594H223.748Z" fill="#F2B387"/>
<path d="M233.336 91.6637C233.411 91.6637 233.487 91.6637 233.562 91.6387C234.087 91.5136 234.412 90.9885 234.287 90.4634C232.361 82.2612 226.872 78.6978 222.259 78.8478C217.932 78.9603 214.569 82.1987 213.694 87.1C213.594 87.6251 213.956 88.1378 214.481 88.2253C215.019 88.3128 215.519 87.9627 215.619 87.4376C216.332 83.4365 218.908 80.8858 222.321 80.7858C226.135 80.6608 230.723 83.7741 232.399 90.901C232.499 91.3511 232.899 91.6512 233.349 91.6512L233.336 91.6637Z" fill="#47471D"/>
<path fill-rule="evenodd" clip-rule="evenodd" d="M238.577 115.833C236.501 114.957 233.713 121.784 231.537 121.172C219.834 117.846 207.356 106.98 201.855 96.3276C199.116 91.0137 201.217 85.1746 212.782 82.699C221.485 80.836 235.338 87.7378 239.402 95.7524C244.316 105.442 245.028 118.571 238.564 115.845L238.577 115.833Z" fill="#575727"/>
<path fill-rule="evenodd" clip-rule="evenodd" d="M231.025 121.234C216.759 118.921 206.218 113.52 198.129 101.879C194.715 96.9652 200.529 84.9495 209.482 84.5119C215.346 84.2243 230.1 91.1136 233.313 98.7781C236.739 106.955 234.888 121.859 231.025 121.234Z" fill="#70702B"/>
<path fill-rule="evenodd" clip-rule="evenodd" d="M237.438 103.779C233.925 89.9007 222.384 83.0614 210.156 83.3615C224.297 82.2487 234.025 88.9379 239.326 103.442C238.701 103.554 238.063 103.667 237.438 103.779Z" fill="#70702B"/>
<path d="M227.936 98.8283C228.361 98.8283 228.736 98.5157 228.811 98.0906C231.349 82.6616 226.535 79.5357 224.347 78.8981C219.908 77.6227 214.257 82.1239 211.194 89.3633C211.006 89.8134 211.219 90.3386 211.669 90.5261C212.119 90.7137 212.644 90.5011 212.832 90.051C215.445 83.8369 220.409 79.5982 223.859 80.5985C227.473 81.6363 228.673 88.063 227.073 97.7906C226.998 98.2782 227.323 98.7283 227.798 98.8033C227.848 98.8033 227.898 98.8033 227.948 98.8033L227.936 98.8283Z" fill="#47471D"/>
<path fill-rule="evenodd" clip-rule="evenodd" d="M228.273 101.467C220.02 99.0409 213.369 95.2649 208.067 90.3511C207.855 90.7262 207.642 91.1138 207.442 91.4889C213.544 96.6152 220.421 100.391 228.073 102.817C228.148 102.367 228.21 101.917 228.285 101.479L228.273 101.467Z" fill="#47471D"/>
<path fill-rule="evenodd" clip-rule="evenodd" d="M168.308 35.5491C168.308 27.622 182.249 19.945 186.363 22.2331L196.266 27.9096L187.926 58.7928V64.4568L181.062 67.3075L178.711 79.3107C175.56 79.1231 171.997 76.4974 170.096 74.7095C169.146 73.8217 168.308 72.9715 168.308 71.6712V35.5366V35.5491Z" fill="#4F498F"/>
<path fill-rule="evenodd" clip-rule="evenodd" d="M179.862 73.4841L178.725 79.3106C175.574 79.1231 172.023 76.4974 170.11 74.7094C169.159 73.8217 168.322 72.9714 168.322 71.6711V67.9326C171.698 70.4958 176.549 73.9217 179.237 73.5841C179.437 73.5591 179.65 73.5216 179.862 73.4841Z" fill="#A25E33"/>
<path fill-rule="evenodd" clip-rule="evenodd" d="M168.394 34.4739C169.544 26.947 182.435 20.0451 186.374 22.2332L196.276 27.9097C191.388 46.0395 171.182 39.7753 168.394 34.4739Z" fill="#635DA5"/>
<path fill-rule="evenodd" clip-rule="evenodd" d="M177.986 40.8881C177.986 31.1105 197.604 22.0707 197.604 30.8105V68.4579C197.604 69.3331 197.203 70.0958 196.478 70.596C191.714 73.8843 186.363 76.9351 179.236 79.2357C178.936 79.3358 178.649 79.3608 178.386 79.2107C178.123 79.0482 177.973 78.7856 177.973 78.473V40.8881H177.986Z" fill="#56321A"/>
<path fill-rule="evenodd" clip-rule="evenodd" d="M177.986 40.8881C177.986 31.1105 197.604 22.0707 197.604 30.8105V66.9325C197.466 67.0825 197.316 67.2326 197.166 67.3701C190.602 73.1341 184.037 76.9101 177.986 75.9349V40.8881Z" fill="#423C82"/>
<path fill-rule="evenodd" clip-rule="evenodd" d="M197.616 64.782V66.92C196.716 71.2712 185.238 78.3231 177.999 75.9224V73.5218C178.449 73.6093 178.861 73.6343 179.236 73.5843C184.15 72.9591 192.115 68.1579 197.616 64.782Z" fill="#56321A"/>
<path d="M174.91 53.8289C175.097 53.8289 175.247 53.6788 175.26 53.4913L175.335 38.9249C175.347 36.1117 177.398 32.8733 180.961 30.0226C184.75 26.9968 189.326 25.2088 191.852 25.7715C192.039 25.809 192.227 25.6965 192.264 25.5089C192.302 25.3214 192.189 25.1338 192.002 25.0963C189.238 24.4836 184.525 26.2966 180.536 29.485C176.81 32.4607 174.66 35.8991 174.647 38.9249L174.572 53.4913C174.572 53.6788 174.722 53.8414 174.91 53.8414V53.8289Z" fill="#333333"/>
<path fill-rule="evenodd" clip-rule="evenodd" d="M177.108 60.5555L168.206 55.8542L165.755 57.2046L167.893 62.606V68.7326L174.12 72.2711L175.595 75.0843L177.721 73.909C177.921 73.7965 178.046 73.5964 178.046 73.3714V62.1559C178.046 61.4682 177.708 60.8681 177.108 60.543V60.5555Z" fill="#423C82"/>
<path fill-rule="evenodd" clip-rule="evenodd" d="M174.659 61.8934C171.408 60.6806 168.67 59.0927 166.369 57.1922C166.194 57.0546 165.944 57.0796 165.757 57.1922C165.557 57.3047 165.457 57.5047 165.457 57.7298V68.9953C165.457 69.6829 165.869 70.1581 166.394 70.6082C168.695 72.5337 171.608 73.9966 174.684 75.3094C174.896 75.397 175.109 75.422 175.297 75.3094C175.497 75.1969 175.597 74.9968 175.597 74.7718V63.5063C175.597 62.8186 175.297 62.131 174.659 61.8934Z" fill="#4F498F"/>
<path fill-rule="evenodd" clip-rule="evenodd" d="M178.91 61.2182C179.135 62.5061 177.135 63.8439 175.884 62.7436C175.672 61.9559 175.584 61.4683 175.372 60.6806C176.185 60.6431 176.997 60.6181 177.81 60.5806C178.223 60.8181 178.498 60.9807 178.91 61.2182Z" fill="#333333"/>
<path fill-rule="evenodd" clip-rule="evenodd" d="M178.097 59.7807C175.371 57.6551 169.27 55.0419 168.62 55.2795C165.169 56.5173 164.681 56.4798 164.881 61.1561C166.732 62.2188 169.47 64.8195 173.483 65.7573C175.171 66.1574 174.684 62.2939 179.072 61.3561C178.922 60.7559 178.61 60.1808 178.11 59.7807H178.097Z" fill="#635DA5"/>
<path fill-rule="evenodd" clip-rule="evenodd" d="M170.297 62.7313C169.834 62.5437 169.347 62.3812 168.934 62.0686L168.784 62.1561C168.784 63.8941 168.871 65.7071 168.934 67.445C168.984 68.8079 170.259 69.7331 170.297 68.1077C170.334 66.4323 170.297 64.5318 170.297 62.7438V62.7313Z" fill="#56321A"/>
<path fill-rule="evenodd" clip-rule="evenodd" d="M170.157 62.8062C169.695 62.6187 169.207 62.4561 168.794 62.1436C168.794 63.9315 168.732 65.7195 168.794 67.5075C168.844 68.8703 170.12 69.7956 170.157 68.1701C170.195 66.4947 170.157 64.5942 170.157 62.8062Z" fill="#A25E33"/>
<path fill-rule="evenodd" clip-rule="evenodd" d="M177.108 44.1011L168.206 39.3999L165.755 40.7503L167.893 46.1517V52.2783L174.12 55.8167L175.595 58.63L177.721 57.4547C177.921 57.3421 178.046 57.1421 178.046 56.917V45.7016C178.046 45.0139 177.708 44.4137 177.108 44.0886V44.1011Z" fill="#423C82"/>
<path fill-rule="evenodd" clip-rule="evenodd" d="M174.659 45.4517C171.408 44.2389 168.67 42.651 166.369 40.7505C166.194 40.613 165.944 40.638 165.757 40.7505C165.557 40.863 165.457 41.0631 165.457 41.2881V52.5536C165.457 53.2413 165.869 53.7164 166.394 54.1665C168.695 56.0921 171.608 57.5549 174.684 58.8678C174.896 58.9553 175.109 58.9803 175.297 58.8678C175.497 58.7553 175.597 58.5552 175.597 58.3301V47.0647C175.597 46.377 175.297 45.6893 174.659 45.4517Z" fill="#4F498F"/>
<path fill-rule="evenodd" clip-rule="evenodd" d="M178.548 45.1892C178.773 46.477 176.772 47.8149 175.522 46.7146C175.31 45.9269 175.222 45.4392 175.01 44.6515C175.822 44.614 176.635 44.589 177.448 44.5515C177.86 44.7891 178.135 44.9516 178.548 45.1892Z" fill="#333333"/>
<path fill-rule="evenodd" clip-rule="evenodd" d="M177.722 43.7512C174.996 41.6256 168.895 39.0124 168.245 39.25C164.794 40.4878 164.306 40.4503 164.506 45.1265C166.357 46.1893 169.095 48.79 173.108 49.7277C174.796 50.1278 174.309 46.2643 178.697 45.3266C178.547 44.7264 178.235 44.1513 177.735 43.7512H177.722Z" fill="#635DA5"/>
<path fill-rule="evenodd" clip-rule="evenodd" d="M169.932 46.702C169.469 46.5144 168.981 46.3519 168.569 46.0393L168.419 46.1268C168.419 47.8648 168.506 49.6778 168.569 51.4157C168.619 52.7786 169.894 53.7038 169.932 52.0784C169.969 50.403 169.932 48.5025 169.932 46.7145V46.702Z" fill="#56321A"/>
<path fill-rule="evenodd" clip-rule="evenodd" d="M169.785 46.7772C169.322 46.5896 168.835 46.4271 168.422 46.1145C168.422 47.9025 168.36 49.6904 168.422 51.4784C168.472 52.8413 169.748 53.7665 169.785 52.1411C169.823 50.4656 169.785 48.5651 169.785 46.7772Z" fill="#A25E33"/>
<path fill-rule="evenodd" clip-rule="evenodd" d="M185.563 23.821L187.426 23.7209L187.376 23.5084L183.675 22.8457L185.563 23.821Z" fill="#56321A"/>
<path fill-rule="evenodd" clip-rule="evenodd" d="M177.385 27.0344L175.497 29.21L173.784 28.2848L173.596 27.9972L175.684 26.0967L177.385 27.0344Z" fill="#56321A"/>
<path fill-rule="evenodd" clip-rule="evenodd" d="M177.109 26.8468L175.309 28.9223L173.596 27.9971L175.396 25.9465L177.109 26.8468Z" fill="#A25E33"/>
<path fill-rule="evenodd" clip-rule="evenodd" d="M185.512 23.6082L187.375 23.5082L185.575 22.533L183.624 22.633L185.512 23.6082Z" fill="#A25E33"/>
<path fill-rule="evenodd" clip-rule="evenodd" d="M183.886 22.8083C184.624 23.1834 185.099 23.421 185.824 23.8086C185.824 23.4335 185.887 22.9959 185.012 22.3457C184.386 21.8956 183.986 21.7331 183.036 21.6956C183.386 22.0707 183.761 22.0081 183.874 22.8083H183.886Z" fill="#56321A"/>
<path fill-rule="evenodd" clip-rule="evenodd" d="M183.636 22.8331C184.373 23.2082 184.861 23.4582 185.599 23.8333C185.599 23.4582 185.799 23.0706 184.886 22.4705C184.261 22.0203 183.323 21.8203 182.623 21.5327C182.973 21.9078 183.511 22.0328 183.636 22.8206V22.8331Z" fill="#3C3C3B"/>
<path fill-rule="evenodd" clip-rule="evenodd" d="M175.684 26.1339C176.247 26.434 176.822 26.7341 177.384 27.0342C177.847 22.2329 182.811 21.2701 185.187 22.4955C184.574 22.1579 183.949 21.8328 183.336 21.4952C181.723 20.3449 175.834 21.8078 175.684 26.1214V26.1339Z" fill="#56321A"/>
<path fill-rule="evenodd" clip-rule="evenodd" d="M175.398 25.9466C175.961 26.2466 176.536 26.5467 177.098 26.8468C177.561 22.0455 183.025 20.7577 184.9 22.3081C184.363 21.8455 183.362 21.3954 182.537 21.0828C180.587 20.3451 175.548 21.6204 175.385 25.9466H175.398Z" fill="#A25E33"/>
<path fill-rule="evenodd" clip-rule="evenodd" d="M199.792 44.6766C202.255 54.0666 206.144 54.0041 207.544 58.7678C211.883 62.0187 213.859 59.3055 213.483 56.3672C211.595 51.841 212.446 45.3393 207.219 38.4124C206.244 31.8482 201.793 31.6482 199.255 32.986C196.717 34.3239 195.991 37.4747 199.792 44.6641V44.6766Z" fill="#DB9669"/>
<path fill-rule="evenodd" clip-rule="evenodd" d="M201.142 47.7523C204.355 46.827 208.043 46.0518 209.156 41.4381C208.043 39.2876 208.118 38.2248 207.856 36.8744C206.331 29.0599 201.329 28.7473 198.291 30.3602C191.752 33.8111 198.829 43.4136 201.129 47.7398L201.142 47.7523Z" fill="#A6847B"/>
<path fill-rule="evenodd" clip-rule="evenodd" d="M184.312 135.9C184.312 135.9 185.424 137.288 183.086 137.951C182.336 138.164 178.86 139.314 176.022 137.251C171.783 134.338 171.546 132.687 170.433 132.137C169.32 131.599 166.632 129.199 166.607 127.986C166.607 127.348 168.332 125.685 168.332 125.685C173.184 130.574 178.36 132.525 184.312 135.9Z" fill="#B89A92"/>
<path fill-rule="evenodd" clip-rule="evenodd" d="M176.86 127.773C178.685 130.099 179.448 131.812 180.936 133.462C181.499 134.05 184.462 135.2 184.312 135.888C184.012 137.313 178.923 138.239 177.047 136.651C175.272 135.15 173.534 131.937 171.671 131.012C168.695 129.536 167.307 127.311 167.507 126.648C167.895 125.348 169.508 124.373 170.521 124.21C169.896 125.585 170.333 127.061 171.671 127.811C173.371 128.761 176.06 128.249 176.86 127.786V127.773Z" fill="#2B3E78"/>
<path fill-rule="evenodd" clip-rule="evenodd" d="M176.235 130.524C178.261 129.411 178.948 130.474 178.948 130.474C178.923 130.324 178.898 130.199 178.873 130.074C178.811 129.711 178.623 129.424 178.323 129.224C178.023 129.024 177.685 128.961 177.323 129.036C177.023 129.111 176.673 129.224 176.285 129.424C175.16 129.999 174.597 131.424 176.223 130.537L176.235 130.524Z" fill="#B89A92"/>
<path fill-rule="evenodd" clip-rule="evenodd" d="M176.798 131.612C178.823 130.499 179.511 131.562 179.511 131.562C179.486 131.412 179.461 131.287 179.436 131.162C179.373 130.799 179.186 130.512 178.886 130.312C178.585 130.111 178.248 130.049 177.885 130.124C177.585 130.199 177.235 130.311 176.848 130.512C175.722 131.087 175.16 132.512 176.785 131.624L176.798 131.612Z" fill="#B89A92"/>
<path fill-rule="evenodd" clip-rule="evenodd" d="M177.486 132.75C179.374 131.412 180.174 132.387 180.174 132.387C180.124 132.237 180.086 132.112 180.049 131.987C179.949 131.637 179.736 131.374 179.411 131.199C179.086 131.037 178.748 131.012 178.398 131.124C178.098 131.224 177.773 131.387 177.411 131.624C176.36 132.325 175.96 133.812 177.473 132.737L177.486 132.75Z" fill="#B89A92"/>
<path fill-rule="evenodd" clip-rule="evenodd" d="M184.625 84.7372C183.025 90.0636 184.775 98.7534 183.025 101.754C177.874 105.918 173.472 115.533 169.371 124.623C168.246 128.361 175.223 130.487 176.711 128.299C178.036 122.722 186.238 113.695 190.389 109.106C191.302 108.519 192.227 107.543 193.115 106.093C193.628 104.33 196.266 91.1639 197.529 87.8631C199.654 81.4989 186.651 74.247 184.613 84.7372H184.625Z" fill="#351536"/>
<path fill-rule="evenodd" clip-rule="evenodd" d="M210.356 135.413C208.481 135.288 206.468 132.975 206.993 130.199C204.93 131.974 204.117 132.212 202.067 133.975C203.555 136.876 204.03 138.801 205.518 141.702C208.894 141.677 209.231 139.301 210.356 135.413Z" fill="#DB9669"/>
<path fill-rule="evenodd" clip-rule="evenodd" d="M183.662 88.1754C187.65 90.2884 192.714 93.0392 199.253 90.0884C201.191 85.5622 202.892 78.3728 202.792 71.9336C197.29 72.2712 192.451 73.459 186.95 73.7966C183.349 82.0488 184.362 82.974 183.662 88.1754Z" fill="#351536"/>
<path fill-rule="evenodd" clip-rule="evenodd" d="M211.106 134.563C211.306 134.663 212.269 134.763 212.469 134.775C214.857 134.175 216.27 132.412 217.07 132.3C217.708 132.2 218.933 132.5 219.396 133.4C220.359 135.238 219.083 138.801 217.245 139.527C216.108 139.964 214.595 140.739 213.744 141.315C211.069 143.09 209.843 145.666 208.055 146.091C206.055 146.553 205.442 146.091 205.017 145.153C204.179 143.328 204.517 141.69 204.742 140.277C205.342 141.452 206.893 141.54 208.906 136.988C209.156 136.413 209.331 134.875 211.119 134.588L211.106 134.563Z" fill="#2B3E78"/>
<path fill-rule="evenodd" clip-rule="evenodd" d="M219.121 133.025C219.121 133.025 220.734 133.5 220.358 136.151C220.196 137.288 219.271 139.376 215.632 141.677C211.981 143.978 210.918 146.278 210.131 147.116C209.343 147.954 206.617 148.841 205.705 147.629C205.217 146.978 205.279 145.616 205.279 145.616C206.592 145.353 206.98 143.603 207.943 142.202C208.355 141.614 210.156 140.402 210.481 139.889C213.094 135.8 215.97 132.199 219.121 133V133.025Z" fill="#B89A92"/>
<path fill-rule="evenodd" clip-rule="evenodd" d="M219.058 133.762C219.058 133.762 220.708 133.612 220.345 136.15C220.195 137.238 219.183 139.851 215.707 142.052C212.218 144.253 211.143 146.378 210.455 147.253C209.693 148.204 206.879 149.091 206.017 147.929C204.941 146.891 209.13 143.94 210.405 141.952C212.893 138.038 216.069 133 219.07 133.762H219.058Z" fill="#878787"/>
<path fill-rule="evenodd" clip-rule="evenodd" d="M210.046 136.001C210.471 134.913 211.221 134.625 211.646 134.538C211.459 134.5 211.296 134.475 211.221 134.438C209.921 134.65 209.421 135.501 209.146 136.201C209.246 136.688 209.683 136.888 210.034 136.001H210.046Z" fill="#B89A92"/>
<path fill-rule="evenodd" clip-rule="evenodd" d="M211.245 135.826C211.32 135.25 211.52 134.838 211.758 134.563C211.52 134.525 211.32 134.488 211.233 134.438C211.02 134.475 210.833 134.525 210.658 134.588C210.52 134.838 210.407 135.138 210.332 135.501C210.17 136.426 211.058 137.176 211.233 135.826H211.245Z" fill="#B89A92"/>
<path fill-rule="evenodd" clip-rule="evenodd" d="M212.258 135.688C212.233 135.263 212.283 134.925 212.383 134.638C212.108 134.613 211.733 134.563 211.47 134.513C211.37 134.8 211.308 135.138 211.32 135.55C211.345 136.488 212.37 137.051 212.27 135.688H212.258Z" fill="#B89A92"/>
<path fill-rule="evenodd" clip-rule="evenodd" d="M194.103 117.908C193.803 116.195 193.578 114.045 193.616 111.331C191.928 105.88 189.714 103.879 187.439 100.078C185.376 96.6525 185.451 92.6515 183.138 89.3756C179.237 83.9867 179.449 78.7353 182.838 73.2838C188.977 69.9455 194.291 76.2596 194.291 76.2596C196.766 81.5735 197.917 85.0119 199.129 87.6376C201.505 92.8015 202.818 103.142 203.793 104.692C204.418 105.867 204.981 107.23 204.981 108.593C205.194 110.106 204.881 114.22 205.144 116.533C205.894 122.984 207.407 130.699 209.595 134.462C204.543 135.538 204.381 139.239 204.343 141.202C201.405 134.5 195.366 124.885 194.103 117.908Z" fill="#431E44"/>
<path fill-rule="evenodd" clip-rule="evenodd" d="M188.751 30.5978C185.638 32.3607 183.175 35.7241 180.524 39.1375C178.586 41.6632 178.686 47.3022 178.774 48.0399C177.173 58.8427 184.05 66.3072 180.499 77.8853C184.038 84.2995 204.105 79.0106 203.005 72.6839C202.167 67.8451 202.155 53.5914 202.667 50.9156C203.18 48.2399 206.393 36.2868 202.867 31.3855C202.055 30.2602 200.654 29.1349 199.404 29.2724C194.928 29.7851 191.464 28.9098 188.751 30.5978Z" fill="#B89A92"/>
<path fill-rule="evenodd" clip-rule="evenodd" d="M177.472 48.9278C175.759 53.3289 174.396 61.9187 174.921 67.1826C178.109 66.7075 181.06 69.3582 181.448 66.7825C184.099 58.0802 186.062 59.2055 187.174 48.6027C190.463 42.8387 187.087 39.9254 184.274 39.4253C181.46 38.9126 178.935 40.9382 177.484 48.9278H177.472Z" fill="#F2B387"/>
<path fill-rule="evenodd" clip-rule="evenodd" d="M176.96 49.9153C179.723 52.1409 184.199 52.5285 187.362 52.4785C189 47.8647 187.988 49.015 188.613 47.7897C192.251 40.7003 188.513 37.3745 185.124 36.7618C176.81 36.0741 177.81 45.089 176.947 49.9153H176.96Z" fill="#E1C3B9"/>
<path fill-rule="evenodd" clip-rule="evenodd" d="M187.837 24.9337C187.837 24.9337 188.75 29.2349 186.286 33.4235C195.076 40.1878 200.965 38.3873 196.589 31.2729C194.514 29.8975 194.376 29.76 196.101 24.2085C196.389 22.4581 187.824 24.9212 187.824 24.9212L187.837 24.9337Z" fill="#DB9669"/>
<path fill-rule="evenodd" clip-rule="evenodd" d="M226.549 81.6861L225.474 78.9729C225.149 78.1477 224.186 78.5978 224.449 79.448L225.299 82.1863C225.561 83.0365 226.874 82.5114 226.549 81.6861Z" fill="#F2B387"/>
<path fill-rule="evenodd" clip-rule="evenodd" d="M225.208 81.8363L224.008 78.8355C223.645 77.9228 222.57 78.4229 222.87 79.3607L223.82 82.399C224.108 83.3367 225.571 82.7616 225.208 81.8488V81.8363Z" fill="#F2B387"/>
<path fill-rule="evenodd" clip-rule="evenodd" d="M223.586 81.9862L222.573 79.448C222.273 78.6728 221.373 79.0979 221.61 79.8856L222.411 82.4363C222.661 83.224 223.886 82.7489 223.573 81.9737L223.586 81.9862Z" fill="#F2B387"/>
<path fill-rule="evenodd" clip-rule="evenodd" d="M221.885 81.7612L221.322 79.5481C221.147 78.8729 220.36 79.123 220.472 79.8107L220.86 82.0238C220.985 82.7114 222.06 82.4364 221.885 81.7612Z" fill="#F2B387"/>
<path fill-rule="evenodd" clip-rule="evenodd" d="M185.049 34.2361C188.113 34.3236 194.677 44.5513 195.59 48.3398C199.341 63.8564 183.449 72.4336 180.423 71.4209C180.461 70.4331 180.561 67.5323 180.561 67.2198C205.642 59.4552 186.95 36.7867 180.173 37.5744C179.848 36.049 182.449 34.161 185.049 34.2361Z" fill="#3C3C3B"/>
<path fill-rule="evenodd" clip-rule="evenodd" d="M197.677 26.8216C204.767 34.7487 204.217 50.853 203.704 58.8551C203.679 59.3177 202.341 61.3933 202.341 61.2932C203.229 53.7913 200.778 33.0608 198.09 29.2098C198.002 27.9344 195.939 24.8711 197.677 26.8216Z" fill="#3C3C3B"/>
<path fill-rule="evenodd" clip-rule="evenodd" d="M184.875 33.4986C191.702 35.1365 195.29 43.5387 196.215 47.3272C199.966 62.8438 185.85 71.7712 180.424 71.5836C180.461 70.5959 180.461 67.095 180.461 66.7949C205.88 58.9553 187.413 35.9117 180.236 36.7745C180.974 35.3116 182.612 33.3611 184.887 33.4986H184.875Z" fill="#706F6F"/>
<path fill-rule="evenodd" clip-rule="evenodd" d="M198.49 28.4972C204.754 31.7605 205.442 56.2045 202.803 61.2183C202.341 57.2923 203.078 36.5618 198.902 30.8853C198.815 29.61 196.752 26.5467 198.49 28.4972Z" fill="#706F6F"/>
<path fill-rule="evenodd" clip-rule="evenodd" d="M177.747 68.8205C184.662 69.3831 195.114 64.4568 198.465 64.1193C199.416 64.0317 198.265 59.8806 196.115 60.4058C192.614 61.2435 189.826 61.7936 182.686 60.9809C181.123 60.8059 176.122 61.131 175.922 63.6816C175.734 66.2448 172.859 68.4079 177.747 68.808V68.8205Z" fill="#F2B387"/>
<path fill-rule="evenodd" clip-rule="evenodd" d="M198.852 60.8058C199.714 60.4807 199.952 59.0804 200.252 58.2551C200.602 57.3174 202.203 57.3174 202.465 55.9295C202.715 54.6042 198.802 57.4174 198.264 57.83C197.839 58.1551 196.664 59.6055 197.014 60.2307C197.626 61.3309 198.114 60.9183 198.852 60.8058Z" fill="#F4BA8A"/>
<path fill-rule="evenodd" clip-rule="evenodd" d="M208.155 54.2039H199.241L200.716 61.5808C200.866 62.6561 202.129 63.5063 203.842 63.5063C205.392 63.5063 206.668 62.8061 206.905 61.8809C206.918 61.8184 206.955 61.6683 206.968 61.5808L208.168 54.2039H208.155Z" fill="#EAEEF3"/>
<path fill-rule="evenodd" clip-rule="evenodd" d="M208.155 54.2039H199.24L200.528 60.6806H200.553C200.553 60.6806 200.553 60.7806 200.553 60.8306L200.591 61.0432C200.866 62.0059 202.216 62.7311 203.829 62.7311C205.342 62.7311 206.617 62.0934 207.005 61.2307L208.143 54.2039H208.155Z" fill="#76302A"/>
<path fill-rule="evenodd" clip-rule="evenodd" d="M199.366 54.8291L200.528 60.6806L200.553 60.8307L200.591 61.0432C200.866 62.006 202.216 62.7312 203.829 62.7312C204.68 62.7312 205.455 62.5311 206.042 62.206L206.768 54.8416H199.366V54.8291Z" fill="#883A2E"/>
<path fill-rule="evenodd" clip-rule="evenodd" d="M200.393 54.8291L201.293 61.9685C201.893 62.4186 202.818 62.7187 203.831 62.7187C204.294 62.7187 204.744 62.6562 205.144 62.5561L205.494 54.9916L204.031 54.8291H200.405H200.393Z" fill="#883A2E"/>
<path fill-rule="evenodd" clip-rule="evenodd" d="M203.691 49.7654C201.44 49.7654 199.54 50.6906 198.902 51.9535H198.69V52.6286C198.69 52.7037 198.677 52.7912 198.677 52.8662C198.677 54.5792 200.915 55.9795 203.678 55.9795C206.442 55.9795 208.68 54.5917 208.68 52.8662V51.9535H208.455C207.829 50.6781 205.916 49.7654 203.666 49.7654H203.691Z" fill="#EAEEF3"/>
<path fill-rule="evenodd" clip-rule="evenodd" d="M198.702 52.7412V52.8287C198.702 52.8287 198.702 52.8537 198.702 52.8787C198.865 54.5041 201.041 55.792 203.704 55.792C206.367 55.792 208.705 54.4041 208.705 52.6786C208.705 52.6411 208.705 52.6161 208.705 52.5786C208.63 54.2541 206.417 55.5919 203.704 55.5919C200.991 55.5919 198.915 54.3291 198.715 52.7287L198.702 52.7412Z" fill="#D4DAE1"/>
<path fill-rule="evenodd" clip-rule="evenodd" d="M203.691 48.615C200.928 48.615 198.69 50.0029 198.69 51.7283C198.69 53.4538 200.928 54.8416 203.691 54.8416C206.454 54.8416 208.692 53.4538 208.692 51.7283C208.692 50.0029 206.454 48.615 203.691 48.615Z" fill="url(#paint0_linear_67945_31984)"/>
<path fill-rule="evenodd" clip-rule="evenodd" d="M203.692 48.8277C201.116 48.8277 199.028 50.128 199.028 51.7285C199.028 53.3289 201.116 54.6292 203.692 54.6292V54.4417C201.279 54.4417 199.316 53.2289 199.316 51.7285C199.316 50.2281 201.266 49.0152 203.692 49.0152V48.8277ZM203.692 54.6167C206.267 54.6167 208.355 53.3164 208.355 51.716C208.355 50.1155 206.267 48.8152 203.692 48.8152V49.0027C206.105 49.0027 208.068 50.2156 208.068 51.716C208.068 53.2163 206.117 54.4292 203.692 54.4292V54.6167Z" fill="#F0F2F4"/>
<path fill-rule="evenodd" clip-rule="evenodd" d="M203.693 49.6404C201.843 49.6404 200.33 50.5781 200.33 51.7284C200.33 52.8787 201.83 53.8165 203.693 53.8165C205.556 53.8165 207.057 52.8787 207.057 51.7284C207.057 50.5781 205.556 49.6404 203.693 49.6404Z" fill="#EAEEF3"/>
<path fill-rule="evenodd" clip-rule="evenodd" d="M203.69 50.1655C201.977 50.1655 200.564 50.9532 200.352 51.991C200.564 53.0163 201.977 53.8165 203.69 53.8165C205.403 53.8165 206.816 53.0288 207.028 51.991C206.816 50.9657 205.403 50.1655 203.69 50.1655Z" fill="#F0F2F4"/>
<path fill-rule="evenodd" clip-rule="evenodd" d="M203.691 50.7905C202.541 50.7905 201.603 51.3657 201.603 52.0909C201.603 52.8161 202.541 53.3912 203.691 53.3912C204.842 53.3912 205.779 52.8161 205.779 52.0909C205.779 51.3657 204.842 50.7905 203.691 50.7905Z" fill="#EAEEF3"/>
<path fill-rule="evenodd" clip-rule="evenodd" d="M203.691 50.428C202.541 50.428 201.603 51.0031 201.603 51.7283C201.603 52.4535 202.541 53.0287 203.691 53.0287C204.842 53.0287 205.779 52.4535 205.779 51.7283C205.779 51.0031 204.842 50.428 203.691 50.428Z" fill="url(#paint1_linear_67945_31984)"/>
<path fill-rule="evenodd" clip-rule="evenodd" d="M201.944 53.6537C201.581 53.5162 201.269 53.3662 201.044 53.1911C200.794 53.0036 200.406 53.4162 200.694 53.5537C200.994 53.7037 201.294 53.8663 201.594 54.0163C201.881 54.1664 202.244 53.7538 201.944 53.6537Z" fill="#D4DAE1"/>
<path fill-rule="evenodd" clip-rule="evenodd" d="M201.953 53.7413C201.578 53.6038 201.253 53.4537 201.053 53.2787C200.878 53.1286 200.628 53.3287 200.603 53.4662C200.616 53.4912 200.653 53.5287 200.691 53.5412C200.903 53.7163 201.216 53.8663 201.591 54.0039C201.803 54.0789 202.016 53.9539 202.041 53.8163C202.029 53.7913 202.004 53.7538 201.953 53.7413Z" fill="#A2B1BD"/>
<path fill-rule="evenodd" clip-rule="evenodd" d="M200.19 57.6922C200.102 56.7044 200.49 56.0293 201.053 56.1543C201.165 56.4044 201.24 56.6419 201.278 56.8545V57.6297C201.265 57.7047 201.253 57.7922 201.228 57.8798C201.203 57.9673 201.19 58.0298 201.165 58.1048C201.053 58.5174 200.94 58.905 201.24 59.7552C200.715 59.4677 200.265 58.6049 200.19 57.6922ZM201.278 59.2176V58.5424C201.24 58.73 201.228 58.9425 201.278 59.2176ZM201.278 56.8545V56.942C201.315 57.1671 201.315 57.3921 201.278 57.6297V56.8545ZM201.278 56.2418C201.378 56.5169 201.453 56.7545 201.478 56.992C201.528 57.3296 201.49 57.6547 201.415 58.0173C201.403 58.0923 201.378 58.1798 201.353 58.2549C201.328 58.3549 201.303 58.4549 201.278 58.5549V59.2301C201.303 59.4052 201.365 59.6052 201.453 59.8553C202.028 59.9928 202.428 59.3176 202.341 58.3174C202.266 57.4046 201.803 56.5419 201.278 56.2543V56.2418Z" fill="#DACFB0"/>
<path fill-rule="evenodd" clip-rule="evenodd" d="M196.715 63.9317C195.815 63.7942 194.177 61.481 195.34 60.9559C196.24 60.3057 199.741 57.8301 200.016 57.705C200.479 57.4925 200.791 57.38 201.279 57.2174C201.967 56.9924 202.254 57.0174 202.967 57.2174C203.567 57.355 205.293 57.6925 205.818 57.8551C206.73 58.2552 207.993 58.6303 208.743 59.1804C208.693 59.3805 208.506 59.7306 208.268 59.8056C208.568 60.0057 209.156 60.2182 209.043 60.4558C208.706 61.0934 207.943 60.9559 207.943 60.9559L208.318 61.1059C208.081 61.8436 207.493 61.9437 207.093 61.9562C206.693 61.9562 205.418 61.7061 205.017 61.6936C204.042 61.6686 201.779 61.6061 204.08 61.8436C205.08 61.9312 206.468 62.2938 206.093 62.6939C205.43 63.394 204.78 62.8189 203.767 62.8314C202.879 62.8314 200.929 63.1065 200.079 63.5441C198.228 64.5068 197.978 64.1442 196.74 63.9442L196.715 63.9317Z" fill="#F1B287"/>
<path fill-rule="evenodd" clip-rule="evenodd" d="M201.09 19.5573C201.04 20.3075 200.14 20.4075 201.228 23.5083C201.903 25.4213 201.578 25.4463 200.715 28.6972C200.228 30.5352 199.065 34.4362 193.463 31.0103C193.463 31.0103 188.062 26.4341 186.624 22.6956C185.186 18.9571 185.574 15.3687 188.674 12.6179C188.099 12.6179 199.865 8.56687 201.078 19.5448L201.09 19.5573Z" fill="#F2B387"/>
<path fill-rule="evenodd" clip-rule="evenodd" d="M200.677 15.4938C200.54 16.5191 200.04 17.1442 199.302 17.5443C197.189 17.3818 196.564 16.9817 193.901 18.0195C192 18.7697 194.038 20.1825 193.125 21.3828C192.763 21.858 191.275 23.0458 191.488 23.871L190.1 23.3209C188.512 20.9077 188.187 23.771 187.987 27.8095C187.987 27.8095 182.823 19.7199 185.136 15.1437C186.649 12.1429 189.362 9.37968 196.651 12.1304C197.914 12.6055 200.89 14.0934 200.702 15.5063L200.677 15.4938Z" fill="#704321"/>
<path fill-rule="evenodd" clip-rule="evenodd" d="M188.776 22.0831C187.538 22.3207 187.425 23.3835 187.625 24.7088C187.825 26.0342 188.913 27.8596 189.626 27.197C190.489 26.4093 188.913 25.634 189.213 24.5588C189.376 23.9711 190.189 23.646 190.414 23.5835C191.026 23.4085 190.013 21.8455 188.788 22.0831H188.776Z" fill="#F1B287"/>
</g>
<defs>
<linearGradient id="paint0_linear_67945_31984" x1="203.691" y1="48.615" x2="203.691" y2="54.8291" gradientUnits="userSpaceOnUse">
<stop stop-color="#F9F9FB"/>
<stop offset="1" stop-color="white"/>
</linearGradient>
<linearGradient id="paint1_linear_67945_31984" x1="203.691" y1="50.428" x2="203.691" y2="53.0162" gradientUnits="userSpaceOnUse">
<stop stop-color="#F9F9FB"/>
<stop offset="1" stop-color="white"/>
</linearGradient>
<clipPath id="clip0_67945_31984">
<rect width="96" height="152" fill="white" transform="matrix(-1 0 0 1 96.5 4)"/>
</clipPath>
<clipPath id="clip1_67945_31984">
<rect width="89" height="149" fill="white" transform="matrix(-1 0 0 1 244.5 11)"/>
</clipPath>
</defs>
</svg>
