<svg width="193" height="160" viewBox="0 0 193 160" fill="none" xmlns="http://www.w3.org/2000/svg">
<g clip-path="url(#clip0_57786_48925)">
<path d="M0.476562 80.8075V58.5664H22.758L16.0988 65.2175H7.13568V74.1565L0.476562 80.8075Z" fill="#AAD1E6"/>
<path d="M24.4755 91.4768H33.4254V82.5378L40.0845 75.8867V98.1278H17.8164L24.4755 91.4768Z" fill="#004F79"/>
<path d="M7.13567 81.6836V91.4739H16.9379L10.2788 98.125H0.476562V88.3346L7.13567 81.6836Z" fill="#0077B6"/>
<path d="M24.4755 91.4766L17.8164 98.1276H26.7663V91.4766H24.4755Z" fill="#0077B6"/>
<path d="M7.13567 71.8672H0.476562V80.8062L7.13567 74.1551V71.8672Z" fill="#0077B6"/>
<path d="M30.2831 58.5664L23.624 65.2175V75.0078H33.4262L40.0853 68.3567V58.5664H30.2831Z" fill="#CD5038"/>
<path d="M192.392 38.0099H191.513V13.9341C191.513 10.2385 190.045 6.69434 187.432 4.08119C184.819 1.46805 181.274 0 177.579 0H126.571C122.875 0 119.331 1.46805 116.718 4.08119C114.105 6.69434 112.637 10.2385 112.637 13.9341V146.016C112.637 149.712 114.105 153.256 116.718 155.869C119.331 158.482 122.875 159.95 126.571 159.95H177.579C181.274 159.95 184.819 158.482 187.432 155.869C190.045 153.256 191.513 149.712 191.513 146.016V55.1475H192.392V38.0099Z" fill="#E6E6E6"/>
<path d="M178.141 3.625H171.483C171.789 4.37574 171.906 5.19031 171.824 5.99693C171.741 6.80355 171.461 7.57746 171.009 8.25046C170.557 8.92346 169.946 9.4749 169.23 9.85618C168.515 10.2375 167.716 10.4369 166.906 10.4369H137.684C136.873 10.4368 136.075 10.2373 135.359 9.85609C134.644 9.47483 134.033 8.92346 133.581 8.25055C133.129 7.57765 132.849 6.80385 132.766 5.99734C132.683 5.19083 132.8 4.37635 133.106 3.62566H126.887C124.127 3.62566 121.48 4.72202 119.528 6.67355C117.577 8.62508 116.48 11.2719 116.48 14.0318V145.92C116.48 148.679 117.577 151.326 119.528 153.278C121.48 155.229 124.127 156.326 126.887 156.326H178.139C180.899 156.326 183.546 155.229 185.498 153.278C187.449 151.326 188.546 148.679 188.546 145.92V14.0312C188.546 11.2713 187.449 8.62442 185.498 6.67289C183.546 4.72136 180.899 3.625 178.139 3.625H178.141Z" fill="white"/>
<path d="M184.317 107.212H122.863C122.561 107.211 122.272 107.091 122.058 106.878C121.845 106.665 121.725 106.375 121.725 106.074V90.8294C121.725 90.5277 121.845 90.2385 122.058 90.0251C122.272 89.8118 122.561 89.6918 122.863 89.6914H184.317C184.619 89.6918 184.908 89.8118 185.122 90.0251C185.335 90.2385 185.455 90.5277 185.455 90.8294V106.074C185.455 106.375 185.335 106.665 185.122 106.878C184.908 107.091 184.619 107.211 184.317 107.212ZM122.863 90.1466C122.682 90.1467 122.508 90.2187 122.38 90.3468C122.252 90.4748 122.18 90.6484 122.18 90.8294V106.074C122.18 106.255 122.252 106.428 122.38 106.556C122.508 106.685 122.682 106.757 122.863 106.757H184.317C184.498 106.757 184.672 106.685 184.8 106.556C184.928 106.428 185 106.255 185 106.074V90.8294C185 90.6484 184.928 90.4748 184.8 90.3468C184.672 90.2187 184.498 90.1467 184.317 90.1466H122.863Z" fill="#CCCCCC"/>
<path d="M130.829 103.231C133.468 103.231 135.608 101.091 135.608 98.4517C135.608 95.8119 133.468 93.6719 130.829 93.6719C128.189 93.6719 126.049 95.8119 126.049 98.4517C126.049 101.091 128.189 103.231 130.829 103.231Z" fill="#CCCCCC"/>
<path d="M141.869 95.2657C141.763 95.264 141.658 95.2833 141.56 95.3225C141.461 95.3618 141.372 95.4202 141.297 95.4943C141.221 95.5685 141.161 95.6569 141.121 95.7544C141.08 95.8519 141.059 95.9566 141.059 96.0623C141.059 96.1681 141.08 96.2727 141.121 96.3703C141.161 96.4678 141.221 96.5562 141.297 96.6303C141.372 96.7045 141.461 96.7629 141.56 96.8021C141.658 96.8414 141.763 96.8607 141.869 96.8589H179.425C179.53 96.8609 179.634 96.8422 179.732 96.8039C179.829 96.7656 179.918 96.7084 179.994 96.6356C180.069 96.5628 180.129 96.4759 180.171 96.3798C180.213 96.2836 180.235 96.1802 180.237 96.0754C180.239 95.9707 180.22 95.8666 180.181 95.7691C180.143 95.6717 180.085 95.5828 180.012 95.5076C179.939 95.4324 179.852 95.3723 179.756 95.3308C179.66 95.2893 179.556 95.2672 179.451 95.2657H141.869H141.869Z" fill="#E6E6E6"/>
<path d="M141.868 100.047C141.657 100.047 141.454 100.131 141.305 100.28C141.155 100.43 141.071 100.632 141.071 100.844C141.071 101.055 141.155 101.258 141.305 101.407C141.454 101.556 141.657 101.64 141.868 101.64H179.425C179.529 101.642 179.634 101.624 179.731 101.585C179.829 101.547 179.918 101.49 179.993 101.417C180.069 101.344 180.129 101.257 180.171 101.161C180.212 101.065 180.235 100.962 180.236 100.857C180.238 100.752 180.219 100.648 180.181 100.55C180.142 100.453 180.085 100.364 180.012 100.289C179.939 100.214 179.852 100.154 179.755 100.112C179.659 100.071 179.556 100.049 179.451 100.047H141.868L141.868 100.047Z" fill="#E6E6E6"/>
<path d="M184.317 132.704H122.863C122.561 132.703 122.272 132.583 122.058 132.37C121.845 132.157 121.725 131.868 121.725 131.566V116.322C121.725 116.02 121.845 115.731 122.058 115.517C122.272 115.304 122.561 115.184 122.863 115.184H184.317C184.619 115.184 184.908 115.304 185.122 115.517C185.335 115.731 185.455 116.02 185.455 116.322V131.566C185.455 131.868 185.335 132.157 185.122 132.37C184.908 132.583 184.619 132.703 184.317 132.704ZM122.863 115.639C122.682 115.639 122.508 115.711 122.38 115.839C122.252 115.967 122.18 116.141 122.18 116.322V131.566C122.18 131.747 122.252 131.921 122.38 132.049C122.508 132.177 122.682 132.249 122.863 132.249H184.317C184.498 132.249 184.672 132.177 184.8 132.049C184.928 131.921 185 131.747 185 131.566V116.322C185 116.141 184.928 115.967 184.8 115.839C184.672 115.711 184.498 115.639 184.317 115.639H122.863Z" fill="#CCCCCC"/>
<path d="M130.829 128.724C133.468 128.724 135.608 126.584 135.608 123.944C135.608 121.304 133.468 119.164 130.829 119.164C128.189 119.164 126.049 121.304 126.049 123.944C126.049 126.584 128.189 128.724 130.829 128.724Z" fill="#CCCCCC"/>
<path d="M141.868 120.758C141.657 120.758 141.454 120.842 141.305 120.991C141.155 121.141 141.071 121.343 141.071 121.555C141.071 121.766 141.155 121.968 141.305 122.118C141.454 122.267 141.657 122.351 141.868 122.351H179.425C179.529 122.353 179.634 122.335 179.731 122.296C179.829 122.258 179.918 122.201 179.993 122.128C180.069 122.055 180.129 121.968 180.171 121.872C180.212 121.776 180.235 121.673 180.236 121.568C180.238 121.463 180.219 121.359 180.181 121.261C180.142 121.164 180.085 121.075 180.012 121C179.939 120.925 179.852 120.865 179.755 120.823C179.659 120.782 179.556 120.759 179.451 120.758H141.868L141.868 120.758Z" fill="#E6E6E6"/>
<path d="M141.868 125.539C141.657 125.539 141.454 125.623 141.305 125.772C141.155 125.922 141.071 126.124 141.071 126.336C141.071 126.547 141.155 126.75 141.305 126.899C141.454 127.049 141.657 127.132 141.868 127.132H179.425C179.529 127.134 179.634 127.116 179.731 127.077C179.829 127.039 179.918 126.982 179.993 126.909C180.069 126.836 180.129 126.749 180.171 126.653C180.212 126.557 180.235 126.454 180.236 126.349C180.238 126.244 180.219 126.14 180.181 126.043C180.142 125.945 180.085 125.856 180.012 125.781C179.939 125.706 179.852 125.646 179.755 125.604C179.659 125.563 179.556 125.541 179.451 125.539H141.868L141.868 125.539Z" fill="#E6E6E6"/>
<path d="M164.125 72.5732C160.659 74.775 156.644 75.9757 152.529 76.0407C148.414 76.1057 144.363 75.0323 140.828 72.9409C141.45 71.7925 142.238 70.7406 143.167 69.8186C144.6 68.3898 146.344 67.306 148.265 66.6505C150.186 65.9949 152.233 65.7851 154.249 66.037C156.265 66.2889 158.195 66.996 159.893 68.1038C161.59 69.2116 163.009 70.6907 164.04 72.4275C164.067 72.4744 164.097 72.5238 164.125 72.5732Z" fill="#006399"/>
<path d="M151.597 60.6577C157.666 60.6577 162.586 55.7378 162.586 49.6687C162.586 43.5996 157.666 38.6797 151.597 38.6797C145.528 38.6797 140.608 43.5996 140.608 49.6687C140.608 55.7378 145.528 60.6577 151.597 60.6577Z" fill="#2F2E41"/>
<path d="M158.68 57.4324C160.853 53.4621 159.392 48.484 155.417 46.3136C151.443 44.1432 146.459 45.6024 144.286 49.5727C142.113 53.5431 143.574 58.5212 147.549 60.6916C151.524 62.862 156.507 61.4028 158.68 57.4324Z" fill="#FFB8B8"/>
<path d="M143.905 48.3132C145.786 49.5945 148.017 50.2763 150.301 50.2673C149.486 50.8257 148.559 51.2029 147.583 51.3729C150.619 52.0168 153.757 52.0342 156.8 51.4241C157.476 51.3169 158.129 51.0952 158.73 50.7689C159.029 50.6037 159.289 50.3781 159.495 50.1068C159.7 49.8355 159.845 49.5245 159.921 49.1941C160.123 48.0519 159.223 47.0142 158.287 46.3148C156.855 45.2604 155.203 44.5339 153.452 44.188C151.701 43.842 149.894 43.8852 148.162 44.3144C147.031 44.6035 145.898 45.0919 145.163 45.9899C144.428 46.888 144.211 48.2725 144.911 49.1972L143.905 48.3132Z" fill="#2F2E41"/>
<path d="M152.258 31.4297C146.314 31.4363 140.616 33.8 136.413 38.0024C132.211 42.2047 129.846 47.9025 129.839 53.8459C129.84 55.659 130.063 57.4651 130.503 59.224C130.549 59.4048 130.594 59.5856 130.643 59.7637C131.936 64.5047 134.753 68.6888 138.659 71.6708C142.565 74.6528 147.344 76.2671 152.258 76.2649C157.173 76.2647 161.952 74.6498 165.86 71.6684C169.768 68.687 172.588 64.5043 173.886 59.7637C173.935 59.5829 173.981 59.4048 174.024 59.224C174.837 55.9218 174.888 52.478 174.174 49.1529C173.46 45.8279 172 42.7087 169.903 40.0312C167.806 37.3537 165.128 35.188 162.071 33.6978C159.014 32.2077 155.659 31.4321 152.258 31.4297ZM173.511 59.224C173.468 59.4048 173.419 59.5856 173.368 59.7637C172.458 63.0062 170.812 65.9955 168.56 68.4997C166.308 71.004 163.51 72.9558 160.382 74.204C157.253 75.4522 153.88 75.9631 150.522 75.6971C147.165 75.4312 143.914 74.3955 141.021 72.6705C136.214 69.7775 132.688 65.1626 131.161 59.7637C131.11 59.5829 131.061 59.4048 131.015 59.224C130.566 57.4667 130.338 55.6599 130.338 53.8459C130.342 50.7409 131.005 47.6721 132.284 44.8426C133.563 42.0132 135.428 39.4879 137.757 37.4338C140.085 35.3797 142.823 33.8437 145.79 32.9277C148.757 32.0117 151.885 31.7365 154.966 32.1203C158.047 32.5041 161.012 33.5382 163.663 35.1541C166.314 36.77 168.592 38.9308 170.346 41.4934C172.099 44.056 173.288 46.9618 173.834 50.0185C174.379 53.0752 174.269 56.213 173.511 59.224Z" fill="#3F3D56"/>
<line x1="40.4766" y1="79.5" x2="112.477" y2="79.5" stroke="black" stroke-dasharray="2 2"/>
<circle cx="74.4766" cy="79" r="15.5" fill="#F8FDFF" stroke="black"/>
<path d="M78.3791 76.3998V73.3783C78.3796 72.8035 78.2669 72.2342 78.0476 71.703C77.8284 71.1719 77.5068 70.6892 77.1012 70.2826C76.6956 69.876 76.2141 69.5534 75.684 69.3333C75.154 69.1133 74.5859 69 74.0121 69C73.4384 69 72.8702 69.1133 72.3402 69.3333C71.8101 69.5534 71.3286 69.876 70.923 70.2826C70.5175 70.6892 70.1959 71.1719 69.9766 71.703C69.7573 72.2342 69.6447 72.8035 69.6451 73.3783V76.3998C69.0613 76.4261 68.5102 76.6769 68.1063 77.1C67.7024 77.523 67.4769 78.0858 67.4766 78.6712V85.8113H80.5476V78.6712C80.5474 78.0858 80.3218 77.523 79.9179 77.1C79.514 76.6769 78.9629 76.4261 78.3791 76.3998ZM74.0121 70.5436C74.7622 70.5445 75.4814 70.8434 76.0118 71.3749C76.5422 71.9063 76.8406 72.6268 76.8414 73.3783V76.3945H71.1828V73.3783C71.1837 72.6268 71.482 71.9063 72.0124 71.3749C72.5428 70.8434 73.262 70.5445 74.0121 70.5436Z" fill="black"/>
<path d="M75.2082 80.3767C75.2083 80.1737 75.156 79.9742 75.0564 79.7975C74.9568 79.6208 74.8132 79.4729 74.6397 79.3681C74.4662 79.2634 74.2686 79.2053 74.0661 79.1997C73.8636 79.194 73.6631 79.2409 73.484 79.3358C73.3049 79.4307 73.1534 79.5703 73.0441 79.7412C72.9348 79.9121 72.8714 80.1084 72.8602 80.311C72.849 80.5137 72.8902 80.7158 72.98 80.8977C73.0697 81.0797 73.2049 81.2353 73.3724 81.3495V83.908H74.6941V81.3495C74.8525 81.2417 74.9822 81.0967 75.0718 80.9271C75.1614 80.7575 75.2083 80.5686 75.2082 80.3767Z" fill="#F8FDFF"/>
<path d="M92.7308 51.4995L88.4766 55.7305L138.11 105.092L142.364 100.861L92.7308 51.4995Z" fill="#FFB4A5"/>
<path d="M142.731 55.9614L138.477 51.7305L88.8434 101.092L93.0976 105.323L142.731 55.9614Z" fill="#FFB4A5"/>
</g>
<defs>
<clipPath id="clip0_57786_48925">
<rect width="192" height="160" fill="white" transform="translate(0.476562)"/>
</clipPath>
</defs>
</svg>
