<svg width="261" height="160" viewBox="0 0 261 160" fill="none" xmlns="http://www.w3.org/2000/svg">
<path d="M64.5001 10.6665C35.0068 10.6665 11.1667 34.5065 11.1667 63.9998C11.1667 93.4932 35.0068 117.333 64.5001 117.333C93.9934 117.333 117.833 93.4932 117.833 63.9998C117.833 34.5065 93.9934 10.6665 64.5001 10.6665ZM64.5001 106.667C40.9801 106.667 21.8334 87.5198 21.8334 63.9998C21.8334 40.4798 40.9801 21.3332 64.5001 21.3332C88.0201 21.3332 107.167 40.4798 107.167 63.9998C107.167 87.5198 88.0201 106.667 64.5001 106.667ZM83.6468 37.3332L64.5001 56.4798L45.3534 37.3332L37.8334 44.8532L56.9801 63.9998L37.8334 83.1465L45.3534 90.6665L64.5001 71.5198L83.6468 90.6665L91.1668 83.1465L72.0201 63.9998L91.1668 44.8532L83.6468 37.3332Z" fill="#F55C5C"/>
<g clip-path="url(#clip0_67956_28014)">
<path d="M228.793 137.927C228.793 138.037 228.786 138.151 228.776 138.265C228.769 138.319 228.765 138.368 228.754 138.422C228.722 138.625 228.672 138.821 228.601 139.016C228.277 139.921 227.554 140.733 226.507 141.349L196.2 158.844C195.605 159.186 194.626 159.578 193.967 159.709C193.469 159.848 192.6 159.948 191.841 159.948C190.566 159.948 189.416 159.688 188.458 159.143L155.765 140.266C154.921 139.786 154.305 139.113 154.006 138.358C153.913 138.126 153.853 137.888 153.821 137.642C153.806 137.539 153.799 137.421 153.799 137.297C153.799 136.435 154.184 135.096 156.171 133.931L186.464 116.44C187.671 115.735 189.249 115.329 190.798 115.329C192.105 115.329 193.287 115.607 194.213 116.134L226.91 135.01C228.124 135.701 228.793 136.752 228.793 137.927Z" fill="#C2C7CF"/>
<path d="M206.816 143.279L216.249 137.834L220.573 93.9204L206.845 100.487L201.119 139.789L206.816 143.279Z" fill="#410005"/>
<path d="M192.544 100.301V154.211C191.561 154.471 190.478 154.475 189.617 154.211C189.389 154.143 189.175 154.051 188.983 153.944L181.968 149.867L181.109 125.862L169.44 119.125L170.113 142.973L162.924 138.796C162.418 138.507 162.144 138.13 162.094 137.727L155.841 80.3884C155.901 80.887 156.325 81.4033 156.948 81.7594L188.392 99.9133C188.758 100.123 189.2 100.273 189.617 100.358C190.82 100.629 192.327 100.39 192.547 100.301H192.544Z" fill="#F55C5C"/>
<path d="M192.542 100.301V154.211C191.559 154.471 190.477 154.474 189.615 154.211V100.358C190.519 100.547 191.563 100.526 192.542 100.301Z" fill="#FFDAD7"/>
<path d="M224.849 81.0687L223.044 95.2557C209.06 103.613 207.981 145.359 207.981 145.359L193.769 153.709C193.402 153.926 192.982 154.094 192.54 154.208V100.298C192.644 100.298 193.577 100.038 194.296 99.6214C194.303 99.6179 223.428 82.8029 223.428 82.8029C224.258 82.3151 224.76 81.6848 224.849 81.0652V81.0687Z" fill="#F55C5C"/>
<path d="M209.735 140.128C209.735 136.442 212.324 131.962 215.515 130.118C218.705 128.277 221.294 129.769 221.294 133.454C221.294 137.14 218.705 141.62 215.515 143.464C212.324 145.305 209.735 143.813 209.735 140.128Z" fill="#191C20"/>
<path d="M219.6 129.712L211.427 143.867L212.898 144.716L221.071 130.561L219.6 129.712Z" fill="#191C20"/>
<path d="M211.206 140.975C211.206 137.289 213.795 132.81 216.986 130.965C220.176 129.124 222.765 130.616 222.765 134.302C222.765 137.987 220.176 142.467 216.986 144.312C213.795 146.156 211.206 144.661 211.206 140.975Z" fill="#2D3135"/>
<path d="M213.283 139.775C213.283 137.414 214.939 134.548 216.983 133.365C219.027 132.187 220.683 133.141 220.683 135.502C220.683 137.863 219.027 140.729 216.983 141.912C214.939 143.094 213.283 142.136 213.283 139.775Z" fill="#42474E"/>
<path d="M181.854 146.637L173.19 141.63L170.11 142.976L169.44 119.128L181.109 125.866L181.854 146.637Z" fill="#F55C5C"/>
<path d="M173.19 141.63L170.11 142.976L169.44 119.128L170.776 119.897L173.19 141.63Z" fill="#410005"/>
<path d="M224.855 81.0258C224.855 81.0258 224.855 81.0543 224.848 81.0685C224.759 81.6881 224.261 82.3184 223.427 82.8063L194.302 99.6212C193.572 100.041 192.643 100.301 192.54 100.301C192.397 100.358 190.891 100.647 189.612 100.358C189.185 100.273 188.747 100.12 188.384 99.9132L156.941 81.7594C156.317 81.4033 155.894 80.8869 155.833 80.3884C155.744 79.6726 156.314 78.9426 157.343 78.3408L186.475 61.5223C188.217 60.5003 190.862 60.3721 192.386 61.2339L223.83 79.3878C224.606 79.8293 224.923 80.4204 224.855 81.0222V81.0258Z" fill="#FFDAD7"/>
<path d="M191.522 100.462C191.091 100.497 190.66 100.497 190.247 100.458C190.66 100.497 191.091 100.501 191.522 100.462Z" fill="#0D4A73"/>
<path d="M181.327 133.166L170.031 126.642C169.736 126.471 169.632 126.094 169.803 125.798C169.974 125.503 170.352 125.399 170.651 125.57L181.284 131.709L181.327 133.166Z" fill="#42474E"/>
<path d="M226.416 80.8514C226.416 82.9452 226.43 83.1197 226.377 83.3903C226.206 84.4871 225.437 85.4877 224.215 86.2035L195.065 103.033C194.492 103.36 193.552 103.738 192.918 103.866C192.437 103.998 191.604 104.094 190.87 104.094C189.646 104.094 188.538 103.845 187.616 103.318L156.169 85.1601C155.104 84.5548 154.42 83.6325 154.299 82.639C154.271 82.4182 154.278 82.4965 154.278 80.2424C154.278 80.3635 154.285 80.4739 154.299 80.5772C154.328 80.8122 154.388 81.0401 154.477 81.2644C154.766 81.9873 155.357 82.6354 156.169 83.0983L187.616 101.256C188.534 101.783 189.642 102.032 190.87 102.032C191.6 102.032 192.437 101.936 192.918 101.804C193.552 101.676 194.492 101.302 195.065 100.971L224.215 84.1417C225.223 83.5506 225.918 82.7707 226.231 81.8983C226.299 81.7131 226.348 81.5208 226.377 81.325C226.388 81.2751 226.391 81.2253 226.398 81.1754C226.409 81.065 226.416 80.9582 226.416 80.8514Z" fill="#410005"/>
<path d="M226.415 80.8516C226.415 80.9584 226.408 81.0688 226.398 81.1756C226.394 81.2255 226.387 81.2753 226.376 81.3252C226.344 81.5175 226.298 81.7098 226.23 81.8985C225.92 82.7674 225.222 83.5508 224.215 84.1419L195.065 100.971C194.491 101.299 193.551 101.676 192.917 101.804C192.437 101.936 191.603 102.032 190.87 102.032C189.645 102.032 188.537 101.783 187.615 101.256L156.168 83.0985C155.356 82.6356 154.765 81.9875 154.477 81.2646C154.387 81.0403 154.327 80.8124 154.298 80.5774C154.288 80.4777 154.277 80.3673 154.277 80.2426C154.277 79.4129 154.647 78.1274 156.56 77.0057L185.699 60.1801C186.86 59.5 188.381 59.1118 189.865 59.1118C191.123 59.1118 192.258 59.3789 193.152 59.8881L224.603 78.0455C225.771 78.7114 226.415 79.7192 226.415 80.8516Z" fill="#FFDAD7"/>
<path d="M221.917 83.0131C221.764 83.1484 221.582 83.2766 221.379 83.3941L194.045 99.1764C193.173 99.6785 192.09 99.9705 190.869 99.9705C190.132 99.9705 189.274 99.8316 188.64 99.4684L188.077 99.1443L157.2 81.3181C157.15 81.2896 157.104 81.2611 157.057 81.229C157.218 81.1009 157.399 80.9762 157.606 80.8552L184.947 65.0693C185.805 64.5672 186.945 64.2788 188.077 64.2788C188.964 64.2788 189.768 64.4569 190.342 64.7845L221.782 82.9348C221.824 82.9597 221.871 82.9846 221.913 83.0167L221.917 83.0131Z" fill="#F55C5C"/>
<path d="M188.08 62.2133V99.1406L157.203 81.3143C157.153 81.2859 157.106 81.2574 157.06 81.2253C156.658 80.9618 156.387 80.62 156.352 80.328C156.295 79.8579 156.765 79.2846 157.609 78.7861L184.95 63.0003C185.808 62.4982 186.947 62.2097 188.08 62.2097V62.2133Z" fill="#410005"/>
<path d="M222.554 81.9981V82.0265C222.504 82.3577 222.279 82.7031 221.916 83.0129C221.874 82.9844 221.827 82.956 221.784 82.931L190.345 64.7807C189.771 64.4531 188.967 64.2751 188.08 64.2751C186.947 64.2751 185.804 64.5635 184.95 65.0656L157.609 80.8514C157.402 80.9725 157.22 81.0971 157.06 81.2253C156.658 80.9618 156.387 80.62 156.352 80.328C156.295 79.8579 156.765 79.2846 157.609 78.7861L184.95 63.0003C185.808 62.4982 186.947 62.2097 188.08 62.2097C188.967 62.2097 189.771 62.3878 190.345 62.7154L221.784 80.8657C222.173 81.0864 222.618 81.4604 222.554 81.9945V81.9981Z" fill="#410005"/>
<path d="M198.38 65.8346C198.643 65.6673 198.857 65.3254 198.957 64.8589L199.117 64.0898L199.644 61.59L191.756 57.064L191.069 60.3329C191.055 60.397 191.044 60.4647 191.037 60.5324C190.937 61.3229 191.219 62.1419 191.707 62.4232L196.977 65.4465L197.678 65.8489C197.917 65.9878 198.166 65.97 198.383 65.8346H198.38Z" fill="#FFDAD7"/>
<path d="M198.38 65.8348L199.989 64.8163C200.253 64.649 200.466 64.3071 200.566 63.8406L201.253 60.5717L193.366 56.0457L191.756 57.0641L199.644 61.5901L199.117 64.0899L198.956 64.8591C198.86 65.3256 198.643 65.6674 198.38 65.8348Z" fill="#410005"/>
<path d="M217.07 74.488C216.96 74.488 216.849 74.4595 216.746 74.4025L199.547 64.6882C199.23 64.5066 199.116 64.1042 199.297 63.7873C199.479 63.4704 199.881 63.3564 200.198 63.538L217.398 73.2523C217.715 73.434 217.829 73.8363 217.647 74.1533C217.526 74.3705 217.302 74.4916 217.07 74.4916V74.488Z" fill="#42474E"/>
<path d="M222.447 79.6479C222.71 79.4805 222.924 79.1387 223.024 78.6722L223.184 77.903L223.711 75.4032L215.824 70.8772L215.136 74.1462C215.122 74.2103 215.111 74.2779 215.104 74.3456C215.004 75.1361 215.286 75.9551 215.774 76.2365L221.044 79.2597L221.745 79.6621C221.984 79.801 222.233 79.7832 222.451 79.6479H222.447Z" fill="#FFDAD7"/>
<path d="M222.449 79.6478L224.059 78.6293C224.322 78.462 224.536 78.1201 224.636 77.6536L225.323 74.3846L217.435 69.8586L215.826 70.8771L223.713 75.4031L223.186 77.9029L223.026 78.6721C222.93 79.1385 222.713 79.4804 222.449 79.6478Z" fill="#410005"/>
<path d="M229.723 74.9439C229.513 75.4068 229.228 75.8769 228.911 76.3184C228.562 76.8063 228.181 77.2443 227.836 77.5719C227.401 77.985 227.027 78.2164 226.86 78.1203C226.796 78.0847 226.764 77.9992 226.764 77.8639C226.771 77.6111 226.807 77.3155 226.878 76.9736L234.805 39.3234L236.824 36.0295C237.39 48.0799 235.346 62.5374 229.723 74.9474V74.9439Z" fill="#F55C5C"/>
<path d="M236.638 38.1767C236.791 37.4396 236.877 36.3321 236.799 35.6733C236.777 35.1463 236.606 34.3237 236.364 33.6578C235.962 32.5397 235.339 31.6922 234.491 31.2007L205.305 14.4428C204.326 13.8695 203.144 13.8517 202.072 14.3965C201.83 14.5176 202.225 14.2647 199.885 15.7426C200.014 15.6642 200.131 15.5966 200.238 15.5431C200.491 15.4149 200.751 15.3188 201.011 15.2547C201.858 15.041 202.724 15.155 203.471 15.593L232.661 32.3438C233.508 32.8352 234.131 33.6827 234.534 34.8009C234.772 35.4668 234.947 36.2929 234.968 36.8164C235.043 37.4752 234.961 38.5826 234.808 39.3198L236.642 38.1731L236.638 38.1767Z" fill="#F55C5C"/>
<path d="M226.86 78.1166L189.943 56.9288C189.915 56.9145 189.9 56.9003 189.89 56.886C189.858 56.8469 189.84 56.7899 189.836 56.7151C189.836 56.7009 189.836 56.6831 189.836 56.6653C189.843 56.4445 189.868 56.1917 189.922 55.9032C189.929 55.8605 189.936 55.8178 189.947 55.775L197.731 18.805C197.877 18.1106 198.204 17.4019 198.703 16.793C199.038 16.3871 199.429 16.0274 199.885 15.739C200.01 15.6606 200.131 15.593 200.238 15.5396C200.494 15.4114 200.751 15.3152 201.011 15.2511C201.858 15.0375 202.723 15.1514 203.471 15.5894L232.66 32.3402C233.508 32.8317 234.131 33.6792 234.534 34.7973C234.772 35.4632 234.947 36.2894 234.968 36.8128C235.043 37.4752 234.961 38.5791 234.808 39.3162L226.881 76.9664C226.81 77.3082 226.774 77.6038 226.767 77.8566C226.767 77.992 226.799 78.0774 226.863 78.113L226.86 78.1166Z" fill="#F55C5C"/>
<path d="M192.793 53.7488C192.583 54.2118 192.298 54.6818 191.981 55.1234C191.632 55.6077 191.251 56.0492 190.906 56.3768C190.482 56.7792 190.115 57.0107 189.941 56.9288C189.912 56.9145 189.898 56.9003 189.887 56.886C189.855 56.8469 189.837 56.7899 189.834 56.7151C189.834 56.7009 189.834 56.6831 189.834 56.6653C189.841 56.4445 189.866 56.1917 189.919 55.9032C189.926 55.8605 189.937 55.8177 189.944 55.775L197.728 18.805C197.874 18.1106 198.202 17.4019 198.701 16.793C199.035 16.3871 199.427 16.0274 199.883 15.739C200.007 15.6606 200.129 15.593 200.235 15.5396C200.648 27.4118 198.27 41.6486 192.789 53.7453L192.793 53.7488Z" fill="#410005"/>
<path d="M201.2 16.551C201.663 16.5012 202.13 16.608 202.554 16.8573C202.561 16.8608 231.746 33.6117 231.746 33.6117C232.402 33.9891 232.904 34.6657 233.246 35.6165C233.47 36.2361 233.602 36.9483 233.616 37.3044V37.3507L233.623 37.3934C233.68 37.892 233.616 38.8392 233.484 39.4623L226.024 74.8905C225.946 75.268 225.504 75.5493 225.23 75.3926L191.561 56.0672C191.344 55.9425 191.251 55.6826 191.315 55.3799L199.046 18.6662C199.139 18.2282 199.334 17.8152 199.612 17.4769C199.808 17.2383 200.018 17.046 200.253 16.8929L200.517 16.7433C200.641 16.6828 200.773 16.6365 200.912 16.6009C201.005 16.576 201.101 16.5617 201.197 16.551H201.2ZM201.489 15.1658C201.329 15.1836 201.168 15.2121 201.008 15.2513C200.748 15.3154 200.492 15.4115 200.239 15.5397C200.129 15.5967 200.007 15.6608 199.883 15.7427C199.427 16.0311 199.035 16.3908 198.701 16.7967C198.202 17.4057 197.874 18.1107 197.728 18.8051L189.944 55.7752C189.933 55.8179 189.926 55.8606 189.919 55.9034C189.866 56.1918 189.837 56.4482 189.834 56.6654C189.834 56.6832 189.834 56.6975 189.834 56.7153C189.837 56.7936 189.855 56.8506 189.887 56.8862C189.901 56.9004 189.916 56.9147 189.93 56.9218C189.944 56.9289 226.861 78.1167 226.861 78.1167C226.797 78.0811 226.765 77.9957 226.765 77.8604C226.772 77.6075 226.807 77.312 226.879 76.9701L234.805 39.3199C234.962 38.5828 235.044 37.4753 234.966 36.8165C234.944 36.2931 234.773 35.4669 234.531 34.801C234.129 33.6829 233.506 32.8354 232.658 32.344L203.472 15.5896C202.867 15.2335 202.18 15.091 201.492 15.1658H201.489Z" fill="#FFDAD7"/>
<path d="M222.705 26.632L223.15 24.5168C223.164 24.4527 223.175 24.385 223.182 24.3174C223.281 23.5268 223 22.7078 222.512 22.4265L217.242 19.4032L216.541 19.0008C216.302 18.862 216.053 18.8798 215.835 19.0151C215.572 19.1824 215.358 19.5243 215.259 19.9908L214.813 22.106L222.701 26.632H222.705Z" fill="#FFDAD7"/>
<path d="M222.706 26.6321L224.112 25.7561L224.557 23.6409C224.735 22.7898 224.451 21.8568 223.924 21.5506L217.952 18.1249C217.713 17.9896 217.464 18.0038 217.247 18.1392L215.84 19.0152C216.057 18.8798 216.307 18.862 216.545 19.0009L217.247 19.4033L222.517 22.4266C223.005 22.7079 223.286 23.5234 223.186 24.3175C223.179 24.3851 223.165 24.4528 223.154 24.5169L222.709 26.6321H222.706Z" fill="#F55C5C"/>
<path d="M172.643 106.43L170.115 103.314L171.564 101.833C171.564 101.833 171.842 101.427 172.33 101.687C172.818 101.943 175.869 103.977 175.869 103.977C175.869 103.977 175.171 103.727 174.854 104.084C174.545 104.433 172.647 106.434 172.647 106.434L172.643 106.43Z" fill="white"/>
<path d="M174.413 105.009L175.082 104.365C175.185 104.265 175.321 104.205 175.485 104.194C175.73 104.18 176.101 104.272 176.528 104.757C176.734 104.992 176.905 105.262 177.027 105.536L177.614 106.858L178.508 106.925L177.087 108.499L174.185 106.598L175.104 106.69L174.413 105.006V105.009Z" fill="white"/>
<path d="M176.35 109.514L178.864 109.71L180.139 112.666C180.263 112.95 180.342 113.232 180.36 113.485C180.388 113.844 180.306 114.225 179.818 114.165C179.626 114.14 179.405 114.047 179.188 113.905L177.842 113.022L176.35 109.51V109.514Z" fill="white"/>
<path d="M176.268 112.267L179.188 114.222C179.188 114.222 179.932 114.766 180.317 114.45L178.7 116.301C178.615 116.397 178.504 116.465 178.369 116.486C178.241 116.508 178.077 116.494 177.902 116.38L176.321 115.343L176.311 116.486L174.84 112.772L176.268 111.198V112.267Z" fill="white"/>
<path d="M170.926 108.855L173.839 110.76V113.691L171.218 111.975C171.218 111.975 170.065 111.198 170.047 110.151C170.043 109.891 170.114 109.689 170.246 109.553L170.926 108.852V108.855Z" fill="white"/>
<path d="M168.925 104.561L167.967 103.371L170.955 105.369L172.404 108.82L171.485 107.687L170 109.158C170 109.158 169.516 109.475 169.954 110.639L168.106 106.231C168.106 106.231 167.846 105.697 168.27 105.237C168.697 104.778 168.925 104.564 168.925 104.564V104.561Z" fill="white"/>
<mask id="mask0_67956_28014" style="mask-type:alpha" maskUnits="userSpaceOnUse" x="166" y="74" width="48" height="33">
<g clip-path="url(#clip1_67956_28014)">
<path d="M185.827 81.586C185.827 81.586 187.579 73.1423 193.37 75.1377C199.161 77.133 203.116 83.63 195.268 85.8808C187.421 88.1317 185.352 82.6202 185.839 81.586H185.827Z" fill="#C1D2D6"/>
<path d="M187.348 84.9559C187.348 84.9559 188.662 80.223 194.453 82.2184C200.232 84.2137 202.3 86.4767 194.453 88.7275C186.605 90.9784 186.873 86.0022 187.348 84.968V84.9559Z" fill="#619393"/>
<path d="M201.186 89.5048C201.186 89.5048 202.342 82.8066 209.219 85.0124C216.082 87.2182 218.942 91.1726 209.624 93.6609C200.305 96.1491 200.623 90.648 201.186 89.5048Z" fill="#619393"/>
<path d="M188.37 80.9653C187.907 80.5394 187.311 80.3934 186.715 80.2961C186.131 80.1988 185.547 80.0893 184.963 79.9433C183.783 79.6513 178.138 85.7346 179.257 86.8539C179.671 87.2554 180.413 87.2919 180.814 86.8539C181.605 87.6204 182.542 88.2774 183.576 88.7033C183.771 88.8736 183.953 89.0683 184.16 89.2143C185.036 89.8469 186.18 90.0416 187.141 89.4819C188.017 88.9709 188.467 88.0341 188.832 87.1338C188.856 87.0851 188.893 87.0364 188.905 86.9878C188.905 86.9513 188.905 86.9148 188.905 86.8783C189.246 85.9658 189.477 84.9924 189.465 84.0191C189.465 82.9728 189.197 81.6831 188.382 80.9531L188.37 80.9653Z" fill="#6B8484"/>
<path d="M182.802 98.6537C183.608 98.2011 184.082 97.4587 184.502 96.662C184.906 95.8834 185.344 95.1229 185.817 94.3805C186.799 92.8776 187.903 91.4652 189.147 90.1977C189.884 89.4553 189.778 88.5138 189.288 87.9343C189.656 87.4816 189.936 86.9746 189.989 86.3047C190.146 84.4215 188.622 83.317 187.167 82.647C186.728 82.4479 186.255 82.5565 185.852 82.81C183.766 81.8503 181.242 81.9228 179.191 82.9549C178.438 83.3351 178.034 84.3491 178.438 85.1458C177.018 85.8701 175.668 86.8479 174.581 88.0973C174.248 88.2784 173.915 88.4413 173.6 88.6586C172.32 89.564 171.514 91.0669 171.812 92.6965C172.075 94.1632 173.127 95.2858 174.178 96.2274C174.231 96.2817 174.283 96.3541 174.336 96.4085C174.371 96.4447 174.441 96.4447 174.476 96.4628C175.545 97.3862 176.772 98.2011 178.087 98.6718C179.524 99.1788 181.382 99.4686 182.767 98.6718L182.802 98.6537Z" fill="#72A2A3"/>
<path d="M182.226 88.1567C182.226 88.1567 187.878 84.13 194.888 86.5668C201.897 89.0036 198.179 93.5058 188.645 96.2398C179.127 98.9886 181.636 89.4197 182.211 88.1418L182.226 88.1567Z" fill="#C1D2D6"/>
<path d="M166.956 89.9442C166.956 89.9442 171.616 86.6471 177.395 88.6424C183.175 90.6377 184.172 96.2709 176.325 98.5096C168.465 100.773 166.47 90.9906 166.956 89.9442Z" fill="#C1D2D6"/>
<path d="M185.644 95.2977C185.182 94.8718 184.586 94.7258 183.99 94.6285C183.406 94.5312 182.822 94.4217 182.238 94.2757C181.057 93.9837 179.914 93.57 178.819 93.0347C178.174 92.7183 177.602 92.9982 177.347 93.4483C176.982 93.3145 176.58 93.2415 176.154 93.351C174.938 93.6673 174.585 94.9205 174.487 96.0277C174.463 96.3562 174.633 96.6482 174.889 96.855C174.767 98.4367 175.4 100.079 176.531 101.186C176.945 101.588 177.687 101.624 178.089 101.186C178.88 101.953 179.816 102.61 180.851 103.036C181.045 103.206 181.228 103.401 181.435 103.547C182.311 104.179 183.454 104.374 184.415 103.814C185.291 103.303 185.742 102.366 186.107 101.466C186.131 101.417 186.167 101.369 186.18 101.32C186.18 101.284 186.18 101.247 186.18 101.211C186.52 100.298 186.751 99.3248 186.739 98.3515C186.739 97.3052 186.472 96.0155 185.656 95.2855L185.644 95.2977Z" fill="#6B8484"/>
<path d="M195.188 84.8926C194.493 85.2357 194.07 85.8218 193.692 86.4365C193.329 87.0512 192.937 87.6373 192.514 88.2235C191.653 89.3957 190.671 90.4965 189.583 91.4829C188.934 92.0547 189.009 92.7981 189.432 93.2698C189.115 93.6129 188.858 94.0275 188.798 94.5421C188.631 96.0146 189.931 96.9152 191.184 97.4728C191.562 97.6443 191.97 97.5585 192.317 97.3727C194.115 98.1589 196.29 98.1304 198.073 97.3584C198.722 97.0725 199.085 96.2719 198.753 95.6429C199.991 95.0854 201.154 94.3277 202.106 93.3699C202.393 93.2269 202.695 93.1126 202.952 92.941C204.07 92.2405 204.795 91.0683 204.553 89.7817C204.342 88.6095 203.451 87.7231 202.559 86.9655C202.514 86.9226 202.484 86.8654 202.423 86.8225C202.393 86.7939 202.333 86.7939 202.303 86.7796C201.381 86.0362 200.354 85.3786 199.221 84.9927C197.997 84.5781 196.396 84.3208 195.188 84.9212V84.8926Z" fill="#6B8484"/>
<path d="M192.482 102.318C193.042 102.014 193.37 101.515 193.662 100.979C193.942 100.456 194.246 99.9453 194.575 99.4465C195.256 98.4367 196.023 97.4877 196.886 96.636C197.397 96.1372 197.324 95.5045 196.984 95.1152C197.239 94.811 197.434 94.4703 197.47 94.0202C197.58 92.7548 196.521 92.0127 195.512 91.5625C195.207 91.4287 194.879 91.5017 194.599 91.672C193.151 91.0272 191.399 91.0758 189.976 91.7693C189.453 92.0248 189.173 92.7062 189.453 93.2415C188.467 93.7282 187.53 94.3852 186.776 95.2247C186.545 95.3463 186.314 95.4558 186.095 95.6018C185.206 96.2102 184.647 97.22 184.854 98.315C185.036 99.3005 185.766 100.055 186.496 100.687C186.533 100.724 186.569 100.773 186.606 100.809C186.63 100.833 186.679 100.833 186.703 100.846C187.445 101.466 188.297 102.014 189.209 102.33C190.195 102.671 191.497 102.865 192.458 102.33L192.482 102.318Z" fill="#72A2A3"/>
<path d="M184.476 101.758C184.476 101.758 185.79 97.0253 191.582 99.0206C197.361 101.016 199.429 103.279 191.582 105.53C183.734 107.781 184.002 102.804 184.476 101.77V101.758Z" fill="#619393"/>
<path d="M195.791 96.9524C195.791 96.9524 199.453 90.9056 205.245 92.9009C211.024 94.8963 207.958 98.5828 200.098 100.821C192.251 103.072 195.305 97.9866 195.791 96.9524Z" fill="#C1D2D6"/>
</g>
</mask>
<g mask="url(#mask0_67956_28014)">
<path d="M221.917 83.0131C221.764 83.1484 221.582 83.2766 221.379 83.3941L194.045 99.1764C193.173 99.6785 192.09 99.9705 190.869 99.9705C190.132 99.9705 189.274 99.8316 188.64 99.4684L188.077 99.1443L157.2 81.3181C157.15 81.2896 157.104 81.2611 157.057 81.229C157.218 81.1009 157.399 80.9762 157.606 80.8552L184.947 65.0693C185.805 64.5672 186.945 64.2788 188.077 64.2788C188.964 64.2788 189.768 64.4569 190.342 64.7845L221.782 82.9348C221.824 82.9597 221.871 82.9846 221.913 83.0167L221.917 83.0131Z" fill="#2D3135"/>
</g>
</g>
<path fill-rule="evenodd" clip-rule="evenodd" d="M128.481 116.717C145.616 116.717 159.5 123.95 159.5 132.858C159.5 141.766 145.603 149 128.481 149C111.36 149 97.4629 141.766 97.4629 132.858C97.4629 123.95 111.36 116.717 128.481 116.717Z" fill="#C2C7CF"/>
<g clip-path="url(#clip2_67956_28014)">
<path d="M149.925 56.3109C149.925 56.3109 145.235 55.6927 144.519 60.3459C144.519 60.3459 149.209 61.2896 149.925 56.3109Z" fill="#CEE5FF"/>
<path d="M144.811 57.9053C144.811 57.9053 146.57 61.5661 146.684 62.5423C146.798 63.5185 148.866 65.2594 150.071 65.6336C151.276 66.0078 154.582 66.6423 153.996 64.8852C153.393 63.128 152.726 62.4447 152.514 61.2895C152.302 60.1343 151.065 58.1819 150.364 57.7101C149.68 57.2382 147.466 55.7251 147.466 55.7251L144.811 57.889V57.9053Z" fill="#EFB185"/>
<path d="M150.363 57.7264C150.363 57.7264 152.724 59.6951 153.197 60.8991C153.652 62.1031 154.076 63.2583 153.734 63.4047C152.92 63.7464 152.431 62.6237 152.089 61.794C151.763 60.9642 150.444 60.5574 149.679 60.3459C148.914 60.1181 146.21 58.3447 146.911 56.6689L148.083 56.0181L150.347 57.7264H150.363Z" fill="#E6A376"/>
<path d="M132.499 20.0121C132.499 20.0121 135.919 19.4427 138.345 30.6853C140.771 41.928 140.771 42.6439 140.771 42.6439L149.94 56.327C149.94 56.327 145.592 55.7576 144.533 60.362C144.533 60.362 136.928 52.471 136.081 49.6238C135.218 46.7765 121.979 21.4602 132.515 20.0284L132.499 20.0121Z" fill="#9BCBFB"/>
<path d="M144.517 60.3459C144.811 59.0931 145.348 58.2308 145.967 57.6288C140.218 52.4061 135.919 42.4651 135.919 42.4651L133.998 44.8243C135.04 47.216 135.854 48.9894 136.049 49.6239C136.896 52.4712 144.501 60.3622 144.501 60.3622L144.517 60.3459Z" fill="#CEE5FF"/>
<path d="M125.318 118.463C125.318 118.463 123.95 121.668 125.318 122.481C126.686 123.311 126.865 124.222 129.079 124.043C131.278 123.864 130.952 124.597 131.718 125.41C132.467 126.24 140.251 129.624 141.716 127.981C143.182 126.337 139.062 124.401 137.596 123.441C136.131 122.481 132.646 118.642 132.548 117.552C132.467 116.462 125.318 118.463 125.318 118.463Z" fill="#0E1D2A"/>
<path d="M125.318 122.482C126.686 123.311 126.865 124.222 129.08 124.043C131.279 123.864 130.953 124.597 131.718 125.41C132.467 126.24 140.251 129.624 141.717 127.981C142.222 127.411 142.059 126.826 141.587 126.24C141.049 126.338 140.3 126.468 139.307 126.647C137.027 127.053 134.063 124.418 132.923 123.425C131.783 122.449 130.35 122.823 128.38 122.498C126.409 122.172 126.686 119.179 126.686 119.179L125.237 118.674C124.96 119.39 124.146 121.798 125.318 122.498V122.482Z" fill="#0E1D2A"/>
<path d="M111.426 128.859C111.426 128.859 110.839 132.634 112.305 134.684C113.754 136.734 116.962 140.281 118.347 140.118C119.731 139.956 119.943 139.337 119.943 139.337C119.943 139.337 120.529 136.262 119.503 133.187C118.477 130.112 118.412 128.859 118.412 128.859H111.426Z" fill="#0E1D2A"/>
<path d="M112.305 134.684C113.591 136.49 116.213 139.435 117.776 140.021C115.724 137.385 118.802 137.922 116.49 136.669C113.314 134.944 115.334 133.513 113.917 133.106C112.5 132.699 113.542 129.201 113.542 129.201L112.777 128.843H111.441C111.441 128.843 110.855 132.618 112.321 134.668L112.305 134.684Z" fill="#0E1D2A"/>
<path d="M128.265 67.2932C128.265 67.2932 134.795 66.5773 136.994 61.7451C136.994 61.7451 137.596 72.4183 136.261 84.7836C134.942 97.1652 133.851 118.918 133.851 118.918C133.851 118.918 129.617 122.904 125.253 118.918C125.253 118.918 124.031 104.552 125.253 96.5794C125.253 96.5794 124.438 82.6359 125.806 75.6723C127.174 68.7087 128.282 67.277 128.282 67.277L128.265 67.2932Z" fill="#183248"/>
<path d="M133.851 118.918C133.851 118.918 134.942 97.1488 136.261 84.7836C137.58 72.402 136.994 60.5085 136.994 60.5085C135.398 64.0554 131.457 66.5936 129.47 67.0654C129.633 71.7837 130.073 85.711 129.991 90.3479C129.926 94.7409 129.063 112.996 128.705 120.643C131.604 121.033 133.851 118.918 133.851 118.918Z" fill="#0D4A73"/>
<path d="M112.909 66.5447C112.909 66.5447 112.274 73.7849 112.143 85.0275C112.013 96.2702 111.182 100.5 110.922 102.241C110.645 103.966 109.701 122.79 110.238 128.273C110.238 128.273 113.788 133.757 119.39 128.273C119.39 128.273 120.351 108.977 121.295 104.584C122.256 100.191 127.597 78.8612 129.763 71.2142C130.724 67.83 130.936 66.5447 130.936 66.5447C130.936 66.5447 121.507 73.313 112.909 66.5447Z" fill="#183248"/>
<path d="M119.375 128.273C119.375 128.273 120.336 108.977 121.28 104.584C122.241 100.191 127.583 78.8612 129.748 71.2142C130.709 67.83 132.908 65.2268 132.908 65.2268C132.908 65.2268 126.72 69.5709 121.362 69.5547C121.118 71.1979 118.854 86.9637 118.317 93.8459C117.795 100.679 113.122 124.694 114.376 130.714C115.76 130.763 117.454 130.161 119.375 128.273Z" fill="#0D4A73"/>
<path d="M119.065 21.6393C119.065 21.6393 109.441 27.4314 109.229 28.2124C109.034 28.9934 106.575 31.0271 110.907 39.5364C110.907 39.5364 116.541 48.7127 114.734 58.3935C113.675 64.0067 112.6 66.9841 112.6 66.9841C112.6 66.9841 117.502 73.2481 129.634 67.7813C132.077 66.675 136.067 62.9491 137.158 60.1018C137.158 60.1018 135.415 52.0481 136.295 42.4325C137.174 32.8168 137.19 20.4028 131.67 19.15C131.67 19.15 130.188 17.588 119.082 21.623L119.065 21.6393Z" fill="#9BCBFB"/>
<path d="M117.42 14.8222C117.42 14.8222 120.807 19.2476 118.592 22.5342C117.371 24.3727 120.839 28.2938 126.262 27.5779C126.262 27.5779 128.64 26.8133 128.33 25.9509C127.63 23.9823 128.347 22.8108 129.112 21.2163C129.877 19.6219 117.42 14.8059 117.42 14.8059V14.8222Z" fill="#EFB185"/>
<path d="M118.609 22.5341C118.463 22.7457 118.381 23.006 118.365 23.2826C120.254 21.0698 124.162 20.6305 124.162 20.6305L118.593 15.2777C118.381 15.1963 118.202 15.115 118.055 15.0662L117.941 15.5868C118.788 17.0023 120.254 20.0774 118.609 22.5341Z" fill="#E6A376"/>
<path d="M116.102 12.3002C116.102 12.3002 117.861 18.3364 122.29 20.8257C126.215 23.0222 130.677 24.3401 131.165 19.817C131.556 16.2213 132.647 7.06123 129.39 5.46675C125.189 3.41672 123.495 0.63453 118.952 2.68456C118.952 2.68456 113.789 5.51557 116.118 12.2839L116.102 12.3002Z" fill="#EFB185"/>
<path d="M116.1 12.3002C116.1 12.3002 116.964 17.5392 122.272 20.9071C123.412 21.623 124.845 22.1762 125.953 22.5341C123.885 21.2325 123.64 20.7932 121.995 19.1336C120.334 17.4741 124.194 17.8808 121.279 13.5205C120.286 12.0399 124.748 13.732 125.725 13.6343C131.473 13.0812 130.806 9.81087 130.822 8.41164C130.659 7.80965 130.464 7.24019 130.219 6.73582L129.6 5.72707C129.535 5.62945 129.454 5.5481 129.389 5.46675C128.705 4.71832 128.037 4.08379 127.369 3.54688C124.91 3.77466 117.908 4.42546 117.778 4.47427C117.68 4.50681 116.589 6.23144 115.579 7.85846C115.4 9.09498 115.514 10.5593 116.1 12.3002Z" fill="#E6A376"/>
<path d="M119.047 18.0598C119.047 18.0598 114.08 14.1062 115.269 7.85846C115.269 7.85846 115.79 2.86353 121.229 1.82224C123.835 1.31787 128.46 1.41549 130.837 6.55685C131.57 8.16759 131.391 12.5605 124.796 11.3403C123.851 11.1613 121.799 9.97357 120.985 10.8196C120.171 11.6657 120.171 13.1462 120.692 14.3665C121.132 15.4403 120.171 15.6193 120.024 15.4078C119.878 15.18 118.412 12.1375 117.321 13.4391C116.344 14.6268 118.933 17.8483 119.063 18.0598H119.047Z" fill="#2F1400"/>
<path d="M119.047 18.0599C118.917 17.8484 116.328 14.6269 117.305 13.4392C118.396 12.1376 119.862 15.1801 120.008 15.4079C120.155 15.6356 121.116 15.4404 120.676 14.3666C120.171 13.1463 120.155 11.6657 120.969 10.8197C121.702 10.055 123.461 10.9499 124.487 11.259C123.363 10.6407 121.93 9.58316 121.034 7.85853C119.845 5.5319 118.315 4.50689 116.93 4.19775C115.449 5.92239 115.253 7.85853 115.253 7.85853C114.064 14.1225 119.031 18.0599 119.031 18.0599H119.047Z" fill="#623F21"/>
<path d="M137.494 60.5472C137.494 60.5472 135.751 52.4935 136.631 42.8778C137.363 34.8566 137.477 24.9319 134.302 21.1084C133.08 22.3124 130.703 25.0295 130.328 28.0883C129.824 32.2372 125.345 34.8892 123.098 35.6051C120.851 36.321 119.922 40.1119 121.665 45.8552C123.082 50.5248 122.381 63.2968 121.193 70.4394C123.554 70.3906 126.453 69.8049 129.97 68.2267C132.413 67.1203 136.403 63.3944 137.494 60.5472Z" fill="#CEE5FF"/>
<path d="M159.01 46.9231L158.944 66.854L138.247 78.8776L138.312 58.9467L159.01 46.9231Z" fill="#F0BC96"/>
<path d="M138.313 58.9467L138.248 78.8776L117.42 66.854L117.469 46.9231L138.313 58.9467Z" fill="#FFDCC4"/>
<path d="M138.313 58.9467L117.42 66.854L117.469 46.9231L138.313 58.9467Z" fill="#F0BC96"/>
<path d="M159.01 46.923L138.312 58.9466L117.468 46.923L138.165 34.8994L159.01 46.923Z" fill="#FFDCC4"/>
<path d="M157.188 47.0207L138.297 57.9868L119.293 47.0207L138.167 36.0547L157.188 47.0207Z" fill="#F0BC96"/>
<path d="M143.718 33.2723L145.444 32.2798L145.396 49.3797L143.669 50.3884L143.718 33.2723Z" fill="#623F21"/>
<path d="M137.432 29.6441L139.142 28.6516L145.444 32.2798L143.718 33.2723L137.432 29.6441Z" fill="#623F21"/>
<path d="M143.72 33.2723L143.671 50.3884L137.385 46.7602L137.434 29.644L143.72 33.2723Z" fill="#2F1400"/>
<path d="M143.671 42.8391V50.3884L137.385 46.7602L137.434 29.644L143.671 42.8391Z" fill="#623F21"/>
<path d="M139.419 36.0544L141.145 35.0457L141.096 52.1455L139.37 53.1543L139.419 36.0544Z" fill="#623F21"/>
<path d="M133.117 32.4262L134.843 31.4175L141.145 35.0457L139.419 36.0545L133.117 32.4262Z" fill="#623F21"/>
<path d="M139.42 36.0545L139.371 53.1544L133.069 49.5262L133.118 32.4263L139.42 36.0545Z" fill="#2F1400"/>
<path d="M137.124 44.6939L139.371 53.1544L133.069 49.5262L133.118 32.4263L137.124 44.6939Z" fill="#623F21"/>
<path d="M119.293 47.0205L129.927 40.8379L141.18 46.8578L130.904 53.7076L119.293 47.0205Z" fill="#623F21"/>
<g opacity="0.1">
<path d="M130.202 47.4925C131.391 48.1758 131.391 49.2985 130.202 49.9818C129.013 50.6652 127.108 50.6652 125.903 49.9818C124.714 49.2985 124.714 48.1921 125.903 47.4925C127.076 46.8091 129.013 46.8091 130.202 47.4925Z" fill="#0E1D2A"/>
</g>
<path d="M129.681 47.2484C130.593 47.769 130.593 48.6151 129.681 49.1357C128.786 49.6564 127.32 49.6564 126.424 49.1357C125.529 48.6151 125.513 47.769 126.424 47.2484C127.32 46.7277 128.786 46.7277 129.681 47.2484Z" fill="#CEE5FF"/>
<path d="M125.025 44.5639L125.757 48.3223H130.35L131.099 44.4663L125.025 44.5639Z" fill="#CEE5FF"/>
<path d="M130.203 43.2134C131.392 43.8968 131.392 45.0194 130.203 45.7028C129.014 46.3861 127.109 46.3861 125.904 45.7028C124.715 45.0194 124.715 43.9131 125.904 43.2134C127.077 42.5301 129.014 42.5301 130.203 43.2134Z" fill="#9BCBFB"/>
<path d="M129.537 43.555C130.416 44.0594 130.416 44.8729 129.537 45.3773C128.674 45.8817 127.273 45.8817 126.394 45.3773C125.531 44.8729 125.514 44.0594 126.394 43.555C127.257 43.0507 128.657 43.0507 129.537 43.555Z" fill="#2C5B2C"/>
<path d="M125.791 44.6941C125.791 44.6941 123.544 41.8631 125.759 36.7705C125.759 36.7705 127.697 39.211 126.589 45.4588C126.589 45.4588 126.166 45.296 125.808 44.6941H125.791Z" fill="#2C5B2C"/>
<path d="M125.772 36.8193C125.821 38.7717 125.919 42.1722 126.196 45.2147C126.407 45.41 126.57 45.475 126.57 45.475C127.596 39.6503 126 37.1447 125.772 36.8356V36.8193Z" fill="#BCF0B4"/>
<path d="M126.896 44.3525C126.896 44.3525 125.105 41.2286 128.036 36.5103C128.036 36.5103 129.583 39.2111 127.564 45.2148C127.564 45.2148 127.157 44.987 126.896 44.3362V44.3525Z" fill="#2C5B2C"/>
<path d="M127.875 36.5103C127.631 38.4464 127.224 41.8306 127.044 44.8731C127.224 45.1009 127.386 45.1822 127.386 45.1822C129.275 39.5853 128.054 36.8519 127.875 36.5103Z" fill="#2C5B2C"/>
<path d="M127.011 45.5889C127.011 45.5889 124.324 44.6452 123.657 40.3174C123.657 40.3174 125.969 41.1309 127.858 45.7679C127.858 45.7679 127.5 45.8492 127.011 45.5889Z" fill="#2C5B2C"/>
<path d="M123.689 40.3337C124.536 41.619 126.05 43.848 127.5 45.7516C127.728 45.7841 127.858 45.7516 127.858 45.7516C126.099 41.4238 123.966 40.4313 123.689 40.3174V40.3337Z" fill="#BCF0B4"/>
<path d="M128.199 45.1657C128.199 45.1657 126.766 43.5225 127.938 40.3823C127.938 40.3823 129.176 41.7978 128.704 45.605C128.704 45.605 128.443 45.5237 128.199 45.1657Z" fill="#2C5B2C"/>
<path d="M127.957 40.415C128.039 41.6028 128.218 43.6528 128.462 45.475C128.592 45.5889 128.706 45.6215 128.706 45.6215C129.146 42.0746 128.104 40.6103 127.957 40.4313V40.415Z" fill="#BCF0B4"/>
<path d="M128.835 44.1083C128.835 44.1083 127.467 41.6189 129.828 37.9419C129.828 37.9419 131.017 40.0896 129.34 44.8079C129.34 44.8079 129.03 44.6289 128.818 44.1083H128.835Z" fill="#BCF0B4"/>
<path d="M129.861 37.9744C129.649 39.5038 129.275 42.1558 129.096 44.5638C129.242 44.7427 129.356 44.8078 129.356 44.8078C130.92 40.4149 129.991 38.251 129.861 37.9744Z" fill="#BCF0B4"/>
<path d="M129.195 44.5802C129.195 44.5802 128.869 42.4814 131.475 40.5127C131.475 40.5127 131.768 42.3187 129.374 45.1985C129.374 45.1985 129.195 44.987 129.195 44.5802Z" fill="#2C5B2C"/>
<path d="M131.473 40.5288C130.919 41.5376 129.991 43.3273 129.258 44.9543C129.307 45.117 129.372 45.1983 129.372 45.1983C131.587 42.5138 131.489 40.7566 131.473 40.5288Z" fill="#BCF0B4"/>
<path d="M134.713 51.1694V55.904L130.902 53.7076L134.713 51.1694Z" fill="#2F1400"/>
<path d="M134.697 52.3083L134.713 55.904L138.296 57.9866L141.406 56.1644L134.697 52.3083Z" fill="#9BCBFB"/>
<path d="M134.697 52.3083L138.296 57.9866L134.713 55.904L134.697 52.3083Z" fill="#9BCBFB"/>
<path d="M149.811 40.9844C149.811 41.0657 149.811 41.1633 149.762 41.2447C149.762 41.2447 149.762 41.2447 149.762 41.261C149.729 41.3423 149.697 41.4237 149.631 41.505C149.631 41.505 149.615 41.5376 149.599 41.5538C149.55 41.6352 149.469 41.7003 149.403 41.7816C149.355 41.8304 149.289 41.863 149.241 41.9118C149.175 41.9443 149.127 41.9931 149.061 42.0257C148.915 42.107 148.736 42.1884 148.557 42.2534C148.491 42.2697 148.426 42.3023 148.361 42.3185C148.28 42.3348 148.198 42.3673 148.117 42.3836C148.019 42.3999 147.905 42.4324 147.808 42.4324C147.791 42.4324 147.759 42.4324 147.742 42.4324C147.596 42.4324 147.466 42.4487 147.319 42.465H147.254C147.107 42.465 146.961 42.465 146.83 42.4324C146.814 42.4324 146.782 42.4324 146.765 42.4324C146.619 42.4161 146.488 42.3836 146.358 42.3673C146.342 42.3673 146.309 42.3673 146.277 42.3511C146.146 42.3185 146.032 42.286 145.918 42.2372C145.902 42.2372 145.87 42.2372 145.853 42.2209C145.707 42.1721 145.577 42.107 145.463 42.0419C144.958 41.7491 144.713 41.3749 144.713 40.9844V49.0218C144.697 49.396 144.941 49.7865 145.446 50.0794C145.56 50.1445 145.69 50.2095 145.821 50.2583C145.821 50.2583 145.821 50.2583 145.837 50.2583C145.853 50.2583 145.886 50.2583 145.902 50.2746C145.984 50.3071 146.049 50.3234 146.13 50.356C146.179 50.356 146.212 50.3722 146.26 50.3885C146.277 50.3885 146.309 50.3885 146.326 50.4048C146.342 50.4048 146.374 50.4048 146.391 50.421C146.472 50.4373 146.554 50.4536 146.651 50.4699C146.684 50.4699 146.716 50.4699 146.749 50.4699C146.765 50.4699 146.782 50.4699 146.814 50.4699C146.847 50.4699 146.879 50.4699 146.912 50.4699C146.993 50.4699 147.075 50.4699 147.172 50.4699C147.189 50.4699 147.221 50.4699 147.254 50.4699H147.319C147.319 50.4699 147.4 50.4699 147.433 50.4699C147.531 50.4699 147.628 50.4699 147.71 50.4536C147.71 50.4536 147.726 50.4536 147.742 50.4536C147.759 50.4536 147.791 50.4536 147.808 50.4536C147.889 50.4536 147.954 50.4373 148.035 50.421C148.068 50.421 148.101 50.421 148.117 50.4048C148.215 50.3885 148.296 50.3722 148.377 50.3397C148.426 50.3397 148.459 50.3234 148.508 50.3072C148.524 50.3072 148.54 50.2909 148.557 50.2909C148.736 50.2258 148.899 50.1607 149.061 50.0631C149.061 50.0631 149.078 50.0631 149.094 50.0468C149.143 50.0143 149.175 49.9817 149.208 49.9655C149.273 49.9167 149.338 49.8841 149.403 49.8353C149.403 49.8353 149.403 49.8353 149.42 49.8353C149.485 49.7865 149.534 49.7214 149.583 49.6726C149.583 49.6726 149.599 49.6401 149.615 49.6401C149.615 49.6401 149.631 49.6075 149.648 49.5913C149.648 49.575 149.68 49.5425 149.697 49.5262C149.729 49.4774 149.745 49.4286 149.762 49.3798C149.762 49.3798 149.762 49.3798 149.762 49.3635C149.762 49.3635 149.762 49.3472 149.762 49.3309C149.762 49.2984 149.778 49.2659 149.794 49.2333C149.794 49.1845 149.794 49.1357 149.794 49.0869C149.794 49.0869 149.794 49.0869 149.794 49.0706V41.5701L149.811 41.0495V40.9844Z" fill="#0D4A73"/>
<path d="M149.044 39.9268C150.053 40.5126 150.053 41.44 149.06 42.0257C148.067 42.6114 146.438 42.6114 145.429 42.0257C144.419 41.4562 144.419 40.5126 145.429 39.9268C146.422 39.3411 148.05 39.3411 149.044 39.9268Z" fill="#183248"/>
<path d="M148.247 35.9407C148.198 36.0221 148.117 36.0872 148.019 36.1523C147.921 36.2173 147.807 36.2499 147.693 36.2824C147.677 36.2824 147.661 36.2824 147.645 36.2824C147.514 36.315 147.4 36.3312 147.27 36.3312C147.14 36.3312 147.009 36.3312 146.879 36.2824C146.879 36.2824 146.879 36.2824 146.863 36.2824C146.733 36.2499 146.619 36.2011 146.505 36.136C146.293 36.0058 146.179 35.8431 146.179 35.6804V40.8055C146.179 40.9682 146.277 41.1309 146.488 41.2611C146.537 41.2936 146.586 41.3099 146.651 41.3424C146.7 41.3424 146.733 41.375 146.781 41.3912C146.798 41.3912 146.814 41.3912 146.847 41.3912C146.847 41.3912 146.847 41.3912 146.863 41.3912H146.895C146.928 41.3912 146.961 41.3912 147.009 41.4075C147.042 41.4075 147.075 41.4075 147.123 41.4075C147.156 41.4075 147.189 41.4075 147.237 41.4075H147.286C147.286 41.4075 147.335 41.4075 147.351 41.4075C147.4 41.4075 147.433 41.4075 147.465 41.4075C147.514 41.4075 147.563 41.4075 147.612 41.3912C147.628 41.3912 147.645 41.3912 147.677 41.3912C147.693 41.3912 147.71 41.3912 147.726 41.3912C147.759 41.3912 147.791 41.3912 147.824 41.375C147.905 41.3424 147.987 41.3099 148.068 41.2773C148.117 41.2448 148.166 41.2123 148.215 41.1797C148.247 41.1472 148.263 41.1309 148.28 41.0984C148.28 41.0984 148.28 41.0984 148.28 41.0821C148.28 41.0821 148.296 41.0658 148.296 41.0496C148.296 41.0333 148.312 41.0007 148.329 40.9845C148.329 40.9682 148.329 40.9519 148.345 40.9194C148.345 40.9031 148.345 40.8706 148.345 40.8543V35.7292C148.345 35.8106 148.312 35.8919 148.263 35.957L148.247 35.9407Z" fill="#0D4A73"/>
<path d="M148.002 35.2573C148.442 35.5013 148.426 35.9081 148.002 36.1521C147.579 36.3962 146.895 36.3962 146.455 36.1521C146.032 35.9081 146.032 35.5013 146.455 35.2573C146.879 35.0132 147.579 35.0132 148.002 35.2573Z" fill="#183248"/>
<path d="M153.337 44.7C153.337 44.7 153.337 44.8301 153.304 44.8952C153.288 44.9603 153.256 45.0091 153.207 45.0742C153.207 45.0742 153.207 45.0904 153.19 45.1067C153.142 45.1555 153.093 45.2206 153.044 45.2694C153.011 45.3019 152.962 45.3345 152.914 45.367C152.865 45.3996 152.832 45.4321 152.783 45.4484C152.669 45.5135 152.539 45.5623 152.409 45.6111C152.36 45.6111 152.311 45.6436 152.262 45.6599C152.197 45.6762 152.132 45.6924 152.083 45.7087C152.002 45.7087 151.937 45.7412 151.855 45.7412C151.839 45.7412 151.823 45.7412 151.806 45.7412C151.709 45.7412 151.595 45.7575 151.497 45.7575H151.448C151.334 45.7575 151.236 45.7575 151.139 45.7412C151.139 45.7412 151.106 45.7412 151.09 45.7412C150.992 45.7412 150.878 45.7087 150.78 45.6924C150.764 45.6924 150.748 45.6924 150.731 45.6924C150.634 45.6762 150.552 45.6436 150.471 45.6111C150.471 45.6111 150.438 45.6111 150.422 45.6111C150.324 45.5785 150.227 45.5297 150.129 45.4809C149.754 45.2694 149.575 44.9765 149.575 44.7V50.6385C149.559 50.9151 149.738 51.208 150.113 51.4195C150.194 51.4683 150.292 51.5171 150.389 51.5497C150.389 51.5497 150.422 51.5497 150.438 51.5659C150.487 51.5822 150.552 51.5985 150.601 51.6148C150.634 51.6148 150.666 51.6148 150.699 51.631C150.715 51.631 150.731 51.631 150.748 51.631C150.748 51.631 150.78 51.631 150.797 51.631C150.862 51.631 150.927 51.6636 150.992 51.6636C151.008 51.6636 151.041 51.6636 151.057 51.6636C151.057 51.6636 151.09 51.6636 151.106 51.6636C151.139 51.6636 151.155 51.6636 151.187 51.6636C151.253 51.6636 151.318 51.6636 151.383 51.6636C151.399 51.6636 151.415 51.6636 151.448 51.6636H151.497C151.497 51.6636 151.562 51.6636 151.578 51.6636C151.643 51.6636 151.725 51.6636 151.79 51.6636C151.79 51.6636 151.79 51.6636 151.806 51.6636C151.823 51.6636 151.839 51.6636 151.855 51.6636C151.904 51.6636 151.969 51.6636 152.018 51.6473C152.034 51.6473 152.067 51.6473 152.083 51.631C152.148 51.631 152.213 51.5985 152.279 51.5822C152.311 51.5822 152.344 51.5822 152.376 51.5497C152.376 51.5497 152.409 51.5497 152.409 51.5334C152.539 51.4846 152.669 51.4358 152.783 51.3707C152.783 51.3707 152.783 51.3707 152.8 51.3707C152.832 51.3544 152.848 51.3219 152.881 51.3056C152.93 51.2731 152.979 51.2405 153.011 51.208C153.06 51.1592 153.093 51.1266 153.125 51.0778C153.125 51.0778 153.125 51.0616 153.142 51.0453C153.142 51.0453 153.142 51.029 153.158 51.0128C153.158 50.9965 153.174 50.9802 153.19 50.9639C153.207 50.9314 153.223 50.8989 153.239 50.8501C153.239 50.8501 153.239 50.8501 153.239 50.8338C153.239 50.8338 153.239 50.8338 153.239 50.8175C153.239 50.8012 153.256 50.7687 153.256 50.7524C153.256 50.7199 153.256 50.6874 153.256 50.6385V45.1067L153.272 44.7162L153.337 44.7Z" fill="#623F21"/>
<path d="M152.821 43.913C153.57 44.336 153.57 45.0356 152.821 45.4586C152.089 45.8817 150.884 45.8817 150.151 45.4586C149.418 45.0356 149.402 44.336 150.151 43.913C150.884 43.4899 152.089 43.4899 152.821 43.913Z" fill="#F0BC96"/>
<path d="M152.235 40.968C152.203 41.0168 152.138 41.0819 152.056 41.1145C151.975 41.1633 151.893 41.1795 151.812 41.2121C151.812 41.2121 151.796 41.2121 151.779 41.2121C151.682 41.2284 151.6 41.2446 151.503 41.2446C151.405 41.2446 151.307 41.2446 151.209 41.2121C151.112 41.1958 151.03 41.147 150.949 41.1145C150.786 41.0168 150.721 40.903 150.721 40.7891V44.5637C150.721 44.6776 150.786 44.8078 150.949 44.8891C150.982 44.9054 151.03 44.9379 151.063 44.9542C151.095 44.9542 151.128 44.9868 151.161 44.9868C151.161 44.9868 151.193 44.9868 151.209 44.9868C151.209 44.9868 151.226 44.9868 151.242 44.9868C151.275 44.9868 151.291 44.9868 151.323 44.9868C151.356 44.9868 151.372 44.9868 151.405 44.9868C151.437 44.9868 151.454 44.9868 151.486 44.9868H151.568C151.568 44.9868 151.633 44.9868 151.649 44.9868C151.682 44.9868 151.714 44.9868 151.747 44.9868C151.747 44.9868 151.779 44.9868 151.796 44.9868H151.828C151.861 44.9868 151.877 44.9868 151.893 44.9868C151.959 44.9705 152.007 44.9379 152.073 44.9054C152.105 44.8891 152.138 44.8566 152.17 44.824C152.187 44.8078 152.203 44.7915 152.219 44.7752C152.219 44.7752 152.219 44.7752 152.219 44.759C152.219 44.759 152.219 44.7427 152.235 44.7264C152.235 44.7264 152.235 44.6939 152.252 44.6776C152.252 44.6776 152.252 44.6451 152.252 44.6288C152.252 44.6288 152.252 44.5963 152.252 44.58V40.7891C152.252 40.8541 152.235 40.903 152.187 40.968H152.235Z" fill="#623F21"/>
<path d="M152.058 40.4637C152.383 40.6426 152.367 40.9518 152.058 41.1307C151.748 41.3097 151.244 41.3097 150.918 41.1307C150.608 40.9518 150.608 40.6589 150.918 40.4799C151.227 40.301 151.748 40.301 152.058 40.4799V40.4637Z" fill="#F0BC96"/>
<path d="M149.874 48.3547V51.2508L141.406 56.1644L141.422 53.2683L149.874 48.3547Z" fill="#0D4A73"/>
<path d="M141.424 53.2683L141.407 56.1644L134.698 52.3083L134.714 49.396L141.424 53.2683Z" fill="#0E1D2A"/>
<path d="M149.875 48.3547L141.424 53.2683L134.714 49.396L143.166 44.4824L149.875 48.3547Z" fill="#004F79"/>
<path d="M135.024 50.2095L141.408 53.854L141.424 55.725L135.057 52.0317L135.024 50.2095Z" fill="#004F79"/>
<path d="M141.408 53.8542L149.876 49.022V50.7629L141.424 55.7253L141.408 53.8542Z" fill="#183248"/>
<path d="M148.768 45.7678L148.751 48.6802L140.283 53.5938L140.299 50.6814L148.768 45.7678Z" fill="#9BCBFB"/>
<path d="M140.301 50.6815L140.285 53.5938L133.575 49.7215L133.591 46.8254L140.301 50.6815Z" fill="#9BCBFB"/>
<path d="M148.769 45.7679L140.301 50.6815L133.592 46.8254L142.06 41.9119L148.769 45.7679Z" fill="#CEE5FF"/>
<path d="M133.915 47.6389L140.282 51.2834L140.298 53.1545L133.931 49.4612L133.915 47.6389Z" fill="#CEE5FF"/>
<path d="M140.282 51.2833L148.766 46.4348V48.192L140.298 53.1544L140.282 51.2833Z" fill="#CEE5FF"/>
<path d="M157.188 47.0208L147.645 52.5526L148.085 53.2685L158.002 47.5089L157.188 47.0208Z" fill="#FFDCC4"/>
<path d="M153.589 50.0632V52.5526L149.811 53.3335L150.023 52.1133L153.589 50.0632Z" fill="#F0BC96"/>
<path d="M129.145 64.6086C129.145 64.6086 131.783 66.1868 132.434 67.3095C133.085 68.4321 133.672 69.506 133.362 69.7012C132.613 70.173 131.945 69.1317 131.489 68.367C131.034 67.6023 129.682 67.4071 128.884 67.3095C128.086 67.2119 125.138 65.8777 125.578 64.1205L126.637 63.2908L129.145 64.6249V64.6086Z" fill="#E6A376"/>
<path d="M129.162 63.4372C129.162 63.4372 124.472 62.8189 123.756 67.4721C123.756 67.4721 128.446 68.4158 129.162 63.4372Z" fill="#9BCBFB"/>
<path d="M124.048 65.0316C124.048 65.0316 125.807 68.6924 125.921 69.6686C126.035 70.6448 128.103 72.3857 129.308 72.7599C130.513 73.1341 133.819 73.7687 133.233 72.0278C132.63 70.2706 131.539 69.3106 131.328 68.1555C131.116 67.0003 130.302 65.3245 129.618 64.8526C128.934 64.3808 126.719 62.8677 126.719 62.8677L124.065 65.0316H124.048Z" fill="#EFB185"/>
<path d="M125.937 69.6687C126.051 70.6449 128.12 72.3858 129.325 72.76C130.416 73.1017 133.217 73.6386 133.298 72.4509C132.728 72.3207 131.865 72.1092 130.562 71.7513C127.501 70.8727 125.53 66.073 124.911 64.3484L124.048 65.048C124.048 65.048 125.807 68.7088 125.921 69.685L125.937 69.6687Z" fill="#E6A376"/>
<path d="M111.736 27.1386C111.736 27.1386 115.156 26.5692 117.582 37.8118C120.008 49.0545 120.008 49.7703 120.008 49.7703L129.177 63.4535C129.177 63.4535 124.829 62.8841 123.77 67.4885C123.77 67.4885 116.165 59.5975 115.318 56.7502C114.455 53.903 101.216 28.5866 111.752 27.1549L111.736 27.1386Z" fill="#9BCBFB"/>
<path d="M129.513 63.8661L120.345 50.1829C120.345 50.1829 120.345 49.467 117.918 38.2244C115.492 26.9817 112.072 27.5512 112.072 27.5512C111.73 27.6 111.404 27.6814 111.111 27.7627C112.023 32.1556 115.019 32.7251 118.765 51.273C119.872 56.7561 125.556 61.4907 127.233 64.1264C128.438 63.7034 129.497 63.8498 129.497 63.8498L129.513 63.8661Z" fill="#CEE5FF"/>
</g>
<defs>
<clipPath id="clip0_67956_28014">
<rect width="83.95" height="146" fill="white" transform="translate(153.5 14)"/>
</clipPath>
<clipPath id="clip1_67956_28014">
<rect width="46.6957" height="31.2683" fill="white" transform="translate(166.883 74.8333)"/>
</clipPath>
<clipPath id="clip2_67956_28014">
<rect width="52.1111" height="141.55" fill="white" transform="translate(107.389)"/>
</clipPath>
</defs>
</svg>
