<svg width="193" height="160" viewBox="0 0 193 160" fill="none" xmlns="http://www.w3.org/2000/svg">
<g clip-path="url(#clip0_57718_35870)">
<path d="M30.4765 57.7183L10.1948 78L30.4765 98.2816" stroke="#212121" stroke-width="2.11268" stroke-linecap="round"/>
<circle cx="30.4766" cy="57.7183" r="9.71831" fill="#9A9A9A"/>
<circle cx="30.4766" cy="98.2817" r="9.71831" fill="#17428D"/>
<circle cx="10.1949" cy="78" r="9.71831" fill="#FF7600"/>
<path d="M192.392 38.0103H191.513V13.9345C191.513 10.2389 190.045 6.69477 187.432 4.08162C184.818 1.46848 181.274 0.000427246 177.579 0.000427246H126.571C122.875 0.000427246 119.331 1.46848 116.718 4.08162C114.105 6.69477 112.636 10.2389 112.636 13.9345V146.017C112.636 149.712 114.105 153.256 116.718 155.87C119.331 158.483 122.875 159.951 126.571 159.951H177.579C181.274 159.951 184.818 158.483 187.432 155.87C190.045 153.256 191.513 149.712 191.513 146.017V55.1479H192.392V38.0103Z" fill="#E6E6E6"/>
<path d="M178.141 3.62524H171.483C171.789 4.37599 171.906 5.19056 171.823 5.99718C171.741 6.8038 171.461 7.5777 171.009 8.2507C170.556 8.92371 169.945 9.47514 169.23 9.85642C168.514 10.2377 167.716 10.4371 166.905 10.4371H137.683C136.873 10.437 136.074 10.2376 135.359 9.85633C134.643 9.47507 134.032 8.9237 133.58 8.2508C133.128 7.57789 132.848 6.8041 132.766 5.99759C132.683 5.19108 132.8 4.3766 133.106 3.6259H126.886C124.126 3.6259 121.479 4.72226 119.528 6.67379C117.576 8.62533 116.48 11.2722 116.48 14.0321V145.92C116.48 148.68 117.576 151.326 119.528 153.278C121.479 155.23 124.126 156.326 126.886 156.326H178.139C180.899 156.326 183.546 155.23 185.497 153.278C187.449 151.326 188.545 148.68 188.545 145.92V14.0314C188.545 11.2715 187.449 8.62467 185.497 6.67314C183.546 4.7216 180.899 3.62524 178.139 3.62524H178.141Z" fill="white"/>
<path d="M184.318 107.213H122.863C122.561 107.213 122.272 107.093 122.059 106.879C121.845 106.666 121.725 106.377 121.725 106.075V90.8308C121.725 90.5291 121.845 90.2398 122.059 90.0265C122.272 89.8131 122.561 89.6931 122.863 89.6927H184.318C184.619 89.6931 184.909 89.8131 185.122 90.0265C185.335 90.2398 185.455 90.5291 185.456 90.8308V106.075C185.455 106.377 185.335 106.666 185.122 106.879C184.909 107.093 184.619 107.213 184.318 107.213ZM122.863 90.1479C122.682 90.1481 122.508 90.2201 122.38 90.3481C122.252 90.4761 122.18 90.6497 122.18 90.8308V106.075C122.18 106.256 122.252 106.43 122.38 106.558C122.508 106.686 122.682 106.758 122.863 106.758H184.318C184.499 106.758 184.672 106.686 184.8 106.558C184.928 106.43 185 106.256 185 106.075V90.8308C185 90.6497 184.928 90.4761 184.8 90.3481C184.672 90.2201 184.499 90.1481 184.318 90.1479H122.863Z" fill="#CCCCCC"/>
<path d="M130.829 103.232C133.469 103.232 135.609 101.092 135.609 98.4525C135.609 95.8127 133.469 93.6727 130.829 93.6727C128.189 93.6727 126.049 95.8127 126.049 98.4525C126.049 101.092 128.189 103.232 130.829 103.232Z" fill="#CCCCCC"/>
<path d="M141.868 95.2663C141.763 95.2646 141.658 95.2839 141.559 95.3231C141.461 95.3624 141.372 95.4208 141.296 95.4949C141.221 95.5691 141.161 95.6575 141.12 95.755C141.079 95.8525 141.058 95.9572 141.058 96.0629C141.058 96.1687 141.079 96.2734 141.12 96.3709C141.161 96.4684 141.221 96.5568 141.296 96.631C141.372 96.7051 141.461 96.7635 141.559 96.8027C141.658 96.842 141.763 96.8613 141.868 96.8595H179.425C179.53 96.8615 179.634 96.8428 179.731 96.8045C179.829 96.7662 179.918 96.709 179.993 96.6362C180.069 96.5634 180.129 96.4765 180.171 96.3804C180.213 96.2842 180.235 96.1808 180.237 96.076C180.238 95.9713 180.219 95.8672 180.181 95.7697C180.142 95.6723 180.085 95.5834 180.012 95.5082C179.939 95.433 179.852 95.3729 179.756 95.3314C179.659 95.2899 179.556 95.2678 179.451 95.2663H141.869H141.868Z" fill="#E6E6E6"/>
<path d="M141.868 100.046C141.657 100.046 141.454 100.13 141.305 100.279C141.155 100.429 141.072 100.632 141.072 100.843C141.072 101.054 141.155 101.257 141.305 101.406C141.454 101.556 141.657 101.64 141.868 101.64H179.425C179.53 101.642 179.634 101.623 179.731 101.585C179.829 101.546 179.918 101.489 179.993 101.416C180.069 101.343 180.129 101.256 180.171 101.16C180.213 101.064 180.235 100.961 180.237 100.856C180.238 100.751 180.219 100.647 180.181 100.55C180.142 100.452 180.085 100.363 180.012 100.288C179.939 100.213 179.852 100.153 179.756 100.111C179.659 100.07 179.556 100.048 179.451 100.046H141.869L141.868 100.046Z" fill="#E6E6E6"/>
<path d="M184.318 132.705H122.863C122.561 132.705 122.272 132.585 122.059 132.372C121.845 132.158 121.725 131.869 121.725 131.567V116.323C121.725 116.021 121.845 115.732 122.059 115.519C122.272 115.305 122.561 115.185 122.863 115.185H184.318C184.619 115.185 184.909 115.305 185.122 115.519C185.335 115.732 185.455 116.021 185.456 116.323V131.567C185.455 131.869 185.335 132.158 185.122 132.372C184.909 132.585 184.619 132.705 184.318 132.705ZM122.863 115.64C122.682 115.64 122.508 115.712 122.38 115.84C122.252 115.968 122.18 116.142 122.18 116.323V131.567C122.18 131.749 122.252 131.922 122.38 132.05C122.508 132.178 122.682 132.25 122.863 132.25H184.318C184.499 132.25 184.672 132.178 184.8 132.05C184.928 131.922 185 131.749 185 131.567V116.323C185 116.142 184.928 115.968 184.8 115.84C184.672 115.712 184.499 115.64 184.318 115.64H122.863Z" fill="#CCCCCC"/>
<path d="M130.829 128.725C133.469 128.725 135.609 126.585 135.609 123.945C135.609 121.305 133.469 119.165 130.829 119.165C128.189 119.165 126.049 121.305 126.049 123.945C126.049 126.585 128.189 128.725 130.829 128.725Z" fill="#CCCCCC"/>
<path d="M141.868 120.759C141.657 120.759 141.454 120.843 141.305 120.992C141.155 121.141 141.072 121.344 141.072 121.555C141.072 121.767 141.155 121.969 141.305 122.119C141.454 122.268 141.657 122.352 141.868 122.352H179.425C179.53 122.354 179.634 122.335 179.731 122.297C179.829 122.259 179.918 122.202 179.993 122.129C180.069 122.056 180.129 121.969 180.171 121.873C180.213 121.777 180.235 121.673 180.237 121.569C180.238 121.464 180.219 121.36 180.181 121.262C180.142 121.165 180.085 121.076 180.012 121.001C179.939 120.926 179.852 120.865 179.756 120.824C179.659 120.782 179.556 120.76 179.451 120.759H141.869L141.868 120.759Z" fill="#E6E6E6"/>
<path d="M141.868 125.538C141.657 125.538 141.454 125.622 141.305 125.772C141.155 125.921 141.072 126.124 141.072 126.335C141.072 126.546 141.155 126.749 141.305 126.899C141.454 127.048 141.657 127.132 141.868 127.132H179.425C179.53 127.134 179.634 127.115 179.731 127.077C179.829 127.038 179.918 126.981 179.993 126.909C180.069 126.836 180.129 126.749 180.171 126.653C180.213 126.557 180.235 126.453 180.237 126.348C180.238 126.244 180.219 126.14 180.181 126.042C180.142 125.945 180.085 125.856 180.012 125.781C179.939 125.705 179.852 125.645 179.756 125.604C179.659 125.562 179.556 125.54 179.451 125.539H141.869L141.868 125.538Z" fill="#E6E6E6"/>
<path d="M164.125 72.5736C160.659 74.7755 156.644 75.9762 152.529 76.0412C148.414 76.1061 144.363 75.0328 140.828 72.9414C141.45 71.793 142.238 70.7411 143.167 69.8191C144.6 68.3903 146.344 67.3065 148.265 66.651C150.186 65.9954 152.233 65.7856 154.249 66.0375C156.265 66.2894 158.195 66.9965 159.893 68.1043C161.59 69.2121 163.009 70.6912 164.04 72.428C164.067 72.4749 164.097 72.5243 164.125 72.5736Z" fill="#006399"/>
<path d="M151.597 60.6593C157.666 60.6593 162.586 55.7393 162.586 49.6703C162.586 43.6012 157.666 38.6813 151.597 38.6813C145.528 38.6813 140.608 43.6012 140.608 49.6703C140.608 55.7393 145.528 60.6593 151.597 60.6593Z" fill="#2F2E41"/>
<path d="M158.68 57.4344C160.853 53.464 159.393 48.486 155.418 46.3156C151.443 44.1452 146.459 45.6043 144.286 49.5747C142.113 53.5451 143.574 58.5231 147.549 60.6935C151.524 62.8639 156.508 61.4048 158.68 57.4344Z" fill="#FFB8B8"/>
<path d="M143.905 48.3122C145.786 49.5935 148.017 50.2754 150.301 50.2663C149.486 50.8248 148.559 51.2019 147.583 51.3719C150.619 52.0158 153.757 52.0333 156.8 51.4231C157.476 51.3159 158.129 51.0943 158.73 50.7679C159.029 50.6027 159.289 50.3772 159.495 50.1058C159.7 49.8345 159.845 49.5235 159.921 49.1931C160.123 48.0509 159.223 47.0132 158.287 46.3139C156.855 45.2594 155.203 44.533 153.452 44.187C151.701 43.841 149.894 43.8842 148.162 44.3135C147.031 44.6025 145.898 45.0909 145.163 45.9889C144.428 46.887 144.211 48.2715 144.911 49.1962L143.905 48.3122Z" fill="#2F2E41"/>
<path d="M152.258 31.4286C146.315 31.4352 140.617 33.7989 136.414 38.0013C132.211 42.2036 129.846 47.9014 129.839 53.8448C129.84 55.6579 130.063 57.464 130.503 59.2229C130.549 59.4037 130.595 59.5845 130.643 59.7626C131.936 64.5036 134.753 68.6877 138.659 71.6697C142.565 74.6517 147.344 76.266 152.258 76.2638C157.173 76.2636 161.952 74.6487 165.86 71.6673C169.768 68.6859 172.588 64.5032 173.886 59.7626C173.935 59.5818 173.981 59.4037 174.024 59.2229C174.837 55.9207 174.888 52.4769 174.175 49.1518C173.461 45.8268 172 42.7076 169.903 40.0301C167.807 37.3526 165.128 35.1869 162.072 33.6967C159.015 32.2066 155.659 31.431 152.258 31.4286ZM173.511 59.2229C173.468 59.4037 173.42 59.5845 173.368 59.7626C172.458 63.0051 170.813 65.9944 168.561 68.4986C166.309 71.0029 163.51 72.9547 160.382 74.2029C157.254 75.4511 153.88 75.962 150.523 75.696C147.165 75.4301 143.914 74.3945 141.022 72.6694C136.214 69.7764 132.689 65.1615 131.161 59.7626C131.11 59.5818 131.061 59.4037 131.016 59.2229C130.566 57.4656 130.338 55.6588 130.338 53.8448C130.342 50.7398 131.005 47.671 132.284 44.8415C133.563 42.0121 135.428 39.4868 137.757 37.4327C140.085 35.3786 142.824 33.8426 145.791 32.9266C148.757 32.0106 151.885 31.7354 154.966 32.1192C158.047 32.503 161.012 33.5371 163.663 35.153C166.315 36.7689 168.593 38.9297 170.346 41.4923C172.099 44.0549 173.288 46.9607 173.834 50.0174C174.38 53.0741 174.27 56.2119 173.511 59.2229Z" fill="#3F3D56"/>
<line x1="40.4766" y1="79.5" x2="112.477" y2="79.5" stroke="black" stroke-dasharray="2 2"/>
<circle cx="74.4766" cy="79" r="15.5" fill="#F8FDFF" stroke="black"/>
<path d="M78.3791 76.3998V73.3783C78.3796 72.8035 78.2669 72.2342 78.0476 71.703C77.8284 71.1719 77.5068 70.6892 77.1012 70.2826C76.6956 69.876 76.2141 69.5534 75.684 69.3333C75.154 69.1133 74.5859 69 74.0121 69C73.4384 69 72.8702 69.1133 72.3402 69.3333C71.8101 69.5534 71.3286 69.876 70.923 70.2826C70.5175 70.6892 70.1959 71.1719 69.9766 71.703C69.7573 72.2342 69.6447 72.8035 69.6451 73.3783V76.3998C69.0613 76.4261 68.5102 76.6769 68.1063 77.1C67.7024 77.523 67.4769 78.0858 67.4766 78.6712V85.8113H80.5476V78.6712C80.5474 78.0858 80.3218 77.523 79.9179 77.1C79.514 76.6769 78.9629 76.4261 78.3791 76.3998ZM74.0121 70.5436C74.7622 70.5445 75.4814 70.8434 76.0118 71.3749C76.5422 71.9063 76.8406 72.6268 76.8414 73.3783V76.3945H71.1828V73.3783C71.1837 72.6268 71.482 71.9063 72.0124 71.3749C72.5428 70.8434 73.262 70.5445 74.0121 70.5436Z" fill="black"/>
<path d="M75.2087 80.3755C75.2088 80.1725 75.1565 79.973 75.0569 79.7963C74.9573 79.6196 74.8137 79.4716 74.6402 79.3669C74.4667 79.2621 74.2691 79.2041 74.0666 79.1985C73.8641 79.1928 73.6636 79.2397 73.4845 79.3346C73.3054 79.4294 73.1539 79.5691 73.0446 79.74C72.9353 79.9109 72.8719 80.1072 72.8607 80.3098C72.8495 80.5125 72.8907 80.7146 72.9804 80.8965C73.0702 81.0785 73.2054 81.2341 73.3729 81.3483V83.9068H74.6946V81.3483C74.853 81.2405 74.9827 81.0955 75.0723 80.9259C75.1619 80.7563 75.2088 80.5674 75.2087 80.3755Z" fill="#F8FDFF"/>
<path d="M92.7308 51.5L88.4766 55.731L138.11 105.092L142.364 100.861L92.7308 51.5Z" fill="#FFB4A5"/>
<path d="M142.731 55.9619L138.477 51.731L88.8434 101.092L93.0976 105.323L142.731 55.9619Z" fill="#FFB4A5"/>
</g>
<defs>
<clipPath id="clip0_57718_35870">
<rect width="192" height="160" fill="white" transform="translate(0.476562)"/>
</clipPath>
</defs>
</svg>
