<svg width="260" height="160" viewBox="0 0 260 160" fill="none" xmlns="http://www.w3.org/2000/svg">
<g clip-path="url(#clip0_69568_95107)">
<path d="M176.644 74.3611L61.8804 140.333L28.1994 120.972L142.963 55L176.644 74.3611Z" fill="#94989E"/>
<path d="M168.36 98.6126L101.078 137.319L81.3461 126.01L148.238 87.6095L168.36 98.6126Z" fill="#94989E"/>
<path d="M32.3289 93.5041L-0.244141 112.31L25.2015 127H50.4293L32.3289 93.5041Z" fill="#94989E"/>
<g style="mix-blend-mode:multiply" opacity="0.4">
<path d="M70.2759 80.6465L37.7029 99.4519L63.1485 114.142H88.3763L70.2759 80.6465Z" fill="#333333"/>
</g>
<path d="M116.642 34.8824L108.823 30.3701L106.515 63.8148L116.642 66.9939V34.8824Z" fill="#808080"/>
<path d="M50.6743 126.666L24.1647 111.361V79.249L50.6743 94.5549V126.666Z" fill="#808080"/>
<path d="M103.951 63.79L50.675 94.5556V126.667L103.951 95.9016V63.79Z" fill="#E6E6E6"/>
<path d="M105.517 62.8921V95.0036L153.306 67.4044V35.3057L105.517 62.8921Z" fill="#CCCCCC"/>
<path d="M153.305 35.3059L126.795 20L108.823 30.3705L112.335 32.3959L45.6382 70.9041L42.1258 68.8787L24.1664 79.2493L50.676 94.5551L153.305 35.3059Z" fill="#E6E6E6"/>
<path d="M86.7352 72.9939V63.29L74.9546 56.4831L113.617 34.1653V32.3962L111.63 31.2554L126.795 22.5L150.497 36.1907L152.022 35.3062L86.7352 72.9939Z" fill="#333333"/>
<path d="M63.4302 63.1357L45.6375 73.4037L42.1251 71.3783L26.9731 80.1337L25.4476 79.2492L50.6626 93.8244L83.6073 74.801L63.4302 63.1486V63.1357Z" fill="#333333"/>
<g style="mix-blend-mode:multiply" opacity="0.4">
<path d="M57.932 66.302V66.3148L78.1219 77.9673L83.6084 74.801L63.4313 63.1486V63.1357L57.932 66.302Z" fill="#333333"/>
</g>
<path d="M25.4476 79.2491L26.9731 80.1336L42.1251 71.3783V69.6221L25.4476 79.2491Z" fill="#E6E6E6"/>
<path d="M110.104 30.3702L111.629 31.2547L126.794 22.4994V20.7432L110.104 30.3702Z" fill="#E6E6E6"/>
<path d="M66.1229 59.8163V61.5725L113.617 34.1655V32.3965L66.1229 59.8163Z" fill="#E6E6E6"/>
<path d="M45.6385 71.6474V73.4036L63.5082 63.0843V61.3281L45.6385 71.6474Z" fill="#E6E6E6"/>
<path d="M57.8661 64.5841V66.3403L63.5064 63.0843V61.3281L57.8661 64.5841Z" fill="#808080"/>
<path d="M42.1265 69.6221V71.3783L45.6389 73.4037V71.6475L42.1265 69.6221Z" fill="#808080"/>
<path d="M126.797 20.7432V22.4994L150.499 36.19L152.024 35.3055L126.797 20.7432Z" fill="#808080"/>
<path d="M86.0948 61.1357L62.7771 47.6758V60.9947L86.0948 74.4546V61.1357Z" fill="#808080"/>
<path d="M83.6196 61.4686L63.4681 49.8418V63.1607L83.6196 74.8003L85.1707 73.9286L83.6196 72.7365V61.4686Z" fill="#808080"/>
<path d="M124.732 57.9055L125.463 58.3285L154.754 41.4203L153.306 40.5742V41.4075L124.732 57.9055Z" fill="#E6E6E6"/>
<path d="M124.732 58.7521L125.86 58.9829L154.754 42.3054V41.4209L124.732 58.7521Z" fill="#808080"/>
<path d="M124.745 61.1753L116.618 56.4707V88.6079L124.745 93.2996V61.1753Z" fill="#808080"/>
<path d="M130.282 90.0941L124.745 93.2988V61.1745L130.282 57.9697V90.0941Z" fill="#808080"/>
<path d="M124.745 61.1748L116.618 56.4702L122.156 53.2783L130.283 57.9701L124.745 61.1748Z" fill="#E6E6E6"/>
<path d="M124.745 67.2763V68.1223L131.744 64.0843L130.282 63.2383V64.0843L124.745 67.2763Z" fill="#E6E6E6"/>
<path d="M124.745 68.122V69.0065L131.744 64.9685V64.084L124.745 68.122Z" fill="#808080"/>
<path d="M150.856 41.5875L148.036 43.2283V39.6262L150.856 37.9854V41.5875Z" fill="#42474E"/>
<mask id="mask0_69568_95107" style="mask-type:luminance" maskUnits="userSpaceOnUse" x="148" y="37" width="3" height="7">
<path d="M150.857 41.5875L148.037 43.2283V39.6262L150.857 37.9854V41.5875Z" fill="white"/>
</mask>
<g mask="url(#mask0_69568_95107)">
<path d="M147.243 25.5249V43.2535L150.486 41.382V23.6533L147.243 25.5249ZM150.217 24.0635V27.2811L147.5 28.845V25.6274L150.217 24.0635ZM147.5 35.8442V32.6138L150.217 31.0499V34.2803L147.5 35.8442ZM150.217 34.5366V37.767L147.5 39.3309V36.1005L150.217 34.5366ZM147.5 32.3446V29.1142L150.217 27.5503V30.7807L147.5 32.3446ZM147.5 42.8433V39.6129L150.217 38.049V41.2794L147.5 42.8433Z" fill="#666666"/>
</g>
<path d="M150.472 38.2161V41.3696L148.036 42.7796V43.2283L150.856 41.5875V37.9854L150.472 38.2161Z" fill="#808080"/>
<path d="M148.036 42.7792V43.2279L150.856 41.5871L150.472 41.3691L148.036 42.7792Z" fill="#E6E6E6"/>
<path d="M143.742 45.7017L140.922 47.3298V43.7276L143.742 42.0996V45.7017Z" fill="#42474E"/>
<mask id="mask1_69568_95107" style="mask-type:luminance" maskUnits="userSpaceOnUse" x="140" y="42" width="4" height="6">
<path d="M143.74 45.7017L140.92 47.3298V43.7276L143.74 42.0996V45.7017Z" fill="white"/>
</mask>
<g mask="url(#mask1_69568_95107)">
<path d="M140.128 29.6274V47.3561L143.371 45.4845V27.7559L140.128 29.6274ZM143.115 28.1661V31.3836L140.397 32.9475V29.73L143.115 28.1661ZM140.397 39.9467V36.7163L143.115 35.1524V38.3828L140.397 39.9467ZM143.115 38.6392V41.8695L140.397 43.4335V40.2031L143.115 38.6392ZM140.397 36.4471V33.2167L143.115 31.6528V34.8832L140.397 36.4471ZM140.397 46.9459V43.7155L143.115 42.1516V45.3819L140.397 46.9459Z" fill="#666666"/>
</g>
<path d="M143.357 42.3175V45.471L140.922 46.8811V47.3298L143.742 45.7017V42.0996L143.357 42.3175Z" fill="#808080"/>
<path d="M140.922 46.8818V47.3304L143.742 45.7024L143.357 45.4717L140.922 46.8818Z" fill="#E6E6E6"/>
<path d="M136.641 49.8043L133.821 51.4323V47.8302L136.641 46.2021V49.8043Z" fill="#42474E"/>
<mask id="mask2_69568_95107" style="mask-type:luminance" maskUnits="userSpaceOnUse" x="133" y="46" width="4" height="6">
<path d="M136.641 49.8043L133.821 51.4323V47.8302L136.641 46.2021V49.8043Z" fill="white"/>
</mask>
<g mask="url(#mask2_69568_95107)">
<path d="M133.027 33.729V51.4576L136.27 49.5861V31.8574L133.027 33.729ZM136.001 32.2676V35.4852L133.283 37.0491V33.8315L136.001 32.2676ZM133.283 44.0483V40.8179L136.001 39.254V42.4844L133.283 44.0483ZM136.001 42.7407V45.9711L133.283 47.535V44.3046L136.001 42.7407ZM133.283 40.5615V37.3311L136.001 35.7672V38.9976L133.283 40.5615ZM133.283 51.0474V47.817L136.001 46.2531V49.4835L133.283 51.0474Z" fill="#666666"/>
</g>
<path d="M136.257 46.4201V49.5735L133.821 50.9836V51.4323L136.641 49.8043V46.2021L136.257 46.4201Z" fill="#808080"/>
<path d="M133.821 50.9833V51.432L136.641 49.804L136.257 49.5732L133.821 50.9833Z" fill="#E6E6E6"/>
<path d="M129.525 53.9058L126.705 55.5339V51.9317L129.525 50.3037V53.9058Z" fill="#42474E"/>
<mask id="mask3_69568_95107" style="mask-type:luminance" maskUnits="userSpaceOnUse" x="126" y="50" width="4" height="6">
<path d="M129.526 53.9058L126.706 55.5339V51.9317L129.526 50.3037V53.9058Z" fill="white"/>
</mask>
<g mask="url(#mask3_69568_95107)">
<path d="M125.911 37.8315V55.5602L129.154 53.6886V35.96L125.911 37.8315ZM128.898 36.383V39.6005L126.18 41.1645V37.9469L128.898 36.383ZM126.167 48.1636V44.9332L128.885 43.3693V46.5997L126.167 48.1636ZM128.898 46.8433V50.0736L126.18 51.6376V48.4072L128.898 46.8433ZM126.167 44.664V41.4337L128.885 39.8697V43.1001L126.167 44.664ZM126.167 55.15V51.9196L128.885 50.3557V53.586L126.167 55.15Z" fill="#666666"/>
</g>
<path d="M129.14 50.5216V53.6879L126.705 55.098V55.5339L129.525 53.9058V50.3037L129.14 50.5216Z" fill="#808080"/>
<path d="M126.705 55.0986V55.5344L129.525 53.9064L129.14 53.6885L126.705 55.0986Z" fill="#E6E6E6"/>
<path d="M96.8765 67.3536L85.8137 60.9697V106.439L96.8765 112.822V67.3536Z" fill="#808080"/>
<path d="M127.678 95.0421L96.8743 112.822V67.3532L127.678 49.5732V95.0421Z" fill="#E6E6E6"/>
<path d="M93.5939 29.8965L62.7771 47.6764L96.8756 67.3535L127.68 49.5736L93.5939 29.8965Z" fill="#E6E6E6"/>
<path d="M93.593 32.7168L65.8656 48.7149L96.8747 66.623L124.589 50.6121L93.593 32.7168Z" fill="#333333"/>
<path d="M64.0583 47.6762L65.8658 48.7145L93.5933 32.7164V30.627L64.0583 47.6762Z" fill="#E6E6E6"/>
<path d="M93.593 30.627V32.7164L124.589 50.6117L126.397 49.5734L93.593 30.627Z" fill="#808080"/>
<path d="M77.6983 105.836L74.8782 107.464V89.6202L77.6983 87.9922V105.836Z" fill="#42474E"/>
<mask id="mask4_69568_95107" style="mask-type:luminance" maskUnits="userSpaceOnUse" x="74" y="87" width="4" height="21">
<path d="M77.701 105.836L74.8809 107.464V89.6202L77.701 87.9922V105.836Z" fill="white"/>
</mask>
<g mask="url(#mask4_69568_95107)">
<path d="M74.0869 89.7612V107.49L77.3301 105.618V87.8896L74.0869 89.7612ZM77.0609 88.2999V91.5174L74.3433 93.0813V89.8638L77.0609 88.2999ZM74.3433 100.08V96.8501L77.0609 95.2862V98.5166L74.3433 100.08ZM77.0609 98.773V102.003L74.3433 103.567V100.337L77.0609 98.773ZM74.3433 96.5809V93.3505L77.0609 91.7866V95.017L74.3433 96.5809ZM74.3433 107.08V103.849L77.0609 102.285V105.516L74.3433 107.08Z" fill="#666666"/>
</g>
<path d="M77.3138 88.2101V105.605L74.8782 107.016V107.464L77.6983 105.836V87.9922L77.3138 88.2101Z" fill="#808080"/>
<path d="M74.8782 107.016V107.464L77.6983 105.836L77.3138 105.605L74.8782 107.016Z" fill="#E6E6E6"/>
<path d="M70.582 109.938L67.7618 111.566V93.7218L70.582 92.0938V109.938Z" fill="#42474E"/>
<mask id="mask5_69568_95107" style="mask-type:luminance" maskUnits="userSpaceOnUse" x="67" y="92" width="4" height="20">
<path d="M70.5812 109.938L67.761 111.566V93.7218L70.5812 92.0938V109.938Z" fill="white"/>
</mask>
<g mask="url(#mask5_69568_95107)">
<path d="M66.9672 93.8628V111.591L70.2104 109.72V91.9912L66.9672 93.8628ZM69.954 92.4014V95.619L67.2364 97.1829V93.9653L69.954 92.4014ZM67.2364 104.182V100.952L69.954 99.3878V102.618L67.2364 104.182ZM69.954 102.875V106.105L67.2364 107.669V104.438L69.954 102.875ZM67.2364 100.695V97.4649L69.954 95.901V99.1314L67.2364 100.695ZM67.2364 111.181V107.951L69.954 106.387V109.617L67.2364 111.181Z" fill="#666666"/>
</g>
<path d="M70.1974 92.3117V109.707L67.7618 111.117V111.566L70.582 109.938V92.0938L70.1974 92.3117Z" fill="#808080"/>
<path d="M67.7618 111.117V111.566L70.582 109.938L70.1974 109.707L67.7618 111.117Z" fill="#E6E6E6"/>
<path d="M63.4814 114.04L60.6613 115.668V97.8243L63.4814 96.1963V114.04Z" fill="#42474E"/>
<mask id="mask6_69568_95107" style="mask-type:luminance" maskUnits="userSpaceOnUse" x="60" y="96" width="4" height="20">
<path d="M63.4831 114.039L60.663 115.667V97.8233L63.4831 96.1953V114.039Z" fill="white"/>
</mask>
<g mask="url(#mask6_69568_95107)">
<path d="M59.8695 97.9643V115.693L63.1127 113.821V96.0928L59.8695 97.9643ZM62.8435 96.5158V99.7334L60.1259 101.297V98.0797L62.8435 96.5158ZM60.1259 108.296V105.066L62.8435 103.502V106.733L60.1259 108.296ZM62.8435 106.976V110.206L60.1259 111.77V108.54L62.8435 106.976ZM60.1259 104.797V101.566L62.8435 100.003V103.233L60.1259 104.797ZM60.1259 115.283V112.052L62.8435 110.488V113.719L60.1259 115.283Z" fill="#666666"/>
</g>
<path d="M63.0969 96.4142V113.822L60.6613 115.232V115.668L63.4814 114.04V96.1963L63.0969 96.4142Z" fill="#808080"/>
<path d="M60.6613 115.232V115.668L63.4814 114.04L63.0969 113.822L60.6613 115.232Z" fill="#E6E6E6"/>
<path d="M56.3668 118.142L53.5466 119.77V101.939L56.3668 100.298V118.142Z" fill="#42474E"/>
<mask id="mask7_69568_95107" style="mask-type:luminance" maskUnits="userSpaceOnUse" x="53" y="100" width="4" height="20">
<path d="M56.3638 118.142L53.5436 119.77V101.939L56.3638 100.298V118.142Z" fill="white"/>
</mask>
<g mask="url(#mask7_69568_95107)">
<path d="M52.7532 102.08V119.808L55.9964 117.937V100.208L52.7532 102.08ZM55.74 100.618V103.836L53.0224 105.4V102.182L55.74 100.618ZM53.0224 112.399V109.168L55.74 107.605V110.835L53.0224 112.399ZM55.74 111.091V114.322L53.0224 115.886V112.655L55.74 111.091ZM53.0224 108.899V105.669L55.74 104.105V107.335L53.0224 108.899ZM53.0224 119.385V116.155L55.74 114.591V117.821L53.0224 119.385Z" fill="#666666"/>
</g>
<path d="M55.9822 100.529V117.924L53.5466 119.334V119.77L56.3668 118.142V100.298L55.9822 100.529Z" fill="#808080"/>
<path d="M53.5466 119.334V119.77L56.3668 118.142L55.9822 117.924L53.5466 119.334Z" fill="#E6E6E6"/>
<path d="M77.6983 83.8258L74.8782 85.4666V81.8645L77.6983 80.2236V83.8258Z" fill="#42474E"/>
<mask id="mask8_69568_95107" style="mask-type:luminance" maskUnits="userSpaceOnUse" x="74" y="80" width="4" height="6">
<path d="M77.701 83.8258L74.8809 85.4666V81.8645L77.701 80.2236V83.8258Z" fill="white"/>
</mask>
<g mask="url(#mask8_69568_95107)">
<path d="M74.0869 67.7632V85.4918L77.3301 83.6202V65.8916L74.0869 67.7632ZM77.0609 66.3018V69.5194L74.3433 71.0833V67.8657L77.0609 66.3018ZM74.3433 78.0824V74.8521L77.0609 73.2881V76.5185L74.3433 78.0824ZM77.0609 76.7749V80.0053L74.3433 81.5692V78.3388L77.0609 76.7749ZM74.3433 74.5829V71.3525L77.0609 69.7886V73.019L74.3433 74.5829ZM74.3433 85.0688V81.8384L77.0609 80.2745V83.5049L74.3433 85.0688Z" fill="#666666"/>
</g>
<path d="M77.3138 80.4544V83.6078L74.8782 85.0179V85.4666L77.6983 83.8258V80.2236L77.3138 80.4544Z" fill="#808080"/>
<path d="M74.8782 85.0175V85.4662L77.6983 83.8253L77.3138 83.6074L74.8782 85.0175Z" fill="#E6E6E6"/>
<path d="M70.582 87.9401L67.7618 89.5682V85.966L70.582 84.3252V87.9401Z" fill="#42474E"/>
<mask id="mask9_69568_95107" style="mask-type:luminance" maskUnits="userSpaceOnUse" x="67" y="84" width="4" height="6">
<path d="M70.5812 87.9411L67.761 89.5691V85.967L70.5812 84.3262V87.9411Z" fill="white"/>
</mask>
<g mask="url(#mask9_69568_95107)">
<path d="M66.9672 71.8657V89.5944L70.2104 87.7228V69.9941L66.9672 71.8657ZM69.954 70.4043V73.6219L67.2364 75.1858V71.9683L69.954 70.4043ZM67.2364 82.185V78.9546L69.954 77.3907V80.6211L67.2364 82.185ZM69.954 80.8775V84.1078L67.2364 85.6717V82.4414L69.954 80.8775ZM67.2364 78.6854V75.455L69.954 73.8911V77.1215L67.2364 78.6854ZM67.2364 89.1841V85.9538L69.954 84.3898V87.6202L67.2364 89.1841Z" fill="#666666"/>
</g>
<path d="M70.1974 84.5559V87.7094L67.7618 89.1195V89.5682L70.582 87.9401V84.3252L70.1974 84.5559Z" fill="#808080"/>
<path d="M67.7618 89.12V89.5687L70.582 87.9407L70.1974 87.71L67.7618 89.12Z" fill="#E6E6E6"/>
<path d="M63.4814 92.0426L60.6613 93.6706V90.0684L63.4814 88.4404V92.0426Z" fill="#42474E"/>
<mask id="mask10_69568_95107" style="mask-type:luminance" maskUnits="userSpaceOnUse" x="60" y="88" width="4" height="6">
<path d="M63.4831 92.0426L60.663 93.6706V90.0684L63.4831 88.4404V92.0426Z" fill="white"/>
</mask>
<g mask="url(#mask10_69568_95107)">
<path d="M59.8695 75.9673V93.6959L63.1127 91.8243V74.0957L59.8695 75.9673ZM62.8435 74.5059V77.7235L60.1259 79.2874V76.0698L62.8435 74.5059ZM60.1259 86.2865V83.0562L62.8435 81.4923V84.7226L60.1259 86.2865ZM62.8435 84.979V88.2094L60.1259 89.7733V86.5429L62.8435 84.979ZM60.1259 82.787V79.5566L62.8435 77.9927V81.223L60.1259 82.787ZM60.1259 93.2857V90.0553L62.8435 88.4914V91.7218L60.1259 93.2857Z" fill="#666666"/>
</g>
<path d="M63.0969 88.6584V91.8118L60.6613 93.2219V93.6706L63.4814 92.0426V88.4404L63.0969 88.6584Z" fill="#808080"/>
<path d="M60.6613 93.2216V93.6703L63.4814 92.0423L63.0969 91.8115L60.6613 93.2216Z" fill="#E6E6E6"/>
<path d="M56.3668 96.1451L53.5466 97.7731V94.171L56.3668 92.543V96.1451Z" fill="#42474E"/>
<mask id="mask11_69568_95107" style="mask-type:luminance" maskUnits="userSpaceOnUse" x="53" y="92" width="4" height="6">
<path d="M56.3638 96.1451L53.5436 97.7731V94.171L56.3638 92.543V96.1451Z" fill="white"/>
</mask>
<g mask="url(#mask11_69568_95107)">
<path d="M52.7532 80.0698V97.7984L55.9964 95.9269V78.1982L52.7532 80.0698ZM55.74 78.6084V81.826L53.0224 83.3899V80.1724L55.74 78.6084ZM53.0224 90.3891V87.1587L55.74 85.5948V88.8252L53.0224 90.3891ZM55.74 89.0815V92.3119L53.0224 93.8758V90.6455L55.74 89.0815ZM53.0224 86.9023V83.6719L55.74 82.108V85.3384L53.0224 86.9023ZM53.0224 97.3882V94.1579L55.74 92.5939V95.8243L53.0224 97.3882Z" fill="#666666"/>
</g>
<path d="M55.9822 92.7609V95.9272L53.5466 97.3244V97.7731L56.3668 96.1451V92.543L55.9822 92.7609Z" fill="#808080"/>
<path d="M53.5466 97.324V97.7727L56.3668 96.1447L55.9822 95.9268L53.5466 97.324Z" fill="#E6E6E6"/>
<g style="mix-blend-mode:multiply" opacity="0.7">
<path d="M80.2364 77.4932L72.4425 86.8638V114.091L83.8386 107.515L85.1717 102.4L80.2364 77.4932Z" fill="#E6E6E6"/>
</g>
<path d="M88.3767 82.1723L80.2367 77.4678V109.605L88.3767 114.297V82.1723Z" fill="#808080"/>
<path d="M93.9134 111.104L88.3756 114.296V82.1715L93.9134 78.9668V111.104Z" fill="#E6E6E6"/>
<path d="M88.3767 82.1719L80.2367 77.4673L85.7745 74.2754L93.9145 78.9671L88.3767 82.1719Z" fill="#E6E6E6"/>
<path d="M101.337 121.269L88.3773 113.783V114.296L101.337 121.782V121.269Z" fill="#808080"/>
<path d="M142.779 97.8624L101.336 121.783V121.27L142.779 97.3496V97.8624Z" fill="#E6E6E6"/>
<path d="M101.337 121.27L88.3773 113.783L129.808 89.8633L142.781 97.3496L101.337 121.27Z" fill="#E6E6E6"/>
<path d="M101.401 120.244L88.8383 112.988V113.514L101.401 120.757V120.244Z" fill="#808080"/>
<path d="M141.936 97.3624L101.402 120.757V120.244L141.936 96.8496V97.3624Z" fill="#E6E6E6"/>
<path d="M101.401 120.244L88.8383 112.988L129.372 89.5938L141.934 96.8493L101.401 120.244Z" fill="#E6E6E6"/>
<path d="M101.424 119.193L89.3098 112.193V112.719L101.424 119.705V119.193Z" fill="#808080"/>
<path d="M140.931 96.9005L101.423 119.705V119.193L140.931 96.3877V96.9005Z" fill="#E6E6E6"/>
<path d="M101.424 119.193L89.3098 112.194L128.818 89.3887L140.932 96.3878L101.424 119.193Z" fill="#E6E6E6"/>
<path d="M101.438 118.169L89.7473 111.426V111.939L101.438 118.681V118.169Z" fill="#808080"/>
<path d="M139.932 96.4532L101.437 118.681V118.169L139.932 95.9404V96.4532Z" fill="#E6E6E6"/>
<path d="M101.438 118.168L89.7473 111.425L128.243 89.1973L139.934 95.94L101.438 118.168Z" fill="#E6E6E6"/>
<path d="M101.489 117.143L90.2085 110.631V111.144L101.489 117.656V117.143Z" fill="#808080"/>
<path d="M138.96 96.0295L101.49 117.655V117.142L138.96 95.5039V96.0295Z" fill="#E6E6E6"/>
<path d="M101.489 117.143L90.2085 110.63L127.678 89.0049L138.959 95.5041L101.489 117.143Z" fill="#E6E6E6"/>
<path opacity="0.8" d="M116.462 95.478L122.666 91.8887L124.871 95.9651H117.308L116.462 95.478Z" fill="#808080"/>
<path opacity="0.8" d="M100.246 104.836L91.1317 110.105H96.8746L96.2208 108.912H102.451L100.246 104.836Z" fill="#808080"/>
<path opacity="0.8" d="M109.772 99.3363L110.618 99.8362H118.182L115.977 95.7598L109.772 99.3363Z" fill="#808080"/>
<path opacity="0.8" d="M101.593 105.041H109.156L106.951 100.965L100.734 104.554L101.593 105.041Z" fill="#808080"/>
<path d="M96.8752 67.4305L93.9269 65.7256V108.4L96.8752 110.105V67.4305Z" fill="#808080"/>
<path d="M127.68 92.312L96.8765 110.105V78.8649L127.68 61.085V92.312Z" fill="#E6E6E6"/>
<path d="M106.783 100.939L103.963 102.567V84.7227L106.783 83.0947V100.939Z" fill="#42474E"/>
<mask id="mask12_69568_95107" style="mask-type:luminance" maskUnits="userSpaceOnUse" x="103" y="83" width="4" height="20">
<path d="M106.783 100.939L103.963 102.567V84.7227L106.783 83.0947V100.939Z" fill="white"/>
</mask>
<g mask="url(#mask12_69568_95107)">
<path d="M103.169 84.8638V102.592L106.412 100.721V82.9922L103.169 84.8638ZM106.143 83.4024V86.62L103.426 88.1839V84.9663L106.143 83.4024ZM103.426 95.183V91.9527L106.143 90.3887V93.6191L103.426 95.183ZM106.143 93.8755V97.1059L103.426 98.6698V95.4394L106.143 93.8755ZM103.426 91.6963V88.4659L106.143 86.902V90.1324L103.426 91.6963ZM103.426 102.182V98.9518L106.143 97.3879V100.618L103.426 102.182Z" fill="#666666"/>
</g>
<path d="M106.399 83.3126V100.708L103.963 102.118V102.567L106.783 100.939V83.0947L106.399 83.3126Z" fill="#808080"/>
<path d="M103.963 102.118V102.567L106.783 100.939L106.399 100.708L103.963 102.118Z" fill="#E6E6E6"/>
<path d="M122.565 91.8244L119.732 93.4652V75.6212L122.565 73.9932V91.8244Z" fill="#42474E"/>
<mask id="mask13_69568_95107" style="mask-type:luminance" maskUnits="userSpaceOnUse" x="119" y="73" width="4" height="21">
<path d="M122.565 91.8253L119.732 93.4662V75.6222L122.565 73.9941V91.8253Z" fill="white"/>
</mask>
<g mask="url(#mask13_69568_95107)">
<path d="M118.941 75.7632V93.4918L122.184 91.6202V73.8916L118.941 75.7632ZM121.927 74.3018V77.5194L119.21 79.0833V75.8657L121.927 74.3018ZM119.21 86.0824V82.8521L121.927 81.2881V84.5185L119.21 86.0824ZM121.927 84.7749V88.0053L119.21 89.5692V86.3388L121.927 84.7749ZM119.21 82.5829V79.3525L121.927 77.7886V81.0189L119.21 82.5829ZM119.21 93.0816V89.8512L121.927 88.2873V91.5177L119.21 93.0816Z" fill="#666666"/>
</g>
<path d="M122.181 74.2111V91.6064L119.732 93.0165V93.4652L122.565 91.8244V73.9932L122.181 74.2111Z" fill="#808080"/>
<path d="M119.732 93.0165V93.4652L122.565 91.8244L122.181 91.6064L119.732 93.0165Z" fill="#E6E6E6"/>
<path d="M115.835 88.7356L113.22 90.2354V79.3777L115.835 77.8779V88.7356Z" fill="#42474E"/>
<mask id="mask14_69568_95107" style="mask-type:luminance" maskUnits="userSpaceOnUse" x="113" y="77" width="3" height="14">
<path d="M115.838 88.7356L113.223 90.2354V79.3777L115.838 77.8779V88.7356Z" fill="white"/>
</mask>
<g mask="url(#mask14_69568_95107)">
<path d="M112.429 79.5188V97.2474L115.454 95.504V77.7754L112.429 79.5188ZM115.198 78.1856V81.4032L112.698 82.8517V79.6341L115.198 78.1856ZM112.698 89.838V86.6077L115.198 85.1591V88.3895L112.698 89.838ZM115.198 88.6587V91.8891L112.698 93.3376V90.1072L115.198 88.6587ZM112.698 86.3385V83.1081L115.198 81.6595V84.8899L112.698 86.3385ZM112.698 96.8372V93.6068L115.198 92.1583V95.3887L112.698 96.8372Z" fill="#666666"/>
</g>
<path d="M115.451 78.0958V88.5177L113.22 89.7996V90.2354L115.835 88.7356V77.8779L115.451 78.0958Z" fill="#808080"/>
<path d="M113.22 89.7995V90.2353L115.835 88.7355L115.451 88.5176L113.22 89.7995Z" fill="#E6E6E6"/>
<path d="M112.667 90.5687L110.052 92.0686V81.2109L112.667 79.6982V90.5687Z" fill="#42474E"/>
<mask id="mask15_69568_95107" style="mask-type:luminance" maskUnits="userSpaceOnUse" x="110" y="79" width="3" height="14">
<path d="M112.669 90.5687L110.054 92.0686V81.2109L112.669 79.6982V90.5687Z" fill="white"/>
</mask>
<g mask="url(#mask15_69568_95107)">
<path d="M109.26 81.3518V99.0804L112.285 97.337V79.6084L109.26 81.3518ZM112.029 80.0186V83.2362L109.529 84.6847V81.4672L112.029 80.0186ZM109.529 91.6711V88.4407L112.029 86.9921V90.2225L109.529 91.6711ZM112.029 90.4917V93.7221L109.529 95.1706V91.9402L112.029 90.4917ZM109.529 88.1715V84.9411L112.029 83.4925V86.7229L109.529 88.1715ZM109.529 98.6702V95.4398L112.029 93.9913V97.2217L109.529 98.6702Z" fill="#666666"/>
</g>
<path d="M112.282 79.929V90.338L110.052 91.6327V92.0686L112.667 90.5687V79.6982L112.282 79.929Z" fill="#808080"/>
<path d="M110.052 91.6326V92.0685L112.667 90.5686L112.282 90.3379L110.052 91.6326Z" fill="#E6E6E6"/>
<path d="M115.873 90.3379L110.527 93.4273V102.195L115.873 99.1061V90.3379Z" fill="#42474E"/>
<g style="mix-blend-mode:multiply" opacity="0.4">
<path d="M113.116 91.9401V100.695L113.231 100.631V91.876C113.231 91.876 113.206 91.876 113.193 91.9016C113.167 91.9144 113.142 91.9401 113.129 91.9529L113.116 91.9401Z" fill="#333333"/>
</g>
<path opacity="0.8" d="M114.412 92.9524L113.437 93.5164V92.3883L114.412 91.8243V92.9524ZM115.655 91.1064L114.681 91.6705V92.7985L115.655 92.2345V91.1064ZM114.412 93.1575L113.437 93.7215V94.8496L114.412 94.2855V93.1575ZM115.655 92.4396L114.681 93.0037V94.1317L115.655 93.5677V92.4396ZM114.412 94.4907L113.437 95.0547V96.1828L114.412 95.6187V94.4907ZM115.655 93.7728L114.681 94.3368V95.4649L115.655 94.9009V93.7728Z" fill="#333333"/>
<path opacity="0.8" d="M111.693 94.5167L110.719 95.0807V93.9527L111.693 93.3886V94.5167ZM112.936 92.6836L111.962 93.2476V94.3757L112.936 93.8117V92.6836ZM111.693 94.7218L110.719 95.2858V96.4139L111.693 95.8499V94.7218ZM112.936 94.0039L111.962 94.568V95.6961L112.936 95.132V94.0039ZM111.693 96.055L110.719 96.619V97.7471L111.693 97.1831V96.055ZM112.936 95.3371L111.962 95.9012V97.0292L112.936 96.4652V95.3371Z" fill="#333333"/>
<path d="M113.554 97.4141L113.426 97.3372V96.6963L113.554 96.7732V97.4141Z" fill="#666666"/>
<path d="M113.708 97.3372L113.554 97.4141V96.7732L113.708 96.6963V97.3372Z" fill="#666666"/>
<path d="M113.554 96.773L113.426 96.6961L113.567 96.6191L113.708 96.6961L113.554 96.773Z" fill="#808080"/>
<path d="M112.873 97.8243L112.745 97.7474V97.1064L112.873 97.1834V97.8243Z" fill="#666666"/>
<path d="M113.027 97.7474L112.873 97.8243V97.1834L113.027 97.1064V97.7474Z" fill="#666666"/>
<path d="M112.873 97.1831L112.745 97.1062L112.886 97.0293L113.027 97.1062L112.873 97.1831Z" fill="#808080"/>
<g style="mix-blend-mode:multiply" opacity="0.7">
<path d="M101.196 82.5053L102.67 106.759L98.9911 108.887V83.8129L99.9397 82.0054L101.196 82.5182V82.5053ZM109.785 77.6982L105.683 80.0697V105.015L109.785 102.644V77.6982ZM118.502 72.6604L114.617 74.9037V99.8494L118.502 97.6061V72.6604ZM121.399 70.9939V95.9396L124.86 93.9399V68.9941L121.399 70.9939Z" fill="#E6E6E6"/>
</g>
<path d="M124.974 70.3662L126.73 71.3917L124.859 72.4685L123.09 71.4558L124.974 70.3662Z" fill="#E6E6E6"/>
<path d="M124.859 95.9787L123.09 94.9532V71.4561L124.859 72.4688V95.9787Z" fill="#808080"/>
<path d="M126.732 94.8888L124.86 95.9784V72.4684L126.732 71.3916V94.8888Z" fill="#CCCCCC"/>
<path d="M118.271 74.2373L120.04 75.25L118.168 76.3396L116.399 75.3141L118.271 74.2373Z" fill="#E6E6E6"/>
<path d="M118.168 99.85L116.399 98.8244V75.3145L118.168 76.34V99.85Z" fill="#808080"/>
<path d="M120.041 98.76L118.17 99.8496V76.3396L120.041 75.25V98.76Z" fill="#CCCCCC"/>
<path d="M109.258 79.4287L111.027 80.4542L109.155 81.5438L107.386 80.5183L109.258 79.4287Z" fill="#E6E6E6"/>
<path d="M109.155 105.041L107.386 104.029V80.5186L109.155 81.5441V105.041Z" fill="#808080"/>
<path d="M111.029 103.964L109.157 105.041V81.5437L111.029 80.4541V103.964Z" fill="#CCCCCC"/>
<path d="M102.566 83.2998L104.335 84.3253L102.451 85.4021L100.682 84.3894L102.566 83.2998Z" fill="#E6E6E6"/>
<path d="M102.451 108.912L100.682 107.887V84.3896L102.451 85.4023V108.912Z" fill="#808080"/>
<path d="M104.337 107.822L102.453 108.912V85.402L104.337 84.3252V107.822Z" fill="#CCCCCC"/>
<path d="M125.256 67.8018L127.359 69.0196L102.451 83.3896L100.349 82.1846L125.256 67.8018Z" fill="#E6E6E6"/>
<path d="M102.451 85.8252L100.349 84.6074V82.1846L102.451 83.3896V85.8252Z" fill="#808080"/>
<path d="M127.359 71.4423L102.452 85.8252V83.3896L127.359 69.0195V71.4423Z" fill="#CCCCCC"/>
<path opacity="0.7" d="M108.298 68.8404C108.298 71.4298 110.119 72.481 112.362 71.1863C114.605 69.8916 116.426 66.7381 116.426 64.1615C116.426 61.5849 114.605 60.5209 112.362 61.8156C110.119 63.1103 108.298 66.2638 108.298 68.8404Z" fill="#808080"/>
<path d="M109.554 68.3142C109.554 70.7242 111.246 71.6984 113.335 70.4934C115.425 69.2885 117.117 66.3529 117.117 63.9429C117.117 61.533 115.425 60.5587 113.335 61.7637C111.246 62.9687 109.554 65.9042 109.554 68.3142Z" fill="#333333"/>
<path d="M110.13 67.9811C110.13 70.0193 111.565 70.8398 113.322 69.8271C115.091 68.8015 116.514 66.3275 116.514 64.2893C116.514 62.251 115.078 61.4306 113.322 62.4433C111.553 63.4688 110.13 65.9429 110.13 67.9811Z" fill="#E6E6E6"/>
<g style="mix-blend-mode:multiply" opacity="0.7">
<path d="M115.106 63.0589C114.606 62.7769 113.953 62.8281 113.273 63.2255C111.902 64.0203 110.786 65.956 110.786 67.5455C110.786 68.3403 111.055 68.93 111.555 69.2248C111.76 69.3402 111.991 69.4043 112.248 69.4043C112.607 69.4043 112.991 69.2889 113.389 69.0582C114.76 68.2634 115.875 66.3277 115.875 64.7382C115.875 63.9434 115.606 63.3537 115.106 63.0589ZM113.273 68.853C112.658 69.212 112.081 69.2633 111.658 69.0197C111.235 68.7761 111.004 68.2506 111.004 67.5455C111.004 66.0329 112.068 64.1869 113.389 63.4306C113.76 63.2255 114.106 63.1101 114.414 63.1101C114.632 63.1101 114.824 63.1614 114.991 63.264C115.414 63.5075 115.645 64.0331 115.645 64.7382C115.645 66.2508 114.581 68.0967 113.26 68.853H113.273Z" fill="#E6E6E6"/>
</g>
<path d="M116.027 61.5206L115.387 61.1489C114.694 60.7387 113.746 60.7899 112.695 61.4052C110.605 62.6102 108.913 65.5458 108.913 67.9557C108.913 69.1479 109.323 69.994 109.99 70.3913L110.631 70.7631C109.964 70.3657 109.554 69.5197 109.554 68.3275C109.554 65.9175 111.246 62.982 113.336 61.777C114.387 61.1617 115.348 61.1104 116.027 61.5206Z" fill="#333333"/>
<path d="M125.592 67.1738L128.105 68.6224L102.454 83.4283L99.9414 81.9797L125.592 67.1738Z" fill="#E6E6E6"/>
<path d="M102.454 83.8639L99.9414 82.4153V81.9795L102.454 83.428V83.8639Z" fill="#808080"/>
<path d="M128.106 69.0579L102.455 83.8638V83.428L128.106 68.6221V69.0579Z" fill="#CCCCCC"/>
<path d="M88.3779 88.2736L80.2507 83.5947L50.6773 100.67L24.1677 85.3637V84.5305L22.7063 85.3637L50.6773 101.503L80.2507 84.428L88.3779 89.1197L94.6592 85.4919L93.9285 85.0689L88.3779 88.2736Z" fill="#E6E6E6"/>
<g style="mix-blend-mode:multiply" opacity="0.7">
<path d="M50.6773 100.669L24.1677 85.3635V84.5303L22.7063 85.3635L49.2159 100.669H50.6773Z" fill="#E6E6E6"/>
</g>
<path d="M50.6773 101.503L22.7063 85.3643V86.2488L50.6773 102.401V101.503Z" fill="#666666"/>
<path d="M88.3748 89.12V90.0045L94.656 86.3767V85.4922L88.3748 89.12Z" fill="#808080"/>
<path d="M50.675 101.503V102.4L80.2484 85.3122V84.4277L50.675 101.503Z" fill="#808080"/>
<path d="M80.248 84.4277V85.3122L88.3753 90.004V89.1195L80.248 84.4277Z" fill="#666666"/>
<g style="mix-blend-mode:multiply" opacity="0.7">
<path d="M94.6569 85.4917L93.9263 85.0686L93.9134 85.0814V78.9668L91.1317 80.5692V86.6966L91.8624 87.1068H91.8496V88.0042L91.1317 88.4144V110.104L93.9134 108.489V86.7992L94.6569 86.3762V85.4917Z" fill="#E6E6E6"/>
</g>
<g style="mix-blend-mode:multiply" opacity="0.7">
<path d="M88.3252 88.248L80.2493 83.5947L72.4425 88.0942L73.1732 88.5172V89.4017L80.2493 85.3125V84.4408L86.8639 88.248H88.3252Z" fill="#E6E6E6"/>
</g>
<path d="M26.7046 107.22L29.5376 108.848V91.004L26.7046 89.376V107.22Z" fill="#333333"/>
<mask id="mask16_69568_95107" style="mask-type:luminance" maskUnits="userSpaceOnUse" x="26" y="89" width="4" height="20">
<path d="M26.7076 107.22L29.5406 108.848V91.004L26.7076 89.376V107.22Z" fill="white"/>
</mask>
<g mask="url(#mask16_69568_95107)">
<path opacity="0.4" d="M27.0902 89.2734V107.002L30.3334 108.874V91.145L27.0902 89.2734ZM30.0642 91.2604V94.4779L27.3466 92.914V89.6965L30.0642 91.2604ZM27.3466 99.9004V96.67L30.0642 98.2339V101.464L27.3466 99.9004ZM30.0642 101.733V104.964L27.3466 103.4V100.17L30.0642 101.733ZM27.3466 96.4008V93.1704L30.0642 94.7343V97.9647L27.3466 96.4008ZM27.3466 106.9V103.669L30.0642 105.233V108.463L27.3466 106.9Z" fill="#666666"/>
</g>
<path d="M27.0892 89.5939V107.002L29.5376 108.399V108.848L26.7046 107.22V89.376L27.0892 89.5939Z" fill="#666666"/>
<path d="M29.5376 108.399V108.848L26.7046 107.22L27.0892 107.002L29.5376 108.399Z" fill="#CCCCCC"/>
<path d="M44.9181 117.732L47.7511 119.36V101.529L44.9181 99.8877V117.732Z" fill="#333333"/>
<mask id="mask17_69568_95107" style="mask-type:luminance" maskUnits="userSpaceOnUse" x="44" y="99" width="4" height="21">
<path d="M44.9172 117.732L47.7502 119.36V101.529L44.9172 99.8877V117.732Z" fill="white"/>
</mask>
<g mask="url(#mask17_69568_95107)">
<path opacity="0.4" d="M45.3036 99.7979V117.526L48.5468 119.398V101.669L45.3036 99.7979ZM48.2776 101.772V104.99L45.56 103.426V100.208L48.2776 101.772ZM45.56 110.412V107.182L48.2776 108.745V111.976L45.56 110.412ZM48.2776 112.245V115.475L45.56 113.912V110.681L48.2776 112.245ZM45.56 106.925V103.695L48.2776 105.259V108.489L45.56 106.925ZM45.56 117.411V114.181L48.2776 115.745V118.975L45.56 117.411Z" fill="#666666"/>
</g>
<path d="M45.3027 100.118V117.514L47.7511 118.924V119.36L44.9181 117.732V99.8877L45.3027 100.118Z" fill="#666666"/>
<path d="M47.7511 118.924V119.36L44.9181 117.732L45.3027 117.514L47.7511 118.924Z" fill="#CCCCCC"/>
<path d="M150.869 63.5842L148.048 65.2123V47.3682L150.869 45.7402V63.5842Z" fill="#42474E"/>
<mask id="mask18_69568_95107" style="mask-type:luminance" maskUnits="userSpaceOnUse" x="148" y="45" width="3" height="21">
<path d="M150.87 63.5842L148.05 65.2123V47.3682L150.87 45.7402V63.5842Z" fill="white"/>
</mask>
<g mask="url(#mask18_69568_95107)">
<path d="M147.256 47.5093V65.2379L150.5 63.3663V45.6377L147.256 47.5093ZM150.243 46.0479V49.2655L147.526 50.8294V47.6118L150.243 46.0479ZM147.526 57.8285V54.5982L150.243 53.0342V56.2646L147.526 57.8285ZM150.243 56.521V59.7514L147.526 61.3153V58.0849L150.243 56.521ZM147.526 54.3418V51.1114L150.243 49.5475V52.7779L147.526 54.3418ZM147.526 64.8277V61.5973L150.243 60.0334V63.2638L147.526 64.8277Z" fill="#666666"/>
</g>
<path d="M150.484 45.9582V63.3663L148.048 64.7636V65.2123L150.869 63.5842V45.7402L150.484 45.9582Z" fill="#808080"/>
<path d="M148.048 64.7635V65.2121L150.869 63.5841L150.484 63.3662L148.048 64.7635Z" fill="#E6E6E6"/>
<path d="M143.766 67.6868L140.946 69.3148V51.4708L143.766 49.8428V67.6868Z" fill="#42474E"/>
<mask id="mask19_69568_95107" style="mask-type:luminance" maskUnits="userSpaceOnUse" x="140" y="49" width="4" height="21">
<path d="M143.764 67.6868L140.944 69.3148V51.4708L143.764 49.8428V67.6868Z" fill="white"/>
</mask>
<g mask="url(#mask19_69568_95107)">
<path d="M140.152 51.6245V69.3531L143.395 67.4816V49.7529L140.152 51.6245ZM143.126 50.1631V53.3807L140.408 54.9446V51.7271L143.126 50.1631ZM140.408 61.9438V58.7134L143.126 57.1495V60.3799L140.408 61.9438ZM143.126 60.6234V63.8538L140.408 65.4177V62.1873L143.126 60.6234ZM140.408 58.4442V55.2138L143.126 53.6499V56.8803L140.408 58.4442ZM140.408 68.9301V65.6997L143.126 64.1358V67.3662L140.408 68.9301Z" fill="#666666"/>
</g>
<path d="M143.382 50.0735V67.4689L140.946 68.8789V69.3148L143.766 67.6868V49.8428L143.382 50.0735Z" fill="#808080"/>
<path d="M140.946 68.8788V69.3147L143.766 67.6867L143.382 67.4688L140.946 68.8788Z" fill="#E6E6E6"/>
<path d="M136.653 71.7883L133.833 73.4164V55.5852L136.653 53.9443V71.7883Z" fill="#42474E"/>
<mask id="mask20_69568_95107" style="mask-type:luminance" maskUnits="userSpaceOnUse" x="133" y="53" width="4" height="21">
<path d="M136.653 71.7883L133.833 73.4164V55.5852L136.653 53.9443V71.7883Z" fill="white"/>
</mask>
<g mask="url(#mask20_69568_95107)">
<path d="M133.04 55.7261V73.4547L136.283 71.5831V53.8545L133.04 55.7261ZM136.027 54.2647V57.4823L133.309 59.0462V55.8286L136.027 54.2647ZM133.309 66.0453V62.815L136.027 61.251V64.4814L133.309 66.0453ZM136.027 64.7378V67.9682L133.309 69.5321V66.3017L136.027 64.7378ZM133.309 62.5458V59.3154L136.027 57.7515V60.9818L133.309 62.5458ZM133.309 73.0317V69.8013L136.027 68.2374V71.4678L133.309 73.0317Z" fill="#666666"/>
</g>
<path d="M136.269 54.1751V71.5704L133.833 72.9805V73.4164L136.653 71.7883V53.9443L136.269 54.1751Z" fill="#808080"/>
<path d="M133.833 72.9804V73.4162L136.653 71.7882L136.269 71.5703L133.833 72.9804Z" fill="#E6E6E6"/>
<path opacity="0.7" d="M91.8121 70.8018L91.3122 70.3531L86.7358 72.9938V67.0715L68.4303 57.7393L57.2394 64.2128L57.8803 64.5718L63.5079 61.3286L83.608 66.8792V74.8013L79.5957 77.1215L80.2366 77.4933L80.2494 77.4805L85.6078 80.5698H91.1327L93.9145 78.9675L85.8 74.2757L91.8121 70.8018Z" fill="#808080"/>
<g style="mix-blend-mode:multiply" opacity="0.4">
<path d="M91.7468 41.4461L87.8114 39.1772L91.7468 36.9082L93.2466 41.4461H91.7468Z" fill="#333333"/>
</g>
<path d="M97.1716 37.8951L93.2362 35.6133L89.3008 37.8951L93.2362 40.164L97.1716 37.8951Z" fill="#E6E6E6"/>
<path d="M93.2362 41.472L89.3008 39.203V37.8955L93.2362 40.1645V41.472Z" fill="#808080"/>
<path d="M97.172 39.203L93.2366 41.472V40.1645L97.172 37.8955V39.203Z" fill="#E6E6E6"/>
<path opacity="0.8" d="M96.4273 38.7545L93.9789 40.1646V39.998L96.4273 38.5879V38.7545ZM96.4273 38.9084L93.9789 40.3185V40.4851L96.4273 39.075V38.9084ZM96.4273 39.2288L93.9789 40.6389V40.8056L96.4273 39.3955V39.2288Z" fill="#808080"/>
<g style="mix-blend-mode:multiply" opacity="0.5">
<path d="M90.0692 38.5742L92.5176 39.9843V40.151L90.0692 38.7409V38.5742ZM90.0692 39.0613L92.5176 40.4714V40.3048L90.0692 38.8947V39.0613ZM90.0692 39.3818L92.5176 40.7919V40.6253L90.0692 39.2152V39.3818Z" fill="#808080"/>
</g>
<g style="mix-blend-mode:multiply" opacity="0.4">
<path d="M98.222 45.1893L94.2866 42.9203L98.222 40.6514L99.7219 45.1893H98.222Z" fill="#333333"/>
</g>
<path d="M103.657 41.6254L99.722 39.3564L95.7866 41.6254L99.722 43.9072L103.657 41.6254Z" fill="#E6E6E6"/>
<path d="M99.722 45.2143L95.7866 42.9454V41.625L99.722 43.9068V45.2143Z" fill="#808080"/>
<path d="M103.658 42.9454L99.7224 45.2143V43.9068L103.658 41.625V42.9454Z" fill="#E6E6E6"/>
<path opacity="0.8" d="M102.912 42.4977L100.463 43.9078V43.7411L102.912 42.3311V42.4977ZM102.912 42.6515L100.463 44.0616V44.2283L102.912 42.8182V42.6515ZM102.912 42.9592L100.463 44.3693V44.5359L102.912 43.1258V42.9592Z" fill="#808080"/>
<g style="mix-blend-mode:multiply" opacity="0.5">
<path d="M96.5431 42.3174L98.9915 43.7275V43.8941L96.5431 42.484V42.3174ZM96.5431 42.8045L98.9915 44.2146V44.0479L96.5431 42.6379V42.8045ZM96.5431 43.125L98.9915 44.5351V44.3684L96.5431 42.9583V43.125Z" fill="#808080"/>
</g>
<g style="mix-blend-mode:multiply" opacity="0.4">
<path d="M74.5563 51.368L70.6208 49.099L74.5563 46.8301L76.0561 51.368H74.5563Z" fill="#333333"/>
</g>
<path d="M79.9789 47.8169L76.0563 45.5352L72.1208 47.8169L76.0563 50.0859L79.9789 47.8169Z" fill="#E6E6E6"/>
<path d="M76.0563 51.3939L72.1208 49.1249V47.8174L76.0563 50.0863V51.3939Z" fill="#808080"/>
<path d="M79.9792 49.1249L76.0566 51.3939V50.0863L79.9792 47.8174V49.1249Z" fill="#E6E6E6"/>
<path opacity="0.8" d="M79.2485 48.6764L76.8 50.0865V49.9199L79.2485 48.5098V48.6764ZM79.2485 48.8302L76.8 50.2403V50.407L79.2485 48.9969V48.8302ZM79.2485 49.1507L76.8 50.5608V50.7274L79.2485 49.3174V49.1507Z" fill="#808080"/>
<g style="mix-blend-mode:multiply" opacity="0.5">
<path d="M72.8782 48.4961L75.3266 49.9062V50.0728L72.8782 48.6627V48.4961ZM72.8782 48.9832L75.3266 50.3933V50.2267L72.8782 48.8166V48.9832ZM72.8782 49.3037L75.3266 50.7138V50.5471L72.8782 49.137V49.3037Z" fill="#808080"/>
</g>
<g style="mix-blend-mode:multiply" opacity="0.4">
<path d="M81.0421 55.1112L77.1067 52.8422L81.0421 50.5732L82.5419 55.1112H81.0421Z" fill="#333333"/>
</g>
<path d="M86.4685 51.5473L82.5331 49.2783L78.5977 51.5473L82.5331 53.8291L86.4685 51.5473Z" fill="#E6E6E6"/>
<path d="M82.5331 55.1362L78.5977 52.8672V51.5469L82.5331 53.8287V55.1362Z" fill="#808080"/>
<path d="M86.4689 52.8672L82.5334 55.1362V53.8287L86.4689 51.5469V52.8672Z" fill="#E6E6E6"/>
<path opacity="0.8" d="M85.7242 52.4196L83.2758 53.8297V53.663L85.7242 52.2529V52.4196ZM85.7242 52.5734L83.2758 53.9835V54.1501L85.7242 52.7401V52.5734ZM85.7242 52.8811L83.2758 54.2911V54.4578L85.7242 53.0477V52.8811Z" fill="#808080"/>
<g style="mix-blend-mode:multiply" opacity="0.5">
<path d="M79.3644 52.2393L81.8128 53.6493V53.816L79.3644 52.4059V52.2393ZM79.3644 52.7264L81.8128 54.1365V53.9698L79.3644 52.5597V52.7264ZM79.3644 53.0469L81.8128 54.4569V54.2903L79.3644 52.8802V53.0469Z" fill="#808080"/>
</g>
<g style="mix-blend-mode:multiply" opacity="0.3">
<path d="M108.106 57.8932H100.94C101.299 57.6753 101.607 57.483 101.825 57.3292C102.197 57.06 102.876 56.7395 103.671 56.419C103.773 56.3806 103.863 56.3421 103.94 56.3037C104.748 55.9063 104.696 55.7012 104.504 55.7012C104.504 55.7012 102.145 55.7268 101.069 55.7396C101.081 55.8294 101.069 55.996 100.44 56.3037C100.364 56.3421 100.274 56.3806 100.171 56.419C99.3764 56.7395 98.697 57.06 98.3253 57.3292C98.1202 57.483 97.8125 57.6881 97.4536 57.8932H96.928C96.8383 57.8932 96.6973 57.9701 96.6204 58.0599C96.5435 58.1496 96.5563 58.2265 96.6588 58.2265H108.721L108.119 57.8804L108.106 57.8932Z" fill="#181C20"/>
</g>
<path d="M112.873 45.6504C112.706 45.8683 112.412 46.2401 111.835 46.4708C111.758 46.4964 111.694 46.5221 111.617 46.5349C111.027 46.6631 110.45 46.8682 109.95 47.2143C109.604 47.4579 109.143 47.7399 108.643 47.9963C108.681 48.4193 108.63 50.6754 108.63 50.6754C109.143 50.419 109.604 50.1242 109.963 49.8807C110.463 49.5345 111.04 49.3423 111.63 49.2012C111.707 49.1884 111.783 49.1628 111.848 49.1372C112.565 48.8551 112.95 48.3424 112.95 48.1885C112.95 48.1885 112.899 46.458 112.886 45.6504H112.873Z" fill="#007BBD"/>
<path d="M111.411 47.1383C111.231 47.0229 110.988 47.0229 110.744 47.1383C110.244 47.3562 109.847 47.9972 109.847 48.5484C109.847 48.8304 109.949 49.0483 110.129 49.1637C110.219 49.2278 110.334 49.2534 110.449 49.2534C110.565 49.2534 110.68 49.2278 110.796 49.1765C111.295 48.9586 111.693 48.3176 111.693 47.7664C111.693 47.4844 111.59 47.2665 111.411 47.1511V47.1383ZM110.744 49.0483C110.539 49.138 110.347 49.138 110.193 49.0483C110.039 48.9458 109.962 48.7663 109.962 48.5356C109.962 48.0228 110.334 47.4459 110.796 47.2408C110.898 47.1896 111.001 47.1639 111.09 47.1639C111.18 47.1639 111.27 47.1896 111.347 47.2408C111.501 47.3434 111.577 47.5229 111.577 47.7536C111.577 48.2664 111.206 48.8432 110.744 49.0483Z" fill="#FFB174"/>
<path d="M108.875 58.1493C108.658 58.2775 108.311 58.2775 108.106 58.1493C107.888 58.0211 107.888 57.8288 108.106 57.7006C108.324 57.5724 108.67 57.5724 108.875 57.7006C109.093 57.8288 109.093 58.0211 108.875 58.1493Z" fill="#808080"/>
<path d="M109.042 57.9316V58.1624C109.042 58.2393 108.991 58.329 108.888 58.3931C108.67 58.5213 108.324 58.5213 108.119 58.3931C108.017 58.329 107.965 58.2521 107.965 58.1752V57.9445C107.965 58.0214 108.017 58.0983 108.119 58.1624C108.337 58.2906 108.683 58.2906 108.888 58.1624C108.991 58.0983 109.055 58.0214 109.042 57.9316Z" fill="#E6E6E6"/>
<path d="M108.645 47.8303C108.568 47.8816 108.427 47.8816 108.35 47.8303C108.273 47.7791 108.273 47.7022 108.35 47.6637C108.427 47.6252 108.568 47.6124 108.645 47.6637C108.722 47.715 108.722 47.7919 108.645 47.8303Z" fill="#808080"/>
<path d="M108.708 47.7402V57.9313C108.708 57.9313 108.683 57.9954 108.644 58.0211C108.567 58.0723 108.426 58.0723 108.349 58.0211C108.311 57.9954 108.285 57.9698 108.285 57.9313V47.7402C108.285 47.7402 108.311 47.8043 108.349 47.83C108.426 47.8812 108.567 47.8812 108.644 47.83C108.683 47.8043 108.708 47.7787 108.708 47.7402Z" fill="#E6E6E6"/>
<g clip-path="url(#clip1_69568_95107)">
<path d="M223.296 138.734L230.76 136.771L257.053 121.655C260.708 119.554 260.737 114.291 257.106 112.148L229.168 95.6731C226.835 94.2982 223.829 95.0542 222.426 97.3712L215.513 108.782L223.298 138.734H223.296Z" fill="#94989E"/>
<path d="M223.842 38.5108L190.925 19.5071C189.881 18.9038 188.941 18.8588 188.265 19.2662C188.243 19.2779 188.222 19.2897 188.2 19.3034C188.179 19.3151 188.157 19.3269 188.136 19.3406C188.114 19.3523 188.093 19.3641 188.071 19.3778C188.049 19.3895 188.028 19.4013 188.006 19.415C187.985 19.4268 187.963 19.4385 187.942 19.4522C187.92 19.464 187.899 19.4757 187.877 19.4894C187.856 19.5012 187.834 19.5129 187.812 19.5266C187.791 19.5384 187.769 19.5501 187.748 19.5638C187.726 19.5756 187.705 19.5874 187.683 19.6011C187.662 19.6128 187.64 19.6246 187.619 19.6383C187.597 19.65 187.576 19.6618 187.554 19.6755C187.532 19.6872 187.511 19.699 187.489 19.7127C187.468 19.7245 187.446 19.7362 187.425 19.7499C187.403 19.7617 187.382 19.7734 187.36 19.7871C187.339 19.7989 187.317 19.8106 187.295 19.8243C187.274 19.8361 187.252 19.8478 187.231 19.8615C187.209 19.8733 187.188 19.8851 187.166 19.8988C187.145 19.9105 187.123 19.9223 187.102 19.936C187.08 19.9477 187.058 19.9595 187.037 19.9732C187.015 19.9849 186.994 19.9967 186.972 20.0104C186.951 20.0221 186.929 20.0339 186.908 20.0476C186.886 20.0594 186.865 20.0711 186.843 20.0848C186.821 20.0966 186.8 20.1083 186.778 20.122C186.757 20.1338 186.735 20.1455 186.714 20.1592C186.692 20.171 186.671 20.1827 186.649 20.1965C186.628 20.2082 186.606 20.22 186.584 20.2337C186.563 20.2454 186.541 20.2572 186.52 20.2709C186.498 20.2826 186.477 20.2944 186.455 20.3081C186.434 20.3198 186.412 20.3316 186.391 20.3453C186.369 20.3571 186.348 20.3688 186.326 20.3825C186.304 20.3943 186.283 20.406 186.261 20.4197C186.24 20.4315 186.218 20.4432 186.197 20.4569C186.175 20.4687 186.154 20.4804 186.132 20.4942C186.111 20.5059 186.089 20.5177 186.067 20.5314C186.046 20.5431 186.024 20.5549 186.003 20.5686C185.981 20.5803 185.96 20.5921 185.938 20.6058C185.917 20.6175 185.895 20.6293 185.874 20.643C185.852 20.6548 185.83 20.6665 185.809 20.6802C185.787 20.692 185.766 20.7037 185.744 20.7174C185.723 20.7292 185.701 20.7409 185.68 20.7546C185.658 20.7664 185.637 20.7781 185.615 20.7919C185.593 20.8036 185.572 20.8154 185.55 20.8291C185.529 20.8408 185.507 20.8526 185.486 20.8663C185.464 20.878 185.443 20.8898 185.421 20.9035C185.4 20.9152 185.378 20.927 185.356 20.9407C185.335 20.9525 185.313 20.9642 185.292 20.9779C185.27 20.9897 185.249 21.0014 185.227 21.0151C184.542 21.3735 184.109 22.2118 184.109 23.4183V113.043C184.109 115.415 185.774 118.3 187.828 119.487L220.745 138.491C221.787 139.092 222.729 139.139 223.405 138.731C223.427 138.72 223.448 138.708 223.47 138.694C223.491 138.683 223.513 138.671 223.534 138.657C223.556 138.645 223.577 138.634 223.599 138.62C223.621 138.608 223.642 138.596 223.664 138.583C223.685 138.571 223.707 138.559 223.728 138.545C223.75 138.534 223.771 138.522 223.793 138.508C223.814 138.496 223.836 138.485 223.858 138.471C223.879 138.459 223.901 138.447 223.922 138.434C223.944 138.422 223.965 138.41 223.987 138.397C224.008 138.385 224.03 138.373 224.051 138.359C224.073 138.348 224.095 138.336 224.116 138.322C224.138 138.31 224.159 138.299 224.181 138.285C224.202 138.273 224.224 138.261 224.245 138.248C224.267 138.236 224.288 138.224 224.31 138.21C224.332 138.199 224.353 138.187 224.375 138.173C224.396 138.162 224.418 138.15 224.439 138.136C224.461 138.124 224.482 138.113 224.504 138.099C224.525 138.087 224.547 138.075 224.568 138.062C224.59 138.05 224.612 138.038 224.633 138.024C224.655 138.013 224.676 138.001 224.698 137.987C224.719 137.975 224.741 137.964 224.762 137.95C224.784 137.938 224.805 137.927 224.827 137.913C224.849 137.901 224.87 137.889 224.892 137.876C224.913 137.864 224.935 137.852 224.956 137.838C224.978 137.827 224.999 137.815 225.021 137.801C225.042 137.789 225.064 137.778 225.086 137.764C225.107 137.752 225.129 137.74 225.15 137.727C225.172 137.715 225.193 137.703 225.215 137.69C225.236 137.678 225.258 137.666 225.279 137.652C225.301 137.641 225.323 137.629 225.344 137.615C225.366 137.603 225.387 137.592 225.409 137.578C225.43 137.566 225.452 137.554 225.473 137.541C225.495 137.529 225.516 137.517 225.538 137.503C225.56 137.492 225.581 137.48 225.603 137.466C225.624 137.454 225.646 137.443 225.667 137.429C225.689 137.417 225.71 137.406 225.732 137.392C225.753 137.38 225.775 137.368 225.797 137.355C225.818 137.343 225.84 137.331 225.861 137.317C225.883 137.306 225.904 137.294 225.926 137.28C225.947 137.268 225.969 137.257 225.99 137.243C226.012 137.231 226.033 137.219 226.055 137.206C226.077 137.194 226.098 137.182 226.12 137.169C226.141 137.157 226.163 137.145 226.184 137.131C226.206 137.12 226.227 137.108 226.249 137.094C226.27 137.082 226.292 137.071 226.314 137.057C226.335 137.045 226.357 137.033 226.378 137.02C226.4 137.008 226.421 136.996 226.443 136.982C227.136 136.603 227.569 135.764 227.569 134.558V44.9544C227.569 42.5826 225.904 39.6977 223.85 38.5108H223.842Z" fill="#007BBD"/>
<path d="M220.745 138.493L187.828 119.489C185.774 118.302 184.109 115.417 184.109 113.045V23.4185C184.109 21.0467 185.776 20.085 187.83 21.27L220.747 40.2737C222.802 41.4606 224.469 44.3455 224.469 46.7173V136.342C224.469 138.714 222.802 139.676 220.747 138.491L220.745 138.493Z" fill="#B9C8DA"/>
<path d="M187.83 118.465C186.267 117.562 184.996 115.361 184.996 113.557V23.9318C184.996 22.128 186.269 21.3935 187.83 22.2964L220.747 41.3002C222.31 42.2031 223.581 44.4045 223.581 46.2083V135.835C223.581 137.639 222.308 138.373 220.747 137.471L187.83 118.465Z" fill="#007BBD"/>
<path d="M187.83 118.122C186.432 117.315 185.292 115.343 185.292 113.727V24.102C185.292 22.4862 186.432 21.8282 187.83 22.637L220.747 41.6408C222.146 42.4477 223.286 44.42 223.286 46.0358V135.661C223.286 137.277 222.146 137.935 220.747 137.126L187.83 118.122Z" fill="#007BBD"/>
<path d="M188.371 117.07C187.323 116.465 186.473 114.994 186.473 113.783V25.4099C186.473 24.1995 187.323 23.7099 188.371 24.3151L220.203 42.6941C221.251 43.2992 222.101 44.7701 222.101 45.9805V134.354C222.101 135.564 221.251 136.054 220.203 135.449L188.371 117.07Z" fill="#191919"/>
<path d="M208.675 38.1995L200.014 33.1993C199.233 32.7488 198.516 31.8342 198.152 30.8275L197.341 28.583L211.237 36.6052L210.373 37.9977C210.04 38.5324 209.388 38.6108 208.677 38.1995H208.675Z" fill="#007BBD"/>
<g style="mix-blend-mode:screen">
<path d="M187.648 22.3452C186.249 21.5383 185.109 22.1944 185.109 23.8102V113.435C185.109 114.581 185.683 115.905 186.516 116.868L213.359 37.189L187.648 22.3452Z" fill="#181C20"/>
</g>
</g>
</g>
<defs>
<clipPath id="clip0_69568_95107">
<rect width="260" height="160" fill="white"/>
</clipPath>
<clipPath id="clip1_69568_95107">
<rect width="75.8113" height="120" fill="white" transform="translate(184 19)"/>
</clipPath>
</defs>
</svg>
