<svg width="343" height="104" viewBox="0 0 343 104" fill="none" xmlns="http://www.w3.org/2000/svg">
<path d="M38.5614 53.1219C43.5659 53.1219 47.6228 49.0686 47.6228 44.0687C47.6228 39.0688 43.5659 35.0156 38.5614 35.0156C33.5569 35.0156 29.5 39.0688 29.5 44.0687C29.5 49.0686 33.5569 53.1219 38.5614 53.1219Z" fill="#FFB4A5"/>
<path d="M46.033 100.221H46.0238C45.7047 100.221 45.3988 100.094 45.1732 99.8687C44.9476 99.6432 44.8207 99.3376 44.8203 99.0188V28.4328C44.8207 28.1141 44.9476 27.8084 45.1732 27.583C45.3988 27.3576 45.7047 27.2308 46.0238 27.2305H105.489C105.808 27.2308 106.114 27.3576 106.34 27.583C106.565 27.8084 106.692 28.1141 106.693 28.4328V83.3173C106.692 83.6345 106.567 83.9387 106.343 84.1638C106.119 84.389 105.816 84.5168 105.498 84.5196L46.033 100.221Z" fill="#F2F2F2"/>
<path d="M89.9868 17.2575H62.3779V1.27309C62.3783 0.935567 62.5127 0.611975 62.7516 0.373307C62.9905 0.134639 63.3144 0.000386367 63.6522 0H88.7126C89.0504 0.000385993 89.3743 0.134639 89.6132 0.373307C89.8521 0.611975 89.9865 0.935567 89.9868 1.27309V17.2575ZM62.6611 16.9746H89.7037V1.27309C89.7034 1.01057 89.5989 0.758885 89.4131 0.573253C89.2273 0.387622 88.9754 0.283204 88.7126 0.28291H63.6522C63.3894 0.283205 63.1375 0.387622 62.9517 0.573253C62.7659 0.758885 62.6614 1.01057 62.6611 1.27309V16.9746Z" fill="#3F3D56"/>
<path d="M65.9698 4.77734H86.1298C86.639 4.77734 87.1274 4.92221 87.4875 5.18007C87.8475 5.43793 88.0498 5.78767 88.0498 6.15234V26.7773H64.0498V6.15234C64.0498 5.78767 64.2521 5.43793 64.6122 5.18007C64.9722 4.92221 65.4606 4.77734 65.9698 4.77734Z" fill="#E6E6E6"/>
<path d="M120.551 102.379C120.352 102.379 120.161 102.366 120.02 102.342C119.88 102.318 119.801 102.286 119.801 102.253V76.5058C119.8 76.4891 119.819 76.4727 119.857 76.4573C119.894 76.4419 119.949 76.4279 120.019 76.4161C120.089 76.4043 120.171 76.395 120.263 76.3886C120.354 76.3822 120.452 76.3789 120.551 76.3789C120.65 76.3789 120.748 76.3822 120.839 76.3886C120.93 76.395 121.013 76.4043 121.083 76.4161C121.152 76.4279 121.208 76.4419 121.245 76.4573C121.282 76.4727 121.301 76.4891 121.301 76.5058V102.253C121.301 102.286 121.222 102.318 121.081 102.342C120.94 102.366 120.75 102.379 120.551 102.379Z" fill="#CCCCCC"/>
<path d="M36.0811 102.71C35.9485 102.71 35.8213 102.693 35.7275 102.662C35.6337 102.632 35.5811 102.59 35.5811 102.547V69.3239C35.5807 69.3024 35.5933 69.2811 35.6183 69.2613C35.6432 69.2414 35.68 69.2234 35.7265 69.2082C35.7729 69.1929 35.8282 69.1809 35.889 69.1726C35.9499 69.1644 36.0151 69.1602 36.081 69.1602C36.147 69.1602 36.2122 69.1644 36.2731 69.1726C36.3339 69.1809 36.3892 69.1929 36.4356 69.2082C36.4821 69.2234 36.5189 69.2414 36.5438 69.2613C36.5688 69.2811 36.5814 69.3024 36.581 69.3239V102.547C36.581 102.59 36.5284 102.632 36.4346 102.662C36.3408 102.693 36.2137 102.71 36.0811 102.71Z" fill="#CCCCCC"/>
<path d="M134.345 102.778H122.168V102.637C122.168 101.838 122.325 101.046 122.631 100.308C122.936 99.5696 123.385 98.8986 123.95 98.3335C124.516 97.7683 125.187 97.32 125.926 97.0141C126.665 96.7082 127.457 96.5508 128.256 96.5508C129.056 96.5508 129.848 96.7082 130.587 97.0141C131.326 97.32 131.997 97.7683 132.563 98.3335C133.128 98.8986 133.577 99.5696 133.882 100.308C134.188 101.046 134.345 101.838 134.345 102.637L134.345 102.778ZM122.453 102.495H134.06C134.023 100.982 133.395 99.5429 132.311 98.4857C131.227 97.4284 129.772 96.8366 128.256 96.8366C126.741 96.8366 125.286 97.4284 124.202 98.4857C123.117 99.5429 122.49 100.982 122.453 102.495Z" fill="#3F3D56"/>
<path d="M128.254 99.1836C128.211 99.1836 128.17 99.2005 128.14 99.2306C128.11 99.2607 128.093 99.3016 128.093 99.3442V101.05L126.43 99.6238C126.414 99.61 126.395 99.5995 126.375 99.5929C126.355 99.5862 126.334 99.5836 126.313 99.5852C126.292 99.5868 126.271 99.5925 126.252 99.6021C126.233 99.6116 126.217 99.6247 126.203 99.6408C126.189 99.6568 126.179 99.6754 126.172 99.6954C126.165 99.7155 126.163 99.7367 126.165 99.7578C126.166 99.7788 126.172 99.7993 126.182 99.8182C126.191 99.837 126.204 99.8538 126.22 99.8675L128.093 101.473V102.475C128.093 102.497 128.097 102.518 128.105 102.537C128.113 102.557 128.125 102.574 128.14 102.589C128.155 102.604 128.173 102.616 128.192 102.624C128.212 102.632 128.233 102.637 128.254 102.637C128.275 102.637 128.296 102.632 128.315 102.624C128.335 102.616 128.353 102.604 128.368 102.589C128.383 102.574 128.394 102.557 128.402 102.537C128.41 102.518 128.415 102.497 128.415 102.475V99.3442C128.415 99.3016 128.398 99.2607 128.367 99.2306C128.337 99.2005 128.296 99.1836 128.254 99.1836Z" fill="#3F3D56"/>
<path d="M35.8878 85.5579C35.8314 85.5579 35.7764 85.5579 35.72 85.5564C31.9348 85.5137 28.3191 83.9818 25.657 81.293C22.995 78.6041 21.5013 74.9751 21.5 71.1931C21.5 67.0178 23.2211 60.3354 25.6854 54.9428C27.4577 51.0646 31.1397 44.5586 35.8878 44.5586C37.8435 44.5586 39.8129 45.6723 41.7411 47.8688C41.8367 47.9771 41.9326 48.0886 42.027 48.2029L42.0594 48.2422V84.1698L41.9796 84.2084C41.8843 84.2545 41.7876 84.2978 41.6909 84.3396C39.9141 85.1252 37.9951 85.5394 36.0521 85.5565C35.9993 85.5579 35.9428 85.5579 35.8878 85.5579ZM35.8878 44.8415C31.2981 44.8415 27.687 51.2439 25.943 55.0602C23.4938 60.42 21.7832 67.0541 21.7832 71.1931C21.7832 78.8706 28.0375 85.187 35.7251 85.2736C35.7824 85.275 35.8359 85.2754 35.8915 85.275C35.9429 85.275 35.9956 85.275 36.047 85.2736C37.9526 85.257 39.8347 84.8509 41.5774 84.0805C41.6443 84.0515 41.7106 84.0222 41.7763 83.9916V48.344C41.6943 48.2457 41.6114 48.1495 41.5285 48.0555C39.6561 45.9228 37.7584 44.8415 35.8878 44.8415Z" fill="#3F3D56"/>
<path d="M35.8876 75.5302C35.8642 75.5303 35.8411 75.5253 35.8199 75.5156C35.7986 75.5059 35.7797 75.4918 35.7644 75.4741L27.5718 66.0348C27.5436 66.0022 27.5295 65.9597 27.5326 65.9167C27.5358 65.8737 27.5558 65.8337 27.5884 65.8054C27.621 65.7772 27.6635 65.763 27.7065 65.766C27.7496 65.769 27.7897 65.789 27.818 65.8215L36.0106 75.2608C36.031 75.2844 36.0443 75.3134 36.0487 75.3442C36.0532 75.3751 36.0487 75.4066 36.0357 75.435C36.0227 75.4634 36.0019 75.4874 35.9756 75.5043C35.9494 75.5212 35.9188 75.5302 35.8876 75.5302Z" fill="#CCCCCC"/>
<path d="M35.8875 80.9801C35.8553 80.9801 35.8238 80.9705 35.797 80.9526C35.7702 80.9348 35.7493 80.9093 35.737 80.8796C35.7247 80.8499 35.7215 80.8171 35.7277 80.7856C35.734 80.754 35.7495 80.725 35.7723 80.7023L40.4275 76.0513C40.4581 76.0209 40.4994 76.0038 40.5426 76.0039C40.5857 76.004 40.627 76.0211 40.6575 76.0516C40.688 76.082 40.7052 76.1233 40.7052 76.1664C40.7053 76.2095 40.6882 76.2508 40.6578 76.2814L36.0027 80.9324C35.9876 80.9475 35.9696 80.9595 35.9498 80.9677C35.9301 80.9759 35.9089 80.9801 35.8875 80.9801Z" fill="#CCCCCC"/>
<path d="M48.68 18.3911L48.7848 18.5976C48.8312 18.6868 48.8555 18.7857 48.8556 18.8862V24.4737H53.811V18.8862C53.8111 18.7857 53.8354 18.6868 53.8818 18.5976L53.9866 18.3911H48.68ZM53.5279 18.8862V24.1908H49.1387V18.8862C49.1388 18.8147 49.1303 18.7435 49.1132 18.674H53.5534C53.5363 18.7435 53.5278 18.8147 53.5279 18.8862ZM54.9097 18.3911L55.0145 18.5976C55.0609 18.6868 55.0852 18.7857 55.0853 18.8862V24.4737H60.0407V18.8862C60.0408 18.7857 60.0651 18.6868 60.1115 18.5976L60.2163 18.3911H54.9097ZM59.7576 18.8862V24.1908H55.3684V18.8862C55.3685 18.8147 55.36 18.7435 55.3429 18.674H59.7831C59.766 18.7435 59.7575 18.8147 59.7576 18.8862ZM61.1394 18.3911L61.2442 18.5976C61.2906 18.6868 61.3149 18.7857 61.315 18.8862V24.4737H66.2704V18.8862C66.2705 18.7857 66.2948 18.6868 66.3412 18.5976L66.446 18.3911H61.1394ZM65.9873 18.8862V24.1908H61.5981V18.8862C61.5982 18.8147 61.5897 18.7435 61.5726 18.674H66.0128C65.9958 18.7435 65.9872 18.8147 65.9873 18.8862ZM67.3691 18.3911L67.4739 18.5976C67.5203 18.6868 67.5446 18.7857 67.5447 18.8862V24.4737H72.5001V18.8862C72.5002 18.7857 72.5245 18.6868 72.5709 18.5976L72.6757 18.3911H67.3691ZM72.217 18.8862V24.1908H67.8279V18.8862C67.8279 18.8147 67.8194 18.7435 67.8023 18.674H72.2425C72.2255 18.7435 72.2169 18.8147 72.217 18.8862ZM73.5988 18.3911L73.7036 18.5976C73.75 18.6868 73.7743 18.7857 73.7744 18.8862V24.4737H78.7298V18.8862C78.7299 18.7857 78.7542 18.6868 78.8006 18.5976L78.9054 18.3911H73.5988ZM78.4467 18.8862V24.1908H74.0576V18.8862C74.0576 18.8147 74.0491 18.7435 74.0321 18.674H78.4722C78.4552 18.7435 78.4466 18.8147 78.4467 18.8862ZM79.8285 18.3911L79.9333 18.5976C79.9797 18.6868 80.004 18.7857 80.0041 18.8862V24.4737H84.9595V18.8862C84.9596 18.7857 84.9839 18.6868 85.0303 18.5976L85.1351 18.3911H79.8285ZM84.6764 18.8862V24.1908H80.2873V18.8862C80.2873 18.8147 80.2788 18.7435 80.2618 18.674H84.7019C84.6849 18.7435 84.6763 18.8147 84.6764 18.8862ZM86.0582 18.3911L86.163 18.5976C86.2094 18.6868 86.2337 18.7857 86.2338 18.8862V24.4737H91.1892V18.8862C91.1893 18.7857 91.2136 18.6868 91.26 18.5976L91.3648 18.3911H86.0582ZM90.9061 18.8862V24.1908H86.517V18.8862C86.517 18.8147 86.5085 18.7435 86.4915 18.674H90.9316C90.9146 18.7435 90.906 18.8147 90.9061 18.8862ZM92.2879 18.3911L92.3927 18.5976C92.4392 18.6868 92.4634 18.7857 92.4635 18.8862V24.4737H97.4189V18.8862C97.419 18.7857 97.4433 18.6868 97.4897 18.5976L97.5945 18.3911H92.2879ZM97.1358 18.8862V24.1908H92.7467V18.8862C92.7467 18.8147 92.7382 18.7435 92.7212 18.674H97.1613C97.1443 18.7435 97.1357 18.8147 97.1358 18.8862ZM98.5176 18.3911L98.6224 18.5976C98.6689 18.6868 98.6931 18.7857 98.6932 18.8862V24.4737H103.649V18.8862C103.649 18.7857 103.673 18.6868 103.719 18.5976L103.824 18.3911H98.5176ZM103.365 18.8862V24.1908H98.9764V18.8862C98.9764 18.8147 98.9679 18.7435 98.9509 18.674H103.391C103.374 18.7435 103.365 18.8147 103.365 18.8862ZM98.5176 18.3911L98.6224 18.5976C98.6689 18.6868 98.6931 18.7857 98.6932 18.8862V24.4737H103.649V18.8862C103.649 18.7857 103.673 18.6868 103.719 18.5976L103.824 18.3911H98.5176ZM103.365 18.8862V24.1908H98.9764V18.8862C98.9764 18.8147 98.9679 18.7435 98.9509 18.674H103.391C103.374 18.7435 103.365 18.8147 103.365 18.8862ZM92.2879 18.3911L92.3927 18.5976C92.4392 18.6868 92.4634 18.7857 92.4635 18.8862V24.4737H97.4189V18.8862C97.419 18.7857 97.4433 18.6868 97.4897 18.5976L97.5945 18.3911H92.2879ZM97.1358 18.8862V24.1908H92.7467V18.8862C92.7467 18.8147 92.7382 18.7435 92.7212 18.674H97.1613C97.1443 18.7435 97.1357 18.8147 97.1358 18.8862ZM86.0582 18.3911L86.163 18.5976C86.2094 18.6868 86.2337 18.7857 86.2338 18.8862V24.4737H91.1892V18.8862C91.1893 18.7857 91.2136 18.6868 91.26 18.5976L91.3648 18.3911H86.0582ZM90.9061 18.8862V24.1908H86.517V18.8862C86.517 18.8147 86.5085 18.7435 86.4915 18.674H90.9316C90.9146 18.7435 90.906 18.8147 90.9061 18.8862ZM79.8285 18.3911L79.9333 18.5976C79.9797 18.6868 80.004 18.7857 80.0041 18.8862V24.4737H84.9595V18.8862C84.9596 18.7857 84.9839 18.6868 85.0303 18.5976L85.1351 18.3911H79.8285ZM84.6764 18.8862V24.1908H80.2873V18.8862C80.2873 18.8147 80.2788 18.7435 80.2618 18.674H84.7019C84.6849 18.7435 84.6763 18.8147 84.6764 18.8862ZM73.5988 18.3911L73.7036 18.5976C73.75 18.6868 73.7743 18.7857 73.7744 18.8862V24.4737H78.7298V18.8862C78.7299 18.7857 78.7542 18.6868 78.8006 18.5976L78.9054 18.3911H73.5988ZM78.4467 18.8862V24.1908H74.0576V18.8862C74.0576 18.8147 74.0491 18.7435 74.0321 18.674H78.4722C78.4552 18.7435 78.4466 18.8147 78.4467 18.8862ZM67.3691 18.3911L67.4739 18.5976C67.5203 18.6868 67.5446 18.7857 67.5447 18.8862V24.4737H72.5001V18.8862C72.5002 18.7857 72.5245 18.6868 72.5709 18.5976L72.6757 18.3911H67.3691ZM72.217 18.8862V24.1908H67.8279V18.8862C67.8279 18.8147 67.8194 18.7435 67.8023 18.674H72.2425C72.2255 18.7435 72.2169 18.8147 72.217 18.8862ZM61.1394 18.3911L61.2442 18.5976C61.2906 18.6868 61.3149 18.7857 61.315 18.8862V24.4737H66.2704V18.8862C66.2705 18.7857 66.2948 18.6868 66.3412 18.5976L66.446 18.3911H61.1394ZM65.9873 18.8862V24.1908H61.5981V18.8862C61.5982 18.8147 61.5897 18.7435 61.5726 18.674H66.0128C65.9958 18.7435 65.9872 18.8147 65.9873 18.8862ZM54.9097 18.3911L55.0145 18.5976C55.0609 18.6868 55.0852 18.7857 55.0853 18.8862V24.4737H60.0407V18.8862C60.0408 18.7857 60.0651 18.6868 60.1115 18.5976L60.2163 18.3911H54.9097ZM59.7576 18.8862V24.1908H55.3684V18.8862C55.3685 18.8147 55.36 18.7435 55.3429 18.674H59.7831C59.766 18.7435 59.7575 18.8147 59.7576 18.8862ZM48.68 18.3911L48.7848 18.5976C48.8312 18.6868 48.8555 18.7857 48.8556 18.8862V24.4737H53.811V18.8862C53.8111 18.7857 53.8354 18.6868 53.8818 18.5976L53.9866 18.3911H48.68ZM53.5279 18.8862V24.1908H49.1387V18.8862C49.1388 18.8147 49.1303 18.7435 49.1132 18.674H53.5534C53.5363 18.7435 53.5278 18.8147 53.5279 18.8862ZM98.5176 18.3911L98.6224 18.5976C98.6689 18.6868 98.6931 18.7857 98.6932 18.8862V24.4737H103.649V18.8862C103.649 18.7857 103.673 18.6868 103.719 18.5976L103.824 18.3911H98.5176ZM103.365 18.8862V24.1908H98.9764V18.8862C98.9764 18.8147 98.9679 18.7435 98.9509 18.674H103.391C103.374 18.7435 103.365 18.8147 103.365 18.8862ZM92.2879 18.3911L92.3927 18.5976C92.4392 18.6868 92.4634 18.7857 92.4635 18.8862V24.4737H97.4189V18.8862C97.419 18.7857 97.4433 18.6868 97.4897 18.5976L97.5945 18.3911H92.2879ZM97.1358 18.8862V24.1908H92.7467V18.8862C92.7467 18.8147 92.7382 18.7435 92.7212 18.674H97.1613C97.1443 18.7435 97.1357 18.8147 97.1358 18.8862ZM86.0582 18.3911L86.163 18.5976C86.2094 18.6868 86.2337 18.7857 86.2338 18.8862V24.4737H91.1892V18.8862C91.1893 18.7857 91.2136 18.6868 91.26 18.5976L91.3648 18.3911H86.0582ZM90.9061 18.8862V24.1908H86.517V18.8862C86.517 18.8147 86.5085 18.7435 86.4915 18.674H90.9316C90.9146 18.7435 90.906 18.8147 90.9061 18.8862ZM79.8285 18.3911L79.9333 18.5976C79.9797 18.6868 80.004 18.7857 80.0041 18.8862V24.4737H84.9595V18.8862C84.9596 18.7857 84.9839 18.6868 85.0303 18.5976L85.1351 18.3911H79.8285ZM84.6764 18.8862V24.1908H80.2873V18.8862C80.2873 18.8147 80.2788 18.7435 80.2618 18.674H84.7019C84.6849 18.7435 84.6763 18.8147 84.6764 18.8862ZM73.5988 18.3911L73.7036 18.5976C73.75 18.6868 73.7743 18.7857 73.7744 18.8862V24.4737H78.7298V18.8862C78.7299 18.7857 78.7542 18.6868 78.8006 18.5976L78.9054 18.3911H73.5988ZM78.4467 18.8862V24.1908H74.0576V18.8862C74.0576 18.8147 74.0491 18.7435 74.0321 18.674H78.4722C78.4552 18.7435 78.4466 18.8147 78.4467 18.8862ZM67.3691 18.3911L67.4739 18.5976C67.5203 18.6868 67.5446 18.7857 67.5447 18.8862V24.4737H72.5001V18.8862C72.5002 18.7857 72.5245 18.6868 72.5709 18.5976L72.6757 18.3911H67.3691ZM72.217 18.8862V24.1908H67.8279V18.8862C67.8279 18.8147 67.8194 18.7435 67.8023 18.674H72.2425C72.2255 18.7435 72.2169 18.8147 72.217 18.8862ZM61.1394 18.3911L61.2442 18.5976C61.2906 18.6868 61.3149 18.7857 61.315 18.8862V24.4737H66.2704V18.8862C66.2705 18.7857 66.2948 18.6868 66.3412 18.5976L66.446 18.3911H61.1394ZM65.9873 18.8862V24.1908H61.5981V18.8862C61.5982 18.8147 61.5897 18.7435 61.5726 18.674H66.0128C65.9958 18.7435 65.9872 18.8147 65.9873 18.8862ZM54.9097 18.3911L55.0145 18.5976C55.0609 18.6868 55.0852 18.7857 55.0853 18.8862V24.4737H60.0407V18.8862C60.0408 18.7857 60.0651 18.6868 60.1115 18.5976L60.2163 18.3911H54.9097ZM59.7576 18.8862V24.1908H55.3684V18.8862C55.3685 18.8147 55.36 18.7435 55.3429 18.674H59.7831C59.766 18.7435 59.7575 18.8147 59.7576 18.8862ZM48.68 18.3911L48.7848 18.5976C48.8312 18.6868 48.8555 18.7857 48.8556 18.8862V24.4737H53.811V18.8862C53.8111 18.7857 53.8354 18.6868 53.8818 18.5976L53.9866 18.3911H48.68ZM53.5279 18.8862V24.1908H49.1387V18.8862C49.1388 18.8147 49.1303 18.7435 49.1132 18.674H53.5534C53.5363 18.7435 53.5278 18.8147 53.5279 18.8862ZM98.5176 18.3911L98.6224 18.5976C98.6689 18.6868 98.6931 18.7857 98.6932 18.8862V24.4737H103.649V18.8862C103.649 18.7857 103.673 18.6868 103.719 18.5976L103.824 18.3911H98.5176ZM103.365 18.8862V24.1908H98.9764V18.8862C98.9764 18.8147 98.9679 18.7435 98.9509 18.674H103.391C103.374 18.7435 103.365 18.8147 103.365 18.8862ZM92.2879 18.3911L92.3927 18.5976C92.4392 18.6868 92.4634 18.7857 92.4635 18.8862V24.4737H97.4189V18.8862C97.419 18.7857 97.4433 18.6868 97.4897 18.5976L97.5945 18.3911H92.2879ZM97.1358 18.8862V24.1908H92.7467V18.8862C92.7467 18.8147 92.7382 18.7435 92.7212 18.674H97.1613C97.1443 18.7435 97.1357 18.8147 97.1358 18.8862ZM86.0582 18.3911L86.163 18.5976C86.2094 18.6868 86.2337 18.7857 86.2338 18.8862V24.4737H91.1892V18.8862C91.1893 18.7857 91.2136 18.6868 91.26 18.5976L91.3648 18.3911H86.0582ZM90.9061 18.8862V24.1908H86.517V18.8862C86.517 18.8147 86.5085 18.7435 86.4915 18.674H90.9316C90.9146 18.7435 90.906 18.8147 90.9061 18.8862ZM79.8285 18.3911L79.9333 18.5976C79.9797 18.6868 80.004 18.7857 80.0041 18.8862V24.4737H84.9595V18.8862C84.9596 18.7857 84.9839 18.6868 85.0303 18.5976L85.1351 18.3911H79.8285ZM84.6764 18.8862V24.1908H80.2873V18.8862C80.2873 18.8147 80.2788 18.7435 80.2618 18.674H84.7019C84.6849 18.7435 84.6763 18.8147 84.6764 18.8862ZM73.5988 18.3911L73.7036 18.5976C73.75 18.6868 73.7743 18.7857 73.7744 18.8862V24.4737H78.7298V18.8862C78.7299 18.7857 78.7542 18.6868 78.8006 18.5976L78.9054 18.3911H73.5988ZM78.4467 18.8862V24.1908H74.0576V18.8862C74.0576 18.8147 74.0491 18.7435 74.0321 18.674H78.4722C78.4552 18.7435 78.4466 18.8147 78.4467 18.8862ZM67.3691 18.3911L67.4739 18.5976C67.5203 18.6868 67.5446 18.7857 67.5447 18.8862V24.4737H72.5001V18.8862C72.5002 18.7857 72.5245 18.6868 72.5709 18.5976L72.6757 18.3911H67.3691ZM72.217 18.8862V24.1908H67.8279V18.8862C67.8279 18.8147 67.8194 18.7435 67.8023 18.674H72.2425C72.2255 18.7435 72.2169 18.8147 72.217 18.8862ZM61.1394 18.3911L61.2442 18.5976C61.2906 18.6868 61.3149 18.7857 61.315 18.8862V24.4737H66.2704V18.8862C66.2705 18.7857 66.2948 18.6868 66.3412 18.5976L66.446 18.3911H61.1394ZM65.9873 18.8862V24.1908H61.5981V18.8862C61.5982 18.8147 61.5897 18.7435 61.5726 18.674H66.0128C65.9958 18.7435 65.9872 18.8147 65.9873 18.8862ZM54.9097 18.3911L55.0145 18.5976C55.0609 18.6868 55.0852 18.7857 55.0853 18.8862V24.4737H60.0407V18.8862C60.0408 18.7857 60.0651 18.6868 60.1115 18.5976L60.2163 18.3911H54.9097ZM59.7576 18.8862V24.1908H55.3684V18.8862C55.3685 18.8147 55.36 18.7435 55.3429 18.674H59.7831C59.766 18.7435 59.7575 18.8147 59.7576 18.8862ZM48.68 18.3911L48.7848 18.5976C48.8312 18.6868 48.8555 18.7857 48.8556 18.8862V24.4737H53.811V18.8862C53.8111 18.7857 53.8354 18.6868 53.8818 18.5976L53.9866 18.3911H48.68ZM53.5279 18.8862V24.1908H49.1387V18.8862C49.1388 18.8147 49.1303 18.7435 49.1132 18.674H53.5534C53.5363 18.7435 53.5278 18.8147 53.5279 18.8862ZM98.5176 18.3911L98.6224 18.5976C98.6689 18.6868 98.6931 18.7857 98.6932 18.8862V24.4737H103.649V18.8862C103.649 18.7857 103.673 18.6868 103.719 18.5976L103.824 18.3911H98.5176ZM103.365 18.8862V24.1908H98.9764V18.8862C98.9764 18.8147 98.9679 18.7435 98.9509 18.674H103.391C103.374 18.7435 103.365 18.8147 103.365 18.8862ZM92.2879 18.3911L92.3927 18.5976C92.4392 18.6868 92.4634 18.7857 92.4635 18.8862V24.4737H97.4189V18.8862C97.419 18.7857 97.4433 18.6868 97.4897 18.5976L97.5945 18.3911H92.2879ZM97.1358 18.8862V24.1908H92.7467V18.8862C92.7467 18.8147 92.7382 18.7435 92.7212 18.674H97.1613C97.1443 18.7435 97.1357 18.8147 97.1358 18.8862ZM86.0582 18.3911L86.163 18.5976C86.2094 18.6868 86.2337 18.7857 86.2338 18.8862V24.4737H91.1892V18.8862C91.1893 18.7857 91.2136 18.6868 91.26 18.5976L91.3648 18.3911H86.0582ZM90.9061 18.8862V24.1908H86.517V18.8862C86.517 18.8147 86.5085 18.7435 86.4915 18.674H90.9316C90.9146 18.7435 90.906 18.8147 90.9061 18.8862ZM79.8285 18.3911L79.9333 18.5976C79.9797 18.6868 80.004 18.7857 80.0041 18.8862V24.4737H84.9595V18.8862C84.9596 18.7857 84.9839 18.6868 85.0303 18.5976L85.1351 18.3911H79.8285ZM84.6764 18.8862V24.1908H80.2873V18.8862C80.2873 18.8147 80.2788 18.7435 80.2618 18.674H84.7019C84.6849 18.7435 84.6763 18.8147 84.6764 18.8862ZM73.5988 18.3911L73.7036 18.5976C73.75 18.6868 73.7743 18.7857 73.7744 18.8862V24.4737H78.7298V18.8862C78.7299 18.7857 78.7542 18.6868 78.8006 18.5976L78.9054 18.3911H73.5988ZM78.4467 18.8862V24.1908H74.0576V18.8862C74.0576 18.8147 74.0491 18.7435 74.0321 18.674H78.4722C78.4552 18.7435 78.4466 18.8147 78.4467 18.8862ZM67.3691 18.3911L67.4739 18.5976C67.5203 18.6868 67.5446 18.7857 67.5447 18.8862V24.4737H72.5001V18.8862C72.5002 18.7857 72.5245 18.6868 72.5709 18.5976L72.6757 18.3911H67.3691ZM72.217 18.8862V24.1908H67.8279V18.8862C67.8279 18.8147 67.8194 18.7435 67.8023 18.674H72.2425C72.2255 18.7435 72.2169 18.8147 72.217 18.8862ZM61.1394 18.3911L61.2442 18.5976C61.2906 18.6868 61.3149 18.7857 61.315 18.8862V24.4737H66.2704V18.8862C66.2705 18.7857 66.2948 18.6868 66.3412 18.5976L66.446 18.3911H61.1394ZM65.9873 18.8862V24.1908H61.5981V18.8862C61.5982 18.8147 61.5897 18.7435 61.5726 18.674H66.0128C65.9958 18.7435 65.9872 18.8147 65.9873 18.8862ZM54.9097 18.3911L55.0145 18.5976C55.0609 18.6868 55.0852 18.7857 55.0853 18.8862V24.4737H60.0407V18.8862C60.0408 18.7857 60.0651 18.6868 60.1115 18.5976L60.2163 18.3911H54.9097ZM59.7576 18.8862V24.1908H55.3684V18.8862C55.3685 18.8147 55.36 18.7435 55.3429 18.674H59.7831C59.766 18.7435 59.7575 18.8147 59.7576 18.8862ZM48.68 18.3911L48.7848 18.5976C48.8312 18.6868 48.8555 18.7857 48.8556 18.8862V24.4737H53.811V18.8862C53.8111 18.7857 53.8354 18.6868 53.8818 18.5976L53.9866 18.3911H48.68ZM53.5279 18.8862V24.1908H49.1387V18.8862C49.1388 18.8147 49.1303 18.7435 49.1132 18.674H53.5534C53.5363 18.7435 53.5278 18.8147 53.5279 18.8862ZM98.5176 18.3911L98.6224 18.5976C98.6689 18.6868 98.6931 18.7857 98.6932 18.8862V24.4737H103.649V18.8862C103.649 18.7857 103.673 18.6868 103.719 18.5976L103.824 18.3911H98.5176ZM103.365 18.8862V24.1908H98.9764V18.8862C98.9764 18.8147 98.9679 18.7435 98.9509 18.674H103.391C103.374 18.7435 103.365 18.8147 103.365 18.8862ZM92.3927 18.5976C92.4392 18.6868 92.4634 18.7857 92.4635 18.8862V24.4737H97.4189V18.8862C97.419 18.7857 97.4433 18.6868 97.4897 18.5976L97.5945 18.3911H92.2879L92.3927 18.5976ZM97.1613 18.674C97.1443 18.7435 97.1357 18.8147 97.1358 18.8862V24.1908H92.7467V18.8862C92.7467 18.8147 92.7382 18.7435 92.7212 18.674H97.1613ZM86.163 18.5976C86.2094 18.6868 86.2337 18.7857 86.2338 18.8862V24.4737H91.1892V18.8862C91.1893 18.7857 91.2136 18.6868 91.26 18.5976L91.3648 18.3911H86.0582L86.163 18.5976ZM90.9316 18.674C90.9146 18.7435 90.906 18.8147 90.9061 18.8862V24.1908H86.517V18.8862C86.517 18.8147 86.5085 18.7435 86.4915 18.674H90.9316ZM79.9333 18.5976C79.9797 18.6868 80.004 18.7857 80.0041 18.8862V24.4737H84.9595V18.8862C84.9596 18.7857 84.9839 18.6868 85.0303 18.5976L85.1351 18.3911H79.8285L79.9333 18.5976ZM84.7019 18.674C84.6849 18.7435 84.6763 18.8147 84.6764 18.8862V24.1908H80.2873V18.8862C80.2873 18.8147 80.2788 18.7435 80.2618 18.674H84.7019ZM73.7036 18.5976C73.75 18.6868 73.7743 18.7857 73.7744 18.8862V24.4737H78.7298V18.8862C78.7299 18.7857 78.7542 18.6868 78.8006 18.5976L78.9054 18.3911H73.5988L73.7036 18.5976ZM78.4722 18.674C78.4552 18.7435 78.4466 18.8147 78.4467 18.8862V24.1908H74.0576V18.8862C74.0576 18.8147 74.0491 18.7435 74.0321 18.674H78.4722ZM67.4739 18.5976C67.5203 18.6868 67.5446 18.7857 67.5447 18.8862V24.4737H72.5001V18.8862C72.5002 18.7857 72.5245 18.6868 72.5709 18.5976L72.6757 18.3911H67.3691L67.4739 18.5976ZM72.2425 18.674C72.2255 18.7435 72.2169 18.8147 72.217 18.8862V24.1908H67.8279V18.8862C67.8279 18.8147 67.8194 18.7435 67.8023 18.674H72.2425ZM61.2442 18.5976C61.2906 18.6868 61.3149 18.7857 61.315 18.8862V24.4737H66.2704V18.8862C66.2705 18.7857 66.2948 18.6868 66.3412 18.5976L66.446 18.3911H61.1394L61.2442 18.5976ZM66.0128 18.674C65.9958 18.7435 65.9872 18.8147 65.9873 18.8862V24.1908H61.5981V18.8862C61.5982 18.8147 61.5897 18.7435 61.5726 18.674H66.0128ZM55.0145 18.5976C55.0609 18.6868 55.0852 18.7857 55.0853 18.8862V24.4737H60.0407V18.8862C60.0408 18.7857 60.0651 18.6868 60.1115 18.5976L60.2163 18.3911H54.9097L55.0145 18.5976ZM59.7831 18.674C59.766 18.7435 59.7575 18.8147 59.7576 18.8862V24.1908H55.3684V18.8862C55.3685 18.8147 55.36 18.7435 55.3429 18.674H59.7831ZM48.7848 18.5976C48.8312 18.6868 48.8555 18.7857 48.8556 18.8862V24.4737H53.811V18.8862C53.8111 18.7857 53.8354 18.6868 53.8818 18.5976L53.9866 18.3911H48.68L48.7848 18.5976ZM53.5534 18.674C53.5363 18.7435 53.5278 18.8147 53.5279 18.8862V24.1908H49.1387V18.8862C49.1388 18.8147 49.1303 18.7435 49.1132 18.674H53.5534ZM98.6224 18.5976C98.6689 18.6868 98.6931 18.7857 98.6932 18.8862V24.4737H103.649V18.8862C103.649 18.7857 103.673 18.6868 103.719 18.5976L103.824 18.3911H98.5176L98.6224 18.5976ZM103.391 18.674C103.374 18.7435 103.365 18.8147 103.365 18.8862V24.1908H98.9764V18.8862C98.9764 18.8147 98.9679 18.7435 98.9509 18.674H103.391ZM92.3927 18.5976C92.4392 18.6868 92.4634 18.7857 92.4635 18.8862V24.4737H97.4189V18.8862C97.419 18.7857 97.4433 18.6868 97.4897 18.5976L97.5945 18.3911H92.2879L92.3927 18.5976ZM97.1613 18.674C97.1443 18.7435 97.1357 18.8147 97.1358 18.8862V24.1908H92.7467V18.8862C92.7467 18.8147 92.7382 18.7435 92.7212 18.674H97.1613ZM86.163 18.5976C86.2094 18.6868 86.2337 18.7857 86.2338 18.8862V24.4737H91.1892V18.8862C91.1893 18.7857 91.2136 18.6868 91.26 18.5976L91.3648 18.3911H86.0582L86.163 18.5976ZM90.9316 18.674C90.9146 18.7435 90.906 18.8147 90.9061 18.8862V24.1908H86.517V18.8862C86.517 18.8147 86.5085 18.7435 86.4915 18.674H90.9316ZM79.9333 18.5976C79.9797 18.6868 80.004 18.7857 80.0041 18.8862V24.4737H84.9595V18.8862C84.9596 18.7857 84.9839 18.6868 85.0303 18.5976L85.1351 18.3911H79.8285L79.9333 18.5976ZM84.7019 18.674C84.6849 18.7435 84.6763 18.8147 84.6764 18.8862V24.1908H80.2873V18.8862C80.2873 18.8147 80.2788 18.7435 80.2618 18.674H84.7019ZM73.7036 18.5976C73.75 18.6868 73.7743 18.7857 73.7744 18.8862V24.4737H78.7298V18.8862C78.7299 18.7857 78.7542 18.6868 78.8006 18.5976L78.9054 18.3911H73.5988L73.7036 18.5976ZM78.4722 18.674C78.4552 18.7435 78.4466 18.8147 78.4467 18.8862V24.1908H74.0576V18.8862C74.0576 18.8147 74.0491 18.7435 74.0321 18.674H78.4722ZM67.4739 18.5976C67.5203 18.6868 67.5446 18.7857 67.5447 18.8862V24.4737H72.5001V18.8862C72.5002 18.7857 72.5245 18.6868 72.5709 18.5976L72.6757 18.3911H67.3691L67.4739 18.5976ZM72.2425 18.674C72.2255 18.7435 72.2169 18.8147 72.217 18.8862V24.1908H67.8279V18.8862C67.8279 18.8147 67.8194 18.7435 67.8023 18.674H72.2425ZM61.2442 18.5976C61.2906 18.6868 61.3149 18.7857 61.315 18.8862V24.4737H66.2704V18.8862C66.2705 18.7857 66.2948 18.6868 66.3412 18.5976L66.446 18.3911H61.1394L61.2442 18.5976ZM66.0128 18.674C65.9958 18.7435 65.9872 18.8147 65.9873 18.8862V24.1908H61.5981V18.8862C61.5982 18.8147 61.5897 18.7435 61.5726 18.674H66.0128ZM55.0145 18.5976C55.0609 18.6868 55.0852 18.7857 55.0853 18.8862V24.4737H60.0407V18.8862C60.0408 18.7857 60.0651 18.6868 60.1115 18.5976L60.2163 18.3911H54.9097L55.0145 18.5976ZM59.7831 18.674C59.766 18.7435 59.7575 18.8147 59.7576 18.8862V24.1908H55.3684V18.8862C55.3685 18.8147 55.36 18.7435 55.3429 18.674H59.7831ZM48.7848 18.5976C48.8312 18.6868 48.8555 18.7857 48.8556 18.8862V24.4737H53.811V18.8862C53.8111 18.7857 53.8354 18.6868 53.8818 18.5976L53.9866 18.3911H48.68L48.7848 18.5976ZM53.5534 18.674C53.5363 18.7435 53.5278 18.8147 53.5279 18.8862V24.1908H49.1387V18.8862C49.1388 18.8147 49.1303 18.7435 49.1132 18.674H53.5534ZM109.312 25.3224H107.624C107.531 24.997 107.335 24.7106 107.065 24.5065C106.794 24.3024 106.465 24.1916 106.126 24.1908H105.206V18.8862C105.206 18.7723 105.185 18.6595 105.142 18.5538C105.303 18.4594 105.428 18.3149 105.498 18.1426C105.568 17.9702 105.579 17.7797 105.53 17.6002C105.481 17.4208 105.374 17.2625 105.226 17.1498C105.078 17.0371 104.897 16.9762 104.711 16.9766H47.7937C47.6075 16.9762 47.4264 17.0371 47.2783 17.1498C47.1302 17.2625 47.0234 17.4208 46.9742 17.6002C46.9251 17.7797 46.9365 17.9702 47.0065 18.1426C47.0766 18.3149 47.2015 18.4594 47.3619 18.5538C47.3194 18.6595 47.2978 18.7723 47.2981 18.8862V24.1908H46.3779C46.0391 24.1916 45.7098 24.3024 45.4396 24.5065C45.1694 24.7106 44.973 24.997 44.8799 25.3224H43.0506C42.7128 25.3229 42.389 25.4572 42.1502 25.6958C41.9113 25.9345 41.7769 26.258 41.7764 26.5955V101.284C41.7771 101.621 41.9116 101.945 42.1504 102.183C42.3892 102.422 42.7129 102.556 43.0506 102.557H109.312C109.65 102.556 109.974 102.422 110.213 102.183C110.451 101.945 110.586 101.621 110.586 101.284V26.5955C110.586 26.258 110.451 25.9345 110.212 25.6958C109.974 25.4572 109.65 25.3229 109.312 25.3224ZM110.303 101.284C110.303 101.486 110.241 101.683 110.125 101.849C110.009 102.015 109.846 102.141 109.656 102.212C109.546 102.253 109.43 102.275 109.312 102.274H43.0506C42.9331 102.275 42.8164 102.253 42.7066 102.212C42.5168 102.141 42.3532 102.015 42.2375 101.849C42.1219 101.683 42.0598 101.486 42.0595 101.284V26.5955C42.0598 26.333 42.1643 26.0813 42.3501 25.8957C42.5359 25.71 42.7879 25.6056 43.0506 25.6053H45.1064L45.1291 25.4922C45.1886 25.205 45.3452 24.947 45.5726 24.7616C45.8 24.5761 46.0843 24.4745 46.3779 24.4737H47.5813V18.8862C47.5814 18.7711 47.6127 18.6582 47.672 18.5594L47.7597 18.4137L47.5997 18.3543C47.4747 18.3091 47.3696 18.2212 47.3031 18.1061C47.2366 17.9911 47.2128 17.8563 47.236 17.7254C47.2592 17.5946 47.3278 17.4761 47.4298 17.3909C47.5319 17.3057 47.6607 17.2591 47.7937 17.2595H104.711C104.844 17.2591 104.972 17.3057 105.074 17.3909C105.176 17.4761 105.245 17.5946 105.268 17.7254C105.291 17.8563 105.268 17.9911 105.201 18.1061C105.135 18.2212 105.03 18.3091 104.905 18.3543L104.745 18.4137L104.832 18.5594C104.892 18.6581 104.923 18.7711 104.923 18.8862V24.4737H106.126C106.42 24.4745 106.704 24.5761 106.932 24.7616C107.159 24.947 107.316 25.205 107.375 25.4922L107.398 25.6053H109.312C109.575 25.6056 109.827 25.71 110.012 25.8957C110.198 26.0813 110.303 26.333 110.303 26.5955L110.303 101.284ZM48.68 18.3911L48.7848 18.5976C48.8312 18.6868 48.8555 18.7857 48.8556 18.8862V24.4737H53.811V18.8862C53.8111 18.7857 53.8354 18.6868 53.8818 18.5976L53.9866 18.3911H48.68ZM53.5279 18.8862V24.1908H49.1387V18.8862C49.1388 18.8147 49.1303 18.7435 49.1132 18.674H53.5534C53.5363 18.7435 53.5278 18.8147 53.5279 18.8862ZM54.9097 18.3911L55.0145 18.5976C55.0609 18.6868 55.0852 18.7857 55.0853 18.8862V24.4737H60.0407V18.8862C60.0408 18.7857 60.0651 18.6868 60.1115 18.5976L60.2163 18.3911H54.9097ZM59.7576 18.8862V24.1908H55.3684V18.8862C55.3685 18.8147 55.36 18.7435 55.3429 18.674H59.7831C59.766 18.7435 59.7575 18.8147 59.7576 18.8862ZM61.1394 18.3911L61.2442 18.5976C61.2906 18.6868 61.3149 18.7857 61.315 18.8862V24.4737H66.2704V18.8862C66.2705 18.7857 66.2948 18.6868 66.3412 18.5976L66.446 18.3911H61.1394ZM65.9873 18.8862V24.1908H61.5981V18.8862C61.5982 18.8147 61.5897 18.7435 61.5726 18.674H66.0128C65.9958 18.7435 65.9872 18.8147 65.9873 18.8862ZM67.3691 18.3911L67.4739 18.5976C67.5203 18.6868 67.5446 18.7857 67.5447 18.8862V24.4737H72.5001V18.8862C72.5002 18.7857 72.5245 18.6868 72.5709 18.5976L72.6757 18.3911H67.3691ZM72.217 18.8862V24.1908H67.8279V18.8862C67.8279 18.8147 67.8194 18.7435 67.8023 18.674H72.2425C72.2255 18.7435 72.2169 18.8147 72.217 18.8862ZM73.5988 18.3911L73.7036 18.5976C73.75 18.6868 73.7743 18.7857 73.7744 18.8862V24.4737H78.7298V18.8862C78.7299 18.7857 78.7542 18.6868 78.8006 18.5976L78.9054 18.3911H73.5988ZM78.4467 18.8862V24.1908H74.0576V18.8862C74.0576 18.8147 74.0491 18.7435 74.0321 18.674H78.4722C78.4552 18.7435 78.4466 18.8147 78.4467 18.8862ZM79.8285 18.3911L79.9333 18.5976C79.9797 18.6868 80.004 18.7857 80.0041 18.8862V24.4737H84.9595V18.8862C84.9596 18.7857 84.9839 18.6868 85.0303 18.5976L85.1351 18.3911H79.8285ZM84.6764 18.8862V24.1908H80.2873V18.8862C80.2873 18.8147 80.2788 18.7435 80.2618 18.674H84.7019C84.6849 18.7435 84.6763 18.8147 84.6764 18.8862ZM86.0582 18.3911L86.163 18.5976C86.2094 18.6868 86.2337 18.7857 86.2338 18.8862V24.4737H91.1892V18.8862C91.1893 18.7857 91.2136 18.6868 91.26 18.5976L91.3648 18.3911H86.0582ZM90.9061 18.8862V24.1908H86.517V18.8862C86.517 18.8147 86.5085 18.7435 86.4915 18.674H90.9316C90.9146 18.7435 90.906 18.8147 90.9061 18.8862ZM92.2879 18.3911L92.3927 18.5976C92.4392 18.6868 92.4634 18.7857 92.4635 18.8862V24.4737H97.4189V18.8862C97.419 18.7857 97.4433 18.6868 97.4897 18.5976L97.5945 18.3911H92.2879ZM97.1358 18.8862V24.1908H92.7467V18.8862C92.7467 18.8147 92.7382 18.7435 92.7212 18.674H97.1613C97.1443 18.7435 97.1357 18.8147 97.1358 18.8862ZM98.5176 18.3911L98.6224 18.5976C98.6689 18.6868 98.6931 18.7857 98.6932 18.8862V24.4737H103.649V18.8862C103.649 18.7857 103.673 18.6868 103.719 18.5976L103.824 18.3911H98.5176ZM103.365 18.8862V24.1908H98.9764V18.8862C98.9764 18.8147 98.9679 18.7435 98.9509 18.674H103.391C103.374 18.7435 103.365 18.8147 103.365 18.8862ZM48.68 18.3911L48.7848 18.5976C48.8312 18.6868 48.8555 18.7857 48.8556 18.8862V24.4737H53.811V18.8862C53.8111 18.7857 53.8354 18.6868 53.8818 18.5976L53.9866 18.3911H48.68ZM53.5279 18.8862V24.1908H49.1387V18.8862C49.1388 18.8147 49.1303 18.7435 49.1132 18.674H53.5534C53.5363 18.7435 53.5278 18.8147 53.5279 18.8862ZM54.9097 18.3911L55.0145 18.5976C55.0609 18.6868 55.0852 18.7857 55.0853 18.8862V24.4737H60.0407V18.8862C60.0408 18.7857 60.0651 18.6868 60.1115 18.5976L60.2163 18.3911H54.9097ZM59.7576 18.8862V24.1908H55.3684V18.8862C55.3685 18.8147 55.36 18.7435 55.3429 18.674H59.7831C59.766 18.7435 59.7575 18.8147 59.7576 18.8862ZM61.1394 18.3911L61.2442 18.5976C61.2906 18.6868 61.3149 18.7857 61.315 18.8862V24.4737H66.2704V18.8862C66.2705 18.7857 66.2948 18.6868 66.3412 18.5976L66.446 18.3911H61.1394ZM65.9873 18.8862V24.1908H61.5981V18.8862C61.5982 18.8147 61.5897 18.7435 61.5726 18.674H66.0128C65.9958 18.7435 65.9872 18.8147 65.9873 18.8862ZM67.3691 18.3911L67.4739 18.5976C67.5203 18.6868 67.5446 18.7857 67.5447 18.8862V24.4737H72.5001V18.8862C72.5002 18.7857 72.5245 18.6868 72.5709 18.5976L72.6757 18.3911H67.3691ZM72.217 18.8862V24.1908H67.8279V18.8862C67.8279 18.8147 67.8194 18.7435 67.8023 18.674H72.2425C72.2255 18.7435 72.2169 18.8147 72.217 18.8862ZM73.5988 18.3911L73.7036 18.5976C73.75 18.6868 73.7743 18.7857 73.7744 18.8862V24.4737H78.7298V18.8862C78.7299 18.7857 78.7542 18.6868 78.8006 18.5976L78.9054 18.3911H73.5988ZM78.4467 18.8862V24.1908H74.0576V18.8862C74.0576 18.8147 74.0491 18.7435 74.0321 18.674H78.4722C78.4552 18.7435 78.4466 18.8147 78.4467 18.8862ZM79.8285 18.3911L79.9333 18.5976C79.9797 18.6868 80.004 18.7857 80.0041 18.8862V24.4737H84.9595V18.8862C84.9596 18.7857 84.9839 18.6868 85.0303 18.5976L85.1351 18.3911H79.8285ZM84.6764 18.8862V24.1908H80.2873V18.8862C80.2873 18.8147 80.2788 18.7435 80.2618 18.674H84.7019C84.6849 18.7435 84.6763 18.8147 84.6764 18.8862ZM86.0582 18.3911L86.163 18.5976C86.2094 18.6868 86.2337 18.7857 86.2338 18.8862V24.4737H91.1892V18.8862C91.1893 18.7857 91.2136 18.6868 91.26 18.5976L91.3648 18.3911H86.0582ZM90.9061 18.8862V24.1908H86.517V18.8862C86.517 18.8147 86.5085 18.7435 86.4915 18.674H90.9316C90.9146 18.7435 90.906 18.8147 90.9061 18.8862ZM92.2879 18.3911L92.3927 18.5976C92.4392 18.6868 92.4634 18.7857 92.4635 18.8862V24.4737H97.4189V18.8862C97.419 18.7857 97.4433 18.6868 97.4897 18.5976L97.5945 18.3911H92.2879ZM97.1358 18.8862V24.1908H92.7467V18.8862C92.7467 18.8147 92.7382 18.7435 92.7212 18.674H97.1613C97.1443 18.7435 97.1357 18.8147 97.1358 18.8862ZM98.5176 18.3911L98.6224 18.5976C98.6689 18.6868 98.6931 18.7857 98.6932 18.8862V24.4737H103.649V18.8862C103.649 18.7857 103.673 18.6868 103.719 18.5976L103.824 18.3911H98.5176ZM103.365 18.8862V24.1908H98.9764V18.8862C98.9764 18.8147 98.9679 18.7435 98.9509 18.674H103.391C103.374 18.7435 103.365 18.8147 103.365 18.8862ZM48.68 18.3911L48.7848 18.5976C48.8312 18.6868 48.8555 18.7857 48.8556 18.8862V24.4737H53.811V18.8862C53.8111 18.7857 53.8354 18.6868 53.8818 18.5976L53.9866 18.3911H48.68ZM53.5279 18.8862V24.1908H49.1387V18.8862C49.1388 18.8147 49.1303 18.7435 49.1132 18.674H53.5534C53.5363 18.7435 53.5278 18.8147 53.5279 18.8862ZM54.9097 18.3911L55.0145 18.5976C55.0609 18.6868 55.0852 18.7857 55.0853 18.8862V24.4737H60.0407V18.8862C60.0408 18.7857 60.0651 18.6868 60.1115 18.5976L60.2163 18.3911H54.9097ZM59.7576 18.8862V24.1908H55.3684V18.8862C55.3685 18.8147 55.36 18.7435 55.3429 18.674H59.7831C59.766 18.7435 59.7575 18.8147 59.7576 18.8862ZM61.1394 18.3911L61.2442 18.5976C61.2906 18.6868 61.3149 18.7857 61.315 18.8862V24.4737H66.2704V18.8862C66.2705 18.7857 66.2948 18.6868 66.3412 18.5976L66.446 18.3911H61.1394ZM65.9873 18.8862V24.1908H61.5981V18.8862C61.5982 18.8147 61.5897 18.7435 61.5726 18.674H66.0128C65.9958 18.7435 65.9872 18.8147 65.9873 18.8862ZM67.3691 18.3911L67.4739 18.5976C67.5203 18.6868 67.5446 18.7857 67.5447 18.8862V24.4737H72.5001V18.8862C72.5002 18.7857 72.5245 18.6868 72.5709 18.5976L72.6757 18.3911H67.3691ZM72.217 18.8862V24.1908H67.8279V18.8862C67.8279 18.8147 67.8194 18.7435 67.8023 18.674H72.2425C72.2255 18.7435 72.2169 18.8147 72.217 18.8862ZM73.5988 18.3911L73.7036 18.5976C73.75 18.6868 73.7743 18.7857 73.7744 18.8862V24.4737H78.7298V18.8862C78.7299 18.7857 78.7542 18.6868 78.8006 18.5976L78.9054 18.3911H73.5988ZM78.4467 18.8862V24.1908H74.0576V18.8862C74.0576 18.8147 74.0491 18.7435 74.0321 18.674H78.4722C78.4552 18.7435 78.4466 18.8147 78.4467 18.8862ZM79.8285 18.3911L79.9333 18.5976C79.9797 18.6868 80.004 18.7857 80.0041 18.8862V24.4737H84.9595V18.8862C84.9596 18.7857 84.9839 18.6868 85.0303 18.5976L85.1351 18.3911H79.8285ZM84.6764 18.8862V24.1908H80.2873V18.8862C80.2873 18.8147 80.2788 18.7435 80.2618 18.674H84.7019C84.6849 18.7435 84.6763 18.8147 84.6764 18.8862ZM86.0582 18.3911L86.163 18.5976C86.2094 18.6868 86.2337 18.7857 86.2338 18.8862V24.4737H91.1892V18.8862C91.1893 18.7857 91.2136 18.6868 91.26 18.5976L91.3648 18.3911H86.0582ZM90.9061 18.8862V24.1908H86.517V18.8862C86.517 18.8147 86.5085 18.7435 86.4915 18.674H90.9316C90.9146 18.7435 90.906 18.8147 90.9061 18.8862ZM92.2879 18.3911L92.3927 18.5976C92.4392 18.6868 92.4634 18.7857 92.4635 18.8862V24.4737H97.4189V18.8862C97.419 18.7857 97.4433 18.6868 97.4897 18.5976L97.5945 18.3911H92.2879ZM97.1358 18.8862V24.1908H92.7467V18.8862C92.7467 18.8147 92.7382 18.7435 92.7212 18.674H97.1613C97.1443 18.7435 97.1357 18.8147 97.1358 18.8862ZM98.5176 18.3911L98.6224 18.5976C98.6689 18.6868 98.6931 18.7857 98.6932 18.8862V24.4737H103.649V18.8862C103.649 18.7857 103.673 18.6868 103.719 18.5976L103.824 18.3911H98.5176ZM103.365 18.8862V24.1908H98.9764V18.8862C98.9764 18.8147 98.9679 18.7435 98.9509 18.674H103.391C103.374 18.7435 103.365 18.8147 103.365 18.8862ZM48.68 18.3911L48.7848 18.5976C48.8312 18.6868 48.8555 18.7857 48.8556 18.8862V24.4737H53.811V18.8862C53.8111 18.7857 53.8354 18.6868 53.8818 18.5976L53.9866 18.3911H48.68ZM53.5279 18.8862V24.1908H49.1387V18.8862C49.1388 18.8147 49.1303 18.7435 49.1132 18.674H53.5534C53.5363 18.7435 53.5278 18.8147 53.5279 18.8862ZM54.9097 18.3911L55.0145 18.5976C55.0609 18.6868 55.0852 18.7857 55.0853 18.8862V24.4737H60.0407V18.8862C60.0408 18.7857 60.0651 18.6868 60.1115 18.5976L60.2163 18.3911H54.9097ZM59.7576 18.8862V24.1908H55.3684V18.8862C55.3685 18.8147 55.36 18.7435 55.3429 18.674H59.7831C59.766 18.7435 59.7575 18.8147 59.7576 18.8862ZM61.1394 18.3911L61.2442 18.5976C61.2906 18.6868 61.3149 18.7857 61.315 18.8862V24.4737H66.2704V18.8862C66.2705 18.7857 66.2948 18.6868 66.3412 18.5976L66.446 18.3911H61.1394ZM65.9873 18.8862V24.1908H61.5981V18.8862C61.5982 18.8147 61.5897 18.7435 61.5726 18.674H66.0128C65.9958 18.7435 65.9872 18.8147 65.9873 18.8862ZM67.3691 18.3911L67.4739 18.5976C67.5203 18.6868 67.5446 18.7857 67.5447 18.8862V24.4737H72.5001V18.8862C72.5002 18.7857 72.5245 18.6868 72.5709 18.5976L72.6757 18.3911H67.3691ZM72.217 18.8862V24.1908H67.8279V18.8862C67.8279 18.8147 67.8194 18.7435 67.8023 18.674H72.2425C72.2255 18.7435 72.2169 18.8147 72.217 18.8862ZM73.5988 18.3911L73.7036 18.5976C73.75 18.6868 73.7743 18.7857 73.7744 18.8862V24.4737H78.7298V18.8862C78.7299 18.7857 78.7542 18.6868 78.8006 18.5976L78.9054 18.3911H73.5988ZM78.4467 18.8862V24.1908H74.0576V18.8862C74.0576 18.8147 74.0491 18.7435 74.0321 18.674H78.4722C78.4552 18.7435 78.4466 18.8147 78.4467 18.8862ZM79.8285 18.3911L79.9333 18.5976C79.9797 18.6868 80.004 18.7857 80.0041 18.8862V24.4737H84.9595V18.8862C84.9596 18.7857 84.9839 18.6868 85.0303 18.5976L85.1351 18.3911H79.8285ZM84.6764 18.8862V24.1908H80.2873V18.8862C80.2873 18.8147 80.2788 18.7435 80.2618 18.674H84.7019C84.6849 18.7435 84.6763 18.8147 84.6764 18.8862ZM86.0582 18.3911L86.163 18.5976C86.2094 18.6868 86.2337 18.7857 86.2338 18.8862V24.4737H91.1892V18.8862C91.1893 18.7857 91.2136 18.6868 91.26 18.5976L91.3648 18.3911H86.0582ZM90.9061 18.8862V24.1908H86.517V18.8862C86.517 18.8147 86.5085 18.7435 86.4915 18.674H90.9316C90.9146 18.7435 90.906 18.8147 90.9061 18.8862ZM92.2879 18.3911L92.3927 18.5976C92.4392 18.6868 92.4634 18.7857 92.4635 18.8862V24.4737H97.4189V18.8862C97.419 18.7857 97.4433 18.6868 97.4897 18.5976L97.5945 18.3911H92.2879ZM97.1358 18.8862V24.1908H92.7467V18.8862C92.7467 18.8147 92.7382 18.7435 92.7212 18.674H97.1613C97.1443 18.7435 97.1357 18.8147 97.1358 18.8862ZM98.5176 18.3911L98.6224 18.5976C98.6689 18.6868 98.6931 18.7857 98.6932 18.8862V24.4737H103.649V18.8862C103.649 18.7857 103.673 18.6868 103.719 18.5976L103.824 18.3911H98.5176ZM103.365 18.8862V24.1908H98.9764V18.8862C98.9764 18.8147 98.9679 18.7435 98.9509 18.674H103.391C103.374 18.7435 103.365 18.8147 103.365 18.8862Z" fill="#3F3D56"/>
<path d="M65.5135 43.1439H55.0726C54.8527 43.1436 54.6419 43.0563 54.4864 42.9009C54.3309 42.7456 54.2434 42.5349 54.2432 42.3152V36.7583C54.2434 36.5386 54.3309 36.328 54.4864 36.1727C54.6419 36.0173 54.8527 35.9299 55.0726 35.9297H65.5135C65.7334 35.9299 65.9442 36.0173 66.0997 36.1727C66.2552 36.328 66.3426 36.5386 66.3429 36.7583V42.3152C66.3426 42.5349 66.2552 42.7456 66.0997 42.9009C65.9442 43.0563 65.7334 43.1436 65.5135 43.1439Z" fill="#0077B6"/>
<path d="M81.4012 43.1439H70.9603C70.7404 43.1436 70.5296 43.0563 70.3741 42.9009C70.2186 42.7456 70.1311 42.5349 70.1309 42.3152V36.7583C70.1311 36.5386 70.2186 36.328 70.3741 36.1727C70.5296 36.0173 70.7404 35.9299 70.9603 35.9297H81.4012C81.6211 35.9299 81.8319 36.0173 81.9874 36.1727C82.1429 36.328 82.2303 36.5386 82.2306 36.7583V42.3152C82.2303 42.5349 82.1429 42.7456 81.9874 42.9009C81.8319 43.0563 81.6211 43.1436 81.4012 43.1439Z" fill="#0077B6"/>
<path d="M97.2898 43.1439H86.8489C86.629 43.1436 86.4182 43.0563 86.2627 42.9009C86.1072 42.7456 86.0198 42.5349 86.0195 42.3152V36.7583C86.0198 36.5386 86.1072 36.328 86.2627 36.1727C86.4182 36.0173 86.629 35.9299 86.8489 35.9297H97.2898C97.5097 35.9299 97.7205 36.0173 97.876 36.1727C98.0315 36.328 98.119 36.5386 98.1192 36.7583V42.3152C98.119 42.5349 98.0315 42.7456 97.876 42.9009C97.7205 43.0563 97.5097 43.1436 97.2898 43.1439Z" fill="#0077B6"/>
<path d="M65.5135 61.6751H55.0726C54.8527 61.6749 54.6419 61.5875 54.4864 61.4322C54.3309 61.2768 54.2434 61.0662 54.2432 60.8465V55.2896C54.2434 55.0699 54.3309 54.8593 54.4864 54.7039C54.6419 54.5486 54.8527 54.4612 55.0726 54.4609H65.5135C65.7334 54.4612 65.9442 54.5486 66.0997 54.7039C66.2552 54.8593 66.3426 55.0699 66.3429 55.2896V60.8465C66.3426 61.0662 66.2552 61.2768 66.0997 61.4322C65.9442 61.5875 65.7334 61.6749 65.5135 61.6751Z" fill="#0077B6"/>
<path d="M81.4012 61.6751H70.9603C70.7404 61.6749 70.5296 61.5875 70.3741 61.4322C70.2186 61.2768 70.1311 61.0662 70.1309 60.8465V55.2896C70.1311 55.0699 70.2186 54.8593 70.3741 54.7039C70.5296 54.5486 70.7404 54.4612 70.9603 54.4609H81.4012C81.6211 54.4612 81.8319 54.5486 81.9874 54.7039C82.1429 54.8593 82.2303 55.0699 82.2306 55.2896V60.8465C82.2303 61.0662 82.1429 61.2768 81.9874 61.4322C81.8319 61.5875 81.6211 61.6749 81.4012 61.6751Z" fill="#0077B6"/>
<path d="M97.2898 61.6751H86.8489C86.629 61.6749 86.4182 61.5875 86.2627 61.4322C86.1072 61.2768 86.0198 61.0662 86.0195 60.8465V55.2896C86.0198 55.0699 86.1072 54.8593 86.2627 54.7039C86.4182 54.5486 86.629 54.4612 86.8489 54.4609H97.2898C97.5097 54.4612 97.7205 54.5486 97.876 54.7039C98.0315 54.8593 98.119 55.0699 98.1192 55.2896V60.8465C98.119 61.0662 98.0315 61.2768 97.876 61.4322C97.7205 61.5875 97.5097 61.6749 97.2898 61.6751Z" fill="#0077B6"/>
<path d="M65.5135 80.2064H55.0726C54.8527 80.2061 54.6419 80.1188 54.4864 79.9634C54.3309 79.8081 54.2434 79.5974 54.2432 79.3777V73.8208C54.2434 73.6011 54.3309 73.3905 54.4864 73.2352C54.6419 73.0798 54.8527 72.9924 55.0726 72.9922H65.5135C65.7334 72.9924 65.9442 73.0798 66.0997 73.2352C66.2552 73.3905 66.3426 73.6011 66.3429 73.8208V79.3777C66.3426 79.5974 66.2552 79.8081 66.0997 79.9634C65.9442 80.1188 65.7334 80.2061 65.5135 80.2064Z" fill="#0077B6"/>
<path d="M81.4012 80.2064H70.9603C70.7404 80.2061 70.5296 80.1188 70.3741 79.9634C70.2186 79.8081 70.1311 79.5974 70.1309 79.3777V73.8208C70.1311 73.6011 70.2186 73.3905 70.3741 73.2352C70.5296 73.0798 70.7404 72.9924 70.9603 72.9922H81.4012C81.6211 72.9924 81.8319 73.0798 81.9874 73.2352C82.1429 73.3905 82.2303 73.6011 82.2306 73.8208V79.3777C82.2303 79.5974 82.1429 79.8081 81.9874 79.9634C81.8319 80.1188 81.6211 80.2061 81.4012 80.2064Z" fill="#0077B6"/>
<path d="M97.2898 80.2064H86.8489C86.629 80.2061 86.4182 80.1188 86.2627 79.9634C86.1072 79.8081 86.0198 79.5974 86.0195 79.3777V73.8208C86.0198 73.6011 86.1072 73.3905 86.2627 73.2352C86.4182 73.0798 86.629 72.9924 86.8489 72.9922H97.2898C97.5097 72.9924 97.7205 73.0798 97.876 73.2352C98.0315 73.3905 98.119 73.6011 98.1192 73.8208V79.3777C98.119 79.5974 98.0315 79.8081 97.876 79.9634C97.7205 80.1188 97.5097 80.2061 97.2898 80.2064Z" fill="#0077B6"/>
<path d="M63.8226 43.859H51.7274C51.4351 43.8586 51.1549 43.7425 50.9482 43.536C50.7416 43.3295 50.6253 43.0495 50.625 42.7575V36.3202C50.6253 36.0282 50.7416 35.7482 50.9482 35.5417C51.1549 35.3352 51.4351 35.2191 51.7274 35.2188H63.8226C64.1149 35.2191 64.3951 35.3352 64.6017 35.5417C64.8084 35.7482 64.9247 36.0282 64.925 36.3202V42.7575C64.9247 43.0495 64.8084 43.3295 64.6017 43.536C64.3951 43.7425 64.1149 43.8586 63.8226 43.859ZM51.7274 35.5017C51.5102 35.5019 51.302 35.5882 51.1484 35.7417C50.9948 35.8951 50.9084 36.1032 50.9082 36.3202V42.7575C50.9084 42.9745 50.9948 43.1826 51.1484 43.336C51.302 43.4895 51.5102 43.5758 51.7274 43.5761H63.8226C64.0398 43.5758 64.248 43.4895 64.4016 43.336C64.5552 43.1826 64.6416 42.9745 64.6418 42.7575V36.3202C64.6416 36.1032 64.5552 35.8951 64.4016 35.7417C64.248 35.5882 64.0398 35.5019 63.8226 35.5017H51.7274Z" fill="#3F3D56"/>
<path d="M82.2288 43.859H70.1337C69.8414 43.8586 69.5612 43.7425 69.3545 43.536C69.1478 43.3295 69.0316 43.0495 69.0312 42.7575V36.3202C69.0316 36.0282 69.1478 35.7482 69.3545 35.5417C69.5612 35.3352 69.8414 35.2191 70.1337 35.2188H82.2288C82.5211 35.2191 82.8013 35.3352 83.008 35.5417C83.2147 35.7482 83.3309 36.0282 83.3313 36.3202V42.7575C83.3309 43.0495 83.2147 43.3295 83.008 43.536C82.8013 43.7425 82.5211 43.8586 82.2288 43.859ZM70.1337 35.5017C69.9165 35.5019 69.7082 35.5882 69.5546 35.7417C69.401 35.8951 69.3147 36.1032 69.3144 36.3202V42.7575C69.3147 42.9745 69.401 43.1826 69.5546 43.336C69.7082 43.4895 69.9165 43.5758 70.1337 43.5761H82.2288C82.446 43.5758 82.6543 43.4895 82.8079 43.336C82.9615 43.1826 83.0478 42.9745 83.0481 42.7575V36.3202C83.0478 36.1032 82.9615 35.8951 82.8079 35.7417C82.6543 35.5882 82.446 35.5019 82.2288 35.5017H70.1337Z" fill="#3F3D56"/>
<path d="M100.635 43.859H88.5399C88.2476 43.8586 87.9674 43.7425 87.7608 43.536C87.5541 43.3295 87.4378 43.0495 87.4375 42.7575V36.3202C87.4378 36.0282 87.5541 35.7482 87.7608 35.5417C87.9674 35.3352 88.2476 35.2191 88.5399 35.2188H100.635C100.927 35.2191 101.208 35.3352 101.414 35.5417C101.621 35.7482 101.737 36.0282 101.738 36.3202V42.7575C101.737 43.0495 101.621 43.3295 101.414 43.536C101.208 43.7425 100.927 43.8586 100.635 43.859ZM88.5399 35.5017C88.3227 35.5019 88.1145 35.5882 87.9609 35.7417C87.8073 35.8951 87.7209 36.1032 87.7207 36.3202V42.7575C87.7209 42.9745 87.8073 43.1826 87.9609 43.336C88.1145 43.4895 88.3227 43.5758 88.5399 43.5761H100.635C100.852 43.5758 101.061 43.4895 101.214 43.336C101.368 43.1826 101.454 42.9745 101.454 42.7575V36.3202C101.454 36.1032 101.368 35.8951 101.214 35.7417C101.061 35.5882 100.852 35.5019 100.635 35.5017H88.5399Z" fill="#3F3D56"/>
<path d="M63.8226 62.3902H51.7274C51.4351 62.3899 51.1549 62.2737 50.9482 62.0672C50.7416 61.8607 50.6253 61.5808 50.625 61.2888V54.8515C50.6253 54.5594 50.7416 54.2795 50.9482 54.073C51.1549 53.8665 51.4351 53.7503 51.7274 53.75H63.8226C64.1149 53.7503 64.3951 53.8665 64.6017 54.073C64.8084 54.2795 64.9247 54.5594 64.925 54.8515V61.2888C64.9247 61.5808 64.8084 61.8607 64.6017 62.0672C64.3951 62.2737 64.1149 62.3899 63.8226 62.3902ZM51.7274 54.0329C51.5102 54.0332 51.302 54.1195 51.1484 54.2729C50.9948 54.4264 50.9084 54.6344 50.9082 54.8515V61.2888C50.9084 61.5058 50.9948 61.7138 51.1484 61.8673C51.302 62.0207 51.5102 62.1071 51.7274 62.1073H63.8226C64.0398 62.1071 64.248 62.0207 64.4016 61.8673C64.5552 61.7138 64.6416 61.5058 64.6418 61.2888V54.8515C64.6416 54.6344 64.5552 54.4264 64.4016 54.2729C64.248 54.1195 64.0398 54.0332 63.8226 54.0329H51.7274Z" fill="#3F3D56"/>
<path d="M82.2288 62.3902H70.1337C69.8414 62.3899 69.5612 62.2737 69.3545 62.0672C69.1478 61.8607 69.0316 61.5808 69.0312 61.2888V54.8515C69.0316 54.5594 69.1478 54.2795 69.3545 54.073C69.5612 53.8665 69.8414 53.7503 70.1337 53.75H82.2288C82.5211 53.7503 82.8013 53.8665 83.008 54.073C83.2147 54.2795 83.3309 54.5594 83.3313 54.8515V61.2888C83.3309 61.5808 83.2147 61.8607 83.008 62.0672C82.8013 62.2737 82.5211 62.3899 82.2288 62.3902ZM70.1337 54.0329C69.9165 54.0332 69.7082 54.1195 69.5546 54.2729C69.401 54.4264 69.3147 54.6344 69.3144 54.8515V61.2888C69.3147 61.5058 69.401 61.7138 69.5546 61.8673C69.7082 62.0207 69.9165 62.1071 70.1337 62.1073H82.2288C82.446 62.1071 82.6543 62.0207 82.8079 61.8673C82.9615 61.7138 83.0478 61.5058 83.0481 61.2888V54.8515C83.0478 54.6344 82.9615 54.4264 82.8079 54.2729C82.6543 54.1195 82.446 54.0332 82.2288 54.0329H70.1337Z" fill="#3F3D56"/>
<path d="M100.635 62.3902H88.5399C88.2476 62.3899 87.9674 62.2737 87.7608 62.0672C87.5541 61.8607 87.4378 61.5808 87.4375 61.2888V54.8515C87.4378 54.5594 87.5541 54.2795 87.7608 54.073C87.9674 53.8665 88.2476 53.7503 88.5399 53.75H100.635C100.927 53.7503 101.208 53.8665 101.414 54.073C101.621 54.2795 101.737 54.5594 101.738 54.8515V61.2888C101.737 61.5808 101.621 61.8607 101.414 62.0672C101.208 62.2737 100.927 62.3899 100.635 62.3902ZM88.5399 54.0329C88.3227 54.0332 88.1145 54.1195 87.9609 54.2729C87.8073 54.4264 87.7209 54.6344 87.7207 54.8515V61.2888C87.7209 61.5058 87.8073 61.7138 87.9609 61.8673C88.1145 62.0207 88.3227 62.1071 88.5399 62.1073H100.635C100.852 62.1071 101.061 62.0207 101.214 61.8673C101.368 61.7138 101.454 61.5058 101.454 61.2888V54.8515C101.454 54.6344 101.368 54.4264 101.214 54.2729C101.061 54.1195 100.852 54.0332 100.635 54.0329H88.5399Z" fill="#3F3D56"/>
<path d="M63.8226 80.9176H51.7274C51.4351 80.9172 51.1549 80.8011 50.9482 80.5946C50.7416 80.3881 50.6253 80.1081 50.625 79.8161V73.3788C50.6253 73.0868 50.7416 72.8068 50.9482 72.6003C51.1549 72.3938 51.4351 72.2777 51.7274 72.2773H63.8226C64.1149 72.2777 64.3951 72.3938 64.6017 72.6003C64.8084 72.8068 64.9247 73.0868 64.925 73.3788V79.8161C64.9247 80.1081 64.8084 80.3881 64.6017 80.5946C64.3951 80.8011 64.1149 80.9172 63.8226 80.9176ZM51.7274 72.5603C51.5102 72.5605 51.302 72.6468 51.1484 72.8003C50.9948 72.9537 50.9084 73.1618 50.9082 73.3788V79.8161C50.9084 80.0331 50.9948 80.2412 51.1484 80.3946C51.302 80.5481 51.5102 80.6344 51.7274 80.6346H63.8226C64.0398 80.6344 64.248 80.5481 64.4016 80.3946C64.5552 80.2412 64.6416 80.0331 64.6418 79.8161V73.3788C64.6416 73.1618 64.5552 72.9537 64.4016 72.8003C64.248 72.6468 64.0398 72.5605 63.8226 72.5603H51.7274Z" fill="#3F3D56"/>
<path d="M82.2288 80.9176H70.1337C69.8414 80.9172 69.5612 80.8011 69.3545 80.5946C69.1478 80.3881 69.0316 80.1081 69.0312 79.8161V73.3788C69.0316 73.0868 69.1478 72.8068 69.3545 72.6003C69.5612 72.3938 69.8414 72.2777 70.1337 72.2773H82.2288C82.5211 72.2777 82.8013 72.3938 83.008 72.6003C83.2147 72.8068 83.3309 73.0868 83.3313 73.3788V79.8161C83.3309 80.1081 83.2147 80.3881 83.008 80.5946C82.8013 80.8011 82.5211 80.9172 82.2288 80.9176ZM70.1337 72.5603C69.9165 72.5605 69.7082 72.6468 69.5546 72.8003C69.401 72.9537 69.3147 73.1618 69.3144 73.3788V79.8161C69.3147 80.0331 69.401 80.2412 69.5546 80.3946C69.7082 80.5481 69.9165 80.6344 70.1337 80.6346H82.2288C82.446 80.6344 82.6543 80.5481 82.8079 80.3946C82.9615 80.2412 83.0478 80.0331 83.0481 79.8161V73.3788C83.0478 73.1618 82.9615 72.9537 82.8079 72.8003C82.6543 72.6468 82.446 72.5605 82.2288 72.5603H70.1337Z" fill="#3F3D56"/>
<path d="M100.635 80.9176H88.5399C88.2476 80.9172 87.9674 80.8011 87.7608 80.5946C87.5541 80.3881 87.4378 80.1081 87.4375 79.8161V73.3788C87.4378 73.0868 87.5541 72.8068 87.7608 72.6003C87.9674 72.3938 88.2476 72.2777 88.5399 72.2773H100.635C100.927 72.2777 101.208 72.3938 101.414 72.6003C101.621 72.8068 101.737 73.0868 101.738 73.3788V79.8161C101.737 80.1081 101.621 80.3881 101.414 80.5946C101.208 80.8011 100.927 80.9172 100.635 80.9176ZM88.5399 72.5603C88.3227 72.5605 88.1145 72.6468 87.9609 72.8003C87.8073 72.9537 87.7209 73.1618 87.7207 73.3788V79.8161C87.7209 80.0331 87.8073 80.2412 87.9609 80.3946C88.1145 80.5481 88.3227 80.6344 88.5399 80.6346H100.635C100.852 80.6344 101.061 80.5481 101.214 80.3946C101.368 80.2412 101.454 80.0331 101.454 79.8161V73.3788C101.454 73.1618 101.368 72.9537 101.214 72.8003C101.061 72.6468 100.852 72.5605 100.635 72.5603H88.5399Z" fill="#3F3D56"/>
<path d="M85.7997 85.8938C85.8051 85.4969 85.6309 85.1143 85.3152 84.8302C84.9996 84.5462 84.5684 84.3838 84.1165 84.3789H75.7998V102.379H85.7997V85.8938Z" fill="#3F3D56"/>
<path d="M76.7998 103.379H65.7998V86.1313C65.8004 85.6667 66.0103 85.2213 66.3835 84.8928C66.7566 84.5642 67.2626 84.3794 67.7903 84.3789H76.7998V103.379ZM66.2189 103.01H76.3808V84.7478H67.7903C67.3737 84.7482 66.9742 84.8941 66.6796 85.1535C66.385 85.4129 66.2193 85.7645 66.2189 86.1313V103.01Z" fill="#3F3D56"/>
<path d="M135.301 88.8789H104.301V60.666C104.301 60.1375 104.438 59.6546 104.654 59.3207C104.728 59.2067 104.866 59.0921 105.048 59.0042C105.231 58.9161 105.408 58.8792 105.516 58.8789H134.086C134.193 58.8792 134.37 58.9161 134.553 59.0042C134.736 59.0921 134.874 59.2067 134.948 59.3207C135.163 59.6546 135.3 60.1376 135.301 60.6662V88.8789Z" fill="white" stroke="#0077B6"/>
<path fill-rule="evenodd" clip-rule="evenodd" d="M115.5 60.5H106.5V69.5H109.5V72.5H106.5V75.5H109.5V72.5H112.5V75.5H114.5V78.5H106.5V87.5H115.5V78.5H124.5V81.5H121.5H120.5H118.5V87.5H121.5V84.5H123.5V87.5H126.5V84.5H129.5V81.5H127.5V78.5H130.5V81.5H133.5V78.5H130.5V75.5H133.5V72.5H130.5V69.5H133.5V60.5H124.5V69.5H115.5V60.5ZM115.5 72.5V69.5H112.5V72.5H115.5ZM115.5 72.5V75.5H118.5V72.5H115.5ZM127.5 72.5H130.5V75.5H127.5V72.5ZM127.5 72.5H125.5V69.5H127.5V72.5ZM124.5 75.5H127.5V78.5H124.5V75.5ZM124.5 75.5H121.5V72.5H124.5V75.5ZM113.5 62.5H108.5V67.5H113.5V62.5ZM113.5 80.5H108.5V85.5H113.5V80.5ZM112.5 63.5H109.5V66.5H112.5V63.5ZM109.5 81.5H112.5V84.5H109.5V81.5ZM118.5 60.5H121.5V68.5H118.5V60.5ZM133.5 84.5H130.5V87.5H133.5V84.5ZM131.5 62.5H126.5V67.5H131.5V62.5ZM130.5 63.5H127.5V66.5H130.5V63.5Z" fill="black"/>
<path d="M22.7336 102.886L144.267 103C144.329 102.999 144.388 102.952 144.432 102.869C144.475 102.786 144.5 102.674 144.5 102.557C144.5 102.44 144.475 102.328 144.432 102.245C144.388 102.162 144.329 102.115 144.267 102.114L22.7336 102C22.6715 102.001 22.6121 102.047 22.5683 102.13C22.5246 102.213 22.5 102.326 22.5 102.443C22.5 102.56 22.5246 102.672 22.5683 102.755C22.6121 102.838 22.6715 102.885 22.7336 102.886Z" fill="#001D32"/>
<path d="M136.037 41.3323C136.14 41.5883 136.432 41.7116 136.688 41.6079L140.858 39.9176C141.114 39.8139 141.238 39.5223 141.134 39.2664C141.03 39.0105 140.739 38.8871 140.483 38.9908L136.776 40.4933L135.273 36.7863C135.169 36.5303 134.878 36.407 134.622 36.5107C134.366 36.6144 134.243 36.906 134.346 37.1619L136.037 41.3323ZM231.784 19.2208C232.011 19.064 232.068 18.7526 231.912 18.5253L229.357 14.8207C229.2 14.5934 228.889 14.5362 228.662 14.6929C228.434 14.8497 228.377 15.1611 228.534 15.3884L230.805 18.6814L227.512 20.9521C227.284 21.1089 227.227 21.4203 227.384 21.6476C227.541 21.8749 227.852 21.9321 228.079 21.7754L231.784 19.2208ZM136.5 41.1445C136.96 41.3394 136.96 41.3394 136.96 41.3395C136.96 41.3395 136.96 41.3395 136.96 41.3395C136.96 41.3396 136.96 41.3396 136.96 41.3396C136.96 41.3396 136.96 41.3396 136.96 41.3395C136.96 41.3394 136.961 41.339 136.961 41.3385C136.961 41.3374 136.962 41.3355 136.963 41.3328C136.966 41.3274 136.969 41.3189 136.974 41.3073C136.985 41.284 137 41.2484 137.022 41.2011C137.065 41.1063 137.132 40.9644 137.222 40.7799C137.404 40.4108 137.682 39.8715 138.069 39.1979L137.202 38.7C136.804 39.3934 136.515 39.9518 136.325 40.3388C136.23 40.5323 136.159 40.683 136.112 40.7863C136.089 40.838 136.071 40.8778 136.059 40.9052C136.053 40.9189 136.048 40.9295 136.045 40.937C136.043 40.9407 136.042 40.9436 136.041 40.9457C136.041 40.9468 136.04 40.9476 136.04 40.9483C136.04 40.9486 136.04 40.9489 136.04 40.9491C136.04 40.9493 136.04 40.9494 136.04 40.9494C136.04 40.9495 136.04 40.9495 136.04 40.9496C136.04 40.9496 136.04 40.9497 136.5 41.1445ZM140.789 35.0925C141.668 33.9204 142.715 32.6456 143.946 31.3244L143.214 30.6429C141.958 31.9918 140.888 33.294 139.989 34.4924L140.789 35.0925ZM147.487 27.8937C148.659 26.8685 149.943 25.8441 151.347 24.8448L150.767 24.0302C149.335 25.0496 148.024 26.0947 146.828 27.141L147.487 27.8937ZM155.498 22.1866C156.87 21.3997 158.332 20.6462 159.887 19.9407L159.474 19.03C157.889 19.7489 156.4 20.5168 155.001 21.3192L155.498 22.1866ZM164.462 18.1115C165.961 17.5889 167.533 17.1121 169.181 16.6906L168.933 15.7218C167.258 16.1503 165.659 16.6353 164.133 17.1673L164.462 18.1115ZM174.011 15.6601C175.582 15.3886 177.214 15.1664 178.908 14.9997L178.81 14.0045C177.092 14.1735 175.436 14.399 173.84 14.6747L174.011 15.6601ZM183.835 14.6832C184.652 14.6576 185.481 14.6445 186.324 14.6445V13.6445C185.471 13.6445 184.631 13.6578 183.804 13.6837L183.835 14.6832ZM186.324 14.6445C187.07 14.6445 187.825 14.6512 188.586 14.664L188.603 13.6642C187.837 13.6513 187.076 13.6445 186.324 13.6445V14.6445ZM193.117 14.8065C194.619 14.874 196.133 14.9607 197.647 15.063L197.714 14.0653C196.194 13.9625 194.672 13.8753 193.162 13.8075L193.117 14.8065ZM202.172 15.413C203.695 15.545 205.206 15.6893 206.692 15.8422L206.794 14.8475C205.304 14.6941 203.788 14.5492 202.258 14.4168L202.172 15.413ZM211.202 16.3399C212.757 16.5225 214.266 16.7108 215.712 16.8997L215.842 15.9081C214.392 15.7187 212.879 15.5299 211.319 15.3467L211.202 16.3399ZM220.214 17.516C221.852 17.7504 223.36 17.9771 224.703 18.1858L224.856 17.1976C223.51 16.9884 221.998 16.7611 220.355 16.526L220.214 17.516ZM229.19 18.9133C229.902 19.034 230.457 19.131 230.834 19.1978C231.023 19.2311 231.167 19.257 231.264 19.2744C231.312 19.2832 231.349 19.2898 231.373 19.2943C231.385 19.2965 231.395 19.2981 231.401 19.2993C231.404 19.2998 231.406 19.3002 231.408 19.3005C231.408 19.3006 231.409 19.3007 231.409 19.3008C231.409 19.3008 231.409 19.3009 231.41 19.3009C231.41 19.3009 231.41 19.3009 231.41 19.3009C231.41 19.3009 231.41 19.3009 231.41 19.3009C231.41 19.3009 231.41 19.3009 231.5 18.8091C231.59 18.3174 231.59 18.3174 231.59 18.3174C231.59 18.3174 231.59 18.3174 231.59 18.3174C231.59 18.3173 231.59 18.3173 231.59 18.3173C231.59 18.3173 231.59 18.3173 231.59 18.3172C231.589 18.3172 231.589 18.317 231.588 18.3169C231.586 18.3166 231.584 18.3162 231.581 18.3156C231.574 18.3144 231.565 18.3127 231.552 18.3104C231.527 18.3059 231.49 18.2992 231.441 18.2903C231.344 18.2727 231.199 18.2467 231.009 18.2131C230.629 18.1459 230.071 18.0485 229.357 17.9274L229.19 18.9133Z" fill="#BFC8CA"/>
<path d="M227.432 62.9873C227.293 62.7488 226.986 62.6683 226.748 62.8076L222.862 65.0767C222.623 65.2159 222.543 65.5221 222.682 65.7606C222.821 65.999 223.128 66.0795 223.366 65.9402L226.82 63.9233L228.837 67.3775C228.977 67.616 229.283 67.6964 229.521 67.5572C229.76 67.418 229.84 67.1118 229.701 66.8733L227.432 62.9873ZM145.791 81.2138C145.54 81.3295 145.43 81.6265 145.546 81.8773L147.431 85.9635C147.547 86.2142 147.844 86.3237 148.094 86.2081C148.345 86.0924 148.455 85.7953 148.339 85.5446L146.663 81.9124L150.296 80.2369C150.546 80.1212 150.656 79.8242 150.54 79.5734C150.425 79.3227 150.127 79.2132 149.877 79.3289L145.791 81.2138ZM185 89.2305L185 89.7305L185 89.2305ZM227 63.2394C226.516 63.1123 226.516 63.1123 226.516 63.1122C226.516 63.1122 226.516 63.1122 226.516 63.1121C226.516 63.1121 226.516 63.1121 226.516 63.112C226.516 63.112 226.516 63.112 226.516 63.1121C226.516 63.1123 226.516 63.1126 226.516 63.1133C226.516 63.1145 226.515 63.1166 226.514 63.1197C226.513 63.1257 226.51 63.1354 226.506 63.1486C226.499 63.175 226.488 63.2155 226.472 63.2693C226.44 63.3769 226.39 63.538 226.32 63.7468C226.181 64.1644 225.961 64.7728 225.642 65.5271L226.563 65.9162C226.893 65.1364 227.122 64.5037 227.269 64.0637C227.342 63.8437 227.395 63.6718 227.43 63.5537C227.448 63.4946 227.461 63.449 227.47 63.4176C227.474 63.4019 227.477 63.3897 227.48 63.3811C227.481 63.3768 227.482 63.3735 227.482 63.371C227.483 63.3698 227.483 63.3688 227.483 63.368C227.483 63.3676 227.483 63.3673 227.483 63.367C227.483 63.3669 227.483 63.3668 227.484 63.3667C227.484 63.3666 227.484 63.3666 227.484 63.3665C227.484 63.3665 227.484 63.3664 227 63.2394ZM223.235 70.1513C222.411 71.4799 221.402 72.9125 220.176 74.3718L220.942 75.015C222.201 73.5158 223.238 72.044 224.085 70.6785L223.235 70.1513ZM216.542 78.1205C215.314 79.2196 213.945 80.2963 212.422 81.317L212.979 82.1478C214.542 81.1001 215.948 79.9946 217.209 78.8657L216.542 78.1205ZM207.894 83.9263C206.403 84.6589 204.799 85.3335 203.073 85.9311L203.4 86.8761C205.165 86.265 206.808 85.5746 208.335 84.8238L207.894 83.9263ZM198.039 87.3606C196.409 87.7289 194.69 88.0317 192.876 88.2582L193 89.2505C194.845 89.0201 196.597 88.7116 198.259 88.3361L198.039 87.3606ZM187.638 88.6801C186.778 88.7134 185.898 88.7305 185 88.7305L185 89.7305C185.911 89.7305 186.803 89.7131 187.677 89.6794L187.638 88.6801ZM185 88.7305C184.179 88.7305 183.353 88.7154 182.525 88.6867L182.49 89.6861C183.329 89.7152 184.167 89.7305 185 89.7305L185 88.7305ZM177.578 88.3633C175.923 88.2076 174.275 88.0079 172.65 87.7748L172.508 88.7646C174.147 88.9998 175.811 89.2015 177.484 89.3589L177.578 88.3633ZM167.75 86.9655C166.075 86.6538 164.445 86.3164 162.882 85.9664L162.663 86.9423C164.238 87.2946 165.879 87.6346 167.568 87.9486L167.75 86.9655ZM158.046 84.7991C156.297 84.3467 154.687 83.8976 153.253 83.4777L152.972 84.4375C154.415 84.86 156.036 85.312 157.795 85.7672L158.046 84.7991ZM148.503 82.0011C147.755 81.7538 147.172 81.5528 146.776 81.4138C146.577 81.3443 146.426 81.2903 146.325 81.2538C146.274 81.2356 146.236 81.2217 146.21 81.2124C146.198 81.2078 146.188 81.2043 146.182 81.202C146.179 81.2009 146.176 81.2 146.175 81.1995C146.174 81.1992 146.174 81.199 146.173 81.1989C146.173 81.1988 146.173 81.1988 146.173 81.1987C146.173 81.1987 146.173 81.1987 146.173 81.1987C146.173 81.1987 146.173 81.1987 146.173 81.1987C146.173 81.1987 146.173 81.1987 146 81.6679C145.827 82.137 145.827 82.137 145.827 82.137C145.827 82.137 145.827 82.137 145.827 82.137C145.827 82.137 145.827 82.1371 145.827 82.1371C145.827 82.1371 145.828 82.1372 145.828 82.1373C145.828 82.1375 145.829 82.1377 145.83 82.1381C145.832 82.1387 145.834 82.1397 145.838 82.1409C145.845 82.1434 145.855 82.1471 145.868 82.152C145.895 82.1617 145.934 82.176 145.986 82.1947C146.09 82.2321 146.244 82.287 146.445 82.3574C146.846 82.4983 147.435 82.7012 148.189 82.9505L148.503 82.0011Z" fill="#BFC8CA"/>
<path d="M241.134 98.3686H242.635L243.35 92.6523H241.134V98.3686Z" fill="#A0616A"/>
<path d="M240.643 97.3523L243.042 97.2109V98.2254L245.322 99.78C245.435 99.8568 245.52 99.9671 245.564 100.095C245.609 100.223 245.611 100.361 245.57 100.49C245.53 100.619 245.448 100.732 245.338 100.812C245.228 100.892 245.094 100.935 244.958 100.935H242.102L241.61 99.9317L241.418 100.935H240.341L240.643 97.3523Z" fill="#2F2E41"/>
<path d="M253.142 98.3686H254.643L255.358 92.6523H253.142V98.3686Z" fill="#A0616A"/>
<path d="M252.652 97.3523L255.051 97.2109V98.2254L257.331 99.78C257.444 99.8568 257.529 99.9671 257.573 100.095C257.618 100.223 257.62 100.361 257.579 100.49C257.539 100.619 257.457 100.732 257.347 100.812C257.237 100.892 257.103 100.935 256.966 100.935H254.111L253.618 99.9317L253.426 100.935H252.35L252.652 97.3523Z" fill="#2F2E41"/>
<path d="M242.322 63.4551L250.305 63.6525V55.1367L243.748 55.1688L242.322 63.4551Z" fill="#A0616A"/>
<path d="M250.345 57.3242L251.412 60.8335L253.627 65.4366L258.306 92.0245L257.591 95.7023L250.654 95.4146L247.565 72.6182L247.515 75.7653L247.491 77.2886C247.491 77.2886 248.618 87.1961 247.305 89.1188C245.991 91.0416 247.278 90.8154 247.278 90.8154L247.215 94.7816L238.996 94.8392L240.809 83.4202C240.809 83.4202 241.73 82.7026 241.237 81.9813C240.745 81.2599 241.715 80.3765 241.715 80.3765L241.28 71.462C241.28 71.462 241.762 69.9222 241.195 69.7221C240.628 69.5219 241.121 68.1978 241.121 68.1978L241.036 66.4723L242.901 59.5131L250.345 57.3242Z" fill="#2F2E41"/>
<path d="M242.61 55.1367L241.794 52.72L241.211 51.9145L240.978 49.6129C240.978 43.3987 242.382 44.4335 242.382 44.4335L244.213 42.2479L246.297 42.1836L247.944 42.1328L249.313 44.3768L251.295 45.0673L252.071 49.0479L250.654 53.2954L250.716 52.9798C251.384 54.1956 251.214 54.3784 250.661 55.2913L250.634 55.6209C250.569 56.4002 251.119 56.5345 250.345 56.6984C243.692 58.1055 243.059 60.9197 242.267 59.8253C242.09 59.5816 242.839 56.6732 242.584 56.6984C241.884 56.7674 242.61 55.1367 242.61 55.1367Z" fill="#E6E6E6"/>
<path d="M246.687 41.3589C248.597 41.3589 250.145 39.8305 250.145 37.9451C250.145 36.0597 248.597 34.5312 246.687 34.5312C244.777 34.5312 243.229 36.0597 243.229 37.9451C243.229 39.8305 244.777 41.3589 246.687 41.3589Z" fill="#A0616A"/>
<path d="M239.392 62.3034L239.746 50.2773L242.053 51.2735L240.903 62.2595C241.084 62.4062 241.215 62.6039 241.279 62.8261C241.343 63.0483 241.336 63.2844 241.261 63.503C241.185 63.7216 241.043 63.9121 240.855 64.0492C240.667 64.1863 240.441 64.2634 240.207 64.2702C239.973 64.277 239.742 64.2131 239.546 64.0872C239.35 63.9613 239.197 63.7792 239.109 63.5654C239.02 63.3516 239 63.1162 239.051 62.8907C239.101 62.6652 239.22 62.4603 239.392 62.3034Z" fill="#A0616A"/>
<path d="M242.34 44.3711L242.072 44.4547C241.355 44.6781 240.729 45.1212 240.285 45.7197C239.841 46.3181 239.601 47.0407 239.601 47.7827L239.097 50.0633C239.828 51.3013 240.908 51.9147 242.413 51.771L242.34 44.3711Z" fill="#E6E6E6"/>
<path d="M258.108 48.521C258.109 48.3525 258.071 48.186 257.997 48.0338C257.924 47.8816 257.817 47.7475 257.685 47.6411C257.553 47.5347 257.398 47.4589 257.232 47.419C257.066 47.3791 256.893 47.3762 256.726 47.4105C256.559 47.4448 256.402 47.5154 256.266 47.6173C256.13 47.7192 256.018 47.8497 255.94 47.9993C255.862 48.149 255.818 48.314 255.812 48.4824C255.806 48.6508 255.839 48.8184 255.907 48.9729L253.645 52.4909V50.3808L251.094 50.6531L251.451 54.4136C251.479 54.7146 251.605 54.9987 251.808 55.2246C252.012 55.4505 252.283 55.6063 252.583 55.6694C252.882 55.7325 253.194 55.6995 253.474 55.5753C253.753 55.451 253.985 55.2421 254.135 54.9788L257.192 49.6313C257.451 49.5784 257.684 49.4391 257.85 49.2369C258.017 49.0346 258.108 48.7818 258.108 48.521Z" fill="#A0616A"/>
<path d="M250.887 44.9336L251.144 45.0136C251.83 45.2273 252.428 45.6512 252.853 46.2237C253.279 46.7962 253.508 47.4875 253.508 48.1972L253.99 50.379C253.291 51.5632 252.257 52.15 250.818 52.0126L250.887 44.9336Z" fill="#E6E6E6"/>
<path d="M242.247 38.7068C242.44 37.9811 242.513 37.2216 242.792 36.5236C243.069 35.8307 243.538 35.2288 244.146 34.7871C244.754 34.3455 245.476 34.0819 246.228 34.0266C246.981 33.9713 247.734 34.1265 248.401 34.4745C249.069 34.8225 249.623 35.3491 250.001 35.994C250.332 36.5172 250.472 37.1366 250.397 37.7491C250.287 38.4154 249.84 39.0489 249.98 39.7096C250.073 40.1517 250.411 40.4951 250.68 40.8607C250.949 41.2263 251.161 41.7099 250.967 42.1191C250.757 42.5635 250.173 42.6949 249.678 42.6532C249.183 42.6114 248.687 42.4537 248.198 42.5422L248.431 41.6419C247.852 42.1923 247.273 42.7427 246.693 43.2931C246.757 42.7203 246.488 42.1707 246.302 41.6244C246.116 41.0781 246.029 40.4197 246.398 39.9726C246.618 39.7053 246.957 39.5702 247.26 39.3989C247.563 39.2277 247.864 38.9713 247.895 38.628C247.933 38.2035 247.548 37.8629 247.169 37.6576C246.791 37.4524 246.355 37.2803 246.143 36.9093C246.295 37.2323 246.448 37.5553 246.6 37.8783C246.093 37.8429 245.605 37.6762 245.184 37.3949C244.763 37.1136 244.425 36.7278 244.203 36.2763L243.995 36.4113C242.258 38.3337 244.482 41.2142 243.178 42.2221C243.751 41.2143 241.95 39.8243 242.247 38.7068Z" fill="#2F2E41"/>
<path d="M287.459 2.55132L255.729 11.6124C250.795 13.0216 247.951 18.113 249.379 22.9843L270.355 94.5547C271.783 99.4259 276.941 102.232 281.876 100.823L313.606 91.7621C318.541 90.3529 321.384 85.2615 319.956 80.3902L298.98 8.81983C297.552 3.94856 292.394 1.14206 287.459 2.55132Z" fill="#3F3D56"/>
<path d="M287.701 3.37636L283.552 4.56129L283.967 5.97623C284.154 6.61668 284.077 7.3045 283.751 7.88838C283.424 8.47226 282.877 8.90437 282.228 9.08965L263.69 14.3836C263.041 14.5689 262.344 14.4922 261.752 14.1703C261.161 13.8485 260.723 13.3079 260.535 12.6674L260.121 11.2525L255.971 12.4374C253.825 13.053 252.013 14.4838 250.934 16.4161C249.855 18.3483 249.597 20.6242 250.216 22.7443L271.192 94.3147C271.815 96.4335 273.265 98.2215 275.222 99.2867C277.18 100.352 279.486 100.607 281.634 99.9962L313.363 90.9351C315.51 90.3196 317.321 88.8887 318.4 86.9565C319.479 85.0242 319.738 82.7484 319.119 80.6282L298.143 9.05784C297.519 6.93908 296.07 5.151 294.112 4.08589C292.155 3.02078 289.849 2.76561 287.701 3.37636Z" fill="white"/>
<path d="M270.352 58.8571L265.123 41.2031L282.777 35.9738L279.064 42.8128L271.962 44.9164L274.066 52.0181L270.352 58.8571Z" fill="#AAD1E6"/>
<path d="M291.871 61.686L298.962 59.5856L296.859 52.4839L300.572 45.6449L305.801 63.2988L288.158 68.525L291.871 61.686Z" fill="#004F79"/>
<path d="M275.833 57.9801L278.136 65.7571L285.903 63.4566L282.19 70.2956L274.423 72.5961L272.12 64.8191L275.833 57.9801Z" fill="#0077B6"/>
<path d="M291.874 61.6871L288.161 68.5261L295.252 66.4256L293.689 61.1495L291.874 61.6871Z" fill="#0077B6"/>
<path d="M273.528 50.191L268.252 51.7539L270.356 58.8556L274.069 52.0166L273.528 50.191Z" fill="#0077B6"/>
<path d="M288.739 34.2067L285.026 41.0457L287.326 48.8121L295.093 46.5116L298.806 39.6726L296.505 31.9061L288.739 34.2067Z" fill="#CD5038"/>
<path d="M251.87 32.3261C251.708 32.3719 251.535 32.3528 251.388 32.2727C251.241 32.1927 251.132 32.0583 251.085 31.8991L250.733 30.6976C250.71 30.6187 250.703 30.5361 250.712 30.4545C250.721 30.3729 250.747 30.2938 250.787 30.2219C250.827 30.15 250.881 30.0866 250.946 30.0353C251.011 29.984 251.086 29.9459 251.165 29.9231C251.245 29.9002 251.329 29.8932 251.412 29.9023C251.494 29.9114 251.575 29.9365 251.647 29.9761C251.72 30.0158 251.785 30.0692 251.836 30.1334C251.888 30.1975 251.927 30.2711 251.95 30.35L252.302 31.5515C252.349 31.7108 252.329 31.8819 252.248 32.0271C252.167 32.1723 252.031 32.2798 251.87 32.3261Z" fill="#3F3D56"/>
<path d="M253.675 38.4866C253.514 38.5325 253.341 38.5133 253.194 38.4333C253.047 38.3532 252.938 38.2188 252.891 38.0596L251.921 34.7523C251.898 34.6734 251.891 34.5908 251.9 34.5092C251.91 34.4276 251.935 34.3485 251.975 34.2766C252.015 34.2047 252.069 34.1413 252.134 34.09C252.199 34.0387 252.274 34.0006 252.354 33.9778C252.434 33.9549 252.518 33.9479 252.6 33.957C252.683 33.9661 252.763 33.9912 252.836 34.0308C252.909 34.0705 252.973 34.1239 253.025 34.188C253.077 34.2522 253.116 34.3258 253.139 34.4047L254.108 37.712C254.154 37.8714 254.135 38.0424 254.054 38.1876C253.973 38.3328 253.837 38.4403 253.675 38.4866Z" fill="#3F3D56"/>
<path d="M255.127 43.4397C254.965 43.4856 254.792 43.4664 254.645 43.3864C254.498 43.3063 254.389 43.172 254.342 43.0128L253.373 39.7054C253.326 39.5461 253.345 39.375 253.426 39.2297C253.507 39.0845 253.644 38.977 253.805 38.9309C253.967 38.8848 254.14 38.9039 254.287 38.9839C254.434 39.064 254.543 39.1985 254.59 39.3578L255.559 42.6652C255.606 42.8245 255.586 42.9955 255.505 43.1407C255.424 43.2859 255.288 43.3934 255.127 43.4397Z" fill="#3F3D56"/>
<path d="M304.239 26.4876C304.078 26.5335 303.905 26.5143 303.758 26.4342C303.61 26.3542 303.501 26.2198 303.455 26.0606L301.089 17.9906C301.043 17.8313 301.062 17.6601 301.143 17.5149C301.224 17.3696 301.361 17.2621 301.522 17.216C301.683 17.1699 301.857 17.189 302.004 17.2691C302.151 17.3492 302.26 17.4837 302.307 17.643L304.672 25.713C304.718 25.8723 304.699 26.0434 304.618 26.1886C304.537 26.3338 304.401 26.4413 304.239 26.4876Z" fill="#3F3D56"/>
<path d="M296.761 24.7962L260.506 35.1494C259.947 35.3085 259.346 35.242 258.837 34.9647C258.327 34.6874 257.95 34.2219 257.787 33.6702L255.75 26.7191C255.589 26.1671 255.656 25.5746 255.937 25.0715C256.218 24.5684 256.69 24.1959 257.249 24.0356L293.503 13.6824C294.063 13.5234 294.663 13.5898 295.173 13.8672C295.682 14.1445 296.06 14.61 296.222 15.1616L298.259 22.1127C298.42 22.6647 298.353 23.2573 298.072 23.7604C297.791 24.2634 297.32 24.636 296.761 24.7962ZM257.337 24.336C256.858 24.4732 256.455 24.7919 256.214 25.2224C255.974 25.6529 255.916 26.1599 256.054 26.6322L258.092 33.5833C258.23 34.0554 258.553 34.4537 258.989 34.691C259.426 34.9283 259.939 34.9851 260.418 34.8491L296.673 24.4958C297.151 24.3587 297.554 24.0399 297.795 23.6095C298.035 23.179 298.093 22.672 297.955 22.1996L295.918 15.2485C295.779 14.7765 295.456 14.3782 295.02 14.1409C294.584 13.9036 294.07 13.8467 293.591 13.9828L257.337 24.336Z" fill="#3F3D56"/>
<path d="M273.708 9.46598L268.992 10.8129C268.891 10.8412 268.783 10.829 268.691 10.7789C268.6 10.7288 268.532 10.645 268.503 10.5456C268.474 10.4463 268.486 10.3397 268.536 10.249C268.587 10.1584 268.671 10.0911 268.772 10.062L273.488 8.71505C273.538 8.70055 273.591 8.69595 273.643 8.7015C273.694 8.70705 273.745 8.72265 273.79 8.7474C273.836 8.77215 273.876 8.80557 273.909 8.84574C273.942 8.8859 273.966 8.93202 273.98 8.98146C273.995 9.03089 273.999 9.08266 273.993 9.1338C273.988 9.18494 273.972 9.23443 273.946 9.27945C273.921 9.32447 273.887 9.36412 273.846 9.39613C273.805 9.42814 273.759 9.45187 273.708 9.46598Z" fill="white"/>
<path d="M276.034 8.70741C276.209 8.70741 276.35 8.56742 276.35 8.39472C276.35 8.22203 276.209 8.08203 276.034 8.08203C275.859 8.08203 275.717 8.22203 275.717 8.39472C275.717 8.56742 275.859 8.70741 276.034 8.70741Z" fill="white"/>
<path d="M223.688 101.479L321.312 101.571C321.362 101.57 321.41 101.532 321.445 101.465C321.48 101.399 321.5 101.308 321.5 101.214C321.5 101.12 321.48 101.03 321.445 100.963C321.41 100.896 321.362 100.858 321.312 100.858L223.688 100.766C223.638 100.766 223.59 100.804 223.555 100.871C223.52 100.937 223.5 101.028 223.5 101.122C223.5 101.216 223.52 101.307 223.555 101.373C223.59 101.44 223.638 101.478 223.688 101.479Z" fill="#001D32"/>
</svg>
