<svg width="343" height="104" viewBox="0 0 343 104" fill="none" xmlns="http://www.w3.org/2000/svg">
<path d="M38.5614 53.1238C43.5659 53.1238 47.6228 49.0706 47.6228 44.0707C47.6228 39.0708 43.5659 35.0176 38.5614 35.0176C33.5569 35.0176 29.5 39.0708 29.5 44.0707C29.5 49.0706 33.5569 53.1238 38.5614 53.1238Z" fill="#FFB4A5"/>
<path d="M46.033 100.222H46.0238C45.7047 100.222 45.3988 100.095 45.1732 99.8696C44.9476 99.6442 44.8207 99.3386 44.8203 99.0198V28.4338C44.8207 28.115 44.9476 27.8094 45.1732 27.584C45.3988 27.3586 45.7047 27.2318 46.0238 27.2314H105.489C105.808 27.2318 106.114 27.3586 106.34 27.584C106.565 27.8094 106.692 28.115 106.693 28.4338V83.3183C106.692 83.6355 106.567 83.9397 106.343 84.1648C106.119 84.39 105.816 84.5178 105.498 84.5206L46.033 100.222Z" fill="#F2F2F2"/>
<path d="M89.9868 17.2575H62.3779V1.27309C62.3783 0.935567 62.5127 0.611975 62.7516 0.373307C62.9905 0.134639 63.3144 0.000386367 63.6522 0H88.7126C89.0504 0.000385993 89.3743 0.134639 89.6132 0.373307C89.8521 0.611975 89.9865 0.935567 89.9868 1.27309V17.2575ZM62.6611 16.9746H89.7037V1.27309C89.7034 1.01057 89.5989 0.758885 89.4131 0.573253C89.2273 0.387622 88.9754 0.283204 88.7126 0.28291H63.6522C63.3894 0.283205 63.1375 0.387622 62.9517 0.573253C62.7659 0.758885 62.6614 1.01057 62.6611 1.27309V16.9746Z" fill="#3F3D56"/>
<path d="M65.9698 4.77734H86.1298C86.639 4.77734 87.1274 4.92221 87.4875 5.18007C87.8475 5.43793 88.0498 5.78767 88.0498 6.15234V26.7773H64.0498V6.15234C64.0498 5.78767 64.2521 5.43793 64.6122 5.18007C64.9722 4.92221 65.4606 4.77734 65.9698 4.77734Z" fill="#E6E6E6"/>
<path d="M120.551 102.379C120.352 102.379 120.161 102.366 120.02 102.342C119.88 102.318 119.801 102.286 119.801 102.253V76.5058C119.8 76.4891 119.819 76.4727 119.857 76.4573C119.894 76.4419 119.949 76.4279 120.019 76.4161C120.089 76.4043 120.171 76.395 120.263 76.3886C120.354 76.3822 120.452 76.3789 120.551 76.3789C120.65 76.3789 120.748 76.3822 120.839 76.3886C120.93 76.395 121.013 76.4043 121.083 76.4161C121.152 76.4279 121.208 76.4419 121.245 76.4573C121.282 76.4727 121.301 76.4891 121.301 76.5058V102.253C121.301 102.286 121.222 102.318 121.081 102.342C120.94 102.366 120.75 102.379 120.551 102.379Z" fill="#CCCCCC"/>
<path d="M36.0808 102.71C35.9482 102.71 35.821 102.693 35.7273 102.662C35.6335 102.632 35.5808 102.59 35.5808 102.547V69.3239C35.5804 69.3024 35.5931 69.2811 35.618 69.2613C35.643 69.2414 35.6797 69.2234 35.7262 69.2082C35.7727 69.1929 35.8279 69.1809 35.8888 69.1726C35.9496 69.1644 36.0149 69.1602 36.0808 69.1602C36.1467 69.1602 36.212 69.1644 36.2728 69.1726C36.3337 69.1809 36.3889 69.1929 36.4354 69.2082C36.4819 69.2234 36.5186 69.2414 36.5436 69.2613C36.5685 69.2811 36.5812 69.3024 36.5808 69.3239V102.547C36.5808 102.59 36.5281 102.632 36.4344 102.662C36.3406 102.693 36.2134 102.71 36.0808 102.71Z" fill="#CCCCCC"/>
<path d="M134.345 102.778H122.168V102.637C122.168 101.838 122.325 101.046 122.631 100.308C122.936 99.5696 123.385 98.8986 123.95 98.3335C124.516 97.7683 125.187 97.32 125.926 97.0141C126.665 96.7082 127.457 96.5508 128.256 96.5508C129.056 96.5508 129.848 96.7082 130.587 97.0141C131.326 97.32 131.997 97.7683 132.563 98.3335C133.128 98.8986 133.577 99.5696 133.882 100.308C134.188 101.046 134.345 101.838 134.345 102.637L134.345 102.778ZM122.453 102.495H134.06C134.023 100.982 133.395 99.5429 132.311 98.4857C131.227 97.4284 129.772 96.8366 128.256 96.8366C126.741 96.8366 125.286 97.4284 124.202 98.4857C123.117 99.5429 122.49 100.982 122.453 102.495Z" fill="#3F3D56"/>
<path d="M128.254 99.1836C128.211 99.1836 128.17 99.2005 128.14 99.2306C128.11 99.2607 128.093 99.3016 128.093 99.3442V101.05L126.43 99.6238C126.414 99.61 126.395 99.5995 126.375 99.5929C126.355 99.5862 126.334 99.5836 126.313 99.5852C126.292 99.5868 126.271 99.5925 126.252 99.6021C126.233 99.6116 126.217 99.6247 126.203 99.6408C126.189 99.6568 126.179 99.6754 126.172 99.6954C126.165 99.7155 126.163 99.7367 126.165 99.7578C126.166 99.7788 126.172 99.7993 126.182 99.8182C126.191 99.837 126.204 99.8538 126.22 99.8675L128.093 101.473V102.475C128.093 102.497 128.097 102.518 128.105 102.537C128.113 102.557 128.125 102.574 128.14 102.589C128.155 102.604 128.173 102.616 128.192 102.624C128.212 102.632 128.233 102.637 128.254 102.637C128.275 102.637 128.296 102.632 128.315 102.624C128.335 102.616 128.353 102.604 128.368 102.589C128.383 102.574 128.394 102.557 128.402 102.537C128.41 102.518 128.415 102.497 128.415 102.475V99.3442C128.415 99.3016 128.398 99.2607 128.367 99.2306C128.337 99.2005 128.296 99.1836 128.254 99.1836Z" fill="#3F3D56"/>
<path d="M35.8878 85.559C35.8314 85.559 35.7764 85.559 35.72 85.5575C31.9348 85.5148 28.3191 83.9829 25.657 81.2941C22.995 78.6052 21.5013 74.9762 21.5 71.1942C21.5 67.0189 23.2211 60.3365 25.6854 54.9439C27.4577 51.0657 31.1397 44.5597 35.8878 44.5597C37.8435 44.5597 39.8129 45.6734 41.7411 47.8699C41.8367 47.9782 41.9326 48.0897 42.027 48.204L42.0594 48.2433V84.1709L41.9796 84.2095C41.8843 84.2556 41.7876 84.2989 41.6909 84.3407C39.9141 85.1263 37.9951 85.5405 36.0521 85.5576C35.9993 85.559 35.9428 85.559 35.8878 85.559ZM35.8878 44.8426C31.2981 44.8426 27.687 51.245 25.943 55.0613C23.4938 60.4211 21.7832 67.0552 21.7832 71.1942C21.7832 78.8717 28.0375 85.1881 35.7251 85.2747C35.7824 85.2761 35.8359 85.2765 35.8915 85.2761C35.9429 85.2761 35.9956 85.2761 36.047 85.2747C37.9526 85.2581 39.8347 84.852 41.5774 84.0816C41.6443 84.0526 41.7106 84.0233 41.7763 83.9927V48.3451C41.6943 48.2468 41.6114 48.1506 41.5285 48.0566C39.6561 45.9239 37.7584 44.8426 35.8878 44.8426Z" fill="#3F3D56"/>
<path d="M35.8871 75.5313C35.8637 75.5314 35.8407 75.5264 35.8194 75.5167C35.7981 75.507 35.7792 75.4929 35.7639 75.4752L27.5714 66.0359C27.5432 66.0033 27.5291 65.9608 27.5322 65.9178C27.5353 65.8748 27.5553 65.8348 27.5879 65.8065C27.6205 65.7783 27.663 65.7641 27.7061 65.7671C27.7491 65.7701 27.7892 65.7901 27.8175 65.8226L36.0101 75.2619C36.0306 75.2855 36.0438 75.3145 36.0482 75.3453C36.0527 75.3762 36.0482 75.4077 36.0352 75.4361C36.0222 75.4645 36.0014 75.4885 35.9751 75.5054C35.9489 75.5223 35.9183 75.5313 35.8871 75.5313Z" fill="#CCCCCC"/>
<path d="M35.8872 80.9789C35.855 80.9788 35.8235 80.9693 35.7967 80.9514C35.77 80.9335 35.7491 80.9081 35.7368 80.8784C35.7244 80.8486 35.7212 80.8159 35.7275 80.7844C35.7338 80.7528 35.7493 80.7238 35.7721 80.701L40.4272 76.05C40.4578 76.0197 40.4992 76.0026 40.5423 76.0027C40.5854 76.0027 40.6268 76.0199 40.6573 76.0504C40.6878 76.0808 40.7049 76.1221 40.705 76.1652C40.705 76.2083 40.688 76.2496 40.6576 76.2802L36.0024 80.9312C35.9873 80.9463 35.9694 80.9583 35.9496 80.9665C35.9298 80.9747 35.9086 80.9789 35.8872 80.9789Z" fill="#CCCCCC"/>
<path d="M48.68 18.3905L48.7848 18.597C48.8312 18.6861 48.8555 18.7851 48.8556 18.8856V24.4731H53.811V18.8856C53.8111 18.7851 53.8354 18.6861 53.8818 18.597L53.9866 18.3905H48.68ZM53.5279 18.8856V24.1902H49.1387V18.8856C49.1388 18.8141 49.1303 18.7429 49.1132 18.6734H53.5534C53.5363 18.7429 53.5278 18.8141 53.5279 18.8856ZM54.9097 18.3905L55.0145 18.597C55.0609 18.6861 55.0852 18.7851 55.0853 18.8856V24.4731H60.0407V18.8856C60.0408 18.7851 60.0651 18.6861 60.1115 18.597L60.2163 18.3905H54.9097ZM59.7576 18.8856V24.1902H55.3684V18.8856C55.3685 18.8141 55.36 18.7429 55.3429 18.6734H59.7831C59.766 18.7429 59.7575 18.8141 59.7576 18.8856ZM61.1394 18.3905L61.2442 18.597C61.2906 18.6861 61.3149 18.7851 61.315 18.8856V24.4731H66.2704V18.8856C66.2705 18.7851 66.2948 18.6861 66.3412 18.597L66.446 18.3905H61.1394ZM65.9873 18.8856V24.1902H61.5981V18.8856C61.5982 18.8141 61.5897 18.7429 61.5726 18.6734H66.0128C65.9958 18.7429 65.9872 18.8141 65.9873 18.8856ZM67.3691 18.3905L67.4739 18.597C67.5203 18.6861 67.5446 18.7851 67.5447 18.8856V24.4731H72.5001V18.8856C72.5002 18.7851 72.5245 18.6861 72.5709 18.597L72.6757 18.3905H67.3691ZM72.217 18.8856V24.1902H67.8279V18.8856C67.8279 18.8141 67.8194 18.7429 67.8023 18.6734H72.2425C72.2255 18.7429 72.2169 18.8141 72.217 18.8856ZM73.5988 18.3905L73.7036 18.597C73.75 18.6861 73.7743 18.7851 73.7744 18.8856V24.4731H78.7298V18.8856C78.7299 18.7851 78.7542 18.6861 78.8006 18.597L78.9054 18.3905H73.5988ZM78.4467 18.8856V24.1902H74.0576V18.8856C74.0576 18.8141 74.0491 18.7429 74.0321 18.6734H78.4722C78.4552 18.7429 78.4466 18.8141 78.4467 18.8856ZM79.8285 18.3905L79.9333 18.597C79.9797 18.6861 80.004 18.7851 80.0041 18.8856V24.4731H84.9595V18.8856C84.9596 18.7851 84.9839 18.6861 85.0303 18.597L85.1351 18.3905H79.8285ZM84.6764 18.8856V24.1902H80.2873V18.8856C80.2873 18.8141 80.2788 18.7429 80.2618 18.6734H84.7019C84.6849 18.7429 84.6763 18.8141 84.6764 18.8856ZM86.0582 18.3905L86.163 18.597C86.2094 18.6861 86.2337 18.7851 86.2338 18.8856V24.4731H91.1892V18.8856C91.1893 18.7851 91.2136 18.6861 91.26 18.597L91.3648 18.3905H86.0582ZM90.9061 18.8856V24.1902H86.517V18.8856C86.517 18.8141 86.5085 18.7429 86.4915 18.6734H90.9316C90.9146 18.7429 90.906 18.8141 90.9061 18.8856ZM92.2879 18.3905L92.3927 18.597C92.4392 18.6861 92.4634 18.7851 92.4635 18.8856V24.4731H97.4189V18.8856C97.419 18.7851 97.4433 18.6861 97.4897 18.597L97.5945 18.3905H92.2879ZM97.1358 18.8856V24.1902H92.7467V18.8856C92.7467 18.8141 92.7382 18.7429 92.7212 18.6734H97.1613C97.1443 18.7429 97.1357 18.8141 97.1358 18.8856ZM98.5176 18.3905L98.6224 18.597C98.6689 18.6861 98.6931 18.7851 98.6932 18.8856V24.4731H103.649V18.8856C103.649 18.7851 103.673 18.6861 103.719 18.597L103.824 18.3905H98.5176ZM103.365 18.8856V24.1902H98.9764V18.8856C98.9764 18.8141 98.9679 18.7429 98.9509 18.6734H103.391C103.374 18.7429 103.365 18.8141 103.365 18.8856ZM98.5176 18.3905L98.6224 18.597C98.6689 18.6861 98.6931 18.7851 98.6932 18.8856V24.4731H103.649V18.8856C103.649 18.7851 103.673 18.6861 103.719 18.597L103.824 18.3905H98.5176ZM103.365 18.8856V24.1902H98.9764V18.8856C98.9764 18.8141 98.9679 18.7429 98.9509 18.6734H103.391C103.374 18.7429 103.365 18.8141 103.365 18.8856ZM92.2879 18.3905L92.3927 18.597C92.4392 18.6861 92.4634 18.7851 92.4635 18.8856V24.4731H97.4189V18.8856C97.419 18.7851 97.4433 18.6861 97.4897 18.597L97.5945 18.3905H92.2879ZM97.1358 18.8856V24.1902H92.7467V18.8856C92.7467 18.8141 92.7382 18.7429 92.7212 18.6734H97.1613C97.1443 18.7429 97.1357 18.8141 97.1358 18.8856ZM86.0582 18.3905L86.163 18.597C86.2094 18.6861 86.2337 18.7851 86.2338 18.8856V24.4731H91.1892V18.8856C91.1893 18.7851 91.2136 18.6861 91.26 18.597L91.3648 18.3905H86.0582ZM90.9061 18.8856V24.1902H86.517V18.8856C86.517 18.8141 86.5085 18.7429 86.4915 18.6734H90.9316C90.9146 18.7429 90.906 18.8141 90.9061 18.8856ZM79.8285 18.3905L79.9333 18.597C79.9797 18.6861 80.004 18.7851 80.0041 18.8856V24.4731H84.9595V18.8856C84.9596 18.7851 84.9839 18.6861 85.0303 18.597L85.1351 18.3905H79.8285ZM84.6764 18.8856V24.1902H80.2873V18.8856C80.2873 18.8141 80.2788 18.7429 80.2618 18.6734H84.7019C84.6849 18.7429 84.6763 18.8141 84.6764 18.8856ZM73.5988 18.3905L73.7036 18.597C73.75 18.6861 73.7743 18.7851 73.7744 18.8856V24.4731H78.7298V18.8856C78.7299 18.7851 78.7542 18.6861 78.8006 18.597L78.9054 18.3905H73.5988ZM78.4467 18.8856V24.1902H74.0576V18.8856C74.0576 18.8141 74.0491 18.7429 74.0321 18.6734H78.4722C78.4552 18.7429 78.4466 18.8141 78.4467 18.8856ZM67.3691 18.3905L67.4739 18.597C67.5203 18.6861 67.5446 18.7851 67.5447 18.8856V24.4731H72.5001V18.8856C72.5002 18.7851 72.5245 18.6861 72.5709 18.597L72.6757 18.3905H67.3691ZM72.217 18.8856V24.1902H67.8279V18.8856C67.8279 18.8141 67.8194 18.7429 67.8023 18.6734H72.2425C72.2255 18.7429 72.2169 18.8141 72.217 18.8856ZM61.1394 18.3905L61.2442 18.597C61.2906 18.6861 61.3149 18.7851 61.315 18.8856V24.4731H66.2704V18.8856C66.2705 18.7851 66.2948 18.6861 66.3412 18.597L66.446 18.3905H61.1394ZM65.9873 18.8856V24.1902H61.5981V18.8856C61.5982 18.8141 61.5897 18.7429 61.5726 18.6734H66.0128C65.9958 18.7429 65.9872 18.8141 65.9873 18.8856ZM54.9097 18.3905L55.0145 18.597C55.0609 18.6861 55.0852 18.7851 55.0853 18.8856V24.4731H60.0407V18.8856C60.0408 18.7851 60.0651 18.6861 60.1115 18.597L60.2163 18.3905H54.9097ZM59.7576 18.8856V24.1902H55.3684V18.8856C55.3685 18.8141 55.36 18.7429 55.3429 18.6734H59.7831C59.766 18.7429 59.7575 18.8141 59.7576 18.8856ZM48.68 18.3905L48.7848 18.597C48.8312 18.6861 48.8555 18.7851 48.8556 18.8856V24.4731H53.811V18.8856C53.8111 18.7851 53.8354 18.6861 53.8818 18.597L53.9866 18.3905H48.68ZM53.5279 18.8856V24.1902H49.1387V18.8856C49.1388 18.8141 49.1303 18.7429 49.1132 18.6734H53.5534C53.5363 18.7429 53.5278 18.8141 53.5279 18.8856ZM98.5176 18.3905L98.6224 18.597C98.6689 18.6861 98.6931 18.7851 98.6932 18.8856V24.4731H103.649V18.8856C103.649 18.7851 103.673 18.6861 103.719 18.597L103.824 18.3905H98.5176ZM103.365 18.8856V24.1902H98.9764V18.8856C98.9764 18.8141 98.9679 18.7429 98.9509 18.6734H103.391C103.374 18.7429 103.365 18.8141 103.365 18.8856ZM92.2879 18.3905L92.3927 18.597C92.4392 18.6861 92.4634 18.7851 92.4635 18.8856V24.4731H97.4189V18.8856C97.419 18.7851 97.4433 18.6861 97.4897 18.597L97.5945 18.3905H92.2879ZM97.1358 18.8856V24.1902H92.7467V18.8856C92.7467 18.8141 92.7382 18.7429 92.7212 18.6734H97.1613C97.1443 18.7429 97.1357 18.8141 97.1358 18.8856ZM86.0582 18.3905L86.163 18.597C86.2094 18.6861 86.2337 18.7851 86.2338 18.8856V24.4731H91.1892V18.8856C91.1893 18.7851 91.2136 18.6861 91.26 18.597L91.3648 18.3905H86.0582ZM90.9061 18.8856V24.1902H86.517V18.8856C86.517 18.8141 86.5085 18.7429 86.4915 18.6734H90.9316C90.9146 18.7429 90.906 18.8141 90.9061 18.8856ZM79.8285 18.3905L79.9333 18.597C79.9797 18.6861 80.004 18.7851 80.0041 18.8856V24.4731H84.9595V18.8856C84.9596 18.7851 84.9839 18.6861 85.0303 18.597L85.1351 18.3905H79.8285ZM84.6764 18.8856V24.1902H80.2873V18.8856C80.2873 18.8141 80.2788 18.7429 80.2618 18.6734H84.7019C84.6849 18.7429 84.6763 18.8141 84.6764 18.8856ZM73.5988 18.3905L73.7036 18.597C73.75 18.6861 73.7743 18.7851 73.7744 18.8856V24.4731H78.7298V18.8856C78.7299 18.7851 78.7542 18.6861 78.8006 18.597L78.9054 18.3905H73.5988ZM78.4467 18.8856V24.1902H74.0576V18.8856C74.0576 18.8141 74.0491 18.7429 74.0321 18.6734H78.4722C78.4552 18.7429 78.4466 18.8141 78.4467 18.8856ZM67.3691 18.3905L67.4739 18.597C67.5203 18.6861 67.5446 18.7851 67.5447 18.8856V24.4731H72.5001V18.8856C72.5002 18.7851 72.5245 18.6861 72.5709 18.597L72.6757 18.3905H67.3691ZM72.217 18.8856V24.1902H67.8279V18.8856C67.8279 18.8141 67.8194 18.7429 67.8023 18.6734H72.2425C72.2255 18.7429 72.2169 18.8141 72.217 18.8856ZM61.1394 18.3905L61.2442 18.597C61.2906 18.6861 61.3149 18.7851 61.315 18.8856V24.4731H66.2704V18.8856C66.2705 18.7851 66.2948 18.6861 66.3412 18.597L66.446 18.3905H61.1394ZM65.9873 18.8856V24.1902H61.5981V18.8856C61.5982 18.8141 61.5897 18.7429 61.5726 18.6734H66.0128C65.9958 18.7429 65.9872 18.8141 65.9873 18.8856ZM54.9097 18.3905L55.0145 18.597C55.0609 18.6861 55.0852 18.7851 55.0853 18.8856V24.4731H60.0407V18.8856C60.0408 18.7851 60.0651 18.6861 60.1115 18.597L60.2163 18.3905H54.9097ZM59.7576 18.8856V24.1902H55.3684V18.8856C55.3685 18.8141 55.36 18.7429 55.3429 18.6734H59.7831C59.766 18.7429 59.7575 18.8141 59.7576 18.8856ZM48.68 18.3905L48.7848 18.597C48.8312 18.6861 48.8555 18.7851 48.8556 18.8856V24.4731H53.811V18.8856C53.8111 18.7851 53.8354 18.6861 53.8818 18.597L53.9866 18.3905H48.68ZM53.5279 18.8856V24.1902H49.1387V18.8856C49.1388 18.8141 49.1303 18.7429 49.1132 18.6734H53.5534C53.5363 18.7429 53.5278 18.8141 53.5279 18.8856ZM98.5176 18.3905L98.6224 18.597C98.6689 18.6861 98.6931 18.7851 98.6932 18.8856V24.4731H103.649V18.8856C103.649 18.7851 103.673 18.6861 103.719 18.597L103.824 18.3905H98.5176ZM103.365 18.8856V24.1902H98.9764V18.8856C98.9764 18.8141 98.9679 18.7429 98.9509 18.6734H103.391C103.374 18.7429 103.365 18.8141 103.365 18.8856ZM92.2879 18.3905L92.3927 18.597C92.4392 18.6861 92.4634 18.7851 92.4635 18.8856V24.4731H97.4189V18.8856C97.419 18.7851 97.4433 18.6861 97.4897 18.597L97.5945 18.3905H92.2879ZM97.1358 18.8856V24.1902H92.7467V18.8856C92.7467 18.8141 92.7382 18.7429 92.7212 18.6734H97.1613C97.1443 18.7429 97.1357 18.8141 97.1358 18.8856ZM86.0582 18.3905L86.163 18.597C86.2094 18.6861 86.2337 18.7851 86.2338 18.8856V24.4731H91.1892V18.8856C91.1893 18.7851 91.2136 18.6861 91.26 18.597L91.3648 18.3905H86.0582ZM90.9061 18.8856V24.1902H86.517V18.8856C86.517 18.8141 86.5085 18.7429 86.4915 18.6734H90.9316C90.9146 18.7429 90.906 18.8141 90.9061 18.8856ZM79.8285 18.3905L79.9333 18.597C79.9797 18.6861 80.004 18.7851 80.0041 18.8856V24.4731H84.9595V18.8856C84.9596 18.7851 84.9839 18.6861 85.0303 18.597L85.1351 18.3905H79.8285ZM84.6764 18.8856V24.1902H80.2873V18.8856C80.2873 18.8141 80.2788 18.7429 80.2618 18.6734H84.7019C84.6849 18.7429 84.6763 18.8141 84.6764 18.8856ZM73.5988 18.3905L73.7036 18.597C73.75 18.6861 73.7743 18.7851 73.7744 18.8856V24.4731H78.7298V18.8856C78.7299 18.7851 78.7542 18.6861 78.8006 18.597L78.9054 18.3905H73.5988ZM78.4467 18.8856V24.1902H74.0576V18.8856C74.0576 18.8141 74.0491 18.7429 74.0321 18.6734H78.4722C78.4552 18.7429 78.4466 18.8141 78.4467 18.8856ZM67.3691 18.3905L67.4739 18.597C67.5203 18.6861 67.5446 18.7851 67.5447 18.8856V24.4731H72.5001V18.8856C72.5002 18.7851 72.5245 18.6861 72.5709 18.597L72.6757 18.3905H67.3691ZM72.217 18.8856V24.1902H67.8279V18.8856C67.8279 18.8141 67.8194 18.7429 67.8023 18.6734H72.2425C72.2255 18.7429 72.2169 18.8141 72.217 18.8856ZM61.1394 18.3905L61.2442 18.597C61.2906 18.6861 61.3149 18.7851 61.315 18.8856V24.4731H66.2704V18.8856C66.2705 18.7851 66.2948 18.6861 66.3412 18.597L66.446 18.3905H61.1394ZM65.9873 18.8856V24.1902H61.5981V18.8856C61.5982 18.8141 61.5897 18.7429 61.5726 18.6734H66.0128C65.9958 18.7429 65.9872 18.8141 65.9873 18.8856ZM54.9097 18.3905L55.0145 18.597C55.0609 18.6861 55.0852 18.7851 55.0853 18.8856V24.4731H60.0407V18.8856C60.0408 18.7851 60.0651 18.6861 60.1115 18.597L60.2163 18.3905H54.9097ZM59.7576 18.8856V24.1902H55.3684V18.8856C55.3685 18.8141 55.36 18.7429 55.3429 18.6734H59.7831C59.766 18.7429 59.7575 18.8141 59.7576 18.8856ZM48.68 18.3905L48.7848 18.597C48.8312 18.6861 48.8555 18.7851 48.8556 18.8856V24.4731H53.811V18.8856C53.8111 18.7851 53.8354 18.6861 53.8818 18.597L53.9866 18.3905H48.68ZM53.5279 18.8856V24.1902H49.1387V18.8856C49.1388 18.8141 49.1303 18.7429 49.1132 18.6734H53.5534C53.5363 18.7429 53.5278 18.8141 53.5279 18.8856ZM98.5176 18.3905L98.6224 18.597C98.6689 18.6861 98.6931 18.7851 98.6932 18.8856V24.4731H103.649V18.8856C103.649 18.7851 103.673 18.6861 103.719 18.597L103.824 18.3905H98.5176ZM103.365 18.8856V24.1902H98.9764V18.8856C98.9764 18.8141 98.9679 18.7429 98.9509 18.6734H103.391C103.374 18.7429 103.365 18.8141 103.365 18.8856ZM92.2879 18.3905L92.3927 18.597C92.4392 18.6861 92.4634 18.7851 92.4635 18.8856V24.4731H97.4189V18.8856C97.419 18.7851 97.4433 18.6861 97.4897 18.597L97.5945 18.3905H92.2879ZM97.1358 18.8856V24.1902H92.7467V18.8856C92.7467 18.8141 92.7382 18.7429 92.7212 18.6734H97.1613C97.1443 18.7429 97.1357 18.8141 97.1358 18.8856ZM86.0582 18.3905L86.163 18.597C86.2094 18.6861 86.2337 18.7851 86.2338 18.8856V24.4731H91.1892V18.8856C91.1893 18.7851 91.2136 18.6861 91.26 18.597L91.3648 18.3905H86.0582ZM90.9061 18.8856V24.1902H86.517V18.8856C86.517 18.8141 86.5085 18.7429 86.4915 18.6734H90.9316C90.9146 18.7429 90.906 18.8141 90.9061 18.8856ZM79.8285 18.3905L79.9333 18.597C79.9797 18.6861 80.004 18.7851 80.0041 18.8856V24.4731H84.9595V18.8856C84.9596 18.7851 84.9839 18.6861 85.0303 18.597L85.1351 18.3905H79.8285ZM84.6764 18.8856V24.1902H80.2873V18.8856C80.2873 18.8141 80.2788 18.7429 80.2618 18.6734H84.7019C84.6849 18.7429 84.6763 18.8141 84.6764 18.8856ZM73.5988 18.3905L73.7036 18.597C73.75 18.6861 73.7743 18.7851 73.7744 18.8856V24.4731H78.7298V18.8856C78.7299 18.7851 78.7542 18.6861 78.8006 18.597L78.9054 18.3905H73.5988ZM78.4467 18.8856V24.1902H74.0576V18.8856C74.0576 18.8141 74.0491 18.7429 74.0321 18.6734H78.4722C78.4552 18.7429 78.4466 18.8141 78.4467 18.8856ZM67.3691 18.3905L67.4739 18.597C67.5203 18.6861 67.5446 18.7851 67.5447 18.8856V24.4731H72.5001V18.8856C72.5002 18.7851 72.5245 18.6861 72.5709 18.597L72.6757 18.3905H67.3691ZM72.217 18.8856V24.1902H67.8279V18.8856C67.8279 18.8141 67.8194 18.7429 67.8023 18.6734H72.2425C72.2255 18.7429 72.2169 18.8141 72.217 18.8856ZM61.1394 18.3905L61.2442 18.597C61.2906 18.6861 61.3149 18.7851 61.315 18.8856V24.4731H66.2704V18.8856C66.2705 18.7851 66.2948 18.6861 66.3412 18.597L66.446 18.3905H61.1394ZM65.9873 18.8856V24.1902H61.5981V18.8856C61.5982 18.8141 61.5897 18.7429 61.5726 18.6734H66.0128C65.9958 18.7429 65.9872 18.8141 65.9873 18.8856ZM54.9097 18.3905L55.0145 18.597C55.0609 18.6861 55.0852 18.7851 55.0853 18.8856V24.4731H60.0407V18.8856C60.0408 18.7851 60.0651 18.6861 60.1115 18.597L60.2163 18.3905H54.9097ZM59.7576 18.8856V24.1902H55.3684V18.8856C55.3685 18.8141 55.36 18.7429 55.3429 18.6734H59.7831C59.766 18.7429 59.7575 18.8141 59.7576 18.8856ZM48.68 18.3905L48.7848 18.597C48.8312 18.6861 48.8555 18.7851 48.8556 18.8856V24.4731H53.811V18.8856C53.8111 18.7851 53.8354 18.6861 53.8818 18.597L53.9866 18.3905H48.68ZM53.5279 18.8856V24.1902H49.1387V18.8856C49.1388 18.8141 49.1303 18.7429 49.1132 18.6734H53.5534C53.5363 18.7429 53.5278 18.8141 53.5279 18.8856ZM98.5176 18.3905L98.6224 18.597C98.6689 18.6861 98.6931 18.7851 98.6932 18.8856V24.4731H103.649V18.8856C103.649 18.7851 103.673 18.6861 103.719 18.597L103.824 18.3905H98.5176ZM103.365 18.8856V24.1902H98.9764V18.8856C98.9764 18.8141 98.9679 18.7429 98.9509 18.6734H103.391C103.374 18.7429 103.365 18.8141 103.365 18.8856ZM92.3927 18.597C92.4392 18.6861 92.4634 18.7851 92.4635 18.8856V24.4731H97.4189V18.8856C97.419 18.7851 97.4433 18.6861 97.4897 18.597L97.5945 18.3905H92.2879L92.3927 18.597ZM97.1613 18.6734C97.1443 18.7429 97.1357 18.8141 97.1358 18.8856V24.1902H92.7467V18.8856C92.7467 18.8141 92.7382 18.7429 92.7212 18.6734H97.1613ZM86.163 18.597C86.2094 18.6861 86.2337 18.7851 86.2338 18.8856V24.4731H91.1892V18.8856C91.1893 18.7851 91.2136 18.6861 91.26 18.597L91.3648 18.3905H86.0582L86.163 18.597ZM90.9316 18.6734C90.9146 18.7429 90.906 18.8141 90.9061 18.8856V24.1902H86.517V18.8856C86.517 18.8141 86.5085 18.7429 86.4915 18.6734H90.9316ZM79.9333 18.597C79.9797 18.6861 80.004 18.7851 80.0041 18.8856V24.4731H84.9595V18.8856C84.9596 18.7851 84.9839 18.6861 85.0303 18.597L85.1351 18.3905H79.8285L79.9333 18.597ZM84.7019 18.6734C84.6849 18.7429 84.6763 18.8141 84.6764 18.8856V24.1902H80.2873V18.8856C80.2873 18.8141 80.2788 18.7429 80.2618 18.6734H84.7019ZM73.7036 18.597C73.75 18.6861 73.7743 18.7851 73.7744 18.8856V24.4731H78.7298V18.8856C78.7299 18.7851 78.7542 18.6861 78.8006 18.597L78.9054 18.3905H73.5988L73.7036 18.597ZM78.4722 18.6734C78.4552 18.7429 78.4466 18.8141 78.4467 18.8856V24.1902H74.0576V18.8856C74.0576 18.8141 74.0491 18.7429 74.0321 18.6734H78.4722ZM67.4739 18.597C67.5203 18.6861 67.5446 18.7851 67.5447 18.8856V24.4731H72.5001V18.8856C72.5002 18.7851 72.5245 18.6861 72.5709 18.597L72.6757 18.3905H67.3691L67.4739 18.597ZM72.2425 18.6734C72.2255 18.7429 72.2169 18.8141 72.217 18.8856V24.1902H67.8279V18.8856C67.8279 18.8141 67.8194 18.7429 67.8023 18.6734H72.2425ZM61.2442 18.597C61.2906 18.6861 61.3149 18.7851 61.315 18.8856V24.4731H66.2704V18.8856C66.2705 18.7851 66.2948 18.6861 66.3412 18.597L66.446 18.3905H61.1394L61.2442 18.597ZM66.0128 18.6734C65.9958 18.7429 65.9872 18.8141 65.9873 18.8856V24.1902H61.5981V18.8856C61.5982 18.8141 61.5897 18.7429 61.5726 18.6734H66.0128ZM55.0145 18.597C55.0609 18.6861 55.0852 18.7851 55.0853 18.8856V24.4731H60.0407V18.8856C60.0408 18.7851 60.0651 18.6861 60.1115 18.597L60.2163 18.3905H54.9097L55.0145 18.597ZM59.7831 18.6734C59.766 18.7429 59.7575 18.8141 59.7576 18.8856V24.1902H55.3684V18.8856C55.3685 18.8141 55.36 18.7429 55.3429 18.6734H59.7831ZM48.7848 18.597C48.8312 18.6861 48.8555 18.7851 48.8556 18.8856V24.4731H53.811V18.8856C53.8111 18.7851 53.8354 18.6861 53.8818 18.597L53.9866 18.3905H48.68L48.7848 18.597ZM53.5534 18.6734C53.5363 18.7429 53.5278 18.8141 53.5279 18.8856V24.1902H49.1387V18.8856C49.1388 18.8141 49.1303 18.7429 49.1132 18.6734H53.5534ZM98.6224 18.597C98.6689 18.6861 98.6931 18.7851 98.6932 18.8856V24.4731H103.649V18.8856C103.649 18.7851 103.673 18.6861 103.719 18.597L103.824 18.3905H98.5176L98.6224 18.597ZM103.391 18.6734C103.374 18.7429 103.365 18.8141 103.365 18.8856V24.1902H98.9764V18.8856C98.9764 18.8141 98.9679 18.7429 98.9509 18.6734H103.391ZM92.3927 18.597C92.4392 18.6861 92.4634 18.7851 92.4635 18.8856V24.4731H97.4189V18.8856C97.419 18.7851 97.4433 18.6861 97.4897 18.597L97.5945 18.3905H92.2879L92.3927 18.597ZM97.1613 18.6734C97.1443 18.7429 97.1357 18.8141 97.1358 18.8856V24.1902H92.7467V18.8856C92.7467 18.8141 92.7382 18.7429 92.7212 18.6734H97.1613ZM86.163 18.597C86.2094 18.6861 86.2337 18.7851 86.2338 18.8856V24.4731H91.1892V18.8856C91.1893 18.7851 91.2136 18.6861 91.26 18.597L91.3648 18.3905H86.0582L86.163 18.597ZM90.9316 18.6734C90.9146 18.7429 90.906 18.8141 90.9061 18.8856V24.1902H86.517V18.8856C86.517 18.8141 86.5085 18.7429 86.4915 18.6734H90.9316ZM79.9333 18.597C79.9797 18.6861 80.004 18.7851 80.0041 18.8856V24.4731H84.9595V18.8856C84.9596 18.7851 84.9839 18.6861 85.0303 18.597L85.1351 18.3905H79.8285L79.9333 18.597ZM84.7019 18.6734C84.6849 18.7429 84.6763 18.8141 84.6764 18.8856V24.1902H80.2873V18.8856C80.2873 18.8141 80.2788 18.7429 80.2618 18.6734H84.7019ZM73.7036 18.597C73.75 18.6861 73.7743 18.7851 73.7744 18.8856V24.4731H78.7298V18.8856C78.7299 18.7851 78.7542 18.6861 78.8006 18.597L78.9054 18.3905H73.5988L73.7036 18.597ZM78.4722 18.6734C78.4552 18.7429 78.4466 18.8141 78.4467 18.8856V24.1902H74.0576V18.8856C74.0576 18.8141 74.0491 18.7429 74.0321 18.6734H78.4722ZM67.4739 18.597C67.5203 18.6861 67.5446 18.7851 67.5447 18.8856V24.4731H72.5001V18.8856C72.5002 18.7851 72.5245 18.6861 72.5709 18.597L72.6757 18.3905H67.3691L67.4739 18.597ZM72.2425 18.6734C72.2255 18.7429 72.2169 18.8141 72.217 18.8856V24.1902H67.8279V18.8856C67.8279 18.8141 67.8194 18.7429 67.8023 18.6734H72.2425ZM61.2442 18.597C61.2906 18.6861 61.3149 18.7851 61.315 18.8856V24.4731H66.2704V18.8856C66.2705 18.7851 66.2948 18.6861 66.3412 18.597L66.446 18.3905H61.1394L61.2442 18.597ZM66.0128 18.6734C65.9958 18.7429 65.9872 18.8141 65.9873 18.8856V24.1902H61.5981V18.8856C61.5982 18.8141 61.5897 18.7429 61.5726 18.6734H66.0128ZM55.0145 18.597C55.0609 18.6861 55.0852 18.7851 55.0853 18.8856V24.4731H60.0407V18.8856C60.0408 18.7851 60.0651 18.6861 60.1115 18.597L60.2163 18.3905H54.9097L55.0145 18.597ZM59.7831 18.6734C59.766 18.7429 59.7575 18.8141 59.7576 18.8856V24.1902H55.3684V18.8856C55.3685 18.8141 55.36 18.7429 55.3429 18.6734H59.7831ZM48.7848 18.597C48.8312 18.6861 48.8555 18.7851 48.8556 18.8856V24.4731H53.811V18.8856C53.8111 18.7851 53.8354 18.6861 53.8818 18.597L53.9866 18.3905H48.68L48.7848 18.597ZM53.5534 18.6734C53.5363 18.7429 53.5278 18.8141 53.5279 18.8856V24.1902H49.1387V18.8856C49.1388 18.8141 49.1303 18.7429 49.1132 18.6734H53.5534ZM109.312 25.3218H107.624C107.531 24.9964 107.335 24.71 107.065 24.5059C106.794 24.3018 106.465 24.191 106.126 24.1902H105.206V18.8856C105.206 18.7717 105.185 18.6588 105.142 18.5532C105.303 18.4588 105.428 18.3143 105.498 18.142C105.568 17.9696 105.579 17.779 105.53 17.5996C105.481 17.4202 105.374 17.2619 105.226 17.1492C105.078 17.0365 104.897 16.9756 104.711 16.976H47.7937C47.6075 16.9756 47.4264 17.0365 47.2783 17.1492C47.1302 17.2619 47.0234 17.4202 46.9742 17.5996C46.9251 17.779 46.9365 17.9696 47.0065 18.142C47.0766 18.3143 47.2015 18.4588 47.3619 18.5532C47.3194 18.6588 47.2978 18.7717 47.2981 18.8856V24.1902H46.3779C46.0391 24.191 45.7098 24.3018 45.4396 24.5059C45.1694 24.71 44.973 24.9964 44.8799 25.3218H43.0506C42.7128 25.3223 42.389 25.4566 42.1502 25.6952C41.9113 25.9339 41.7769 26.2574 41.7764 26.5949V101.283C41.7771 101.621 41.9116 101.944 42.1504 102.182C42.3892 102.421 42.7129 102.555 43.0506 102.556H109.312C109.65 102.556 109.974 102.421 110.213 102.183C110.451 101.944 110.586 101.621 110.586 101.283V26.5949C110.586 26.2574 110.451 25.9339 110.212 25.6952C109.974 25.4566 109.65 25.3223 109.312 25.3218ZM110.303 101.283C110.303 101.485 110.241 101.682 110.125 101.848C110.009 102.014 109.846 102.141 109.656 102.211C109.546 102.253 109.43 102.274 109.312 102.273H43.0506C42.9331 102.274 42.8164 102.253 42.7066 102.211C42.5168 102.141 42.3532 102.014 42.2375 101.848C42.1219 101.682 42.0598 101.485 42.0595 101.283V26.5949C42.0598 26.3324 42.1643 26.0807 42.3501 25.895C42.5359 25.7094 42.7879 25.605 43.0506 25.6047H45.1064L45.1291 25.4915C45.1886 25.2044 45.3452 24.9464 45.5726 24.761C45.8 24.5755 46.0843 24.4739 46.3779 24.4731H47.5813V18.8856C47.5814 18.7705 47.6127 18.6575 47.672 18.5588L47.7597 18.4131L47.5997 18.3537C47.4747 18.3084 47.3696 18.2205 47.3031 18.1055C47.2366 17.9905 47.2128 17.8556 47.236 17.7248C47.2592 17.594 47.3278 17.4755 47.4298 17.3903C47.5319 17.305 47.6607 17.2585 47.7937 17.2589H104.711C104.844 17.2585 104.972 17.305 105.074 17.3903C105.176 17.4755 105.245 17.594 105.268 17.7248C105.291 17.8556 105.268 17.9905 105.201 18.1055C105.135 18.2205 105.03 18.3084 104.905 18.3537L104.745 18.4131L104.832 18.5588C104.892 18.6575 104.923 18.7705 104.923 18.8856V24.4731H106.126C106.42 24.4738 106.704 24.5755 106.932 24.7609C107.159 24.9464 107.316 25.2044 107.375 25.4915L107.398 25.6047H109.312C109.575 25.605 109.827 25.7094 110.012 25.895C110.198 26.0807 110.303 26.3324 110.303 26.5949L110.303 101.283ZM48.68 18.3905L48.7848 18.597C48.8312 18.6861 48.8555 18.7851 48.8556 18.8856V24.4731H53.811V18.8856C53.8111 18.7851 53.8354 18.6861 53.8818 18.597L53.9866 18.3905H48.68ZM53.5279 18.8856V24.1902H49.1387V18.8856C49.1388 18.8141 49.1303 18.7429 49.1132 18.6734H53.5534C53.5363 18.7429 53.5278 18.8141 53.5279 18.8856ZM54.9097 18.3905L55.0145 18.597C55.0609 18.6861 55.0852 18.7851 55.0853 18.8856V24.4731H60.0407V18.8856C60.0408 18.7851 60.0651 18.6861 60.1115 18.597L60.2163 18.3905H54.9097ZM59.7576 18.8856V24.1902H55.3684V18.8856C55.3685 18.8141 55.36 18.7429 55.3429 18.6734H59.7831C59.766 18.7429 59.7575 18.8141 59.7576 18.8856ZM61.1394 18.3905L61.2442 18.597C61.2906 18.6861 61.3149 18.7851 61.315 18.8856V24.4731H66.2704V18.8856C66.2705 18.7851 66.2948 18.6861 66.3412 18.597L66.446 18.3905H61.1394ZM65.9873 18.8856V24.1902H61.5981V18.8856C61.5982 18.8141 61.5897 18.7429 61.5726 18.6734H66.0128C65.9958 18.7429 65.9872 18.8141 65.9873 18.8856ZM67.3691 18.3905L67.4739 18.597C67.5203 18.6861 67.5446 18.7851 67.5447 18.8856V24.4731H72.5001V18.8856C72.5002 18.7851 72.5245 18.6861 72.5709 18.597L72.6757 18.3905H67.3691ZM72.217 18.8856V24.1902H67.8279V18.8856C67.8279 18.8141 67.8194 18.7429 67.8023 18.6734H72.2425C72.2255 18.7429 72.2169 18.8141 72.217 18.8856ZM73.5988 18.3905L73.7036 18.597C73.75 18.6861 73.7743 18.7851 73.7744 18.8856V24.4731H78.7298V18.8856C78.7299 18.7851 78.7542 18.6861 78.8006 18.597L78.9054 18.3905H73.5988ZM78.4467 18.8856V24.1902H74.0576V18.8856C74.0576 18.8141 74.0491 18.7429 74.0321 18.6734H78.4722C78.4552 18.7429 78.4466 18.8141 78.4467 18.8856ZM79.8285 18.3905L79.9333 18.597C79.9797 18.6861 80.004 18.7851 80.0041 18.8856V24.4731H84.9595V18.8856C84.9596 18.7851 84.9839 18.6861 85.0303 18.597L85.1351 18.3905H79.8285ZM84.6764 18.8856V24.1902H80.2873V18.8856C80.2873 18.8141 80.2788 18.7429 80.2618 18.6734H84.7019C84.6849 18.7429 84.6763 18.8141 84.6764 18.8856ZM86.0582 18.3905L86.163 18.597C86.2094 18.6861 86.2337 18.7851 86.2338 18.8856V24.4731H91.1892V18.8856C91.1893 18.7851 91.2136 18.6861 91.26 18.597L91.3648 18.3905H86.0582ZM90.9061 18.8856V24.1902H86.517V18.8856C86.517 18.8141 86.5085 18.7429 86.4915 18.6734H90.9316C90.9146 18.7429 90.906 18.8141 90.9061 18.8856ZM92.2879 18.3905L92.3927 18.597C92.4392 18.6861 92.4634 18.7851 92.4635 18.8856V24.4731H97.4189V18.8856C97.419 18.7851 97.4433 18.6861 97.4897 18.597L97.5945 18.3905H92.2879ZM97.1358 18.8856V24.1902H92.7467V18.8856C92.7467 18.8141 92.7382 18.7429 92.7212 18.6734H97.1613C97.1443 18.7429 97.1357 18.8141 97.1358 18.8856ZM98.5176 18.3905L98.6224 18.597C98.6689 18.6861 98.6931 18.7851 98.6932 18.8856V24.4731H103.649V18.8856C103.649 18.7851 103.673 18.6861 103.719 18.597L103.824 18.3905H98.5176ZM103.365 18.8856V24.1902H98.9764V18.8856C98.9764 18.8141 98.9679 18.7429 98.9509 18.6734H103.391C103.374 18.7429 103.365 18.8141 103.365 18.8856ZM48.68 18.3905L48.7848 18.597C48.8312 18.6861 48.8555 18.7851 48.8556 18.8856V24.4731H53.811V18.8856C53.8111 18.7851 53.8354 18.6861 53.8818 18.597L53.9866 18.3905H48.68ZM53.5279 18.8856V24.1902H49.1387V18.8856C49.1388 18.8141 49.1303 18.7429 49.1132 18.6734H53.5534C53.5363 18.7429 53.5278 18.8141 53.5279 18.8856ZM54.9097 18.3905L55.0145 18.597C55.0609 18.6861 55.0852 18.7851 55.0853 18.8856V24.4731H60.0407V18.8856C60.0408 18.7851 60.0651 18.6861 60.1115 18.597L60.2163 18.3905H54.9097ZM59.7576 18.8856V24.1902H55.3684V18.8856C55.3685 18.8141 55.36 18.7429 55.3429 18.6734H59.7831C59.766 18.7429 59.7575 18.8141 59.7576 18.8856ZM61.1394 18.3905L61.2442 18.597C61.2906 18.6861 61.3149 18.7851 61.315 18.8856V24.4731H66.2704V18.8856C66.2705 18.7851 66.2948 18.6861 66.3412 18.597L66.446 18.3905H61.1394ZM65.9873 18.8856V24.1902H61.5981V18.8856C61.5982 18.8141 61.5897 18.7429 61.5726 18.6734H66.0128C65.9958 18.7429 65.9872 18.8141 65.9873 18.8856ZM67.3691 18.3905L67.4739 18.597C67.5203 18.6861 67.5446 18.7851 67.5447 18.8856V24.4731H72.5001V18.8856C72.5002 18.7851 72.5245 18.6861 72.5709 18.597L72.6757 18.3905H67.3691ZM72.217 18.8856V24.1902H67.8279V18.8856C67.8279 18.8141 67.8194 18.7429 67.8023 18.6734H72.2425C72.2255 18.7429 72.2169 18.8141 72.217 18.8856ZM73.5988 18.3905L73.7036 18.597C73.75 18.6861 73.7743 18.7851 73.7744 18.8856V24.4731H78.7298V18.8856C78.7299 18.7851 78.7542 18.6861 78.8006 18.597L78.9054 18.3905H73.5988ZM78.4467 18.8856V24.1902H74.0576V18.8856C74.0576 18.8141 74.0491 18.7429 74.0321 18.6734H78.4722C78.4552 18.7429 78.4466 18.8141 78.4467 18.8856ZM79.8285 18.3905L79.9333 18.597C79.9797 18.6861 80.004 18.7851 80.0041 18.8856V24.4731H84.9595V18.8856C84.9596 18.7851 84.9839 18.6861 85.0303 18.597L85.1351 18.3905H79.8285ZM84.6764 18.8856V24.1902H80.2873V18.8856C80.2873 18.8141 80.2788 18.7429 80.2618 18.6734H84.7019C84.6849 18.7429 84.6763 18.8141 84.6764 18.8856ZM86.0582 18.3905L86.163 18.597C86.2094 18.6861 86.2337 18.7851 86.2338 18.8856V24.4731H91.1892V18.8856C91.1893 18.7851 91.2136 18.6861 91.26 18.597L91.3648 18.3905H86.0582ZM90.9061 18.8856V24.1902H86.517V18.8856C86.517 18.8141 86.5085 18.7429 86.4915 18.6734H90.9316C90.9146 18.7429 90.906 18.8141 90.9061 18.8856ZM92.2879 18.3905L92.3927 18.597C92.4392 18.6861 92.4634 18.7851 92.4635 18.8856V24.4731H97.4189V18.8856C97.419 18.7851 97.4433 18.6861 97.4897 18.597L97.5945 18.3905H92.2879ZM97.1358 18.8856V24.1902H92.7467V18.8856C92.7467 18.8141 92.7382 18.7429 92.7212 18.6734H97.1613C97.1443 18.7429 97.1357 18.8141 97.1358 18.8856ZM98.5176 18.3905L98.6224 18.597C98.6689 18.6861 98.6931 18.7851 98.6932 18.8856V24.4731H103.649V18.8856C103.649 18.7851 103.673 18.6861 103.719 18.597L103.824 18.3905H98.5176ZM103.365 18.8856V24.1902H98.9764V18.8856C98.9764 18.8141 98.9679 18.7429 98.9509 18.6734H103.391C103.374 18.7429 103.365 18.8141 103.365 18.8856ZM48.68 18.3905L48.7848 18.597C48.8312 18.6861 48.8555 18.7851 48.8556 18.8856V24.4731H53.811V18.8856C53.8111 18.7851 53.8354 18.6861 53.8818 18.597L53.9866 18.3905H48.68ZM53.5279 18.8856V24.1902H49.1387V18.8856C49.1388 18.8141 49.1303 18.7429 49.1132 18.6734H53.5534C53.5363 18.7429 53.5278 18.8141 53.5279 18.8856ZM54.9097 18.3905L55.0145 18.597C55.0609 18.6861 55.0852 18.7851 55.0853 18.8856V24.4731H60.0407V18.8856C60.0408 18.7851 60.0651 18.6861 60.1115 18.597L60.2163 18.3905H54.9097ZM59.7576 18.8856V24.1902H55.3684V18.8856C55.3685 18.8141 55.36 18.7429 55.3429 18.6734H59.7831C59.766 18.7429 59.7575 18.8141 59.7576 18.8856ZM61.1394 18.3905L61.2442 18.597C61.2906 18.6861 61.3149 18.7851 61.315 18.8856V24.4731H66.2704V18.8856C66.2705 18.7851 66.2948 18.6861 66.3412 18.597L66.446 18.3905H61.1394ZM65.9873 18.8856V24.1902H61.5981V18.8856C61.5982 18.8141 61.5897 18.7429 61.5726 18.6734H66.0128C65.9958 18.7429 65.9872 18.8141 65.9873 18.8856ZM67.3691 18.3905L67.4739 18.597C67.5203 18.6861 67.5446 18.7851 67.5447 18.8856V24.4731H72.5001V18.8856C72.5002 18.7851 72.5245 18.6861 72.5709 18.597L72.6757 18.3905H67.3691ZM72.217 18.8856V24.1902H67.8279V18.8856C67.8279 18.8141 67.8194 18.7429 67.8023 18.6734H72.2425C72.2255 18.7429 72.2169 18.8141 72.217 18.8856ZM73.5988 18.3905L73.7036 18.597C73.75 18.6861 73.7743 18.7851 73.7744 18.8856V24.4731H78.7298V18.8856C78.7299 18.7851 78.7542 18.6861 78.8006 18.597L78.9054 18.3905H73.5988ZM78.4467 18.8856V24.1902H74.0576V18.8856C74.0576 18.8141 74.0491 18.7429 74.0321 18.6734H78.4722C78.4552 18.7429 78.4466 18.8141 78.4467 18.8856ZM79.8285 18.3905L79.9333 18.597C79.9797 18.6861 80.004 18.7851 80.0041 18.8856V24.4731H84.9595V18.8856C84.9596 18.7851 84.9839 18.6861 85.0303 18.597L85.1351 18.3905H79.8285ZM84.6764 18.8856V24.1902H80.2873V18.8856C80.2873 18.8141 80.2788 18.7429 80.2618 18.6734H84.7019C84.6849 18.7429 84.6763 18.8141 84.6764 18.8856ZM86.0582 18.3905L86.163 18.597C86.2094 18.6861 86.2337 18.7851 86.2338 18.8856V24.4731H91.1892V18.8856C91.1893 18.7851 91.2136 18.6861 91.26 18.597L91.3648 18.3905H86.0582ZM90.9061 18.8856V24.1902H86.517V18.8856C86.517 18.8141 86.5085 18.7429 86.4915 18.6734H90.9316C90.9146 18.7429 90.906 18.8141 90.9061 18.8856ZM92.2879 18.3905L92.3927 18.597C92.4392 18.6861 92.4634 18.7851 92.4635 18.8856V24.4731H97.4189V18.8856C97.419 18.7851 97.4433 18.6861 97.4897 18.597L97.5945 18.3905H92.2879ZM97.1358 18.8856V24.1902H92.7467V18.8856C92.7467 18.8141 92.7382 18.7429 92.7212 18.6734H97.1613C97.1443 18.7429 97.1357 18.8141 97.1358 18.8856ZM98.5176 18.3905L98.6224 18.597C98.6689 18.6861 98.6931 18.7851 98.6932 18.8856V24.4731H103.649V18.8856C103.649 18.7851 103.673 18.6861 103.719 18.597L103.824 18.3905H98.5176ZM103.365 18.8856V24.1902H98.9764V18.8856C98.9764 18.8141 98.9679 18.7429 98.9509 18.6734H103.391C103.374 18.7429 103.365 18.8141 103.365 18.8856ZM48.68 18.3905L48.7848 18.597C48.8312 18.6861 48.8555 18.7851 48.8556 18.8856V24.4731H53.811V18.8856C53.8111 18.7851 53.8354 18.6861 53.8818 18.597L53.9866 18.3905H48.68ZM53.5279 18.8856V24.1902H49.1387V18.8856C49.1388 18.8141 49.1303 18.7429 49.1132 18.6734H53.5534C53.5363 18.7429 53.5278 18.8141 53.5279 18.8856ZM54.9097 18.3905L55.0145 18.597C55.0609 18.6861 55.0852 18.7851 55.0853 18.8856V24.4731H60.0407V18.8856C60.0408 18.7851 60.0651 18.6861 60.1115 18.597L60.2163 18.3905H54.9097ZM59.7576 18.8856V24.1902H55.3684V18.8856C55.3685 18.8141 55.36 18.7429 55.3429 18.6734H59.7831C59.766 18.7429 59.7575 18.8141 59.7576 18.8856ZM61.1394 18.3905L61.2442 18.597C61.2906 18.6861 61.3149 18.7851 61.315 18.8856V24.4731H66.2704V18.8856C66.2705 18.7851 66.2948 18.6861 66.3412 18.597L66.446 18.3905H61.1394ZM65.9873 18.8856V24.1902H61.5981V18.8856C61.5982 18.8141 61.5897 18.7429 61.5726 18.6734H66.0128C65.9958 18.7429 65.9872 18.8141 65.9873 18.8856ZM67.3691 18.3905L67.4739 18.597C67.5203 18.6861 67.5446 18.7851 67.5447 18.8856V24.4731H72.5001V18.8856C72.5002 18.7851 72.5245 18.6861 72.5709 18.597L72.6757 18.3905H67.3691ZM72.217 18.8856V24.1902H67.8279V18.8856C67.8279 18.8141 67.8194 18.7429 67.8023 18.6734H72.2425C72.2255 18.7429 72.2169 18.8141 72.217 18.8856ZM73.5988 18.3905L73.7036 18.597C73.75 18.6861 73.7743 18.7851 73.7744 18.8856V24.4731H78.7298V18.8856C78.7299 18.7851 78.7542 18.6861 78.8006 18.597L78.9054 18.3905H73.5988ZM78.4467 18.8856V24.1902H74.0576V18.8856C74.0576 18.8141 74.0491 18.7429 74.0321 18.6734H78.4722C78.4552 18.7429 78.4466 18.8141 78.4467 18.8856ZM79.8285 18.3905L79.9333 18.597C79.9797 18.6861 80.004 18.7851 80.0041 18.8856V24.4731H84.9595V18.8856C84.9596 18.7851 84.9839 18.6861 85.0303 18.597L85.1351 18.3905H79.8285ZM84.6764 18.8856V24.1902H80.2873V18.8856C80.2873 18.8141 80.2788 18.7429 80.2618 18.6734H84.7019C84.6849 18.7429 84.6763 18.8141 84.6764 18.8856ZM86.0582 18.3905L86.163 18.597C86.2094 18.6861 86.2337 18.7851 86.2338 18.8856V24.4731H91.1892V18.8856C91.1893 18.7851 91.2136 18.6861 91.26 18.597L91.3648 18.3905H86.0582ZM90.9061 18.8856V24.1902H86.517V18.8856C86.517 18.8141 86.5085 18.7429 86.4915 18.6734H90.9316C90.9146 18.7429 90.906 18.8141 90.9061 18.8856ZM92.2879 18.3905L92.3927 18.597C92.4392 18.6861 92.4634 18.7851 92.4635 18.8856V24.4731H97.4189V18.8856C97.419 18.7851 97.4433 18.6861 97.4897 18.597L97.5945 18.3905H92.2879ZM97.1358 18.8856V24.1902H92.7467V18.8856C92.7467 18.8141 92.7382 18.7429 92.7212 18.6734H97.1613C97.1443 18.7429 97.1357 18.8141 97.1358 18.8856ZM98.5176 18.3905L98.6224 18.597C98.6689 18.6861 98.6931 18.7851 98.6932 18.8856V24.4731H103.649V18.8856C103.649 18.7851 103.673 18.6861 103.719 18.597L103.824 18.3905H98.5176ZM103.365 18.8856V24.1902H98.9764V18.8856C98.9764 18.8141 98.9679 18.7429 98.9509 18.6734H103.391C103.374 18.7429 103.365 18.8141 103.365 18.8856Z" fill="#3F3D56"/>
<path d="M65.5132 43.1451H55.0723C54.8524 43.1449 54.6416 43.0575 54.4861 42.9021C54.3306 42.7468 54.2432 42.5361 54.2429 42.3164V36.7596C54.2432 36.5399 54.3306 36.3292 54.4861 36.1739C54.6416 36.0185 54.8524 35.9312 55.0723 35.9309H65.5132C65.7331 35.9312 65.9439 36.0185 66.0994 36.1739C66.2549 36.3292 66.3424 36.5399 66.3426 36.7596V42.3164C66.3424 42.5361 66.2549 42.7468 66.0994 42.9021C65.9439 43.0575 65.7331 43.1449 65.5132 43.1451Z" fill="#0077B6"/>
<path d="M81.4016 43.1451H70.9608C70.7409 43.1449 70.53 43.0575 70.3746 42.9021C70.2191 42.7468 70.1316 42.5361 70.1313 42.3164V36.7596C70.1316 36.5399 70.2191 36.3292 70.3746 36.1739C70.53 36.0185 70.7409 35.9312 70.9608 35.9309H81.4016C81.6215 35.9312 81.8324 36.0185 81.9879 36.1739C82.1433 36.3292 82.2308 36.5399 82.2311 36.7596V42.3164C82.2308 42.5361 82.1433 42.7468 81.9879 42.9021C81.8324 43.0575 81.6215 43.1449 81.4016 43.1451Z" fill="#0077B6"/>
<path d="M97.2901 43.1451H86.8492C86.6293 43.1449 86.4185 43.0575 86.263 42.9021C86.1075 42.7468 86.02 42.5361 86.0198 42.3164V36.7596C86.02 36.5399 86.1075 36.3292 86.263 36.1739C86.4185 36.0185 86.6293 35.9312 86.8492 35.9309H97.2901C97.51 35.9312 97.7208 36.0185 97.8763 36.1739C98.0318 36.3292 98.1192 36.5399 98.1195 36.7596V42.3164C98.1192 42.5361 98.0318 42.7468 97.8763 42.9021C97.7208 43.0575 97.51 43.1449 97.2901 43.1451Z" fill="#0077B6"/>
<path d="M65.5132 61.6757H55.0723C54.8524 61.6755 54.6416 61.5881 54.4861 61.4328C54.3306 61.2774 54.2432 61.0668 54.2429 60.8471V55.2902C54.2432 55.0705 54.3306 54.8599 54.4861 54.7045C54.6416 54.5492 54.8524 54.4618 55.0723 54.4615H65.5132C65.7331 54.4618 65.9439 54.5492 66.0994 54.7045C66.2549 54.8599 66.3424 55.0705 66.3426 55.2902V60.8471C66.3424 61.0668 66.2549 61.2774 66.0994 61.4328C65.9439 61.5881 65.7331 61.6755 65.5132 61.6757Z" fill="#0077B6"/>
<path d="M81.4016 61.6757H70.9608C70.7409 61.6755 70.53 61.5881 70.3746 61.4328C70.2191 61.2774 70.1316 61.0668 70.1313 60.8471V55.2902C70.1316 55.0705 70.2191 54.8599 70.3746 54.7045C70.53 54.5492 70.7409 54.4618 70.9608 54.4615H81.4016C81.6215 54.4618 81.8324 54.5492 81.9879 54.7045C82.1433 54.8599 82.2308 55.0705 82.2311 55.2902V60.8471C82.2308 61.0668 82.1433 61.2774 81.9879 61.4328C81.8324 61.5881 81.6215 61.6755 81.4016 61.6757Z" fill="#0077B6"/>
<path d="M97.2901 61.6757H86.8492C86.6293 61.6755 86.4185 61.5881 86.263 61.4328C86.1075 61.2774 86.02 61.0668 86.0198 60.8471V55.2902C86.02 55.0705 86.1075 54.8599 86.263 54.7045C86.4185 54.5492 86.6293 54.4618 86.8492 54.4615H97.2901C97.51 54.4618 97.7208 54.5492 97.8763 54.7045C98.0318 54.8599 98.1192 55.0705 98.1195 55.2902V60.8471C98.1192 61.0668 98.0318 61.2774 97.8763 61.4328C97.7208 61.5881 97.51 61.6755 97.2901 61.6757Z" fill="#0077B6"/>
<path d="M65.5132 80.2063H55.0723C54.8524 80.206 54.6416 80.1186 54.4861 79.9633C54.3306 79.8079 54.2432 79.5973 54.2429 79.3776V73.8207C54.2432 73.601 54.3306 73.3904 54.4861 73.235C54.6416 73.0797 54.8524 72.9923 55.0723 72.9921H65.5132C65.7331 72.9923 65.9439 73.0797 66.0994 73.235C66.2549 73.3904 66.3424 73.601 66.3426 73.8207V79.3776C66.3424 79.5973 66.2549 79.8079 66.0994 79.9633C65.9439 80.1186 65.7331 80.206 65.5132 80.2063Z" fill="#0077B6"/>
<path d="M81.4016 80.2063H70.9608C70.7409 80.206 70.53 80.1186 70.3746 79.9633C70.2191 79.8079 70.1316 79.5973 70.1313 79.3776V73.8207C70.1316 73.601 70.2191 73.3904 70.3746 73.235C70.53 73.0797 70.7409 72.9923 70.9608 72.9921H81.4016C81.6215 72.9923 81.8324 73.0797 81.9879 73.235C82.1433 73.3904 82.2308 73.601 82.2311 73.8207V79.3776C82.2308 79.5973 82.1433 79.8079 81.9879 79.9633C81.8324 80.1186 81.6215 80.206 81.4016 80.2063Z" fill="#0077B6"/>
<path d="M97.2901 80.2063H86.8492C86.6293 80.206 86.4185 80.1186 86.263 79.9633C86.1075 79.8079 86.02 79.5973 86.0198 79.3776V73.8207C86.02 73.601 86.1075 73.3904 86.263 73.235C86.4185 73.0797 86.6293 72.9923 86.8492 72.9921H97.2901C97.51 72.9923 97.7208 73.0797 97.8763 73.235C98.0318 73.3904 98.1192 73.601 98.1195 73.8207V79.3776C98.1192 79.5973 98.0318 79.8079 97.8763 79.9633C97.7208 80.1186 97.51 80.206 97.2901 80.2063Z" fill="#0077B6"/>
<path d="M63.8228 43.8581H51.7277C51.4354 43.8578 51.1552 43.7416 50.9485 43.5351C50.7418 43.3286 50.6256 43.0487 50.6252 42.7567V36.3194C50.6256 36.0273 50.7418 35.7474 50.9485 35.5409C51.1552 35.3344 51.4354 35.2182 51.7277 35.2179H63.8228C64.1151 35.2182 64.3953 35.3344 64.602 35.5409C64.8087 35.7474 64.9249 36.0273 64.9252 36.3194V42.7567C64.9249 43.0487 64.8087 43.3286 64.602 43.5351C64.3953 43.7416 64.1151 43.8578 63.8228 43.8581ZM51.7277 35.5008C51.5104 35.5011 51.3022 35.5874 51.1486 35.7408C50.995 35.8943 50.9086 36.1023 50.9084 36.3194V42.7567C50.9086 42.9737 50.995 43.1817 51.1486 43.3352C51.3022 43.4886 51.5104 43.575 51.7277 43.5752H63.8228C64.04 43.575 64.2483 43.4886 64.4019 43.3352C64.5555 43.1817 64.6418 42.9737 64.6421 42.7567V36.3194C64.6418 36.1023 64.5555 35.8943 64.4019 35.7408C64.2483 35.5874 64.04 35.5011 63.8228 35.5008H51.7277Z" fill="#3F3D56"/>
<path d="M82.2288 43.8581H70.1337C69.8414 43.8578 69.5612 43.7416 69.3545 43.5351C69.1478 43.3286 69.0316 43.0487 69.0312 42.7567V36.3194C69.0316 36.0273 69.1478 35.7474 69.3545 35.5409C69.5612 35.3344 69.8414 35.2182 70.1337 35.2179H82.2288C82.5211 35.2182 82.8013 35.3344 83.008 35.5409C83.2147 35.7474 83.3309 36.0273 83.3313 36.3194V42.7567C83.3309 43.0487 83.2147 43.3286 83.008 43.5351C82.8013 43.7416 82.5211 43.8578 82.2288 43.8581ZM70.1337 35.5008C69.9165 35.5011 69.7082 35.5874 69.5546 35.7408C69.401 35.8943 69.3147 36.1023 69.3144 36.3194V42.7567C69.3147 42.9737 69.401 43.1817 69.5546 43.3352C69.7082 43.4886 69.9165 43.575 70.1337 43.5752H82.2288C82.446 43.575 82.6543 43.4886 82.8079 43.3352C82.9615 43.1817 83.0478 42.9737 83.0481 42.7567V36.3194C83.0478 36.1023 82.9615 35.8943 82.8079 35.7408C82.6543 35.5874 82.446 35.5011 82.2288 35.5008H70.1337Z" fill="#3F3D56"/>
<path d="M100.635 43.8581H88.5397C88.2474 43.8578 87.9672 43.7416 87.7605 43.5351C87.5538 43.3286 87.4376 43.0487 87.4373 42.7567V36.3194C87.4376 36.0273 87.5538 35.7474 87.7605 35.5409C87.9672 35.3344 88.2474 35.2182 88.5397 35.2179H100.635C100.927 35.2182 101.207 35.3344 101.414 35.5409C101.621 35.7474 101.737 36.0273 101.737 36.3194V42.7567C101.737 43.0487 101.621 43.3286 101.414 43.5351C101.207 43.7416 100.927 43.8578 100.635 43.8581ZM88.5397 35.5008C88.3225 35.5011 88.1142 35.5874 87.9606 35.7408C87.8071 35.8943 87.7207 36.1023 87.7204 36.3194V42.7567C87.7207 42.9737 87.8071 43.1817 87.9606 43.3352C88.1142 43.4886 88.3225 43.575 88.5397 43.5752H100.635C100.852 43.575 101.06 43.4886 101.214 43.3352C101.367 43.1817 101.454 42.9737 101.454 42.7567V36.3194C101.454 36.1023 101.367 35.8943 101.214 35.7408C101.06 35.5874 100.852 35.5011 100.635 35.5008H88.5397Z" fill="#3F3D56"/>
<path d="M63.8228 62.3888H51.7277C51.4354 62.3884 51.1552 62.2723 50.9485 62.0658C50.7418 61.8593 50.6256 61.5793 50.6252 61.2873V54.85C50.6256 54.558 50.7418 54.278 50.9485 54.0715C51.1552 53.865 51.4354 53.7489 51.7277 53.7485H63.8228C64.1151 53.7489 64.3953 53.865 64.602 54.0715C64.8087 54.278 64.9249 54.558 64.9252 54.85V61.2873C64.9249 61.5793 64.8087 61.8593 64.602 62.0658C64.3953 62.2723 64.1151 62.3884 63.8228 62.3888ZM51.7277 54.0314C51.5104 54.0317 51.3022 54.118 51.1486 54.2715C50.995 54.4249 50.9086 54.633 50.9084 54.85V61.2873C50.9086 61.5043 50.995 61.7124 51.1486 61.8658C51.3022 62.0193 51.5104 62.1056 51.7277 62.1058H63.8228C64.04 62.1056 64.2483 62.0193 64.4019 61.8658C64.5555 61.7124 64.6418 61.5043 64.6421 61.2873V54.85C64.6418 54.633 64.5555 54.4249 64.4019 54.2715C64.2483 54.118 64.04 54.0317 63.8228 54.0314H51.7277Z" fill="#3F3D56"/>
<path d="M82.2288 62.3888H70.1337C69.8414 62.3884 69.5612 62.2723 69.3545 62.0658C69.1478 61.8593 69.0316 61.5793 69.0312 61.2873V54.85C69.0316 54.558 69.1478 54.278 69.3545 54.0715C69.5612 53.865 69.8414 53.7489 70.1337 53.7485H82.2288C82.5211 53.7489 82.8013 53.865 83.008 54.0715C83.2147 54.278 83.3309 54.558 83.3313 54.85V61.2873C83.3309 61.5793 83.2147 61.8593 83.008 62.0658C82.8013 62.2723 82.5211 62.3884 82.2288 62.3888ZM70.1337 54.0314C69.9165 54.0317 69.7082 54.118 69.5546 54.2715C69.401 54.4249 69.3147 54.633 69.3144 54.85V61.2873C69.3147 61.5043 69.401 61.7124 69.5546 61.8658C69.7082 62.0193 69.9165 62.1056 70.1337 62.1058H82.2288C82.446 62.1056 82.6543 62.0193 82.8079 61.8658C82.9615 61.7124 83.0478 61.5043 83.0481 61.2873V54.85C83.0478 54.633 82.9615 54.4249 82.8079 54.2715C82.6543 54.118 82.446 54.0317 82.2288 54.0314H70.1337Z" fill="#3F3D56"/>
<path d="M100.635 62.3888H88.5397C88.2474 62.3884 87.9672 62.2723 87.7605 62.0658C87.5538 61.8593 87.4376 61.5793 87.4373 61.2873V54.85C87.4376 54.558 87.5538 54.278 87.7605 54.0715C87.9672 53.865 88.2474 53.7489 88.5397 53.7485H100.635C100.927 53.7489 101.207 53.865 101.414 54.0715C101.621 54.278 101.737 54.558 101.737 54.85V61.2873C101.737 61.5793 101.621 61.8593 101.414 62.0658C101.207 62.2723 100.927 62.3884 100.635 62.3888ZM88.5397 54.0314C88.3225 54.0317 88.1142 54.118 87.9606 54.2715C87.8071 54.4249 87.7207 54.633 87.7204 54.85V61.2873C87.7207 61.5043 87.8071 61.7124 87.9606 61.8658C88.1142 62.0193 88.3225 62.1056 88.5397 62.1058H100.635C100.852 62.1056 101.06 62.0193 101.214 61.8658C101.367 61.7124 101.454 61.5043 101.454 61.2873V54.85C101.454 54.633 101.367 54.4249 101.214 54.2715C101.06 54.118 100.852 54.0317 100.635 54.0314H88.5397Z" fill="#3F3D56"/>
<path d="M63.8228 80.9193H51.7277C51.4354 80.9189 51.1552 80.8028 50.9485 80.5963C50.7418 80.3898 50.6256 80.1098 50.6252 79.8178V73.3805C50.6256 73.0885 50.7418 72.8085 50.9485 72.602C51.1552 72.3955 51.4354 72.2794 51.7277 72.2791H63.8228C64.1151 72.2794 64.3953 72.3955 64.602 72.602C64.8087 72.8085 64.9249 73.0885 64.9252 73.3805V79.8178C64.9249 80.1098 64.8087 80.3898 64.602 80.5963C64.3953 80.8028 64.1151 80.9189 63.8228 80.9193ZM51.7277 72.562C51.5104 72.5622 51.3022 72.6485 51.1486 72.802C50.995 72.9554 50.9086 73.1635 50.9084 73.3805V79.8178C50.9086 80.0348 50.995 80.2429 51.1486 80.3963C51.3022 80.5498 51.5104 80.6361 51.7277 80.6364H63.8228C64.04 80.6361 64.2483 80.5498 64.4019 80.3963C64.5555 80.2429 64.6418 80.0348 64.6421 79.8178V73.3805C64.6418 73.1635 64.5555 72.9554 64.4019 72.802C64.2483 72.6485 64.04 72.5622 63.8228 72.562H51.7277Z" fill="#3F3D56"/>
<path d="M82.2288 80.9193H70.1337C69.8414 80.9189 69.5612 80.8028 69.3545 80.5963C69.1478 80.3898 69.0316 80.1098 69.0312 79.8178V73.3805C69.0316 73.0885 69.1478 72.8085 69.3545 72.602C69.5612 72.3955 69.8414 72.2794 70.1337 72.2791H82.2288C82.5211 72.2794 82.8013 72.3955 83.008 72.602C83.2147 72.8085 83.3309 73.0885 83.3313 73.3805V79.8178C83.3309 80.1098 83.2147 80.3898 83.008 80.5963C82.8013 80.8028 82.5211 80.9189 82.2288 80.9193ZM70.1337 72.562C69.9165 72.5622 69.7082 72.6485 69.5546 72.802C69.401 72.9554 69.3147 73.1635 69.3144 73.3805V79.8178C69.3147 80.0348 69.401 80.2429 69.5546 80.3963C69.7082 80.5498 69.9165 80.6361 70.1337 80.6364H82.2288C82.446 80.6361 82.6543 80.5498 82.8079 80.3963C82.9615 80.2429 83.0478 80.0348 83.0481 79.8178V73.3805C83.0478 73.1635 82.9615 72.9554 82.8079 72.802C82.6543 72.6485 82.446 72.5622 82.2288 72.562H70.1337Z" fill="#3F3D56"/>
<path d="M100.635 80.9193H88.5397C88.2474 80.9189 87.9672 80.8028 87.7605 80.5963C87.5538 80.3898 87.4376 80.1098 87.4373 79.8178V73.3805C87.4376 73.0885 87.5538 72.8085 87.7605 72.602C87.9672 72.3955 88.2474 72.2794 88.5397 72.2791H100.635C100.927 72.2794 101.207 72.3955 101.414 72.602C101.621 72.8085 101.737 73.0885 101.737 73.3805V79.8178C101.737 80.1098 101.621 80.3898 101.414 80.5963C101.207 80.8028 100.927 80.9189 100.635 80.9193ZM88.5397 72.562C88.3225 72.5622 88.1142 72.6485 87.9606 72.802C87.8071 72.9554 87.7207 73.1635 87.7204 73.3805V79.8178C87.7207 80.0348 87.8071 80.2429 87.9606 80.3963C88.1142 80.5498 88.3225 80.6361 88.5397 80.6364H100.635C100.852 80.6361 101.06 80.5498 101.214 80.3963C101.367 80.2429 101.454 80.0348 101.454 79.8178V73.3805C101.454 73.1635 101.367 72.9554 101.214 72.802C101.06 72.6485 100.852 72.5622 100.635 72.562H88.5397Z" fill="#3F3D56"/>
<path d="M85.7997 85.8938C85.8051 85.4969 85.6309 85.1143 85.3152 84.8302C84.9996 84.5462 84.5684 84.3838 84.1165 84.3789H75.7998V102.379H85.7997V85.8938Z" fill="#3F3D56"/>
<path d="M76.7998 103.379H65.7998V86.1313C65.8004 85.6667 66.0103 85.2213 66.3835 84.8928C66.7566 84.5642 67.2626 84.3794 67.7903 84.3789H76.7998V103.379ZM66.2189 103.01H76.3808V84.7478H67.7903C67.3737 84.7482 66.9742 84.8941 66.6796 85.1535C66.385 85.4129 66.2193 85.7645 66.2189 86.1313V103.01Z" fill="#3F3D56"/>
<path d="M135.301 88.8789H104.301V60.666C104.301 60.1375 104.438 59.6546 104.654 59.3207C104.728 59.2067 104.866 59.0921 105.048 59.0042C105.231 58.9161 105.408 58.8792 105.516 58.8789H134.086C134.193 58.8792 134.37 58.9161 134.553 59.0042C134.736 59.0921 134.874 59.2067 134.948 59.3207C135.163 59.6546 135.3 60.1376 135.301 60.6662V88.8789Z" fill="white" stroke="#0077B6"/>
<path fill-rule="evenodd" clip-rule="evenodd" d="M115.5 60.5H106.5V69.5H109.5V72.5H106.5V75.5H109.5V72.5H112.5V75.5H114.5V78.5H106.5V87.5H115.5V78.5H124.5V81.5H121.5H120.5H118.5V87.5H121.5V84.5H123.5V87.5H126.5V84.5H129.5V81.5H127.5V78.5H130.5V81.5H133.5V78.5H130.5V75.5H133.5V72.5H130.5V69.5H133.5V60.5H124.5V69.5H115.5V60.5ZM115.5 72.5V69.5H112.5V72.5H115.5ZM115.5 72.5V75.5H118.5V72.5H115.5ZM127.5 72.5H130.5V75.5H127.5V72.5ZM127.5 72.5H125.5V69.5H127.5V72.5ZM124.5 75.5H127.5V78.5H124.5V75.5ZM124.5 75.5H121.5V72.5H124.5V75.5ZM113.5 62.5H108.5V67.5H113.5V62.5ZM113.5 80.5H108.5V85.5H113.5V80.5ZM112.5 63.5H109.5V66.5H112.5V63.5ZM109.5 81.5H112.5V84.5H109.5V81.5ZM118.5 60.5H121.5V68.5H118.5V60.5ZM133.5 84.5H130.5V87.5H133.5V84.5ZM131.5 62.5H126.5V67.5H131.5V62.5ZM130.5 63.5H127.5V66.5H130.5V63.5Z" fill="black"/>
<path d="M22.7336 102.884L144.267 102.998C144.329 102.997 144.388 102.95 144.432 102.867C144.475 102.784 144.5 102.672 144.5 102.555C144.5 102.438 144.475 102.326 144.432 102.243C144.388 102.16 144.329 102.113 144.267 102.112L22.7336 101.998C22.6715 101.999 22.6121 102.046 22.5683 102.129C22.5246 102.212 22.5 102.324 22.5 102.441C22.5 102.558 22.5246 102.67 22.5683 102.753C22.6121 102.836 22.6715 102.883 22.7336 102.884Z" fill="#001D32"/>
<path d="M136.037 41.3339C136.14 41.5899 136.432 41.7132 136.688 41.6095L140.858 39.9192C141.114 39.8155 141.238 39.5239 141.134 39.268C141.03 39.0121 140.739 38.8887 140.483 38.9924L136.776 40.4949L135.273 36.7878C135.169 36.5319 134.878 36.4085 134.622 36.5123C134.366 36.616 134.243 36.9075 134.346 37.1635L136.037 41.3339ZM231.784 19.2223C232.011 19.0656 232.068 18.7542 231.912 18.5269L229.357 14.8223C229.2 14.595 228.889 14.5378 228.662 14.6945C228.434 14.8513 228.377 15.1627 228.534 15.39L230.805 18.6829L227.512 20.9537C227.284 21.1105 227.227 21.4219 227.384 21.6492C227.541 21.8765 227.852 21.9337 228.079 21.777L231.784 19.2223ZM136.5 41.1461C136.96 41.341 136.96 41.341 136.96 41.3411C136.96 41.3411 136.96 41.3411 136.96 41.3411C136.96 41.3412 136.96 41.3412 136.96 41.3412C136.96 41.3412 136.96 41.3412 136.96 41.3411C136.96 41.341 136.961 41.3406 136.961 41.3401C136.961 41.339 136.962 41.3371 136.963 41.3344C136.966 41.329 136.969 41.3205 136.974 41.3089C136.985 41.2856 137 41.25 137.022 41.2026C137.065 41.1079 137.132 40.966 137.222 40.7815C137.404 40.4124 137.682 39.8731 138.069 39.1995L137.202 38.7016C136.804 39.395 136.515 39.9534 136.325 40.3404C136.23 40.5339 136.159 40.6846 136.112 40.7879C136.089 40.8396 136.071 40.8794 136.059 40.9068C136.053 40.9205 136.048 40.9311 136.045 40.9386C136.043 40.9423 136.042 40.9452 136.041 40.9473C136.041 40.9484 136.04 40.9492 136.04 40.9499C136.04 40.9502 136.04 40.9505 136.04 40.9507C136.04 40.9508 136.04 40.9509 136.04 40.951C136.04 40.9511 136.04 40.9511 136.04 40.9512C136.04 40.9512 136.04 40.9513 136.5 41.1461ZM140.789 35.0941C141.668 33.922 142.715 32.6472 143.946 31.326L143.214 30.6445C141.958 31.9933 140.888 33.2956 139.989 34.494L140.789 35.0941ZM147.487 27.8953C148.659 26.87 149.943 25.8457 151.347 24.8464L150.767 24.0318C149.335 25.0512 148.024 26.0963 146.828 27.1426L147.487 27.8953ZM155.498 22.1882C156.87 21.4013 158.332 20.6478 159.887 19.9423L159.474 19.0316C157.889 19.7505 156.4 20.5184 155.001 21.3207L155.498 22.1882ZM164.462 18.1131C165.961 17.5905 167.533 17.1137 169.181 16.6922L168.933 15.7234C167.258 16.1519 165.659 16.6369 164.133 17.1688L164.462 18.1131ZM174.011 15.6617C175.582 15.3902 177.214 15.168 178.908 15.0013L178.81 14.0061C177.092 14.1751 175.436 14.4006 173.84 14.6763L174.011 15.6617ZM183.835 14.6848C184.652 14.6592 185.481 14.6461 186.324 14.6461V13.6461C185.471 13.6461 184.631 13.6594 183.804 13.6853L183.835 14.6848ZM186.324 14.6461C187.07 14.6461 187.825 14.6528 188.586 14.6656L188.603 13.6658C187.837 13.6528 187.076 13.6461 186.324 13.6461V14.6461ZM193.117 14.8081C194.619 14.8755 196.133 14.9622 197.647 15.0646L197.714 14.0669C196.194 13.9641 194.672 13.8769 193.162 13.8091L193.117 14.8081ZM202.172 15.4146C203.695 15.5466 205.206 15.6909 206.692 15.8438L206.794 14.8491C205.304 14.6956 203.788 14.5508 202.258 14.4184L202.172 15.4146ZM211.202 16.3414C212.757 16.5241 214.266 16.7124 215.712 16.9013L215.842 15.9097C214.392 15.7203 212.879 15.5315 211.319 15.3483L211.202 16.3414ZM220.214 17.5175C221.852 17.752 223.36 17.9787 224.703 18.1874L224.856 17.1992C223.51 16.99 221.998 16.7627 220.355 16.5276L220.214 17.5175ZM229.19 18.9149C229.902 19.0356 230.457 19.1326 230.834 19.1993C231.023 19.2327 231.167 19.2586 231.264 19.276C231.312 19.2848 231.349 19.2914 231.373 19.2958C231.385 19.2981 231.395 19.2997 231.401 19.3008C231.404 19.3014 231.406 19.3018 231.408 19.3021C231.408 19.3022 231.409 19.3023 231.409 19.3024C231.409 19.3024 231.409 19.3025 231.41 19.3025C231.41 19.3025 231.41 19.3025 231.41 19.3025C231.41 19.3025 231.41 19.3025 231.41 19.3025C231.41 19.3025 231.41 19.3025 231.5 18.8107C231.59 18.3189 231.59 18.3189 231.59 18.3189C231.59 18.3189 231.59 18.3189 231.59 18.3189C231.59 18.3189 231.59 18.3189 231.59 18.3189C231.59 18.3189 231.59 18.3189 231.59 18.3188C231.589 18.3187 231.589 18.3186 231.588 18.3185C231.586 18.3182 231.584 18.3177 231.581 18.3172C231.574 18.316 231.565 18.3143 231.552 18.312C231.527 18.3075 231.49 18.3007 231.441 18.2919C231.344 18.2743 231.199 18.2482 231.009 18.2147C230.629 18.1475 230.071 18.0501 229.357 17.929L229.19 18.9149Z" fill="#BFC8CA"/>
<path d="M227.432 62.9897C227.293 62.7512 226.986 62.6708 226.748 62.81L222.862 65.0791C222.623 65.2183 222.543 65.5245 222.682 65.763C222.821 66.0015 223.128 66.0819 223.366 65.9427L226.82 63.9257L228.837 67.38C228.977 67.6184 229.283 67.6989 229.521 67.5596C229.76 67.4204 229.84 67.1142 229.701 66.8757L227.432 62.9897ZM145.791 81.2163C145.54 81.3319 145.43 81.629 145.546 81.8797L147.431 85.9659C147.547 86.2167 147.844 86.3262 148.094 86.2105C148.345 86.0948 148.455 85.7978 148.339 85.547L146.663 81.9149L150.296 80.2393C150.546 80.1237 150.656 79.8266 150.54 79.5759C150.425 79.3251 150.127 79.2156 149.877 79.3313L145.791 81.2163ZM185 89.2329L185 89.7329L185 89.2329ZM227 63.2418C226.516 63.1148 226.516 63.1147 226.516 63.1147C226.516 63.1147 226.516 63.1146 226.516 63.1146C226.516 63.1145 226.516 63.1145 226.516 63.1145C226.516 63.1145 226.516 63.1145 226.516 63.1145C226.516 63.1147 226.516 63.1151 226.516 63.1157C226.516 63.1169 226.515 63.1191 226.514 63.1221C226.513 63.1282 226.51 63.1379 226.506 63.1511C226.499 63.1775 226.488 63.2179 226.472 63.2717C226.44 63.3794 226.39 63.5404 226.32 63.7492C226.181 64.1668 225.961 64.7753 225.642 65.5295L226.563 65.9187C226.893 65.1388 227.122 64.5061 227.269 64.0661C227.342 63.8461 227.395 63.6742 227.43 63.5561C227.448 63.4971 227.461 63.4515 227.47 63.42C227.474 63.4043 227.477 63.3921 227.48 63.3836C227.481 63.3793 227.482 63.3759 227.482 63.3735C227.483 63.3722 227.483 63.3712 227.483 63.3705C227.483 63.3701 227.483 63.3698 227.483 63.3695C227.483 63.3694 227.483 63.3692 227.484 63.3691C227.484 63.3691 227.484 63.369 227.484 63.369C227.484 63.3689 227.484 63.3689 227 63.2418ZM223.235 70.1537C222.411 71.4823 221.402 72.9149 220.176 74.3742L220.942 75.0174C222.201 73.5183 223.238 72.0464 224.085 70.6809L223.235 70.1537ZM216.542 78.123C215.314 79.222 213.945 80.2987 212.422 81.3194L212.979 82.1502C214.542 81.1026 215.948 79.9971 217.209 78.8682L216.542 78.123ZM207.894 83.9287C206.403 84.6614 204.799 85.3359 203.073 85.9336L203.4 86.8785C205.165 86.2674 206.808 85.577 208.335 84.8262L207.894 83.9287ZM198.039 87.3631C196.409 87.7313 194.69 88.0342 192.876 88.2606L193 89.2529C194.845 89.0225 196.597 88.7141 198.259 88.3385L198.039 87.3631ZM187.638 88.6826C186.778 88.7158 185.898 88.7329 185 88.7329L185 89.7329C185.911 89.7329 186.803 89.7156 187.677 89.6818L187.638 88.6826ZM185 88.7329C184.179 88.7329 183.353 88.7179 182.525 88.6891L182.49 89.6885C183.329 89.7176 184.167 89.7329 185 89.7329L185 88.7329ZM177.578 88.3657C175.923 88.21 174.275 88.0103 172.65 87.7772L172.508 88.7671C174.147 89.0023 175.811 89.204 177.484 89.3613L177.578 88.3657ZM167.75 86.9679C166.075 86.6563 164.445 86.3188 162.882 85.9689L162.663 86.9447C164.238 87.2971 165.879 87.637 167.568 87.951L167.75 86.9679ZM158.046 84.8015C156.297 84.3492 154.687 83.9 153.253 83.4802L152.972 84.4399C154.415 84.8624 156.036 85.3144 157.795 85.7696L158.046 84.8015ZM148.503 82.0035C147.755 81.7563 147.172 81.5553 146.776 81.4163C146.577 81.3468 146.426 81.2928 146.325 81.2563C146.274 81.238 146.236 81.2241 146.21 81.2149C146.198 81.2102 146.188 81.2068 146.182 81.2045C146.179 81.2033 146.176 81.2025 146.175 81.2019C146.174 81.2016 146.174 81.2014 146.173 81.2013C146.173 81.2012 146.173 81.2012 146.173 81.2012C146.173 81.2012 146.173 81.2012 146.173 81.2012C146.173 81.2012 146.173 81.2012 146.173 81.2012C146.173 81.2012 146.173 81.2012 146 81.6703C145.827 82.1394 145.827 82.1394 145.827 82.1394C145.827 82.1395 145.827 82.1395 145.827 82.1395C145.827 82.1395 145.827 82.1395 145.827 82.1395C145.827 82.1396 145.828 82.1397 145.828 82.1397C145.828 82.1399 145.829 82.1402 145.83 82.1405C145.832 82.1412 145.834 82.1421 145.838 82.1434C145.845 82.1459 145.855 82.1496 145.868 82.1544C145.895 82.1641 145.934 82.1785 145.986 82.1972C146.09 82.2346 146.244 82.2895 146.445 82.3599C146.846 82.5007 147.435 82.7037 148.189 82.9529L148.503 82.0035Z" fill="#BFC8CA"/>
<path d="M241.134 98.3694H242.635L243.349 92.6531H241.134V98.3694Z" fill="#A0616A"/>
<path d="M240.644 97.3542L243.042 97.2129V98.2273L245.323 99.7819C245.435 99.8587 245.52 99.969 245.565 100.097C245.609 100.224 245.611 100.363 245.571 100.492C245.53 100.621 245.449 100.734 245.338 100.814C245.228 100.894 245.095 100.937 244.958 100.937H242.102L241.61 99.9336L241.418 100.937H240.341L240.644 97.3542Z" fill="#2F2E41"/>
<path d="M253.142 98.3694H254.643L255.358 92.6531H253.142V98.3694Z" fill="#A0616A"/>
<path d="M252.652 97.3542L255.05 97.2129V98.2273L257.331 99.7819C257.443 99.8587 257.528 99.969 257.573 100.097C257.617 100.224 257.62 100.363 257.579 100.492C257.538 100.621 257.457 100.734 257.346 100.814C257.236 100.894 257.103 100.937 256.966 100.937H254.11L253.618 99.9336L253.426 100.937H252.349L252.652 97.3542Z" fill="#2F2E41"/>
<path d="M242.322 63.4557L250.304 63.6531V55.1373L243.748 55.1694L242.322 63.4557Z" fill="#A0616A"/>
<path d="M250.345 57.3245L251.412 60.8337L253.627 65.4369L258.306 92.0247L257.591 95.7025L250.654 95.4148L247.565 72.6184L247.515 75.7655L247.491 77.2888C247.491 77.2888 248.618 87.1963 247.304 89.1191C245.991 91.0418 247.278 90.8156 247.278 90.8156L247.215 94.7819L238.996 94.8394L240.809 83.4204C240.809 83.4204 241.73 82.7028 241.237 81.9815C240.745 81.2602 241.715 80.3767 241.715 80.3767L241.28 71.4622C241.28 71.4622 241.761 69.9224 241.195 69.7223C240.628 69.5222 241.12 68.198 241.12 68.198L241.036 66.4726L242.901 59.5133L250.345 57.3245Z" fill="#2F2E41"/>
<path d="M242.61 55.1374L241.794 52.7208L241.211 51.9152L240.978 49.6136C240.978 43.3994 242.382 44.4342 242.382 44.4342L244.214 42.2486L246.298 42.1843L247.944 42.1335L249.314 44.3776L251.295 45.068L252.072 49.0486L250.654 53.2961L250.717 52.9805C251.384 54.1963 251.214 54.3792 250.662 55.292L250.634 55.6216C250.569 56.401 251.12 56.5353 250.345 56.6991C243.693 58.1062 243.059 60.9204 242.267 59.826C242.091 59.5823 242.839 56.6739 242.584 56.6991C241.885 56.7681 242.61 55.1374 242.61 55.1374Z" fill="#E6E6E6"/>
<path d="M246.687 41.3611C248.597 41.3611 250.145 39.8327 250.145 37.9473C250.145 36.0619 248.597 34.5334 246.687 34.5334C244.777 34.5334 243.228 36.0619 243.228 37.9473C243.228 39.8327 244.777 41.3611 246.687 41.3611Z" fill="#A0616A"/>
<path d="M239.392 62.3037L239.746 50.2777L242.052 51.2739L240.902 62.2599C241.083 62.4066 241.214 62.6042 241.278 62.8264C241.342 63.0486 241.336 63.2848 241.26 63.5034C241.184 63.7219 241.043 63.9125 240.855 64.0496C240.666 64.1867 240.44 64.2638 240.206 64.2705C239.972 64.2773 239.742 64.2135 239.546 64.0876C239.35 63.9616 239.197 63.7796 239.108 63.5658C239.02 63.352 239 63.1166 239.05 62.8911C239.101 62.6656 239.22 62.4607 239.392 62.3037Z" fill="#A0616A"/>
<path d="M242.341 44.3721L242.073 44.4557C241.356 44.6791 240.73 45.1222 240.286 45.7206C239.841 46.3191 239.602 47.0417 239.602 47.7837L239.097 50.0643C239.828 51.3022 240.909 51.9157 242.413 51.772L242.341 44.3721Z" fill="#E6E6E6"/>
<path d="M258.109 48.5229C258.109 48.3544 258.071 48.188 257.998 48.0358C257.924 47.8836 257.818 47.7494 257.685 47.6431C257.553 47.5367 257.398 47.4608 257.232 47.4209C257.066 47.381 256.893 47.3781 256.726 47.4124C256.559 47.4467 256.402 47.5174 256.266 47.6192C256.13 47.7211 256.019 47.8516 255.94 48.0013C255.862 48.1509 255.818 48.316 255.812 48.4844C255.807 48.6528 255.839 48.8203 255.907 48.9748L253.645 52.4929V50.3828L251.094 50.655L251.451 54.4155C251.48 54.7165 251.605 55.0007 251.809 55.2266C252.012 55.4524 252.283 55.6083 252.583 55.6713C252.882 55.7344 253.195 55.7014 253.474 55.5772C253.753 55.453 253.985 55.244 254.135 54.9807L257.193 49.6332C257.451 49.5804 257.684 49.4411 257.851 49.2388C258.018 49.0366 258.109 48.7837 258.109 48.5229Z" fill="#A0616A"/>
<path d="M250.887 44.9375L251.144 45.0175C251.829 45.2312 252.428 45.6551 252.853 46.2276C253.278 46.8001 253.507 47.4914 253.507 48.2011L253.99 50.3829C253.291 51.5671 252.257 52.1539 250.818 52.0165L250.887 44.9375Z" fill="#E6E6E6"/>
<path d="M242.248 38.7097C242.441 37.984 242.514 37.2245 242.793 36.5266C243.07 35.8336 243.539 35.2317 244.147 34.7901C244.755 34.3484 245.476 34.0848 246.229 34.0295C246.981 33.9742 247.735 34.1294 248.402 34.4774C249.069 34.8254 249.624 35.352 250.002 35.9969C250.333 36.5201 250.472 37.1396 250.397 37.7521C250.287 38.4183 249.84 39.0518 249.98 39.7126C250.074 40.1546 250.412 40.498 250.68 40.8636C250.949 41.2293 251.161 41.7128 250.968 42.122C250.757 42.5664 250.174 42.6978 249.679 42.6561C249.184 42.6144 248.688 42.4566 248.199 42.5451L248.432 41.6449C247.852 42.1953 247.273 42.7456 246.694 43.296C246.758 42.7232 246.488 42.1736 246.302 41.6273C246.116 41.081 246.03 40.4226 246.398 39.9756C246.618 39.7082 246.958 39.5731 247.261 39.4019C247.564 39.2306 247.865 38.9742 247.896 38.6309C247.934 38.2064 247.548 37.8658 247.17 37.6606C246.792 37.4553 246.356 37.2833 246.143 36.9122C246.296 37.2352 246.448 37.5582 246.601 37.8813C246.094 37.8459 245.605 37.6791 245.184 37.3978C244.764 37.1166 244.425 36.7307 244.204 36.2792L243.995 36.4142C242.258 38.3367 244.482 41.2171 243.179 42.225C243.751 41.2172 241.95 39.8273 242.248 38.7097Z" fill="#2F2E41"/>
<path d="M287.459 2.55352L255.729 11.6146C250.794 13.0238 247.951 18.1152 249.379 22.9865L270.355 94.5569C271.782 99.4281 276.94 102.235 281.875 100.825L313.605 91.7643C318.54 90.3551 321.384 85.2637 319.956 80.3924L298.98 8.82203C297.552 3.95076 292.394 1.14426 287.459 2.55352Z" fill="#3F3D56"/>
<path d="M287.701 3.37954L283.552 4.56446L283.966 5.97941C284.154 6.61985 284.076 7.30767 283.75 7.89155C283.424 8.47543 282.877 8.90754 282.228 9.09282L263.689 14.3868C263.04 14.5721 262.344 14.4953 261.752 14.1735C261.161 13.8516 260.723 13.311 260.535 12.6706L260.12 11.2556L255.971 12.4406C253.825 13.0561 252.013 14.487 250.934 16.4193C249.855 18.3515 249.597 20.6274 250.215 22.7475L271.192 94.3179C271.815 96.4366 273.265 98.2247 275.222 99.2898C277.18 100.355 279.485 100.61 281.633 99.9993L313.363 90.9383C315.51 90.3228 317.321 88.8919 318.4 86.9596C319.479 85.0274 319.738 82.7515 319.119 80.6314L298.143 9.06101C297.519 6.94225 296.07 5.15418 294.112 4.08907C292.155 3.02395 289.849 2.76878 287.701 3.37954Z" fill="white"/>
<path d="M288.015 42.0416L278.85 58.8241L295.633 67.9887" stroke="#212121" stroke-width="1.40845" stroke-linecap="round"/>
<circle cx="288.015" cy="42.0416" r="6.47887" transform="rotate(-16.3619 288.015 42.0416)" fill="#9A9A9A"/>
<circle cx="295.633" cy="67.9888" r="6.47887" transform="rotate(-16.3619 295.633 67.9888)" fill="#17428D"/>
<circle cx="278.85" cy="58.8241" r="6.47887" transform="rotate(-16.3619 278.85 58.8241)" fill="#FF7600"/>
<path d="M251.869 32.3289C251.708 32.3748 251.535 32.3556 251.388 32.2755C251.24 32.1955 251.131 32.0611 251.085 31.9019L250.732 30.7004C250.709 30.6215 250.702 30.5389 250.711 30.4573C250.721 30.3757 250.746 30.2966 250.786 30.2247C250.826 30.1528 250.881 30.0894 250.946 30.0381C251.011 29.9868 251.085 29.9487 251.165 29.9259C251.245 29.9031 251.329 29.896 251.411 29.9051C251.494 29.9142 251.574 29.9393 251.647 29.9789C251.72 30.0186 251.784 30.072 251.836 30.1362C251.888 30.2003 251.927 30.2739 251.95 30.3528L252.302 31.5543C252.348 31.7136 252.329 31.8847 252.248 32.0299C252.167 32.1751 252.031 32.2826 251.869 32.3289Z" fill="#3F3D56"/>
<path d="M253.675 38.4898C253.514 38.5356 253.34 38.5165 253.193 38.4364C253.046 38.3564 252.937 38.222 252.89 38.0628L251.921 34.7555C251.898 34.6766 251.891 34.594 251.9 34.5124C251.909 34.4307 251.935 34.3517 251.975 34.2798C252.015 34.2079 252.069 34.1444 252.134 34.0932C252.199 34.0419 252.274 34.0038 252.353 33.9809C252.433 33.9581 252.517 33.951 252.6 33.9602C252.682 33.9693 252.763 33.9943 252.835 34.034C252.908 34.0736 252.973 34.1271 253.024 34.1912C253.076 34.2554 253.115 34.329 253.138 34.4079L254.107 37.7152C254.154 37.8745 254.135 38.0456 254.053 38.1908C253.972 38.336 253.836 38.4435 253.675 38.4898Z" fill="#3F3D56"/>
<path d="M255.127 43.4428C254.965 43.4887 254.792 43.4695 254.645 43.3894C254.498 43.3094 254.389 43.175 254.342 43.0158L253.373 39.7085C253.326 39.5492 253.345 39.378 253.426 39.2328C253.507 39.0875 253.644 38.98 253.805 38.9339C253.967 38.8878 254.14 38.9069 254.287 38.987C254.434 39.0671 254.543 39.2016 254.59 39.3609L255.559 42.6682C255.606 42.8275 255.586 42.9986 255.505 43.1438C255.424 43.289 255.288 43.3965 255.127 43.4428Z" fill="#3F3D56"/>
<path d="M304.24 26.4881C304.078 26.534 303.905 26.5148 303.758 26.4347C303.611 26.3547 303.502 26.2203 303.455 26.0611L301.09 17.9911C301.043 17.8317 301.063 17.6606 301.144 17.5154C301.225 17.3701 301.361 17.2626 301.522 17.2165C301.684 17.1704 301.857 17.1895 302.004 17.2696C302.151 17.3497 302.26 17.4842 302.307 17.6435L304.672 25.7135C304.719 25.8728 304.699 26.0439 304.618 26.1891C304.537 26.3343 304.401 26.4418 304.24 26.4881Z" fill="#3F3D56"/>
<path d="M296.76 24.799L260.506 35.1523C259.946 35.3113 259.346 35.2448 258.836 34.9675C258.327 34.6902 257.949 34.2247 257.787 33.673L255.75 26.7219C255.589 26.1699 255.656 25.5774 255.937 25.0743C256.218 24.5712 256.689 24.1987 257.248 24.0385L293.503 13.6852C294.062 13.5262 294.663 13.5926 295.172 13.87C295.682 14.1473 296.059 14.6128 296.222 15.1644L298.259 22.1156C298.42 22.6676 298.353 23.2601 298.072 23.7632C297.791 24.2662 297.319 24.6388 296.76 24.799ZM257.336 24.3388C256.858 24.476 256.455 24.7947 256.214 25.2252C255.974 25.6557 255.916 26.1627 256.054 26.635L258.091 33.5861C258.23 34.0582 258.553 34.4565 258.989 34.6938C259.425 34.9311 259.939 34.9879 260.418 34.8519L296.672 24.4987C297.151 24.3615 297.554 24.0427 297.795 23.6123C298.035 23.1818 298.093 22.6748 297.955 22.2025L295.917 15.2513C295.779 14.7793 295.456 14.381 295.02 14.1437C294.583 13.9064 294.07 13.8495 293.591 13.9856L257.336 24.3388Z" fill="#3F3D56"/>
<path d="M273.709 9.46598L268.992 10.8129C268.892 10.8412 268.784 10.829 268.692 10.7789C268.6 10.7288 268.533 10.645 268.503 10.5456C268.474 10.4463 268.486 10.3397 268.537 10.249C268.587 10.1584 268.672 10.0911 268.772 10.062L273.489 8.71505C273.539 8.70055 273.591 8.69595 273.643 8.7015C273.695 8.70705 273.745 8.72265 273.791 8.7474C273.837 8.77215 273.877 8.80557 273.91 8.84574C273.942 8.8859 273.966 8.93202 273.981 8.98146C273.995 9.03089 274 9.08266 273.994 9.1338C273.988 9.18494 273.972 9.23443 273.947 9.27945C273.922 9.32447 273.888 9.36412 273.847 9.39613C273.806 9.42814 273.759 9.45187 273.709 9.46598Z" fill="white"/>
<path d="M276.033 8.70802C276.208 8.70802 276.35 8.56803 276.35 8.39533C276.35 8.22264 276.208 8.08264 276.033 8.08264C275.858 8.08264 275.717 8.22264 275.717 8.39533C275.717 8.56803 275.858 8.70802 276.033 8.70802Z" fill="white"/>
<path d="M223.688 101.481L321.312 101.573C321.362 101.573 321.41 101.535 321.445 101.468C321.48 101.401 321.5 101.311 321.5 101.217C321.5 101.122 321.48 101.032 321.445 100.965C321.41 100.899 321.362 100.861 321.312 100.86L223.688 100.768C223.638 100.769 223.59 100.806 223.555 100.873C223.52 100.94 223.5 101.03 223.5 101.125C223.5 101.219 223.52 101.309 223.555 101.376C223.59 101.443 223.638 101.481 223.688 101.481Z" fill="#001D32"/>
</svg>
