<svg width="100" height="160" viewBox="0 0 100 160" fill="none" xmlns="http://www.w3.org/2000/svg">
<path fill-rule="evenodd" clip-rule="evenodd" d="M33.3333 125.333C51.7463 125.333 66.6667 133.101 66.6667 142.667C66.6667 152.232 51.7329 160 33.3333 160C14.9338 160 0 152.232 0 142.667C0 133.101 14.9338 125.333 33.3333 125.333Z" fill="#808080"/>
<path fill-rule="evenodd" clip-rule="evenodd" d="M73.641 112C87.8048 112 99.2821 117.975 99.2821 125.333C99.2821 132.691 87.7945 138.667 73.641 138.667C59.4875 138.667 48 132.691 48 125.333C48 117.975 59.4875 112 73.641 112Z" fill="#808080"/>
<path d="M68.6432 26.9801C68.5794 26.5973 68.7229 26.2144 68.7229 25.8156C68.7229 25.4168 68.5953 25.002 68.3401 24.7148C67.3829 24.7946 66.4098 25.0179 65.5643 25.4806C64.0647 26.2942 63.4107 27.682 62.8842 29.2295C62.5811 30.1707 62.294 31.1119 62.0069 32.0531C61.3368 34.3024 60.6668 36.5677 59.9809 38.817C59.3427 40.9707 58.7844 43.1083 58.2899 45.2938C58.1782 45.7724 58.0825 46.251 58.1622 46.7296C58.1622 46.7774 58.1782 46.8413 58.2261 46.8732C58.2899 46.921 58.3696 46.921 58.4494 46.9051C60.5392 46.6977 62.0388 48.8034 62.5652 50.5742C63.1235 50.0797 63.4745 49.3937 63.7776 48.7237C65.4048 45.1662 65.9631 41.2259 67.1117 37.477C67.6382 35.7541 68.2922 34.0791 68.6751 32.3243C68.9622 31.1278 69.0739 29.8357 68.9622 28.6073C68.9144 28.0968 68.8187 27.5863 68.6751 27.0918C68.6751 27.0599 68.6591 27.012 68.6591 26.9801H68.6432Z" fill="#2E2E2E"/>
<path d="M62.4714 51.5624C62.1683 52.1367 61.7056 52.5993 61.1792 52.9662C60.7325 53.2853 60.238 53.716 59.7275 53.9234C59.2489 54.1148 58.7225 54.0351 58.2279 53.9234C57.4622 53.7639 56.7124 53.5405 55.9786 53.2534C55.3405 53.0141 54.846 52.5515 54.3036 52.1367C54.2557 52.1048 54.2079 52.0729 54.1919 52.0091C54.176 51.9772 54.1919 51.9453 54.1919 51.8974C54.2398 51.69 54.2876 51.4667 54.3195 51.2433C54.4312 50.7488 54.5269 50.2543 54.6226 49.7597C54.9576 48.1326 56.2498 46.9202 57.7653 46.2501C58.1163 46.0906 58.4991 45.9789 58.866 46.0268C59.1532 46.0747 59.4244 46.2023 59.6637 46.3618C60.6208 46.9361 61.4344 47.7178 62.0247 48.659C62.1364 48.8345 62.248 49.0419 62.3437 49.2652C62.6787 49.999 62.8383 50.8764 62.4714 51.5624Z" fill="#4D4D4D"/>
<g style="mix-blend-mode:multiply">
<path d="M62.4714 51.5628C62.1683 52.1371 61.7056 52.5997 61.1792 52.9667C60.7325 53.2857 60.238 53.7164 59.7275 53.9238C59.2489 54.1152 58.7225 54.0355 58.2279 53.9238C57.4622 53.7643 56.7124 53.541 55.9786 53.2538C55.3405 53.0145 54.846 52.5519 54.3036 52.1371C54.2557 52.1052 54.2079 52.0733 54.1919 52.0095C54.176 51.9776 54.1919 51.9457 54.1919 51.8978C54.2398 51.6904 54.2876 51.4671 54.3195 51.2438L54.6067 51.0683C55.2448 51.5469 55.9627 51.9297 56.7124 52.1371C57.8132 52.4243 59.0256 52.3445 60.0625 51.85C61.0835 51.3554 61.929 50.4621 62.3118 49.3773C62.3278 49.3454 62.3437 49.2975 62.3437 49.2656C62.6787 49.9994 62.8383 50.8768 62.4714 51.5628Z" fill="#B0B0B0"/>
</g>
<path d="M73.0167 121.852C72.5541 122.155 71.1981 123.049 70.6717 122.554C70.5441 122.442 70.4483 122.299 70.3207 122.187C70.0495 121.964 69.6507 121.948 69.3157 122.075C68.9967 122.187 68.7255 122.426 68.4702 122.682C67.8002 123.352 67.3535 124.149 66.6037 124.756C65.9337 125.314 65.168 125.745 64.3544 126.048C62.7591 126.622 60.9724 126.702 59.3612 126.191C59.1219 126.111 58.8667 126 58.755 125.761C58.6593 125.521 58.771 125.25 58.8826 125.027C58.9943 124.803 59.1219 124.596 59.2655 124.405C60.7331 122.299 63.2696 121.294 65.2637 119.794C66.3485 118.997 67.3535 118.071 68.1193 116.939C68.4543 116.46 68.7414 115.918 69.1721 115.535C69.8102 114.961 70.6717 114.737 71.4853 114.546C71.5491 114.53 71.5969 114.514 71.6448 114.546C71.6927 114.578 71.7086 114.626 71.7086 114.657C71.8043 114.961 71.8522 115.152 71.9958 115.359C72.0277 115.391 72.0596 115.439 72.0915 115.471C72.3308 115.71 72.602 115.934 72.7615 116.253C73.1763 116.907 73.5113 117.529 73.5432 118.311C73.5751 119.316 74.0058 121.214 73.0167 121.852Z" fill="#4D4D4D"/>
<g style="mix-blend-mode:multiply">
<path d="M73.0167 121.852C72.5541 122.155 71.1981 123.048 70.6717 122.554C70.5441 122.442 70.4483 122.298 70.3207 122.187C70.0495 121.963 69.6507 121.947 69.3157 122.075C68.9967 122.187 68.7255 122.426 68.4702 122.681C67.8002 123.351 67.3535 124.149 66.6037 124.755C65.9337 125.314 65.168 125.744 64.3544 126.047C62.7591 126.622 60.9724 126.701 59.3612 126.191C59.1219 126.111 58.8667 125.999 58.755 125.76C58.6593 125.521 58.771 125.25 58.8826 125.026C58.9943 124.803 59.1219 124.596 59.2655 124.404C59.3772 124.261 60.781 124.34 61.0203 124.308C61.6744 124.245 62.3284 124.133 62.9506 123.958C63.9875 123.67 64.8011 123.24 65.7263 122.649C67.6088 121.469 69.4274 120.097 70.6398 118.215C71.0386 117.608 71.3577 116.954 71.6448 116.284C71.7565 116.013 71.8362 115.566 72.1553 115.566C72.3786 115.566 72.6498 116.093 72.7615 116.236C73.1763 116.89 73.5113 117.513 73.5432 118.294C73.5751 119.299 74.0058 121.198 73.0167 121.836V121.852Z" fill="#B0B0B0"/>
</g>
<path d="M76.4613 86.8825V86.9144C76.3816 87.9992 76.2061 89.084 75.9508 90.1368C75.9508 90.1688 75.9508 90.1847 75.9349 90.2166C75.6318 91.429 75.217 92.6255 75.0734 93.8698C74.882 95.4012 75.0894 96.9487 75.217 98.4801C75.4882 101.798 75.3446 105.148 74.8022 108.451C74.547 110.046 74.1801 111.641 73.7334 113.204C73.4143 114.305 73.0953 116.459 72.2019 117.225C72.1222 117.288 72.0265 117.352 71.9307 117.384C71.6596 117.528 71.3405 117.576 71.0374 117.591C70.3036 117.655 69.474 117.56 68.9795 117.017C68.5966 116.586 68.5328 115.964 68.469 115.39C68.4052 114.832 68.3414 114.273 68.2935 113.715C68.0702 111.593 67.8788 109.456 67.6554 107.334C67.2885 103.984 67.2566 100.602 66.8418 97.2677C66.4271 94.0134 65.5497 90.7271 64.6244 87.5844C63.8746 85.0639 63.1887 82.2243 62.8856 79.5442C62.8537 79.2252 62.8217 78.9061 62.7898 78.603C62.6463 76.7685 62.6463 74.9499 62.8377 73.1313C62.8377 73.0515 62.8377 72.9558 62.8537 72.876C62.9015 72.2858 63.7949 68.0104 63.6513 67.8828C65.6454 69.829 68.3573 71.0255 71.1331 71.201C72.4412 71.2648 73.0953 73.0515 73.6855 74.2958C73.7494 74.4394 73.8291 74.5829 73.8929 74.7106C74.1003 75.1094 74.3077 75.4923 74.4832 75.907C75.0575 77.1194 75.5042 78.3797 75.8392 79.6559C75.9349 80.0547 76.0306 80.4536 76.1104 80.8524C76.238 81.5064 76.3496 82.1764 76.4135 82.8465C76.573 84.1865 76.5889 85.5425 76.4613 86.8825Z" fill="#333333"/>
<g style="mix-blend-mode:multiply">
<path d="M76.4603 86.8817V86.9136C76.3805 87.9984 76.205 89.0832 75.9498 90.136C75.9498 90.1679 75.9498 90.1839 75.9338 90.2158C75.6307 91.4282 75.2159 92.6247 75.0724 93.869C74.8809 95.4004 75.0883 96.9478 75.2159 98.4793C75.4871 101.797 75.3436 105.148 74.8012 108.45C74.5459 110.045 74.179 111.64 73.7323 113.204C73.4133 114.304 73.0942 116.458 72.2009 117.224C72.1211 117.288 72.0254 117.351 71.9297 117.383C72.2647 112.039 73.3016 106.743 73.2059 101.351C73.174 99.3727 73.0145 97.3945 73.0783 95.4164C73.158 93.0554 73.525 90.7103 73.9876 88.3812C74.4821 85.8288 75.1043 83.2604 76.1093 80.8516C76.2369 81.5056 76.3486 82.1756 76.4124 82.8457C76.5719 84.1857 76.5879 85.5417 76.4603 86.8817Z" fill="#B0B0B0"/>
</g>
<path d="M84.5318 118.916C84.5478 120.128 84.4201 121.373 84.2766 122.569C83.9894 124.93 83.3992 127.562 82.0113 129.556C81.5327 130.242 80.6394 131.391 79.6822 131.263C78.7569 131.136 78.5017 130.003 78.4219 129.237C78.406 129.126 78.39 128.998 78.3741 128.886C78.1507 126.844 77.9593 124.723 78.2465 122.697C78.4698 121.038 78.5336 119.315 79.2355 117.767C79.5546 117.065 80.0172 116.268 80.6713 115.837C81.3094 115.39 82.3144 115.598 83.0163 115.837C83.4789 115.997 83.798 116.332 84.0373 116.73C84.0851 116.81 84.133 116.906 84.1649 117.002C84.4361 117.608 84.5159 118.326 84.5318 118.916Z" fill="#4D4D4D"/>
<g style="mix-blend-mode:multiply">
<path d="M84.5354 118.916C84.5514 120.128 84.4238 121.373 84.2802 122.569C83.993 124.93 83.4028 127.562 82.0149 129.556C81.5363 130.242 80.643 131.391 79.6858 131.263C78.7606 131.136 78.5053 130.003 78.4255 129.237C78.4096 129.126 78.3936 128.998 78.3777 128.886C78.8563 129.078 79.3987 129.11 79.8932 128.982C80.7387 128.775 81.4566 128.153 81.8713 127.371C83.1475 124.93 83.2911 121.883 83.674 119.203L84.0409 116.73C84.0888 116.81 84.1366 116.906 84.1685 117.002C84.4397 117.608 84.5195 118.326 84.5354 118.916Z" fill="#B0B0B0"/>
</g>
<path d="M86.4319 97.1076C86.2724 99.2931 86.6233 101.511 86.6552 103.696C86.7191 106.631 86.2245 109.551 85.5545 112.406C85.1876 113.97 84.9164 116.921 84.0869 118.612C83.9592 118.867 83.8316 119.09 83.6721 119.282C83.5604 119.425 83.3849 119.489 83.2095 119.553C82.1725 119.92 81.008 119.904 79.987 119.489C79.668 119.378 79.3489 119.186 79.2532 118.867C76.9081 111.098 78.1046 102.675 77.4346 94.7147C77.2272 92.1144 76.94 89.4822 76.4615 86.8819C76.27 85.7652 76.0307 84.6645 75.7595 83.5797C75.6 82.9416 75.4405 82.3194 75.2969 81.6813C75.0576 80.6285 74.8662 79.5756 74.7386 78.5067C74.7067 78.2036 74.5471 77.055 74.4833 75.9224C74.4355 75.3322 74.4195 74.7579 74.4514 74.3112C74.4833 73.8326 74.5631 73.4816 74.7226 73.4178L78.7746 71.6152C81.2951 70.2751 84.1666 69.6689 86.4638 68.0577C86.9743 67.7068 87.5326 67.3398 88.1707 67.3398C88.8727 67.3398 89.5108 67.8663 89.8458 68.4884C90.4679 69.6849 90.0213 70.9611 90.2127 72.2054C90.3722 73.1147 90.6115 73.9124 90.7072 74.7898C90.7391 75.0929 90.7551 75.4119 90.7391 75.7629C90.4839 80.8997 89.5267 85.7174 88.3462 90.6787C87.8357 92.8482 86.6712 94.619 86.4638 96.8683C86.4479 96.9481 86.4479 97.0278 86.4319 97.1076Z" fill="#333333"/>
<g style="mix-blend-mode:multiply">
<path d="M86.4308 97.1077C86.2713 99.2932 86.6222 101.511 86.6541 103.696C86.7179 106.631 86.2234 109.551 85.5534 112.406C85.1865 113.97 84.9153 116.921 84.0857 118.612C84.2772 114.512 84.6281 110.412 84.7717 106.312C84.9472 101.527 84.2293 96.3898 85.681 91.7476C86.351 89.6418 87.4996 87.5999 87.4837 85.3825C87.4837 84.872 87.4198 84.3456 87.1487 83.8989C86.8934 83.4522 86.4148 83.1012 85.9043 83.1172C84.2293 83.165 82.5543 83.2289 80.8792 83.2927C79.5552 83.3405 77.928 83.5479 76.8911 82.5429C76.3806 82.0484 76.0456 81.3943 75.7584 80.7243C75.4234 79.9586 75.1203 79.1609 75.0725 78.3314C74.8332 79.4321 74.4822 80.5169 74.0196 81.5379C73.9079 81.7772 73.7803 82.0324 73.5729 82.1919C73.3496 82.3515 73.0784 82.3993 72.8072 82.4153C71.8022 82.495 70.7812 82.3036 69.8081 82.0643C69.4731 81.9845 68.0533 81.5698 67.6544 81.4422C66.0751 80.9795 64.6394 80.0224 63.6025 78.7142C62.3422 77.119 62.6293 75.0132 62.8367 73.1148C63.5706 73.051 64.3363 73.067 65.0701 73.1308C67.2716 73.3063 69.4252 73.8806 71.6107 74.1358C72.2967 74.2156 72.9986 74.2634 73.6846 74.2794C73.9398 74.2794 74.1951 74.3113 74.4503 74.2794C78.9649 74.3592 83.5274 73.5456 88.0261 74.088C88.9354 74.1996 89.8766 74.3751 90.7061 74.758C90.738 75.0611 90.754 75.3801 90.738 75.7311C90.4828 80.8679 89.5256 85.6856 88.3451 90.6469C87.8346 92.8164 86.6701 94.5872 86.4627 96.8365C86.4467 96.9163 86.4467 96.996 86.4308 97.0758V97.1077Z" fill="#B0B0B0"/>
</g>
<path d="M92.5275 29.5959C92.3041 29.213 92.017 28.8621 91.7298 28.5749C91.1236 27.9687 90.3739 27.522 89.6241 27.0913C85.4604 24.6825 80.9777 22.0662 76.0324 22.5607C73.7192 22.7841 71.3742 23.7891 69.1408 24.4432C68.0082 24.7782 67.1786 25.0813 66.3491 25.9587C65.6791 26.6925 65.1526 27.5699 64.7698 28.4792C62.4407 33.9669 62.8235 40.1725 63.1745 46.0112C63.334 48.5956 63.5255 51.164 63.6052 53.7483C63.6371 54.8171 63.5095 55.8221 63.6371 56.891C63.7967 58.1672 63.8924 59.4594 63.7807 60.7356C63.6052 62.8413 62.8554 64.8514 62.6162 66.9571C62.4566 68.361 62.4885 69.2862 63.8126 69.9562C67.0031 71.5675 71.0232 72.1418 74.5488 72.2534C78.2498 72.3811 81.9827 71.8546 85.4923 70.6901C85.7635 70.5944 86.0347 70.4986 86.274 70.3391C86.4814 70.2115 86.6409 70.0201 86.8005 69.8446C87.7098 68.8236 88.4914 67.4836 88.9381 66.1914C89.1615 65.5054 89.0817 64.628 89.1296 63.9102C89.1774 63.0647 89.1934 62.2192 89.1296 61.3896C88.9222 59.0127 87.981 56.7155 87.9012 54.3385C87.8214 52.1371 88.4595 49.9675 89.1774 47.9096C89.8953 45.8517 90.1346 43.6183 90.5653 41.4647C91.0439 39.1197 91.5384 36.7746 92.0968 34.4455C92.352 33.3607 92.8465 32.1483 92.9423 31.0635C92.9901 30.569 92.8146 30.0426 92.5275 29.5799V29.5959Z" fill="#E6E6E6"/>
<g style="mix-blend-mode:multiply">
<path d="M75.8535 29.8681C75.8216 29.7564 75.7578 29.6607 75.6462 29.5969C75.5504 29.5331 75.4228 29.5171 75.2952 29.5331C75.024 29.565 74.9442 29.8362 74.9602 30.0595C74.9602 30.2988 75.2154 30.5222 75.4547 30.4903C75.7578 30.4584 75.9174 30.1393 75.8535 29.8841V29.8681Z" fill="#B0B0B0"/>
</g>
<g style="mix-blend-mode:multiply">
<path d="M75.7105 35.8798C75.6786 35.7682 75.6148 35.6724 75.5031 35.6086C75.4074 35.5448 75.2798 35.5289 75.1521 35.5448C74.8809 35.5767 74.8012 35.8479 74.8171 36.0713C74.8171 36.3105 75.0724 36.5339 75.3117 36.502C75.6148 36.4701 75.7743 36.151 75.7105 35.8958V35.8798Z" fill="#B0B0B0"/>
</g>
<g style="mix-blend-mode:multiply">
<path d="M75.7105 43.1259C75.6786 43.0142 75.6148 42.9185 75.5031 42.8547C75.4074 42.7909 75.2798 42.775 75.1521 42.7909C74.8809 42.8228 74.8012 43.094 74.8171 43.3173C74.8171 43.5566 75.0724 43.78 75.3117 43.7481C75.6148 43.7162 75.7743 43.3971 75.7105 43.1419V43.1259Z" fill="#B0B0B0"/>
</g>
<g style="mix-blend-mode:multiply">
<path d="M75.4567 26.4386C75.4567 26.4386 75.2971 26.4386 75.2174 26.4067C74.4357 26.2951 73.7338 25.9441 73.2073 25.3379C72.6011 24.6519 72.2183 23.7905 71.8514 22.9609C71.8514 22.9928 71.7237 23.2481 71.7237 23.2959C71.6918 23.4395 71.7237 23.5671 71.7237 23.7107C71.7078 24.0138 71.5961 24.3169 71.5642 24.636C71.4844 25.29 71.5164 25.96 71.5642 26.6301C71.6121 27.0289 71.6599 27.4277 71.8354 27.7787C72.0587 28.2413 72.4576 28.6082 72.9042 28.8794C73.3509 29.1346 73.8454 29.3101 74.34 29.4696C74.4357 29.5015 74.5633 29.5335 74.6431 29.4696C74.675 29.4377 74.7069 29.3899 74.7228 29.342C74.8824 28.8634 75.0419 28.4008 75.1855 27.9222C75.2652 27.651 75.6002 26.5663 75.6641 26.4546C75.5843 26.4546 75.5205 26.4546 75.4567 26.4546V26.4386Z" fill="#B0B0B0"/>
</g>
<g style="mix-blend-mode:multiply">
<path d="M82.2336 22.0811C82.1698 22.3842 82.106 22.6873 81.9943 22.9745C81.436 24.474 79.8726 25.2079 78.5007 25.8141C77.6871 26.165 76.6821 26.5 75.8047 26.4841C75.8047 27.0265 76.7618 29.1482 76.8416 29.7225C77.9104 29.7863 78.9633 29.4034 79.9364 28.9408C80.5745 28.6536 81.2286 28.3186 81.6912 27.7922C82.122 27.2977 82.3932 26.6755 82.5846 26.0534C82.776 25.4152 83.0313 24.7931 82.9834 24.1231C82.9515 23.7083 82.8558 23.2935 82.7601 22.8947C82.7122 22.6873 82.6165 22.5438 82.5367 22.3523C82.4251 22.113 82.3772 21.8099 82.3293 21.5547C82.3134 21.7302 82.2815 21.9056 82.2496 22.0811H82.2336Z" fill="#B0B0B0"/>
</g>
<path d="M82.5694 24.8436V24.8755C82.3301 25.3222 81.9153 25.6412 81.5165 25.9284C80.9581 26.3432 80.4158 26.7579 79.8255 27.1248C79.3469 27.4279 78.661 27.9384 78.0707 27.9863C77.959 28.0022 77.8633 27.9863 77.7517 27.9863C77.6559 27.9863 77.5762 27.9703 77.4805 27.9384C77.0816 27.8268 76.7147 27.5715 76.4914 27.2046C76.3478 26.9334 76.2521 26.6303 76.0607 26.407C76.0128 26.3591 75.9809 26.3272 75.9171 26.2953C75.8533 26.2794 75.7895 26.2794 75.7257 26.2794C75.4066 26.3272 75.1673 26.5506 74.928 26.7739C74.6409 27.061 74.3537 27.3641 74.0347 27.6353C73.7156 27.8906 73.5401 27.5715 73.3168 27.3322C72.8223 26.8377 72.4394 26.2474 72.3277 25.5615C72.2799 25.2743 72.2799 24.9872 72.2958 24.7C72.2958 24.5565 72.2161 23.0569 72.2161 23.0569L75.614 20.2014C77.0497 19.4516 78.4057 18.5582 79.65 17.5213C79.7776 17.4096 79.9372 17.3139 80.0808 17.2023C80.1765 17.1384 80.2722 17.0587 80.3519 16.9789C80.5753 16.7396 80.687 16.3568 80.8305 16.0537C80.9422 15.8144 81.0539 15.591 81.1815 15.3677C81.4208 14.9051 81.692 14.4424 81.9791 14.0117C82.011 14.3786 82.027 14.7615 82.011 15.1284C82.027 15.2082 82.027 15.272 82.027 15.3517C82.027 16.8194 81.8994 18.303 81.9951 19.7547C82.0748 20.7119 82.2344 21.6531 82.4577 22.5783C82.6491 23.376 82.9682 24.0779 82.5694 24.8596V24.8436Z" fill="#FFDCC4"/>
<path d="M82.5705 24.8405V24.8724C82.2514 25.1436 81.9164 25.4148 81.5814 25.6541C80.369 26.5315 79.0609 27.2494 77.7527 27.9673C77.6251 28.0311 77.4975 28.1108 77.3699 28.1746C77.4018 28.0949 77.4337 27.9992 77.4815 27.9194C78.2792 25.7977 80.1137 24.1067 80.4807 21.8733C80.6561 20.9002 80.5285 19.8792 80.2892 18.9221L80.0818 17.1832L79.9861 16.3377C80.353 15.9708 80.7199 15.6039 81.1826 15.3487L81.374 15.2529C81.5814 15.1572 81.7888 15.1094 82.0121 15.1094C82.0281 15.1891 82.0281 15.2529 82.0281 15.3327C82.0281 16.8004 81.9004 18.284 81.9962 19.7357C82.0759 20.6928 82.2354 21.634 82.4588 22.5593C82.6502 23.3569 82.9693 24.0588 82.5705 24.8405Z" fill="#F0BC96"/>
<path d="M75.4567 26.1652C75.4567 26.1652 75.2971 26.1652 75.2174 26.1333C74.4357 26.0216 73.7338 25.6707 73.2073 25.0645C72.6011 24.3785 72.2183 23.517 71.8514 22.6875C71.8514 22.7194 71.7237 22.9746 71.7237 23.0225C71.6918 23.1661 71.7237 23.2937 71.7237 23.4373C71.7078 23.7404 71.5961 24.0435 71.5642 24.3625C71.4844 25.0166 71.5164 25.6866 71.5642 26.3566C71.6121 26.7554 71.6599 27.1543 71.8354 27.5052C72.0587 27.9678 72.4576 28.3348 72.9042 28.606C73.3509 28.8612 73.8454 29.0367 74.34 29.1962C74.4357 29.2281 74.5633 29.26 74.6431 29.1962C74.675 29.1643 74.7069 29.1164 74.7228 29.0686C74.8824 28.59 75.0419 28.1274 75.1855 27.6488C75.2652 27.3776 75.6002 26.2928 75.6641 26.1811C75.5843 26.1811 75.5205 26.1811 75.4567 26.1811V26.1652Z" fill="#E6E6E6"/>
<path d="M75.2676 74.6636L75.1559 75.1422L74.0711 79.7206C73.6563 81.4595 71.8218 82.4645 70.1467 81.8583C69.1417 81.5073 68.1686 81.0926 67.2274 80.5821C65.329 79.5292 63.6221 77.9818 62.7606 75.9717C61.2451 72.4462 61.9151 67.6923 62.5054 64.0232C62.7925 62.2205 62.984 60.4498 63.1275 58.6631C63.2073 57.658 63.2552 56.653 63.303 55.632C63.3828 53.8772 63.3987 52.1065 63.3987 50.3038C62.9361 42.9975 61.3089 35.2285 63.989 28.1455C64.659 26.3748 65.664 25.1943 67.4986 24.62C68.3281 24.3647 69.1736 24.1892 70.0191 23.9978C70.3222 23.934 72.093 23.7107 72.1249 23.3438C72.1249 23.5033 72.1249 23.6628 72.093 23.8223C72.077 24.2211 72.1408 24.6359 72.093 25.0188C72.0611 25.3219 71.9334 25.609 71.8537 25.9121C71.6782 26.6779 71.5506 27.4436 71.4868 28.2253C71.3432 29.7408 71.407 31.2563 71.6144 32.7718C71.9494 35.3721 72.6832 37.8926 73.4808 40.3972C73.9275 41.801 74.4221 44.1301 74.5656 45.5978C74.6613 46.4273 74.7411 47.2728 74.8209 48.1024L74.9644 57.0199L75.0442 60.9762L75.2676 74.6636Z" fill="#333333"/>
<path d="M72.2499 24.7606C72.2499 24.5373 72.2499 24.3139 72.2818 24.0906C72.3137 23.4844 72.2499 23.3249 71.7075 23.6758C71.2768 23.963 70.878 24.4256 70.543 24.8244C69.8092 25.6699 69.2189 26.643 68.8041 27.6959C69.6496 27.7438 70.4792 28.0947 71.1173 28.6531C71.1811 28.7169 71.2449 28.7807 71.2449 28.8764C71.2449 28.9562 71.1811 29.02 71.1173 29.0519C70.6706 29.3869 70.1601 29.6102 69.6975 29.8974C69.187 30.2005 68.7084 30.5834 68.2936 31.0141C68.0544 31.2693 67.8151 31.5724 67.7832 31.9393C67.7353 32.4339 68.0703 32.8646 68.3734 33.2475C69.2668 34.3322 70.1601 35.4489 70.9258 36.6294C71.5959 37.6664 71.8192 38.8947 72.3297 40.0274C72.6966 40.8569 72.9678 41.7343 73.1911 42.6117C73.4464 43.5529 73.7814 44.4622 73.9569 45.4194C74.1323 46.3287 74.7226 47.1263 74.8183 48.0675C74.4833 45.1003 74.244 42.1012 73.909 39.134C73.7814 38.0652 73.6697 36.9963 73.5102 35.9435C72.904 32.2743 72.1861 28.5095 72.2818 24.7606H72.2499Z" fill="#4D4D4D"/>
<path d="M82.0747 21.7647C82.0109 22.0678 81.9471 22.3709 81.8354 22.6581C81.2771 24.1576 79.7137 24.8915 78.3418 25.4977C77.5282 25.8486 76.5232 26.1836 75.6458 26.1677C75.6458 26.7101 76.6029 28.8318 76.6827 29.4061C77.7515 29.4699 78.8044 29.087 79.7775 28.6244C80.4156 28.3372 81.0697 28.0022 81.5323 27.4758C81.963 26.9813 82.2342 26.3591 82.4257 25.7369C82.6171 25.0988 82.8723 24.4767 82.8245 23.8067C82.7926 23.3919 82.6969 22.9771 82.6011 22.5783C82.5533 22.3709 82.4576 22.2273 82.3778 22.0359C82.2661 21.7966 82.2183 21.4935 82.1704 21.2383C82.1545 21.4138 82.1226 21.5892 82.0906 21.7647H82.0747Z" fill="#E6E6E6"/>
<g style="mix-blend-mode:multiply">
<path d="M81.1522 26.6764C81.0884 26.3733 80.9129 26.0702 80.6257 25.9586C80.4981 25.9107 80.3705 25.8948 80.2429 25.8948C79.8122 25.8629 79.3814 25.831 78.9507 25.9267C78.5997 26.0064 78.2807 26.15 77.9616 26.2936C77.5788 26.4691 77.18 26.6445 76.8449 26.9157C76.8449 26.9157 76.8449 26.9157 76.8449 26.9317C76.813 26.8679 76.7492 26.82 76.7014 26.7881C76.6535 26.7562 76.5897 26.7403 76.5259 26.7243C76.3026 26.6605 76.0314 26.6445 75.8878 26.7881C75.8399 26.6924 75.7442 26.6286 75.6485 26.5807C75.5209 26.501 75.3773 26.4212 75.2497 26.3574C74.9944 26.2138 74.7232 26.0543 74.452 25.9586C74.2606 25.8948 74.0692 25.831 73.8777 25.7831C73.5108 25.7033 73.128 25.6395 72.7451 25.5917C72.2027 25.5438 72.091 26.4531 72.0591 26.7881C71.9794 27.4103 71.9953 28.0324 72.0591 28.6546C72.0751 28.7822 72.0591 29.0694 72.1708 29.1651C72.2665 29.2608 72.4899 29.2289 72.6175 29.2289C73.0163 29.2608 73.3992 29.3565 73.798 29.3086C74.1489 29.2608 74.4839 29.1172 74.787 28.9577C75.0901 28.7982 75.3933 28.6227 75.6644 28.4153C75.6964 28.3834 75.7123 28.3355 75.7283 28.3036C75.808 28.3674 75.9037 28.3993 75.9995 28.4153C76.1749 28.4153 76.3345 28.4472 76.5099 28.4472C76.6057 28.4472 76.7173 28.4472 76.7652 28.3674C76.7652 28.3515 76.7652 28.3196 76.7652 28.3036C76.9566 28.527 77.164 28.6865 77.4033 28.862C77.7223 29.1172 78.1371 29.2289 78.504 29.3884C79.0943 29.6277 79.7005 29.8829 80.3386 29.9468C80.4343 29.9468 80.546 29.9468 80.6417 29.9468C80.8491 29.8829 80.9927 29.6915 81.0565 29.5001C81.2 29.1013 81.1841 28.5748 81.2 28.16C81.2 27.9846 81.2 27.8091 81.2 27.6496C81.2 27.3465 81.1522 27.0274 81.0884 26.7243L81.1522 26.6764Z" fill="#B0B0B0"/>
</g>
<path d="M92.8944 29.7553C92.8466 29.8989 92.7509 30.0106 92.6711 30.1382C92.4797 30.4094 92.2723 30.6806 92.0649 30.9518C91.8894 31.1751 91.9054 31.4942 91.8416 31.7654C90.9004 36.0726 91.0758 40.4436 90.2303 44.687C89.4167 48.755 88.7786 52.9505 89.1296 57.1142C89.1775 57.8321 89.2572 58.534 89.3848 59.2519C90.0389 63.1443 91.1715 66.6061 91.012 70.5942C90.9004 73.5295 90.7568 77.5975 88.5074 79.8149C88.2043 80.1021 87.9012 80.3414 87.5822 80.5328C86.4336 81.2826 85.1255 81.5697 83.7216 81.809C82.0306 82.0961 78.186 83.4362 76.7503 81.9207C76.4632 81.6176 76.3355 81.1868 76.2239 80.7561C76.0324 80.0542 75.8569 79.3523 75.7134 78.6504C75.4741 77.4858 75.2827 76.3213 75.155 75.1408C74.5967 70.4507 74.82 65.6968 74.836 60.9588V57.0185C74.836 54.0513 74.836 51.0841 74.82 48.1009C75.3146 46.4897 75.8091 45.0699 76.7982 43.682C77.7075 42.4218 78.7763 41.2413 79.5101 39.8693C80.1323 38.6888 80.4992 37.4126 80.898 36.1364C81.5999 33.8233 82.3657 31.5261 83.2271 29.2608C83.6578 28.1122 84.1045 26.8998 83.8971 25.6874C83.6738 24.3633 82.6049 23.2466 82.573 21.8906C82.7804 22.0182 82.908 22.2256 83.1154 22.3692C83.3388 22.5287 83.6259 22.6564 83.8812 22.784C85.8912 23.9007 87.8055 25.1131 89.672 26.4371C90.4058 26.9795 91.1556 27.506 91.8894 28.0324C92.1766 28.2398 92.4797 28.4472 92.6871 28.7343C92.703 28.7503 92.703 28.7662 92.719 28.7822C92.9104 29.0693 93.0061 29.4363 92.8944 29.7553Z" fill="#2E2E2E"/>
<g style="mix-blend-mode:multiply">
<path d="M91.0103 70.5965C90.8987 73.5318 90.7551 77.5997 88.5058 79.8171C88.2027 80.1043 87.8996 80.3436 87.5805 80.535C87.8038 78.8759 88.0431 77.2168 88.1548 75.5578C88.4579 71.2186 87.8517 66.7997 86.4 62.6839C86.3043 62.4127 86.2086 62.1415 86.0012 61.9501C85.6981 61.6629 85.2514 61.6151 84.8366 61.5832C81.5823 61.296 78.296 61.1844 75.0417 60.977C74.9779 60.961 74.8981 60.961 74.8343 60.961C71.8511 60.7536 68.8999 60.4665 65.9805 59.8603C64.9596 59.6529 63.8907 59.3657 63.125 58.6638C63.2048 57.6588 63.2526 56.6538 63.3005 55.6328C63.8588 55.6328 64.4331 55.7764 64.9755 55.904C68.2139 56.6697 71.5161 56.9409 74.8343 57.0207H74.9619C78.5194 57.1005 82.1087 56.9569 85.6662 56.925C86.8148 56.909 87.9953 56.925 89.1279 57.1164C89.1758 57.8343 89.2555 58.5362 89.3832 59.2541C90.0372 63.1465 91.1699 66.6083 91.0103 70.5965Z" fill="#B0B0B0"/>
</g>
<g style="mix-blend-mode:multiply">
<path d="M83.9582 30.5527C85.4737 30.1858 87.053 30.1379 88.5845 30.4091C87.7549 27.075 85.5694 23.7569 82.5384 22.1456C82.4586 22.1137 82.7139 22.7837 82.7298 22.8156C82.8575 23.1347 82.9532 23.4538 83.0329 23.7888C83.1765 24.4747 83.2084 25.1926 83.1446 25.9105C83.0329 27.1229 82.682 28.3193 82.2991 29.4679C80.64 34.4771 78.3907 39.2788 76.5561 44.2242C76.3647 44.7506 76.2052 45.3887 75.8861 45.8514C75.7107 46.1066 75.6149 46.4257 75.4873 46.7128C75.3437 47.0319 75.2161 47.335 75.0725 47.654C74.9609 47.9093 74.8492 48.1645 74.8333 48.4357C75.2002 47.7976 77.3857 44.8144 78.0238 43.9051C79.0926 42.3577 80.2572 40.8901 81.5174 39.4862C82.0758 38.8481 82.6501 38.2419 83.2563 37.6357C84.5006 36.3755 85.8566 35.163 87.4359 34.3495C87.3083 32.5149 85.8087 30.8718 83.9901 30.5687L83.9582 30.5527Z" fill="#B0B0B0"/>
</g>
<path d="M84.1329 13.0856C84.1329 13.612 83.9096 14.1065 83.6544 14.5692C83.3832 15.0956 83.0641 15.6061 82.7131 16.1006C82.41 16.5314 82.0272 16.978 81.5007 17.0099C81.3572 17.0099 81.1976 17.0099 81.086 17.1057C80.9903 17.1695 80.9583 17.2971 80.9264 17.4247C80.5595 18.9083 80.0012 20.4238 78.8685 21.4448C78.0071 22.2265 76.9064 22.6572 75.8216 23.072C74.7368 23.4867 73.6041 23.9175 72.4396 23.8377C72.3917 23.8377 72.3279 23.8377 72.2641 23.8217C71.8653 23.7898 71.3708 23.6782 71.0996 23.407C70.7805 23.072 70.605 22.4179 70.3976 21.9872C69.7914 20.711 69.3288 19.4826 69.2172 18.0628C69.1055 16.5952 69.4245 15.1275 69.281 13.6599C69.2012 12.9579 69.0417 12.256 68.9779 11.5541C68.8821 10.5331 68.914 9.1612 69.4086 8.2519C69.7436 7.61379 70.1424 7.00759 70.5891 6.44924C70.8124 6.17804 71.0836 5.9228 71.291 5.65161C71.4027 5.47613 71.4824 5.20493 71.6579 5.09326C73.4925 3.8649 75.8375 3.46608 77.9752 3.99252C78.374 4.08824 78.7569 4.23181 79.0759 4.4711C79.6183 4.91778 79.8098 5.66756 79.9055 6.36948C80.0171 7.11925 80.065 7.86903 80.1288 8.61881C80.2086 9.48026 80.3202 10.3257 80.6074 11.1393C80.7031 11.3946 80.8148 11.6498 81.0381 11.8094C81.6762 12.272 82.6174 11.586 83.3672 11.8413C83.8617 12.0167 84.1329 12.5751 84.1329 13.0856Z" fill="#FFDCC4"/>
<path d="M84.1344 13.0838C84.1344 13.6102 83.9111 14.1047 83.6559 14.5674C83.3847 15.0938 83.0656 15.6043 82.7146 16.0988C82.4115 16.5296 82.0287 16.9762 81.5022 17.0081C81.3587 17.0081 81.1991 17.0081 81.0875 17.1039C80.9918 17.1677 80.9599 17.2953 80.9279 17.4229C80.561 18.9065 80.0027 20.422 78.87 21.443C78.0086 22.2247 76.9079 22.6554 75.8231 23.0702C74.7383 23.4849 73.6057 23.9157 72.4411 23.8359C72.3932 23.8359 72.3294 23.8359 72.2656 23.82C72.9037 23.7083 73.5259 23.5488 74.148 23.3414C75.504 22.8628 76.7962 22.0652 77.6257 20.8847C78.7265 19.3213 78.886 17.2953 78.7265 15.3969C78.5669 13.5145 78.1203 11.6321 78.1681 9.73371C78.1841 8.92012 78.2319 7.97891 77.6098 7.48438L79.9229 8.44154C79.9229 8.44154 80.0665 8.55321 80.1303 8.61702C80.2101 9.47846 80.3217 10.324 80.6089 11.1375C80.7046 11.3928 80.8163 11.648 81.0396 11.8076C81.6777 12.2702 82.6189 11.5842 83.3687 11.8395C83.8632 12.0149 84.1344 12.5733 84.1344 13.0838Z" fill="#F0BC96"/>
<path d="M86.0809 9.5599C85.9532 10.3097 85.8894 11.0276 85.682 11.7614C85.2832 13.1971 84.5813 14.6169 83.4965 15.6698C83.337 15.8134 83.1615 15.9569 82.986 16.1005C82.9222 16.1484 82.6191 16.3239 82.5234 16.4196C82.6351 15.9888 82.7467 15.5581 82.8584 15.1434C82.9382 14.8562 83.002 14.5691 83.0179 14.2819C83.0179 13.9788 82.9382 13.6757 82.7308 13.4683C82.5394 13.245 82.2363 13.1493 81.9332 13.1493C81.646 13.1333 81.3429 13.2131 81.0717 13.3088C80.6888 13.4524 80.29 13.6438 80.1305 14.0107C79.7157 13.7714 79.2691 13.4683 79.0936 13.0057C78.8543 12.4154 78.7586 11.7773 78.6948 11.1392C78.5671 10.0704 78.5193 8.9537 78.0247 7.99654C77.929 7.80511 77.8174 7.62963 77.6897 7.4701C77.1154 6.68842 76.238 6.13007 75.3128 5.87483C74.1801 5.57173 72.9518 5.69935 71.851 6.13007C71.3884 6.30555 70.9417 6.54484 70.5429 6.84794C69.9367 7.32652 69.4741 8.15606 69.2348 8.88989C69.1391 9.2249 68.9796 9.57586 68.9477 9.92682C68.8998 10.3097 68.9477 10.7245 68.9636 11.1073C68.9636 10.8042 68.5648 10.4213 68.501 10.1182C68.4212 9.78324 68.3255 9.44823 68.2617 9.11323C68.1181 8.28369 68.1979 7.43819 68.4372 6.64056C68.7881 5.47601 69.2667 4.32741 70.0005 3.3543C70.7822 2.30142 71.867 1.50378 73.0794 1.0252C73.9408 0.690196 74.7863 0.403047 75.7116 0.339236C77.1314 0.227567 78.4076 0.163757 79.7955 0.610433C81.1036 1.00925 82.316 1.72712 83.3051 2.68428C83.337 2.71619 83.3849 2.7481 83.4168 2.76405C83.672 2.97143 83.9592 3.00334 84.2463 3.16287C84.8525 3.49787 85.4268 4.12003 85.8097 4.806C85.9852 5.09314 86.1128 5.4122 86.1766 5.69935C86.4637 6.91175 86.2882 8.36345 86.0809 9.5599Z" fill="#805B4D"/>
<path d="M86.0813 9.56148C85.9537 10.3113 85.8899 11.0291 85.6825 11.763C85.2837 13.1987 84.5818 14.6185 83.497 15.6714C83.3374 15.8149 83.162 15.9585 82.9865 16.1021C82.9227 16.15 82.6196 16.3254 82.5239 16.4211C82.6355 15.9904 82.7472 15.5597 82.8589 15.1449C82.9386 14.8578 83.0024 14.5706 83.0184 14.2835C83.0184 13.9804 82.9386 13.6773 82.7312 13.4699C82.5398 13.2466 82.2367 13.1508 81.9336 13.1508C81.6465 13.1349 81.3434 13.2147 81.0722 13.3104C80.6893 13.4539 80.2905 13.6454 80.1309 14.0123C79.7162 13.773 79.2695 13.4699 79.094 13.0073C78.8547 12.417 78.759 11.7789 78.6952 11.1408C78.5676 10.072 78.5197 8.95528 78.0252 7.99811C77.9295 7.80668 77.8178 7.6312 77.6902 7.47167L77.7221 7.39191C79.0462 7.64715 80.45 7.12071 81.4391 6.21141C82.4441 5.31806 83.0662 4.07375 83.4172 2.76562C83.6725 2.97301 83.9596 3.00492 84.2467 3.16444C84.8529 3.49945 85.4272 4.12161 85.8101 4.80757C85.9856 5.09472 86.1132 5.41377 86.177 5.70092C86.4642 6.91333 86.2887 8.36503 86.0813 9.56148Z" fill="#664133"/>
<path d="M76.6514 54.2263C76.2525 55.8854 76.0133 57.5764 75.9175 59.2833C75.9175 59.1876 75.6623 59.0759 75.3113 58.9643C74.5616 58.7569 73.3492 58.5814 73.1577 58.5654C72.1687 58.5016 71.1477 58.5973 70.1427 58.5654C67.0478 58.4378 63.953 57.7997 61.0656 56.699C60.7784 56.5873 60.4594 56.3959 60.5072 56.0928C60.5551 55.7897 60.9698 55.7259 61.273 55.7418C60.9858 55.5185 60.6189 55.4228 60.2679 55.327C59.901 55.2313 59.5341 55.1197 59.2948 54.8644C58.7365 54.2742 59.1672 54.1306 59.4543 53.8434C59.4543 53.8434 59.566 53.6999 59.5979 53.6041C59.3586 53.5244 59.1034 53.4287 58.9279 53.2691C58.1303 52.5353 59.2948 52.4715 59.7893 52.4396C60.5551 52.3598 61.3527 52.3439 62.1025 52.5513C62.7087 52.7108 63.3787 53.0139 63.9211 52.6948C62.9161 52.1046 61.6558 52.1844 60.587 51.7217C60.2679 51.5941 59.9329 51.2431 60.1403 50.9879C60.236 50.8603 60.3956 50.8284 60.5391 50.8124C61.7994 50.621 63.1075 50.6689 64.3518 50.956C64.6709 51.0198 65.1335 51.0198 65.1814 50.6848C65.1973 50.4774 64.974 50.286 65.0059 50.0626C65.0218 49.8872 65.2133 49.7755 65.4047 49.7755C65.5802 49.7595 65.7557 49.8393 65.9152 49.9031C67.4786 50.4615 69.3769 49.9669 70.7808 50.8603C71.1477 51.1155 71.4667 51.4346 71.7858 51.7696C72.3441 52.3598 72.7589 53.1256 73.4768 53.5244L73.5725 53.5722C74.5297 54.0349 75.5985 54.2742 76.6514 54.2263Z" fill="#FFDCC4"/>
<path d="M75.5028 58.4541C75.5187 58.6455 75.423 58.821 75.3113 58.9646C74.5616 58.7572 73.3491 58.5817 73.1577 58.5658C72.1686 58.5019 71.1477 58.5977 70.1426 58.5658C67.0478 58.4381 63.953 57.8 61.0656 56.6993C60.7784 56.5876 60.4594 56.3962 60.5072 56.0931C60.5551 55.79 60.9698 55.7262 61.2729 55.7421C60.9858 55.5188 60.6189 55.4231 60.2679 55.3274C59.901 55.2316 59.5341 55.12 59.2948 54.8647C58.7365 54.2745 59.1672 54.1309 59.4543 53.8438C59.3905 54.099 59.582 54.3861 59.8212 54.5297C60.1084 54.6733 60.4275 54.7052 60.7306 54.785C61.2091 54.9445 61.6239 55.2476 62.0546 55.5028C63.6499 56.444 65.5483 56.6833 67.3828 56.8907C69.7119 57.1619 72.041 57.4331 74.3542 57.7043C74.6094 57.7362 74.8647 57.7681 75.088 57.8798C75.3113 57.9915 75.5028 58.2148 75.5028 58.4541Z" fill="#F0BC96"/>
<path d="M94.7428 58.9028C94.7428 58.9028 94.7109 58.9347 94.695 58.9507C94.6152 59.158 94.4716 59.3176 94.2483 59.4611C93.9452 59.6526 93.5942 59.7164 93.2273 59.7642C88.6489 60.3864 83.9907 60.0514 79.3644 59.7164C77.8808 59.6047 76.4291 59.3335 74.9615 59.174C74.6583 59.1261 74.3393 59.0942 74.0202 59.0783C73.9086 59.0623 73.7969 59.0623 73.7012 59.0145C73.5895 58.9507 73.5257 58.839 73.4619 58.7433C73.2864 58.4561 73.1428 58.1371 73.0471 57.818C72.6802 56.5418 72.9195 55.0741 73.749 54.0372C73.8288 53.9575 73.9086 53.8617 74.0043 53.8139C74.1 53.766 74.1957 53.7501 74.2914 53.7341C74.8338 53.6544 75.3603 53.6544 75.8867 53.6863C77.3225 53.7501 78.7582 54.0691 80.2099 54.117C82.2199 54.1967 84.2459 54.1489 86.2081 53.6863C87.0058 53.4948 87.8034 53.2396 88.617 53.0801C88.7446 53.0482 88.8722 53.0163 88.9998 53.0003C89.941 52.8248 90.9461 52.8089 91.8394 53.1598C92.5732 53.4629 93.0997 53.9894 93.4666 54.6753C93.6102 54.9306 93.7697 55.1699 93.9292 55.4092C93.9292 55.4251 93.9452 55.4251 93.9452 55.4411C94.0888 55.6804 94.2323 55.9356 94.344 56.2227C94.6311 56.9566 95.1097 58.1052 94.7428 58.9028Z" fill="#4D4D4D"/>
<path d="M96.0496 55.6151C95.89 56.4447 95.555 57.2104 95.236 57.9761C95.0924 58.2952 94.9488 58.6302 94.7414 58.9014C94.7095 58.9173 94.7095 58.9333 94.6936 58.9492C94.55 59.1088 94.3905 59.2523 94.1831 59.3321C93.2898 59.699 92.3964 58.8695 91.8221 58.1037C91.6307 57.8485 91.4711 57.5932 91.3116 57.3221C91.0404 56.8754 90.7852 56.4127 90.498 55.998C90.0673 55.3918 89.3654 55.0887 88.8389 54.5941C88.6475 54.4027 88.472 54.1634 88.4401 53.8763C88.4242 53.6529 88.5039 53.4136 88.5837 53.1903C88.5997 53.1584 88.5997 53.1105 88.6156 53.0786C88.9347 51.9141 88.6475 50.6857 88.7432 49.5052C88.8389 48.1652 88.5518 46.7614 88.4082 45.4373C88.2168 43.507 88.153 41.5608 88.2168 39.6305C88.2487 38.6574 88.3285 37.7002 88.4242 36.7431C88.5199 35.8178 88.3763 35.3073 88.2487 34.414C88.1051 33.3132 88.137 32.053 88.5677 30.9682C88.9666 29.9951 89.3654 28.7188 90.4821 28.4157C91.3116 28.1924 92.205 28.4157 92.9228 28.8624C93.1143 28.9741 93.2898 29.1017 93.4652 29.2453C93.864 29.5803 94.215 30.011 94.4543 30.4736C95.2519 31.9094 95.1562 33.6642 95.1403 35.3073C95.1084 37.445 95.4115 39.5348 95.6348 41.6246C95.7146 42.4382 95.7943 43.2358 95.8262 44.0494C95.9698 47.0485 96.1134 50.0476 96.1772 53.0627C96.1772 53.9082 96.2091 54.7856 96.0496 55.6151Z" fill="#4D4D4D"/>
<g style="mix-blend-mode:multiply">
<path d="M96.0534 55.6163C95.8938 56.4458 95.5588 57.2115 95.2398 57.9773C95.0962 58.2963 94.9526 58.6313 94.7452 58.9025C94.7133 58.9185 94.7133 58.9344 94.6974 58.9504C94.6176 59.1578 94.474 59.3173 94.2507 59.4609C93.9476 59.6523 93.5966 59.7161 93.2297 59.764C88.6513 60.3861 83.9931 60.0511 79.3668 59.7161C77.8832 59.6044 76.4315 59.3332 74.9639 59.1737C74.6608 59.1259 74.3417 59.0939 74.0227 59.078C73.911 59.062 73.7993 59.062 73.7036 59.0142C73.592 58.9504 73.5281 58.8387 73.4643 58.743C73.2888 58.4558 73.1453 58.1368 73.0496 57.8177L77.5004 57.8656C79.4147 57.8975 81.345 57.9134 83.2752 57.9453C84.0729 57.9453 90.2944 57.4987 91.3473 57.3232C92.2247 57.1796 93.5328 56.6691 92.9266 55.5684C92.4002 54.6272 91.5228 53.8615 90.5018 53.4786C89.9594 53.2712 89.3851 53.1595 88.8587 52.9202C89.1458 52.7767 89.5128 52.8724 89.8159 52.9521C90.1509 53.0479 90.5018 53.1595 90.8368 53.2553C91.4909 53.4467 92.1769 53.6381 92.8469 53.5584C93.3733 53.4945 94.0912 53.1755 94.2826 52.649C94.49 52.0748 94.3783 51.1495 94.3943 50.5273C94.4102 49.5223 94.3943 48.5173 94.3464 47.5123C94.2188 44.3855 94.0593 41.2588 93.8998 38.1321C93.7402 35.1649 93.5647 32.1977 93.469 29.2305C93.8678 29.5655 94.2188 29.9962 94.4581 30.4588C95.2557 31.8946 95.16 33.6494 95.1441 35.2925C95.1122 37.4302 95.4153 39.52 95.6386 41.6098C95.7184 42.4234 95.7981 43.221 95.83 44.0346C95.9736 47.0337 96.1172 50.0328 96.181 53.0479C96.181 53.8934 96.2129 54.7708 96.0534 55.6003V55.6163Z" fill="#B0B0B0"/>
</g>
<path d="M75.8371 53.7661C74.8162 55.3773 74.4971 57.4511 74.9916 59.3016C74.6726 59.2538 74.3376 59.2219 74.0026 59.2059C73.8909 59.19 73.7633 59.19 73.6676 59.1421C73.5559 59.0783 73.4921 58.9666 73.4123 58.855C72.503 57.3554 72.6306 55.3135 73.7154 53.9415C73.7952 53.8618 73.8749 53.7661 73.9866 53.7022C74.0823 53.6544 74.194 53.6384 74.2897 53.6225C74.8481 53.5427 75.4064 53.5427 75.9488 53.5746C75.9169 53.6384 75.885 53.7022 75.8371 53.782V53.7661Z" fill="#E6E6E6"/>
<path d="M57.1105 48.3871L56.6798 48.738C56.2331 48.5785 55.8503 48.2754 55.5791 47.8766C55.8343 48.2594 56.1055 48.6742 56.1215 49.1368C56.1374 49.5835 55.7705 50.094 55.3079 50.0461C55.4514 50.2376 55.4674 50.5247 55.3238 50.7161C55.1962 50.9235 54.941 51.0352 54.7017 50.9873C54.59 51.2426 54.9091 51.4659 55.0526 51.7052C55.2441 51.9764 55.1643 52.3752 54.941 52.6145C54.7336 52.8698 54.3986 52.9814 54.0636 53.0133C54.255 53.2526 54.0476 53.6514 53.7445 53.7153C53.4414 53.795 53.1383 53.6514 52.899 53.46C52.6916 53.3164 52.3407 53.0771 52.245 52.806C52.1811 52.6783 52.1971 52.5507 52.2928 52.4231C52.3247 52.3912 52.3566 52.3593 52.3726 52.3114C52.3885 52.2795 52.3726 52.2476 52.3566 52.1998C52.2609 51.8328 52.1652 51.45 52.0695 51.0831C51.9259 50.5407 52.229 50.5247 52.5002 50.1897C52.245 49.8866 51.9419 49.5995 51.9738 49.1368C52.0057 48.6902 52.3566 48.2754 52.7873 48.1637C52.6916 47.5735 53.0745 46.9513 53.6488 46.7599C53.8562 46.6961 54.0955 46.6801 54.3029 46.5684C54.7495 46.3292 54.8293 45.7389 54.941 45.2444C55.0686 44.7658 55.4355 44.2074 55.93 44.3191C56.2012 44.367 56.3767 44.6222 56.4724 44.8615C56.5681 45.1167 56.6 45.3879 56.6639 45.6591C56.7436 45.9782 56.9191 46.2653 57.0627 46.5684C57.1424 46.712 57.2062 46.8556 57.2541 46.9992C57.4296 47.4618 57.4615 48.0361 57.1105 48.3871Z" fill="#FFDCC4"/>
<path d="M57.1104 48.3889L56.6797 48.7399C56.233 48.5804 55.8502 48.2773 55.579 47.8784C55.8342 48.2613 56.1054 48.6761 56.1214 49.1387C56.1373 49.5854 55.7704 50.0959 55.3078 50.048C55.4514 50.2394 55.4673 50.5266 55.3237 50.718C55.1961 50.9254 54.9409 51.0371 54.7016 50.9892C54.5899 51.2445 54.909 51.4678 55.0525 51.7071C55.244 51.9783 55.1642 52.3771 54.9409 52.6164C54.7335 52.8716 54.3985 52.9833 54.0635 53.0152C54.2549 53.2545 54.0475 53.6533 53.7444 53.7171C53.4413 53.7969 53.1382 53.6533 52.8989 53.4619C52.6915 53.3183 52.3406 53.079 52.2449 52.8078L52.4523 52.6802C52.8192 52.9195 53.3775 52.6642 53.4573 52.2335C53.4732 52.1857 53.4732 52.1378 53.5051 52.1059C53.553 52.0421 53.6328 52.058 53.6966 52.0421C53.9997 52.0102 54.2071 51.723 54.2709 51.4359C54.3506 51.1487 54.3028 50.8456 54.3028 50.5585C54.3028 50.5106 54.3028 50.4628 54.3347 50.4309C54.3506 50.383 54.3985 50.3511 54.4463 50.3352C54.909 50.0001 55.1802 49.4099 55.1164 48.8515C55.2599 48.8515 55.3716 48.7399 55.4195 48.6282C55.4514 48.5006 55.4514 48.373 55.4514 48.2453C55.4514 48.1018 55.4514 47.9582 55.4354 47.8146C55.4354 47.7508 55.4354 47.687 55.4673 47.6232C55.5152 47.5115 55.6428 47.4637 55.7704 47.4637C55.8821 47.4637 56.0097 47.5115 56.1373 47.5115C56.4404 47.4956 56.7116 47.2722 56.8712 47.001C56.9509 46.8734 57.0147 46.7139 57.0626 46.5703C57.1424 46.7139 57.2062 46.8575 57.254 47.001C57.4295 47.4637 57.4614 48.038 57.1104 48.3889Z" fill="#F0BC96"/>
<path d="M83.703 30.0918C85.2185 29.7249 86.7978 29.677 88.3292 29.9482C87.4997 26.6141 85.3142 23.2959 82.2832 21.6847C82.2034 21.6528 82.4586 22.3228 82.4746 22.3547C82.6022 22.6738 82.6979 22.9928 82.7777 23.3278C82.9213 24.0138 82.9532 24.7317 82.8894 25.4495C82.7777 26.6619 82.4267 27.8584 82.0439 29.007C80.3848 34.0161 78.1355 38.8179 76.3009 43.7632C75.934 44.7683 75.5352 45.7095 75.248 46.7464C75.1044 47.2409 74.9768 47.7355 74.8333 48.23C77.0028 44.178 79.7467 40.4451 82.9851 37.1748C84.2294 35.9145 85.5854 34.7021 87.1647 33.8885C87.0371 32.054 85.5375 30.4108 83.7189 30.1077L83.703 30.0918Z" fill="#4D4D4D"/>
<path d="M80.9768 27.3951C80.9768 27.092 80.9289 26.7729 80.8651 26.4698C80.8013 26.1667 80.6258 25.8636 80.3387 25.752C80.2111 25.7041 80.0835 25.6882 79.9558 25.6882C79.5251 25.6562 79.0944 25.6243 78.6637 25.7201C78.3127 25.7998 77.9936 25.9434 77.6746 26.087C77.2917 26.2625 76.8929 26.4379 76.5579 26.7091L76.2708 27.5387C76.3984 27.7142 76.3824 27.9215 76.526 28.097C76.7174 28.3204 76.9248 28.4799 77.1641 28.6554C77.4832 28.9106 77.8979 29.0223 78.2648 29.1818C78.8551 29.4211 79.4613 29.6763 80.0994 29.7401C80.1951 29.7401 80.3068 29.7401 80.4025 29.7401C80.6099 29.6763 80.7535 29.4849 80.8173 29.2935C80.9609 28.8947 80.9449 28.3682 80.9609 27.9534C80.9609 27.778 80.9609 27.6025 80.9609 27.443L80.9768 27.3951Z" fill="#4D4D4D"/>
<path d="M75.7131 27.411L75.6014 26.5495C75.5536 26.4697 75.4578 26.4059 75.3621 26.3581C75.2345 26.2783 75.0909 26.1985 74.9633 26.1347C74.7081 25.9912 74.4369 25.8316 74.1657 25.7359C73.9742 25.6721 73.7828 25.6083 73.5914 25.5604C73.2245 25.4807 72.8416 25.4169 72.4587 25.369C71.9163 25.3211 71.8047 26.2305 71.7728 26.5655C71.693 27.1876 71.7089 27.8098 71.7728 28.4319C71.7887 28.5595 71.7728 28.8467 71.8844 28.9424C71.9801 29.0381 72.2035 29.0062 72.3311 29.0062C72.7299 29.0381 73.1128 29.1338 73.5116 29.086C73.8626 29.0381 74.1976 28.8946 74.5007 28.735C74.8038 28.5755 75.1069 28.4 75.3781 28.1926C75.5855 28.0331 75.6174 27.6662 75.6971 27.4269C75.6971 27.411 75.6971 27.379 75.6971 27.395L75.7131 27.411Z" fill="#4D4D4D"/>
<path d="M76.2374 26.5C75.9981 26.4362 75.6631 26.4043 75.5355 26.5798C75.3441 26.8829 75.3441 27.2498 75.3281 27.5848C75.3281 27.7283 75.3281 27.8719 75.3919 28.0155C75.4398 28.1431 75.5993 28.175 75.7269 28.191C75.9024 28.191 76.062 28.2229 76.2374 28.2229C76.3332 28.2229 76.4448 28.2229 76.4927 28.1431C76.5246 28.0953 76.5246 28.0474 76.5246 27.9995C76.5405 27.7443 76.5724 27.4891 76.5884 27.2338C76.5884 27.0583 76.6363 26.8829 76.5405 26.7233C76.5086 26.6595 76.4448 26.6117 76.381 26.5798C76.3331 26.5478 76.2693 26.5319 76.2055 26.5159L76.2374 26.5Z" fill="#333333"/>
<path d="M76.0944 27.8259C76.0944 27.8259 76.0785 27.762 76.0625 27.7461C76.0625 27.778 76.0785 27.794 76.0944 27.8259Z" fill="#2C3033"/>
<path d="M75.791 29.7704C75.7591 29.6588 75.6953 29.5631 75.5837 29.4993C75.4879 29.4354 75.3603 29.4195 75.2327 29.4354C74.9615 29.4673 74.8817 29.7385 74.8977 29.9619C74.8977 30.2012 75.1529 30.4245 75.3922 30.3926C75.6953 30.3607 75.8549 30.0416 75.791 29.7864V29.7704Z" fill="#373C40"/>
<path d="M75.648 35.7704C75.6161 35.6588 75.5523 35.5631 75.4406 35.4993C75.3449 35.4354 75.2173 35.4195 75.0896 35.4354C74.8184 35.4673 74.7387 35.7385 74.7546 35.9619C74.7546 36.2012 75.0099 36.4245 75.2492 36.3926C75.5523 36.3607 75.7118 36.0416 75.648 35.7864V35.7704Z" fill="#373C40"/>
<path d="M75.648 43.0283C75.6161 42.9166 75.5523 42.8209 75.4406 42.7571C75.3449 42.6933 75.2173 42.6773 75.0896 42.6933C74.8184 42.7252 74.7387 42.9964 74.7546 43.2197C74.7546 43.459 75.0099 43.6823 75.2492 43.6504C75.5523 43.6185 75.7118 43.2995 75.648 43.0442V43.0283Z" fill="#373C40"/>
<path d="M41.6846 26.1359C41.6846 27.2366 41.8601 28.3373 41.7804 29.4381C41.7165 30.5867 41.2539 31.7034 40.6796 32.6765C40.2808 33.3465 39.7384 33.9048 39.0684 34.3356C38.9727 34.3994 38.861 34.4472 38.7972 34.5429C38.7493 34.6387 38.7174 34.7344 38.7015 34.8301C38.4622 35.8192 38.4143 36.9518 37.9996 37.8771C37.7603 38.4035 37.2179 38.7704 36.6914 38.9778C36.6276 39.0097 36.5479 39.0416 36.4841 39.0576C35.6226 39.3447 34.7133 39.4245 33.804 39.4883C32.2406 39.6 30.6613 39.6797 29.1299 39.4404C28.3801 39.3128 27.6463 39.1214 27.0081 38.7226C26.9124 38.6587 26.8008 38.5949 26.7529 38.4673C26.6891 38.3397 26.721 38.1961 26.7529 38.0525C27.2953 35.6437 28.2365 33.2029 27.7739 30.7781C27.726 30.5548 27.6782 30.3314 27.7739 30.124C27.8217 29.9805 27.9175 29.8688 28.0291 29.7731C29.3851 28.3214 30.8847 27.0292 32.3842 25.753C34.8409 23.6313 37.3934 21.4936 40.4722 20.4727L42.1792 22.2115L42.3068 22.3391C41.892 23.5515 41.6846 24.8437 41.7006 26.1359H41.6846Z" fill="#FFDCC4"/>
<path d="M41.6849 26.1353C41.6849 27.236 41.8604 28.3368 41.7806 29.4375C41.7168 30.5861 41.2542 31.7028 40.6799 32.6759C40.2811 33.3459 39.7387 33.9043 39.0686 34.335C38.9729 34.3988 38.8613 34.4467 38.7974 34.5424C38.7496 34.6381 38.7177 34.7338 38.7017 34.8295C38.4624 35.8186 38.4146 36.9512 37.9998 37.8765C37.7605 38.4029 37.2181 38.7699 36.6917 38.9772C36.6598 38.7699 36.6438 38.5465 36.6279 38.3391C36.5003 36.5684 36.3886 34.7179 37.1065 33.1066C37.4734 32.309 38.0158 31.639 38.4624 30.8892C39.4196 29.2939 39.9141 27.4115 39.8822 25.5451L40.1534 22.8331C40.7756 22.514 41.4615 22.2907 42.1635 22.2109L42.2911 22.3386C41.8763 23.551 41.6689 24.8431 41.6849 26.1353Z" fill="#F0BC96"/>
<path d="M43.0066 19.9925C42.9747 21.6994 42.6876 23.5659 41.4273 24.6985L41.3635 24.7623C40.6775 25.3526 39.8161 25.6876 39.0184 26.1343C38.7472 26.2938 38.492 26.4533 38.2527 26.6448C37.7103 27.0914 37.2955 27.6817 36.9127 28.256C36.4341 28.9579 35.9874 29.6598 35.5726 30.3936C35.3174 30.8563 35.0622 31.3189 34.7431 31.7496C34.0252 32.6908 32.9085 33.3449 31.728 33.5044C30.5475 33.6799 29.3032 33.3449 28.3461 32.627L26.2722 30.5213C25.6979 29.947 25.2832 28.9898 24.9162 28.256C24.5174 27.4424 24.1984 26.5969 23.9431 25.7354C23.7517 25.0814 23.6081 24.4433 23.5284 23.7892C23.3529 22.6566 23.305 21.5239 23.2891 20.3594C23.2891 19.5937 23.4964 18.7641 23.7676 18.0303C24.1505 16.9455 24.8524 15.9564 25.8255 15.3343C26.8306 14.6802 28.0749 14.4888 29.1278 13.8826C29.6861 13.5795 30.1647 13.1488 30.723 12.8457C33.0521 11.5216 37.1839 12.0002 39.6565 12.8138C41.1082 13.2923 41.9697 14.6005 42.4642 16.0841C42.6557 16.6584 42.7833 17.2646 42.863 17.8389C42.9588 18.4291 42.9907 19.0034 42.9907 19.5298C42.9907 19.6894 42.9907 19.8489 42.9907 19.9925H43.0066Z" fill="#4D4D4D"/>
<path d="M43.0068 19.9935C42.9749 21.7004 42.6878 23.5669 41.4275 24.6995L41.3637 24.7633C40.7256 25.3855 39.8163 25.7045 39.0186 26.1353C38.7475 26.2948 38.4922 26.4543 38.2529 26.6457C37.7105 27.0924 37.2958 27.6827 36.9129 28.257C36.4343 28.9589 35.9876 29.6608 35.5729 30.3946C35.3176 30.8573 35.0624 31.3199 34.7433 31.7506C34.0254 32.6918 32.9088 33.3459 31.7283 33.5054C30.5478 33.6809 29.3034 33.3459 28.3463 32.628L26.2724 30.5222C25.6981 29.9479 25.2834 28.9908 24.9165 28.257C24.5176 27.4434 24.1986 26.5979 23.9433 25.7364C23.7519 25.0824 23.6083 24.4443 23.5286 23.7902C23.9114 24.3326 24.3581 24.8431 24.9165 25.1621C26.3203 25.9279 28.0432 26.1831 29.6065 26.1193C33.6266 25.9279 37.4872 24.3805 40.2311 21.4133C41.2361 20.3125 42.0975 19.1001 42.8633 17.8398C42.959 18.4301 42.9909 19.0044 42.9909 19.5308C42.9909 19.6904 42.9909 19.8499 42.9909 19.9935H43.0068Z" fill="#333333"/>
<path d="M36.8043 137.132C36.7565 137.355 36.6767 137.562 36.581 137.77C36.0386 138.87 34.9857 139.652 33.9009 140.226C32.529 140.976 31.0135 141.487 29.4661 141.774C28.3175 141.981 26.7382 141.87 25.8448 142.779C25.6693 142.938 25.5417 143.146 25.3503 143.289C24.9834 143.561 24.5048 143.561 24.0581 143.561C22.3193 143.545 20.9633 143.433 21.1069 141.375C21.1866 140.131 21.5535 138.775 22.0959 137.642C22.2236 137.355 22.399 137.116 22.5905 136.876C22.9414 136.462 23.3881 136.111 23.8348 135.792C24.7919 135.074 26.0044 133.973 27.2965 134.26C27.9825 134.404 28.3334 134.691 29.0832 134.643C29.9287 134.595 30.7902 134.436 31.6197 134.244C32.3854 134.069 33.1193 133.845 33.9009 133.782C34.6667 133.734 35.4803 133.893 36.0865 134.388C36.23 134.515 36.3577 134.659 36.4693 134.818C36.916 135.473 37.0117 136.35 36.8043 137.132Z" fill="#4D4D4D"/>
<g style="mix-blend-mode:multiply">
<path d="M36.8043 137.135C36.7565 137.358 36.6767 137.566 36.581 137.773C36.0386 138.874 34.9857 139.655 33.9009 140.23C32.529 140.979 31.0135 141.49 29.4661 141.777C28.3175 141.984 26.7382 141.873 25.8448 142.782C25.6693 142.942 25.5417 143.149 25.3503 143.293C24.9834 143.564 24.5048 143.564 24.0581 143.564C22.3193 143.548 20.9633 143.436 21.1069 141.378C21.1866 140.134 21.5535 138.778 22.0959 137.645C22.2236 137.358 22.399 137.119 22.5905 136.88C22.7979 136.864 23.0212 136.848 23.2286 136.848C23.5795 136.848 23.9305 136.88 24.2336 137.055C25.5098 137.853 24.1857 139.56 25.781 140.182C27.2806 140.772 28.8439 140.23 30.2478 139.671L36.8043 137.135Z" fill="#B0B0B0"/>
</g>
<path d="M20.4368 77.6133L18.5703 79.049C18.8256 80.3731 19.0968 81.7131 19.2084 83.0532C19.3041 84.1539 19.3201 85.2706 19.5115 86.3554C19.703 87.4402 20.1018 88.5409 20.8835 89.3385C20.9792 87.7911 21.2504 86.2437 21.6811 84.7441C22.0001 83.6115 22.4309 82.4629 22.3032 81.2824C22.1597 79.9105 21.2823 78.73 20.4527 77.6292L20.4368 77.6133Z" fill="#FFDCC4"/>
<path d="M33.9644 91.8284C33.9644 92.1793 33.9644 92.5462 33.9325 92.8972C33.9006 93.2481 33.9006 93.5991 33.8687 93.9341C33.7889 95.0827 33.6454 96.2313 33.5177 97.3799C33.4539 97.9382 33.3742 98.4806 33.3104 99.039C33.0232 101.32 32.752 103.601 32.4808 105.883C32.1937 108.228 31.6832 110.557 31.2844 112.886C31.0451 114.226 30.7898 115.566 30.5346 116.906C30.04 119.586 29.5296 122.25 29.1307 124.946C28.5086 129.19 29.0669 133.226 28.0938 137.389C28.03 137.645 27.9662 137.916 27.8067 138.123C27.679 138.315 27.4876 138.442 27.2962 138.554C27.1047 138.666 26.9133 138.777 26.7059 138.873C25.2383 139.575 23.4516 139.75 22.1116 138.889C21.9361 138.761 21.7606 138.634 21.6649 138.458C21.6011 138.331 21.5692 138.171 21.5373 138.043C21.282 136.735 20.8991 135.475 20.6279 134.199C20.3568 132.97 20.2451 131.662 20.1334 130.418C19.926 128.041 19.7984 125.552 19.926 123.175C20.0856 120.32 20.6439 117.512 21.3777 114.768C22.5263 110.429 22.3987 106.042 22.2073 101.56C22.1275 100.044 22.0637 98.5125 21.8244 96.997C21.5532 95.2422 21.0427 93.5353 20.8513 91.7645C20.7396 90.7276 20.6918 89.3238 20.8513 87.9199C21.0906 85.7344 21.7925 83.517 23.3878 82.5758C24.6161 81.8579 26.1795 81.8898 27.5195 82.3844C28.7479 82.847 29.8167 83.6606 30.7739 84.5699C30.8536 84.6337 30.9334 84.7135 31.0132 84.7932C31.8587 85.6068 32.6722 86.4842 33.1827 87.553C33.8208 88.8612 33.9644 90.3607 33.9644 91.8284Z" fill="#595959"/>
<g style="mix-blend-mode:multiply">
<path d="M33.8659 93.9336C33.7862 95.0822 33.6426 96.2308 33.515 97.3794C33.4512 97.9377 33.3714 98.4801 33.3076 99.0385C33.0204 101.32 32.7492 103.601 32.478 105.882C32.1909 108.227 31.6804 110.556 31.2816 112.885C31.0423 114.225 30.7871 115.565 30.5318 116.906C30.0373 119.586 29.5268 122.25 29.128 124.946C28.5058 129.189 29.0642 133.225 28.091 137.389C28.0272 137.644 27.9634 137.915 27.8039 138.123C27.6763 138.314 27.4848 138.442 27.2934 138.553C27.102 138.665 26.9105 138.777 26.7032 138.872C26.5436 130.338 27.3094 121.787 28.7611 113.38C29.5746 108.61 30.6275 103.856 30.819 99.0225C30.8828 97.3315 30.819 95.6405 30.6913 93.9495H33.8659V93.9336Z" fill="#B0B0B0"/>
</g>
<path d="M47.3487 140.644C47.3487 141.187 47.253 141.729 47.0137 142.208C46.5511 143.133 45.7534 143.819 44.8601 144.377C44.6846 144.473 44.5251 144.569 44.3496 144.665C42.9617 145.414 41.4622 145.925 39.9147 146.196C38.7661 146.403 37.1868 146.308 36.2775 147.201C36.118 147.376 35.9744 147.584 35.783 147.727C35.432 147.999 34.9535 147.999 34.5068 147.999C32.7679 147.999 31.412 147.855 31.5396 145.797C31.6193 144.553 32.0022 143.197 32.5286 142.064C32.7998 141.474 33.2625 141.011 33.773 140.613C33.9325 140.469 34.108 140.341 34.2834 140.214C35.2406 139.496 36.453 138.411 37.7452 138.682C38.4311 138.842 38.7661 139.129 39.5159 139.081C40.3774 139.033 41.2388 138.874 42.0684 138.666C42.8181 138.491 43.5679 138.267 44.3336 138.22C45.1153 138.172 45.9289 138.315 46.5192 138.81C46.6787 138.937 46.8063 139.081 46.918 139.241C46.9499 139.304 46.9978 139.352 47.0137 139.416C47.2211 139.783 47.3328 140.198 47.3487 140.644Z" fill="#4D4D4D"/>
<g style="mix-blend-mode:multiply">
<path d="M47.3487 140.643C47.3487 141.185 47.253 141.728 47.0137 142.206C46.5511 143.132 45.7534 143.818 44.8601 144.376C44.6846 144.472 44.5251 144.567 44.3496 144.663C42.9617 145.413 41.4622 145.923 39.9147 146.195C38.7661 146.402 37.1868 146.306 36.2775 147.2C36.118 147.375 35.9744 147.582 35.783 147.726C35.432 147.997 34.9535 147.997 34.5068 147.997C32.7679 147.997 31.412 147.854 31.5396 145.796C31.6193 144.551 32.0022 143.195 32.5286 142.063C32.7998 141.473 33.2625 141.01 33.773 140.611C34.1718 140.515 34.6025 140.531 34.9854 140.675C36.4849 141.249 35.4958 142.749 36.4371 143.738C37.2825 144.615 39.2766 144.344 40.3295 144.105C41.6057 143.818 42.7703 143.291 43.9029 142.653C44.4772 142.334 45.0994 142.079 45.6737 141.744C45.897 141.616 47.3487 140.866 47.3487 140.627V140.643Z" fill="#B0B0B0"/>
</g>
<path d="M48.1145 87.7449C48.1464 89.9783 47.6359 92.3552 47.3328 94.5726C46.9499 97.2687 46.4395 99.9328 45.7694 102.549C44.7804 106.489 43.1053 110.238 42.2599 114.21C41.3665 118.358 41.207 122.618 41.1113 126.845C41.0474 129.541 41.0155 132.221 40.8401 134.901C40.6965 137.119 40.6805 139.24 40.6805 141.442C40.6805 141.601 40.6805 141.761 40.6167 141.888C40.5529 142.032 40.4253 142.128 40.2817 142.207C40.2498 142.207 40.2339 142.239 40.202 142.255C38.1281 143.643 35.3523 143.914 33.0392 142.957C32.7839 142.846 32.5127 142.718 32.3532 142.479C32.2096 142.239 32.1777 141.968 32.1618 141.697C32.0661 140.325 32.0661 138.921 31.8587 137.549C31.5077 135.14 31.2046 132.716 31.093 130.275C31.0291 128.6 31.0451 126.925 31.1727 125.25C31.3003 123.718 31.6194 122.33 31.9704 120.815C32.6563 117.8 33.2306 114.801 33.5656 111.77C33.8528 109.074 33.9644 106.346 33.8049 103.586C33.7092 102.118 33.6454 100.539 33.3104 99.0394C33.1509 98.2099 32.8797 97.3963 32.4968 96.6624C31.9384 95.6096 31.061 94.7641 30.407 93.791C30.056 93.2645 29.7689 92.7062 29.5455 92.1159C28.6522 89.7549 28.8436 86.9632 30.1358 84.7777L30.7739 84.5703L39.4362 81.8105C39.2767 81.7626 39.4681 81.5393 39.6277 81.5233C41.1751 81.284 42.7065 81.8743 44.1582 82.4645C45.4025 82.9591 46.7266 83.5174 47.4445 84.666C48.0028 85.5594 48.0826 86.692 48.1145 87.7449Z" fill="#595959"/>
<g style="mix-blend-mode:multiply">
<path d="M48.1121 87.7449C48.144 89.9783 47.6335 92.3552 47.3304 94.5726C46.9475 97.2687 46.437 99.9328 45.767 102.549C44.7779 106.489 43.1029 110.238 42.2574 114.21C41.3641 118.358 41.2045 122.618 41.1088 126.845C41.045 129.541 41.0131 132.221 40.8376 134.901C40.694 137.119 40.6781 139.24 40.6781 141.442C40.6781 141.601 40.6781 141.761 40.6143 141.888C40.5505 142.032 40.4229 142.128 40.2793 142.207C40.2474 142.207 40.2314 142.239 40.1995 142.255C38.8595 133.944 38.7797 125.09 40.5026 116.827C41.2205 113.349 42.2734 109.951 43.1667 106.505C43.6613 104.591 44.1079 102.661 44.5067 100.714C45.0332 98.1141 45.4639 95.2905 44.3313 92.8976C40.8695 93.1529 37.3759 93.2645 33.9301 92.8976C33.2601 92.8338 32.606 92.7381 31.936 92.6264C31.1384 92.4988 30.3248 92.3233 29.5431 92.1159C26.3845 91.3183 23.3535 89.9783 20.8489 87.9204C21.0882 85.7348 21.7901 83.5174 23.3854 82.5762C24.6137 81.8583 26.1771 81.8902 27.5171 82.3848C28.7455 82.8474 29.8143 83.661 30.7715 84.5703L39.4338 81.8105C39.2743 81.7626 39.4657 81.5393 39.6252 81.5233C41.1726 81.284 42.7041 81.8743 44.1558 82.4645C45.4001 82.9591 46.7242 83.5174 47.442 84.666C48.0004 85.5594 48.0802 86.692 48.1121 87.7449Z" fill="#B0B0B0"/>
</g>
<path d="M22.3658 78.0767C22.3658 78.8106 22.302 79.5763 21.935 80.2144C21.5681 80.8525 20.7865 81.3151 20.0845 81.0918C19.5421 80.9163 19.2071 80.3899 18.92 79.8954C18.7764 79.6561 18.6328 79.4008 18.5052 79.1615C17.3088 76.9601 16.4314 74.5991 15.7933 72.1902C15.0754 69.4942 14.9637 66.846 14.5808 64.1341C14.2777 61.9805 14.0225 59.8109 13.8151 57.6413C13.4961 54.2115 13.3046 50.7178 13.8151 47.304C14.0385 45.8842 14.4851 44.4644 15.2987 43.2679C15.6975 42.6777 16.1123 42.1991 16.7026 41.8003C17.4045 41.3536 18.1383 40.9867 18.92 40.6836C18.7286 40.7634 18.4893 41.226 18.4095 41.3855C18.2659 41.6248 18.2021 41.8322 18.25 42.1034C18.2978 42.566 18.2181 43.0605 18.3138 43.5232C18.4254 44.0975 18.6807 44.6877 18.8402 45.2461C19.6059 50.5743 20.2919 55.9344 20.9141 61.2785C21.0736 62.6983 21.2331 64.1181 21.3767 65.5379C21.4246 66.0005 21.4724 66.4791 21.4405 66.9577C21.8712 67.7394 21.9989 68.6966 22.0627 69.6218C22.286 72.4295 22.4455 75.2531 22.3498 78.0767H22.3658Z" fill="#1A80D9"/>
<g style="mix-blend-mode:multiply">
<path d="M22.3656 78.0756C22.3656 78.8094 22.3018 79.5751 21.9349 80.2132C21.568 80.8513 20.7863 81.314 20.0844 81.0906C19.542 80.9151 19.207 80.3887 18.9198 79.8942C18.7762 79.6549 18.6327 79.3996 18.505 79.1603C18.5848 75.7465 18.9039 72.3326 18.8879 68.9187C18.8879 66.9246 19.0793 64.9624 18.8879 62.9684C18.6167 60.3521 17.9148 57.672 17.0214 55.2153C16.5748 53.987 16.1919 52.7108 16.1281 51.4026C16.0962 50.6848 16.1919 49.935 16.5269 49.2969C16.4631 49.4404 17.2288 50.2221 17.3245 50.3338C17.6436 50.6688 17.835 50.8921 18.0265 51.3229C18.4253 52.1843 18.7284 53.0936 18.9996 54.0029C19.542 55.8534 19.9089 57.7678 20.4353 59.6183C20.5949 60.1766 20.7703 60.735 20.9618 61.2774C21.1213 62.6972 21.2808 64.1169 21.4244 65.5367C21.4723 65.9994 21.5201 66.4779 21.4882 66.9565C21.9189 67.7382 22.0466 68.6954 22.1104 69.6206C22.3337 72.4283 22.4932 75.2519 22.3975 78.0756H22.3656Z" fill="#B0B0B0"/>
</g>
<path d="M50.2497 44.5753C50.2178 44.8305 50.154 45.0698 50.0582 45.3091C49.9625 45.5165 49.8349 45.7239 49.7073 45.9312C49.3244 46.5534 48.9575 47.2394 48.7342 47.9413C48.6225 48.2763 48.5587 48.6432 48.5108 49.0101C48.463 49.377 48.447 49.7439 48.3992 50.0949C48.2396 51.6583 48.1599 53.2216 48.0801 54.801C47.9684 56.9386 48.0482 58.9646 48.0801 61.0863V61.7404C48.0801 65.8881 47.9684 70.0358 47.9525 74.1835C47.9206 77.8207 48.7182 81.3463 48.5906 85.0154C48.5108 87.2009 48.6544 89.3545 46.5486 90.5669C45.8467 90.9658 45.081 91.1891 44.2834 91.3486C43.9164 91.4284 43.5495 91.4922 43.1826 91.5401C38.349 92.242 33.3717 92.0027 28.6178 90.8541C26.7673 90.4074 24.9327 89.8012 23.3694 88.7324C21.9336 87.7274 20.3383 86.0204 20.4341 84.1699C20.5776 81.6175 21.2317 79.1448 21.6943 76.6562C22.1729 73.9921 21.8538 71.0727 21.3912 68.4086C20.6574 64.1014 19.2217 59.9696 17.6264 55.9176C16.1587 52.1528 14.4677 48.4518 15.5047 44.3041C15.8716 42.8524 16.3502 41.624 17.77 41.1135C20.2745 40.2361 22.4281 38.5611 24.9646 37.7475C25.0763 37.7156 25.188 37.6677 25.2996 37.6358C25.8101 37.4923 26.3525 37.3806 26.8151 37.6199C27.0863 37.7635 27.3097 37.9549 27.549 38.1304C27.884 38.3697 28.2509 38.5611 28.6338 38.7047C29.5909 39.0716 30.6438 39.2152 31.6807 39.3109C31.9519 39.3428 32.2231 39.3747 32.4943 39.3906C33.3238 39.4544 34.1534 39.4704 34.951 39.3109C35.3339 39.2311 35.7008 39.1194 36.0358 38.928C36.0358 38.928 36.0358 38.9121 36.0677 38.8961C36.3389 38.7366 36.5942 38.4973 36.8653 38.3059C37.1046 38.1463 37.4716 37.9389 37.7747 38.0028C38.0937 38.0666 38.4606 38.3059 38.7478 38.4335C39.003 38.5451 39.2423 38.6728 39.4975 38.7844C42.6402 40.284 45.8148 41.7835 48.9575 43.2831C49.2925 43.4426 49.5478 43.6022 49.8349 43.8414C49.9785 43.9372 50.1221 44.0488 50.1699 44.2084C50.2178 44.32 50.2178 44.4476 50.2178 44.5593L50.2497 44.5753Z" fill="#1A80D9"/>
<g style="mix-blend-mode:multiply">
<path d="M48.6081 85.0172C48.5283 87.2027 48.6719 89.3563 46.5662 90.5687C45.8642 90.9676 45.0985 91.1909 44.3009 91.3504C44.2371 90.1699 44.2371 88.9735 44.2371 87.777C44.2371 84.746 44.253 81.715 44.3328 78.6999C44.3966 75.653 44.5083 72.6219 44.6997 69.575C44.8752 66.544 45.1304 63.5129 45.4814 60.4979C45.8323 57.4828 46.2631 54.4837 46.8374 51.5005C46.9809 50.7508 47.1245 50.0169 47.284 49.2672C47.4276 48.5812 47.619 48.0229 48.0817 47.4805C47.9221 47.6719 48.3688 48.5174 48.4326 48.7407C48.4964 48.9641 48.5283 49.0757 48.4964 49.315C48.4645 49.5862 48.4486 49.8574 48.4167 50.1127C48.2571 51.676 48.1774 53.2394 48.0976 54.8187C47.9859 56.9564 48.0657 58.9824 48.0976 61.1041V61.7581C48.0976 65.9058 47.9859 70.0536 47.97 74.2013C47.9381 77.8385 48.7357 81.364 48.6081 85.0331V85.0172Z" fill="#B0B0B0"/>
</g>
<g style="mix-blend-mode:multiply">
<path d="M39.5308 38.8004C39.5308 38.8004 39.4989 38.8802 39.483 38.928C39.3234 39.3587 39.0363 39.7416 38.6853 40.0447C38.0472 40.619 37.2017 40.9381 36.3881 41.2092C35.6543 41.4485 34.9045 41.6719 34.1388 41.7676C33.3093 41.8952 32.4797 41.8793 31.6342 41.8314C30.5495 41.7835 29.4487 41.6878 28.4118 41.3369C27.7099 41.0976 27.0399 40.7466 26.4815 40.2361C25.971 39.7735 25.4127 39.1035 25.2691 38.4016C25.2212 38.1463 25.2372 37.8751 25.317 37.6358C25.8275 37.4923 26.3698 37.3806 26.8325 37.6199C27.1037 37.7635 27.327 37.9549 27.5663 38.1304C27.9013 38.3697 28.2682 38.5611 28.6511 38.7047C29.7678 39.3587 31.1876 39.4385 32.5116 39.3906C32.8626 39.3747 33.2136 39.3428 33.5486 39.3268C34.41 39.2471 35.2715 39.1673 36.085 38.8961C36.1648 38.8801 36.2286 38.8642 36.3084 38.8323C36.7391 38.6887 37.0901 38.4494 37.4729 38.2101C37.5846 38.1463 37.6803 38.0666 37.792 38.0028C38.111 38.0666 38.478 38.3059 38.7651 38.4335C39.0203 38.5451 39.2596 38.6728 39.5149 38.7844L39.5308 38.8004Z" fill="#B0B0B0"/>
</g>
<path d="M39.4829 38.2424C39.5307 38.1307 39.5626 38.0031 39.5945 37.8914C39.7541 37.1097 39.2595 36.4397 38.7969 35.8495C38.7171 35.7378 38.6055 35.6261 38.5098 35.5304C38.4459 36.0409 38.5098 36.6152 38.1269 37.03C37.9355 37.2374 37.7121 37.3969 37.4888 37.5405C37.1059 37.7798 36.755 38.0031 36.3242 38.1626C35.4468 38.4817 34.5056 38.5774 33.5644 38.6572C31.8415 38.7848 29.7198 38.8964 28.2841 37.7638C27.9331 37.4767 27.646 37.0938 27.4864 36.6631C27.3269 36.2004 27.4226 35.8495 27.4864 35.4028C26.29 35.2273 25.0138 36.5195 25.2531 37.7159C25.3966 38.4179 25.955 39.0719 26.4655 39.5505C27.0238 40.045 27.6938 40.412 28.3957 40.6512C29.4327 41.0022 30.5334 41.0979 31.6182 41.1617C32.4477 41.2096 33.2932 41.2096 34.1228 41.0979C34.8885 40.9863 35.6383 40.7629 36.3721 40.5236C37.2016 40.2524 38.0312 39.9334 38.6852 39.375C39.0362 39.0719 39.3074 38.6891 39.4829 38.2583V38.2424Z" fill="#1A80D9"/>
<path d="M73.1758 32.0535C73.782 32.2609 74.1808 32.7076 74.0532 33.0426L68.3581 49.793C68.2464 50.128 67.6721 50.2396 67.0819 50.0482C67.0819 50.0482 67.0819 50.0482 67.0659 50.0482C67.0659 50.0482 67.0659 50.0482 67.05 50.0482C66.4597 49.8408 66.0769 49.4101 66.1885 49.0591L71.8837 32.3088C71.9953 31.9738 72.5856 31.8621 73.1918 32.0695L73.1758 32.0535Z" fill="#333333"/>
<path d="M73.8776 32.4673C73.734 32.8023 74.1009 33.2649 74.6912 33.5042C75.2814 33.7435 75.8717 33.6797 75.9993 33.3447C76.1429 33.0097 75.7759 32.5471 75.1857 32.3078C74.5954 32.0685 74.0052 32.1323 73.8776 32.4673Z" fill="#DAB57C"/>
<path d="M70.3489 40.2833L75.7568 39.2304L77.3043 34.668L71.8963 35.7208L70.3489 40.2833Z" fill="#8EB0E9"/>
<path d="M70.3507 40.2848L66.4583 35.9297L68.0057 31.3672L71.8981 35.7223L70.3507 40.2848Z" fill="#428C17"/>
<path d="M77.3082 34.6673L71.9003 35.7201L68.0078 31.3651L73.4158 30.3281L74.3889 31.4289L76.5585 33.8218L77.3082 34.6673Z" fill="#E6E6E6"/>
<g style="mix-blend-mode:multiply">
<path d="M76.5726 33.8066C76.5726 33.8066 76.8917 34.0778 76.8278 34.2214C76.8278 34.2374 76.7959 34.2533 76.764 34.2693C76.6205 34.3331 76.4609 34.349 76.3174 34.3969C76.1578 34.4447 75.9983 34.5086 75.8388 34.5405C75.4878 34.6362 75.1369 34.7159 74.7859 34.7638C74.4828 34.8117 74.1637 34.8117 73.8606 34.7957C73.6533 34.7798 73.2544 34.7638 73.1109 34.6043C72.9992 34.4767 72.9194 34.2693 72.8397 34.1097L72.6642 33.7907C72.5366 33.0888 72.8875 32.3709 73.4299 31.9242C73.7171 31.6849 74.0521 31.5254 74.403 31.4297C74.5626 31.6052 74.7221 31.7806 74.8816 31.9561C75.2326 32.339 75.5676 32.7219 75.9185 33.1047C75.9664 33.1526 76.3174 33.5195 76.5726 33.7907V33.8066Z" fill="#CCCCCC"/>
</g>
<path d="M76.9245 30.0746C77.0202 28.7027 76.3342 27.2191 75.058 26.7405C73.7658 26.2619 72.2663 26.9479 71.4527 28.0646C70.6391 29.1813 70.1446 31.0318 70.352 32.3878C70.4477 33.0099 70.8784 33.5523 71.3889 33.9192C72.1068 34.4297 73.1915 34.9562 74.0689 34.6212C75.7599 33.9512 76.8128 31.8294 76.9245 30.0906V30.0746Z" fill="#333333"/>
<path d="M71.1488 52.8862C70.9892 53.1893 70.6861 53.5243 70.383 53.3967C70.1597 53.301 69.9364 53.2212 69.713 53.1414C68.8994 52.8862 68.0061 52.6948 67.2403 52.3279C67.1925 52.2959 67.1606 52.28 67.1287 52.2321C67.1287 52.1683 67.1287 52.1045 67.1925 52.0407C67.9104 50.94 67.9263 49.5361 67.8466 48.2599C67.7827 47.3187 67.9742 45.2608 66.7299 45.1013C66.347 45.0534 65.9322 45.1172 65.5813 44.9577C65.5175 44.9417 65.4696 44.9098 65.4377 44.8779C65.342 44.7503 65.4377 44.5589 65.5494 44.4791C65.677 44.3834 65.8365 44.3355 65.9482 44.2239C66.1715 44.0165 66.1556 43.6336 66.347 43.3943C66.5863 43.0912 67.0649 43.1072 67.4318 43.2348C68.2773 43.522 68.6442 44.4153 69.4578 44.6227C69.8247 44.7184 70.0799 44.9258 70.4947 44.9577C70.6064 44.9577 70.734 44.9577 70.8616 44.9417H71.0849C71.3402 44.9417 71.5954 44.9737 71.8188 45.1013C72.2016 45.3565 72.3133 45.867 72.3452 46.3137C72.5366 48.4992 72.1538 50.924 71.1488 52.8862Z" fill="#FFDCC4"/>
<path d="M71.1494 52.8859C70.9898 53.189 70.6867 53.524 70.3836 53.3963C70.1603 53.3006 69.937 53.2209 69.7136 53.1411C70.8782 50.8918 71.3248 48.2915 70.9898 45.7709C70.9579 45.4998 70.9101 45.2286 70.8622 44.9414H71.0856C71.3408 44.9414 71.596 44.9733 71.8194 45.1009C72.2022 45.3562 72.3139 45.8667 72.3458 46.3133C72.5372 48.4989 72.1544 50.9237 71.1494 52.8859Z" fill="#F0BC96"/>
<path d="M70.8285 53.3644C70.7009 53.6037 70.4297 53.7951 70.2701 54.0344C70.0308 54.4013 69.7756 54.7683 69.5523 55.1671C68.5313 56.9538 67.5263 58.7405 66.5053 60.5272C65.5641 62.2022 64.6069 63.8932 63.3307 65.3449C62.2619 66.5733 60.9857 67.5942 59.7254 68.5993C59.4382 68.8386 59.1351 69.0778 58.7682 69.1257C58.6725 69.1417 58.5928 69.1257 58.513 69.1257H58.2418C55.5458 68.8864 53.3762 66.988 51.8448 64.8823C50.2654 62.6808 48.9414 59.8572 48.3511 57.2409C47.6173 54.0025 46.9792 50.5887 47.6971 47.4141C47.7928 46.9036 47.9363 46.409 48.1118 45.9145C48.2554 45.5476 48.4309 45.1328 48.6702 44.75L48.7021 44.7181C48.7659 44.6064 48.8456 44.4947 48.9414 44.399C49.1487 44.1597 49.404 43.9683 49.7071 43.8726C50.3612 43.6652 50.8078 44.4947 51.1588 44.9254C51.6533 45.5476 52.084 46.2336 52.4191 46.9514C53.1369 48.451 54.1579 49.7272 54.9874 51.1789C55.9286 52.7901 56.7901 54.4652 57.4761 56.204C58.0025 57.5121 58.4332 58.8681 58.7523 60.256C59.9487 58.8362 61.4004 57.6557 62.8202 56.4433C63.905 55.518 64.8781 54.4492 65.7715 53.3325C66.5212 52.3754 66.9998 51.2268 68.3558 51.2108C68.9461 51.2108 69.5682 51.2108 70.0627 51.482C70.1744 51.5299 70.2701 51.5937 70.3659 51.6734C70.5573 51.817 70.7168 52.0563 70.8285 52.3115C70.9721 52.6625 71.004 53.0454 70.8285 53.3644Z" fill="#1A80D9"/>
<g style="mix-blend-mode:multiply">
<path d="M70.8285 53.3644C70.7009 53.6037 70.4297 53.7951 70.2701 54.0344C70.0308 54.4013 69.7756 54.7683 69.5523 55.1671C68.5313 56.9538 67.5263 58.7405 66.5053 60.5272C65.5641 62.2022 64.6069 63.8932 63.3307 65.3449C62.2619 66.5733 60.9857 67.5942 59.7254 68.5993C59.4382 68.8386 59.1351 69.0778 58.7682 69.1257C58.6725 69.1417 58.5928 69.1257 58.513 69.1257H58.2418C55.5458 68.8864 53.3762 66.988 51.8448 64.8823C50.2654 62.6808 48.9414 59.8572 48.3511 57.2409C47.6173 54.0025 46.9792 50.5887 47.6971 47.4141C47.6651 47.9724 47.697 48.5308 47.7768 49.0891C48.1278 52.2477 48.718 55.4383 50.0102 58.3576C50.6483 59.7934 51.4459 61.1493 52.451 62.3618C53.44 63.5423 54.1579 64.7706 55.4022 65.7597C56.8858 66.9402 59.2309 67.9292 60.5868 66.0628C60.8899 65.648 61.1452 65.2013 61.209 64.6908C61.3526 63.5901 60.5868 62.617 59.869 61.7875C59.534 61.4046 59.199 61.0217 59.0554 60.5431C59.3744 60.5112 59.6456 60.7665 59.8849 60.9898C60.2997 61.3567 60.7783 61.6439 61.2888 61.8513C62.3576 62.282 63.0436 61.8194 63.7455 61.0536C64.6069 60.1284 65.4524 59.2031 66.282 58.2619C67.941 56.3795 69.5044 54.4333 70.8444 52.3115C70.988 52.6625 71.0199 53.0454 70.8444 53.3644H70.8285Z" fill="#B0B0B0"/>
</g>
</svg>
