<svg width="183" height="115" viewBox="0 0 183 115" fill="none" xmlns="http://www.w3.org/2000/svg">
<g clip-path="url(#clip0_58463_90054)">
<path d="M73.3335 52.0227C73.0634 51.8233 72.8055 51.6078 72.5613 51.3774L72.8955 51.021C73.1255 51.238 73.3683 51.4409 73.6225 51.6286L73.3335 52.0227Z" fill="#E4E4E4"/>
<path d="M71.2195 49.7335C70.8455 49.1297 70.5508 48.48 70.3428 47.8004L70.809 47.6567C71.0047 48.296 71.2818 48.9072 71.6336 49.4751L71.2195 49.7335ZM69.9848 45.7077C69.98 45.5921 69.9776 45.4763 69.9775 45.3604C69.9775 44.7658 70.0415 44.1729 70.1682 43.5921L70.6446 43.6969C70.5254 44.2433 70.4653 44.801 70.4653 45.3604C70.4653 45.4694 70.4675 45.5783 70.4721 45.6872L69.9848 45.7077ZM71.3189 41.8179L70.8853 41.5939C71.0867 41.2017 71.3188 40.8261 71.5794 40.4707C71.7393 40.2528 71.912 40.0446 72.0967 39.8474L72.452 40.1826C72.2807 40.3655 72.1205 40.5586 71.9722 40.7607C71.727 41.0952 71.5085 41.4487 71.3189 41.8179ZM74.0169 38.979L73.7866 38.5476C74.4162 38.2093 75.096 37.975 75.7999 37.854L75.8825 38.3363C75.2302 38.4484 74.6003 38.6655 74.0169 38.979ZM79.7309 38.9256C79.1427 38.6218 78.5091 38.4161 77.855 38.3166L77.9283 37.8328C78.6346 37.9402 79.3188 38.1623 79.9539 38.4904L79.7309 38.9256Z" fill="#E4E4E4"/>
<path d="M81.8568 40.8622C81.6971 40.5958 81.5123 40.3455 81.3049 40.1146L81.6672 39.7869C81.8955 40.0411 82.0989 40.3168 82.2748 40.61L81.8568 40.8622Z" fill="#E4E4E4"/>
<path d="M63.1599 35.6558L62.7671 35.3659C62.9622 35.0997 63.1678 34.8365 63.3784 34.5835L63.7527 34.8972C63.5486 35.1425 63.3492 35.3978 63.1599 35.6558Z" fill="#E4E4E4"/>
<path d="M87.3238 35.0901C86.9491 34.5682 86.534 34.0768 86.0823 33.6203L86.4283 33.2755C86.8981 33.7502 87.3299 34.2613 87.7196 34.8041L87.3238 35.0901ZM65.0798 33.4917L64.7476 33.1334C65.2338 32.6795 65.7481 32.2568 66.2874 31.8679L66.572 32.2653C66.0494 32.6422 65.551 33.0518 65.0798 33.4917ZM84.6263 32.3633C84.1075 31.9812 83.5656 31.6317 83.0037 31.3168L83.2413 30.8894C83.8208 31.2142 84.3798 31.5747 84.9149 31.9689L84.6263 32.3633ZM68.2063 31.2379L67.974 30.8076C68.5579 30.4904 69.1611 30.2103 69.7799 29.9689L69.9566 30.425C69.3568 30.659 68.7722 30.9305 68.2063 31.2379ZM81.264 30.4825C80.6672 30.2416 80.0557 30.0387 79.4334 29.875L79.557 29.4015C80.1992 29.5705 80.8302 29.7799 81.4461 30.0285L81.264 30.4825ZM71.7946 29.8383L71.6762 29.3636C72.3202 29.202 72.9736 29.0807 73.6326 29.0004L73.6913 29.4863C73.0524 29.5641 72.419 29.6817 71.7946 29.8383ZM77.541 29.5038C76.9029 29.4203 76.2602 29.3769 75.6167 29.3739L75.619 28.8845C76.2828 28.8877 76.9458 28.9324 77.6041 29.0186L77.541 29.5038Z" fill="#E4E4E4"/>
<path d="M88.7163 37.6139C88.5962 37.3187 88.4632 37.0249 88.3208 36.7408L88.7566 36.521C88.9046 36.8166 89.043 37.122 89.1678 37.4289L88.7163 37.6139Z" fill="#E4E4E4"/>
<path d="M90.0528 66.3721L89.8853 65.9125C90.1857 65.8022 90.4885 65.6841 90.7853 65.5615L90.9709 66.0141C90.6683 66.1392 90.3594 66.2596 90.0528 66.3721Z" fill="#E4E4E4"/>
<path d="M29.0804 65.9502L27.4099 64.2434L29.4582 61.1008L32.964 55.2452C32.8495 54.9929 32.8139 54.7117 32.8621 54.4387C32.9103 54.1658 33.04 53.9139 33.2339 53.7165C33.4279 53.5191 33.677 53.3854 33.9483 53.3332C34.2196 53.2809 34.5003 53.3125 34.7533 53.4238C35.0064 53.5351 35.2197 53.7209 35.3653 53.9565C35.5108 54.1921 35.5816 54.4666 35.5683 54.7434C35.555 55.0203 35.4582 55.2866 35.2908 55.5072C35.1234 55.7277 34.8932 55.892 34.6307 55.9784L31.737 62.2297L29.0804 65.9502Z" fill="#A0616A"/>
<path d="M82.4488 67.867L82.4311 67.3779C83.0638 67.3548 83.7034 67.3061 84.3321 67.2333L84.388 67.7195C83.7467 67.7937 83.0943 67.8433 82.4488 67.867ZM80.5041 67.8613C79.8579 67.8338 79.2058 67.7802 78.5658 67.7018L78.6249 67.2161C79.2522 67.2928 79.8914 67.3454 80.5247 67.3724L80.5041 67.8613ZM86.3097 67.4197L86.216 66.9394C86.8371 66.8174 87.4612 66.669 88.071 66.4983L88.202 66.9697C87.58 67.1438 86.9433 67.2952 86.3097 67.4197ZM76.6462 67.3892C76.0132 67.26 75.3776 67.1039 74.7572 66.9248L74.892 66.4545C75.5 66.6299 76.1229 66.7831 76.7433 66.9097L76.6462 67.3892ZM72.9109 66.3114C72.3064 66.0834 71.7036 65.828 71.119 65.5524L71.3264 65.1095C71.8993 65.3796 72.4901 65.6298 73.0825 65.8533L72.9109 66.3114ZM69.393 64.6536C68.8338 64.3336 68.2787 63.9863 67.7432 63.6213L68.0172 63.2166C68.5422 63.5743 69.0864 63.9148 69.6346 64.2284L69.393 64.6536Z" fill="#E4E4E4"/>
<path d="M66.1742 62.4538C65.9198 62.2453 65.6678 62.0282 65.425 61.8084L65.7518 61.4451C65.9886 61.6596 66.2345 61.8714 66.4827 62.0748L66.1742 62.4538Z" fill="#E4E4E4"/>
<path d="M52.6731 13.1108L52.4226 12.6908C52.7027 12.5226 52.9882 12.3561 53.2712 12.1958L53.5109 12.6219C53.2315 12.7802 52.9496 12.9446 52.6731 13.1108Z" fill="#E4E4E4"/>
<path d="M99.6228 19.7943C99.2049 19.3059 98.7651 18.8241 98.3156 18.3625L98.6645 18.0205C99.1213 18.4896 99.5682 18.9792 99.9929 19.4756L99.6228 19.7943ZM96.9196 17.0177C96.443 16.5872 95.9455 16.1656 95.4408 15.7648L95.7435 15.381C96.2562 15.7883 96.7617 16.2166 97.2459 16.654L96.9196 17.0177ZM93.8863 14.6051C93.3588 14.2334 92.8161 13.8711 92.2731 13.5283L92.5329 13.1141C93.0827 13.4613 93.6324 13.8281 94.1666 14.2046L93.8863 14.6051ZM90.6078 12.5352C90.0471 12.22 89.4706 11.915 88.8941 11.6287L89.1104 11.1902C89.6943 11.48 90.2783 11.789 90.8463 12.1083L90.6078 12.5352ZM55.2232 11.7099L55.0056 11.272C55.5889 10.9802 56.1876 10.6998 56.785 10.4386L56.9798 10.8872C56.3901 11.1451 55.7991 11.4219 55.2232 11.7099ZM87.1362 10.8118C86.5458 10.5557 85.941 10.3117 85.3386 10.0867L85.5088 9.62805C86.119 9.85601 86.7317 10.1032 87.3297 10.3626L87.1362 10.8118ZM58.7762 10.1559L58.6044 9.69791C59.2136 9.46795 59.8376 9.25043 60.4592 9.05146L60.6074 9.51774C59.9937 9.71415 59.3776 9.9289 58.7762 10.1559ZM83.5061 9.45537C82.893 9.26182 82.2664 9.08165 81.6434 8.91987L81.7656 8.44611C82.3966 8.60995 83.0315 8.79251 83.6525 8.98861L83.5061 9.45537ZM62.4688 8.9742L62.3444 8.50091C62.9737 8.33452 63.6166 8.18191 64.2551 8.04745L64.3553 8.52632C63.7248 8.65917 63.0901 8.80988 62.4688 8.9742ZM79.7556 8.48123C79.1262 8.35196 78.4843 8.23734 77.8477 8.14056L77.9207 7.65676C78.5656 7.75473 79.2158 7.87086 79.8534 8.00173L79.7556 8.48123ZM66.262 8.17561L66.1863 7.69212C66.8293 7.59073 67.4843 7.50447 68.1329 7.43581L68.1841 7.92248C67.5436 7.99034 66.897 8.07549 66.262 8.17561ZM75.9248 7.89866C75.2853 7.83478 74.6349 7.78676 73.9919 7.75576L74.0152 7.26702C74.6666 7.29833 75.3253 7.34699 75.973 7.41167L75.9248 7.89866ZM70.1164 7.76787L70.0901 7.27929C70.7412 7.24385 71.4015 7.22489 72.0526 7.2229L72.0541 7.71228C71.4113 7.71427 70.7594 7.73299 70.1164 7.76787Z" fill="#E4E4E4"/>
<path d="M101.411 22.1025C101.227 21.8384 101.035 21.5743 100.843 21.3175L101.233 21.0234C101.428 21.2845 101.623 21.5529 101.811 21.8213L101.411 22.1025Z" fill="#E4E4E4"/>
<path d="M79.2025 101.242C78.879 101.2 78.5557 101.156 78.2327 101.109L78.3027 100.624C78.6231 100.671 78.9437 100.715 79.2645 100.756L79.2025 101.242Z" fill="#E4E4E4"/>
<path d="M76.259 100.787C75.6063 100.67 74.9463 100.539 74.2975 100.399L74.3998 99.9209C75.0433 100.059 75.6978 100.189 76.3452 100.305L76.259 100.787ZM72.3501 99.9459C71.7051 99.7842 71.0554 99.6095 70.419 99.4267L70.5532 98.9563C71.1844 99.1375 71.8287 99.3107 72.4683 99.4712L72.3501 99.9459ZM68.5065 98.8426C67.8741 98.6378 67.2376 98.4196 66.6147 98.1942L66.7802 97.7338C67.3979 97.9574 68.0291 98.1737 68.6564 98.377L68.5065 98.8426ZM64.7459 97.4824C64.1304 97.2358 63.51 96.9752 62.902 96.7076L63.0979 96.2595C63.7009 96.5249 64.3162 96.7834 64.9267 97.0279L64.7459 97.4824ZM61.0852 95.8711C60.4867 95.5833 59.8853 95.2814 59.2975 94.9739L59.5229 94.54C60.1059 94.845 60.7025 95.1444 61.296 95.4298L61.0852 95.8711ZM57.5407 94.0171C56.9651 93.691 56.3851 93.3495 55.8168 93.0021L56.0706 92.5842C56.6343 92.9288 57.2095 93.2675 57.7805 93.5909L57.5407 94.0171ZM54.1276 91.93C53.5733 91.5652 53.0171 91.1858 52.4746 90.8026L52.7553 90.4024C53.2935 90.7827 53.8452 91.1589 54.3951 91.5208L54.1276 91.93ZM50.8586 89.6191C50.3283 89.2152 49.8005 88.7957 49.2898 88.3722L49.6004 87.9949C50.106 88.4142 50.6285 88.8295 51.1535 89.2293L50.8586 89.6191ZM47.7736 87.0613C47.2794 86.6157 46.788 86.1537 46.3131 85.6882L46.6539 85.3382C47.124 85.7989 47.6104 86.2562 48.0996 86.6973L47.7736 87.0613ZM44.911 84.2548C44.4557 83.7694 44.0045 83.2677 43.5701 82.7638L43.939 82.4436C44.3689 82.9424 44.8155 83.439 45.2662 83.9195L44.911 84.2548ZM42.293 81.2173C41.8797 80.6949 41.4722 80.1569 41.0818 79.6182L41.4762 79.3303C41.8627 79.8635 42.266 80.396 42.675 80.913L42.293 81.2173Z" fill="#E4E4E4"/>
<path d="M39.933 77.9605C39.7521 77.6871 39.5741 77.4122 39.3992 77.1359L39.8108 76.8735C39.984 77.1471 40.1602 77.4191 40.3393 77.6896L39.933 77.9605Z" fill="#E4E4E4"/>
<path d="M167.598 82.6952L159.925 79.5956L169.343 80.4916C173.98 74.093 176.735 65.9085 176.735 65.9085C176.735 65.9085 159.995 59.5308 151.17 63.6974C142.345 67.8639 141.732 74.5473 144.777 80.997C147.822 87.4467 153.372 91.2204 162.197 87.0538C164.161 86.1264 165.971 84.5635 167.598 82.6952Z" fill="#F1F4F9"/>
<path d="M158.981 78.3127L158.546 78.518C153.477 80.8796 149.131 81.8923 145.566 81.5363C145.514 81.532 145.463 81.5246 145.411 81.5203L145.437 81.2797L145.464 81.0487C149.338 81.4824 153.887 80.135 158.308 78.0764C158.452 78.0114 158.597 77.9455 158.74 77.8752C160.604 76.9873 162.439 75.9819 164.188 74.9332C164.324 74.8532 164.461 74.7701 164.598 74.6869C166.899 73.2909 169.04 71.8341 170.872 70.5121C171.002 70.4192 171.131 70.3242 171.258 70.2302C174.351 67.9798 176.502 66.1589 176.976 65.7514C177.034 65.7027 177.066 65.6747 177.073 65.6685L177.228 65.8449L177.231 65.846L177.386 66.0246C177.379 66.0308 177.273 66.1253 177.073 66.2931C176.329 66.9254 174.296 68.615 171.519 70.6426C171.393 70.7334 171.264 70.8284 171.134 70.9213C169.648 71.9957 167.967 73.1542 166.166 74.2931C165.714 74.5799 165.266 74.8572 164.821 75.1251C164.685 75.2104 164.547 75.2935 164.411 75.3735C162.521 76.5073 160.711 77.4871 158.981 78.3127Z" fill="white"/>
<path d="M171.521 70.6416C171.433 70.507 171.345 70.3702 171.26 70.2293C171.029 69.8467 170.817 69.4526 170.626 69.0483C169.81 67.3265 169.393 65.4429 169.404 63.5365C169.247 63.5002 169.09 63.464 168.931 63.4266C168.902 65.4402 169.334 67.4327 170.195 69.2517C170.399 69.6832 170.626 70.1036 170.874 70.5111C170.958 70.6499 171.047 70.7867 171.136 70.9203C171.867 72.0266 172.763 73.0152 173.792 73.8524C173.867 73.7042 173.941 73.5591 174.014 73.4172C173.05 72.6199 172.21 71.6846 171.521 70.6416Z" fill="white"/>
<path d="M164.823 75.1242C164.745 74.9801 164.67 74.8341 164.601 74.686C164.577 74.6419 164.555 74.5947 164.534 74.5497C163.652 72.6828 163.237 70.6298 163.323 68.5656C163.409 66.5013 163.994 64.4872 165.028 62.6948C164.86 62.669 164.693 62.6431 164.524 62.6204C163.493 64.4665 162.917 66.5299 162.844 68.6398C162.771 70.7497 163.202 72.8453 164.103 74.753C164.131 74.8131 164.16 74.8732 164.19 74.9323C164.263 75.0815 164.337 75.2275 164.414 75.3726C165.613 77.6084 167.434 79.4505 169.658 80.6785C169.752 80.5499 169.847 80.4212 169.941 80.2904C167.766 79.1032 165.988 77.3077 164.823 75.1242Z" fill="white"/>
<path d="M158.981 78.3129C158.898 78.1687 158.818 78.0226 158.741 77.8754C158.658 77.7175 158.578 77.5586 158.502 77.3976C157.32 74.8876 156.986 72.0612 157.55 69.3415C158.114 66.6217 159.545 64.155 161.628 62.3106C161.408 62.2964 161.191 62.2811 160.973 62.2712C158.936 64.2021 157.56 66.7226 157.039 69.4745C156.518 72.2265 156.879 75.0699 158.071 77.6009C158.147 77.7619 158.225 77.9219 158.309 78.0766C158.385 78.2269 158.465 78.3731 158.546 78.5182C160.217 81.4402 162.94 83.6165 166.164 84.6064C166.302 84.4861 166.435 84.3604 166.57 84.2337C163.362 83.3218 160.64 81.198 158.981 78.3129Z" fill="white"/>
<path d="M19.8337 25.0601L23.7985 32.3341L17.097 25.6678C9.48066 27.7036 2.19019 32.3216 2.19019 32.3216C2.19019 32.3216 11.0829 47.8921 20.5217 50.2461C29.9606 52.6001 34.6509 47.7916 36.3713 40.8461C38.0917 33.9007 36.1907 27.4484 26.7518 25.0944C24.6509 24.5705 22.2683 24.6387 19.8337 25.0601Z" fill="#F2F2F2"/>
<path d="M23.7149 33.9324L24.1801 34.0484C29.5813 35.4249 33.5741 37.3924 36.1005 39.9291C36.138 39.9654 36.1726 40.0035 36.21 40.0399L36.0381 40.2105L35.8709 40.3724C33.1559 37.5801 28.7954 35.7442 24.0847 34.5424C23.9332 34.5021 23.7795 34.4613 23.6246 34.4252C21.6259 33.9341 19.5757 33.5528 17.5646 33.2598C17.4092 33.2358 17.2509 33.2135 17.0925 33.1912C14.4361 32.8183 11.8651 32.5942 9.61658 32.4604C9.45769 32.4503 9.29824 32.4424 9.14108 32.4351C5.33425 32.2243 2.52589 32.2773 1.9031 32.2937C1.82712 32.2944 1.7851 32.2962 1.77532 32.2962L1.76751 32.0612L1.76578 32.0583L1.75854 31.8209C1.76834 31.8209 1.90936 31.8143 2.16952 31.8105C3.14285 31.7907 5.77799 31.7657 9.20028 31.9493C9.35456 31.9583 9.51402 31.9662 9.6729 31.9764C11.4977 32.083 13.5259 32.2477 15.6341 32.5036C16.1638 32.567 16.6848 32.6356 17.1972 32.7094C17.3561 32.7294 17.5144 32.7517 17.6699 32.7757C19.8438 33.0921 21.8588 33.4777 23.7149 33.9324Z" fill="white"/>
<path d="M9.20062 31.9483C9.183 32.1083 9.16481 32.2706 9.14142 32.4341C9.07858 32.8783 8.99311 33.3189 8.88535 33.7543C8.42824 35.6102 7.56196 37.3396 6.35034 38.815C6.44836 38.9425 6.5464 39.07 6.64616 39.2004C7.93915 37.6529 8.86261 35.8294 9.346 33.8691C9.46099 33.4044 9.55142 32.9338 9.61692 32.4595C9.63972 32.2983 9.65791 32.136 9.67324 31.9754C9.80713 30.6517 9.7399 29.3152 9.47384 28.0117C9.32255 28.0795 9.17413 28.1456 9.02859 28.2099C9.26908 29.4407 9.32705 30.7005 9.20062 31.9483Z" fill="white"/>
<path d="M17.1973 32.7077C17.167 32.8695 17.1322 33.0301 17.0927 33.1895C17.0829 33.2386 17.0703 33.2895 17.0583 33.338C16.5604 35.3484 15.5853 37.2081 14.2163 38.7587C12.8473 40.3093 11.125 41.5047 9.19604 42.243C9.30903 42.3693 9.42203 42.4957 9.5379 42.6202C11.4983 41.8382 13.2448 40.5987 14.6327 39.0045C16.0206 37.4103 17.01 35.5072 17.519 33.4529C17.535 33.3882 17.551 33.3235 17.5647 33.2582C17.6025 33.0959 17.6374 32.9352 17.67 32.7741C18.1552 30.275 17.9129 27.6887 16.972 25.3242C16.8178 25.3643 16.6635 25.4044 16.5088 25.4467C17.4375 27.7483 17.6768 30.2717 17.1973 32.7077Z" fill="white"/>
<path d="M23.7146 33.9309C23.6883 34.0961 23.6574 34.2601 23.6243 34.4237C23.5883 34.5987 23.5499 34.7732 23.507 34.9465C22.8348 37.6471 21.3088 40.0566 19.1576 41.8142C17.0065 43.5718 14.3458 44.583 11.574 44.6963C11.7348 44.8468 11.8933 44.9968 12.0552 45.1427C14.8448 44.9318 17.4973 43.8443 19.6358 42.0345C21.7742 40.2248 23.29 37.7849 23.9677 35.0614C24.0106 34.8881 24.0512 34.7142 24.0844 34.5408C24.1204 34.3756 24.1513 34.2115 24.1798 34.0469C24.7345 30.7157 24.0068 27.2974 22.1441 24.4844C21.9616 24.4904 21.7797 24.5039 21.5955 24.5169C23.495 27.259 24.2551 30.6358 23.7146 33.9309Z" fill="white"/>
<path d="M55.7379 14.1541L55.3744 14.2664L52.308 4.27288C51.8373 2.73887 50.7786 1.4553 49.3648 0.704546C47.9509 -0.0462063 46.2978 -0.202647 44.769 0.269641L23.6683 6.78826C22.9113 7.02211 22.2076 7.40328 21.5974 7.91001C20.9873 8.41674 20.4825 9.03909 20.1121 9.74154C19.7416 10.444 19.5126 11.2128 19.4383 12.004C19.3639 12.7953 19.4456 13.5935 19.6786 14.353L36.5008 69.1785C36.9715 70.7125 38.0302 71.9961 39.444 72.7468C40.8579 73.4976 42.511 73.654 44.0398 73.1817L65.1405 66.6631C66.6693 66.1908 67.9485 65.1285 68.6967 63.7099C69.445 62.2912 69.6009 60.6324 69.1302 59.0984L57.557 21.38L57.9206 21.2677L55.7379 14.1541Z" fill="#3F3D56"/>
<path d="M45.4632 1.70253L42.7088 2.55343C42.9311 2.8259 43.0832 3.14904 43.1517 3.49438C43.2202 3.83972 43.203 4.19666 43.1016 4.53376C43.0002 4.87086 42.8178 5.17778 42.5704 5.42747C42.323 5.67715 42.0181 5.86196 41.6828 5.96559L29.5944 9.70002C29.259 9.80361 28.9034 9.82284 28.5589 9.75603C28.2143 9.68922 27.8915 9.53841 27.6187 9.31689C27.3459 9.09537 27.1316 8.80994 26.9947 8.48574C26.8577 8.16155 26.8024 7.80853 26.8334 7.4578L24.2608 8.25254C23.1192 8.60524 22.1639 9.39857 21.6051 10.458C21.0464 11.5175 20.9299 12.7562 21.2814 13.9018L38.0789 68.6468C38.4304 69.7924 39.2211 70.751 40.2769 71.3116C41.3327 71.8723 42.5673 71.9891 43.709 71.6364L64.9113 65.0864C66.053 64.7337 67.0083 63.9404 67.5671 62.8809C68.1258 61.8215 68.2422 60.5827 67.8908 59.4371L51.0932 4.69209C50.7417 3.54651 49.9511 2.58796 48.8953 2.02731C47.8394 1.46666 46.6049 1.34983 45.4632 1.70253Z" fill="white"/>
<path d="M129.872 113.024L80.3736 95.1707C79.2009 94.7462 78.2438 93.8723 77.7125 92.7406C77.1811 91.609 77.1188 90.3121 77.5392 89.1344L103.343 17.1052C103.766 15.9284 104.637 14.9681 105.765 14.4349C106.893 13.9017 108.185 13.8392 109.359 14.261L158.857 32.1147C160.03 32.5392 160.987 33.4131 161.519 34.5448C162.05 35.6764 162.112 36.9733 161.692 38.151L135.888 110.18C135.465 111.357 134.594 112.317 133.466 112.85C132.339 113.384 131.046 113.446 129.872 113.024Z" fill="#3F3D56"/>
<path d="M130.975 110.222L81.3023 92.3056C80.9407 92.1747 80.6457 91.9053 80.4819 91.5565C80.3181 91.2076 80.2989 90.8078 80.4285 90.4448L106.403 17.9386C106.534 17.5758 106.802 17.2798 107.15 17.1155C107.497 16.9511 107.896 16.9318 108.258 17.0618L157.931 34.9783C158.292 35.1092 158.587 35.3786 158.751 35.7274C158.915 36.0763 158.934 36.4761 158.804 36.8391L132.83 109.345C132.699 109.708 132.431 110.004 132.083 110.168C131.735 110.333 131.337 110.352 130.975 110.222Z" fill="white"/>
<path d="M134.391 33.0828C134.612 33.0828 134.791 32.9031 134.791 32.6814C134.791 32.4597 134.612 32.28 134.391 32.28C134.17 32.28 133.991 32.4597 133.991 32.6814C133.991 32.9031 134.17 33.0828 134.391 33.0828Z" fill="white"/>
<path d="M52.1681 43.6537C56.3868 39.4206 56.3868 32.5574 52.1681 28.3243C47.9494 24.0912 41.1095 24.0912 36.8908 28.3243C32.6721 32.5574 32.6721 39.4206 36.8908 43.6537C41.1095 47.8868 47.9494 47.8868 52.1681 43.6537Z" fill="#0077B6"/>
<path d="M45.6604 41.1621L40.3135 37.5224L40.7804 36.8322L45.207 39.8456L48.4064 29.803L49.1978 30.0568L45.6604 41.1621Z" fill="white"/>
<path d="M129.329 72.4032C134.672 67.0417 134.672 58.349 129.329 52.9875C123.986 47.626 115.323 47.626 109.979 52.9875C104.636 58.349 104.636 67.0417 109.979 72.4032C115.323 77.7647 123.986 77.7647 129.329 72.4032Z" fill="#0077B6"/>
<path d="M116.354 68.5298L114.389 60.5587L115.411 60.3053L117.038 66.9047L128.526 60.1641L129.058 61.0754L116.354 68.5298Z" fill="white"/>
<path d="M27.442 69.8829C27.2459 70.1876 26.9664 70.4293 26.637 70.579C26.3076 70.7286 25.9422 70.7799 25.5846 70.7267C25.2441 70.6864 24.9228 70.5473 24.6601 70.3263C24.3974 70.1053 24.2047 69.8122 24.1057 69.4828C24.0328 69.2491 24.0115 69.0022 24.0435 68.7594C24.0754 68.5166 24.1598 68.2837 24.2906 68.077C25.4081 66.1866 27.4693 63.6901 27.4899 63.6652L27.5227 63.6255L30.9991 64.3812L27.442 69.8829Z" fill="#0077B6"/>
<path d="M30.2604 111.718H32.3376L33.3257 103.678L30.26 103.679L30.2604 111.718Z" fill="#A0616A"/>
<path d="M29.7307 111.041L33.8213 111.041C34.5127 111.041 35.1759 111.316 35.6647 111.807C36.1536 112.297 36.4283 112.963 36.4283 113.656V113.741L29.7308 113.742L29.7307 111.041Z" fill="#2F2E41"/>
<path d="M14.0881 110.819L16.1419 111.131L18.3167 103.33L15.6244 102.87L14.0881 110.819Z" fill="#A0616A"/>
<path d="M13.6657 110.066L17.7103 110.679C18.3939 110.783 19.0086 111.155 19.4189 111.713C19.8292 112.272 20.0017 112.971 19.8984 113.656L19.8857 113.741L13.2634 112.736L13.6657 110.066Z" fill="#2F2E41"/>
<path d="M26.1185 73.8222L30.9487 72.7666L33.6579 80.5373L33.7426 110.543L29.7998 110.518L28.1516 86.2325L17.6473 108.673L13.4116 108.163L22.6453 84.1074C22.6453 84.1074 22.137 79.8573 23.7465 77.7323L23.4077 75.5223L26.1185 73.8222Z" fill="#2F2E41"/>
<path d="M21.5841 68.1071C21.4743 67.7761 21.4626 67.4203 21.5505 67.0828C21.6384 66.7453 21.822 66.4407 22.0791 66.206L23.1001 65.2748L25.9785 64.7882L27.7782 64.46L32.0457 75.1497L23.6453 76.1095C23.0287 75.9759 22.7824 75.6375 23.1412 74.9646L21.5841 68.1071Z" fill="#0077B6"/>
<path d="M31.7545 66.3383L31.5142 63.9582L35.0709 62.7904L41.4555 60.4196C41.5233 60.1509 41.6707 59.9091 41.8784 59.7263C42.0861 59.5435 42.3442 59.4283 42.6186 59.3959C42.8929 59.3635 43.1707 59.4154 43.415 59.5448C43.6593 59.6742 43.8587 59.875 43.9868 60.1206C44.1149 60.3662 44.1657 60.645 44.1325 60.9202C44.0992 61.1954 43.9835 61.454 43.8006 61.6617C43.6177 61.8695 43.3763 62.0167 43.1082 62.0837C42.8402 62.1508 42.5581 62.1346 42.2994 62.0374L36.1459 65.1011L31.7545 66.3383Z" fill="#A0616A"/>
<path d="M27.8821 68.2167C27.5391 68.3316 27.1705 68.3449 26.8202 68.255C26.4699 68.1652 26.1528 67.976 25.9068 67.7102C25.6663 67.4651 25.5023 67.1549 25.435 66.8176C25.3676 66.4804 25.3998 66.1307 25.5276 65.8116C25.6163 65.5834 25.7536 65.3774 25.9298 65.208C26.106 65.0385 26.3169 64.9096 26.5479 64.8304C28.5978 64.0561 31.7621 63.4007 31.7937 63.3941L31.844 63.3838L34.0863 66.1544L27.8821 68.2167Z" fill="#0077B6"/>
<path d="M24.7143 63.7636C26.4593 63.7636 27.8739 62.3442 27.8739 60.5932C27.8739 58.8423 26.4593 57.4229 24.7143 57.4229C22.9693 57.4229 21.5547 58.8423 21.5547 60.5932C21.5547 62.3442 22.9693 63.7636 24.7143 63.7636Z" fill="#A0616A"/>
<path d="M22.1567 65.1099C21.6668 65.1098 21.1773 65.0798 20.6909 65.0202L20.6242 65.0121L20.1153 62.2397C19.8994 61.0644 20.1401 59.8508 20.7879 58.848C21.4357 57.8451 22.4414 57.1291 23.5987 56.8469C23.6759 56.8273 23.7571 56.8294 23.8332 56.8531C23.9093 56.8767 23.9774 56.9209 24.03 56.9809L24.1514 56.9385C24.6161 56.7759 25.1082 56.7067 25.5996 56.7349C26.0909 56.7631 26.5719 56.8882 27.0151 57.1029C27.4583 57.3177 27.855 57.6179 28.1826 57.9865C28.5101 58.3551 28.7621 58.7848 28.9241 59.2511L28.9542 59.3377L28.1442 59.6211C27.8918 59.7094 27.6622 59.8531 27.4721 60.0416C27.282 60.2302 27.1362 60.4589 27.0453 60.7111C26.9543 60.9633 26.9206 61.2326 26.9464 61.4996C26.9723 61.7665 27.0571 62.0243 27.1947 62.2543L28.0229 63.6377L27.9347 63.682C26.1472 64.6068 24.1678 65.0959 22.1567 65.1099Z" fill="#2F2E41"/>
<path d="M62.3655 114.18H0.425999C0.382882 114.18 0.341531 114.153 0.311044 114.106C0.280556 114.06 0.263428 113.996 0.263428 113.93C0.263428 113.863 0.280556 113.8 0.311044 113.753C0.341531 113.706 0.382882 113.68 0.425999 113.68H62.3655C62.4086 113.68 62.45 113.706 62.4805 113.753C62.5109 113.8 62.5281 113.863 62.5281 113.93C62.5281 113.996 62.5109 114.06 62.4805 114.106C62.45 114.153 62.4086 114.18 62.3655 114.18Z" fill="#CACACA"/>
<path d="M171.143 113.969H109.203C109.16 113.969 109.119 113.942 109.088 113.896C109.058 113.849 109.041 113.785 109.041 113.719C109.041 113.652 109.058 113.589 109.088 113.542C109.119 113.495 109.16 113.469 109.203 113.469H171.143C171.186 113.469 171.227 113.495 171.258 113.542C171.288 113.589 171.305 113.652 171.305 113.719C171.305 113.785 171.288 113.849 171.258 113.896C171.227 113.942 171.186 113.969 171.143 113.969Z" fill="#CACACA"/>
<rect x="62.2634" y="28" width="39" height="39" fill="white"/>
<rect x="62.2634" y="28" width="39" height="39" stroke="#CDE5FF" stroke-width="4"/>
<rect width="27" height="27" transform="translate(68.2634 34)" fill="white"/>
<path fill-rule="evenodd" clip-rule="evenodd" d="M77.2634 34H68.2634V43H71.2634V46H68.2634V49H71.2634V46H74.2634V49H76.2634V52H68.2634V61H77.2634V52H86.2634V55H83.2634H82.2634H80.2634V61H83.2634V58H85.2634V61H88.2634V58H91.2634V55H89.2634V52H92.2634V55H95.2634V52H92.2634V49H95.2634V46H92.2634V43H95.2634V34H86.2634V43H77.2634V34ZM77.2634 46V43H74.2634V46H77.2634ZM77.2634 46V49H80.2634V46H77.2634ZM89.2634 46H92.2634V49H89.2634V46ZM89.2634 46H87.2634V43H89.2634V46ZM86.2634 49H89.2634V52H86.2634V49ZM86.2634 49H83.2634V46H86.2634V49ZM75.2634 36H70.2634V41H75.2634V36ZM75.2634 54H70.2634V59H75.2634V54ZM74.2634 37H71.2634V40H74.2634V37ZM71.2634 55H74.2634V58H71.2634V55ZM80.2634 34H83.2634V42H80.2634V34ZM95.2634 58H92.2634V61H95.2634V58ZM93.2634 36H88.2634V41H93.2634V36ZM92.2634 37H89.2634V40H92.2634V37Z" fill="black"/>
</g>
<defs>
<clipPath id="clip0_58463_90054">
<rect width="182.473" height="115" fill="white" transform="translate(0.263428)"/>
</clipPath>
</defs>
</svg>
