<svg width="260" height="177" viewBox="0 0 260 177" fill="none" xmlns="http://www.w3.org/2000/svg">
<rect x="111.25" y="48.25" width="97.5" height="97.5" rx="6.25" fill="#F8F9FF"/>
<rect x="110.625" y="47.625" width="98.75" height="98.75" rx="6.875" stroke="#183248" stroke-width="6.25"/>
<path fill-rule="evenodd" clip-rule="evenodd" d="M148.333 62H125V85.3333H132.778V93.1109H140.556L140.556 100.889H148.333V93.1108H140.556L140.556 85.3333H148.333V62ZM143.148 67.1849H130.185V80.1479H143.148V67.1849ZM171.667 108.667H148.333V132H125V108.667H145.741V100.889H171.667V108.667ZM143.148 113.852H130.185V126.815H143.148V113.852ZM140.556 69.7777H132.778V77.5555H140.556V69.7777ZM132.778 116.445H140.556V124.222H132.778V116.445ZM163.889 116.445H171.667V108.667H179.444V100.889H187.222V108.667H179.444V116.445H184.63V124.222H176.852V132H169.074V124.222H163.889V132H156.111V116.445H161.296H163.889ZM156.111 62H163.889V82.7407H156.111V62ZM174.259 85.3333H179.444V93.1108H174.259V85.3333ZM148.333 85.3331H171.667V62H195V85.3333H187.222V93.1109H179.444V100.889H171.667V93.1109H163.889V100.889H156.111V93.1109H148.333V85.3331ZM125 93.1108H132.778V100.889H125V93.1108ZM195 93.1108H187.222V100.889H195V93.1108ZM187.222 108.667H195V116.445H187.222V108.667ZM195 124.222H187.222V132H195V124.222ZM189.815 67.1849H176.852V80.1479H189.815V67.1849ZM187.222 69.7777H179.444V77.5555H187.222V69.7777Z" fill="#183248"/>
<circle cx="84" cy="64" r="48" fill="#F8F9FF"/>
<path d="M83.9998 10.667C54.5065 10.667 30.6665 34.507 30.6665 64.0003C30.6665 93.4937 54.5065 117.334 83.9998 117.334C113.493 117.334 137.333 93.4937 137.333 64.0003C137.333 34.507 113.493 10.667 83.9998 10.667ZM83.9998 106.667C60.4798 106.667 41.3332 87.5203 41.3332 64.0003C41.3332 40.4803 60.4798 21.3337 83.9998 21.3337C107.52 21.3337 126.667 40.4803 126.667 64.0003C126.667 87.5203 107.52 106.667 83.9998 106.667ZM103.147 37.3337L83.9998 56.4803L64.8532 37.3337L57.3332 44.8537L76.4798 64.0003L57.3332 83.147L64.8532 90.667L83.9998 71.5203L103.147 90.667L110.667 83.147L91.5198 64.0003L110.667 44.8537L103.147 37.3337Z" fill="#F55C5C"/>
</svg>
