<svg width="327" height="75" viewBox="0 0 327 75" fill="none" xmlns="http://www.w3.org/2000/svg">
<path d="M67.4159 59.8455V68.5999H70.6523V70.3683H65.3691V59.863H67.4159V59.8455Z" fill="#004F79"/>
<path d="M78.4896 68.4424C78.2796 68.9501 77.5099 70.5609 75.1307 70.5609C74.0286 70.5609 73.1889 70.2458 72.5241 69.598C71.7719 68.8801 71.457 68.0046 71.457 66.9366C71.457 65.5884 71.9993 64.748 72.4892 64.2577C73.2939 63.4698 74.2385 63.2947 75.0608 63.2947C76.4428 63.2947 77.2475 63.855 77.7198 64.4153C78.4371 65.2908 78.542 66.3588 78.542 67.0942V67.2518H73.4338C73.4338 67.6545 73.5388 68.1097 73.7662 68.4073C73.9761 68.6875 74.396 69.0552 75.1307 69.0552C75.8655 69.0552 76.4078 68.705 76.7227 68.1622L78.4896 68.4424ZM76.7227 66.0261C76.5652 65.0982 75.813 64.6604 75.0957 64.6604C74.3785 64.6604 73.6438 65.1157 73.4863 66.0261H76.7227Z" fill="#004F79"/>
<path d="M80.0115 63.5224H81.9359V64.5554C82.2332 63.9776 82.6356 63.6799 82.7931 63.6099C83.0905 63.4173 83.4753 63.3122 83.9302 63.3122C84.2625 63.3122 84.5249 63.3823 84.7524 63.4698L84.5075 65.2733C84.2625 65.0982 84.0001 65.0281 83.6153 65.0281C83.2479 65.0281 82.7231 65.0982 82.3382 65.5884C81.9708 66.0436 81.9534 66.6214 81.9534 67.0942V70.3683H80.029V63.5399L80.0115 63.5224Z" fill="#004F79"/>
<path d="M85.6795 63.5224H87.6039V64.3978C87.9712 63.89 88.6185 63.2947 89.7206 63.2947C90.3154 63.2947 91.2076 63.4698 91.7324 64.1352C92.2048 64.713 92.2747 65.3958 92.2747 66.0612V70.3508H90.3504V66.6389C90.3504 66.2538 90.3504 65.6584 89.983 65.3083C89.6856 64.9931 89.2658 64.9581 89.0909 64.9581C88.5835 64.9581 88.1987 65.1332 87.9013 65.5534C87.6214 65.9911 87.6039 66.4814 87.6039 66.8841V70.3683H85.6795V63.5224Z" fill="#004F79"/>
<path d="M100.777 68.4424C100.567 68.9501 99.7971 70.5609 97.4179 70.5609C96.3158 70.5609 95.4761 70.2458 94.8114 69.598C94.0591 68.8801 93.7442 68.0046 93.7442 66.9366C93.7442 65.5884 94.2865 64.748 94.7764 64.2577C95.5811 63.4698 96.5258 63.2947 97.348 63.2947C98.73 63.2947 99.5347 63.855 100.007 64.4153C100.724 65.2908 100.829 66.3588 100.829 67.0942V67.2518H95.721C95.721 67.6545 95.826 68.1097 96.0534 68.4073C96.2633 68.6875 96.6832 69.0552 97.4179 69.0552C98.1527 69.0552 98.695 68.705 99.0099 68.1622L100.777 68.4424ZM99.0099 66.0261C98.8524 65.0982 98.1002 64.6604 97.383 64.6604C96.6657 64.6604 95.931 65.1157 95.7735 66.0261H99.0099Z" fill="#004F79"/>
<path d="M102.299 63.5224H104.223V64.3978C104.59 63.89 105.238 63.2947 106.34 63.2947C106.935 63.2947 107.827 63.4698 108.352 64.1352C108.824 64.713 108.894 65.3958 108.894 66.0612V70.3508H106.97V66.6389C106.97 66.2538 106.97 65.6584 106.602 65.3083C106.305 64.9931 105.885 64.9581 105.71 64.9581C105.203 64.9581 104.818 65.1332 104.52 65.5534C104.241 65.9911 104.223 66.4814 104.223 66.8841V70.3683H102.299V63.5224Z" fill="#004F79"/>
<path d="M116.294 63.5224V67.3918C116.294 67.7595 116.329 68.2498 116.696 68.5824C116.941 68.7925 117.308 68.9326 117.676 68.9326C118.043 68.9326 118.411 68.7925 118.656 68.5824C119.04 68.2323 119.058 67.742 119.058 67.3918V63.5224H120.982V67.707C120.982 68.3198 120.912 69.1427 120.143 69.8081C119.513 70.3683 118.498 70.5785 117.676 70.5785C116.854 70.5785 115.839 70.3508 115.209 69.8081C114.457 69.1427 114.37 68.3198 114.37 67.707V63.5224H116.294Z" fill="#004F79"/>
<path d="M122.819 63.5224H124.743V64.3978C125.111 63.89 125.758 63.2947 126.86 63.2947C127.455 63.2947 128.347 63.4698 128.872 64.1352C129.344 64.713 129.414 65.3958 129.414 66.0612V70.3508H127.49V66.6389C127.49 66.2538 127.49 65.6584 127.123 65.3083C126.825 64.9931 126.405 64.9581 126.23 64.9581C125.723 64.9581 125.338 65.1332 125.041 65.5534C124.761 65.9911 124.743 66.4814 124.743 66.8841V70.3683H122.819V63.5224Z" fill="#004F79"/>
<path d="M136.464 58.865H138.389V70.3508H136.464V69.4754C135.765 70.4734 134.855 70.5785 134.365 70.5785C132.266 70.5785 130.884 68.9326 130.884 66.9366C130.884 64.9406 132.248 63.3123 134.278 63.3123C134.802 63.3123 135.817 63.3998 136.464 64.4153V58.865ZM132.878 66.9366C132.878 68.0221 133.665 68.8801 134.767 68.8801C135.869 68.8801 136.657 68.0221 136.657 66.9366C136.657 65.851 135.869 65.0106 134.767 65.0106C133.665 65.0106 132.878 65.851 132.878 66.9366Z" fill="#004F79"/>
<path d="M146.208 59.8455V68.5999H149.445V70.3683H144.162V59.863H146.208V59.8455Z" fill="#004F79"/>
<path d="M157.265 68.4424C157.055 68.9501 156.285 70.5609 153.906 70.5609C152.804 70.5609 151.964 70.2458 151.299 69.598C150.547 68.8801 150.232 68.0046 150.232 66.9366C150.232 65.5884 150.774 64.748 151.264 64.2577C152.069 63.4698 153.014 63.2947 153.836 63.2947C155.218 63.2947 156.022 63.855 156.495 64.4153C157.212 65.2908 157.317 66.3588 157.317 67.0942V67.2518H152.209C152.209 67.6545 152.314 68.1097 152.541 68.4073C152.751 68.6875 153.171 69.0552 153.906 69.0552C154.64 69.0552 155.183 68.705 155.498 68.1622L157.265 68.4424ZM155.498 66.0261C155.34 65.0982 154.588 64.6604 153.871 64.6604C153.153 64.6604 152.419 65.1157 152.261 66.0261H155.498Z" fill="#004F79"/>
<path d="M158.786 58.865H160.711V64.4153C161.078 63.9076 161.725 63.3123 162.828 63.3123C163.422 63.3123 164.315 63.4873 164.839 64.1527C165.312 64.7305 165.382 65.4133 165.382 66.0787V70.3683H163.457V66.6565C163.457 66.2713 163.457 65.676 163.09 65.3258C162.793 65.0106 162.373 64.9756 162.198 64.9756C161.69 64.9756 161.306 65.1507 161.008 65.5709C160.728 66.0086 160.711 66.4989 160.711 66.9016V70.3859H158.786V58.865Z" fill="#004F79"/>
<path d="M167.201 63.5224H169.125V64.5554C169.423 63.9776 169.843 63.6799 169.983 63.6099C170.28 63.4173 170.665 63.3122 171.12 63.3122C171.452 63.3122 171.714 63.3823 171.942 63.4698L171.697 65.2733C171.452 65.0982 171.19 65.0281 170.805 65.0281C170.437 65.0281 169.913 65.0982 169.528 65.5884C169.16 66.0436 169.143 66.6214 169.143 67.0942V70.3683H167.219V63.5399L167.201 63.5224Z" fill="#004F79"/>
<path d="M179.237 68.4424C179.027 68.9501 178.257 70.5609 175.878 70.5609C174.776 70.5609 173.936 70.2458 173.271 69.598C172.519 68.8801 172.204 68.0046 172.204 66.9366C172.204 65.5884 172.764 64.748 173.236 64.2577C174.041 63.4698 174.986 63.2947 175.808 63.2947C177.19 63.2947 177.995 63.855 178.467 64.4153C179.184 65.2908 179.289 66.3588 179.289 67.0942V67.2518H174.181C174.181 67.6545 174.286 68.1097 174.514 68.4073C174.723 68.6875 175.143 69.0552 175.878 69.0552C176.613 69.0552 177.155 68.705 177.47 68.1622L179.237 68.4424ZM177.47 66.0261C177.313 65.0982 176.56 64.6604 175.843 64.6604C175.126 64.6604 174.391 65.1157 174.234 66.0261H177.47Z" fill="#004F79"/>
<path d="M180.759 63.5224H182.683V64.3978C183.051 63.89 183.698 63.2947 184.8 63.2947C185.395 63.2947 186.287 63.4698 186.812 64.1352C187.284 64.713 187.354 65.3958 187.354 66.0612V70.3508H185.43V66.6389C185.43 66.2538 185.43 65.6584 185.062 65.3083C184.765 64.9931 184.363 64.9581 184.17 64.9581C183.663 64.9581 183.278 65.1332 182.998 65.5534C182.718 65.9911 182.701 66.4814 182.701 66.8841V70.3683H180.776V63.5399L180.759 63.5224Z" fill="#004F79"/>
<path d="M199.53 68.4424C199.32 68.9501 198.55 70.5609 196.171 70.5609C195.069 70.5609 194.229 70.2458 193.564 69.598C192.812 68.8801 192.497 68.0046 192.497 66.9366C192.497 65.5884 193.057 64.748 193.529 64.2577C194.334 63.4698 195.279 63.2947 196.101 63.2947C197.483 63.2947 198.288 63.855 198.76 64.4153C199.477 65.2908 199.582 66.3588 199.582 67.0942V67.2518H194.474C194.474 67.6545 194.579 68.1097 194.806 68.4073C195.016 68.6875 195.436 69.0552 196.171 69.0552C196.906 69.0552 197.448 68.705 197.763 68.1622L199.53 68.4424ZM197.763 66.0261C197.605 65.0982 196.853 64.6604 196.136 64.6604C195.419 64.6604 194.684 65.1157 194.527 66.0261H197.763Z" fill="#004F79"/>
<path d="M202.014 59.4953C202.644 59.4953 203.168 60.0206 203.168 60.6509C203.168 61.2812 202.644 61.8065 202.014 61.8065C201.384 61.8065 200.859 61.2812 200.859 60.6509C200.859 60.0206 201.384 59.4953 202.014 59.4953ZM202.976 63.5224V70.3508H201.052V63.5224H202.976Z" fill="#004F79"/>
<path d="M204.795 63.5224H206.72V64.3978C207.087 63.89 207.734 63.2947 208.837 63.2947C209.431 63.2947 210.323 63.4698 210.848 64.1352C211.321 64.713 211.391 65.3958 211.391 66.0612V70.3508H209.466V66.6389C209.466 66.2538 209.466 65.6584 209.099 65.3083C208.802 64.9931 208.399 64.9581 208.207 64.9581C207.699 64.9581 207.315 65.1332 207.035 65.5534C206.755 65.9911 206.737 66.4814 206.737 66.8841V70.3683H204.813V63.5399L204.795 63.5224Z" fill="#004F79"/>
<path d="M219.21 59.8455V68.5999H222.447V70.3683H217.164V59.863H219.21V59.8455Z" fill="#004F79"/>
<path d="M230.284 68.4424C230.074 68.9501 229.304 70.5609 226.925 70.5609C225.823 70.5609 224.983 70.2458 224.319 69.598C223.566 68.8801 223.251 68.0046 223.251 66.9366C223.251 65.5884 223.811 64.748 224.284 64.2577C225.088 63.4698 226.033 63.2947 226.855 63.2947C228.237 63.2947 229.042 63.855 229.514 64.4153C230.232 65.2908 230.336 66.3588 230.336 67.0942V67.2518H225.228C225.228 67.6545 225.333 68.1097 225.561 68.4073C225.771 68.6875 226.19 69.0552 226.925 69.0552C227.66 69.0552 228.202 68.705 228.517 68.1622L230.284 68.4424ZM228.517 66.0261C228.36 65.0982 227.607 64.6604 226.89 64.6604C226.173 64.6604 225.438 65.1157 225.281 66.0261H228.517Z" fill="#004F79"/>
<path d="M233.73 64.4153C234.413 63.4698 235.375 63.3123 235.952 63.3123C237.964 63.3123 239.311 64.8705 239.311 66.9366C239.311 69.0026 237.929 70.5785 235.917 70.5785C235.48 70.5785 234.483 70.5084 233.748 69.4754V70.3508H231.823V58.865H233.748V64.4153H233.73ZM233.538 66.9366C233.538 68.0221 234.325 68.8801 235.427 68.8801C236.529 68.8801 237.317 68.0221 237.317 66.9366C237.317 65.851 236.529 65.0106 235.427 65.0106C234.325 65.0106 233.538 65.851 233.538 66.9366Z" fill="#004F79"/>
<path d="M247.463 68.4424C247.253 68.9501 246.483 70.5609 244.104 70.5609C243.002 70.5609 242.162 70.2458 241.498 69.598C240.745 68.8801 240.43 68.0046 240.43 66.9366C240.43 65.5884 240.99 64.748 241.463 64.2577C242.267 63.4698 243.212 63.2947 244.034 63.2947C245.416 63.2947 246.221 63.855 246.693 64.4153C247.411 65.2908 247.515 66.3588 247.515 67.0942V67.2518H242.407C242.407 67.6545 242.512 68.1097 242.74 68.4073C242.95 68.6875 243.369 69.0552 244.104 69.0552C244.839 69.0552 245.381 68.705 245.696 68.1622L247.463 68.4424ZM245.696 66.0261C245.539 65.0982 244.786 64.6604 244.069 64.6604C243.352 64.6604 242.617 65.1157 242.46 66.0261H245.696Z" fill="#004F79"/>
<path d="M249.002 63.5224H250.927V64.3978C251.294 63.89 251.941 63.2947 253.044 63.2947C253.638 63.2947 254.531 63.4698 255.055 64.1352C255.528 64.713 255.598 65.3958 255.598 66.0612V70.3508H253.673V66.6389C253.673 66.2538 253.673 65.6584 253.306 65.3083C253.009 64.9931 252.606 64.9581 252.414 64.9581C251.906 64.9581 251.522 65.1332 251.242 65.5534C250.962 65.9911 250.944 66.4814 250.944 66.8841V70.3683H249.02V63.5399L249.002 63.5224Z" fill="#004F79"/>
<path d="M262.998 58.865V70.3508H261.073V58.865H262.998Z" fill="#004F79"/>
<path d="M270.048 63.5224H271.972V70.3508H270.048V69.4754C269.348 70.4734 268.438 70.5785 267.948 70.5785C265.849 70.5785 264.467 68.9326 264.467 66.9366C264.467 64.9406 265.832 63.3122 267.861 63.3122C268.386 63.3122 269.4 63.3998 270.048 64.4153V63.5224ZM266.461 66.9366C266.461 68.0221 267.249 68.8801 268.351 68.8801C269.453 68.8801 270.24 68.0221 270.24 66.9366C270.24 65.851 269.453 65.0106 268.351 65.0106C267.249 65.0106 266.461 65.851 266.461 66.9366Z" fill="#004F79"/>
<path d="M273.791 63.5224H275.716V64.3978C276.083 63.89 276.73 63.2947 277.832 63.2947C278.427 63.2947 279.319 63.4698 279.844 64.1352C280.317 64.713 280.386 65.3958 280.386 66.0612V70.3508H278.462V66.6389C278.462 66.2538 278.462 65.6584 278.095 65.3083C277.797 64.9931 277.395 64.9581 277.203 64.9581C276.695 64.9581 276.31 65.1332 276.031 65.5534C275.751 65.9911 275.733 66.4814 275.733 66.8841V70.3683H273.809V63.5399L273.791 63.5224Z" fill="#004F79"/>
<path d="M287.402 63.5224H289.326V70.0357C289.326 71.0687 289.238 72.1543 288.381 73.0122C287.909 73.4849 287.087 73.9752 285.687 73.9752C284.358 73.9752 283.57 73.59 283.133 73.1873C282.591 72.732 282.188 71.9266 282.031 71.1562H284.113C284.183 71.4714 284.358 71.7866 284.585 71.9792C284.97 72.3293 285.477 72.3469 285.757 72.3469C286.317 72.3469 286.667 72.1543 286.929 71.9266C287.367 71.5064 287.419 70.9637 287.419 70.4209V69.4579C286.754 70.4734 285.845 70.596 285.32 70.596C284.41 70.596 283.623 70.3158 282.958 69.668C282.451 69.1602 281.873 68.2848 281.873 66.9541C281.873 65.8861 282.258 64.8881 282.923 64.2402C283.518 63.6624 284.358 63.3298 285.267 63.3298C286.544 63.3298 287.139 64.0301 287.402 64.4328V63.5224ZM284.463 65.4834C284.148 65.7635 283.85 66.2187 283.85 66.9366C283.85 67.5319 284.078 67.9696 284.358 68.2673C284.76 68.705 285.285 68.8626 285.74 68.8626C286.194 68.8626 286.684 68.6875 287.017 68.3898C287.419 68.0222 287.629 67.4794 287.629 66.9191C287.629 66.2713 287.349 65.8335 287.069 65.5534C286.684 65.1507 286.247 64.9931 285.74 64.9931C285.127 64.9931 284.707 65.2382 284.463 65.4658V65.4834Z" fill="#004F79"/>
<path d="M65.5092 22.2013L69.2703 0.0175093H74.9559L79.4343 11.8535L84.1926 0.0175093H89.9481L93.272 22.2013H87.5165L85.8895 9.43731L80.5364 22.2013H78.2447L73.119 9.43731L71.2297 22.2013H65.5092Z" fill="#004F79"/>
<path d="M109.506 4.9025H102.666V8.59688H109.139V13.4819H102.666V17.2988H109.506V22.1838H96.9107V0H109.506V4.9025Z" fill="#004F79"/>
<path d="M118.918 0.0175093V22.2013H113.162V0.0175093H118.918Z" fill="#004F79"/>
<path d="M123.571 22.2013V0.0175093H129.327L139.928 13.5869V0.0175093H145.684V22.2013H139.928L129.327 8.6319V22.2013H123.571Z" fill="#004F79"/>
<path d="M66.5063 51.9665V29.7827H75.0783C76.6703 29.7827 78.5596 30.0103 79.9241 31.516C80.6938 32.339 81.2886 33.7047 81.2886 35.6657C81.2886 36.6287 81.1137 37.4691 80.6589 38.3971C80.1865 39.255 79.6967 39.7628 78.857 40.1304C80.0116 40.2705 81.1837 40.7958 81.8834 41.4611C82.7756 42.3191 83.3704 43.7548 83.3704 45.5232C83.3704 47.6243 82.5657 49.0425 81.7435 49.8829C80.5539 51.1085 78.4546 51.984 75.7256 51.984H66.4888L66.5063 51.9665ZM72.2618 38.5371H73.3289C73.9237 38.5371 74.9209 38.4671 75.5157 37.8368C75.883 37.4691 76.0405 36.8738 76.0405 36.366C76.0405 35.8057 75.848 35.2279 75.5157 34.8778C75.1483 34.5101 74.4485 34.2124 73.3289 34.2124H72.2618V38.5371ZM72.2618 47.4842H73.5563C75.1483 47.4842 76.4778 47.3266 77.1076 46.5912C77.37 46.2936 77.5799 45.7858 77.5799 45.1555C77.5799 44.4551 77.3525 43.8949 77.0201 43.5622C76.3204 42.8618 74.8859 42.8268 73.4689 42.8268H72.2793V47.4842H72.2618Z" fill="#004F79"/>
<path d="M92.7821 29.7827V51.9665H87.0266V29.7827H92.7821Z" fill="#004F79"/>
<path d="M103.191 29.7827V47.0815H110.101V51.9665H97.4355V29.7827H103.191Z" fill="#004F79"/>
<path d="M113.058 29.7827H120.597C122.819 29.7827 126.545 30.0803 129.397 32.8467C131.986 35.333 132.493 38.5371 132.493 40.9359C132.493 43.8598 131.759 46.4512 129.607 48.6223C127.84 50.3907 124.883 51.984 121.105 51.984H113.058V29.7827ZM118.813 47.0815H119.985C121.385 47.0815 123.344 46.9414 124.831 45.4882C125.566 44.7878 126.528 43.3871 126.528 40.9359C126.528 38.8698 125.898 37.1189 124.796 36.0859C123.431 34.8252 121.647 34.6852 120.213 34.6852H118.813V47.099V47.0815Z" fill="#004F79"/>
<path d="M141.922 29.7827V42.9144C141.922 43.8423 141.957 45.2781 143.06 46.3461C143.724 46.9764 144.791 47.4141 145.789 47.4141C146.786 47.4141 147.818 47.0114 148.448 46.4512C149.777 45.2781 149.742 43.6497 149.742 42.4241V29.7827H155.498V42.5292C155.498 44.8578 155.393 47.2916 153.014 49.7078C151.159 51.5988 148.833 52.4742 145.701 52.4742C142.202 52.4742 139.718 51.2836 138.354 49.8129C136.429 47.7118 136.202 44.8929 136.202 42.5292V29.7827H141.957H141.922Z" fill="#004F79"/>
<path d="M160.134 51.9665V29.7827H165.889L176.49 43.3521V29.7827H182.246V51.9665H176.49L165.889 38.3971V51.9665H160.134Z" fill="#004F79"/>
<path d="M197.518 39.3951H208.959C208.959 43.7898 208.067 46.9064 205.408 49.3751C203.081 51.5287 200.422 52.1766 197.605 52.1766C193.617 52.1766 190.888 50.7058 189.103 48.8849C187.442 47.2216 185.92 44.5252 185.92 40.8658C185.92 37.2064 187.319 34.44 189.243 32.5491C191.063 30.7281 193.932 29.2924 197.85 29.2924C199.915 29.2924 202.136 29.7652 203.833 30.7807C205.565 31.8487 206.982 33.5996 207.787 35.333L202.311 37.5916C201.909 36.5586 201.279 35.8232 200.719 35.368C199.757 34.5626 198.725 34.265 197.623 34.265C196.258 34.265 194.859 34.7552 193.827 35.7882C192.532 37.0839 191.902 39.1499 191.902 40.8833C191.902 42.9144 192.637 44.5777 193.669 45.6808C194.736 46.8188 196.031 47.3791 197.728 47.3791C198.725 47.3791 199.88 47.2216 200.912 46.3461C201.437 45.9084 202.084 45.1205 202.276 43.8773H197.553V39.3776L197.518 39.3951Z" fill="#004F79"/>
<path d="M214.085 45.3131C215.309 46.4862 217.181 47.5717 219.175 47.5717C220.348 47.5717 221.03 47.204 221.397 46.8013C221.73 46.4687 221.957 45.9609 221.957 45.4006C221.957 44.9629 221.8 44.4727 221.327 44.07C220.767 43.5622 219.893 43.3346 218.476 42.8969L216.989 42.4241C216.062 42.1265 214.697 41.6187 213.805 40.6207C212.668 39.3951 212.545 37.8193 212.545 36.6987C212.545 33.9673 213.612 32.304 214.575 31.341C215.712 30.2029 217.566 29.2399 220.26 29.2399C222.447 29.2399 225.018 29.9403 227.1 31.0433L224.808 35.5256C223.077 34.1599 221.782 34.0373 221.012 34.0373C220.453 34.0373 219.683 34.1774 219.123 34.7027C218.791 35.0353 218.563 35.403 218.563 35.8933C218.563 36.296 218.633 36.5936 218.861 36.8913C219.035 37.0839 219.42 37.4866 220.785 37.8893L222.552 38.4146C223.951 38.8523 225.403 39.3425 226.575 40.6032C227.712 41.7938 228.01 43.0369 228.01 44.5602C228.01 46.5912 227.503 48.5522 225.911 50.1455C224.021 52.0365 221.73 52.4042 219.368 52.4042C217.968 52.4042 216.639 52.2641 215.012 51.6688C214.645 51.5288 213.245 51.0035 211.653 49.9004L214.12 45.243L214.085 45.3131Z" fill="#004F79"/>
<path d="M240.57 29.7827C242.232 29.7827 244.367 30.0453 245.994 31.7437C247.253 33.0393 247.883 34.9653 247.883 36.7337C247.883 38.6247 247.218 40.288 246.116 41.3561C245.259 42.1965 244.087 42.6867 243.055 42.8793L250 51.9665H242.862L237.352 43.4571V51.9665H231.596V29.7827H240.57ZM237.352 39.7277H238.454C239.311 39.7277 240.553 39.5001 241.253 38.8348C241.69 38.3971 241.987 37.6617 241.987 36.9788C241.987 36.296 241.725 35.5781 241.218 35.1229C240.693 34.5976 239.713 34.265 238.454 34.265H237.352V39.7452V39.7277Z" fill="#004F79"/>
<path d="M265.954 48.2371H257.907L256.42 51.9665H250.332L258.834 29.7827H265.114L273.459 51.9665H267.319L265.954 48.2371ZM264.432 43.8423L261.948 36.6637L259.516 43.8423H264.432Z" fill="#004F79"/>
<path d="M281.786 29.7827V42.9144C281.786 43.8423 281.821 45.2781 282.923 46.3461C283.588 46.9764 284.655 47.4141 285.652 47.4141C286.649 47.4141 287.681 47.0114 288.311 46.4512C289.641 45.2781 289.606 43.6497 289.606 42.4241V29.7827H295.361V42.5292C295.361 44.8578 295.256 47.2916 292.877 49.7078C291.023 51.5988 288.696 52.4742 285.565 52.4742C282.083 52.4742 279.582 51.2836 278.217 49.8129C276.293 47.7118 276.066 44.8929 276.066 42.5292V29.7827H281.821H281.786Z" fill="#004F79"/>
<path d="M299 51.9665L302.761 29.7827H308.447L312.925 41.6187L317.684 29.7827H323.439L326.763 51.9665H321.007L319.38 39.2025L314.027 51.9665H311.736L306.61 39.2025L304.721 51.9665H299Z" fill="#004F79"/>
<path d="M0.221924 29.2925V0.0175781H29.4892L20.7423 8.77204H8.96887V20.538L0.221924 29.2925Z" fill="#AAD1E6"/>
<path d="M31.746 43.3347H43.5019V31.5687L52.2488 22.8142V52.0891H22.999L31.746 43.3347Z" fill="#004F79"/>
<path d="M8.96887 30.448V43.3346H21.8444L13.0974 52.089H0.221924V39.2025L8.96887 30.448Z" fill="#0077B6"/>
<path d="M31.746 43.3345L22.999 52.0889H34.7549V43.3345H31.746Z" fill="#0077B6"/>
<path d="M8.96887 17.5264H0.221924V29.2924L8.96887 20.5379V17.5264Z" fill="#0077B6"/>
<path d="M39.3733 0.0175781L30.6263 8.77204V21.6586H43.5018L52.2488 12.9041V0.0175781H39.3733Z" fill="#CD5038"/>
</svg>
