<svg width="260" height="160" viewBox="0 0 260 160" fill="none" xmlns="http://www.w3.org/2000/svg">
<path fill-rule="evenodd" clip-rule="evenodd" d="M217.883 116.717C235.031 116.717 248.925 123.951 248.925 132.858C248.925 141.766 235.018 149 217.883 149C200.749 149 186.842 141.766 186.842 132.858C186.842 123.951 200.749 116.717 217.883 116.717Z" fill="#C2C7CF"/>
<path d="M222.354 98.2747C222.047 97.9534 221.753 97.6461 221.474 97.3528C220.244 96.0815 219.225 95.1316 218.331 94.3772C218.163 93.9023 218.023 93.3994 217.884 92.7847C216.179 84.5705 216.319 77.3343 216.487 76.0631C216.738 74.0933 207.546 73.8838 207.546 73.8838C207.546 73.8838 207.476 84.2632 207.295 88.063C207.099 92.2818 207.099 93.8324 209.362 96.2911C211.639 98.7637 215.802 102.522 219.755 106.028C220.594 103.444 221.46 100.873 222.34 98.2887L222.354 98.2747Z" fill="#F0BC96"/>
<path d="M231.842 108.752C229.97 107.159 225.123 101.641 221.058 97.2549C220.191 99.7694 219.353 102.284 218.543 104.812C221.798 107.69 224.745 110.275 226.128 111.658C230.85 116.365 231.158 120.738 231.688 122.61C232.219 124.482 236.019 122.568 235.907 119.089C235.795 115.625 235.614 115.122 235.991 113.557C236.368 112.007 234.72 111.155 231.842 108.738V108.752Z" fill="#F0BC96"/>
<path d="M234.037 109.171C234.037 109.171 234.009 109.157 233.995 109.143C233.855 109.073 233.771 109.045 233.771 109.045C232.891 108.71 231.829 108.752 231.829 108.752C231.829 108.752 235.406 112.747 234.959 116.547C234.456 120.793 233.687 122.19 231.676 122.624C231.676 122.624 232.039 124.076 232.36 126.94C232.528 128.477 233.967 128.589 235.825 126.172C236.817 124.901 237.739 122.624 237.361 120.598C236.984 118.461 236.286 116.463 236.286 114.787C236.286 114.521 236.286 114.298 236.286 114.074C237.403 114.94 238.046 115.583 238.856 116.211C239.401 116.309 239.624 115.89 239.597 115.387C238.898 114.479 237.948 113.99 236.817 112.146C235.615 110.177 234.526 109.436 234.037 109.185V109.171Z" fill="#3A4857"/>
<path d="M229.774 82.112C230.71 80.3658 218.933 77.3623 218.933 77.3623C218.933 77.3623 217.718 86.2889 216.894 89.9908C215.65 95.5927 215.399 98.3167 216.014 106.154C216.293 109.632 215.483 122.526 214.645 126.996C213.401 133.548 210.747 136.37 209.504 137.865C208.26 139.359 211.18 141.301 213.974 139.248C216.782 137.208 217.634 135.546 219.143 134.987C220.638 134.428 220.093 133.129 220.484 129.399C220.791 126.507 223.096 117.762 224.395 111.686C226.239 103.052 224.353 102.605 225.08 98.205C226.435 89.935 229.173 83.2295 229.788 82.084L229.774 82.112Z" fill="#FFDCC4"/>
<path d="M221.519 131.411C221.519 131.411 221.519 131.383 221.519 131.369C221.491 131.215 221.463 131.132 221.463 131.132C221.184 130.237 220.499 129.427 220.499 129.427C220.499 129.427 219.577 134.708 216.322 136.705C212.69 138.941 211.098 139.206 209.519 137.879C209.519 137.879 208.611 139.066 206.544 141.092C205.44 142.168 206.236 143.369 209.296 143.341C210.902 143.327 213.263 142.643 214.632 141.106C216.071 139.485 217.216 137.711 218.529 136.664C218.739 136.496 218.907 136.356 219.088 136.216C219.088 137.627 218.99 138.535 219.004 139.555C219.27 140.044 219.731 139.96 220.108 139.625C220.387 138.521 220.178 137.46 220.932 135.434C221.742 133.283 221.645 131.956 221.533 131.425L221.519 131.411Z" fill="#3A4857"/>
<path d="M207.232 89.2387C210.598 92.4517 214.482 96.6845 219.441 96.7683C223.66 96.8382 223.939 96.461 225.867 95.3294C227.753 89.6997 232.223 79.7673 232.712 73.3552C233.117 68.1725 231.315 60.7407 229.429 58.2541C229.429 58.2401 225.322 56.5218 223.003 56.4799C218.757 56.4101 214.007 57.5556 209.984 55.9072C209.746 55.8094 209.579 55.9491 209.509 56.1307C209.439 56.1307 209.369 56.1586 209.341 56.2564C207.413 63.4787 206.841 77.9792 207.218 89.2387H207.232Z" fill="#183248"/>
<path d="M194.346 50.2889C194.346 50.2889 200.786 40.4962 203.356 35.9002C205.535 32.0167 208.273 25.0598 212.031 21.0086C214.099 18.7735 214.783 19.891 217.27 21.3299C224.283 25.3671 212.031 35.3135 212.031 35.3135C212.031 35.3135 204.963 44.4496 203.356 47.2575C202.49 48.7662 197.908 53.7674 197.908 53.7674L194.346 50.3029V50.2889Z" fill="#FFB174"/>
<path d="M205.787 31.0946C205.787 31.0946 207.38 22.3077 210.411 20.3101C213.428 18.3124 217.033 20.2123 217.34 20.827C217.647 21.4416 210.649 33.7628 210.649 33.7628C210.649 33.7628 207.212 31.9607 205.787 31.0946Z" fill="#B9C8DA"/>
<path d="M205.969 30.2148L205.271 32.1427C205.271 32.1427 208.735 33.7072 210.551 35.0204C212.367 36.3335 212.73 34.5315 211.571 33.2183C210.146 31.6118 205.969 30.2148 205.969 30.2148Z" fill="#D5E4F6"/>
<path d="M210.481 48.2215C210.397 49.7023 209.866 54.0887 209.349 56.1981C212.032 62.6381 226.267 63.8116 230.206 59.0479C229.661 55.8489 228.278 47.1877 228.446 44.1703C228.446 44.1703 235.375 36.501 233.419 28.678C232.818 26.3031 227.203 23.7467 227.203 23.7467C227.203 23.7467 223.151 26.9737 221.726 28.0912C220.357 29.1669 218.08 31.905 217.885 32.1424H217.857C217.885 31.6954 218.164 28.0633 219.575 24.2077C220.022 22.9923 219.338 19.4301 219.338 19.4301C219.338 19.4301 218.765 19.2904 217.955 19.1367C216.725 20.5057 214.295 24.1239 212.981 25.6326C211.71 27.0854 207.98 32.1005 209.126 36.8502C210.104 40.9014 210.607 46.2238 210.509 48.2215H210.481Z" fill="#D5E4F6"/>
<path d="M225.485 21.0645C225.485 21.0645 224.326 25.7163 222.65 27.3927C220.973 29.069 217.369 32.7291 217.369 32.7291C217.369 32.7291 221.211 33.1342 223.6 33.7768C225.36 32.0306 227.902 27.0435 227.902 25.4928C227.902 21.3159 225.472 21.0645 225.472 21.0645H225.485Z" fill="#B9C8DA"/>
<path d="M217.272 21.3159C217.272 21.3159 213.668 26.7501 212.83 29.2088C214.367 30.2146 217.37 32.7291 217.37 32.7291L219.354 22.4055L217.258 21.3159H217.272Z" fill="#B9C8DA"/>
<path d="M212.228 7.83526C212.228 7.83526 210.705 12.4313 211.571 23.0063C211.92 27.3788 213.82 30.7734 213.82 30.7734C213.82 30.7734 216.097 24.4731 219.366 22.3916C221.671 20.9248 218.221 18.1867 218.221 18.1867L212.228 7.82129V7.83526Z" fill="#FFDCC4"/>
<path d="M218.233 26.2193C217.633 27.1553 217.018 30.1308 217.381 32.7152C218.722 31.9608 221.265 29.5301 222.718 27.7839C224.114 26.1076 225.12 24.6827 225.595 22.6571C225.386 20.9388 225.372 17.8515 226.266 14.0099C223.681 12.8504 218.904 19.947 218.904 19.947C218.904 19.947 218.96 24.0261 218.233 26.2054V26.2193Z" fill="#F0BC96"/>
<path d="M225.597 5.26492C223.138 2.9739 216.908 1.71664 213.974 7.989C210.887 14.5687 216.223 23.6909 219.66 22.5733C221.587 21.9447 225.736 19.4441 227.175 15.9657C228.796 12.0402 227.511 7.03906 225.597 5.26492Z" fill="#FFDCC4"/>
<path d="M226.992 41.8932C226.992 41.8932 220.776 54.5357 219.127 57.0642C217.465 59.5927 205.325 64.1049 205.325 64.1049C205.325 64.1049 204.166 65.2224 205.898 65.9628C206.68 66.2981 209.209 67.0525 210.704 66.7032C215.495 65.5717 222.634 61.9536 224.394 60.4029C227.844 57.3436 233.739 44.4496 233.739 44.4496C233.739 44.4496 230.568 41.7255 226.992 41.8932Z" fill="#FFDCC4"/>
<path d="M227.554 41.3764C227.554 41.3764 226.073 29.628 230.851 27.0157C234.972 24.7666 238.422 29.1949 238.394 33.763C238.352 38.2752 234.022 43.6255 234.022 43.6255L227.554 41.3764Z" fill="#B9C8DA"/>
<path d="M227.429 39.9937L227.01 41.8935C227.01 41.8935 228.351 42.2567 230.46 43.067C232.57 43.8772 233.757 44.45 233.757 44.45L234.763 42.6479C234.763 42.6479 232.262 41.0414 227.443 39.9937H227.429Z" fill="#D5E4F6"/>
<path d="M219.365 8.60368C219.365 8.60368 219.072 13.4232 221.321 16.8877C223.57 20.3521 223.626 23.4674 223.542 27.0156C223.402 33.1762 221.754 35.0202 221.754 35.0202C221.754 35.0202 229.493 32.3939 230.331 23.3137C231.141 14.6106 230.96 7.75153 228.725 4.51058C226.685 1.56299 222.62 2.26147 222.62 2.26147C222.62 2.26147 217.353 -1.66399 213.023 5.85167C211.067 9.23231 212.213 11.9424 213.023 13.2137C214.979 9.0088 219.351 8.60368 219.351 8.60368H219.365Z" fill="#410005"/>
<path d="M208.888 60.864L208.832 66.0048L192.264 56.5055L192.25 51.3228L208.888 60.864Z" fill="#FFB174"/>
<path d="M205.453 60.4588L205.425 62.4844L196.554 57.3855L196.54 55.3599L205.453 60.4588Z" fill="white"/>
<path d="M208.024 60.3611L207.954 65.5159L206.767 64.8314L206.809 59.6626L208.024 60.3611Z" fill="white"/>
<path d="M194.502 54.1865C193.943 53.8652 193.482 54.0608 193.482 54.6196C193.482 55.1783 193.943 55.8908 194.502 56.2261C195.061 56.5474 195.522 56.3518 195.522 55.793C195.522 55.2342 195.061 54.5218 194.502 54.1865Z" fill="#191C20"/>
<path d="M208.888 60.864L192.25 51.3228L206.541 42.9829L223.193 52.5381L208.888 60.864Z" fill="#FFDCC4"/>
<path d="M223.192 53.3204L209.446 61.297L209.46 64.9431L223.192 57.0642V57.5671L208.831 66.0048L208.887 60.864L223.192 52.5381V53.3204Z" fill="#FFB174"/>
<path d="M209.449 61.297L223.195 53.3203V57.0642L209.463 64.943L209.449 61.297Z" fill="white"/>
<path d="M208.888 55.0246L208.832 60.1794L192.264 50.6801L192.25 45.4834L208.888 55.0246Z" fill="#3A4857"/>
<path d="M205.453 54.6334L205.425 56.645L196.554 51.5601L196.54 49.5205L205.453 54.6334Z" fill="white"/>
<path d="M208.024 54.5359L207.954 59.6767L206.767 59.0062L206.809 53.8374L208.024 54.5359Z" fill="white"/>
<path d="M194.502 48.3471C193.943 48.0258 193.482 48.2214 193.482 48.7802C193.482 49.339 193.943 50.0514 194.502 50.3867C195.061 50.708 195.522 50.5124 195.522 49.9536C195.522 49.3949 195.061 48.6824 194.502 48.3611V48.3471Z" fill="#191C20"/>
<path d="M208.888 55.0249L192.25 45.4836L206.541 37.1577L223.193 46.7129L208.888 55.0249Z" fill="#007BBD"/>
<path d="M223.192 47.4812L209.446 55.4718L209.46 59.1179L223.192 51.2391V51.742L208.831 60.1796L208.887 55.0248L223.192 46.7129V47.4812Z" fill="#3A4857"/>
<path d="M209.449 55.4716L223.195 47.481V51.2388L209.463 59.1177L209.449 55.4716Z" fill="white"/>
<path d="M208.888 49.1018L208.832 54.2566L192.264 44.7572L192.25 39.5605L208.888 49.1018Z" fill="#FFB174"/>
<path d="M205.453 48.7105L205.425 50.7222L196.554 45.6372L196.54 43.5977L205.453 48.7105Z" fill="white"/>
<path d="M208.024 48.6125L207.954 53.7673L206.767 53.0828L206.809 47.9141L208.024 48.6125Z" fill="white"/>
<path d="M194.502 42.4243C193.943 42.103 193.482 42.2986 193.482 42.8574C193.482 43.4161 193.943 44.1286 194.502 44.4499C195.061 44.7712 195.522 44.5756 195.522 44.0168C195.522 43.458 195.061 42.7456 194.502 42.4103V42.4243Z" fill="#191C20"/>
<path d="M208.888 49.1015L192.25 39.5603L206.541 31.2344L223.193 40.7896L208.888 49.1015Z" fill="#F0BC96"/>
<path d="M223.192 41.5719L209.446 49.5485L209.46 53.1946L223.192 45.3157V45.8186L208.831 54.2563L208.887 49.1015L223.192 40.7896V41.5719Z" fill="#FFB174"/>
<path d="M209.449 49.5484L223.195 41.5718V45.3156L209.463 53.1945L209.449 49.5484Z" fill="white"/>
<path d="M194.039 58.9223C193.117 57.8467 192.474 55.6954 193.48 54.6197C194.486 53.544 196.106 55.2344 196.553 57.0504C196.833 58.2239 197.266 59.3694 197.266 59.3694L198.677 60.1796C198.677 60.1796 196.288 61.5207 194.053 58.9223H194.039Z" fill="#FFDCC4"/>
<path d="M203.93 64.5522C203.008 63.4766 202.366 61.3252 203.372 60.2496C204.377 59.1739 205.998 60.8642 206.445 62.6803C206.724 63.8537 207.157 64.9992 207.157 64.9992L208.568 65.8095C208.568 65.8095 206.179 67.1506 203.944 64.5522H203.93Z" fill="#FFDCC4"/>
<g clip-path="url(#clip0_68547_66474)">
<path d="M69.3049 86.2921L52.189 96.1787L40.791 89.5918L57.8943 79.7178L69.3049 86.2921Z" fill="#F8F9FF"/>
<path d="M42.0629 83.6348L33.2216 96.6323L18.209 93.2318L27.0503 80.2217L42.0629 83.6348Z" fill="#F2F3F9"/>
<path d="M10.1484 78.7732L31.8865 72.6396L38.9646 81.0024L17.2265 87.1359L10.1484 78.7732Z" fill="white"/>
<path d="M103.915 78.7483L92.8948 91.1917L78.5371 86.9473L89.5573 74.5166L103.915 78.7483Z" fill="white"/>
<path d="M39.4177 129L26.8232 117.073L40.589 112.237L53.1834 124.164L39.4177 129Z" fill="#F8F9FF"/>
<path d="M81.3698 110.952L75.1104 97.451L90.6897 95.0454L96.9491 108.534L81.3698 110.952Z" fill="white"/>
<path d="M47.6299 107.35L67.7684 99.6045L76.6979 107.363L56.5594 115.096L47.6299 107.35Z" fill="white"/>
<g style="mix-blend-mode:multiply" opacity="0.5">
<path d="M75.0731 69.2144L51.1562 83.0179L69.4812 93.5972H80.5769L75.0731 69.2144Z" fill="#73777F"/>
</g>
<path d="M82.3413 63.1309L82.3036 79.6548L56.3086 94.7681L56.3464 78.2568L82.3413 63.1309Z" fill="#E4AF6E"/>
<path d="M56.3456 78.2569L56.3078 94.7682L37.4287 83.874L37.4665 67.3501L56.3456 78.2569Z" fill="#C98D56"/>
<path d="M82.3399 63.131L56.3449 78.257L37.4658 67.3502L63.4608 52.2368L82.3399 63.131Z" fill="#FFC98E"/>
<path opacity="0.7" d="M71.3074 56.7329L45.1865 71.8211V75.675L47.3654 76.9344V73.0427L73.4611 57.9798L71.3074 56.7329Z" fill="#623F21"/>
<g style="mix-blend-mode:multiply" opacity="0.9">
<path d="M46.3836 72.5012L72.4793 57.4382L72.2023 57.2871L46.1191 72.3501L46.3836 72.5012Z" fill="#C58C67"/>
</g>
<path d="M81.0555 70.3601L73.2344 74.8689V69.9067L81.0555 65.3853V70.3601Z" fill="#F8F9FF"/>
<path opacity="0.4" d="M66.2943 82.8159L58.6494 87.2366V86.5691L66.2943 82.1484V82.8159ZM65.2363 84.1635L59.7073 87.3499V87.6018L65.2363 84.4154V84.1635ZM65.2363 85.0074L59.7073 88.1938V88.4457L65.2363 85.2593V85.0074ZM65.2363 85.8386L59.7073 89.025V89.2769L65.2363 86.0905V85.8386ZM65.2363 86.6824L59.7073 89.8688V90.1207L65.2363 86.9343V86.6824ZM65.2363 87.5137L59.7073 90.7001V90.952L65.2363 87.7656V87.5137Z" fill="#1D1D00"/>
<path opacity="0.4" d="M79.9587 66.7456L74.4297 69.932V70.1839L79.9587 66.9975V66.7456ZM79.9587 67.5768L74.4297 70.7632V71.0151L79.9587 67.8287V67.5768ZM79.9587 68.4207L74.4297 71.6071V71.859L79.9587 68.6726V68.4207ZM79.9587 69.2519L74.4297 72.4383V72.6902L79.9587 69.5038V69.2519ZM79.9587 70.0957L74.4297 73.2821V73.534L79.9587 70.3476V70.0957Z" fill="#1D1D00"/>
<g style="mix-blend-mode:multiply" opacity="0.9">
<path d="M45.1865 71.8213V75.6752L47.3654 76.9346V73.0429L45.1865 71.8213Z" fill="#C58C67"/>
</g>
<path d="M58.0835 78.8362C57.9953 79.0503 57.7812 79.2267 57.6301 79.2267C57.479 79.2267 57.416 79.0503 57.5042 78.8362C57.5923 78.6221 57.8064 78.4458 57.9576 78.4458C58.1087 78.4458 58.1717 78.6221 58.0835 78.8362Z" fill="#42474E"/>
<path d="M59.2915 78.1311C59.2034 78.3453 58.9892 78.5216 58.8381 78.5216C58.687 78.5216 58.624 78.3453 58.7122 78.1311C58.8003 77.917 59.0144 77.7407 59.1656 77.7407C59.3167 77.7407 59.3797 77.917 59.2915 78.1311Z" fill="#42474E"/>
<path d="M60.5132 77.4383C60.425 77.6524 60.2109 77.8287 60.0598 77.8287C59.9087 77.8287 59.8457 77.6524 59.9338 77.4383C60.022 77.2242 60.2361 77.0479 60.3873 77.0479C60.5384 77.0479 60.6014 77.2242 60.5132 77.4383Z" fill="#42474E"/>
<path d="M78.4614 46.519L78.411 63.0304L52.416 78.1437L52.4664 61.6324L78.4614 46.519Z" fill="#E4AF6E"/>
<path d="M52.4666 61.6325L52.4162 78.1438L33.5371 67.2496L33.5875 50.7383L52.4666 61.6325Z" fill="#C98D56"/>
<path d="M78.46 46.5191L52.465 61.6325L33.5859 50.7382L59.5809 35.6123L78.46 46.5191Z" fill="#FFC98E"/>
<path opacity="0.7" d="M67.4284 40.1084L41.2949 55.1966V59.0505L43.4864 60.3099V56.4308L69.5821 41.3552L67.4284 40.1084Z" fill="#623F21"/>
<g style="mix-blend-mode:multiply" opacity="0.9">
<path d="M42.5037 55.8767L68.5995 40.8137L68.3224 40.6626L42.2393 55.7256L42.5037 55.8767Z" fill="#C58C67"/>
</g>
<path d="M77.1766 53.7356L69.3555 58.2444V53.2822L77.1766 48.7607V53.7356Z" fill="#F8F9FF"/>
<path opacity="0.4" d="M62.4153 66.1914L54.7705 70.6121V69.9446L62.4153 65.5239V66.1914ZM61.3574 67.539L55.8284 70.7254V70.9773L61.3574 67.7909V67.539ZM61.3574 68.3829L55.8284 71.5693V71.8212L61.3574 68.6348V68.3829ZM61.3574 69.2141L55.8284 72.4005V72.6524L61.3574 69.466V69.2141ZM61.3574 70.0579L55.8284 73.2443V73.4962L61.3574 70.3098V70.0579ZM61.3574 70.8892L55.8284 74.0756V74.3274L61.3574 71.1411V70.8892Z" fill="#1D1D00"/>
<path opacity="0.4" d="M76.0817 50.1211L70.5527 53.3075V53.5594L76.0817 50.373V50.1211ZM76.0817 50.9523L70.5527 54.1387V54.3906L76.0817 51.2042V50.9523ZM76.0817 51.7962L70.5527 54.9826V55.2344L76.0817 52.048V51.7962ZM76.0817 52.6274L70.5527 55.8138V56.0657L76.0817 52.8793V52.6274ZM76.0817 53.4712L70.5527 56.6576V56.9095L76.0817 53.7231V53.4712Z" fill="#1D1D00"/>
<g style="mix-blend-mode:multiply" opacity="0.9">
<path d="M41.2949 55.1963V59.0502L43.4864 60.3096V56.4305L41.2949 55.1963Z" fill="#C58C67"/>
</g>
<path d="M54.2534 62.2996C54.1653 62.5137 53.9512 62.69 53.8 62.69C53.6489 62.69 53.5859 62.5137 53.6741 62.2996C53.7622 62.0855 53.9763 61.9092 54.1275 61.9092C54.2786 61.9092 54.3416 62.0855 54.2534 62.2996Z" fill="#42474E"/>
<path d="M55.4634 61.5945C55.3752 61.8086 55.1611 61.985 55.01 61.985C54.8589 61.985 54.7959 61.8086 54.884 61.5945C54.9722 61.3804 55.1863 61.2041 55.3374 61.2041C55.4886 61.2041 55.5516 61.3804 55.4634 61.5945Z" fill="#42474E"/>
<path d="M56.6714 60.9017C56.5832 61.1158 56.3691 61.2921 56.218 61.2921C56.0669 61.2921 56.0039 61.1158 56.0921 60.9017C56.1802 60.6875 56.3943 60.5112 56.5455 60.5112C56.6966 60.5112 56.7596 60.6875 56.6714 60.9017Z" fill="#42474E"/>
<path d="M56.5443 58.2318L39.2773 48.2695V33.3325L56.5443 43.2947V58.2318Z" fill="#C98D56"/>
<path d="M79.8708 44.7681L56.5459 58.2316V43.2945L79.8708 29.8311V44.7681Z" fill="#E4AF6E"/>
<path d="M56.5443 43.2947L39.2773 33.3325L62.6023 19.8564L79.8693 29.8313L56.5443 43.2947Z" fill="#FFC98E"/>
<path d="M39.7295 33.3323L62.601 20.1333L79.4146 29.831L56.5431 43.03L39.7295 33.3323Z" fill="#E4AF6E"/>
<path d="M62.6016 20.1333V39.5414L79.4152 29.831L62.6016 20.1333Z" fill="#C98D56"/>
<path d="M79.8451 29.8437L62.5781 19.8689L68.296 13.6221L85.5756 23.5969L79.8451 29.8437Z" fill="#EFB973"/>
<path d="M56.5469 43.2947L39.2799 33.3325L31.6729 34.7053L48.9399 44.6675L56.5469 43.2947Z" fill="#FFC98E"/>
<path d="M39.3158 33.3198L62.6156 19.8689L56.9355 14.0503L33.6357 27.5012L39.3158 33.3198Z" fill="#FEC885"/>
<path d="M56.5469 43.2823L79.8592 29.8188L87.6426 31.6702L64.3428 45.1337L56.5469 43.2823Z" fill="#FFC98E"/>
<mask id="mask0_68547_66474" style="mask-type:luminance" maskUnits="userSpaceOnUse" x="26" y="9" width="62" height="35">
<path d="M39.733 33.3325L28.3602 30.3728L26.874 23.5214L64.0781 9L87.6423 19.9446L79.4181 29.8312L56.5466 43.0302L39.733 33.3325Z" fill="white"/>
</mask>
<g mask="url(#mask0_68547_66474)">
<path d="M52.001 42.3499L61.0186 35.4355L77.6811 42.6774L68.676 49.5917L52.001 42.3499Z" fill="#ECEEF4"/>
<path d="M52.0498 41.0529L63.0322 35.1587L77.2387 43.9748L66.269 49.869L52.0498 41.0529Z" fill="white"/>
<path d="M66.6067 48.9749L52.123 40.713V37.917L66.6067 46.179V48.9749Z" fill="#C2C7CF"/>
<path d="M76.7324 42.9172L66.6064 48.9751V46.1791L76.7324 40.1338V42.9172Z" fill="#D8DAE0"/>
<path d="M66.28 46.1789L51.9727 37.9169L62.4638 31.8716L76.7711 40.1335L66.28 46.1789Z" fill="white"/>
<path d="M52.6924 37.3879L63.6622 31.4937L77.8813 40.3098L66.8989 46.204L52.6924 37.3879Z" fill="white"/>
<path d="M66.9241 45.8135L52.4404 37.5516V35.6372L66.9241 43.8992V45.8135Z" fill="#C2C7CF"/>
<path d="M76.7353 39.7678L66.6094 45.8131V43.8988L76.7353 37.8408V39.7678Z" fill="#D8DAE0"/>
<path d="M66.7477 43.899L52.4404 35.637L62.9316 29.5791L77.2389 37.8411L66.7477 43.899Z" fill="white"/>
<path d="M65.1622 43.4461L52.127 35.1842V32.3882L65.1622 40.6501V43.4461Z" fill="#C2C7CF"/>
<path d="M76.7354 37.3879L65.1611 43.4458V40.6498L76.7354 34.6045V37.3879Z" fill="#D8DAE0"/>
<path d="M65.7282 40.6501L51.4209 32.3881L61.8995 26.3428L76.2068 34.6047L65.7282 40.6501Z" fill="white"/>
<path d="M52.252 31.7331L63.2217 25.8389L77.4409 34.655L66.4585 40.5492L52.252 31.7331Z" fill="white"/>
<path d="M66.6067 40.4235L52.123 32.1615V29.8945L66.6067 38.1565V40.4235Z" fill="#C2C7CF"/>
<path d="M76.7324 34.3656L66.6064 40.4236V38.1566L76.7324 32.0986V34.3656Z" fill="#D8DAE0"/>
<path d="M66.28 38.1563L51.9727 29.8944L62.4638 23.8364L76.7711 32.0984L66.28 38.1563Z" fill="white"/>
<path d="M52.3398 28.3956L64.7958 23.5845L76.4079 33.5971L63.9519 38.4081L52.3398 28.3956Z" fill="white"/>
<path d="M66.723 38.2193L52.252 29.9573V28.043L66.723 36.3049V38.2193Z" fill="#C2C7CF"/>
<path d="M77.0502 32.174L66.6094 38.2194V36.305L77.0502 30.2471V32.174Z" fill="#D8DAE0"/>
<path d="M66.5593 36.3048L52.252 28.0428L62.7305 21.9849L77.0504 30.2468L66.5593 36.3048Z" fill="white"/>
<path d="M40.7539 48.8362L49.7715 41.9219L66.434 49.1763L57.429 56.0906L40.7539 48.8362Z" fill="#ECEEF4"/>
<path d="M40.8037 47.5392L51.7861 41.645L65.9926 50.4737L55.0229 56.3679L40.8037 47.5392Z" fill="white"/>
<path d="M55.0348 52.6773L40.7275 44.4154L51.2187 38.3574L65.526 46.6194L55.0348 52.6773Z" fill="white"/>
<path d="M41.4463 43.8742L52.4161 37.98L66.6352 46.8087L55.6528 52.7029L41.4463 43.8742Z" fill="white"/>
<path d="M55.678 52.3125L41.1943 44.0505V42.1235L55.678 50.3855V52.3125Z" fill="#C2C7CF"/>
<path d="M55.5016 50.3854L41.1943 42.1361L51.6855 36.0781L65.9928 44.3401L55.5016 50.3854Z" fill="white"/>
<path d="M53.9151 49.9447L40.8799 41.6827V38.8867L53.9151 47.1487V49.9447Z" fill="#C2C7CF"/>
<path d="M65.501 43.8868L53.9141 49.9447V47.1488L65.501 41.0908V43.8868Z" fill="#D8DAE0"/>
<path d="M54.4811 47.1485L40.1738 38.8865L50.6524 32.8286L64.9723 41.0906L54.4811 47.1485Z" fill="white"/>
<path d="M41.0049 38.2189L51.9747 32.3247L66.1938 41.1534L55.2114 47.0476L41.0049 38.2189Z" fill="white"/>
</g>
<path d="M66.0301 50.6501L58.209 55.1589V50.1967L66.0301 45.6753V50.6501Z" fill="#F8F9FF"/>
<path opacity="0.4" d="M64.9333 47.0352L59.4043 50.2216V50.4734L64.9333 47.287V47.0352ZM64.9333 47.8664L59.4043 51.0528V51.3047L64.9333 48.1183V47.8664ZM64.9333 48.7102L59.4043 51.8966V52.1485L64.9333 48.9621V48.7102ZM64.9333 49.5415L59.4043 52.7279V52.9797L64.9333 49.7933V49.5415ZM64.9333 50.3853L59.4043 53.5717V53.8236L64.9333 50.6372V50.3853Z" fill="#1D1D00"/>
<path d="M80.5762 93.6222L94.3797 85.6625V82.9673L80.5762 90.9396V93.6222Z" fill="#D8DAE0"/>
<path d="M70.4639 87.7909L80.5772 93.6222V90.9395L70.4639 85.0957V87.7909Z" fill="#C2C7CF"/>
<path d="M80.5772 90.9397L94.3807 82.9674L84.2674 77.1235L70.4639 85.0958L80.5772 90.9397Z" fill="white"/>
<path d="M93.6884 82.4511L83.109 76.771L69.4062 85.2723L79.9856 90.9524L93.6884 82.4511Z" fill="white"/>
<path d="M79.8945 91.0528L93.6981 83.0931V81.2417L79.8945 89.2014V91.0528Z" fill="#D8DAE0"/>
<path d="M69.7822 85.2088L79.8956 91.0526V89.2012L69.7822 83.3574V85.2088Z" fill="#C2C7CF"/>
<path d="M79.8956 89.2015L93.6991 81.2418L83.5858 75.3979L69.7822 83.3576L79.8956 89.2015Z" fill="white"/>
<path d="M79.7207 89.6925L93.5242 81.7328V79.0376L79.7207 86.9973V89.6925Z" fill="#D8DAE0"/>
<path d="M69.6201 83.8486L79.7209 89.6925V86.9973L69.6201 81.166V83.8486Z" fill="#C2C7CF"/>
<path d="M79.7209 86.9974L93.5244 79.0377L83.411 73.1938L69.6201 81.1661L79.7209 86.9974Z" fill="white"/>
<path d="M93.7128 79.2645L83.1334 73.5718L69.4307 82.0856L80.01 87.7657L93.7128 79.2645Z" fill="white"/>
<path d="M79.5303 86.9343L93.3338 78.9746V76.7832L79.5303 84.7555V86.9343Z" fill="#D8DAE0"/>
<path d="M69.418 81.1031L79.5313 86.9343V84.7555L69.418 78.9116V81.1031Z" fill="#C2C7CF"/>
<path d="M79.5313 84.7556L93.3348 76.7833L83.2215 70.9395L69.418 78.9117L79.5313 84.7556Z" fill="white"/>
<path d="M79.8945 84.5163L93.6981 76.5566V75.7002L79.8945 83.6725V84.5163Z" fill="#D8DAE0"/>
<path d="M69.7822 78.6724L79.8956 84.5163V83.6724L69.7822 77.8286V78.6724Z" fill="#C2C7CF"/>
<path d="M79.8956 83.6727L93.6991 75.7004L83.5858 69.8691L69.7822 77.8288L79.8956 83.6727Z" fill="white"/>
<path d="M80.5127 83.1057L94.3162 75.146V72.9546L80.5127 80.9269V83.1057Z" fill="#D8DAE0"/>
<path d="M70.4004 77.2744L80.5137 83.1057V80.9268L70.4004 75.083V77.2744Z" fill="#C2C7CF"/>
<path d="M80.5137 80.927L94.3173 72.9547L84.2039 67.1108L70.4004 75.0831L80.5137 80.927Z" fill="white"/>
<path d="M55.2109 81.1538L61.949 81.7835L78.4981 91.4939L71.7601 90.8641L55.2109 81.1538Z" fill="#FFC98E"/>
<path d="M55.1868 81.1411L48.4614 81.7582L26.0811 94.8439L32.8065 94.2142L55.1868 81.1411Z" fill="#E4AF6E"/>
<path d="M72.1245 90.8643L72.0741 105.663L49.5049 118.786L49.5553 104L72.1245 90.8643Z" fill="#E4AF6E"/>
<path d="M49.5557 104L49.5053 118.786L32.6035 109.026L32.6413 94.2397L49.5557 104Z" fill="#C98D56"/>
<path d="M72.1243 90.8642L49.555 104L32.6406 94.2395L55.2099 81.1035L72.1243 90.8642Z" fill="#FFC98E"/>
<path d="M33.2207 94.2393L55.2106 81.4434L71.5456 90.8766L49.5557 103.673L33.2207 94.2393Z" fill="#E4AF6E"/>
<path d="M55.2116 96.2418V81.4434L71.5466 90.8766L49.5566 103.673L55.2116 96.2418Z" fill="#C98D56"/>
<path d="M70.9674 97.3374L63.9648 101.38V96.9344L70.9674 92.8916V97.3374Z" fill="#ECEEF4"/>
<path opacity="0.4" d="M58.4608 108.081L51.6094 112.035V111.431L58.4608 107.476V108.081ZM57.5162 109.29L52.5666 112.149V112.375L57.5162 109.516V109.29ZM57.5162 110.045L52.5666 112.904V113.131L57.5162 110.272V110.045ZM57.5162 110.788L52.5666 113.647V113.874L57.5162 111.015V110.788ZM57.5162 111.544L52.5666 114.403V114.63L57.5162 111.771V111.544ZM57.5162 112.287L52.5666 115.146V115.373L57.5162 112.514V112.287Z" fill="#1D1D00"/>
<path opacity="0.4" d="M69.9975 94.1006L65.0479 96.9595V97.1862L69.9975 94.3273V94.1006ZM69.9975 94.8437L65.0479 97.7026V97.9293L69.9975 95.0704V94.8437ZM69.9975 95.5993L65.0479 98.4583V98.685L69.9975 95.826V95.5993ZM69.9975 96.3424L65.0479 99.2013V99.428L69.9975 96.5691V96.3424ZM69.9975 97.0981L65.0479 99.957V100.184L69.9975 97.3248V97.0981Z" fill="#1D1D00"/>
<path d="M77.8806 99.3403L72.1249 90.8643L49.5557 104L55.3239 112.464L77.8806 99.3403Z" fill="#FFC98E"/>
<path d="M26.9004 102.703L32.6687 94.2393L49.583 104L43.8147 112.463L26.9004 102.703Z" fill="#E4AF6E"/>
<path d="M45.9932 101.607L49.5574 103.672L58.7765 98.2946L55.2123 96.2417L45.9932 101.607Z" fill="#FFC98E"/>
<mask id="mask1_68547_66474" style="mask-type:luminance" maskUnits="userSpaceOnUse" x="33" y="81" width="39" height="23">
<path d="M33.2207 94.2393L55.2106 81.4434L71.5456 90.8766L49.5557 103.673L33.2207 94.2393Z" fill="white"/>
</mask>
<g mask="url(#mask1_68547_66474)">
<path d="M43.5869 99.6932L52.6045 92.7788L69.267 100.021L60.262 106.935L43.5869 99.6932Z" fill="#ECEEF4"/>
<path d="M43.6387 98.3957L54.621 92.5015L68.8276 101.318L57.8578 107.212L43.6387 98.3957Z" fill="white"/>
<path d="M58.1975 106.318L43.7139 98.0557V95.2598L58.1975 103.522V106.318Z" fill="#C2C7CF"/>
<path d="M68.3358 100.259L58.1973 106.317V103.521L68.3358 97.4761V100.259Z" fill="#D8DAE0"/>
<path d="M57.8708 103.522L43.5635 95.2597L54.0547 89.2144L68.362 97.4763L57.8708 103.522Z" fill="white"/>
<path d="M44.2812 94.7306L55.251 88.8364L69.4702 97.6525L58.4878 103.547L44.2812 94.7306Z" fill="white"/>
<path d="M58.51 103.157L44.0264 94.8948V92.9805L58.51 101.242V103.157Z" fill="#C2C7CF"/>
<path d="M68.3339 97.1115L58.1953 103.157V101.243L68.3339 95.1846V97.1115Z" fill="#D8DAE0"/>
<path d="M58.3337 101.242L44.0264 92.9803L54.5176 86.9224L68.8249 95.1843L58.3337 101.242Z" fill="white"/>
<path d="M56.7501 100.789L43.7148 92.527V89.7437L56.7501 97.993V100.789Z" fill="#C2C7CF"/>
<path d="M68.3359 94.7437L56.749 100.789V97.9931L68.3359 91.9478V94.7437Z" fill="#D8DAE0"/>
<path d="M57.3161 97.9929L43.0088 89.7435L53.4874 83.6855L67.8073 91.9475L57.3161 97.9929Z" fill="white"/>
<path d="M44.2412 88.5216L55.2236 82.6274L69.4301 91.4562L58.4604 97.3504L44.2412 88.5216Z" fill="white"/>
<path d="M31.7744 110.487L40.792 103.572L57.4671 110.827L48.4495 117.741L31.7744 110.487Z" fill="#ECEEF4"/>
<path d="M31.8369 109.189L42.8067 103.295L57.0258 112.124L46.0435 118.018L31.8369 109.189Z" fill="white"/>
<path d="M46.0671 114.328L31.7598 106.066L42.2509 100.008L56.5583 108.27L46.0671 114.328Z" fill="white"/>
<path d="M32.4668 105.524L43.4492 99.6299L57.6557 108.459L46.6859 114.353L32.4668 105.524Z" fill="white"/>
<path d="M46.5347 112.035L32.2148 103.773L42.706 97.728L57.0133 105.99L46.5347 112.035Z" fill="white"/>
<path d="M44.9357 111.595L31.9004 103.333V100.537L44.9357 108.799V111.595Z" fill="#C2C7CF"/>
<path d="M56.5215 105.537L44.9346 111.595V108.799L56.5215 102.741V105.537Z" fill="#D8DAE0"/>
<path d="M45.5016 108.799L31.1943 100.537L41.6855 94.479L55.9928 102.741L45.5016 108.799Z" fill="white"/>
<path d="M32.0254 99.8693L43.0078 93.9751L57.2143 102.804L46.2445 108.698L32.0254 99.8693Z" fill="white"/>
<path d="M46.3811 108.56L31.8975 100.298V98.0308L46.3811 106.293V108.56Z" fill="#C2C7CF"/>
<path d="M56.5194 102.501L46.3809 108.559V106.292L56.5194 100.234V102.501Z" fill="#D8DAE0"/>
<path d="M46.0671 106.293L31.7598 98.0306L42.2509 91.9727L56.5583 100.235L46.0671 106.293Z" fill="white"/>
<path d="M32.126 96.5318L44.5819 91.7207L56.194 101.733L43.7381 106.544L32.126 96.5318Z" fill="white"/>
</g>
</g>
<g clip-path="url(#clip1_68547_66474)">
<path fill-rule="evenodd" clip-rule="evenodd" d="M125 134C111.19 134 100 139.826 100 147C100 154.174 111.2 160 125 160C138.8 160 150 154.174 150 147C150 139.826 138.8 134 125 134Z" fill="#C2C7CF"/>
<path d="M112.297 143.096V151.262C112.297 151.828 113.083 152.28 114.05 152.28C115.018 152.28 115.804 151.822 115.804 151.262V143.096H112.297Z" fill="#FFDCC4"/>
<path d="M85.5551 127.645V135.812C85.5551 136.378 86.341 136.829 87.3083 136.829C88.2756 136.829 89.0615 136.371 89.0615 135.812V127.645H85.5551Z" fill="#FFDCC4"/>
<path d="M149.451 121.473V129.639C149.451 130.205 150.236 130.657 151.204 130.657C152.171 130.657 152.957 130.199 152.957 129.639V121.473H149.451Z" fill="#FFDCC4"/>
<path d="M153.999 101.865L136.567 110.746L125.289 104.203C124.604 103.805 123.757 103.805 123.072 104.203L100.603 117.302L84.0108 107.862V127.187L84.0712 127.153C83.9705 127.497 84.0712 127.895 84.4273 128.097L112.694 144.504C113.655 145.064 114.843 145.064 115.804 144.504L153.381 122.645C153.831 122.383 154.012 121.918 153.972 121.466L153.999 121.48V101.865Z" fill="#FFDCC4"/>
<path d="M153.999 99.4116L136.567 108.293L125.289 101.75C124.604 101.352 123.757 101.352 123.072 101.75L100.603 114.849L84.0108 105.409V124.734L84.0712 124.7C83.9705 125.044 84.0712 125.441 84.4273 125.644L112.694 142.051C113.655 142.611 114.843 142.611 115.804 142.051L153.381 120.192C153.831 119.93 154.012 119.465 153.972 119.013L153.999 119.027V99.4116Z" fill="#FF9746"/>
<path d="M153.38 100.706L115.79 122.558C114.829 123.117 113.64 123.117 112.68 122.558L84.4131 106.15C83.8623 105.833 83.8623 105.038 84.4131 104.722L123.072 82.263C123.757 81.8655 124.603 81.8655 125.288 82.263L153.38 98.5561C154.207 99.0345 154.207 100.227 153.38 100.712V100.706Z" fill="#FFB174"/>
<path d="M141.423 83.3211L140.691 85.6256C140.691 85.6256 138.32 85.0663 133.691 83.6378C133.51 83.5772 133.329 83.5233 133.14 83.4626C131.286 82.8832 129.406 82.1756 127.753 81.4749C124.945 80.3024 122.789 79.1704 122.493 78.7863C121.634 77.6543 119.518 73.4766 119.518 73.4766H125.342C125.342 73.4766 127.659 75.1342 128.485 75.6261C128.922 75.8754 129.426 76.1786 129.97 76.502C131.448 77.378 133.174 78.4224 134.316 79.1569C136.607 80.6461 141.43 83.3211 141.43 83.3211H141.423Z" fill="#B9C8DA"/>
<path d="M122.737 42.7095C122.737 42.7095 126.592 43.1138 125.135 47.6014C124.255 50.3304 123.402 53.8545 124.463 56.6509C124.785 57.4999 125.282 57.5943 125.625 58.2613C125.874 58.7465 124.355 59.4742 123.865 59.7033C123.375 59.9392 122.824 60.0065 122.287 60.0537C119.956 60.2693 117.578 60.175 115.314 59.5618C115.173 59.5214 115.025 59.481 114.884 59.5281C114.723 59.582 114.622 59.7303 114.515 59.8583C113.829 60.6871 112.56 60.869 111.572 60.4513C110.336 59.9257 109.268 58.5511 109.631 57.2236C109.94 56.0916 110.276 54.9731 110.605 53.8478C110.934 52.6955 111.27 51.5433 111.599 50.3911C111.666 50.162 111.828 48.9828 112.043 48.8548L122.743 42.7095H122.737Z" fill="#623F21"/>
<path d="M109.248 89.837C109.248 89.837 103.189 101.629 113.809 107.201C124.778 112.963 129.259 114.762 129.259 114.762L145.414 100.76C145.414 100.76 140.604 96.6629 127.741 89.837C125.739 88.5028 125.477 86.4949 125.477 86.4949C125.477 86.4949 111.122 85.7267 109.248 89.837Z" fill="#191C20"/>
<path d="M131.751 104.182C131.751 104.182 136.722 100.901 140.712 99.6677C143.251 98.8794 145.414 100.759 145.414 100.759L140.557 105.523L137.514 106.797L131.758 104.182H131.751Z" fill="#F0BC96"/>
<path d="M145.414 100.759C145.414 100.759 139.939 100.436 136.937 107.208C133.927 113.98 133.202 133.083 133.202 133.083C132.597 134.141 131.623 135.569 132.329 136.742C132.45 136.944 132.604 137.146 132.812 137.247C133.014 137.348 133.249 137.355 133.471 137.361C133.867 137.368 134.27 137.368 134.666 137.348C135.083 137.321 135.533 137.26 135.849 136.984C136.379 136.526 136.399 135.751 136.44 135.111C136.473 134.498 136.782 133.858 136.977 133.285C138.347 129.309 140.02 125.441 141.511 121.513C143.15 117.187 144.91 113.454 145.75 108.892C146.543 104.587 147.161 102.659 145.414 100.766V100.759Z" fill="#F0BC96"/>
<path d="M136.748 131.23L136.533 136.081C136.533 136.081 136.842 143.237 137.225 144.679C137.601 146.121 138.803 147.698 138.058 148.743C137.312 149.787 131.77 147.597 131.293 143.905C131.676 138.332 131.025 137.153 131.643 135.59C133.067 133.137 133.349 132.476 133.349 132.476L136.741 131.223L136.748 131.23Z" fill="#F0BC96"/>
<path d="M131.844 135.246C131.844 135.246 131.206 135.36 130.884 138.177C130.729 139.45 130.521 140.117 130.521 140.117L131.435 140.313C131.435 140.313 130.534 143.756 131.656 145.697C132.778 147.637 136.728 149.982 138.327 148.944C138.945 148.304 137.95 146.148 137.05 143.695C137.097 146.114 133.497 144.875 133.06 143.668C132.617 142.469 131.132 137.24 131.844 135.246Z" fill="#191C20"/>
<path d="M134.418 102.909C132.738 103.421 129.595 104.85 128.977 108.428C127.922 114.506 131.771 125.415 131.959 127.625C132.067 128.885 132.248 130.138 132.604 131.351C133.612 134.767 133.571 136.816 135.083 139.208C135.163 139.336 135.251 139.464 135.385 139.518C135.486 139.558 135.607 139.552 135.721 139.538C136.064 139.498 136.406 139.397 136.675 139.181C137.703 138.332 137.514 136.001 137.588 134.794C138.106 125.9 139.496 117.443 138.892 108.495C138.663 105.126 138.085 103.051 134.411 102.902L134.418 102.909Z" fill="#FFDCC4"/>
<path d="M127.572 73.8805C127.438 74.1837 127.317 74.4937 127.203 74.7901C126.947 75.4572 126.726 76.1176 126.544 76.7847C125.597 80.1942 125.57 83.6846 126.155 88.2127C122.722 90.032 117.678 90.3016 113.99 90.2005C111.242 90.1196 109.247 89.8366 109.247 89.8366C110.611 86.7034 108.34 77.7887 107.118 71.4278C106.486 68.126 106.13 65.5183 106.721 64.7636C108.327 62.7085 117.906 58.4229 121.406 59.2585C124.905 60.0873 124.24 62.2637 125.47 64.3526C126.706 66.4415 129.487 69.4467 127.572 73.8805Z" fill="#D5E4F6"/>
<path d="M127.203 74.7903C126.948 75.4574 126.726 76.1177 126.545 76.7848C124.832 77.4519 120.976 78.8737 117.49 79.4599C115.555 79.7833 114.158 81.4949 114.151 83.4624C114.151 85.8545 114.111 88.7654 113.99 90.2007C111.243 90.1198 109.248 89.8368 109.248 89.8368C110.611 86.7035 108.341 77.7888 107.118 71.4279C108.468 71.0843 109.798 70.8687 109.798 70.8687H112.512C112.512 70.8687 112.956 75.8078 115.622 77.526C117.221 78.557 125.745 76.0234 127.196 74.7903H127.203Z" fill="#B9C8DA"/>
<path d="M113.661 60.903C113.661 60.903 113.54 62.884 114.79 64.1037C115.394 64.6899 116.617 65.3098 117.813 65.4244C118.968 65.5322 120.05 64.8044 120.291 63.6589C120.433 62.9918 120.399 62.3045 120.352 61.8127C120.191 60.1887 118.995 59.2454 118.995 59.2454L119.082 54.6634L114.797 54.2456L113.661 60.903Z" fill="#F0BC96"/>
<path d="M122.212 43.0938C122.212 43.0938 122.998 46.2472 123.246 48.6056C123.307 49.2121 123.616 51.5839 123.683 52.2578C123.931 54.8183 123.307 57.0621 122.299 58.2615C121.023 59.7776 113.801 57.8909 112.424 55.3169C111.047 52.7429 114.366 52.5677 114.366 52.5677L116.233 44.3134L122.212 43.0938Z" fill="#FFDCC4"/>
<path d="M121.413 41.153C123.354 41.8538 124.415 44.6771 122.998 46.1797C122.521 46.6851 121.527 46.7997 120.633 47.0624C117.08 48.0867 116.771 53.7737 116.771 53.8142C116.643 54.2454 115.461 52.2644 114.379 52.8708C112.324 54.0298 112.989 58.8342 113.513 59.353C113.929 59.764 114.561 59.8584 115.105 60.0807C115.219 60.1279 115.347 60.1885 115.387 60.3098C115.441 60.4648 115.333 60.6198 115.233 60.7411C113.063 63.2747 108.965 62.7356 106.493 59.9864C104.297 57.5404 104.324 53.1201 105.049 49.2928C105.68 45.9439 107.346 43.1071 110.302 41.3484C113.714 39.3202 117.785 39.8525 121.413 41.1597V41.153Z" fill="#623F21"/>
<path d="M137.293 132.375L138.059 138.278C138.059 138.278 139.872 146.849 140.584 148.514C141.296 150.171 142.929 151.815 142.331 153.237C141.733 154.659 135.244 153.217 133.968 148.857C133.236 142.045 132.288 140.758 132.638 138.743C133.679 135.475 133.86 134.619 133.86 134.619L137.293 132.375Z" fill="#FFDCC4"/>
<path d="M132.786 138.278C132.786 138.278 132.114 138.554 132.349 142.031C132.403 143.621 132.349 144.538 132.349 144.538L133.135 144.571C133.135 144.571 133.417 145.71 133.646 147.125C133.847 148.419 133.955 149.935 134.734 150.939C136.36 153.035 141.142 155.016 142.667 153.419C143.205 152.509 141.68 150.13 140.195 147.354C140.746 150.265 136.568 149.544 135.842 148.183C135.117 146.829 132.416 140.845 132.779 138.278H132.786Z" fill="#191C20"/>
<path d="M131.327 88.9808C131.193 88.8056 127.485 86.9324 126.907 86.6966C126.537 86.5483 126.128 86.5079 125.523 86.4001C125.523 86.4001 124.482 86.4338 124.307 86.4405C123.81 86.4675 122.52 86.2384 122.52 86.2384L107.628 82.2695L101.623 85.7734C103.074 87.7342 121.318 88.8932 121.318 88.8932C121.909 89.0213 122.332 89.8231 122.991 89.9848C123.649 90.1465 124.207 90.187 124.207 90.187C124.207 90.187 123.884 90.4969 124.139 90.8069C124.395 91.1168 125.543 91.292 126.081 91.3729C126.618 91.4538 127.202 90.9551 127.592 90.4498C127.908 90.0387 128.156 89.0684 128.15 88.5159L128.284 88.5428C128.284 88.5428 129.46 89.0819 130.313 89.2975C131.166 89.5064 131.468 89.156 131.334 88.9876L131.327 88.9808Z" fill="#FFDCC4"/>
<path d="M148.229 72.8158L147.349 72.1555C147.288 72.1083 147.194 72.0881 147.107 72.1352L135.056 79.0015C134.733 79.1834 134.465 79.4597 134.29 79.7899L125.477 96.3727C125.396 96.5277 125.443 96.6894 125.544 96.7905L126.424 97.4441L127.633 95.8808L137.736 90.1196C137.978 89.9781 138.179 89.776 138.307 89.5267L146.717 73.6985L148.215 72.8091L148.229 72.8158Z" fill="#D5E4F6"/>
<path d="M148.295 73.0922L139.207 90.2006C139.073 90.4499 138.878 90.652 138.636 90.7935L126.854 97.5116C126.551 97.6868 126.209 97.3498 126.37 97.0399L135.183 80.4571C135.358 80.1269 135.62 79.8574 135.949 79.6687L148 72.8024C148.188 72.6946 148.403 72.9035 148.295 73.0922Z" fill="#191C20"/>
<path d="M143.587 81.9663C143.587 81.9663 142.492 82.4515 141.719 82.9029C141.262 83.1051 139.959 83.7385 139.885 84.2304C139.859 84.4258 139.973 84.4931 140.127 84.5134C139.704 84.7694 139.314 85.0659 139.274 85.3287C139.234 85.6117 139.482 85.6454 139.765 85.6117C139.711 85.6858 139.677 85.7532 139.664 85.8206C139.623 86.0834 139.838 86.1305 140.087 86.1103C140.141 86.5146 141.021 86.2047 141.168 86.144C141.256 86.1171 141.854 85.8812 141.948 85.8543C142.801 85.578 144.507 82.4447 143.587 81.9663Z" fill="#FFDCC4"/>
<path d="M106.85 64.6427C106.467 65.0133 106.205 65.485 106.037 65.9903C105.56 67.4054 104.25 71.3607 103.054 75.781C101.556 81.3198 100.683 85.3628 102.221 86.7374C103.753 88.1052 121.097 89.4866 121.097 89.4866C121.097 89.4866 120.963 88.833 121.339 87.519C121.608 86.5891 122.145 86.0703 122.669 86.0164L118.162 84.6687L109.154 81.8319C109.154 81.8319 111.35 74.6557 112.237 71.8054C113.124 68.9552 113.735 66.0847 112.532 64.8987C111.229 63.605 108.455 63.1064 106.85 64.6427Z" fill="#D5E4F6"/>
</g>
<defs>
<clipPath id="clip0_68547_66474">
<rect width="94" height="120" fill="white" transform="translate(5 9)"/>
</clipPath>
<clipPath id="clip1_68547_66474">
<rect width="70" height="120" fill="white" transform="matrix(-1 0 0 1 154 40)"/>
</clipPath>
</defs>
</svg>
