<svg width="186" height="200" viewBox="0 0 186 200" fill="none" xmlns="http://www.w3.org/2000/svg">
<g clip-path="url(#clip0_63139_127492)">
<path d="M124.935 30.5199L15.7627 30.8061C21.0616 20.1951 28.9104 18.825 28.337 0H111.787C109.5 15.4014 118.368 21.0872 124.935 30.5199Z" fill="#E0E0E0"/>
<path d="M127.222 165.726L16.0498 168.577C21.3487 179.188 29.1975 180.558 28.3374 199.383H111.788C109.214 187.119 120.652 175.158 127.219 165.726H127.222Z" fill="#E0E0E0"/>
<path d="M101.78 180.84H36.6786C16.8861 180.84 0.780273 164.769 0.780273 145.012V55.0812C0.780273 35.3271 16.8827 19.2524 36.6786 19.2524H101.78C121.572 19.2524 137.678 35.3237 137.678 55.0812V145.015C137.678 164.769 121.576 180.844 101.78 180.844V180.84Z" fill="#E0E0E0"/>
<path d="M100.863 174.711H38.4496C20.6741 174.711 6.21094 160.275 6.21094 142.534V57.135C6.21094 39.3939 20.6741 24.9587 38.4496 24.9587H100.863C118.638 24.9587 133.101 39.3939 133.101 57.135V142.534C133.101 160.275 118.638 174.711 100.863 174.711Z" fill="white"/>
<path d="M98.8994 148.169H37.7175C28.3677 148.169 20.7617 140.578 20.7617 131.246V73.4652C20.7617 64.1335 28.3677 56.5422 37.7175 56.5422H98.8994C108.249 56.5422 115.855 64.1335 115.855 73.4652V131.246C115.855 140.578 108.249 148.169 98.8994 148.169Z" fill="#0077B6"/>
<path d="M139.941 82.5782C137.577 82.5782 135.654 80.6594 135.654 78.2995V59.4745C135.654 57.1147 137.577 55.1958 139.941 55.1958C142.306 55.1958 144.228 57.1147 144.228 59.4745V78.2995C144.228 80.6594 142.306 82.5782 139.941 82.5782Z" fill="#D7D7D8"/>
<path d="M58.6837 84.6385H45.7855C45.1345 84.6385 44.605 84.1099 44.605 83.4602C44.605 82.8105 45.1345 82.282 45.7855 82.282H58.6837C59.3346 82.282 59.8642 82.8105 59.8642 83.4602C59.8642 84.1099 59.3346 84.6385 58.6837 84.6385Z" fill="white"/>
<path d="M100.508 68.4966H87.6102C86.9592 68.4966 86.4297 67.9681 86.4297 67.3184C86.4297 66.6687 86.9592 66.1401 87.6102 66.1401H100.508C101.159 66.1401 101.689 66.6687 101.689 67.3184C101.689 67.9681 101.159 68.4966 100.508 68.4966Z" fill="white"/>
<path d="M90.8278 94.1587H45.7855C45.1345 94.1587 44.605 93.6302 44.605 92.9805C44.605 92.3308 45.1345 91.8022 45.7855 91.8022H90.8278C91.4788 91.8022 92.0084 92.3308 92.0084 92.9805C92.0084 93.6302 91.4788 94.1587 90.8278 94.1587Z" fill="white"/>
<path d="M90.8278 103.585H45.7855C45.1345 103.585 44.605 103.056 44.605 102.407C44.605 101.757 45.1345 101.228 45.7855 101.228H90.8278C91.4788 101.228 92.0084 101.757 92.0084 102.407C92.0084 103.056 91.4788 103.585 90.8278 103.585Z" fill="white"/>
<path d="M90.8278 113.011H45.7855C45.1345 113.011 44.605 112.482 44.605 111.833C44.605 111.183 45.1345 110.654 45.7855 110.654H90.8278C91.4788 110.654 92.0084 111.183 92.0084 111.833C92.0084 112.482 91.4788 113.011 90.8278 113.011Z" fill="white"/>
<path d="M90.8278 122.437H45.7855C45.1345 122.437 44.605 121.908 44.605 121.258C44.605 120.609 45.1345 120.08 45.7855 120.08H90.8278C91.4788 120.08 92.0084 120.609 92.0084 121.258C92.0084 121.908 91.4788 122.437 90.8278 122.437Z" fill="white"/>
<path d="M153.439 49.6385L148.541 45.8345C148.541 45.8345 142.956 47.5715 142.811 47.6456C142.666 47.7197 134.142 67.4503 134.142 67.4503C134.142 67.4503 155.982 78.6066 154.387 77.5192C152.788 76.4352 153.118 61.7307 154.606 59.8152C156.097 57.893 154.825 53.079 154.825 53.079L153.445 49.6385H153.439Z" fill="#2F2E43"/>
<path d="M131.057 58.532H137.691V69.0419L130.375 66.6417L131.057 58.532Z" fill="#F3A3A6"/>
<path d="M148.831 184.333H141.978V194.039H148.831V184.333Z" fill="#F3A3A6"/>
<path d="M155.5 199.913C152.491 199.913 148.1 199.6 148.066 199.597C146.892 199.701 141.027 200.162 140.733 198.822C140.463 197.59 140.861 196.304 140.915 196.126C141.482 190.531 141.691 190.464 141.816 190.43C142.015 190.373 142.598 190.649 143.543 191.258L143.6 191.298L143.614 191.366C143.63 191.45 144.049 193.507 146.035 193.19C147.398 192.975 147.84 192.675 147.978 192.527C147.864 192.473 147.718 192.382 147.617 192.228C147.469 191.999 147.445 191.706 147.543 191.352C147.799 190.423 148.565 189.05 148.595 188.989L148.683 188.831L156.471 194.076L161.281 195.449C161.645 195.55 161.935 195.813 162.084 196.16C162.286 196.644 162.161 197.206 161.77 197.557C160.897 198.341 159.16 199.684 157.338 199.849C156.852 199.896 156.212 199.91 155.493 199.91L155.5 199.913Z" fill="#2F2E43"/>
<path d="M122.46 176.714L117.314 184.949L123.13 188.569L128.275 180.333L122.46 176.714Z" fill="#F3A3A6"/>
<path d="M130.189 198.589C129.231 198.589 128.175 198.451 127.285 198.003C125.038 196.875 119.577 192.913 119.544 192.886C118.495 192.357 113.273 189.647 113.735 188.358C114.16 187.173 115.179 186.288 115.321 186.17C118.768 181.716 118.977 181.773 119.105 181.81C119.308 181.864 119.652 182.41 120.134 183.423L120.164 183.484L120.137 183.548C120.104 183.628 119.372 185.594 121.223 186.375C122.495 186.911 123.028 186.89 123.224 186.84C123.153 186.732 123.078 186.581 123.075 186.392C123.068 186.119 123.203 185.857 123.473 185.608C124.185 184.955 125.561 184.194 125.622 184.16L125.78 184.076L129.609 192.64L132.965 196.343C133.221 196.619 133.329 196.996 133.268 197.37C133.184 197.885 132.776 198.299 132.26 198.39C131.733 198.481 130.991 198.579 130.189 198.579V198.589Z" fill="#2F2E43"/>
<path d="M136.928 103.177C136.928 103.177 134.705 103.177 131.224 110.128C127.744 117.083 132.172 145.001 132.172 145.001L119.763 177.046L128.469 183.129L144.359 148.802L140.439 186.822H150.234L157.854 120.992L156.113 103.177H136.925H136.928Z" fill="#2F2E43"/>
<path d="M137.99 66.499L150.49 64.999L160.687 104.264L131.99 109.999L137.99 66.499Z" fill="#D4D4D4"/>
<path d="M147.361 102.05C148.034 101.561 148.828 101.281 149.682 101.233L156.427 95.6927L159.237 99.843L152.09 105.016C151.725 105.825 151.172 106.489 150.485 106.954C148.781 108.149 146.7 108.017 145.838 106.665C144.977 105.31 145.66 103.244 147.363 102.053L147.361 102.05Z" fill="#F3A3A6"/>
<path d="M137.49 67L142.49 66L138.99 108.5L128.49 111L137.49 67Z" fill="#CDC8C8"/>
<path d="M150.49 65.0011L157.99 95L165.99 92.9988C165.99 92.9988 157.385 67.2947 156.526 66.0893C155.4 64.5084 150.49 65.0011 150.49 65.0011Z" fill="#CDC8C8"/>
<path d="M155.99 94.5009C151.49 98.0008 149.998 99.2562 149.998 99.2562C149.998 99.2562 152.106 100.442 152.998 101.645C154.013 103.014 154.49 104.999 154.49 104.999C154.49 104.999 166.99 96.5015 165.99 93.0007C164.99 89.5 160.49 91.0009 155.99 94.5009Z" fill="#CDC8C8"/>
<path d="M144.783 63.5564C148.81 63.5564 152.075 60.2978 152.075 56.2782C152.075 52.2586 148.81 49 144.783 49C140.755 49 137.49 52.2586 137.49 56.2782C137.49 60.2978 140.755 63.5564 144.783 63.5564Z" fill="#F3A3A6"/>
<path d="M154.43 53.7924L152.712 53.9745C151.599 47.2134 147.86 49.1322 147.526 49.0309C147.192 48.9297 141.679 54.4216 141.672 60.3777C141.665 66.3305 134.171 68.5907 134.171 68.5907C134.171 68.5907 131.263 73.437 132.895 82.6983C134.523 91.9595 129.486 94.6705 129.486 94.6705C120.043 93.1513 126.741 79.647 128.438 77.2259C130.134 74.8048 129.409 70.3256 129.409 70.3256C127.219 67.9938 130.313 63.4206 130.313 63.4206C130.313 63.4206 130.28 57.0296 131.814 55.9031C133.347 54.7765 133.633 51.7492 133.633 51.7492C137.007 40.3011 145.178 43.1274 145.178 43.1274C155.937 42.6541 154.434 53.786 154.434 53.786L154.43 53.7924Z" fill="#2F2E43"/>
<path d="M121.7 125.156C121.882 124.196 122.3 123.294 122.917 122.523L124.29 112.424L129.272 113.212L127.343 123.375C127.613 124.314 127.643 125.304 127.437 126.256C126.951 128.647 125.275 130.343 123.69 130.04C122.104 129.737 121.211 127.553 121.7 125.159V125.156Z" fill="#F3A3A6"/>
<path d="M129.422 120H122.49C122.49 120 132.596 70.6577 133.49 68.499C134.311 66.5162 141.99 65.999 141.99 65.999L129.418 120H129.422Z" fill="#D4D4D4"/>
<path d="M0.490234 199.557C0.490234 199.803 0.669001 200 0.891615 200H158.496C158.719 200 158.897 199.803 158.897 199.557C158.897 199.312 158.719 199.115 158.496 199.115H0.891615C0.669001 199.115 0.490234 199.312 0.490234 199.557Z" fill="#2F2E43"/>
<path d="M49.1819 68.6413H37.1978C33.6934 68.6413 30.8398 65.7933 30.8398 62.2956V51.1797C30.8398 47.682 33.6934 44.834 37.1978 44.834H49.1819C52.6864 44.834 55.5399 47.682 55.5399 51.1797V62.2956C55.5399 65.7933 52.6864 68.6413 49.1819 68.6413Z" fill="#D7D7D8"/>
</g>
<defs>
<clipPath id="clip0_63139_127492">
<rect width="185.02" height="200" fill="white" transform="translate(0.490234)"/>
</clipPath>
</defs>
</svg>
