<?xml version="1.0" encoding="UTF-8" standalone="no"?>
<!DOCTYPE svg PUBLIC "-//W3C//DTD SVG 1.1//EN" "http://www.w3.org/Graphics/SVG/1.1/DTD/svg11.dtd">
<svg width="100%" height="100%" viewBox="0 0 352 308" version="1.1" xmlns="http://www.w3.org/2000/svg" xmlns:xlink="http://www.w3.org/1999/xlink" xml:space="preserve" xmlns:serif="http://www.serif.com/" style="fill-rule:evenodd;clip-rule:evenodd;">
    <g transform="matrix(1,0,0,1,-1.29297,-19.1396)">
        <clipPath id="_clip1">
            <rect x="0" y="0" width="341" height="331"/>
        </clipPath>
        <g clip-path="url(#_clip1)">
            <path d="M327.937,327L327.937,297.476C327.937,297.476 339.421,318.407 327.937,327Z" style="fill:rgb(241,241,241);fill-rule:nonzero;"/>
            <path d="M328.646,326.994L306.938,307.028C306.938,307.028 330.095,312.708 328.646,326.994Z" style="fill:rgb(241,241,241);fill-rule:nonzero;"/>
            <path d="M234.863,249.013C234.815,248.473 234.886,247.928 235.07,247.418C235.255,246.908 235.549,246.444 235.931,246.06C236.314,245.676 236.776,245.38 237.285,245.195C237.794,245.009 238.337,244.937 238.877,244.984L242.79,237.462L247.933,238.73L242.257,249.275C242.118,250.178 241.653,250.998 240.95,251.58C240.247,252.163 239.356,252.466 238.444,252.434C237.533,252.402 236.665,252.036 236.005,251.405C235.345,250.775 234.939,249.924 234.863,249.013Z" style="fill:rgb(255,183,183);fill-rule:nonzero;"/>
            <path d="M258.223,322.294L253.883,322.294L251.818,305.524L258.223,305.525L258.223,322.294Z" style="fill:rgb(255,183,183);fill-rule:nonzero;"/>
            <path d="M259.33,326.509L245.337,326.509L245.337,326.331C245.337,324.884 245.911,323.496 246.932,322.473C247.954,321.45 249.339,320.875 250.783,320.875L259.33,320.875L259.33,326.509Z" style="fill:rgb(47,46,65);fill-rule:nonzero;"/>
            <path d="M293.126,319.047L288.939,320.191L282.543,304.556L288.722,302.868L293.126,319.047Z" style="fill:rgb(255,183,183);fill-rule:nonzero;"/>
            <path d="M295.301,322.821L281.801,326.509L281.754,326.338C281.374,324.942 281.564,323.452 282.28,322.195C282.997,320.939 284.182,320.019 285.576,319.638L293.821,317.386L295.301,322.821Z" style="fill:rgb(47,46,65);fill-rule:nonzero;"/>
            <path d="M250.301,249.855L248.136,282.788L252.786,319.737L260.403,317.408L260.724,284.394L266.817,265.357L284.857,316.203L293.115,313.151L286.3,280.137L282.451,249.132L250.301,249.855Z" style="fill:rgb(47,46,65);fill-rule:nonzero;"/>
            <path d="M271.346,192.023L258.52,193.918L253.899,198.497L252.464,214.947L253.355,229.518L249.641,255.213C249.641,255.213 258.982,250.018 266.221,256.521C273.46,263.025 283.59,257.671 283.798,253.344L271.346,192.023Z" style="fill:rgb(203,203,203);fill-rule:nonzero;"/>
            <path d="M264.833,212.655L264.833,212.636L271.205,191.828L271.287,191.823C271.741,191.793 282.424,191.163 284.813,196.447L284.825,196.473L284.099,218.096L285.098,251.963L265.34,256.25L265.197,256.281L264.833,212.655Z" style="fill:rgb(47,46,65);fill-rule:nonzero;"/>
            <path d="M257.771,211.217L258.94,193.577C250.627,194.095 250.752,200 250.762,200.258L250.671,226.643L249.006,254.871L255.06,254.416L257.771,211.217Z" style="fill:rgb(47,46,65);fill-rule:nonzero;"/>
            <path d="M239.026,243.313L246.407,226.152L251.558,216.675L254.248,233.771L244.91,247.804L239.026,243.313Z" style="fill:rgb(47,46,65);fill-rule:nonzero;"/>
            <path d="M269.528,236.999C269.641,236.468 269.869,235.969 270.196,235.536C270.522,235.103 270.94,234.747 271.418,234.493C271.897,234.239 272.425,234.093 272.966,234.066C273.507,234.039 274.048,234.131 274.55,234.335L280.504,228.305L285.045,231.036L276.516,239.434C276.117,240.256 275.431,240.902 274.588,241.251C273.746,241.6 272.804,241.626 271.943,241.326C271.081,241.026 270.36,240.42 269.915,239.622C269.47,238.825 269.332,237.891 269.528,236.999Z" style="fill:rgb(255,183,183);fill-rule:nonzero;"/>
            <path d="M274.535,232.133L286.675,218.791L278.639,207.302L279.466,201.686L284.203,195.824L284.295,195.944C284.8,196.598 296.664,212.04 297.005,217.886C297.346,223.753 280.294,238.595 279.567,239.224L279.467,239.311L274.535,232.133Z" style="fill:rgb(47,46,65);fill-rule:nonzero;"/>
            <path d="M263.945,190.578C268.711,190.578 272.574,186.708 272.574,181.934C272.574,177.159 268.711,173.289 263.945,173.289C259.18,173.289 255.316,177.159 255.316,181.934C255.316,186.708 259.18,190.578 263.945,190.578Z" style="fill:rgb(255,183,183);fill-rule:nonzero;"/>
            <path d="M272.06,175.023L272.479,174.179L270.374,173.132C270.374,173.132 268.052,169.346 263.85,170.41C259.648,171.474 257.758,172.11 257.758,172.11L255.658,173.169L256.712,174.219L254.822,174.856L256.085,175.484L254.615,176.331L255.406,180.668C255.406,180.668 256.72,177.378 259.246,178.636C261.772,179.893 266.392,177.986 266.392,177.986L270.406,185.768C270.406,185.768 271.234,183.04 272.71,183.767C272.71,183.767 276.482,177.75 272.06,175.023Z" style="fill:rgb(47,46,65);fill-rule:nonzero;"/>
            <path d="M175.718,176.104L44.502,212.359L1.293,55.394L132.509,19.14L175.718,176.104Z" style="fill:white;fill-rule:nonzero;"/>
            <path d="M175.718,176.104L44.502,212.359L1.293,55.394L132.509,19.14L175.718,176.104ZM46.178,209.4L172.765,174.425L130.833,22.098L4.246,57.074L46.178,209.4Z" style="fill:rgb(241,241,241);fill-rule:nonzero;"/>
            <path d="M103.954,89.458L71.062,98.546C70.598,98.673 70.103,98.611 69.684,98.373C69.266,98.135 68.959,97.741 68.83,97.276L59.759,64.324C59.632,63.859 59.694,63.362 59.931,62.943C60.169,62.524 60.563,62.216 61.026,62.087L93.918,53C94.382,52.872 94.878,52.934 95.296,53.172C95.715,53.41 96.022,53.804 96.15,54.269L105.221,87.222C105.349,87.686 105.287,88.183 105.049,88.602C104.812,89.021 104.418,89.329 103.954,89.458ZM61.219,62.789C60.941,62.866 60.705,63.05 60.562,63.302C60.42,63.553 60.383,63.851 60.459,64.13L69.53,97.083C69.607,97.362 69.791,97.598 70.043,97.741C70.294,97.884 70.591,97.921 70.869,97.845L103.761,88.757C104.039,88.68 104.276,88.495 104.418,88.243C104.561,87.992 104.598,87.694 104.521,87.415L95.45,54.462C95.373,54.184 95.189,53.947 94.938,53.804C94.687,53.661 94.39,53.624 94.111,53.701L61.219,62.789Z" style="fill:rgb(229,229,229);fill-rule:nonzero;"/>
            <path d="M95.616,96.099L62.724,105.187C62.307,105.302 61.861,105.246 61.484,105.032C61.108,104.817 60.831,104.462 60.716,104.044L51.644,71.092C51.53,70.673 51.585,70.226 51.799,69.849C52.013,69.472 52.367,69.195 52.785,69.079L85.677,59.991C86.094,59.876 86.54,59.932 86.917,60.146C87.293,60.36 87.57,60.715 87.685,61.134L96.757,94.086C96.871,94.504 96.816,94.951 96.602,95.329C96.388,95.706 96.034,95.983 95.616,96.099Z" style="fill:rgb(0,99,153);fill-rule:nonzero;"/>
            <path d="M133.72,100.597L41.932,125.958L42.91,129.512L134.698,104.151L133.72,100.597Z" style="fill:rgb(241,241,241);fill-rule:nonzero;"/>
            <path d="M136.27,109.863L44.481,135.224L45.46,138.777L137.248,113.417L136.27,109.863Z" style="fill:rgb(241,241,241);fill-rule:nonzero;"/>
            <path d="M138.821,119.128L47.032,144.488L48.01,148.042L139.799,122.681L138.821,119.128Z" style="fill:rgb(241,241,241);fill-rule:nonzero;"/>
            <path d="M143.31,135.434L51.522,160.795L52.5,164.349L144.288,138.988L143.31,135.434Z" style="fill:rgb(241,241,241);fill-rule:nonzero;"/>
            <path d="M145.861,144.7L54.072,170.061L55.051,173.614L146.839,148.253L145.861,144.7Z" style="fill:rgb(241,241,241);fill-rule:nonzero;"/>
            <path d="M148.41,153.965L56.622,179.326L57.6,182.88L149.389,157.519L148.41,153.965Z" style="fill:rgb(241,241,241);fill-rule:nonzero;"/>
            <rect x="81.606" y="49.01" width="136.115" height="162.824" style="fill:white;fill-rule:nonzero;"/>
            <path d="M217.721,211.834L81.606,211.834L81.606,49.01L217.721,49.01L217.721,211.834ZM84.008,209.429L215.32,209.429L215.32,51.416L84.008,51.416L84.008,209.429Z" style="fill:rgb(229,229,229);fill-rule:nonzero;"/>
            <rect x="115.117" y="119.005" width="77.823" height="3.686" style="fill:rgb(0,99,153);fill-rule:nonzero;"/>
            <rect x="115.117" y="128.591" width="77.823" height="3.686" style="fill:rgb(0,99,153);fill-rule:nonzero;"/>
            <rect x="115.117" y="138.175" width="77.823" height="3.686" style="fill:rgb(0,99,153);fill-rule:nonzero;"/>
            <path d="M108.79,123.795C110.116,123.795 111.191,122.718 111.191,121.389C111.191,120.06 110.116,118.983 108.79,118.983C107.464,118.983 106.389,120.06 106.389,121.389C106.389,122.718 107.464,123.795 108.79,123.795Z" style="fill:rgb(0,99,153);fill-rule:nonzero;"/>
            <rect x="115.117" y="77.708" width="77.823" height="3.686" style="fill:rgb(229,229,229);fill-rule:nonzero;"/>
            <rect x="115.117" y="87.292" width="77.823" height="3.686" style="fill:rgb(229,229,229);fill-rule:nonzero;"/>
            <rect x="115.117" y="96.876" width="77.823" height="3.686" style="fill:rgb(229,229,229);fill-rule:nonzero;"/>
            <path d="M108.79,82.096C110.116,82.096 111.191,81.019 111.191,79.69C111.191,78.361 110.116,77.284 108.79,77.284C107.464,77.284 106.389,78.361 106.389,79.69C106.389,81.019 107.464,82.096 108.79,82.096Z" style="fill:rgb(229,229,229);fill-rule:nonzero;"/>
            <rect x="115.117" y="160.705" width="77.823" height="3.686" style="fill:rgb(229,229,229);fill-rule:nonzero;"/>
            <rect x="115.117" y="170.289" width="77.823" height="3.686" style="fill:rgb(229,229,229);fill-rule:nonzero;"/>
            <rect x="115.117" y="179.873" width="77.823" height="3.686" style="fill:rgb(229,229,229);fill-rule:nonzero;"/>
            <path d="M108.79,165.093C110.116,165.093 111.191,164.016 111.191,162.687C111.191,161.358 110.116,160.281 108.79,160.281C107.464,160.281 106.389,161.358 106.389,162.687C106.389,164.016 107.464,165.093 108.79,165.093Z" style="fill:rgb(229,229,229);fill-rule:nonzero;"/>
            <path d="M211.367,225.855C226.732,225.855 239.188,213.376 239.188,197.983C239.188,182.589 226.732,170.11 211.367,170.11C196.002,170.11 183.546,182.589 183.546,197.983C183.546,213.376 196.002,225.855 211.367,225.855Z" style="fill:rgb(0,99,153);fill-rule:nonzero;"/>
            <path d="M219.075,196.205L219.075,190.871C219.075,189.857 218.877,188.852 218.489,187.915C218.102,186.977 217.535,186.125 216.819,185.407C216.103,184.69 215.253,184.12 214.318,183.732C213.382,183.343 212.379,183.144 211.367,183.144C210.354,183.144 209.351,183.343 208.416,183.732C207.48,184.12 206.63,184.69 205.914,185.407C205.198,186.125 204.631,186.977 204.244,187.915C203.857,188.852 203.658,189.857 203.659,190.871L203.659,196.205C202.628,196.251 201.655,196.694 200.943,197.44C200.23,198.187 199.832,199.18 199.831,200.214L199.831,212.816L222.902,212.816L222.902,200.214C222.902,199.18 222.504,198.187 221.791,197.44C221.078,196.694 220.105,196.251 219.075,196.205ZM211.367,185.868C212.691,185.87 213.96,186.397 214.896,187.335C215.832,188.273 216.359,189.545 216.36,190.871L216.36,196.195L206.373,196.195L206.373,190.871C206.374,189.545 206.901,188.273 207.837,187.335C208.773,186.397 210.043,185.87 211.367,185.868Z" style="fill:white;fill-rule:nonzero;"/>
            <path d="M213.441,202.428C213.441,202.07 213.348,201.718 213.173,201.406C212.997,201.094 212.743,200.833 212.437,200.648C212.131,200.463 211.782,200.36 211.425,200.35C211.067,200.34 210.713,200.423 210.397,200.591C210.081,200.758 209.814,201.005 209.621,201.306C209.428,201.608 209.316,201.954 209.296,202.312C209.276,202.67 209.349,203.026 209.508,203.348C209.666,203.669 209.905,203.943 210.2,204.145L210.2,208.661L212.533,208.661L212.533,204.145C212.813,203.955 213.042,203.699 213.2,203.399C213.358,203.1 213.441,202.767 213.441,202.428Z" style="fill:rgb(0,99,153);fill-rule:nonzero;"/>
            <path d="M352.593,326.834L197.383,326.834C197.275,326.834 197.171,326.791 197.095,326.714C197.019,326.638 196.976,326.534 196.976,326.426C196.976,326.317 197.019,326.214 197.095,326.137C197.171,326.061 197.275,326.018 197.383,326.018L352.593,326.018C352.701,326.018 352.804,326.061 352.881,326.137C352.957,326.214 353,326.317 353,326.426C353,326.534 352.957,326.638 352.881,326.714C352.804,326.791 352.701,326.834 352.593,326.834Z" style="fill:rgb(203,203,203);fill-rule:nonzero;"/>
            <g transform="matrix(0.983776,-0.179403,0.179403,0.983776,-32.2533,23.3552)">
                <circle cx="113" cy="190" r="15" style="fill:none;stroke:rgb(148,204,255);stroke-width:2px;"/>
            </g>
            <path d="M107.407,184.412L116.261,182.798" style="fill:none;fill-rule:nonzero;stroke:rgb(148,204,255);stroke-width:3px;stroke-linecap:round;"/>
            <path d="M104.145,191.615L121.853,188.385" style="fill:none;fill-rule:nonzero;stroke:rgb(148,204,255);stroke-width:2px;stroke-linecap:round;"/>
            <path d="M107.814,195.011L119.619,192.858" style="fill:none;fill-rule:nonzero;stroke:rgb(148,204,255);stroke-width:2px;stroke-linecap:round;"/>
        </g>
    </g>
</svg>
