<?xml version="1.0" encoding="UTF-8" standalone="no"?>
<!DOCTYPE svg PUBLIC "-//W3C//DTD SVG 1.1//EN" "http://www.w3.org/Graphics/SVG/1.1/DTD/svg11.dtd">
<svg width="100%" height="100%" viewBox="0 0 346 327" version="1.1" xmlns="http://www.w3.org/2000/svg" xmlns:xlink="http://www.w3.org/1999/xlink" xml:space="preserve" xmlns:serif="http://www.serif.com/" style="fill-rule:evenodd;clip-rule:evenodd;stroke-linejoin:round;stroke-miterlimit:2;">
    <g transform="matrix(1,0,0,1,-0.0458983,0)">
        <clipPath id="_clip1">
            <rect x="0" y="0" width="346" height="318"/>
        </clipPath>
        <g clip-path="url(#_clip1)">
            <path d="M245.232,291.635L87.412,291.635C83.663,291.631 80.07,290.141 77.42,287.493C74.77,284.846 73.281,281.256 73.278,277.512L73.278,216.916C72.951,217.288 72.609,217.655 72.257,218.012L72.257,277.512C72.26,281.526 73.858,285.375 76.699,288.213C79.54,291.052 83.393,292.649 87.412,292.654L245.676,292.654C245.523,292.318 245.375,291.976 245.232,291.635ZM73.278,67.657C73.281,63.913 74.77,60.324 77.42,57.676C80.07,55.028 83.663,53.539 87.412,53.534L139.996,53.534C139.899,53.193 139.807,52.856 139.721,52.515L87.412,52.515C83.393,52.52 79.54,54.117 76.699,56.956C73.858,59.795 72.26,63.643 72.257,67.657L72.257,160.552C72.609,160.909 72.946,161.276 73.278,161.648L73.278,67.657ZM285.189,79.567L252.215,53.478C251.428,52.855 250.453,52.515 249.448,52.515L220.103,52.515C220.022,52.856 219.93,53.198 219.833,53.534L249.448,53.534C250.222,53.536 250.973,53.796 251.582,54.274L284.556,80.368C284.869,80.614 285.121,80.929 285.295,81.287C285.468,81.646 285.557,82.04 285.556,82.438L285.556,233.653C285.898,233.663 286.24,233.689 286.577,233.714L286.577,82.438C286.579,81.885 286.455,81.34 286.214,80.843C285.974,80.345 285.623,79.909 285.189,79.567Z" style="fill:rgb(63,61,86);fill-rule:nonzero;"/>
            <path d="M284.753,80.914L258.146,80.914C257.184,80.914 256.232,80.725 255.343,80.357C254.455,79.99 253.647,79.451 252.967,78.772C252.287,78.092 251.748,77.286 251.38,76.398C251.012,75.511 250.822,74.56 250.822,73.599L250.822,53.97C250.822,53.884 250.847,53.8 250.892,53.727C250.938,53.654 251.003,53.596 251.081,53.558C251.158,53.521 251.245,53.506 251.33,53.515C251.416,53.525 251.497,53.558 251.564,53.612L285.037,80.099C285.111,80.158 285.166,80.238 285.192,80.329C285.219,80.42 285.216,80.518 285.185,80.607C285.154,80.697 285.095,80.775 285.018,80.83C284.94,80.885 284.848,80.914 284.753,80.914Z" style="fill:rgb(230,230,230);fill-rule:nonzero;"/>
            <path d="M284.753,81.424L258.147,81.424C256.07,81.422 254.078,80.597 252.61,79.129C251.141,77.662 250.315,75.674 250.312,73.599L250.312,53.97C250.313,53.788 250.364,53.61 250.46,53.456C250.557,53.302 250.695,53.179 250.859,53.1C251.023,53.02 251.206,52.989 251.387,53.009C251.568,53.029 251.739,53.099 251.882,53.212L285.354,79.699C285.512,79.824 285.627,79.994 285.683,80.187C285.739,80.38 285.734,80.586 285.668,80.775C285.602,80.965 285.478,81.129 285.314,81.245C285.15,81.362 284.954,81.424 284.753,81.424ZM251.333,54.079L251.333,73.599C251.335,75.403 252.054,77.133 253.331,78.409C254.608,79.685 256.34,80.402 258.147,80.404L284.602,80.404L251.333,54.079Z" style="fill:rgb(63,61,86);fill-rule:nonzero;"/>
            <path d="M231.937,114.747L153.666,114.747C152.695,114.747 151.763,114.362 151.076,113.676C150.39,112.99 150.004,112.06 150.004,111.09C150.004,110.12 150.39,109.189 151.076,108.503C151.763,107.817 152.695,107.432 153.666,107.432L231.937,107.432C232.909,107.432 233.84,107.817 234.527,108.503C235.214,109.189 235.599,110.12 235.599,111.09C235.599,112.06 235.214,112.99 234.527,113.676C233.84,114.362 232.909,114.747 231.937,114.747Z" style="fill:rgb(204,204,204);fill-rule:nonzero;"/>
            <path d="M247.043,127.092L153.666,127.092C152.695,127.092 151.763,126.707 151.076,126.021C150.39,125.335 150.004,124.405 150.004,123.435C150.004,122.464 150.39,121.534 151.076,120.848C151.763,120.162 152.695,119.777 153.666,119.777L247.043,119.777C248.014,119.777 248.945,120.162 249.632,120.848C250.319,121.534 250.704,122.464 250.704,123.435C250.704,124.405 250.319,125.335 249.632,126.021C248.945,126.707 248.014,127.092 247.043,127.092Z" style="fill:rgb(204,204,204);fill-rule:nonzero;"/>
            <path d="M231.937,170.07L153.666,170.07C152.695,170.07 151.763,169.684 151.076,168.998C150.39,168.312 150.004,167.382 150.004,166.412C150.004,165.442 150.39,164.512 151.076,163.826C151.763,163.14 152.695,162.754 153.666,162.754L231.937,162.754C232.909,162.754 233.84,163.14 234.527,163.826C235.214,164.512 235.599,165.442 235.599,166.412C235.599,167.382 235.214,168.312 234.527,168.998C233.84,169.684 232.909,170.07 231.937,170.07Z" style="fill:rgb(204,204,204);fill-rule:nonzero;"/>
            <path d="M247.043,182.414L153.666,182.414C152.695,182.414 151.763,182.029 151.076,181.343C150.39,180.657 150.004,179.727 150.004,178.757C150.004,177.787 150.39,176.856 151.076,176.17C151.763,175.484 152.695,175.099 153.666,175.099L247.043,175.099C248.014,175.099 248.945,175.484 249.632,176.17C250.319,176.856 250.704,177.787 250.704,178.757C250.704,179.727 250.319,180.657 249.632,181.343C248.945,182.029 248.014,182.414 247.043,182.414Z" style="fill:rgb(204,204,204);fill-rule:nonzero;"/>
            <path d="M231.937,225.392L153.666,225.392C153.185,225.392 152.709,225.297 152.264,225.114C151.82,224.93 151.416,224.66 151.076,224.321C150.736,223.981 150.467,223.578 150.283,223.134C150.099,222.69 150.004,222.215 150.004,221.734C150.004,221.254 150.099,220.778 150.283,220.335C150.467,219.891 150.736,219.488 151.076,219.148C151.416,218.808 151.82,218.539 152.264,218.355C152.709,218.171 153.185,218.077 153.666,218.077L231.937,218.077C232.909,218.077 233.84,218.462 234.527,219.148C235.214,219.834 235.599,220.764 235.599,221.734C235.599,222.704 235.214,223.635 234.527,224.321C233.84,225.007 232.909,225.392 231.937,225.392Z" style="fill:rgb(204,204,204);fill-rule:nonzero;"/>
            <path d="M247.043,237.737L153.666,237.737C153.185,237.737 152.709,237.642 152.264,237.458C151.82,237.274 151.416,237.005 151.076,236.665C150.736,236.326 150.467,235.923 150.283,235.479C150.099,235.035 150.004,234.559 150.004,234.079C150.004,233.599 150.099,233.123 150.283,232.679C150.467,232.236 150.736,231.832 151.076,231.493C151.416,231.153 151.82,230.884 152.264,230.7C152.709,230.516 153.185,230.421 153.666,230.421L247.043,230.421C247.523,230.421 248,230.516 248.444,230.7C248.888,230.884 249.292,231.153 249.632,231.493C249.972,231.832 250.242,232.236 250.426,232.679C250.61,233.123 250.704,233.599 250.704,234.079C250.704,234.559 250.61,235.035 250.426,235.479C250.242,235.923 249.972,236.326 249.632,236.665C249.292,237.005 248.888,237.274 248.444,237.458C248,237.642 247.523,237.737 247.043,237.737Z" style="fill:rgb(204,204,204);fill-rule:nonzero;"/>
            <path d="M121.071,130.19C128.219,130.19 134.014,124.402 134.014,117.262C134.014,110.122 128.219,104.334 121.071,104.334C113.923,104.334 108.129,110.122 108.129,117.262C108.129,124.402 113.923,130.19 121.071,130.19Z" style="fill:rgb(0,99,153);fill-rule:nonzero;"/>
            <path d="M119.789,122.194C119.498,122.195 119.215,122.1 118.982,121.926L118.967,121.915L115.925,119.591C115.784,119.483 115.666,119.349 115.577,119.195C115.488,119.042 115.43,118.872 115.406,118.696C115.383,118.52 115.394,118.341 115.44,118.17C115.486,117.998 115.565,117.838 115.674,117.697C115.782,117.556 115.916,117.438 116.07,117.349C116.224,117.26 116.394,117.203 116.57,117.18C116.746,117.156 116.925,117.168 117.097,117.214C117.269,117.26 117.429,117.34 117.57,117.448L119.54,118.957L124.196,112.89C124.304,112.75 124.439,112.632 124.592,112.543C124.746,112.454 124.915,112.397 125.091,112.373C125.267,112.35 125.446,112.362 125.617,112.408C125.789,112.453 125.95,112.533 126.09,112.64L126.062,112.681L126.092,112.641C126.376,112.859 126.561,113.181 126.608,113.535C126.655,113.89 126.559,114.249 126.341,114.533L120.865,121.666C120.739,121.83 120.576,121.963 120.389,122.055C120.203,122.146 119.998,122.193 119.79,122.192L119.789,122.194Z" style="fill:white;fill-rule:nonzero;"/>
            <path d="M121.071,185.512C128.219,185.512 134.014,179.724 134.014,172.585C134.014,165.445 128.219,159.657 121.071,159.657C113.923,159.657 108.129,165.445 108.129,172.585C108.129,179.724 113.923,185.512 121.071,185.512Z" style="fill:rgb(230,230,230);fill-rule:nonzero;"/>
            <path d="M119.789,177.516C119.498,177.517 119.215,177.423 118.982,177.248L118.967,177.237L115.926,174.913C115.641,174.695 115.455,174.374 115.408,174.019C115.361,173.664 115.457,173.305 115.675,173.02C115.894,172.736 116.216,172.55 116.571,172.503C116.927,172.456 117.286,172.552 117.571,172.77L119.541,174.279L124.196,168.213C124.304,168.072 124.439,167.954 124.593,167.865C124.746,167.777 124.916,167.719 125.092,167.696C125.268,167.672 125.446,167.684 125.618,167.73C125.789,167.776 125.95,167.855 126.091,167.963L126.062,168.003L126.092,167.963C126.376,168.181 126.562,168.503 126.609,168.858C126.655,169.212 126.56,169.571 126.342,169.856L120.866,176.988C120.739,177.153 120.576,177.286 120.39,177.377C120.203,177.468 119.998,177.515 119.791,177.515L119.789,177.516Z" style="fill:white;fill-rule:nonzero;"/>
            <path d="M121.071,240.835C128.219,240.835 134.014,235.047 134.014,227.907C134.014,220.767 128.219,214.979 121.071,214.979C113.923,214.979 108.129,220.767 108.129,227.907C108.129,235.047 113.923,240.835 121.071,240.835Z" style="fill:rgb(230,230,230);fill-rule:nonzero;"/>
            <path d="M119.789,232.839C119.498,232.839 119.215,232.745 118.982,232.571L118.967,232.56L115.925,230.236C115.784,230.128 115.666,229.993 115.577,229.84C115.488,229.686 115.43,229.517 115.406,229.341C115.383,229.165 115.394,228.986 115.44,228.814C115.486,228.643 115.565,228.482 115.674,228.341C115.782,228.2 115.916,228.082 116.07,227.994C116.224,227.905 116.394,227.847 116.57,227.824C116.746,227.801 116.925,227.813 117.097,227.859C117.269,227.905 117.429,227.984 117.57,228.093L119.54,229.602L124.196,223.535C124.304,223.394 124.439,223.276 124.592,223.187C124.746,223.099 124.915,223.041 125.091,223.018C125.267,222.995 125.446,223.006 125.617,223.052C125.789,223.098 125.95,223.177 126.09,223.285L126.062,223.325L126.092,223.285C126.376,223.503 126.561,223.825 126.608,224.18C126.655,224.535 126.559,224.894 126.341,225.178L120.865,232.31C120.739,232.475 120.576,232.608 120.389,232.699C120.203,232.79 119.998,232.838 119.79,232.837L119.789,232.839Z" style="fill:white;fill-rule:nonzero;"/>
            <path d="M202.529,77.623C195.966,81.821 188.361,84.111 180.568,84.234C172.774,84.358 165.101,82.312 158.406,78.324C159.584,76.135 161.076,74.129 162.835,72.371C165.55,69.647 168.853,67.58 172.492,66.33C176.13,65.08 180.007,64.68 183.825,65.161C187.643,65.641 191.299,66.989 194.514,69.101C197.729,71.214 200.416,74.034 202.369,77.345C202.421,77.435 202.477,77.529 202.529,77.623Z" style="fill:rgb(0,99,153);fill-rule:nonzero;"/>
            <path d="M178.625,55.118C190.127,55.118 199.451,45.805 199.451,34.316C199.451,22.827 190.127,13.514 178.625,13.514C167.124,13.514 157.8,22.827 157.8,34.316C157.8,45.805 167.124,55.118 178.625,55.118Z" style="fill:rgb(47,46,65);fill-rule:nonzero;"/>
            <path d="M192.08,48.989C196.186,41.486 193.425,32.079 185.914,27.978C178.403,23.876 168.985,26.634 164.879,34.136C160.773,41.639 163.533,51.046 171.045,55.147C178.556,59.249 187.974,56.491 192.08,48.989Z" style="fill:rgb(255,184,184);fill-rule:nonzero;"/>
            <path d="M164.234,31.824C167.776,34.262 171.98,35.56 176.282,35.543C174.748,36.606 173.001,37.324 171.162,37.647C176.881,38.873 182.792,38.906 188.525,37.745C189.799,37.54 191.029,37.119 192.16,36.498C192.723,36.183 193.215,35.754 193.601,35.237C193.988,34.721 194.261,34.129 194.404,33.5C194.784,31.327 193.089,29.352 191.326,28.021C188.628,26.014 185.517,24.631 182.218,23.973C178.92,23.314 175.516,23.397 172.252,24.213C170.122,24.764 167.987,25.693 166.603,27.402C165.22,29.111 164.81,31.746 166.128,33.506L164.234,31.824Z" style="fill:rgb(47,46,65);fill-rule:nonzero;"/>
            <path d="M179.902,0C168.66,0.012 157.881,4.479 149.931,12.419C141.981,20.358 137.509,31.124 137.495,42.353C137.497,45.779 137.919,49.191 138.751,52.515C138.838,52.856 138.924,53.198 139.016,53.534C141.462,62.492 146.79,70.397 154.179,76.032C161.567,81.666 170.606,84.716 179.902,84.712C189.199,84.712 198.239,81.66 205.631,76.027C213.023,70.394 218.357,62.491 220.813,53.534C220.905,53.193 220.992,52.856 221.073,52.515C222.611,46.276 222.708,39.769 221.358,33.486C220.008,27.204 217.245,21.311 213.279,16.252C209.313,11.193 204.247,7.101 198.465,4.285C192.682,1.47 186.335,0.004 179.902,0ZM220.103,52.515C220.022,52.856 219.93,53.198 219.833,53.534C218.111,59.661 214.999,65.309 210.739,70.04C206.479,74.772 201.185,78.46 195.268,80.818C189.351,83.176 182.97,84.142 176.619,83.639C170.268,83.137 164.119,81.18 158.647,77.921C149.554,72.455 142.885,63.735 139.996,53.534C139.899,53.193 139.807,52.856 139.721,52.515C138.87,49.194 138.44,45.781 138.439,42.353C138.446,36.487 139.701,30.688 142.12,25.343C144.539,19.997 148.067,15.225 152.472,11.344C156.876,7.463 162.056,4.561 167.668,2.83C173.28,1.1 179.196,0.58 185.024,1.305C190.853,2.03 196.46,3.984 201.475,7.037C206.491,10.09 210.799,14.173 214.116,19.014C217.433,23.856 219.682,29.347 220.714,35.122C221.746,40.897 221.538,46.826 220.103,52.515Z" style="fill:rgb(63,61,86);fill-rule:nonzero;"/>
            <path d="M65.034,224.528C58.47,228.727 50.866,231.017 43.073,231.141C35.28,231.265 27.606,229.219 20.912,225.232C20.983,225.094 21.06,224.957 21.142,224.824C23.289,220.958 26.418,217.725 30.215,215.451C34.011,213.177 38.34,211.943 42.766,211.872C47.191,211.801 51.558,212.896 55.425,215.048C59.292,217.199 62.524,220.33 64.794,224.125C64.824,224.166 64.85,224.212 64.876,224.253C64.927,224.34 64.983,224.436 65.034,224.528Z" style="fill-rule:nonzero;"/>
            <path d="M61.956,181.222C61.956,185.336 60.734,189.358 58.446,192.778C56.158,196.199 52.905,198.865 49.1,200.44C45.294,202.014 41.107,202.426 37.067,201.624C33.028,200.821 29.317,198.84 26.404,195.931C23.492,193.021 21.508,189.315 20.705,185.28C19.901,181.245 20.314,177.062 21.89,173.261C23.466,169.46 26.135,166.211 29.56,163.925C32.985,161.64 37.011,160.42 41.13,160.42C43.869,160.407 46.583,160.936 49.115,161.976C51.648,163.017 53.949,164.549 55.885,166.483C57.822,168.418 59.355,170.716 60.397,173.246C61.439,175.775 61.969,178.486 61.956,181.222Z" style="fill:rgb(196,199,199);fill-rule:nonzero;"/>
            <path d="M57.449,194.146C57.211,194.745 56.936,195.329 56.627,195.895C54.655,199.497 51.332,202.17 47.387,203.325C43.442,204.48 39.2,204.023 35.593,202.054C33.805,201.079 32.227,199.763 30.949,198.179C29.671,196.595 28.719,194.776 28.145,192.824C27.572,190.872 27.389,188.827 27.607,186.804C27.825,184.782 28.44,182.822 29.417,181.038C30.394,179.253 31.713,177.678 33.299,176.402C34.886,175.127 36.708,174.177 38.663,173.605C40.617,173.034 42.665,172.852 44.689,173.072C46.714,173.291 48.675,173.907 50.461,174.884C53.775,176.694 56.313,179.649 57.6,183.196C58.886,186.742 58.833,190.636 57.449,194.146Z" style="fill:rgb(160,97,106);fill-rule:nonzero;"/>
            <path d="M73.278,160.267C72.951,159.91 72.609,159.558 72.257,159.216C66.586,153.602 59.441,149.702 51.647,147.966C43.853,146.231 35.727,146.73 28.205,149.406C20.683,152.083 14.071,156.828 9.13,163.094C4.19,169.36 1.123,176.893 0.282,184.825C-0.559,192.757 0.86,200.765 4.377,207.926C7.893,215.087 13.364,221.11 20.158,225.301C26.952,229.492 34.793,231.68 42.778,231.614C50.763,231.547 58.567,229.229 65.29,224.926C67.801,223.316 70.136,221.449 72.257,219.353C72.604,219.012 72.946,218.665 73.278,218.308C80.684,210.456 84.809,200.075 84.809,189.287C84.809,178.499 80.684,168.119 73.278,160.267ZM72.257,218.012C70.016,220.332 67.511,222.384 64.795,224.125C64.79,224.13 64.784,224.13 64.78,224.136C58.289,228.286 50.77,230.549 43.065,230.672C35.359,230.794 27.772,228.771 21.153,224.829C21.148,224.829 21.148,224.824 21.142,224.824C16.066,221.8 11.695,217.727 8.324,212.877C4.952,208.028 2.658,202.515 1.595,196.707C0.531,190.899 0.724,184.932 2.158,179.204C3.593,173.477 6.238,168.122 9.914,163.499C13.591,158.876 18.215,155.092 23.475,152.401C28.736,149.709 34.512,148.172 40.416,147.893C46.32,147.614 52.216,148.599 57.708,150.782C63.199,152.966 68.16,156.297 72.257,160.552C72.609,160.909 72.946,161.276 73.278,161.648C80.095,169.242 83.864,179.083 83.864,189.282C83.864,199.482 80.095,209.322 73.278,216.916C72.951,217.288 72.609,217.655 72.257,218.012Z" style="fill:rgb(63,61,86);fill-rule:nonzero;"/>
            <path d="M58.895,164.394C57.869,162.655 56.381,161.232 54.597,160.284C52.813,159.336 50.801,158.898 48.783,159.021C46.666,159.179 44.651,159.958 42.673,160.729L32.615,164.648C30.012,165.662 27.162,166.904 26.033,169.456C24.984,171.825 25.766,174.561 26.558,177.027L30.321,188.75C30.837,186.117 31.36,183.457 32.453,181.006C33.547,178.555 35.275,176.295 37.665,175.07C40.278,173.732 43.357,173.759 46.29,173.9C52.499,174.199 58.195,180.232 58.195,187C60.3,184 62.197,184.012 65.098,181.006C67.999,178 67.387,176.231 67.496,173.682C67.519,171.136 66.797,168.511 65.098,166.614C63.399,164.717 60.63,163.693 58.195,164.444" style="fill:rgb(191,200,202);fill-rule:nonzero;"/>
            <path d="M26.293,108.008L25.273,107.996C25.285,106.977 25.314,105.942 25.36,104.921L26.38,104.967C26.334,105.976 26.305,107 26.293,108.008Z" style="fill:rgb(230,230,230);fill-rule:nonzero;"/>
            <path d="M26.828,99.144L25.814,99.033C26.027,97.084 26.306,95.119 26.643,93.191L27.649,93.367C27.315,95.273 27.039,97.216 26.828,99.144ZM28.841,87.654L27.848,87.414C28.31,85.51 28.841,83.596 29.425,81.726L30.4,82.03C29.822,83.879 29.297,85.771 28.841,87.654ZM32.323,76.513L31.37,76.147C32.075,74.317 32.85,72.487 33.673,70.706L34.6,71.133C33.786,72.894 33.02,74.704 32.323,76.513ZM37.219,65.912L36.322,65.426C37.256,63.704 38.26,61.989 39.306,60.328L40.17,60.871C39.136,62.513 38.143,64.209 37.219,65.912ZM43.438,56.031L42.611,55.434C43.759,53.845 44.974,52.273 46.222,50.761L47.01,51.41C45.776,52.905 44.574,54.459 43.438,56.031ZM50.87,47.027L50.126,46.33C51.467,44.902 52.873,43.498 54.304,42.157L55.002,42.901C53.587,44.227 52.197,45.615 50.87,47.027ZM59.389,39.046L58.74,38.26C60.253,37.013 61.826,35.8 63.416,34.654L64.013,35.481C62.441,36.614 60.886,37.814 59.389,39.046ZM68.856,32.219L68.312,31.356C69.973,30.313 71.688,29.311 73.41,28.379L73.897,29.275C72.194,30.197 70.498,31.188 68.856,32.219ZM79.116,26.662L78.688,25.736C80.467,24.916 82.296,24.144 84.125,23.44L84.492,24.391C82.684,25.087 80.875,25.851 79.116,26.662ZM90.002,22.473L89.697,21.5C91.568,20.916 93.484,20.385 95.39,19.922L95.631,20.913C93.746,21.371 91.852,21.895 90.002,22.473ZM101.35,19.721L101.173,18.716C103.103,18.378 105.07,18.099 107.022,17.885L107.133,18.899C105.203,19.11 103.257,19.387 101.35,19.721Z" style="fill:rgb(230,230,230);fill-rule:nonzero;"/>
            <path d="M112.998,18.447L112.952,17.429C113.975,17.383 115.011,17.354 116.031,17.341L116.043,18.361C115.034,18.373 114.009,18.402 112.998,18.447Z" style="fill:rgb(230,230,230);fill-rule:nonzero;"/>
            <path d="M30.064,104.73L29.335,104.016L25.816,107.611L22.483,103.843L21.718,104.519L25.778,109.108L30.064,104.73Z" style="fill:rgb(230,230,230);fill-rule:nonzero;"/>
            <path d="M112.762,22.127L112.047,21.398L115.646,17.884L111.873,14.554L112.55,13.79L117.144,17.846L112.762,22.127Z" style="fill:rgb(230,230,230);fill-rule:nonzero;"/>
            <path d="M265.488,28.53C264.589,28.058 263.684,27.593 262.772,27.137L263.229,26.226C264.148,26.684 265.059,27.152 265.964,27.627L265.488,28.53Z" style="fill:rgb(230,230,230);fill-rule:nonzero;"/>
            <path d="M334.859,216.73L333.914,216.343C334.682,214.471 335.421,212.561 336.109,210.667L337.069,211.015C336.376,212.922 335.632,214.845 334.859,216.73ZM339.044,205.214L338.071,204.906C338.683,202.98 339.263,201.016 339.795,199.069L340.78,199.338C340.244,201.298 339.66,203.275 339.044,205.214ZM342.272,193.394L341.277,193.166C341.729,191.196 342.145,189.191 342.514,187.208L343.518,187.394C343.146,189.391 342.727,191.41 342.272,193.394ZM344.516,181.348L343.505,181.203C343.792,179.203 344.042,177.171 344.247,175.162L345.262,175.265C345.056,177.288 344.805,179.334 344.516,181.348ZM345.757,169.157L344.738,169.095C344.86,167.08 344.941,165.034 344.98,163.014L346,163.033C345.962,165.067 345.88,167.127 345.757,169.157ZM345.991,156.905L344.97,156.927C344.951,156.04 344.923,155.154 344.888,154.269C344.842,153.133 344.783,151.981 344.711,150.845L345.729,150.781C345.802,151.925 345.862,153.085 345.908,154.228C345.943,155.119 345.971,156.011 345.991,156.905ZM344.202,144.782C343.992,142.774 343.738,140.742 343.446,138.745L344.456,138.597C344.75,140.608 345.006,142.654 345.218,144.677L344.202,144.782ZM342.443,132.742C342.07,130.759 341.651,128.754 341.196,126.785L342.191,126.556C342.649,128.539 343.071,130.557 343.447,132.554L342.443,132.742ZM339.707,120.883C339.173,118.933 338.592,116.969 337.979,115.046L338.952,114.737C339.569,116.674 340.154,118.651 340.692,120.614L339.707,120.883ZM336.015,109.283C335.324,107.384 334.584,105.474 333.817,103.605L334.761,103.218C335.534,105.1 336.278,107.023 336.974,108.935L336.015,109.283ZM331.389,98.02C330.545,96.183 329.653,94.338 328.735,92.538L329.645,92.075C330.569,93.888 331.468,95.745 332.317,97.594L331.389,98.02ZM325.86,87.168C324.87,85.406 323.829,83.64 322.767,81.92L323.636,81.385C324.705,83.117 325.753,84.895 326.75,86.669L325.86,87.168ZM319.461,76.802C318.329,75.126 317.147,73.451 315.948,71.824L316.77,71.219C317.978,72.858 319.168,74.544 320.308,76.232L319.461,76.802ZM312.233,66.993C310.966,65.414 309.649,63.841 308.321,62.319L309.09,61.649C310.428,63.182 311.753,64.765 313.029,66.355L312.233,66.993ZM304.219,57.809C302.826,56.339 301.384,54.88 299.933,53.472L300.645,52.74C302.105,54.159 303.557,55.628 304.96,57.108L304.219,57.809ZM295.472,49.314C293.962,47.964 292.404,46.628 290.841,45.343L291.49,44.556C293.064,45.85 294.633,47.195 296.152,48.554L295.472,49.314ZM286.049,41.566C284.439,40.35 282.779,39.149 281.114,37.995L281.696,37.157C283.372,38.319 285.044,39.528 286.665,40.753L286.049,41.566ZM276.037,34.63C274.333,33.55 272.58,32.488 270.826,31.473L271.338,30.591C273.104,31.612 274.869,32.681 276.584,33.769L276.037,34.63Z" style="fill:rgb(230,230,230);fill-rule:nonzero;"/>
            <path d="M331.106,225.136L330.187,224.693C330.63,223.775 331.063,222.856 331.485,221.934L332.414,222.358C331.988,223.286 331.552,224.212 331.106,225.136Z" style="fill:rgb(230,230,230);fill-rule:nonzero;"/>
            <path d="M264.052,31.964L265.015,31.625L263.337,26.885L268.193,25.559L267.923,24.575L262.009,26.19L264.052,31.964Z" style="fill:rgb(230,230,230);fill-rule:nonzero;"/>
            <path d="M328.247,220.091L329.217,219.772L330.787,224.549L335.443,222.636L335.831,223.58L330.16,225.909L328.247,220.091Z" style="fill:rgb(230,230,230);fill-rule:nonzero;"/>
            <g>
                <path d="M262.577,281.835C266.882,281.835 270.371,278.339 270.371,274.027C270.371,269.716 266.882,266.22 262.577,266.22C258.273,266.22 254.783,269.716 254.783,274.027C254.783,278.339 258.273,281.835 262.577,281.835Z" style="fill:rgb(255,180,165);fill-rule:nonzero;"/>
                <path d="M268.531,321.796L268.523,321.796C268.249,321.796 267.986,321.687 267.792,321.492C267.598,321.298 267.489,321.034 267.488,320.759L267.488,259.887C267.489,259.612 267.598,259.349 267.792,259.154C267.986,258.96 268.249,258.85 268.523,258.85L319.672,258.85C319.946,258.85 320.21,258.96 320.404,259.154C320.598,259.349 320.707,259.612 320.707,259.887L320.707,307.219C320.707,307.492 320.599,307.754 320.406,307.949C320.214,308.143 319.953,308.253 319.68,308.255L268.531,321.796Z" style="fill:rgb(242,242,242);fill-rule:nonzero;"/>
                <path d="M306.337,250.249L282.59,250.249L282.59,236.464C282.59,236.173 282.706,235.894 282.911,235.688C283.117,235.482 283.395,235.367 283.686,235.366L305.241,235.366C305.532,235.367 305.811,235.482 306.016,235.688C306.221,235.894 306.337,236.173 306.337,236.464L306.337,250.249ZM282.833,250.005L306.094,250.005L306.094,236.464C306.094,236.238 306.004,236.021 305.844,235.861C305.684,235.7 305.467,235.61 305.241,235.61L283.686,235.61C283.46,235.61 283.243,235.7 283.083,235.861C282.924,236.021 282.834,236.238 282.833,236.464L282.833,250.005Z" style="fill:rgb(63,61,86);fill-rule:nonzero;"/>
                <path d="M285.68,239.486L303.02,239.486C303.458,239.486 303.878,239.611 304.188,239.834C304.498,240.056 304.672,240.358 304.672,240.672L304.672,258.459L284.028,258.459L284.028,240.672C284.028,240.358 284.202,240.056 284.512,239.834C284.822,239.611 285.242,239.486 285.68,239.486Z" style="fill:rgb(230,230,230);fill-rule:nonzero;"/>
                <path d="M291.357,235.611L286.364,235.611L286.364,230.61C286.364,230.448 286.429,230.293 286.543,230.179C286.657,230.065 286.812,230 286.973,230L290.748,230C290.91,230 291.065,230.065 291.179,230.179C291.293,230.293 291.357,230.448 291.357,230.61L291.357,235.611ZM286.608,235.368L291.114,235.368L291.114,230.61C291.114,230.513 291.075,230.42 291.007,230.351C290.938,230.283 290.845,230.244 290.748,230.244L286.973,230.244C286.876,230.244 286.783,230.283 286.715,230.351C286.646,230.42 286.608,230.513 286.608,230.61L286.608,235.368Z" style="fill:rgb(63,61,86);fill-rule:nonzero;"/>
                <path d="M291.185,242.861L291.185,246.891C291.185,247.885 290.958,248.631 290.505,249.131C290.058,249.631 289.388,249.881 288.495,249.881C287.641,249.881 287.005,249.645 286.585,249.171C286.165,248.691 285.955,247.931 285.955,246.891L285.955,242.861L287.045,242.861L287.045,246.921C287.045,247.621 287.175,248.131 287.435,248.451C287.695,248.765 288.081,248.921 288.595,248.921C289.115,248.921 289.501,248.768 289.755,248.461C290.008,248.148 290.135,247.635 290.135,246.921L290.135,242.861L291.185,242.861ZM298.11,242.861L298.11,249.761L297.14,249.761L293.97,244.911L293.95,244.911L293.95,249.761L292.86,249.761L292.86,242.861L293.83,242.861L297,247.681L297.02,247.681L297.02,242.861L298.11,242.861ZM300.293,248.941L300.293,243.651L299.463,243.651L299.463,242.861L302.203,242.861L302.203,243.651L301.383,243.651L301.383,248.941L302.233,248.941L302.233,249.761L299.433,249.761L299.433,248.941L300.293,248.941Z" style="fill-rule:nonzero;"/>
                <path d="M259.682,323.942C259.645,323.942 259.609,323.927 259.583,323.901C259.557,323.875 259.542,323.839 259.542,323.802L259.542,295.15C259.542,295.132 259.545,295.114 259.552,295.096C259.559,295.079 259.57,295.064 259.583,295.051C259.596,295.038 259.611,295.027 259.628,295.02C259.645,295.013 259.664,295.009 259.682,295.009C259.701,295.009 259.719,295.013 259.736,295.02C259.753,295.027 259.768,295.038 259.781,295.051C259.794,295.064 259.805,295.079 259.812,295.096C259.819,295.114 259.822,295.132 259.822,295.15L259.822,323.802C259.822,323.839 259.807,323.875 259.781,323.901C259.755,323.927 259.719,323.942 259.682,323.942Z" style="fill:rgb(204,204,204);fill-rule:nonzero;"/>
                <path d="M259.805,309.151C259.757,309.151 259.709,309.151 259.661,309.15C256.405,309.113 253.295,307.792 251.005,305.473C248.716,303.154 247.431,300.025 247.43,296.763C247.43,293.162 248.91,287.4 251.03,282.749C252.554,279.405 255.721,273.794 259.805,273.794C261.487,273.794 263.181,274.754 264.84,276.649C264.922,276.742 265.005,276.838 265.086,276.937L265.114,276.971L265.114,307.954L265.045,307.987C264.963,308.027 264.88,308.064 264.797,308.101C263.268,308.778 261.618,309.135 259.947,309.15C259.901,309.151 259.852,309.151 259.805,309.151ZM259.805,274.038C255.857,274.038 252.751,279.559 251.251,282.85C249.145,287.473 247.673,293.194 247.673,296.763C247.673,303.384 253.053,308.831 259.665,308.906C259.715,308.907 259.761,308.908 259.808,308.907C259.853,308.907 259.898,308.907 259.942,308.906C261.581,308.892 263.2,308.541 264.699,307.877C264.757,307.852 264.814,307.827 264.87,307.8L264.87,277.058C264.8,276.974 264.728,276.891 264.657,276.81C263.046,274.97 261.414,274.038 259.805,274.038Z" style="fill:rgb(63,61,86);fill-rule:nonzero;"/>
                <path d="M259.804,300.503C259.784,300.503 259.764,300.499 259.746,300.491C259.727,300.482 259.711,300.47 259.698,300.455L252.651,292.315C252.627,292.287 252.615,292.25 252.618,292.213C252.62,292.176 252.637,292.141 252.666,292.117C252.694,292.092 252.73,292.08 252.767,292.083C252.804,292.085 252.839,292.103 252.863,292.131L259.91,300.271C259.927,300.291 259.939,300.316 259.943,300.343C259.946,300.37 259.943,300.397 259.931,300.421C259.92,300.446 259.902,300.466 259.88,300.481C259.857,300.496 259.831,300.503 259.804,300.503Z" style="fill:rgb(204,204,204);fill-rule:nonzero;"/>
                <path d="M259.804,305.202C259.776,305.202 259.749,305.193 259.726,305.178C259.703,305.162 259.685,305.141 259.675,305.115C259.664,305.089 259.661,305.061 259.667,305.034C259.672,305.007 259.686,304.982 259.705,304.962L263.709,300.951C263.735,300.925 263.771,300.91 263.808,300.91C263.845,300.91 263.881,300.925 263.907,300.951C263.933,300.978 263.948,301.013 263.948,301.05C263.948,301.087 263.933,301.123 263.907,301.149L259.903,305.16C259.89,305.173 259.875,305.184 259.858,305.191C259.841,305.198 259.823,305.202 259.804,305.202Z" style="fill:rgb(204,204,204);fill-rule:nonzero;"/>
                <path d="M270.808,251.226L270.898,251.404C270.938,251.481 270.959,251.567 270.959,251.653L270.959,256.472L275.222,256.472L275.222,251.653C275.222,251.567 275.243,251.481 275.282,251.404L275.373,251.226L270.808,251.226ZM274.978,251.653L274.978,256.228L271.203,256.228L271.203,251.653C271.203,251.592 271.195,251.53 271.181,251.47L275,251.47C274.985,251.53 274.978,251.592 274.978,251.653ZM276.167,251.226L276.257,251.404C276.297,251.481 276.318,251.567 276.318,251.653L276.318,256.472L280.58,256.472L280.58,251.653C280.58,251.567 280.601,251.481 280.641,251.404L280.731,251.226L276.167,251.226ZM280.336,251.653L280.336,256.228L276.561,256.228L276.561,251.653C276.561,251.592 276.554,251.53 276.539,251.47L280.358,251.47C280.344,251.53 280.336,251.592 280.336,251.653ZM281.525,251.226L281.615,251.404C281.655,251.481 281.676,251.567 281.676,251.653L281.676,256.472L285.938,256.472L285.938,251.653C285.938,251.567 285.959,251.481 285.999,251.404L286.089,251.226L281.525,251.226ZM285.695,251.653L285.695,256.228L281.92,256.228L281.92,251.653C281.92,251.592 281.912,251.53 281.898,251.47L285.717,251.47C285.702,251.53 285.695,251.592 285.695,251.653ZM286.883,251.226L286.974,251.404C287.014,251.481 287.034,251.567 287.034,251.653L287.034,256.472L291.297,256.472L291.297,251.653C291.297,251.567 291.318,251.481 291.358,251.404L291.448,251.226L286.883,251.226ZM291.053,251.653L291.053,256.228L287.278,256.228L287.278,251.653C287.278,251.592 287.271,251.53 287.256,251.47L291.075,251.47C291.061,251.53 291.053,251.592 291.053,251.653ZM292.242,251.226L292.332,251.404C292.372,251.481 292.393,251.567 292.393,251.653L292.393,256.472L296.655,256.472L296.655,251.653C296.655,251.567 296.676,251.481 296.716,251.404L296.806,251.226L292.242,251.226ZM296.412,251.653L296.412,256.228L292.636,256.228L292.636,251.653C292.637,251.592 292.629,251.53 292.615,251.47L296.434,251.47C296.419,251.53 296.412,251.592 296.412,251.653ZM297.6,251.226L297.69,251.404C297.73,251.481 297.751,251.567 297.751,251.653L297.751,256.472L302.014,256.472L302.014,251.653C302.014,251.567 302.035,251.481 302.075,251.404L302.165,251.226L297.6,251.226ZM301.77,251.653L301.77,256.228L297.995,256.228L297.995,251.653C297.995,251.592 297.988,251.53 297.973,251.47L301.792,251.47C301.777,251.53 301.77,251.592 301.77,251.653ZM302.959,251.226L303.049,251.404C303.089,251.481 303.11,251.567 303.11,251.653L303.11,256.472L307.372,256.472L307.372,251.653C307.372,251.567 307.393,251.481 307.433,251.404L307.523,251.226L302.959,251.226ZM307.129,251.653L307.129,256.228L303.353,256.228L303.353,251.653C303.353,251.592 303.346,251.53 303.331,251.47L307.15,251.47C307.136,251.53 307.128,251.592 307.129,251.653ZM308.317,251.226L308.407,251.404C308.447,251.481 308.468,251.567 308.468,251.653L308.468,256.472L312.731,256.472L312.731,251.653C312.731,251.567 312.751,251.481 312.791,251.404L312.882,251.226L308.317,251.226ZM312.487,251.653L312.487,256.228L308.712,256.228L308.712,251.653C308.712,251.592 308.704,251.53 308.69,251.47L312.509,251.47C312.494,251.53 312.487,251.592 312.487,251.653ZM313.676,251.226L313.766,251.404C313.806,251.481 313.826,251.567 313.827,251.653L313.827,256.472L318.089,256.472L318.089,251.653C318.089,251.567 318.11,251.481 318.15,251.404L318.24,251.226L313.676,251.226ZM317.845,251.653L317.845,256.228L314.07,256.228L314.07,251.653C314.07,251.592 314.063,251.53 314.048,251.47L317.867,251.47C317.853,251.53 317.845,251.592 317.845,251.653ZM313.676,251.226L313.766,251.404C313.806,251.481 313.826,251.567 313.827,251.653L313.827,256.472L318.089,256.472L318.089,251.653C318.089,251.567 318.11,251.481 318.15,251.404L318.24,251.226L313.676,251.226ZM317.845,251.653L317.845,256.228L314.07,256.228L314.07,251.653C314.07,251.592 314.063,251.53 314.048,251.47L317.867,251.47C317.853,251.53 317.845,251.592 317.845,251.653ZM308.317,251.226L308.407,251.404C308.447,251.481 308.468,251.567 308.468,251.653L308.468,256.472L312.731,256.472L312.731,251.653C312.731,251.567 312.751,251.481 312.791,251.404L312.882,251.226L308.317,251.226ZM312.487,251.653L312.487,256.228L308.712,256.228L308.712,251.653C308.712,251.592 308.704,251.53 308.69,251.47L312.509,251.47C312.494,251.53 312.487,251.592 312.487,251.653ZM302.959,251.226L303.049,251.404C303.089,251.481 303.11,251.567 303.11,251.653L303.11,256.472L307.372,256.472L307.372,251.653C307.372,251.567 307.393,251.481 307.433,251.404L307.523,251.226L302.959,251.226ZM307.129,251.653L307.129,256.228L303.353,256.228L303.353,251.653C303.353,251.592 303.346,251.53 303.331,251.47L307.15,251.47C307.136,251.53 307.128,251.592 307.129,251.653ZM297.6,251.226L297.69,251.404C297.73,251.481 297.751,251.567 297.751,251.653L297.751,256.472L302.014,256.472L302.014,251.653C302.014,251.567 302.035,251.481 302.075,251.404L302.165,251.226L297.6,251.226ZM301.77,251.653L301.77,256.228L297.995,256.228L297.995,251.653C297.995,251.592 297.988,251.53 297.973,251.47L301.792,251.47C301.777,251.53 301.77,251.592 301.77,251.653ZM292.242,251.226L292.332,251.404C292.372,251.481 292.393,251.567 292.393,251.653L292.393,256.472L296.655,256.472L296.655,251.653C296.655,251.567 296.676,251.481 296.716,251.404L296.806,251.226L292.242,251.226ZM296.412,251.653L296.412,256.228L292.636,256.228L292.636,251.653C292.637,251.592 292.629,251.53 292.615,251.47L296.434,251.47C296.419,251.53 296.412,251.592 296.412,251.653ZM286.883,251.226L286.974,251.404C287.014,251.481 287.034,251.567 287.034,251.653L287.034,256.472L291.297,256.472L291.297,251.653C291.297,251.567 291.318,251.481 291.358,251.404L291.448,251.226L286.883,251.226ZM291.053,251.653L291.053,256.228L287.278,256.228L287.278,251.653C287.278,251.592 287.271,251.53 287.256,251.47L291.075,251.47C291.061,251.53 291.053,251.592 291.053,251.653ZM281.525,251.226L281.615,251.404C281.655,251.481 281.676,251.567 281.676,251.653L281.676,256.472L285.938,256.472L285.938,251.653C285.938,251.567 285.959,251.481 285.999,251.404L286.089,251.226L281.525,251.226ZM285.695,251.653L285.695,256.228L281.92,256.228L281.92,251.653C281.92,251.592 281.912,251.53 281.898,251.47L285.717,251.47C285.702,251.53 285.695,251.592 285.695,251.653ZM276.167,251.226L276.257,251.404C276.297,251.481 276.318,251.567 276.318,251.653L276.318,256.472L280.58,256.472L280.58,251.653C280.58,251.567 280.601,251.481 280.641,251.404L280.731,251.226L276.167,251.226ZM280.336,251.653L280.336,256.228L276.561,256.228L276.561,251.653C276.561,251.592 276.554,251.53 276.539,251.47L280.358,251.47C280.344,251.53 280.336,251.592 280.336,251.653ZM270.808,251.226L270.898,251.404C270.938,251.481 270.959,251.567 270.959,251.653L270.959,256.472L275.222,256.472L275.222,251.653C275.222,251.567 275.243,251.481 275.282,251.404L275.373,251.226L270.808,251.226ZM274.978,251.653L274.978,256.228L271.203,256.228L271.203,251.653C271.203,251.592 271.195,251.53 271.181,251.47L275,251.47C274.985,251.53 274.978,251.592 274.978,251.653ZM313.676,251.226L313.766,251.404C313.806,251.481 313.826,251.567 313.827,251.653L313.827,256.472L318.089,256.472L318.089,251.653C318.089,251.567 318.11,251.481 318.15,251.404L318.24,251.226L313.676,251.226ZM317.845,251.653L317.845,256.228L314.07,256.228L314.07,251.653C314.07,251.592 314.063,251.53 314.048,251.47L317.867,251.47C317.853,251.53 317.845,251.592 317.845,251.653ZM308.317,251.226L308.407,251.404C308.447,251.481 308.468,251.567 308.468,251.653L308.468,256.472L312.731,256.472L312.731,251.653C312.731,251.567 312.751,251.481 312.791,251.404L312.882,251.226L308.317,251.226ZM312.487,251.653L312.487,256.228L308.712,256.228L308.712,251.653C308.712,251.592 308.704,251.53 308.69,251.47L312.509,251.47C312.494,251.53 312.487,251.592 312.487,251.653ZM302.959,251.226L303.049,251.404C303.089,251.481 303.11,251.567 303.11,251.653L303.11,256.472L307.372,256.472L307.372,251.653C307.372,251.567 307.393,251.481 307.433,251.404L307.523,251.226L302.959,251.226ZM307.129,251.653L307.129,256.228L303.353,256.228L303.353,251.653C303.353,251.592 303.346,251.53 303.331,251.47L307.15,251.47C307.136,251.53 307.128,251.592 307.129,251.653ZM297.6,251.226L297.69,251.404C297.73,251.481 297.751,251.567 297.751,251.653L297.751,256.472L302.014,256.472L302.014,251.653C302.014,251.567 302.035,251.481 302.075,251.404L302.165,251.226L297.6,251.226ZM301.77,251.653L301.77,256.228L297.995,256.228L297.995,251.653C297.995,251.592 297.988,251.53 297.973,251.47L301.792,251.47C301.777,251.53 301.77,251.592 301.77,251.653ZM292.242,251.226L292.332,251.404C292.372,251.481 292.393,251.567 292.393,251.653L292.393,256.472L296.655,256.472L296.655,251.653C296.655,251.567 296.676,251.481 296.716,251.404L296.806,251.226L292.242,251.226ZM296.412,251.653L296.412,256.228L292.636,256.228L292.636,251.653C292.637,251.592 292.629,251.53 292.615,251.47L296.434,251.47C296.419,251.53 296.412,251.592 296.412,251.653ZM286.883,251.226L286.974,251.404C287.014,251.481 287.034,251.567 287.034,251.653L287.034,256.472L291.297,256.472L291.297,251.653C291.297,251.567 291.318,251.481 291.358,251.404L291.448,251.226L286.883,251.226ZM291.053,251.653L291.053,256.228L287.278,256.228L287.278,251.653C287.278,251.592 287.271,251.53 287.256,251.47L291.075,251.47C291.061,251.53 291.053,251.592 291.053,251.653ZM281.525,251.226L281.615,251.404C281.655,251.481 281.676,251.567 281.676,251.653L281.676,256.472L285.938,256.472L285.938,251.653C285.938,251.567 285.959,251.481 285.999,251.404L286.089,251.226L281.525,251.226ZM285.695,251.653L285.695,256.228L281.92,256.228L281.92,251.653C281.92,251.592 281.912,251.53 281.898,251.47L285.717,251.47C285.702,251.53 285.695,251.592 285.695,251.653ZM276.167,251.226L276.257,251.404C276.297,251.481 276.318,251.567 276.318,251.653L276.318,256.472L280.58,256.472L280.58,251.653C280.58,251.567 280.601,251.481 280.641,251.404L280.731,251.226L276.167,251.226ZM280.336,251.653L280.336,256.228L276.561,256.228L276.561,251.653C276.561,251.592 276.554,251.53 276.539,251.47L280.358,251.47C280.344,251.53 280.336,251.592 280.336,251.653ZM270.808,251.226L270.898,251.404C270.938,251.481 270.959,251.567 270.959,251.653L270.959,256.472L275.222,256.472L275.222,251.653C275.222,251.567 275.243,251.481 275.282,251.404L275.373,251.226L270.808,251.226ZM274.978,251.653L274.978,256.228L271.203,256.228L271.203,251.653C271.203,251.592 271.195,251.53 271.181,251.47L275,251.47C274.985,251.53 274.978,251.592 274.978,251.653ZM313.676,251.226L313.766,251.404C313.806,251.481 313.826,251.567 313.827,251.653L313.827,256.472L318.089,256.472L318.089,251.653C318.089,251.567 318.11,251.481 318.15,251.404L318.24,251.226L313.676,251.226ZM317.845,251.653L317.845,256.228L314.07,256.228L314.07,251.653C314.07,251.592 314.063,251.53 314.048,251.47L317.867,251.47C317.853,251.53 317.845,251.592 317.845,251.653ZM308.317,251.226L308.407,251.404C308.447,251.481 308.468,251.567 308.468,251.653L308.468,256.472L312.731,256.472L312.731,251.653C312.731,251.567 312.751,251.481 312.791,251.404L312.882,251.226L308.317,251.226ZM312.487,251.653L312.487,256.228L308.712,256.228L308.712,251.653C308.712,251.592 308.704,251.53 308.69,251.47L312.509,251.47C312.494,251.53 312.487,251.592 312.487,251.653ZM302.959,251.226L303.049,251.404C303.089,251.481 303.11,251.567 303.11,251.653L303.11,256.472L307.372,256.472L307.372,251.653C307.372,251.567 307.393,251.481 307.433,251.404L307.523,251.226L302.959,251.226ZM307.129,251.653L307.129,256.228L303.353,256.228L303.353,251.653C303.353,251.592 303.346,251.53 303.331,251.47L307.15,251.47C307.136,251.53 307.128,251.592 307.129,251.653ZM297.6,251.226L297.69,251.404C297.73,251.481 297.751,251.567 297.751,251.653L297.751,256.472L302.014,256.472L302.014,251.653C302.014,251.567 302.035,251.481 302.075,251.404L302.165,251.226L297.6,251.226ZM301.77,251.653L301.77,256.228L297.995,256.228L297.995,251.653C297.995,251.592 297.988,251.53 297.973,251.47L301.792,251.47C301.777,251.53 301.77,251.592 301.77,251.653ZM292.242,251.226L292.332,251.404C292.372,251.481 292.393,251.567 292.393,251.653L292.393,256.472L296.655,256.472L296.655,251.653C296.655,251.567 296.676,251.481 296.716,251.404L296.806,251.226L292.242,251.226ZM296.412,251.653L296.412,256.228L292.636,256.228L292.636,251.653C292.637,251.592 292.629,251.53 292.615,251.47L296.434,251.47C296.419,251.53 296.412,251.592 296.412,251.653ZM286.883,251.226L286.974,251.404C287.014,251.481 287.034,251.567 287.034,251.653L287.034,256.472L291.297,256.472L291.297,251.653C291.297,251.567 291.318,251.481 291.358,251.404L291.448,251.226L286.883,251.226ZM291.053,251.653L291.053,256.228L287.278,256.228L287.278,251.653C287.278,251.592 287.271,251.53 287.256,251.47L291.075,251.47C291.061,251.53 291.053,251.592 291.053,251.653ZM281.525,251.226L281.615,251.404C281.655,251.481 281.676,251.567 281.676,251.653L281.676,256.472L285.938,256.472L285.938,251.653C285.938,251.567 285.959,251.481 285.999,251.404L286.089,251.226L281.525,251.226ZM285.695,251.653L285.695,256.228L281.92,256.228L281.92,251.653C281.92,251.592 281.912,251.53 281.898,251.47L285.717,251.47C285.702,251.53 285.695,251.592 285.695,251.653ZM276.167,251.226L276.257,251.404C276.297,251.481 276.318,251.567 276.318,251.653L276.318,256.472L280.58,256.472L280.58,251.653C280.58,251.567 280.601,251.481 280.641,251.404L280.731,251.226L276.167,251.226ZM280.336,251.653L280.336,256.228L276.561,256.228L276.561,251.653C276.561,251.592 276.554,251.53 276.539,251.47L280.358,251.47C280.344,251.53 280.336,251.592 280.336,251.653ZM270.808,251.226L270.898,251.404C270.938,251.481 270.959,251.567 270.959,251.653L270.959,256.472L275.222,256.472L275.222,251.653C275.222,251.567 275.243,251.481 275.282,251.404L275.373,251.226L270.808,251.226ZM274.978,251.653L274.978,256.228L271.203,256.228L271.203,251.653C271.203,251.592 271.195,251.53 271.181,251.47L275,251.47C274.985,251.53 274.978,251.592 274.978,251.653ZM313.676,251.226L313.766,251.404C313.806,251.481 313.826,251.567 313.827,251.653L313.827,256.472L318.089,256.472L318.089,251.653C318.089,251.567 318.11,251.481 318.15,251.404L318.24,251.226L313.676,251.226ZM317.845,251.653L317.845,256.228L314.07,256.228L314.07,251.653C314.07,251.592 314.063,251.53 314.048,251.47L317.867,251.47C317.853,251.53 317.845,251.592 317.845,251.653ZM308.317,251.226L308.407,251.404C308.447,251.481 308.468,251.567 308.468,251.653L308.468,256.472L312.731,256.472L312.731,251.653C312.731,251.567 312.751,251.481 312.791,251.404L312.882,251.226L308.317,251.226ZM312.487,251.653L312.487,256.228L308.712,256.228L308.712,251.653C308.712,251.592 308.704,251.53 308.69,251.47L312.509,251.47C312.494,251.53 312.487,251.592 312.487,251.653ZM302.959,251.226L303.049,251.404C303.089,251.481 303.11,251.567 303.11,251.653L303.11,256.472L307.372,256.472L307.372,251.653C307.372,251.567 307.393,251.481 307.433,251.404L307.523,251.226L302.959,251.226ZM307.129,251.653L307.129,256.228L303.353,256.228L303.353,251.653C303.353,251.592 303.346,251.53 303.331,251.47L307.15,251.47C307.136,251.53 307.128,251.592 307.129,251.653ZM297.6,251.226L297.69,251.404C297.73,251.481 297.751,251.567 297.751,251.653L297.751,256.472L302.014,256.472L302.014,251.653C302.014,251.567 302.035,251.481 302.075,251.404L302.165,251.226L297.6,251.226ZM301.77,251.653L301.77,256.228L297.995,256.228L297.995,251.653C297.995,251.592 297.988,251.53 297.973,251.47L301.792,251.47C301.777,251.53 301.77,251.592 301.77,251.653ZM292.242,251.226L292.332,251.404C292.372,251.481 292.393,251.567 292.393,251.653L292.393,256.472L296.655,256.472L296.655,251.653C296.655,251.567 296.676,251.481 296.716,251.404L296.806,251.226L292.242,251.226ZM296.412,251.653L296.412,256.228L292.636,256.228L292.636,251.653C292.637,251.592 292.629,251.53 292.615,251.47L296.434,251.47C296.419,251.53 296.412,251.592 296.412,251.653ZM286.883,251.226L286.974,251.404C287.014,251.481 287.034,251.567 287.034,251.653L287.034,256.472L291.297,256.472L291.297,251.653C291.297,251.567 291.318,251.481 291.358,251.404L291.448,251.226L286.883,251.226ZM291.053,251.653L291.053,256.228L287.278,256.228L287.278,251.653C287.278,251.592 287.271,251.53 287.256,251.47L291.075,251.47C291.061,251.53 291.053,251.592 291.053,251.653ZM281.525,251.226L281.615,251.404C281.655,251.481 281.676,251.567 281.676,251.653L281.676,256.472L285.938,256.472L285.938,251.653C285.938,251.567 285.959,251.481 285.999,251.404L286.089,251.226L281.525,251.226ZM285.695,251.653L285.695,256.228L281.92,256.228L281.92,251.653C281.92,251.592 281.912,251.53 281.898,251.47L285.717,251.47C285.702,251.53 285.695,251.592 285.695,251.653ZM276.167,251.226L276.257,251.404C276.297,251.481 276.318,251.567 276.318,251.653L276.318,256.472L280.58,256.472L280.58,251.653C280.58,251.567 280.601,251.481 280.641,251.404L280.731,251.226L276.167,251.226ZM280.336,251.653L280.336,256.228L276.561,256.228L276.561,251.653C276.561,251.592 276.554,251.53 276.539,251.47L280.358,251.47C280.344,251.53 280.336,251.592 280.336,251.653ZM270.808,251.226L270.898,251.404C270.938,251.481 270.959,251.567 270.959,251.653L270.959,256.472L275.222,256.472L275.222,251.653C275.222,251.567 275.243,251.481 275.282,251.404L275.373,251.226L270.808,251.226ZM274.978,251.653L274.978,256.228L271.203,256.228L271.203,251.653C271.203,251.592 271.195,251.53 271.181,251.47L275,251.47C274.985,251.53 274.978,251.592 274.978,251.653ZM313.676,251.226L313.766,251.404C313.806,251.481 313.826,251.567 313.827,251.653L313.827,256.472L318.089,256.472L318.089,251.653C318.089,251.567 318.11,251.481 318.15,251.404L318.24,251.226L313.676,251.226ZM317.845,251.653L317.845,256.228L314.07,256.228L314.07,251.653C314.07,251.592 314.063,251.53 314.048,251.47L317.867,251.47C317.853,251.53 317.845,251.592 317.845,251.653ZM308.407,251.404C308.447,251.481 308.468,251.567 308.468,251.653L308.468,256.472L312.731,256.472L312.731,251.653C312.731,251.567 312.751,251.481 312.791,251.404L312.882,251.226L308.317,251.226L308.407,251.404ZM312.509,251.47C312.494,251.53 312.487,251.592 312.487,251.653L312.487,256.228L308.712,256.228L308.712,251.653C308.712,251.592 308.704,251.53 308.69,251.47L312.509,251.47ZM303.049,251.404C303.089,251.481 303.11,251.567 303.11,251.653L303.11,256.472L307.372,256.472L307.372,251.653C307.372,251.567 307.393,251.481 307.433,251.404L307.523,251.226L302.959,251.226L303.049,251.404ZM307.15,251.47C307.136,251.53 307.128,251.592 307.129,251.653L307.129,256.228L303.353,256.228L303.353,251.653C303.353,251.592 303.346,251.53 303.331,251.47L307.15,251.47ZM297.69,251.404C297.73,251.481 297.751,251.567 297.751,251.653L297.751,256.472L302.014,256.472L302.014,251.653C302.014,251.567 302.035,251.481 302.075,251.404L302.165,251.226L297.6,251.226L297.69,251.404ZM301.792,251.47C301.777,251.53 301.77,251.592 301.77,251.653L301.77,256.228L297.995,256.228L297.995,251.653C297.995,251.592 297.988,251.53 297.973,251.47L301.792,251.47ZM292.332,251.404C292.372,251.481 292.393,251.567 292.393,251.653L292.393,256.472L296.655,256.472L296.655,251.653C296.655,251.567 296.676,251.481 296.716,251.404L296.806,251.226L292.242,251.226L292.332,251.404ZM296.434,251.47C296.419,251.53 296.412,251.592 296.412,251.653L296.412,256.228L292.636,256.228L292.636,251.653C292.637,251.592 292.629,251.53 292.615,251.47L296.434,251.47ZM286.974,251.404C287.014,251.481 287.034,251.567 287.034,251.653L287.034,256.472L291.297,256.472L291.297,251.653C291.297,251.567 291.318,251.481 291.358,251.404L291.448,251.226L286.883,251.226L286.974,251.404ZM291.075,251.47C291.061,251.53 291.053,251.592 291.053,251.653L291.053,256.228L287.278,256.228L287.278,251.653C287.278,251.592 287.271,251.53 287.256,251.47L291.075,251.47ZM281.615,251.404C281.655,251.481 281.676,251.567 281.676,251.653L281.676,256.472L285.938,256.472L285.938,251.653C285.938,251.567 285.959,251.481 285.999,251.404L286.089,251.226L281.525,251.226L281.615,251.404ZM285.717,251.47C285.702,251.53 285.695,251.592 285.695,251.653L285.695,256.228L281.92,256.228L281.92,251.653C281.92,251.592 281.912,251.53 281.898,251.47L285.717,251.47ZM276.257,251.404C276.297,251.481 276.318,251.567 276.318,251.653L276.318,256.472L280.58,256.472L280.58,251.653C280.58,251.567 280.601,251.481 280.641,251.404L280.731,251.226L276.167,251.226L276.257,251.404ZM280.358,251.47C280.344,251.53 280.336,251.592 280.336,251.653L280.336,256.228L276.561,256.228L276.561,251.653C276.561,251.592 276.554,251.53 276.539,251.47L280.358,251.47ZM270.898,251.404C270.938,251.481 270.959,251.567 270.959,251.653L270.959,256.472L275.222,256.472L275.222,251.653C275.222,251.567 275.243,251.481 275.282,251.404L275.373,251.226L270.808,251.226L270.898,251.404ZM275,251.47C274.985,251.53 274.978,251.592 274.978,251.653L274.978,256.228L271.203,256.228L271.203,251.653C271.203,251.592 271.195,251.53 271.181,251.47L275,251.47ZM313.766,251.404C313.806,251.481 313.826,251.567 313.827,251.653L313.827,256.472L318.089,256.472L318.089,251.653C318.089,251.567 318.11,251.481 318.15,251.404L318.24,251.226L313.676,251.226L313.766,251.404ZM317.867,251.47C317.853,251.53 317.845,251.592 317.845,251.653L317.845,256.228L314.07,256.228L314.07,251.653C314.07,251.592 314.063,251.53 314.048,251.47L317.867,251.47ZM308.407,251.404C308.447,251.481 308.468,251.567 308.468,251.653L308.468,256.472L312.731,256.472L312.731,251.653C312.731,251.567 312.751,251.481 312.791,251.404L312.882,251.226L308.317,251.226L308.407,251.404ZM312.509,251.47C312.494,251.53 312.487,251.592 312.487,251.653L312.487,256.228L308.712,256.228L308.712,251.653C308.712,251.592 308.704,251.53 308.69,251.47L312.509,251.47ZM303.049,251.404C303.089,251.481 303.11,251.567 303.11,251.653L303.11,256.472L307.372,256.472L307.372,251.653C307.372,251.567 307.393,251.481 307.433,251.404L307.523,251.226L302.959,251.226L303.049,251.404ZM307.15,251.47C307.136,251.53 307.128,251.592 307.129,251.653L307.129,256.228L303.353,256.228L303.353,251.653C303.353,251.592 303.346,251.53 303.331,251.47L307.15,251.47ZM297.69,251.404C297.73,251.481 297.751,251.567 297.751,251.653L297.751,256.472L302.014,256.472L302.014,251.653C302.014,251.567 302.035,251.481 302.075,251.404L302.165,251.226L297.6,251.226L297.69,251.404ZM301.792,251.47C301.777,251.53 301.77,251.592 301.77,251.653L301.77,256.228L297.995,256.228L297.995,251.653C297.995,251.592 297.988,251.53 297.973,251.47L301.792,251.47ZM292.332,251.404C292.372,251.481 292.393,251.567 292.393,251.653L292.393,256.472L296.655,256.472L296.655,251.653C296.655,251.567 296.676,251.481 296.716,251.404L296.806,251.226L292.242,251.226L292.332,251.404ZM296.434,251.47C296.419,251.53 296.412,251.592 296.412,251.653L296.412,256.228L292.636,256.228L292.636,251.653C292.637,251.592 292.629,251.53 292.615,251.47L296.434,251.47ZM286.974,251.404C287.014,251.481 287.034,251.567 287.034,251.653L287.034,256.472L291.297,256.472L291.297,251.653C291.297,251.567 291.318,251.481 291.358,251.404L291.448,251.226L286.883,251.226L286.974,251.404ZM291.075,251.47C291.061,251.53 291.053,251.592 291.053,251.653L291.053,256.228L287.278,256.228L287.278,251.653C287.278,251.592 287.271,251.53 287.256,251.47L291.075,251.47ZM281.615,251.404C281.655,251.481 281.676,251.567 281.676,251.653L281.676,256.472L285.938,256.472L285.938,251.653C285.938,251.567 285.959,251.481 285.999,251.404L286.089,251.226L281.525,251.226L281.615,251.404ZM285.717,251.47C285.702,251.53 285.695,251.592 285.695,251.653L285.695,256.228L281.92,256.228L281.92,251.653C281.92,251.592 281.912,251.53 281.898,251.47L285.717,251.47ZM276.257,251.404C276.297,251.481 276.318,251.567 276.318,251.653L276.318,256.472L280.58,256.472L280.58,251.653C280.58,251.567 280.601,251.481 280.641,251.404L280.731,251.226L276.167,251.226L276.257,251.404ZM280.358,251.47C280.344,251.53 280.336,251.592 280.336,251.653L280.336,256.228L276.561,256.228L276.561,251.653C276.561,251.592 276.554,251.53 276.539,251.47L280.358,251.47ZM270.898,251.404C270.938,251.481 270.959,251.567 270.959,251.653L270.959,256.472L275.222,256.472L275.222,251.653C275.222,251.567 275.243,251.481 275.282,251.404L275.373,251.226L270.808,251.226L270.898,251.404ZM275,251.47C274.985,251.53 274.978,251.592 274.978,251.653L274.978,256.228L271.203,256.228L271.203,251.653C271.203,251.592 271.195,251.53 271.181,251.47L275,251.47ZM322.96,257.204L321.509,257.204C321.429,256.923 321.26,256.676 321.027,256.5C320.795,256.324 320.511,256.228 320.22,256.228L319.429,256.228L319.429,251.653C319.429,251.555 319.41,251.458 319.374,251.367C319.512,251.285 319.619,251.161 319.679,251.012C319.74,250.863 319.749,250.699 319.707,250.544C319.665,250.389 319.573,250.253 319.446,250.156C319.318,250.059 319.162,250.006 319.002,250.006L270.046,250.006C269.886,250.006 269.73,250.059 269.603,250.156C269.475,250.253 269.383,250.389 269.341,250.544C269.299,250.699 269.309,250.863 269.369,251.012C269.429,251.161 269.536,251.285 269.674,251.367C269.638,251.458 269.619,251.555 269.62,251.653L269.62,256.228L268.828,256.228C268.537,256.228 268.253,256.324 268.021,256.5C267.789,256.676 267.62,256.923 267.54,257.204L265.966,257.204C265.676,257.204 265.397,257.32 265.192,257.526C264.986,257.732 264.871,258.011 264.87,258.302L264.87,322.712C264.871,323.003 264.986,323.281 265.192,323.487C265.397,323.693 265.676,323.809 265.966,323.809L322.96,323.809C323.251,323.809 323.529,323.693 323.735,323.487C323.94,323.282 324.056,323.003 324.056,322.712L324.056,258.302C324.056,258.011 323.94,257.732 323.735,257.526C323.529,257.32 323.251,257.204 322.96,257.204ZM323.813,322.712C323.812,322.886 323.759,323.056 323.66,323.199C323.56,323.342 323.419,323.451 323.256,323.512C323.162,323.548 323.061,323.566 322.96,323.565L265.966,323.565C265.865,323.566 265.765,323.548 265.67,323.512C265.507,323.451 265.366,323.342 265.267,323.199C265.167,323.056 265.114,322.886 265.114,322.712L265.114,258.302C265.114,258.075 265.204,257.858 265.364,257.698C265.523,257.538 265.74,257.448 265.966,257.448L267.734,257.448L267.754,257.35C267.805,257.102 267.94,256.88 268.135,256.72C268.331,256.56 268.576,256.472 268.828,256.472L269.863,256.472L269.863,251.653C269.863,251.554 269.89,251.457 269.941,251.371L270.017,251.246L269.879,251.195C269.771,251.155 269.681,251.08 269.624,250.98C269.567,250.881 269.546,250.765 269.566,250.652C269.586,250.539 269.645,250.437 269.733,250.364C269.821,250.29 269.931,250.25 270.046,250.25L319.002,250.25C319.117,250.25 319.228,250.29 319.315,250.364C319.403,250.437 319.462,250.539 319.482,250.652C319.502,250.765 319.481,250.881 319.424,250.98C319.367,251.08 319.277,251.155 319.169,251.195L319.032,251.246L319.107,251.371C319.158,251.457 319.185,251.554 319.185,251.653L319.185,256.472L320.22,256.472C320.473,256.472 320.717,256.56 320.913,256.72C321.108,256.88 321.243,257.102 321.294,257.35L321.314,257.448L322.96,257.448C323.186,257.448 323.403,257.538 323.563,257.698C323.723,257.858 323.812,258.075 323.813,258.302L323.813,322.712ZM270.808,251.226L270.898,251.404C270.938,251.481 270.959,251.567 270.959,251.653L270.959,256.472L275.222,256.472L275.222,251.653C275.222,251.567 275.243,251.481 275.282,251.404L275.373,251.226L270.808,251.226ZM274.978,251.653L274.978,256.228L271.203,256.228L271.203,251.653C271.203,251.592 271.195,251.53 271.181,251.47L275,251.47C274.985,251.53 274.978,251.592 274.978,251.653ZM276.167,251.226L276.257,251.404C276.297,251.481 276.318,251.567 276.318,251.653L276.318,256.472L280.58,256.472L280.58,251.653C280.58,251.567 280.601,251.481 280.641,251.404L280.731,251.226L276.167,251.226ZM280.336,251.653L280.336,256.228L276.561,256.228L276.561,251.653C276.561,251.592 276.554,251.53 276.539,251.47L280.358,251.47C280.344,251.53 280.336,251.592 280.336,251.653ZM281.525,251.226L281.615,251.404C281.655,251.481 281.676,251.567 281.676,251.653L281.676,256.472L285.938,256.472L285.938,251.653C285.938,251.567 285.959,251.481 285.999,251.404L286.089,251.226L281.525,251.226ZM285.695,251.653L285.695,256.228L281.92,256.228L281.92,251.653C281.92,251.592 281.912,251.53 281.898,251.47L285.717,251.47C285.702,251.53 285.695,251.592 285.695,251.653ZM286.883,251.226L286.974,251.404C287.014,251.481 287.034,251.567 287.034,251.653L287.034,256.472L291.297,256.472L291.297,251.653C291.297,251.567 291.318,251.481 291.358,251.404L291.448,251.226L286.883,251.226ZM291.053,251.653L291.053,256.228L287.278,256.228L287.278,251.653C287.278,251.592 287.271,251.53 287.256,251.47L291.075,251.47C291.061,251.53 291.053,251.592 291.053,251.653ZM292.242,251.226L292.332,251.404C292.372,251.481 292.393,251.567 292.393,251.653L292.393,256.472L296.655,256.472L296.655,251.653C296.655,251.567 296.676,251.481 296.716,251.404L296.806,251.226L292.242,251.226ZM296.412,251.653L296.412,256.228L292.636,256.228L292.636,251.653C292.637,251.592 292.629,251.53 292.615,251.47L296.434,251.47C296.419,251.53 296.412,251.592 296.412,251.653ZM297.6,251.226L297.69,251.404C297.73,251.481 297.751,251.567 297.751,251.653L297.751,256.472L302.014,256.472L302.014,251.653C302.014,251.567 302.035,251.481 302.075,251.404L302.165,251.226L297.6,251.226ZM301.77,251.653L301.77,256.228L297.995,256.228L297.995,251.653C297.995,251.592 297.988,251.53 297.973,251.47L301.792,251.47C301.777,251.53 301.77,251.592 301.77,251.653ZM302.959,251.226L303.049,251.404C303.089,251.481 303.11,251.567 303.11,251.653L303.11,256.472L307.372,256.472L307.372,251.653C307.372,251.567 307.393,251.481 307.433,251.404L307.523,251.226L302.959,251.226ZM307.129,251.653L307.129,256.228L303.353,256.228L303.353,251.653C303.353,251.592 303.346,251.53 303.331,251.47L307.15,251.47C307.136,251.53 307.128,251.592 307.129,251.653ZM308.317,251.226L308.407,251.404C308.447,251.481 308.468,251.567 308.468,251.653L308.468,256.472L312.731,256.472L312.731,251.653C312.731,251.567 312.751,251.481 312.791,251.404L312.882,251.226L308.317,251.226ZM312.487,251.653L312.487,256.228L308.712,256.228L308.712,251.653C308.712,251.592 308.704,251.53 308.69,251.47L312.509,251.47C312.494,251.53 312.487,251.592 312.487,251.653ZM313.676,251.226L313.766,251.404C313.806,251.481 313.826,251.567 313.827,251.653L313.827,256.472L318.089,256.472L318.089,251.653C318.089,251.567 318.11,251.481 318.15,251.404L318.24,251.226L313.676,251.226ZM317.845,251.653L317.845,256.228L314.07,256.228L314.07,251.653C314.07,251.592 314.063,251.53 314.048,251.47L317.867,251.47C317.853,251.53 317.845,251.592 317.845,251.653ZM270.808,251.226L270.898,251.404C270.938,251.481 270.959,251.567 270.959,251.653L270.959,256.472L275.222,256.472L275.222,251.653C275.222,251.567 275.243,251.481 275.282,251.404L275.373,251.226L270.808,251.226ZM274.978,251.653L274.978,256.228L271.203,256.228L271.203,251.653C271.203,251.592 271.195,251.53 271.181,251.47L275,251.47C274.985,251.53 274.978,251.592 274.978,251.653ZM276.167,251.226L276.257,251.404C276.297,251.481 276.318,251.567 276.318,251.653L276.318,256.472L280.58,256.472L280.58,251.653C280.58,251.567 280.601,251.481 280.641,251.404L280.731,251.226L276.167,251.226ZM280.336,251.653L280.336,256.228L276.561,256.228L276.561,251.653C276.561,251.592 276.554,251.53 276.539,251.47L280.358,251.47C280.344,251.53 280.336,251.592 280.336,251.653ZM281.525,251.226L281.615,251.404C281.655,251.481 281.676,251.567 281.676,251.653L281.676,256.472L285.938,256.472L285.938,251.653C285.938,251.567 285.959,251.481 285.999,251.404L286.089,251.226L281.525,251.226ZM285.695,251.653L285.695,256.228L281.92,256.228L281.92,251.653C281.92,251.592 281.912,251.53 281.898,251.47L285.717,251.47C285.702,251.53 285.695,251.592 285.695,251.653ZM286.883,251.226L286.974,251.404C287.014,251.481 287.034,251.567 287.034,251.653L287.034,256.472L291.297,256.472L291.297,251.653C291.297,251.567 291.318,251.481 291.358,251.404L291.448,251.226L286.883,251.226ZM291.053,251.653L291.053,256.228L287.278,256.228L287.278,251.653C287.278,251.592 287.271,251.53 287.256,251.47L291.075,251.47C291.061,251.53 291.053,251.592 291.053,251.653ZM292.242,251.226L292.332,251.404C292.372,251.481 292.393,251.567 292.393,251.653L292.393,256.472L296.655,256.472L296.655,251.653C296.655,251.567 296.676,251.481 296.716,251.404L296.806,251.226L292.242,251.226ZM296.412,251.653L296.412,256.228L292.636,256.228L292.636,251.653C292.637,251.592 292.629,251.53 292.615,251.47L296.434,251.47C296.419,251.53 296.412,251.592 296.412,251.653ZM297.6,251.226L297.69,251.404C297.73,251.481 297.751,251.567 297.751,251.653L297.751,256.472L302.014,256.472L302.014,251.653C302.014,251.567 302.035,251.481 302.075,251.404L302.165,251.226L297.6,251.226ZM301.77,251.653L301.77,256.228L297.995,256.228L297.995,251.653C297.995,251.592 297.988,251.53 297.973,251.47L301.792,251.47C301.777,251.53 301.77,251.592 301.77,251.653ZM302.959,251.226L303.049,251.404C303.089,251.481 303.11,251.567 303.11,251.653L303.11,256.472L307.372,256.472L307.372,251.653C307.372,251.567 307.393,251.481 307.433,251.404L307.523,251.226L302.959,251.226ZM307.129,251.653L307.129,256.228L303.353,256.228L303.353,251.653C303.353,251.592 303.346,251.53 303.331,251.47L307.15,251.47C307.136,251.53 307.128,251.592 307.129,251.653ZM308.317,251.226L308.407,251.404C308.447,251.481 308.468,251.567 308.468,251.653L308.468,256.472L312.731,256.472L312.731,251.653C312.731,251.567 312.751,251.481 312.791,251.404L312.882,251.226L308.317,251.226ZM312.487,251.653L312.487,256.228L308.712,256.228L308.712,251.653C308.712,251.592 308.704,251.53 308.69,251.47L312.509,251.47C312.494,251.53 312.487,251.592 312.487,251.653ZM313.676,251.226L313.766,251.404C313.806,251.481 313.826,251.567 313.827,251.653L313.827,256.472L318.089,256.472L318.089,251.653C318.089,251.567 318.11,251.481 318.15,251.404L318.24,251.226L313.676,251.226ZM317.845,251.653L317.845,256.228L314.07,256.228L314.07,251.653C314.07,251.592 314.063,251.53 314.048,251.47L317.867,251.47C317.853,251.53 317.845,251.592 317.845,251.653ZM270.808,251.226L270.898,251.404C270.938,251.481 270.959,251.567 270.959,251.653L270.959,256.472L275.222,256.472L275.222,251.653C275.222,251.567 275.243,251.481 275.282,251.404L275.373,251.226L270.808,251.226ZM274.978,251.653L274.978,256.228L271.203,256.228L271.203,251.653C271.203,251.592 271.195,251.53 271.181,251.47L275,251.47C274.985,251.53 274.978,251.592 274.978,251.653ZM276.167,251.226L276.257,251.404C276.297,251.481 276.318,251.567 276.318,251.653L276.318,256.472L280.58,256.472L280.58,251.653C280.58,251.567 280.601,251.481 280.641,251.404L280.731,251.226L276.167,251.226ZM280.336,251.653L280.336,256.228L276.561,256.228L276.561,251.653C276.561,251.592 276.554,251.53 276.539,251.47L280.358,251.47C280.344,251.53 280.336,251.592 280.336,251.653ZM281.525,251.226L281.615,251.404C281.655,251.481 281.676,251.567 281.676,251.653L281.676,256.472L285.938,256.472L285.938,251.653C285.938,251.567 285.959,251.481 285.999,251.404L286.089,251.226L281.525,251.226ZM285.695,251.653L285.695,256.228L281.92,256.228L281.92,251.653C281.92,251.592 281.912,251.53 281.898,251.47L285.717,251.47C285.702,251.53 285.695,251.592 285.695,251.653ZM286.883,251.226L286.974,251.404C287.014,251.481 287.034,251.567 287.034,251.653L287.034,256.472L291.297,256.472L291.297,251.653C291.297,251.567 291.318,251.481 291.358,251.404L291.448,251.226L286.883,251.226ZM291.053,251.653L291.053,256.228L287.278,256.228L287.278,251.653C287.278,251.592 287.271,251.53 287.256,251.47L291.075,251.47C291.061,251.53 291.053,251.592 291.053,251.653ZM292.242,251.226L292.332,251.404C292.372,251.481 292.393,251.567 292.393,251.653L292.393,256.472L296.655,256.472L296.655,251.653C296.655,251.567 296.676,251.481 296.716,251.404L296.806,251.226L292.242,251.226ZM296.412,251.653L296.412,256.228L292.636,256.228L292.636,251.653C292.637,251.592 292.629,251.53 292.615,251.47L296.434,251.47C296.419,251.53 296.412,251.592 296.412,251.653ZM297.6,251.226L297.69,251.404C297.73,251.481 297.751,251.567 297.751,251.653L297.751,256.472L302.014,256.472L302.014,251.653C302.014,251.567 302.035,251.481 302.075,251.404L302.165,251.226L297.6,251.226ZM301.77,251.653L301.77,256.228L297.995,256.228L297.995,251.653C297.995,251.592 297.988,251.53 297.973,251.47L301.792,251.47C301.777,251.53 301.77,251.592 301.77,251.653ZM302.959,251.226L303.049,251.404C303.089,251.481 303.11,251.567 303.11,251.653L303.11,256.472L307.372,256.472L307.372,251.653C307.372,251.567 307.393,251.481 307.433,251.404L307.523,251.226L302.959,251.226ZM307.129,251.653L307.129,256.228L303.353,256.228L303.353,251.653C303.353,251.592 303.346,251.53 303.331,251.47L307.15,251.47C307.136,251.53 307.128,251.592 307.129,251.653ZM308.317,251.226L308.407,251.404C308.447,251.481 308.468,251.567 308.468,251.653L308.468,256.472L312.731,256.472L312.731,251.653C312.731,251.567 312.751,251.481 312.791,251.404L312.882,251.226L308.317,251.226ZM312.487,251.653L312.487,256.228L308.712,256.228L308.712,251.653C308.712,251.592 308.704,251.53 308.69,251.47L312.509,251.47C312.494,251.53 312.487,251.592 312.487,251.653ZM313.676,251.226L313.766,251.404C313.806,251.481 313.826,251.567 313.827,251.653L313.827,256.472L318.089,256.472L318.089,251.653C318.089,251.567 318.11,251.481 318.15,251.404L318.24,251.226L313.676,251.226ZM317.845,251.653L317.845,256.228L314.07,256.228L314.07,251.653C314.07,251.592 314.063,251.53 314.048,251.47L317.867,251.47C317.853,251.53 317.845,251.592 317.845,251.653ZM270.808,251.226L270.898,251.404C270.938,251.481 270.959,251.567 270.959,251.653L270.959,256.472L275.222,256.472L275.222,251.653C275.222,251.567 275.243,251.481 275.282,251.404L275.373,251.226L270.808,251.226ZM274.978,251.653L274.978,256.228L271.203,256.228L271.203,251.653C271.203,251.592 271.195,251.53 271.181,251.47L275,251.47C274.985,251.53 274.978,251.592 274.978,251.653ZM276.167,251.226L276.257,251.404C276.297,251.481 276.318,251.567 276.318,251.653L276.318,256.472L280.58,256.472L280.58,251.653C280.58,251.567 280.601,251.481 280.641,251.404L280.731,251.226L276.167,251.226ZM280.336,251.653L280.336,256.228L276.561,256.228L276.561,251.653C276.561,251.592 276.554,251.53 276.539,251.47L280.358,251.47C280.344,251.53 280.336,251.592 280.336,251.653ZM281.525,251.226L281.615,251.404C281.655,251.481 281.676,251.567 281.676,251.653L281.676,256.472L285.938,256.472L285.938,251.653C285.938,251.567 285.959,251.481 285.999,251.404L286.089,251.226L281.525,251.226ZM285.695,251.653L285.695,256.228L281.92,256.228L281.92,251.653C281.92,251.592 281.912,251.53 281.898,251.47L285.717,251.47C285.702,251.53 285.695,251.592 285.695,251.653ZM286.883,251.226L286.974,251.404C287.014,251.481 287.034,251.567 287.034,251.653L287.034,256.472L291.297,256.472L291.297,251.653C291.297,251.567 291.318,251.481 291.358,251.404L291.448,251.226L286.883,251.226ZM291.053,251.653L291.053,256.228L287.278,256.228L287.278,251.653C287.278,251.592 287.271,251.53 287.256,251.47L291.075,251.47C291.061,251.53 291.053,251.592 291.053,251.653ZM292.242,251.226L292.332,251.404C292.372,251.481 292.393,251.567 292.393,251.653L292.393,256.472L296.655,256.472L296.655,251.653C296.655,251.567 296.676,251.481 296.716,251.404L296.806,251.226L292.242,251.226ZM296.412,251.653L296.412,256.228L292.636,256.228L292.636,251.653C292.637,251.592 292.629,251.53 292.615,251.47L296.434,251.47C296.419,251.53 296.412,251.592 296.412,251.653ZM297.6,251.226L297.69,251.404C297.73,251.481 297.751,251.567 297.751,251.653L297.751,256.472L302.014,256.472L302.014,251.653C302.014,251.567 302.035,251.481 302.075,251.404L302.165,251.226L297.6,251.226ZM301.77,251.653L301.77,256.228L297.995,256.228L297.995,251.653C297.995,251.592 297.988,251.53 297.973,251.47L301.792,251.47C301.777,251.53 301.77,251.592 301.77,251.653ZM302.959,251.226L303.049,251.404C303.089,251.481 303.11,251.567 303.11,251.653L303.11,256.472L307.372,256.472L307.372,251.653C307.372,251.567 307.393,251.481 307.433,251.404L307.523,251.226L302.959,251.226ZM307.129,251.653L307.129,256.228L303.353,256.228L303.353,251.653C303.353,251.592 303.346,251.53 303.331,251.47L307.15,251.47C307.136,251.53 307.128,251.592 307.129,251.653ZM308.317,251.226L308.407,251.404C308.447,251.481 308.468,251.567 308.468,251.653L308.468,256.472L312.731,256.472L312.731,251.653C312.731,251.567 312.751,251.481 312.791,251.404L312.882,251.226L308.317,251.226ZM312.487,251.653L312.487,256.228L308.712,256.228L308.712,251.653C308.712,251.592 308.704,251.53 308.69,251.47L312.509,251.47C312.494,251.53 312.487,251.592 312.487,251.653ZM313.676,251.226L313.766,251.404C313.806,251.481 313.826,251.567 313.827,251.653L313.827,256.472L318.089,256.472L318.089,251.653C318.089,251.567 318.11,251.481 318.15,251.404L318.24,251.226L313.676,251.226ZM317.845,251.653L317.845,256.228L314.07,256.228L314.07,251.653C314.07,251.592 314.063,251.53 314.048,251.47L317.867,251.47C317.853,251.53 317.845,251.592 317.845,251.653Z" style="fill:rgb(63,61,86);fill-rule:nonzero;"/>
                <path d="M285.287,272.574L276.306,272.574C276.117,272.574 275.936,272.498 275.802,272.364C275.668,272.23 275.593,272.049 275.593,271.859L275.593,267.067C275.593,266.878 275.668,266.696 275.802,266.562C275.936,266.428 276.117,266.353 276.306,266.353L285.287,266.353C285.476,266.353 285.657,266.428 285.791,266.562C285.925,266.696 286,266.878 286,267.067L286,271.859C286,272.049 285.925,272.23 285.791,272.364C285.657,272.498 285.476,272.574 285.287,272.574Z" style="fill:rgb(0,119,182);fill-rule:nonzero;"/>
                <path d="M298.953,272.574L289.972,272.574C289.783,272.574 289.602,272.498 289.468,272.364C289.334,272.23 289.259,272.049 289.259,271.859L289.259,267.067C289.259,266.878 289.334,266.696 289.468,266.562C289.602,266.428 289.783,266.353 289.972,266.353L298.953,266.353C299.142,266.353 299.323,266.428 299.457,266.562C299.591,266.696 299.666,266.878 299.666,267.067L299.666,271.859C299.666,272.049 299.591,272.23 299.457,272.364C299.323,272.498 299.142,272.574 298.953,272.574Z" style="fill:rgb(0,119,182);fill-rule:nonzero;"/>
                <path d="M312.62,272.574L303.639,272.574C303.45,272.574 303.269,272.498 303.135,272.364C303.001,272.23 302.926,272.049 302.926,271.859L302.926,267.067C302.926,266.878 303.001,266.696 303.135,266.562C303.269,266.428 303.45,266.353 303.639,266.353L312.62,266.353C312.809,266.353 312.99,266.428 313.124,266.562C313.258,266.696 313.333,266.878 313.333,267.067L313.333,271.859C313.333,272.049 313.258,272.23 313.124,272.364C312.99,272.498 312.809,272.574 312.62,272.574Z" style="fill:rgb(0,119,182);fill-rule:nonzero;"/>
                <path d="M285.287,288.554L276.306,288.554C276.117,288.554 275.936,288.479 275.802,288.345C275.668,288.211 275.593,288.029 275.593,287.84L275.593,283.048C275.593,282.858 275.668,282.677 275.802,282.543C275.936,282.409 276.117,282.333 276.306,282.333L285.287,282.333C285.476,282.333 285.657,282.409 285.791,282.543C285.925,282.677 286,282.858 286,283.048L286,287.84C286,288.029 285.925,288.211 285.791,288.345C285.657,288.479 285.476,288.554 285.287,288.554Z" style="fill:rgb(0,119,182);fill-rule:nonzero;"/>
                <path d="M298.953,288.554L289.972,288.554C289.783,288.554 289.602,288.479 289.468,288.345C289.334,288.211 289.259,288.029 289.259,287.84L289.259,283.048C289.259,282.858 289.334,282.677 289.468,282.543C289.602,282.409 289.783,282.333 289.972,282.333L298.953,282.333C299.142,282.333 299.323,282.409 299.457,282.543C299.591,282.677 299.666,282.858 299.666,283.048L299.666,287.84C299.666,288.029 299.591,288.211 299.457,288.345C299.323,288.479 299.142,288.554 298.953,288.554Z" style="fill:rgb(0,119,182);fill-rule:nonzero;"/>
                <path d="M312.62,288.554L303.639,288.554C303.45,288.554 303.269,288.479 303.135,288.345C303.001,288.211 302.926,288.029 302.926,287.84L302.926,283.048C302.926,282.858 303.001,282.677 303.135,282.543C303.269,282.409 303.45,282.333 303.639,282.333L312.62,282.333C312.809,282.333 312.99,282.409 313.124,282.543C313.258,282.677 313.333,282.858 313.333,283.048L313.333,287.84C313.333,288.029 313.258,288.211 313.124,288.345C312.99,288.479 312.809,288.554 312.62,288.554Z" style="fill:rgb(0,119,182);fill-rule:nonzero;"/>
                <path d="M285.287,304.535L276.306,304.535C276.117,304.535 275.936,304.459 275.802,304.325C275.668,304.191 275.593,304.01 275.593,303.82L275.593,299.028C275.593,298.839 275.668,298.657 275.802,298.523C275.936,298.389 276.117,298.314 276.306,298.313L285.287,298.313C285.476,298.314 285.657,298.389 285.791,298.523C285.925,298.657 286,298.839 286,299.028L286,303.82C286,304.01 285.925,304.191 285.791,304.325C285.657,304.459 285.476,304.535 285.287,304.535Z" style="fill:rgb(0,119,182);fill-rule:nonzero;"/>
                <path d="M298.953,304.535L289.972,304.535C289.783,304.535 289.602,304.459 289.468,304.325C289.334,304.191 289.259,304.01 289.259,303.82L289.259,299.028C289.259,298.839 289.334,298.657 289.468,298.523C289.602,298.389 289.783,298.314 289.972,298.313L298.953,298.313C299.142,298.314 299.323,298.389 299.457,298.523C299.591,298.657 299.666,298.839 299.666,299.028L299.666,303.82C299.666,304.01 299.591,304.191 299.457,304.325C299.323,304.459 299.142,304.535 298.953,304.535Z" style="fill:rgb(0,119,182);fill-rule:nonzero;"/>
                <path d="M312.62,304.535L303.639,304.535C303.45,304.535 303.269,304.459 303.135,304.325C303.001,304.191 302.926,304.01 302.926,303.82L302.926,299.028C302.926,298.839 303.001,298.657 303.135,298.523C303.269,298.389 303.45,298.314 303.639,298.313L312.62,298.313C312.809,298.314 312.99,298.389 313.124,298.523C313.258,298.657 313.333,298.839 313.333,299.028L313.333,303.82C313.333,304.01 313.258,304.191 313.124,304.325C312.99,304.459 312.809,304.535 312.62,304.535Z" style="fill:rgb(0,119,182);fill-rule:nonzero;"/>
                <path d="M283.833,273.189L273.43,273.189C273.178,273.189 272.937,273.089 272.759,272.91C272.582,272.732 272.482,272.491 272.481,272.239L272.481,266.688C272.482,266.436 272.582,266.194 272.759,266.016C272.937,265.838 273.178,265.738 273.43,265.738L283.833,265.738C284.085,265.738 284.326,265.838 284.503,266.016C284.681,266.194 284.781,266.436 284.781,266.688L284.781,272.239C284.781,272.491 284.681,272.732 284.503,272.91C284.326,273.089 284.085,273.189 283.833,273.189ZM273.43,265.982C273.243,265.982 273.064,266.056 272.932,266.189C272.8,266.321 272.725,266.501 272.725,266.688L272.725,272.239C272.725,272.426 272.8,272.606 272.932,272.738C273.064,272.87 273.243,272.945 273.43,272.945L283.833,272.945C284.02,272.945 284.199,272.87 284.331,272.738C284.463,272.606 284.538,272.426 284.538,272.239L284.538,266.688C284.538,266.501 284.463,266.321 284.331,266.189C284.199,266.056 284.02,265.982 283.833,265.982L273.43,265.982Z" style="fill:rgb(63,61,86);fill-rule:nonzero;"/>
                <path d="M299.664,273.189L289.261,273.189C289.009,273.189 288.768,273.089 288.591,272.91C288.413,272.732 288.313,272.491 288.312,272.239L288.312,266.688C288.313,266.436 288.413,266.194 288.591,266.016C288.768,265.838 289.009,265.738 289.261,265.738L299.664,265.738C299.916,265.738 300.157,265.838 300.334,266.016C300.512,266.194 300.612,266.436 300.613,266.688L300.613,272.239C300.612,272.491 300.512,272.732 300.334,272.91C300.157,273.089 299.916,273.189 299.664,273.189ZM289.261,265.982C289.074,265.982 288.895,266.056 288.763,266.189C288.631,266.321 288.556,266.501 288.556,266.688L288.556,272.239C288.556,272.426 288.631,272.606 288.763,272.738C288.895,272.87 289.074,272.945 289.261,272.945L299.664,272.945C299.851,272.945 300.03,272.87 300.162,272.738C300.294,272.606 300.369,272.426 300.369,272.239L300.369,266.688C300.369,266.501 300.294,266.321 300.162,266.189C300.03,266.056 299.851,265.982 299.664,265.982L289.261,265.982Z" style="fill:rgb(63,61,86);fill-rule:nonzero;"/>
                <path d="M315.496,273.189L305.093,273.189C304.841,273.189 304.6,273.089 304.423,272.91C304.245,272.732 304.145,272.491 304.145,272.239L304.145,266.688C304.145,266.436 304.245,266.194 304.423,266.016C304.6,265.838 304.841,265.738 305.093,265.738L315.496,265.738C315.748,265.738 315.989,265.838 316.166,266.016C316.344,266.194 316.444,266.436 316.445,266.688L316.445,272.239C316.444,272.491 316.344,272.732 316.166,272.91C315.989,273.089 315.748,273.189 315.496,273.189ZM305.093,265.982C304.906,265.982 304.727,266.056 304.595,266.189C304.463,266.321 304.388,266.501 304.388,266.688L304.388,272.239C304.388,272.426 304.463,272.606 304.595,272.738C304.727,272.87 304.906,272.945 305.093,272.945L315.496,272.945C315.683,272.945 315.862,272.87 315.994,272.738C316.126,272.606 316.201,272.426 316.201,272.239L316.201,266.688C316.201,266.501 316.126,266.321 315.994,266.189C315.862,266.056 315.683,265.982 315.496,265.982L305.093,265.982Z" style="fill:rgb(63,61,86);fill-rule:nonzero;"/>
                <path d="M283.833,289.169L273.43,289.169C273.178,289.169 272.937,289.069 272.759,288.891C272.582,288.713 272.482,288.471 272.481,288.22L272.481,282.668C272.482,282.416 272.582,282.175 272.759,281.997C272.937,281.819 273.178,281.719 273.43,281.718L283.833,281.718C284.085,281.719 284.326,281.819 284.503,281.997C284.681,282.175 284.781,282.416 284.781,282.668L284.781,288.22C284.781,288.471 284.681,288.713 284.503,288.891C284.326,289.069 284.085,289.169 283.833,289.169ZM273.43,281.962C273.243,281.962 273.064,282.037 272.932,282.169C272.8,282.302 272.725,282.481 272.725,282.668L272.725,288.22C272.725,288.407 272.8,288.586 272.932,288.718C273.064,288.851 273.243,288.925 273.43,288.925L283.833,288.925C284.02,288.925 284.199,288.851 284.331,288.718C284.463,288.586 284.538,288.407 284.538,288.22L284.538,282.668C284.538,282.481 284.463,282.302 284.331,282.169C284.199,282.037 284.02,281.962 283.833,281.962L273.43,281.962Z" style="fill:rgb(63,61,86);fill-rule:nonzero;"/>
                <path d="M299.664,289.169L289.261,289.169C289.009,289.169 288.768,289.069 288.591,288.891C288.413,288.713 288.313,288.471 288.312,288.22L288.312,282.668C288.313,282.416 288.413,282.175 288.591,281.997C288.768,281.819 289.009,281.719 289.261,281.718L299.664,281.718C299.916,281.719 300.157,281.819 300.334,281.997C300.512,282.175 300.612,282.416 300.613,282.668L300.613,288.22C300.612,288.471 300.512,288.713 300.334,288.891C300.157,289.069 299.916,289.169 299.664,289.169ZM289.261,281.962C289.074,281.962 288.895,282.037 288.763,282.169C288.631,282.302 288.556,282.481 288.556,282.668L288.556,288.22C288.556,288.407 288.631,288.586 288.763,288.718C288.895,288.851 289.074,288.925 289.261,288.925L299.664,288.925C299.851,288.925 300.03,288.851 300.162,288.718C300.294,288.586 300.369,288.407 300.369,288.22L300.369,282.668C300.369,282.481 300.294,282.302 300.162,282.169C300.03,282.037 299.851,281.962 299.664,281.962L289.261,281.962Z" style="fill:rgb(63,61,86);fill-rule:nonzero;"/>
                <path d="M315.496,289.169L305.093,289.169C304.841,289.169 304.6,289.069 304.423,288.891C304.245,288.713 304.145,288.471 304.145,288.22L304.145,282.668C304.145,282.416 304.245,282.175 304.423,281.997C304.6,281.819 304.841,281.719 305.093,281.718L315.496,281.718C315.748,281.719 315.989,281.819 316.166,281.997C316.344,282.175 316.444,282.416 316.445,282.668L316.445,288.22C316.444,288.471 316.344,288.713 316.166,288.891C315.989,289.069 315.748,289.169 315.496,289.169ZM305.093,281.962C304.906,281.962 304.727,282.037 304.595,282.169C304.463,282.302 304.388,282.481 304.388,282.668L304.388,288.22C304.388,288.407 304.463,288.586 304.595,288.718C304.727,288.851 304.906,288.925 305.093,288.925L315.496,288.925C315.683,288.925 315.862,288.851 315.994,288.718C316.126,288.586 316.201,288.407 316.201,288.22L316.201,282.668C316.201,282.481 316.126,282.302 315.994,282.169C315.862,282.037 315.683,281.962 315.496,281.962L305.093,281.962Z" style="fill:rgb(63,61,86);fill-rule:nonzero;"/>
                <path d="M283.833,305.15L273.43,305.15C273.178,305.15 272.937,305.049 272.759,304.871C272.582,304.693 272.482,304.452 272.481,304.2L272.481,298.649C272.482,298.397 272.582,298.155 272.759,297.977C272.937,297.799 273.178,297.699 273.43,297.699L283.833,297.699C284.085,297.699 284.326,297.799 284.503,297.977C284.681,298.155 284.781,298.397 284.781,298.649L284.781,304.2C284.781,304.452 284.681,304.693 284.503,304.871C284.326,305.049 284.085,305.15 283.833,305.15ZM273.43,297.943C273.243,297.943 273.064,298.017 272.932,298.15C272.8,298.282 272.725,298.461 272.725,298.649L272.725,304.2C272.725,304.387 272.8,304.567 272.932,304.699C273.064,304.831 273.243,304.906 273.43,304.906L283.833,304.906C284.02,304.906 284.199,304.831 284.331,304.699C284.463,304.567 284.538,304.387 284.538,304.2L284.538,298.649C284.538,298.461 284.463,298.282 284.331,298.15C284.199,298.017 284.02,297.943 283.833,297.943L273.43,297.943Z" style="fill:rgb(63,61,86);fill-rule:nonzero;"/>
                <path d="M299.664,305.15L289.261,305.15C289.009,305.15 288.768,305.049 288.591,304.871C288.413,304.693 288.313,304.452 288.312,304.2L288.312,298.649C288.313,298.397 288.413,298.155 288.591,297.977C288.768,297.799 289.009,297.699 289.261,297.699L299.664,297.699C299.916,297.699 300.157,297.799 300.334,297.977C300.512,298.155 300.612,298.397 300.613,298.649L300.613,304.2C300.612,304.452 300.512,304.693 300.334,304.871C300.157,305.049 299.916,305.15 299.664,305.15ZM289.261,297.943C289.074,297.943 288.895,298.017 288.763,298.15C288.631,298.282 288.556,298.461 288.556,298.649L288.556,304.2C288.556,304.387 288.631,304.567 288.763,304.699C288.895,304.831 289.074,304.906 289.261,304.906L299.664,304.906C299.851,304.906 300.03,304.831 300.162,304.699C300.294,304.567 300.369,304.387 300.369,304.2L300.369,298.649C300.369,298.461 300.294,298.282 300.162,298.15C300.03,298.017 299.851,297.943 299.664,297.943L289.261,297.943Z" style="fill:rgb(63,61,86);fill-rule:nonzero;"/>
                <path d="M315.496,305.15L305.093,305.15C304.841,305.15 304.6,305.049 304.423,304.871C304.245,304.693 304.145,304.452 304.145,304.2L304.145,298.649C304.145,298.397 304.245,298.155 304.423,297.977C304.6,297.799 304.841,297.699 305.093,297.699L315.496,297.699C315.748,297.699 315.989,297.799 316.166,297.977C316.344,298.155 316.444,298.397 316.445,298.649L316.445,304.2C316.444,304.452 316.344,304.693 316.166,304.871C315.989,305.049 315.748,305.15 315.496,305.15ZM305.093,297.943C304.906,297.943 304.727,298.017 304.595,298.15C304.463,298.282 304.388,298.461 304.388,298.649L304.388,304.2C304.388,304.387 304.463,304.567 304.595,304.699C304.727,304.831 304.906,304.906 305.093,304.906L315.496,304.906C315.683,304.906 315.862,304.831 315.994,304.699C316.126,304.567 316.201,304.387 316.201,304.2L316.201,298.649C316.201,298.461 316.126,298.282 315.994,298.15C315.862,298.017 315.683,297.943 315.496,297.943L305.093,297.943Z" style="fill:rgb(63,61,86);fill-rule:nonzero;"/>
                <path d="M302.951,310.001C302.956,309.602 302.806,309.217 302.534,308.931C302.263,308.645 301.892,308.482 301.503,308.477L294.35,308.477L294.35,326.587L302.951,326.587L302.951,310.001Z" style="fill:rgb(63,61,86);fill-rule:nonzero;"/>
                <path d="M294.349,325.725L285.748,325.725L285.748,310.068C285.749,309.646 285.913,309.242 286.204,308.944C286.496,308.645 286.892,308.478 287.304,308.477L294.349,308.477L294.349,325.725ZM286.076,325.39L294.022,325.39L294.022,308.812L287.304,308.812C286.979,308.812 286.666,308.945 286.436,309.18C286.206,309.416 286.076,309.735 286.076,310.068L286.076,325.39Z" style="fill:rgb(63,61,86);fill-rule:nonzero;"/>
                <path d="M287.608,233.113C287.27,233.087 286.927,233.067 286.585,233.051C285.894,233.015 285.198,233 284.497,233C277.528,233 270.666,234.714 264.516,237.991C258.365,241.268 253.115,246.007 249.227,251.791C245.339,257.575 242.934,264.226 242.222,271.159C241.511,278.091 242.515,285.093 245.146,291.546C245.284,291.889 245.428,292.231 245.581,292.569C249.097,300.534 254.958,307.237 262.382,311.784L262.653,311.943C262.883,312.081 263.108,312.214 263.333,312.337C263.717,312.567 264.101,312.782 264.489,312.992C264.755,313.13 265.021,313.268 265.282,313.401C268.232,314.907 271.351,316.058 274.573,316.828C275.238,316.992 275.903,317.135 276.583,317.258C279.192,317.752 281.842,318.001 284.497,318C285.168,318 285.833,317.985 286.503,317.954C287.434,317.913 288.36,317.836 289.276,317.734C290.386,317.611 291.482,317.444 292.565,317.233C294.748,316.811 296.895,316.219 298.986,315.463C299.252,315.36 299.518,315.263 299.774,315.161C300.49,314.89 301.185,314.598 301.876,314.286C302.633,313.943 303.378,313.58 304.112,313.196C311.462,309.345 317.537,303.445 321.603,296.212C321.621,296.173 321.642,296.135 321.664,296.099C325.126,289.861 326.96,282.851 326.999,275.717C327.038,268.583 325.28,261.554 321.887,255.278C318.494,249.003 313.575,243.683 307.584,239.809C301.593,235.935 294.723,233.632 287.608,233.113ZM325.322,283.299C324.501,287.59 323.003,291.724 320.887,295.547C320.851,295.613 320.815,295.68 320.779,295.741C316.797,302.869 310.807,308.669 303.554,312.419C302.828,312.797 302.093,313.152 301.349,313.483C300.73,313.759 300.096,314.025 299.456,314.271C299.19,314.373 298.914,314.48 298.643,314.572C296.836,315.232 294.985,315.762 293.102,316.158C291.707,316.457 290.296,316.679 288.877,316.823C288.002,316.921 287.117,316.987 286.221,317.018C285.648,317.043 285.076,317.059 284.497,317.059C281.928,317.06 279.364,316.82 276.839,316.342C275.302,316.061 273.784,315.688 272.291,315.227C270.017,314.526 267.807,313.631 265.686,312.552C265.441,312.424 265.195,312.296 264.955,312.163C264.607,311.979 264.259,311.789 263.922,311.59C263.666,311.447 263.41,311.293 263.159,311.145C263.011,311.058 262.868,310.971 262.719,310.879C255.652,306.51 250.046,300.136 246.615,292.569C246.461,292.231 246.313,291.889 246.169,291.546C243.526,285.23 242.483,278.36 243.135,271.544C243.787,264.729 246.113,258.18 249.906,252.48C253.698,246.78 258.841,242.106 264.876,238.872C270.911,235.639 277.651,233.947 284.497,233.946C285.198,233.946 285.894,233.962 286.585,234.003C286.927,234.013 287.27,234.039 287.608,234.064C293.445,234.507 299.124,236.176 304.272,238.965C309.419,241.753 313.92,245.596 317.48,250.244C321.041,254.891 323.579,260.238 324.93,265.934C326.282,271.63 326.415,277.548 325.322,283.299Z" style="fill:rgb(63,61,86);fill-rule:nonzero;"/>
            </g>
        </g>
    </g>
</svg>
