<svg width="261" height="161" viewBox="0 0 261 161" fill="none" xmlns="http://www.w3.org/2000/svg">
<g clip-path="url(#clip0_69587_102694)">
<g clip-path="url(#clip1_69587_102694)">
<path fill-rule="evenodd" clip-rule="evenodd" d="M86.8333 95.2817C121.818 95.2817 150.167 109.921 150.167 127.948C150.167 145.976 121.793 160.615 86.8333 160.615C51.8742 160.615 23.5 145.976 23.5 127.948C23.5 109.921 51.8742 95.2817 86.8333 95.2817Z" fill="#D1CDCB"/>
<path d="M41.3988 91.627C40.7675 91.7505 40.4243 92.5878 40.1635 93.0819C39.8067 93.7407 39.6557 94.6329 40.438 95.5388C41.2204 96.4446 42.84 96.4446 43.4577 97.076C44.0204 97.6388 46.491 99.1211 48.2616 100.068C49.1675 100.562 51.1714 100.617 51.8028 99.8211C52.2557 99.2446 52.0773 97.6388 51.6929 97.3094C50.3616 96.1701 50.1008 95.5525 49.2635 94.7015C48.5224 93.9466 48.6184 94.1388 47.9871 93.2878C47.7263 92.9446 46.7518 91.2564 46.1753 91.6819L41.3988 91.6133V91.627Z" fill="#1E160D"/>
<path d="M37.9411 54.5134C38.5039 57.3409 38.2568 60.2232 38.5862 63.0919C38.9843 66.4958 38.3117 70.4899 39.8901 73.6605C40.3568 74.6213 41.8941 76.186 43.8019 76.0213C44.9 75.9252 47.2607 75.5958 47.1098 74.8409C46.945 74.0448 47.5764 72.6174 47.5352 71.9174C47.4666 70.5997 47.4941 62.6938 47.5901 60.1546C47.6588 58.0821 47.6176 56.7919 47.5901 54.486C47.5901 54.486 48.0843 50.2036 43.0882 50.8899C38.0921 51.5899 37.8588 54.1017 37.9411 54.5134Z" fill="#0D3659"/>
<path d="M39.2582 73.482C39.5327 71.6428 39.3131 70.1879 39.3405 68.1565C39.368 66.6467 47.315 68.2801 47.4523 71.9173C47.4523 71.9173 45.9837 86.0958 47.0268 90.5703L47.164 91.3252C47.164 91.3252 47.3974 91.9977 46.8621 92.4781C46.8209 92.5056 46.066 93.1369 45.0778 93.384C43.6915 93.7134 41.8248 93.5762 40.8503 92.533C38.4621 89.9664 38.3248 79.6585 39.2582 73.4958V73.482Z" fill="#0D3659"/>
<path d="M30.4469 97.1994C29.8155 97.323 29.4724 98.1602 29.2116 98.6543C28.8547 99.3132 28.6214 100.274 29.4861 101.111C29.8155 101.427 31.8881 102.017 32.5057 102.648C33.0685 103.211 35.7586 105.064 36.4861 105.462C37.1312 105.805 37.8175 106.245 38.5586 106.313C39.4645 106.396 40.7273 106.203 41.3449 105.407C41.7979 104.831 41.8253 104.186 41.4547 103.856C40.1371 102.717 39.5606 101.537 38.7234 100.672C37.9822 99.9171 37.6802 99.6975 37.0488 98.8602C36.7881 98.5171 35.8135 96.8288 35.2371 97.2543L30.4606 97.1994H30.4469Z" fill="#1E160D"/>
<path d="M31.5563 57.5875C31.872 60.4561 31.0485 63.4757 31.1583 66.3581C31.2818 69.7895 30.2799 73.7149 31.5838 76.9953C31.9818 77.9836 33.3681 79.6718 35.2897 79.6718C36.3877 79.6718 38.776 79.5345 38.6799 78.7659C38.5838 77.9698 39.325 76.5973 39.3524 75.8836C39.3936 74.5659 40.0799 66.6875 40.3681 64.162C40.6152 62.1032 40.7936 60.2091 41.576 58.1914C41.576 58.1914 42.1524 53.7718 37.1152 53.7306C32.9014 53.7032 31.5152 57.162 31.5701 57.5738L31.5563 57.5875Z" fill="#0D3659"/>
<path d="M30.4186 78.986C30.8441 77.1879 30.7343 75.7193 30.9401 73.6879C31.0911 72.1919 39.1205 72.9468 38.9696 76.584C38.9696 76.584 36.0872 92.0938 36.7598 96.6507L36.8421 97.4056C36.8421 97.4056 37.0343 98.0919 36.4578 98.5311C36.4166 98.5585 35.6205 99.1213 34.6049 99.2723C33.1911 99.4919 31.3519 99.1899 30.4598 98.0781C28.2911 95.333 28.9911 85.0389 30.4323 78.9723L30.4186 78.986Z" fill="#0D3659"/>
<path d="M45.2835 24.0562C46.6286 29.5189 49.6345 40.4856 51.6521 39.9915C52.407 39.7993 55.1384 38.715 54.6443 36.9719C53.4914 32.9091 52.8463 25.0719 52.009 21.668C50.6639 16.2052 49.0306 15.6013 47.0129 16.0954C45.009 16.5895 43.9384 18.5935 45.2835 24.0562Z" fill="#E25423"/>
<path d="M37.8435 15.9586C37.3769 16.0547 32.8612 20.6116 30.6651 23.0959C29.0592 24.9214 28.867 29.2174 28.8808 29.7802C28.9494 31.6194 31.4749 42.7782 31.8592 45.2625C32.2435 47.7469 30.8984 56.0782 30.8984 57.7527C30.8984 59.3174 32.5043 61.5684 37.1023 61.5684C39.9984 61.5684 47.5749 60.141 48.0278 55.5155C48.3984 51.7822 47.7945 33.6645 48.3023 31.6469C48.8239 29.6292 52.7631 19.2802 49.6474 16.5351C48.8514 15.8351 47.2455 15.3684 46.2847 15.4233C42.8396 15.588 38.3925 15.8488 37.8161 15.9723L37.8435 15.9586Z" fill="#084373"/>
<path d="M45.7768 24.7839C46.1337 26.9388 45.9415 29.1486 45.5435 31.3035C45.1454 33.4858 44.7474 34.6662 44.5003 37.2741C42.716 29.9858 42.4964 29.7113 40.1905 26.0878C39.4631 24.9486 38.5984 23.6996 37.7748 22.6976C37.1023 21.8741 36.9788 20.5015 37.1984 19.5819C37.6788 17.6466 39.2709 17.7701 40.616 17.7701C42.716 17.7564 44.3768 18.6897 45.214 21.2427C45.214 21.2427 45.5709 23.5897 45.7631 24.7839H45.7768Z" fill="#DD5626"/>
<path d="M43.0182 17.4683C44.0476 18.1821 44.4868 20.8448 44.5417 21.9703C44.5829 22.986 44.5966 24.0154 44.2535 25.0723C44.1162 24.5095 43.6633 23.6723 43.1692 23.3566C42.5515 22.9585 42.6064 23.1232 42.2496 23.6174C41.7554 24.3174 41.4672 25.6625 40.8084 26.1429C40.4927 25.3056 40.3143 24.5644 39.6417 23.8781C39.0241 23.2331 38.4476 22.588 37.6927 22.0664C35.9633 20.8723 35.4692 17.5095 37.2123 16.3154C40.3143 14.188 43.0182 17.4546 43.0182 17.4546V17.4683Z" fill="#F76627"/>
<path d="M29.7177 34.6523C30.9118 40.3896 34.9196 48.1857 36.8961 47.5955C37.6373 47.3759 39.6961 44.6445 39.1059 42.8602C37.7059 38.6876 37.8569 34.5425 36.8 31.0288C35.1255 25.4151 33.2314 23.9739 31.2549 24.5641C29.2784 25.1543 27.8784 25.7857 29.7177 34.6386V34.6523Z" fill="#F76627"/>
<path d="M37.761 12.0605C37.761 13.6802 38.0355 14.5037 37.8022 16.4527C37.7335 17.0704 37.4453 17.8664 37.4453 18.7311C37.4453 20.2135 39.6414 20.7488 40.1081 21.1194C40.7669 21.6547 41.7139 21.9017 42.8532 22.9586C43.1414 21.737 43.663 20.6115 43.4845 19.5684C43.3473 18.7311 43.512 17.4958 43.2237 16.6723C42.9081 15.7527 42.0296 15.2449 42.0296 14.2841L37.7473 12.0605H37.761Z" fill="#FCCB95"/>
<path d="M46.2044 6.04854C46.1769 6.9407 46.5613 7.79168 46.7534 8.65638C46.8907 9.2603 46.9456 9.43874 46.7122 9.98775C46.3554 10.8113 46.4514 11.5662 46.6573 12.3897C46.9044 13.378 46.6024 14.4211 46.3142 15.4093C46.0946 16.178 45.9711 17.0701 45.2711 17.5505C43.5416 18.7034 41.6064 17.4544 39.8495 16.8368C38.1201 16.2329 38.3946 13.7211 37.8593 12.2936C36.8848 9.69952 37.5985 6.06226 40.4671 4.93677C41.7436 4.42893 43.8573 4.18187 45.1613 4.68971C45.6142 4.86815 46.5201 5.87011 46.0946 6.36422L46.1907 6.06226L46.2044 6.04854Z" fill="#FFD8A6"/>
<path d="M36.6367 2.06821C38.325 0.572136 41.7014 1.07998 44.4602 2.3839C45.8328 3.029 46.1485 4.93684 46.1485 4.93684C46.4504 5.45841 44.9544 6.5839 44.5563 6.77606C43.7602 7.18782 42.923 7.29763 42.0446 7.3388C41.5093 7.36625 40.9465 7.35253 40.4112 7.29763C40.0818 7.25645 39.5465 7.11919 39.2308 7.14665C38.4073 7.229 38.3799 8.32704 38.2289 8.97214C38.1053 9.52116 37.9132 9.96037 37.8583 10.5506C37.8308 10.8251 38.2838 13.8035 37.8583 13.8721C37.2818 13.9682 34.9759 11.2094 34.8387 9.67214C34.7426 8.65645 33.6446 4.71723 36.623 2.05449L36.6367 2.06821Z" fill="#603913"/>
<path d="M36.4857 12.0468C36.8563 13.0076 37.5014 13.6527 37.9132 13.488C38.3386 13.3233 38.7916 12.4174 38.421 11.4566C38.0504 10.4958 36.9798 9.85071 36.5681 10.0154C36.1426 10.1801 36.1014 11.086 36.4857 12.0468Z" fill="#FFD8A6"/>
<path d="M116.752 121.37C116.67 122.413 116.574 122.592 116.532 122.852C116.532 122.852 115.901 123.717 114.652 123.621C113.403 123.539 112.346 122.976 112.195 122.756C111.605 121.974 108.736 121.205 107.926 120.972C107.117 120.752 106.417 119.997 106.197 119.599C105.868 119.023 105.374 117.541 106.279 116.648C106.925 116.017 108.407 117.211 110.191 117.28C114.721 117.458 116.93 119.037 116.766 121.356L116.752 121.37Z" fill="#1E170E"/>
<path d="M112.099 124.582C111.975 125.625 111.866 125.804 111.811 126.051C111.811 126.051 111.138 126.874 109.889 126.723C108.64 126.572 107.624 125.969 107.473 125.735C106.924 124.925 104.097 124.006 103.301 123.745C102.505 123.484 101.832 122.688 101.64 122.29C101.338 121.686 100.926 120.204 101.86 119.353C102.532 118.749 103.96 120.012 105.744 120.176C110.26 120.574 112.387 122.263 112.113 124.569L112.099 124.582Z" fill="#1E170E"/>
<path d="M109.189 104.007C110.287 103.939 111.207 104.419 111.975 105.106C112.044 105.504 112.113 105.915 112.167 106.313C112.771 111.488 111.289 116.868 111.962 121.727C112.14 123.058 109.916 123.498 108.599 123.278C107.652 123.127 106.581 122.784 106.156 122.18C105.62 121.48 105.744 121.027 105.744 121.027L106.238 119.6C106.526 117.788 106.005 111.282 105.305 104.419C106.348 104.158 107.693 104.09 109.175 104.007H109.189Z" fill="#0D3659"/>
<path d="M117.492 135.343L119.084 134.423C119.084 134.423 119.139 134.382 119.18 134.355C119.798 133.998 120.8 134.574 121.431 135.658C122.049 136.729 122.063 137.909 121.445 138.266C121.39 138.294 119.716 139.241 119.716 139.241L118.508 137.141H118.522L117.492 135.329V135.343Z" fill="#0A2B38"/>
<path d="M119.799 139.199C119.182 139.556 118.166 138.98 117.548 137.895C116.917 136.811 116.917 135.645 117.535 135.288C118.152 134.931 119.168 135.507 119.786 136.592C120.417 137.676 120.417 138.843 119.799 139.199Z" fill="black"/>
<path d="M134.156 125.666L135.748 124.746C135.748 124.746 135.803 124.705 135.844 124.678C136.462 124.321 137.478 124.897 138.095 125.982C138.727 127.066 138.727 128.233 138.109 128.59C138.068 128.617 136.394 129.564 136.394 129.564L135.186 127.464H135.199L134.17 125.652L134.156 125.666Z" fill="#0A2B38"/>
<path d="M136.475 129.523C135.858 129.88 134.856 129.304 134.224 128.219C133.593 127.135 133.593 125.968 134.197 125.611C134.815 125.255 135.83 125.831 136.448 126.915C137.079 128 137.079 129.166 136.462 129.523H136.475Z" fill="black"/>
<path d="M117.576 125.927L119.168 125.007C119.168 125.007 119.223 124.966 119.264 124.939C119.882 124.582 120.898 125.158 121.515 126.242C122.147 127.327 122.147 128.493 121.529 128.85C121.488 128.878 119.8 129.825 119.8 129.825L118.592 127.725H118.606L117.562 125.927H117.576Z" fill="#0A2B38"/>
<path d="M119.893 129.798C119.275 130.154 118.26 129.578 117.642 128.494C117.011 127.409 117.011 126.256 117.628 125.886C118.246 125.529 119.262 126.105 119.879 127.19C120.511 128.26 120.511 129.427 119.893 129.798Z" fill="black"/>
<path d="M134.154 135.178L135.747 134.258C135.747 134.258 135.801 134.217 135.843 134.19C136.46 133.833 137.476 134.409 138.094 135.493C138.725 136.578 138.725 137.744 138.107 138.101C138.066 138.129 136.378 139.076 136.378 139.076L135.17 136.976H135.184L134.141 135.164L134.154 135.178Z" fill="#0A2B38"/>
<path d="M136.461 139.049C135.843 139.405 134.827 138.829 134.21 137.745C133.578 136.66 133.578 135.507 134.196 135.137C134.814 134.78 135.816 135.356 136.447 136.441C137.078 137.511 137.078 138.678 136.461 139.049Z" fill="black"/>
<path d="M117.904 134.903V133.407L137.998 123.607V125.103L119.468 135.796L117.904 134.903Z" fill="black"/>
<path d="M138.123 134.903V133.407L118.029 123.607V125.103L136.558 135.796L138.123 134.903Z" fill="black"/>
<path d="M117.904 133.408L136.433 122.702L137.998 123.608L119.468 134.3L117.904 133.408Z" fill="#0A2B38"/>
<path d="M138.123 133.408L119.593 122.702L118.029 123.608L136.558 134.3L138.123 133.408Z" fill="#0A2B38"/>
<path d="M126.771 129.454V114.397H129.571V129.454C129.571 129.894 128.953 130.25 128.171 130.264C127.402 130.264 126.771 129.907 126.771 129.468V129.454Z" fill="black"/>
<path d="M143.228 111.117C143.228 111.117 147.936 113.986 144.161 116.896C140.455 119.75 130.573 126.984 124.492 125.186C118.412 123.388 108.763 116.552 107.981 115.647C107.198 114.741 107.281 113.341 110.438 111.007C112.702 109.333 123.737 103.252 124.383 103.033C125.014 102.813 127.059 101.605 131.232 103.788C135.171 105.847 143.228 111.103 143.228 111.103V111.117Z" fill="black"/>
<path d="M111.193 99.0252C111.66 98.3663 113.073 97.6801 114.721 98.0781C123.56 101.221 133.277 104.419 133.277 104.419C136.407 105.792 131.836 115.317 130.45 115.578C122.901 117.006 113.856 104.46 112.154 104.076C111.495 103.925 111.207 104.131 110.562 103.898C109.917 100.645 110.534 99.9585 111.193 99.0252Z" fill="#262626"/>
<path d="M106.253 101.839C106.706 101.194 108.133 100.494 109.78 100.905C118.62 104.049 128.337 107.233 128.337 107.233C131.467 108.605 126.896 118.131 125.51 118.392C117.961 119.819 108.916 107.274 107.214 106.89C106.555 106.739 106.267 106.945 105.622 106.711C104.976 103.458 105.594 102.772 106.253 101.839Z" fill="#0D3659"/>
<path d="M89.2872 149.727V108.317H91.9087V149.727C91.9087 150.139 91.3185 150.482 90.5911 150.482C89.8636 150.482 89.2734 150.153 89.2734 149.741L89.2872 149.727Z" fill="black"/>
<path d="M144.669 116.827V82.7881H147.428V116.827C147.428 117.267 146.81 117.623 146.055 117.623C145.301 117.623 144.683 117.28 144.669 116.841V116.827Z" fill="black"/>
<path d="M28.0027 114.11V76.4468H30.638V114.11C30.638 114.521 30.0478 114.864 29.3203 114.864C28.5929 114.864 28.0027 114.535 28.0027 114.11Z" fill="black"/>
<path d="M120.966 51.6585V56.8193V57.533V62.6938L123.478 61.2526V56.0781V55.3644V50.2036L120.966 51.6585Z" fill="#0A2B38"/>
<path d="M118.44 50.1895V55.3502V56.0777V61.2385L120.966 62.6934V57.5189V56.8189V51.6444L118.44 50.1895Z" fill="black"/>
<path d="M120.966 57.3543V62.5151V63.2288V68.4033L123.478 66.9484V61.7739V61.0602V55.8994L120.966 57.3543Z" fill="#0A2B38"/>
<path d="M118.44 55.8857V61.0603V61.774V66.9348L120.966 68.3897V63.2289V62.5152V57.3406L118.44 55.8857Z" fill="black"/>
<path d="M120.966 51.6446L123.477 50.1897L120.966 48.7485L118.44 50.1897L120.966 51.6446Z" fill="#6A707C"/>
<path d="M121.555 25.2782C121.555 25.2782 127.046 26.6233 128.35 32.69C128.899 35.2155 134.883 57.492 128.473 61.5959C122.077 65.7135 111.55 58.0684 110.918 54.6919C109.601 47.6645 110.918 20.1312 121.555 25.2645V25.2782Z" fill="#0A2B38"/>
<path d="M118.659 91.3936L117.067 90.474C117.067 90.474 117.012 90.4328 116.971 90.4053C116.353 90.0485 115.338 90.6249 114.72 91.7093C114.089 92.7936 114.089 93.9465 114.706 94.3171C114.748 94.3445 116.436 95.2916 116.436 95.2916L117.644 93.1916H117.63L118.673 91.3798L118.659 91.3936Z" fill="#0A2B38"/>
<path d="M116.352 95.2644C116.97 95.6212 117.972 95.0448 118.603 93.9604C119.235 92.8761 119.235 91.7095 118.617 91.3526C117.999 90.9957 116.984 91.5722 116.366 92.6565C115.735 93.7408 115.721 94.9075 116.352 95.2644Z" fill="black"/>
<path d="M101.982 81.7173L100.39 80.7977C100.39 80.7977 100.335 80.7565 100.308 80.7291C99.6899 80.3722 98.6743 80.9487 98.0429 82.033C97.4115 83.1036 97.4115 84.284 98.0292 84.6408C98.0703 84.6683 99.7586 85.6153 99.7586 85.6153L100.966 83.5153H100.953L101.996 81.7036L101.982 81.7173Z" fill="#0A2B38"/>
<path d="M99.6752 85.5739C100.293 85.9308 101.308 85.3543 101.926 84.27C102.558 83.1857 102.558 82.019 101.94 81.6622C101.322 81.3053 100.307 81.8818 99.6889 82.9661C99.0575 84.0367 99.0575 85.2033 99.6752 85.5739Z" fill="black"/>
<path d="M118.563 81.978L116.971 81.0584C116.971 81.0584 116.916 81.0173 116.875 80.9898C116.257 80.6329 115.255 81.2094 114.624 82.2937C113.992 83.3643 113.992 84.5447 114.61 84.9016C114.651 84.929 116.339 85.8761 116.339 85.8761L117.547 83.7761H117.534L118.577 81.9643L118.563 81.978Z" fill="#0A2B38"/>
<path d="M116.256 85.8483C116.873 86.2189 117.875 85.6287 118.507 84.5444C119.138 83.4601 119.138 82.2934 118.52 81.9366C117.903 81.5797 116.901 82.1562 116.27 83.2405C115.638 84.3248 115.624 85.4915 116.256 85.8483Z" fill="black"/>
<path d="M101.998 91.2426L100.406 90.323C100.406 90.323 100.351 90.2818 100.309 90.2681C99.6918 89.9113 98.6762 90.4877 98.0585 91.572C97.4271 92.6564 97.4271 93.823 98.0448 94.1799C98.086 94.2073 99.7742 95.1544 99.7742 95.1544L100.982 93.0544H100.968L102.011 91.2426H101.998Z" fill="#0A2B38"/>
<path d="M99.6752 95.0993C100.293 95.4562 101.308 94.8797 101.926 93.7954C102.558 92.7248 102.558 91.5581 101.94 91.1876C101.322 90.8307 100.307 91.4072 99.6889 92.4915C99.0575 93.5758 99.0575 94.7287 99.6752 95.0993Z" fill="black"/>
<path d="M118.234 90.9543V89.4582L98.1536 79.6582V81.1543L116.683 91.8602L118.234 90.9543Z" fill="black"/>
<path d="M98.0286 90.9543V89.4582L118.123 79.6582V81.1543L99.5795 91.8602L98.0286 90.9543Z" fill="black"/>
<path d="M118.234 89.4583L99.7045 78.7661L98.1536 79.6583L116.683 90.3642L118.234 89.4583Z" fill="#0A2B38"/>
<path d="M98.0286 89.4583L116.558 78.7661L118.123 79.6583L99.5795 90.3642L98.0286 89.4583Z" fill="#0A2B38"/>
<path d="M109.368 85.5055V70.4624H106.568V85.5055C106.568 85.9448 107.185 86.3016 107.968 86.3153C108.736 86.3153 109.368 85.9585 109.368 85.5193V85.5055Z" fill="black"/>
<path d="M94.2272 66.1939C94.2272 66.1939 89.5194 69.0625 93.3076 71.9723C96.9998 74.8272 106.896 82.0605 112.976 80.2625C119.057 78.4644 127.388 72.6174 128.17 71.7115C128.953 70.8056 128.87 69.4056 125.714 67.0723C123.449 65.4115 112.4 59.3174 111.768 59.0978C111.137 58.8782 109.092 57.6703 104.919 59.8527C100.994 61.9252 92.9233 67.1684 92.9233 67.1684L94.241 66.1801L94.2272 66.1939Z" fill="black"/>
<path d="M109.189 36.4919C106.279 41.6115 102.093 44.137 101.502 48.6253C101.393 49.4076 96.8769 43.7664 97.8652 42.1605C100.171 38.386 101.53 35.5311 103.342 32.3331C106.251 27.2135 108.022 27.0213 109.82 28.0507C111.632 29.0802 112.085 31.3723 109.189 36.4919Z" fill="#08273A"/>
<path d="M117.644 30.1915C118.11 30.2876 123.065 32.7719 125.261 35.27C126.867 37.0955 127.073 41.419 127.045 41.9955C126.977 43.8484 124.438 55.0621 124.053 57.5739C123.655 60.0719 123.957 62.8308 123.957 64.519C123.957 66.0837 124.438 70.7641 124.3 71.519C123.834 74.0308 117.259 73.5366 115.996 73.4543C111.934 73.2072 106.842 70.1327 107.253 68.1562C108.461 62.4602 108.022 45.8798 107.487 43.8621C106.965 41.8308 103.012 31.4268 106.128 28.668C106.924 27.9543 108.53 27.5013 109.504 27.5562C112.963 27.721 117.04 30.0817 117.616 30.1915H117.644Z" fill="#0D3659"/>
<path d="M112.675 29.7934C111.55 30.3699 110.781 32.9777 110.589 34.0895C110.424 35.0914 110.287 36.1346 110.479 37.2189C110.699 36.6836 111.234 35.9012 111.769 35.6405C112.428 35.3248 112.373 35.4758 112.662 36.0248C113.073 36.7934 113.183 38.166 113.787 38.7287C114.199 37.9189 114.473 37.2189 115.228 36.615C115.928 36.0522 116.697 35.6679 117.397 35.064C118.316 34.2542 119.744 33.3209 120.046 32.0856C120.265 31.1385 119.414 29.9307 118.605 29.3954C117.067 28.3522 114.514 29.862 112.95 30.4385C112.936 30.6032 112.881 30.8777 112.936 31.0424L112.675 29.8071V29.7934Z" fill="#084373"/>
<path d="M118.126 24.1797C118.126 25.813 117.851 26.6365 118.085 28.5993C118.153 29.2307 118.441 30.0267 118.441 30.8915C118.441 32.3738 116.836 33.0189 116.012 33.4307C115.257 33.815 113.761 33.8699 112.608 34.9405C112.32 33.7052 112.183 32.7993 112.361 31.7424C112.498 30.8915 112.334 29.6562 112.622 28.8189C112.951 27.8993 113.816 27.3915 113.816 26.4307L118.126 24.1934V24.1797Z" fill="#FCCB95"/>
<path d="M112.181 17.5097C112.044 18.4018 111.522 19.1705 111.179 19.994C110.946 20.5705 110.849 20.7352 110.987 21.3116C111.193 22.1901 110.973 22.9313 110.616 23.6999C110.204 24.6332 110.328 25.7312 110.438 26.7469C110.52 27.543 110.493 28.4626 111.097 29.0391C112.606 30.4803 114.748 29.5744 116.587 29.2724C118.412 28.9705 118.563 26.445 119.346 25.1136C120.759 22.7116 120.663 18.992 118.028 17.3862C116.848 16.6724 114.802 16.0548 113.416 16.3293C112.936 16.4254 111.879 17.2626 112.208 17.8254L112.153 17.5097H112.181Z" fill="#FFD8A6"/>
<path d="M122.339 15.2174C120.925 13.4331 117.494 13.3644 114.543 14.1742C113.074 14.586 112.429 16.4115 112.429 16.4115C112.031 16.8781 113.335 18.237 113.692 18.4978C114.419 19.0331 115.215 19.2938 116.08 19.486C116.602 19.6095 117.164 19.6919 117.7 19.7331C118.043 19.7605 118.592 19.7056 118.907 19.788C119.704 20.0076 119.539 21.0919 119.58 21.7781C119.607 22.3409 119.731 22.8076 119.676 23.4115C119.649 23.686 118.702 26.5683 119.1 26.7056C119.662 26.8978 122.407 24.5644 122.819 23.0683C123.094 22.0801 124.864 18.3605 122.366 15.2174H122.339Z" fill="url(#paint0_linear_69587_102694)"/>
<path d="M120.773 25.141C120.238 26.0331 119.483 26.5547 119.099 26.3214C118.715 26.088 118.413 25.0998 118.948 24.2214C119.483 23.3429 120.65 22.89 121.034 23.1096C121.432 23.3429 121.309 24.2488 120.773 25.141Z" fill="#FFD8A6"/>
<path d="M59.3811 122.345C59.1204 122.962 58.6811 125.955 58.9419 126.476C59.2988 127.162 59.9713 127.821 61.2204 127.684C62.4694 127.547 63.4164 126.161 64.3086 125.982C65.1321 125.831 67.8635 124.582 69.7164 123.621C70.6772 123.127 71.8988 121.439 71.5831 120.437C71.3635 119.71 69.8674 118.913 69.3733 119.051C67.6164 119.517 66.9302 119.38 65.6949 119.6C64.6106 119.792 64.8302 119.819 63.7321 119.874C63.2792 119.902 61.2615 119.737 61.289 120.492L59.3811 122.345Z" fill="#1E160D"/>
<path d="M58.4573 103.87C58.7868 101.962 58.5809 100.453 58.6495 98.3251C58.7044 96.7604 66.9397 98.6133 67.022 102.402C67.022 102.402 65.2103 117.129 66.2122 121.809L66.3495 122.592C66.3495 122.592 66.5828 123.305 66.0201 123.786C65.9789 123.813 65.1828 124.458 64.1397 124.692C62.6848 125.007 60.7495 124.829 59.7613 123.717C57.3181 121 57.3868 110.266 58.4711 103.884L58.4573 103.87Z" fill="#08273A"/>
<path d="M73.0515 127.807C72.9417 128.466 72.2142 130.868 73.2848 132.886C73.6417 133.572 74.6436 134.053 75.7829 133.517C76.2084 133.311 77.5534 131.513 78.377 131.143C79.1319 130.8 81.9319 128.864 82.5907 128.288C83.1672 127.794 83.8534 127.286 84.1829 126.586C84.5946 125.735 84.8691 124.445 84.3201 123.539C83.9221 122.894 83.3044 122.619 82.8515 122.866C81.2593 123.731 79.8868 123.868 78.7476 124.362C77.7319 124.802 77.4162 125.021 76.3731 125.337C75.9338 125.46 73.0515 127.807 73.0515 127.807Z" fill="#1E160D"/>
<path d="M66.9558 109.649C66.8048 107.727 66.2283 106.299 65.7754 104.227C65.446 102.703 73.5577 101.056 74.5734 104.707C74.5734 104.707 76.3715 120.066 78.4989 124.349L78.8146 125.076C78.8146 125.076 79.6107 126.476 79.1715 127.08C79.1303 127.121 78.2381 128.494 77.2911 128.974C75.9597 129.647 72.9401 130.429 72.3087 129.084C70.2362 124.623 67.4636 116.086 66.9421 109.635L66.9558 109.649Z" fill="#0D3659"/>
<path d="M42.6204 137.072L44.2126 136.153C44.2126 136.153 44.2675 136.111 44.3087 136.098C44.9263 135.741 45.9283 136.317 46.5596 137.402C47.191 138.472 47.191 139.639 46.5734 140.009C46.5322 140.037 44.8439 140.984 44.8439 140.984L43.6361 138.884H43.6498L42.6067 137.086L42.6204 137.072Z" fill="#0A2B38"/>
<path d="M44.9267 140.929C44.309 141.286 43.3071 140.709 42.6757 139.625C42.0443 138.554 42.0443 137.374 42.662 137.017C43.2796 136.66 44.2953 137.237 44.913 138.321C45.5443 139.405 45.5443 140.572 44.9267 140.929Z" fill="black"/>
<path d="M59.282 127.382L60.8742 126.462C60.8742 126.462 60.9291 126.421 60.9703 126.394C61.5879 126.037 62.5899 126.613 63.2213 127.698C63.8526 128.782 63.8526 129.935 63.235 130.305C63.1938 130.333 61.5056 131.28 61.5056 131.28L60.2977 129.18H60.3114L59.2683 127.368L59.282 127.382Z" fill="#0A2B38"/>
<path d="M61.6039 131.253C60.9863 131.609 59.9843 131.033 59.3529 129.949C58.7216 128.864 58.7216 127.711 59.3392 127.355C59.9569 126.998 60.9726 127.574 61.5902 128.658C62.2216 129.729 62.2216 130.896 61.6039 131.266V131.253Z" fill="black"/>
<path d="M42.7012 127.656L44.2934 126.737C44.2934 126.737 44.3483 126.695 44.3895 126.682C45.0071 126.325 46.0228 126.901 46.6404 127.986C47.2718 129.07 47.2718 130.237 46.6542 130.593C46.613 130.621 44.9248 131.568 44.9248 131.568L43.7169 129.468H43.7306L42.6875 127.67L42.7012 127.656Z" fill="#0A2B38"/>
<path d="M45.0231 131.513C44.4055 131.87 43.3898 131.294 42.7721 130.209C42.1408 129.125 42.1408 127.958 42.7584 127.602C43.3761 127.245 44.3917 127.821 45.0094 128.906C45.6408 129.99 45.6408 131.157 45.0231 131.513Z" fill="black"/>
<path d="M59.282 136.907L60.8742 135.988C60.8742 135.988 60.9291 135.946 60.9703 135.919C61.5879 135.562 62.5899 136.139 63.2213 137.223C63.8526 138.307 63.8526 139.474 63.235 139.831C63.1938 139.858 61.5056 140.805 61.5056 140.805L60.2977 138.705H60.3114L59.2683 136.894L59.282 136.907Z" fill="#0A2B38"/>
<path d="M61.5864 140.778C60.9688 141.135 59.9531 140.558 59.3217 139.474C58.6903 138.39 58.6903 137.223 59.308 136.866C59.9256 136.509 60.9413 137.086 61.559 138.17C62.1903 139.255 62.1903 140.421 61.5727 140.778H61.5864Z" fill="black"/>
<path d="M43.0312 136.619V135.123L63.1254 125.323V126.819L44.596 137.525L43.0312 136.619Z" fill="black"/>
<path d="M63.2477 136.619V135.123L43.1536 125.323V126.819L61.683 137.525L63.2477 136.619Z" fill="black"/>
<path d="M43.0312 135.123L61.5607 124.431L63.1254 125.323L44.596 136.029L43.0312 135.123Z" fill="#0A2B38"/>
<path d="M63.2477 135.123L44.7045 124.431L43.1536 125.323L61.683 136.029L63.2477 135.123Z" fill="#0A2B38"/>
<path d="M51.8984 131.184V116.141H54.6984V131.184C54.6984 131.623 54.0808 131.98 53.2984 131.994C52.5298 131.994 51.8984 131.637 51.8984 131.197V131.184Z" fill="black"/>
<path d="M68.3554 112.847C68.3554 112.847 73.0632 115.715 69.2887 118.625C65.5828 121.48 55.6868 128.713 49.6201 126.915C43.5397 125.117 33.8907 118.296 33.1083 117.376C32.326 116.47 32.4083 115.07 35.5652 112.737C37.8299 111.076 48.8789 104.982 49.5103 104.762C50.1417 104.543 52.1868 103.335 56.3593 105.517C60.2848 107.576 68.3691 112.833 68.3691 112.833L68.3554 112.847Z" fill="black"/>
<path d="M50.8692 116.992C52.8182 114.699 55.3162 113.039 57.43 110.897C59.9417 108.358 63.6339 106.327 65.1986 102.992C65.6653 101.99 65.9535 99.7249 64.5947 98.27C63.8123 97.4328 62.0143 95.7308 61.4927 96.3484C60.9574 96.9935 59.3927 97.4053 58.83 97.8857C57.8006 98.7916 51.3496 103.884 49.2084 105.462C47.4653 106.752 46.4496 107.617 44.5829 109.127C44.5829 109.127 42.126 110.225 45.928 113.848C49.73 117.472 50.5672 117.307 50.8555 116.978L50.8692 116.992Z" fill="#092A42"/>
<path d="M57.4842 121.329C59.4607 120.217 63.2078 117.856 65.5136 115.921C68.245 113.629 72.1019 111.927 73.9685 108.756C74.5313 107.796 75.0254 105.572 73.7901 104.007C73.0764 103.102 71.6764 101.88 70.8803 101.811C69.5901 101.701 68.6842 102.676 68.094 103.101C66.9823 103.911 60.0921 108.4 57.8274 109.772C55.9744 110.898 51.2391 113.862 48.9195 116.072C48.9195 116.072 47.1901 118.419 50.2646 119.915C54.1901 121.837 57.1136 121.521 57.498 121.315L57.4842 121.329Z" fill="#0D3659"/>
<path d="M43.3622 109.662C42.0171 109.113 40.6583 111.543 40.7406 112.517C40.9877 115.194 45.8465 118.419 47.9877 119.531C50.3073 120.739 53.821 121.947 55.8112 121.851C56.7994 121.809 58.9544 120.739 59.4485 119.86C60.3406 118.254 59.2289 113.602 58.2269 111.927C57.87 111.323 57.3896 110.856 56.8269 110.39L43.3622 109.662Z" fill="#0D3659"/>
<path d="M90.5084 118.309L24.3516 79.8642V77.5446L85.2653 42.3799L151.422 80.825V83.1446L90.5084 118.309Z" fill="#B58143"/>
<path d="M106.596 86.4526L115.435 91.5448L103.617 98.3664L94.7917 93.2742L106.596 86.4526Z" fill="white"/>
<path d="M90.5084 118.309L24.3516 79.8642V77.5446L85.2653 42.3799L151.422 80.825V83.1446L90.5084 118.309Z" fill="#B58143"/>
<path d="M90.5084 115.99L24.3516 77.5446L85.2653 42.3799L151.408 80.825L90.5084 115.99Z" fill="#D6A15C"/>
<path d="M74.9696 84.0506C75.0107 84.4211 74.8598 84.7368 74.8598 85.1074C74.8598 85.7662 75.2029 86.329 75.3127 86.9604C75.4362 87.6466 75.4362 88.429 75.1892 88.9917C74.846 89.7329 74.0088 91.5447 73.2127 91.8329C71.4421 92.478 70.948 89.527 70.646 88.3741C70.0284 85.9858 71.3323 81.8819 74.599 82.7329L74.9696 84.0506Z" fill="#FFD8A6"/>
<path d="M69.1249 68.541L60.4504 85.9724L71.1975 92.1763L79.872 74.7449L69.1249 68.541Z" fill="#0D3659"/>
<path d="M78.9097 74.6625L69.6587 69.3096L61.8489 84.9841L71.1136 90.337L78.9097 74.6625Z" fill="white"/>
<path d="M76.3024 72.9468L72.1847 70.5723L71.5808 71.8487L75.6985 74.2232L76.3024 72.9468Z" fill="#0072BF"/>
<path d="M71.7598 85.3133C71.7598 85.1624 71.8697 84.9977 71.9108 84.8467C72.5697 84.8741 72.6246 85.6153 72.8442 86.0545C73.0638 86.4937 73.4755 86.7545 73.5853 87.2761C73.7089 87.8663 73.3108 88.2094 73.3108 88.7584C73.3108 89.3075 73.5991 89.7604 73.654 90.3094C73.7775 91.531 72.3089 92.7388 71.7461 91.2428C71.3069 90.0761 71.3344 88.9094 71.8422 87.8251C72.1579 87.1526 71.952 87.029 71.7461 86.3565C71.6226 85.9447 71.4716 85.08 71.9108 84.8741C71.9657 85.0251 72.1716 85.5192 72.1716 85.6702L71.7598 85.3271V85.3133Z" fill="#FFD8A6"/>
<path d="M40.5344 83.0625C39.4638 88.3605 38.1325 95.3193 40.0815 95.7174C40.8089 95.8684 43.7599 96.088 44.0481 94.386C44.7207 90.3782 46.6972 87.0703 47.3697 83.7625C48.4403 78.4644 47.2736 77.2566 45.3246 76.8586C43.3756 76.4605 41.605 77.7782 40.5344 83.0762V83.0625Z" fill="#51E0E0"/>
<path d="M43.3754 95.7174C48.248 94.3585 56.7029 90.4605 56.195 88.7723C56.0029 88.1409 55.5362 86.137 53.9303 86.3154C51.4048 86.6036 45.8323 89.637 40.7401 90.8997C39.6284 91.1742 38.9833 92.1899 39.4911 93.8919C39.999 95.5938 39.9166 96.6781 43.3754 95.7174Z" fill="#51E0E0"/>
<path d="M53.8207 79.6719C54.2325 79.7817 56.758 80.9895 58.5972 83.364C59.9423 85.1072 59.8736 89.0326 59.8187 89.5405C59.654 91.2013 58.7893 107.576 59.1874 109.044C59.805 111.35 60.2442 115.317 57.1834 116.511C54.5619 117.527 52.1462 117.06 51.007 116.923C47.356 116.47 42.0991 113.574 42.4011 111.762C42.9776 108.399 43.1423 93.7679 42.7854 91.915C42.4285 90.062 40.6168 81.3738 43.0736 77.9699C43.6364 77.1875 44.8031 76.7621 45.6815 76.8581C48.7972 77.215 53.2854 79.5209 53.807 79.6719H53.8207Z" fill="#B2D3B3"/>
<path d="M54.8231 91.7367C56.525 97.817 58.4329 105.97 60.4642 105.448C61.2191 105.256 64.4858 103.87 63.8819 101.921C62.4681 97.3916 62.6329 92.9857 61.576 89.1837C59.874 83.1033 58.1721 82.4033 56.1407 82.9249C54.1093 83.4465 53.1348 85.6563 54.8368 91.7367H54.8231Z" fill="#C8E6CA"/>
<path d="M64.9944 105.188C69.0022 101.853 75.2473 94.2763 73.9159 92.4782C73.4218 91.8057 71.9944 89.6233 70.5395 90.4194C68.261 91.6547 64.3767 97.2135 60.1081 100.508C59.1747 101.235 57.6787 101.263 58.461 103.459C59.2159 105.559 62.1532 107.563 64.9944 105.202V105.188Z" fill="#C8E6CA"/>
<path d="M56.2888 64.0112C56.2614 64.9445 56.9476 66.1249 57.1535 67.0308C57.2908 67.6622 57.3594 67.8543 57.1123 68.4171C56.7418 69.2818 56.8378 70.0779 57.0574 70.9288C57.3182 71.9582 57.0025 73.0563 56.7006 74.0857C56.4672 74.8818 56.3437 75.8288 55.6163 76.323C53.8045 77.5308 51.7594 76.8171 49.9339 76.1857C48.1221 75.5543 48.4241 72.3288 47.8614 70.8328C46.8457 68.1151 47.6006 64.3269 50.5927 63.1465C51.9378 62.6112 54.1339 62.3641 55.5065 62.8857C55.9869 63.0641 54.8476 63.5033 54.3947 64.0249H56.3025L56.2888 64.0112Z" fill="#FFD8A6"/>
<path d="M53.5746 74.813C53.5746 74.813 52.3805 78.4091 53.1216 79.411C53.4099 79.7953 51.955 80.6601 50.6099 80.6875C48.455 80.7287 45.9707 79.562 46.7118 77.7777C47.0962 76.8169 48.1393 75.8699 47.4805 71.9855C47.2746 70.764 53.5883 74.813 53.5883 74.813H53.5746Z" fill="#FFD8A6"/>
<path d="M46.9862 61.4036C49.8 59.5095 53.5745 59.7565 55.4 61.8702C56.4294 63.0781 56.4843 64.6153 56.4843 64.6153C56.8 65.1644 55.2627 65.0957 54.8921 67.3193C52.9843 78.7938 47.6176 74.6624 47.4529 74.2644C46.0803 70.9977 45.147 71.7389 44.5156 69.7761C43.5549 66.8114 43.047 64.08 47 61.4036H46.9862Z" fill="black"/>
<path d="M53.0799 71.6704C53.4642 72.6723 53.6975 73.6056 54.1367 73.4409C54.5759 73.2762 55.0563 72.3154 54.6583 71.3135C54.2603 70.3115 54.0544 69.3507 53.5877 69.337C52.6955 69.3233 52.6955 70.6684 53.0936 71.6566L53.0799 71.6704Z" fill="#FFD8A6"/>
<path d="M44.994 77.4762C44.6371 78.0939 44.5548 79.439 45.8861 80.537C46.9705 81.4292 47.8077 82.0468 49.1254 82.2253C50.6489 82.4174 54.1352 81.1409 54.6156 81.086C55.1097 81.0311 55.6999 80.9488 56.1665 80.9762C55.3842 80.2213 54.5195 80.2351 53.7371 79.1096C53.6136 78.9311 53.1332 78.286 52.9273 78.2311C52.5705 78.1351 52.9136 78.6566 52.6254 78.9174C52.1999 79.3017 51.9391 79.3566 51.3626 79.5762C50.292 79.9743 48.2058 79.8508 47.4234 78.9998C46.394 77.8606 46.6822 76.8998 46.8881 76.3096C45.7626 77.0507 45.3509 76.886 45.0077 77.4625L44.994 77.4762Z" fill="#C8E6CA"/>
<path d="M41.9883 110.637V115.797V116.511V121.672L39.4766 120.217V115.056V114.342V109.182L41.9883 110.637Z" fill="#0A2B38"/>
<path d="M43.4581 109.786V115.167V116.319V120.821L41.9895 121.672V116.498V115.798V110.623L43.4581 109.786Z" fill="black"/>
<path d="M44.3081 77.929C44.3081 77.929 49.7983 79.2741 51.1023 85.3408C51.6375 87.8663 57.6219 110.143 51.2258 114.26C44.8297 118.378 34.3023 110.733 33.6709 107.356C32.3532 100.329 33.6709 72.7957 44.3081 77.929Z" fill="black"/>
<path d="M125.948 44.4248C124.507 50.1346 120.924 60.2366 118.92 59.715C118.165 59.5229 115.461 55.666 115.983 53.8543C117.205 49.5993 117.836 45.5915 118.742 42.0229C120.183 36.3131 122.31 35.5856 124.328 36.1072C126.346 36.615 127.403 38.715 125.948 44.4248Z" fill="#084373"/>
<path d="M118.248 59.7287C112.689 60.5523 99.3618 56.5856 99.2383 54.6366C99.1971 53.9091 98.9089 51.6719 100.638 51.2464C103.37 50.5738 111.728 53.0856 117.507 52.4405C118.77 52.3032 120.156 54.7189 120.279 56.6542C120.403 58.5895 119.964 59.4679 118.248 59.715V59.7287Z" fill="#084373"/>
<path d="M96.2723 45.5091C95.7644 47.1973 95.4762 48.9542 95.3527 50.6973C95.2292 52.3581 94.6664 53.1816 95.3939 54.7463C96.039 56.1463 99.1272 56.6267 99.3056 55.2679C99.5939 52.9346 102.462 49.7914 102.435 44.9189C102.435 43.8483 102.174 40.0326 100.513 40.0875C98.8664 40.1424 97.686 40.8836 96.286 45.5228L96.2723 45.5091Z" fill="#08273A"/>
<path d="M100.625 101.962V102.704L103.507 104.364L108.366 101.564V100.823L100.625 101.962Z" fill="#1E160D"/>
<path d="M105.484 99.1621L100.625 101.962L103.507 103.623L108.366 100.823L105.484 99.1621Z" fill="#0A2B38"/>
<path d="M38.7351 76.9818V77.6955L35.99 79.2739L31.3645 76.5975V75.8975L38.7351 76.9818Z" fill="#1E160D"/>
<path d="M34.1096 74.3057L38.7351 76.9821L35.99 78.5606L31.3645 75.8978L34.1096 74.3057Z" fill="#0A2B38"/>
<path d="M92.622 52.6328C92.6632 52.9485 92.6769 53.1132 92.9102 53.3191C92.9102 53.3191 92.9102 53.3191 92.924 53.3191C92.924 53.6485 93.0338 53.8681 93.1161 54.1976C93.2122 54.5819 93.3769 54.7328 93.6651 55.0485C94.0494 55.4603 94.3651 55.8034 94.9004 55.9407C94.9691 55.9544 95.0789 55.9681 95.1887 55.9956C95.82 56.0917 96.9592 56.1466 97.522 56.1603C97.522 56.1603 97.522 56.1603 97.5357 56.1603C97.7828 56.2015 98.2906 56.1054 98.7573 56.0093C98.771 56.0093 98.7985 56.0093 98.8259 55.9956C99.0455 55.9407 99.2514 55.8858 99.3887 55.8309C99.4298 55.8309 99.471 55.8034 99.4985 55.7897C99.8828 55.6387 100.583 55.4877 101.049 55.0897C101.049 55.0897 101.983 54.0466 101.612 52.7289C101.434 52.125 100.926 51.9054 100.404 51.6995C100.226 51.6309 100.061 51.5485 99.8828 51.4662C99.3749 51.823 98.1122 51.2191 97.8514 50.8485C97.8102 50.7799 97.7691 50.725 97.7416 50.6564H97.7553C97.7553 50.6564 97.7279 50.6426 97.7142 50.6289C97.4945 50.4368 97.3024 50.2172 97.0965 50.0525C96.9181 49.9152 96.7122 49.8191 96.4514 49.8328C96.1769 49.8328 95.971 50.025 95.7651 50.2172C95.6004 50.3544 95.4494 50.4917 95.2436 50.5466C94.8318 50.6701 93.7887 50.6701 93.6789 51.2054C93.5965 51.6309 94.0769 51.8093 94.3926 51.8917C94.7769 51.9877 95.2298 52.0701 95.6279 52.0289C95.6691 52.0289 95.724 52.0152 95.7789 52.0015C95.8063 52.0015 95.8338 51.974 95.8612 51.974C95.971 51.9328 96.0808 51.8779 96.1769 51.8368C96.3828 51.7407 96.5475 51.6583 96.5887 51.6583C96.6847 51.6583 96.8494 51.8505 96.9455 51.9054C97.0553 51.974 97.2063 52.0015 97.3161 52.0701C97.0141 52.0838 96.6985 52.0426 96.3965 52.0701C96.3142 52.0701 96.0534 52.1525 95.8887 52.1799C96.0671 52.3172 96.2455 52.3858 96.5338 52.6054C96.7808 52.7838 97.0416 52.9485 97.0416 52.9485C97.3436 53.1132 98.1671 52.8799 98.4279 52.8662C98.6749 52.8525 98.9083 52.7976 99.1965 52.8662C99.7181 53.0034 99.7181 53.5799 99.4161 53.8132C99.1965 53.9779 97.7279 54.4172 97.3298 54.3074C96.9318 54.2113 96.369 54.1976 96.0808 53.9642C96.0396 53.9368 95.971 53.8819 95.8887 53.827C95.6279 53.5799 95.1338 53.0721 94.7357 52.9623C94.6122 52.9211 94.4612 52.9074 94.3651 52.8525C94.3651 52.8525 94.3514 52.8387 94.3377 52.825C94.1181 52.6877 93.9671 52.3034 93.871 52.0975C93.6377 51.6309 93.4592 51.0956 92.8553 50.9446C92.7867 50.9309 92.7181 50.9446 92.6769 50.9721C92.4024 51.2054 92.622 52.2897 92.6769 52.5642L92.622 52.6328ZM93.4592 53.7172C93.5279 53.7583 93.5965 53.7995 93.6651 53.8407C93.9945 54.0328 94.2553 54.2113 94.5985 54.3485C94.8318 54.4034 95.0514 54.4583 95.2847 54.5132C95.3259 54.5132 95.3671 54.5132 95.3945 54.5132C95.3945 54.5132 95.3945 54.5132 95.3945 54.527C96.2181 54.7328 96.973 54.925 97.2612 55.0074C97.5494 55.0897 97.7279 54.8975 98.0161 54.8152C98.2632 54.7466 98.6063 54.8015 98.8259 54.7054C99.1279 54.5819 99.1691 54.4309 99.5259 54.3897C99.8553 54.3623 100.171 54.6642 99.9926 55.0897C99.7867 55.5838 98.7161 55.7623 98.3043 55.9956C98.2494 56.023 98.1945 56.0505 98.1259 56.0779C97.92 56.1603 97.7004 56.174 97.4671 56.1603C97.124 56.1328 96.7671 56.0368 96.4377 55.9132C96.122 55.8034 95.8063 55.6799 95.5181 55.5838C95.4494 55.5564 95.3808 55.5152 95.2985 55.4603C94.6534 55.227 93.9396 54.4309 93.4455 53.7309L93.4592 53.7172Z" fill="#FFD8A6"/>
<path d="M97.5475 56.1605C97.7946 56.2016 98.3024 56.1056 98.7691 56.0095C98.7828 56.0095 98.8102 56.0095 98.8377 56.0095C99.0573 55.9409 99.2632 55.886 99.4004 55.8311C99.5651 55.9271 99.4691 56.1056 99.3455 56.1879C99.1122 56.3526 98.7142 56.3938 98.4397 56.4899C98.0828 56.6134 97.8632 56.7507 97.4789 56.6958C97.0671 56.6409 96.6279 56.6134 96.2299 56.4899C95.9142 56.3801 95.6122 56.2016 95.324 56.0507C95.2965 56.0369 95.2553 56.0095 95.2004 55.982C95.8318 56.0781 96.971 56.133 97.5338 56.1467C97.5338 56.1467 97.5338 56.1467 97.5475 56.1467V56.1605Z" fill="#FCCB95"/>
<path d="M93.6908 49.3797H93.6633C94.1986 48.9954 95.2692 48.4052 95.9829 48.5973C96.3124 48.6797 96.381 48.7346 96.7378 48.6248C97.0124 48.5424 97.2457 48.4052 97.5202 48.2954C97.6986 48.2268 98.0967 48.117 98.3026 48.1993C98.6594 48.3366 98.8241 49.0503 98.9339 49.366C99.1124 49.9013 100.54 50.9993 99.881 51.466C99.3731 51.8228 98.1104 51.2189 97.8496 50.8483C97.8084 50.7797 97.7398 50.6562 97.7398 50.6562C97.7398 50.6562 97.6849 50.5601 97.5888 50.4503C97.63 50.5052 97.6575 50.5738 97.6986 50.6424C97.479 50.4503 97.2869 50.2307 97.081 50.066C96.9026 49.9287 96.6967 49.8326 96.4359 49.8464C96.1614 49.8464 95.9555 50.0385 95.7496 50.2307C95.5849 50.3679 95.4339 50.5052 95.228 50.5601C94.8163 50.6836 93.7731 50.6836 93.6633 51.2189C93.581 51.6444 94.0614 51.8228 94.3771 51.9052C94.7614 52.0013 95.2143 52.0836 95.6124 52.0424C95.6535 52.0424 95.7084 52.0287 95.7633 52.015C95.7908 52.015 95.8182 51.9875 95.8457 51.9875C95.9555 51.9464 96.0653 51.8915 96.1614 51.8503C96.3673 51.7542 96.532 51.6719 96.5731 51.6719C96.6692 51.6719 96.8339 51.864 96.93 51.9189C97.0398 51.9875 97.1908 52.015 97.3006 52.0836C96.9986 52.0973 96.6829 52.0562 96.381 52.0836C96.2986 52.0836 96.0378 52.166 95.8731 52.1934C96.0516 52.3307 96.23 52.3993 96.5182 52.6189C96.7653 52.7973 97.0261 52.9621 97.0261 52.9621C97.328 53.1268 98.1516 52.8934 98.4124 52.8797C98.6594 52.866 98.8927 52.8111 99.181 52.8797C99.7026 53.017 99.7026 53.5934 99.4006 53.8268C99.181 53.9915 97.7124 54.4307 97.3143 54.3209C96.9163 54.2248 96.3535 54.2111 96.0653 53.9777C96.0241 53.9503 95.9555 53.8954 95.8731 53.8405C95.6124 53.5934 95.1182 53.0856 94.7202 52.9758C94.5967 52.9346 94.4457 52.9209 94.3496 52.866C94.3496 52.866 94.3359 52.8523 94.3222 52.8385C94.1026 52.7013 93.9516 52.317 93.8555 52.1111C93.6222 51.6444 93.4437 51.1091 92.8398 50.9581C92.7712 50.9444 92.7026 50.9581 92.6614 50.9856C92.7437 50.3268 93.1006 49.5719 93.732 49.3385L93.6908 49.3797Z" fill="#FCCB95"/>
<path d="M97.7426 50.6833H97.7292V50.6699L97.7426 50.6833Z" fill="#FCCB95"/>
<path d="M94.5983 54.3623C94.8316 54.4172 95.0512 54.4721 95.2845 54.527C95.3257 54.527 95.3669 54.527 95.3943 54.527C95.3943 54.527 95.3943 54.527 95.3943 54.5407C96.2179 54.7466 96.9728 54.9387 97.261 55.0211C97.5492 55.1035 97.7277 54.9113 98.0159 54.8289C98.263 54.7603 98.6061 54.8152 98.8257 54.7191C99.1277 54.5956 99.1688 54.4446 99.5257 54.4035C99.8551 54.376 100.171 54.678 99.9924 55.1035C99.7865 55.5976 98.7159 55.776 98.3041 56.0093C98.2492 56.0368 98.1943 56.0642 98.1257 56.0917C97.9198 56.174 97.7002 56.1878 97.4669 56.174C97.1237 56.1466 96.7669 56.0505 96.4375 55.927C96.1218 55.8172 95.8061 55.6936 95.5179 55.5976C95.4492 55.5701 95.3806 55.5289 95.2983 55.474C94.6532 55.2407 93.9394 54.4446 93.4453 53.7446C93.5139 53.7858 93.5826 53.827 93.6512 53.8682C93.9806 54.0603 94.2414 54.2387 94.5845 54.376L94.5983 54.3623Z" fill="#FCCB95"/>
<path d="M121.72 84.723C119.936 86.974 119.552 102.621 122.736 94.1799C124.109 90.5289 120.801 102.841 120.444 107.439C120.211 110.596 119.812 116.017 119.812 116.017C122.599 116.909 126.758 115.482 127.952 115.345C131.795 114.905 135.432 111.131 135.679 109.36C136.283 104.941 136.475 104.639 133.95 102.621C130.999 100.26 138.15 86.4524 134.471 80.6465C133.95 79.8367 132.646 79.4662 131.726 79.5622C128.46 79.9054 123.587 82.376 121.707 84.723H121.72Z" fill="#DD5626"/>
<path d="M124.506 92.0936C122.996 96.3485 120.923 103.445 119.413 102.909C118.851 102.717 117.053 101.276 117.588 99.9309C118.823 96.774 118.604 94.4819 119.002 91.6956C119.811 86.1368 121.5 84.2289 123.009 84.7505C124.505 85.2858 126.015 87.427 124.506 92.0936Z" fill="#F76627"/>
<path d="M123.874 68.335C123.902 69.1722 123.284 70.2291 123.092 71.0389C122.968 71.6154 123.366 73.7703 123.174 74.5389C122.941 75.4585 123.229 76.4467 123.504 77.3663C123.71 78.0801 123.874 78.8624 124.478 79.3703C125.219 80.0016 128.006 79.0409 129.653 78.4644C131.272 77.9016 130.929 75.7879 131.423 74.4428C132.343 72.0134 131.657 68.6095 128.98 67.5526C127.786 67.0722 125.81 66.8389 124.574 67.3193C124.149 67.484 125.164 67.882 125.562 68.3487H123.861L123.874 68.335Z" fill="#FFD8A6"/>
<path d="M126.279 77.9018C126.279 77.9018 126.91 79.4116 126.279 81.0586C126.128 81.4429 126.471 82.5135 127.596 82.7743C129.394 83.1861 131.686 82.6508 131.384 81.0312C131.22 80.1527 130.533 79.1782 131.769 76.0351C132.153 75.0469 126.279 77.9018 126.279 77.9018Z" fill="#FFD8A6"/>
<path d="M132.056 65.5761C128.597 64.382 126.305 64.5193 124.686 66.4134C123.752 67.4977 123.711 68.884 123.711 68.884C123.423 69.3781 124.809 69.3095 125.138 71.2997C126.84 81.5938 131.658 77.8879 131.809 77.5173C133.044 74.5938 133.868 75.2663 134.431 73.4957C135.295 70.8467 135.433 67.0447 132.042 65.5761H132.056Z" fill="black"/>
<path d="M124.933 66.0566C124.933 66.0566 121.433 67.8135 122.929 71.5194C124.425 75.239 124.467 74.4704 124.522 75.5684C124.576 76.6664 126.388 73.139 126.388 72.9468L124.92 66.0566H124.933Z" fill="black"/>
<path d="M125.414 74.4428C125.455 74.031 125.469 73.5506 125.757 73.2349C126.114 72.8506 126.498 73.0428 126.649 73.5094C126.759 73.8526 126.704 74.2506 126.704 74.6212C126.704 74.9094 126.402 77.0918 125.414 75.8565V74.4428Z" fill="#FFD8A6"/>
<path d="M134.814 102.621C134.814 102.621 135.61 105.682 129.9 106.862C119.908 108.921 121.061 103.445 121.061 103.445C120.773 104.46 120.223 107.192 119.853 108.578C118.151 114.919 118.878 116.731 118.878 116.731C121.665 119.064 126.249 118.996 127.347 118.872C132.769 118.296 136.722 114.823 137.106 113.08C137.778 110.074 136.186 107.205 134.827 102.607L134.814 102.621Z" fill="#0D3659"/>
<path d="M137.312 108.921V114.082V114.796V119.957L139.824 118.502V113.341V112.627V107.466L137.312 108.921Z" fill="#0A2B38"/>
<path d="M135.857 108.07V113.451V114.604V119.106L137.312 119.957V114.782V114.082V108.908L135.857 108.07Z" fill="black"/>
<path d="M134.992 76.1996C134.992 76.1996 129.502 77.5447 128.198 83.6113C127.663 86.1368 121.679 108.413 128.075 112.531C134.471 116.649 144.998 109.003 145.63 105.627C146.947 98.5996 145.63 71.0662 134.992 76.1996Z" fill="black"/>
<path d="M53.8745 38.9211C59.1862 37.823 68.5333 34.2956 68.1215 32.4701C67.9705 31.7838 67.6137 29.6289 65.898 29.7113C63.1803 29.8485 56.9764 32.6623 51.445 33.6505C50.2372 33.8564 49.4686 34.8858 49.8803 36.725C50.2921 38.5505 50.1274 39.7034 53.8882 38.9211H53.8745Z" fill="#E25423"/>
<path d="M134.951 70.4209C134.951 70.4209 134.992 75.1699 136.447 77.2974C136.447 77.2974 134.937 81.7993 127.045 81.0033C123.476 80.6464 123.078 79.3836 123.078 79.3836V79.1915C123.078 79.1915 125.425 74.168 124.862 72.8503L134.964 70.4209H134.951Z" fill="black"/>
<path d="M90.0836 106.945L74.8621 98.0916L85.6915 91.7642L100.913 100.617L90.0836 106.945Z" fill="white"/>
<path d="M111.096 75.0052L94.7766 84.4209L94.0217 84.2013L90.1511 71.1209L106.581 61.6777L107.267 61.8013L111.096 75.0052Z" fill="#454A71"/>
<path d="M111.096 75.0057L94.7766 84.4214L90.9609 71.2174L107.267 61.8018L111.096 75.0057Z" fill="#676F95"/>
<path d="M91.677 71.5056L106.912 62.7075L110.385 74.7173L95.1496 83.5154L91.677 71.5056Z" fill="#082263"/>
<path d="M95.1476 83.5152L110.383 74.7172L110.108 73.7427L94.8594 82.5407L95.1476 83.5152Z" fill="#08A6DE"/>
<path d="M96.9871 69.6799L105.936 64.5054L107.981 71.5603L99.0322 76.7348L96.9871 69.6799Z" fill="#CED3E0"/>
<path d="M93.2244 71.6016L92.4558 72.0408L92.744 73.0565L93.5127 72.6035L93.2244 71.6016Z" fill="#4BE0FF"/>
<path d="M93.6776 73.0151L92.9089 73.4544L93.1972 74.4563L93.9658 74.0171L93.6776 73.0151Z" fill="#49A9FF"/>
<path d="M93.9246 76.4469L95.5991 82.2253L97.1638 81.3194L95.4893 75.541L93.9246 76.4469Z" fill="#00AEEF"/>
<path d="M106.69 92.1761L122.996 82.7604V81.8134L111.137 74.9644L94.8176 84.3938V85.3271L106.69 92.1761Z" fill="#454A71"/>
<path d="M106.69 91.2428L122.996 81.8134L111.137 74.9644L94.8176 84.3938L106.69 91.2428Z" fill="#676F95"/>
<path d="M96.2317 84.4486L101.941 87.7428L117.067 79.0134L111.357 75.7192L96.2317 84.4486Z" fill="#454A71"/>
<path d="M110.698 87.4269L115.049 84.9151L111.549 82.8975L107.198 85.423L110.698 87.4269Z" fill="#454A71"/>
<path d="M105.483 94.2622C104.701 93.5622 103.548 93.6034 103.273 92.4641C103.754 92.1622 103.809 92.5328 104.248 92.7112C104.879 92.9583 105.291 93.0543 105.73 93.6171L105.483 94.2622Z" fill="#FFD8A6"/>
<path d="M110.301 94.9077C109.848 94.8802 109.093 93.5077 108.75 93.1371C108.407 92.7665 108.05 92.1351 107.569 92.0528C106.773 91.9293 105.469 92.89 105.305 93.6724C105.071 94.7704 106.869 95.3057 107.542 95.8273C107.858 96.0744 108.722 96.3763 109.038 96.5273C109.573 96.7606 109.628 96.39 109.958 96.0332C110.191 95.7724 110.562 95.4704 110.411 95.0724L110.301 94.9214V94.9077Z" fill="#FFD8A6"/>
<path d="M107.349 92.1759C107.17 92.0935 106.992 91.819 106.882 91.6543C106.745 91.4485 106.662 91.2563 106.498 91.0779C106.278 90.8308 106.072 90.6112 105.729 90.5563C105.4 90.5014 105.152 90.3092 104.823 90.3092C104.576 90.3092 104.301 90.3779 104.068 90.3504C103.862 90.323 103.67 90.323 103.464 90.2681C103.368 90.2406 103.203 90.2681 103.107 90.2681C103.066 90.3641 103.052 90.57 103.135 90.6524C103.039 90.7622 103.066 90.6524 102.929 90.6661C102.833 90.6661 102.654 90.6661 102.654 90.7759C102.613 91.1465 102.97 91.2426 102.97 91.2426C102.901 91.2426 102.847 91.2151 102.778 91.2426C102.682 91.6406 102.888 91.8053 103.052 91.9014C103.203 91.9837 103.807 92.1347 103.972 92.2171C104.301 92.3818 104.535 92.6837 104.796 92.9445C105.001 93.1504 105.317 93.2465 105.578 93.37C105.729 93.4387 106.196 93.5622 106.251 93.7132L107.349 92.1622V92.1759Z" fill="#FFD8A6"/>
<path d="M109.342 94.2897C108.999 93.7681 109.054 93.0544 108.615 92.4505C108.093 91.723 107.585 91.0916 107.201 90.2956C106.926 90.2681 106.775 90.5975 106.803 90.8857C106.858 91.4348 107.338 92.1622 107.379 92.4505L109.342 94.2897Z" fill="#FFD8A6"/>
<path d="M119.428 102.896C114.885 101.976 109.683 97.4878 108.324 96.4859C107.803 96.1015 109.697 93.6584 110.232 94.578C111.111 96.0741 116.326 97.378 118.495 99.08C119.099 99.5466 120.815 99.3682 120.087 100.933L119.415 102.909L119.428 102.896Z" fill="#F76627"/>
<path d="M83.5215 61.7053C83.5215 61.7053 89.2862 64.3406 91.4411 66.4681L102.01 60.7171C102.01 60.7171 95.1196 54.8563 94.0627 55.5288L83.5078 61.7053H83.5215Z" fill="white"/>
<path d="M76.5625 56.9017C76.5625 56.9017 81.3664 59.5644 83.5213 61.7056L94.3233 55.4605C94.3233 55.4605 88.1605 50.0526 87.1037 50.7389L76.5625 56.9154V56.9017Z" fill="white"/>
<path d="M79.4172 92.6151L88.9427 87.1523V89.2249L79.4172 94.6876V92.6151Z" fill="#F1F1F1"/>
<path d="M79.4172 94.6878L88.9427 89.2251L95.2702 92.8624L85.7447 98.3251L79.4172 94.6878Z" fill="#F1F1F1"/>
<path d="M85.8406 96.1288L95.3798 90.666V93.0954L85.8406 98.5582V96.1288Z" fill="#085A96"/>
<path d="M79.3074 92.3817L88.8329 86.9189L95.3799 90.666L85.8407 96.1287L79.3074 92.3817Z" fill="#0B2F49"/>
<path d="M79.3074 94.6328L79.4858 94.5229V94.7288L79.3074 94.6328Z" fill="#C2C2C7"/>
<path d="M79.4172 92.6152L85.7446 96.2524V98.325L79.4172 94.6877L79.3074 94.6328V94.8112L85.8407 98.5583V96.1289L79.3074 92.3818V92.5603L79.4172 92.6152Z" fill="#0B2F49"/>
<path d="M79.5957 92.7246L79.4172 92.6147V94.6873L79.6231 94.8108L79.4172 94.6873L85.7447 98.3246V96.252L79.4172 92.6147L79.5957 92.7246Z" fill="#F1F1F1"/>
<path d="M87.6534 95.6484V97.0896C87.6534 97.0896 87.6122 97.1857 87.5711 97.2131C87.5299 97.2406 87.5024 97.2131 87.5024 97.1719V95.7308C87.5024 95.7308 87.5299 95.621 87.5711 95.6072C87.6122 95.5798 87.6534 95.6072 87.6534 95.6484Z" fill="#F1F1F1"/>
<path d="M87.2671 95.8681V97.3093C87.2671 97.3093 87.2397 97.4054 87.1985 97.4328C87.1573 97.4603 87.1299 97.4328 87.1299 97.3917V95.9505C87.1299 95.9505 87.1711 95.8544 87.1985 95.827C87.2397 95.7995 87.2671 95.827 87.2671 95.8681Z" fill="#F1F1F1"/>
<path d="M86.8702 96.1015V97.5427C86.8702 97.5427 86.8427 97.6525 86.8015 97.6662C86.7604 97.6937 86.7329 97.6662 86.7329 97.6251V96.1839C86.7329 96.1839 86.7604 96.0741 86.8015 96.0604C86.8427 96.0329 86.8702 96.0604 86.8702 96.1015Z" fill="#F1F1F1"/>
<path d="M86.4869 96.3208V97.762C86.4869 97.762 86.4457 97.8718 86.4182 97.8855C86.3771 97.9129 86.3496 97.8855 86.3496 97.8443V96.4031C86.3496 96.4031 86.3908 96.3071 86.4182 96.2796C86.4594 96.2522 86.4869 96.2796 86.4869 96.3208Z" fill="#F1F1F1"/>
<path d="M79.8571 62.0075L69.7551 56.2153V58.4114L79.8571 64.2173V62.0075Z" fill="#F1F1F1"/>
<path d="M79.8565 64.2175L69.7545 58.4116L63.0291 62.2685L73.131 68.0606L79.8565 64.2175Z" fill="#F1F1F1"/>
<path d="M73.0349 65.7409L62.9192 59.9351V62.5154L73.0349 68.3213V65.7409Z" fill="#085A96"/>
<path d="M79.9662 61.7605L69.8506 55.9546L62.9192 59.935L73.0349 65.7409L79.9662 61.7605Z" fill="#0B2F49"/>
<path d="M79.9653 64.1489L79.7732 64.0391V64.2587L79.9653 64.1489Z" fill="#C2C2C7"/>
<path d="M79.8553 62.0215V62.0078L73.1298 65.8647V68.0607L79.8553 64.2176V64.2039L79.9651 64.149V64.3411L73.0337 68.3215V65.7411L79.9651 61.7607V61.9529L79.8553 62.0215Z" fill="#0B2F49"/>
<path d="M79.6635 62.1176L79.8556 62.0215V64.2039L79.636 64.3411L79.8556 64.2039V64.2176L73.1301 68.0608V65.8647L79.8556 62.0078V62.0215L79.6635 62.1176Z" fill="#F1F1F1"/>
<path d="M71.1143 65.2334V66.7569C71.1143 66.7569 71.1554 66.8667 71.1966 66.8942C71.2378 66.9216 71.279 66.8942 71.279 66.853V65.3295C71.279 65.3295 71.2378 65.2197 71.1966 65.1922C71.1554 65.1648 71.1143 65.1922 71.1143 65.2334Z" fill="#F1F1F1"/>
<path d="M71.5244 65.4667V67.004C71.5244 67.004 71.5656 67.1138 71.6068 67.1412C71.6479 67.1687 71.6891 67.1412 71.6891 67.1001V65.5765C71.6891 65.5765 71.6479 65.4667 71.6068 65.4393C71.5656 65.4118 71.5244 65.4393 71.5244 65.4804V65.4667Z" fill="#F1F1F1"/>
<path d="M71.9373 65.7002V67.2237C71.9373 67.2237 71.9784 67.3335 72.0196 67.361C72.0608 67.3884 72.102 67.361 72.102 67.3198V65.7963C72.102 65.7963 72.0608 65.6865 72.0196 65.659C71.9784 65.6315 71.9373 65.659 71.9373 65.7002Z" fill="#F1F1F1"/>
<path d="M72.3474 65.9468V67.4703C72.3474 67.4703 72.3886 67.5801 72.4298 67.6075C72.4709 67.635 72.5121 67.6075 72.5121 67.5664V66.0428C72.5121 66.0428 72.4709 65.933 72.4298 65.9056C72.3886 65.8781 72.3474 65.9056 72.3474 65.9468Z" fill="#F1F1F1"/>
<path d="M80.0625 89.3758L89.588 83.9131V85.9719L80.0625 91.4484V89.3758Z" fill="#F1F1F1"/>
<path d="M80.0625 91.4486L89.588 85.9722L95.9292 89.6094L86.4037 95.0722L80.0625 91.4486Z" fill="#F1F1F1"/>
<path d="M86.4993 92.8758L96.0248 87.4131V89.8562L86.4993 95.319V92.8758Z" fill="#F76627"/>
<path d="M79.9661 89.1288L89.4916 83.666L96.0249 87.4131L86.4994 92.8758L79.9661 89.1288Z" fill="#FF7443"/>
<path d="M79.9661 91.3798L80.1308 91.2837V91.4896L79.9661 91.3798Z" fill="#C7C5C3"/>
<path d="M80.0621 89.376L86.4033 93.0132V95.072L80.0621 91.4485V91.4348L79.9661 91.3799V91.572L86.4994 95.3191V92.876L79.9661 89.1289V89.3211L80.0621 89.376Z" fill="#FF7443"/>
<path d="M80.2409 89.4721L80.0625 89.376V91.4348L80.2821 91.5583L80.0625 91.4348V91.4485L86.4037 95.0721V93.0132L80.0625 89.376L80.2409 89.4721Z" fill="#F1F1F1"/>
<path d="M88.2984 92.3955V93.8367C88.2984 93.8367 88.2709 93.9327 88.2298 93.9602C88.1886 93.9877 88.1611 93.9602 88.1611 93.919V92.4778C88.1611 92.4778 88.1886 92.368 88.2298 92.3543C88.2709 92.3269 88.2984 92.3543 88.2984 92.3955Z" fill="#F1F1F1"/>
<path d="M87.9124 92.6289V94.0701C87.9124 94.0701 87.8849 94.1799 87.8438 94.1936C87.8026 94.221 87.7751 94.1936 87.7751 94.1524V92.7112C87.7751 92.7112 87.8026 92.6014 87.8438 92.5877C87.8849 92.5603 87.9124 92.5877 87.9124 92.6289Z" fill="#F1F1F1"/>
<path d="M87.5289 92.8486V94.2898C87.5289 94.2898 87.5014 94.3996 87.4602 94.4133C87.4191 94.4408 87.3916 94.4133 87.3916 94.3721V92.931C87.3916 92.931 87.4328 92.8212 87.4602 92.8074C87.5014 92.78 87.5289 92.8074 87.5289 92.8486Z" fill="#F1F1F1"/>
<path d="M87.1456 93.0678V94.509C87.1456 94.509 87.1181 94.6051 87.0769 94.6326C87.0358 94.6463 87.0083 94.6326 87.0083 94.5914V93.1502C87.0083 93.1502 87.0495 93.0404 87.0769 93.0267C87.1181 92.9992 87.1456 93.0267 87.1456 93.0678Z" fill="#F1F1F1"/>
<path d="M60.5601 60.0038L70.0855 54.541V56.5998L60.5601 62.0763V60.0038Z" fill="#F1F1F1"/>
<path d="M60.5601 62.0766L70.0855 56.6001L76.4267 60.2373L66.9012 65.7001L60.5601 62.0766Z" fill="#F1F1F1"/>
<path d="M66.9968 63.5038L76.5223 58.041V60.4842L66.9968 65.9469V63.5038Z" fill="#F76627"/>
<path d="M60.4636 59.7567L69.9891 54.2939L76.5224 58.041L66.997 63.5037L60.4636 59.7567Z" fill="#FF7443"/>
<path d="M60.4636 62.0077L60.6283 61.9116V62.1175L60.4636 62.0077Z" fill="#C7C5C3"/>
<path d="M60.5597 60.0039L66.9009 63.6411V65.7L60.5597 62.0764V62.0627L60.4636 62.0078V62.2L66.997 65.947V63.5039L60.4636 59.7568V59.949L60.5597 60.0039Z" fill="#FF7443"/>
<path d="M60.7385 60.1L60.5601 60.0039V62.0627L60.7797 62.2L60.5601 62.0627V62.0765L66.9012 65.7V63.6412L60.5601 60.0039L60.7385 60.1Z" fill="#F1F1F1"/>
<path d="M68.7959 63.0234V64.4646C68.7959 64.4646 68.7548 64.5607 68.7273 64.5881C68.6861 64.6156 68.6587 64.5881 68.6587 64.5469V63.1058C68.6587 63.1058 68.6861 62.996 68.7273 62.9822C68.7685 62.9548 68.7959 62.9822 68.7959 63.0234Z" fill="#F1F1F1"/>
<path d="M68.4103 63.2568V64.698C68.4103 64.698 68.3828 64.7941 68.3416 64.8215C68.3005 64.849 68.2593 64.8215 68.2593 64.7803V63.3392C68.2593 63.3392 68.2867 63.2294 68.3416 63.2156C68.3828 63.1882 68.4103 63.2156 68.4103 63.2568Z" fill="#F1F1F1"/>
<path d="M68.0264 63.4765V64.9177C68.0264 64.9177 67.999 65.0275 67.9578 65.0412C67.9166 65.0687 67.8892 65.0412 67.8892 65.0001V63.5589C67.8892 63.5589 67.9166 63.4491 67.9578 63.4354C67.999 63.4079 68.0264 63.4354 68.0264 63.4765Z" fill="#F1F1F1"/>
<path d="M67.6431 63.6958V65.137C67.6431 65.137 67.6157 65.233 67.5745 65.2605C67.5333 65.2879 67.5059 65.2605 67.5059 65.2193V63.7781C67.5059 63.7781 67.5333 63.6683 67.5745 63.6546C67.6157 63.6272 67.6431 63.6546 67.6431 63.6958Z" fill="#F1F1F1"/>
<path d="M70.894 31.6194C72.1292 30.8783 73.6802 31.2214 74.339 29.7665C73.7626 29.2312 73.5979 29.7253 72.9665 29.8489C72.0469 30.0136 71.4704 30.0547 70.7292 30.6861L70.894 31.6194Z" fill="#FFD8A6"/>
<path d="M66.7755 29.2445C67.297 28.7915 67.9696 28.0778 68.6559 28.1053C69.7676 28.1327 71.2774 29.7798 71.2912 30.8778C71.3186 32.4288 68.7519 32.6759 67.7088 33.1974C67.2147 33.4445 64.0166 31.6053 66.7755 29.2445Z" fill="#FFD8A6"/>
<path d="M68.9192 28.3111C69.1937 28.2425 69.4957 27.9131 69.6878 27.7209C69.9211 27.4876 70.0859 27.2406 70.3466 27.0484C70.7035 26.7739 71.0466 26.5268 71.5133 26.5406C71.9662 26.5406 72.3506 26.3621 72.7898 26.4307C73.1329 26.4857 73.476 26.6641 73.8055 26.6915C74.0937 26.7053 74.3545 26.7464 74.629 26.7464C74.7662 26.7464 74.9859 26.8151 75.1094 26.8562C75.1231 27.0072 75.0957 27.2817 74.9721 27.3778C75.0682 27.5425 75.0682 27.4053 75.2466 27.4464C75.3702 27.4876 75.6172 27.5013 75.5898 27.6798C75.5349 28.1876 75.0408 28.2288 75.0408 28.2288C75.1231 28.2562 75.2192 28.2288 75.3015 28.27C75.329 28.8327 74.9996 28.9974 74.7525 29.0798C74.5192 29.1484 73.6819 29.2033 73.4349 29.2719C72.9408 29.3955 72.5427 29.7523 72.1447 30.0406C71.8153 30.2739 71.3623 30.3151 70.978 30.4111C70.7584 30.466 70.0996 30.5072 69.9898 30.6994L68.9192 28.3249V28.3111Z" fill="#FFD8A6"/>
<path d="M65.677 31.1527C66.2809 30.5488 66.3907 29.039 67.1456 28.339C68.0515 27.488 68.8888 26.7743 69.6162 25.7998C70.0005 25.8273 70.1103 26.3214 69.9868 26.7057C69.7672 27.4194 68.9299 28.2978 68.8064 28.6684L65.677 31.1527Z" fill="#FFD8A6"/>
<path d="M58.42 39.5115C58.1043 39.6213 57.8023 39.7586 57.5004 39.8821C57.1847 40.0056 56.8827 40.1703 56.5533 40.2801C56.5396 40.2801 56.5121 40.2801 56.4847 40.3076C55.4415 41.0488 53.4788 41.3507 52.5592 41.6801L51.4062 39.1547C51.7219 38.5645 52.1612 37.535 52.7651 36.8076C52.9984 36.4507 53.2455 36.1076 53.5886 35.8331C54.0553 35.4488 54.4121 35.4351 54.9474 35.2566C55.3866 35.1194 55.7572 34.7213 56.1964 34.5841C56.6082 34.4468 57.2533 34.3782 57.1572 35.037C57.1023 35.4351 56.2651 35.7507 55.9906 35.9154C55.7572 36.0527 55.5102 36.2586 55.2768 36.4782C55.3729 36.5468 55.4827 36.6292 55.5788 36.6978C55.7984 36.6978 56.018 36.5468 56.2376 36.4782C56.471 36.4096 56.6906 36.3272 56.9102 36.2449C57.1847 36.1625 57.5278 36.1488 57.7337 35.9292C58.1866 35.4213 58.5572 34.9135 59.1063 34.5154C59.3396 34.3507 59.8337 34.3782 59.7925 34.8037C59.7651 35.0096 59.6141 35.1605 59.5043 35.339C59.3808 35.5174 59.2847 35.7096 59.1749 35.9017C59.1612 35.9292 59.1337 35.9703 59.1063 35.9978C59.2435 35.8743 59.367 35.7507 59.4768 35.6272C59.6827 35.4213 59.9984 34.9821 60.3415 34.9272C60.7945 34.8586 60.9317 35.2703 60.7396 35.6547C60.6847 35.7507 60.6161 35.8468 60.5474 35.9566C60.6023 35.9429 60.6435 35.9292 60.6984 35.9154C60.8082 35.888 61.0553 35.9292 61.1102 36.0939C61.1376 36.2037 60.9866 36.437 60.9317 36.5194C60.7945 36.7252 60.6435 36.9311 60.52 37.1507C60.3827 37.3841 60.2592 37.5351 60.0808 37.686C60.2592 37.6311 60.52 37.5625 60.5886 37.7409C60.6161 37.8233 60.4925 38.0017 60.4513 38.0703C60.3827 38.2213 60.3141 38.2625 60.1768 38.386C59.8337 38.688 59.5317 38.99 59.12 39.237C58.9004 39.3743 58.667 39.4292 58.4337 39.5252L58.42 39.5115Z" fill="#FFD8A6"/>
<path d="M39.0932 47.3763C43.0187 46.5665 50.952 43.2586 53.1756 41.488C53.1756 41.488 52.5579 41.6802 52.0226 40.4998C51.405 39.1547 51.7207 38.5508 51.7207 38.5508C49.003 38.688 42.1952 41.1312 36.6638 42.1057C35.4559 42.3116 34.6873 43.341 35.0991 45.1802C35.5246 47.0194 35.3461 48.1586 39.1069 47.3763H39.0932Z" fill="#F76627"/>
<path d="M64.1538 58.7821L73.6793 53.3193V55.3919L64.1538 60.8546V58.7821Z" fill="#F1F1F1"/>
<path d="M64.1538 60.8548L73.6793 55.3921L80.0205 59.0156L70.495 64.4784L64.1538 60.8548Z" fill="#F1F1F1"/>
<path d="M70.5906 62.2958L80.1161 56.8193V59.2625L70.5906 64.7252V62.2958Z" fill="#085A96"/>
<path d="M64.0574 58.535L73.5829 53.0723L80.1162 56.8193L70.5907 62.2958L64.0574 58.535Z" fill="#0B2F49"/>
<path d="M64.0574 60.786L64.2358 60.6899V60.8958L64.0574 60.786Z" fill="#C2C2C7"/>
<path d="M64.1535 58.7822L70.4946 62.4195V64.4783L64.1535 60.8548L64.0574 60.7861V60.9783L70.5907 64.7254V62.2959L64.0574 58.5352V58.7273L64.1535 58.7822Z" fill="#0B2F49"/>
<path d="M64.346 58.892L64.1538 58.7822V60.8548L64.3734 60.9783L64.1538 60.8548L70.495 64.4783V62.4195L64.1538 58.7822L64.346 58.892Z" fill="#F1F1F1"/>
<path d="M72.4034 61.8154V63.2566C72.4034 63.2566 72.3622 63.3664 72.3211 63.3801C72.2799 63.4076 72.2524 63.3801 72.2524 63.3389V61.8978C72.2524 61.8978 72.2799 61.788 72.3211 61.7742C72.3622 61.7468 72.4034 61.7742 72.4034 61.8154Z" fill="#F1F1F1"/>
<path d="M72.0037 62.0351V63.4763C72.0037 63.4763 71.9763 63.5724 71.9351 63.5998C71.8939 63.6273 71.8665 63.5998 71.8665 63.5587V62.1175C71.8665 62.1175 71.9076 62.0214 71.9351 61.994C71.9763 61.9665 72.0037 61.994 72.0037 62.0351Z" fill="#F1F1F1"/>
<path d="M71.6207 62.2549V63.696C71.6207 63.696 71.5933 63.8058 71.5521 63.8196C71.5109 63.847 71.4697 63.8196 71.4697 63.7784V62.3372C71.4697 62.3372 71.5109 62.2411 71.5521 62.2137C71.5933 62.1862 71.6207 62.2137 71.6207 62.2549Z" fill="#F1F1F1"/>
<path d="M71.2347 62.4883V63.9294C71.2347 63.9294 71.2073 64.0392 71.1661 64.053C71.1249 64.0804 71.0837 64.053 71.0837 64.0118V62.5706C71.0837 62.5706 71.1249 62.4745 71.1661 62.4471C71.2073 62.4196 71.2347 62.4471 71.2347 62.4883Z" fill="#F1F1F1"/>
</g>
<g clip-path="url(#clip2_69587_102694)">
<path fill-rule="evenodd" clip-rule="evenodd" d="M212.5 134.615C198.69 134.615 187.5 140.441 187.5 147.615C187.5 154.789 198.7 160.615 212.5 160.615C226.3 160.615 237.5 154.789 237.5 147.615C237.5 140.441 226.3 134.615 212.5 134.615Z" fill="#D1CDCB"/>
<path d="M206.744 68.9505C205.423 67.853 201.102 64.1831 200.707 64.0802C200.313 63.9773 199.249 63.9945 198.375 63.4457C197.5 62.8969 197.226 62.3825 197.226 62.3825C197.226 62.3825 194.997 60.942 194.636 60.6161C194.276 60.2903 194.431 59.6386 194.431 59.6386C194.431 59.6386 194.173 59.3128 194.191 58.9698C194.208 58.6097 194.499 57.9923 194.499 57.9923C194.499 57.9923 194.705 56.7405 195.974 57.2549C197.243 57.7694 199.112 58.3182 199.524 58.8155C199.935 59.3128 202.165 61.0277 202.165 61.0277L211.014 65.6751L206.726 68.9334L206.744 68.9505Z" fill="#EFB185"/>
<mask id="mask0_69587_102694" style="mask-type:luminance" maskUnits="userSpaceOnUse" x="191" y="50" width="2" height="1">
<path d="M192.563 50.4985L191.963 50.67C191.963 50.67 191.86 50.7043 191.825 50.7386L192.426 50.5671C192.426 50.5671 192.511 50.5157 192.563 50.4985Z" fill="white"/>
</mask>
<g mask="url(#mask0_69587_102694)">
<path d="M192.563 50.4985L191.963 50.67C191.963 50.67 191.86 50.7043 191.825 50.7386L192.426 50.5671C192.426 50.5671 192.511 50.5157 192.563 50.4985Z" fill="#424140"/>
</g>
<mask id="mask1_69587_102694" style="mask-type:luminance" maskUnits="userSpaceOnUse" x="187" y="71" width="2" height="2">
<path d="M188.308 72.6894L188.909 72.5179C188.549 72.6208 188.154 72.3979 187.948 71.9863L187.348 72.1578C187.554 72.5865 187.948 72.7923 188.308 72.6894Z" fill="white"/>
</mask>
<g mask="url(#mask1_69587_102694)">
<path d="M187.948 71.9863L187.348 72.1578C187.554 72.5865 187.948 72.7923 188.308 72.6894L188.909 72.5179C188.549 72.6208 188.154 72.3979 187.948 71.9863Z" fill="#424140"/>
</g>
<path d="M192.426 50.5503L191.825 50.7218L181.021 56.964L181.622 56.7925L192.426 50.5503Z" fill="#424140"/>
<path d="M181.345 58.0615L180.745 58.233L187.347 72.158L187.947 71.9865L181.345 58.0615Z" fill="#424140"/>
<mask id="mask2_69587_102694" style="mask-type:luminance" maskUnits="userSpaceOnUse" x="180" y="56" width="2" height="3">
<path d="M181.623 56.7925L181.023 56.964C180.645 57.1869 180.525 57.7528 180.748 58.233L181.348 58.0615C181.125 57.5813 181.246 57.0154 181.623 56.7925Z" fill="white"/>
</mask>
<g mask="url(#mask2_69587_102694)">
<path d="M181.623 56.7925L181.023 56.964C180.645 57.1869 180.525 57.7528 180.748 58.233L181.348 58.0615C181.125 57.5813 181.246 57.0154 181.623 56.7925Z" fill="#424140"/>
</g>
<path d="M181.621 56.7924C181.243 57.0153 181.123 57.5812 181.346 58.0614L187.949 71.9864C188.172 72.4666 188.669 72.6723 189.046 72.4666L199.85 66.2243C200.227 66.0014 200.347 65.4355 200.125 64.9553L193.522 51.0303C193.299 50.5502 192.802 50.3444 192.425 50.5502L181.621 56.7924Z" fill="#6E6C6C"/>
<path d="M182.391 57.1868C182.048 57.3926 181.928 57.9071 182.134 58.353L188.188 71.0946C188.393 71.5405 188.856 71.7292 189.199 71.5234L199.094 65.8128C199.437 65.607 199.557 65.0925 199.352 64.6466L193.298 51.9049C193.092 51.4591 192.629 51.2704 192.286 51.4762L182.391 57.1868Z" fill="#AFC8E5"/>
<path d="M217.682 60.6848C222.124 58.6955 224.576 59.4844 225.742 60.8049C226.908 62.1253 227.474 65.0407 226.239 67.9388C225.005 70.837 217.682 60.6848 217.682 60.6848Z" fill="#D7E3F2"/>
<path d="M211.938 145.624L211.681 145.915C211.681 145.915 211.732 146.842 212.024 147.287C212.298 147.733 213.207 147.853 215.265 147.819C217.323 147.785 218.283 146.378 218.523 145.658C218.969 144.338 219.964 144.218 219.964 144.218L221.627 142.932C221.627 142.932 222.056 141.971 221.936 141.491C221.816 141.011 219.895 140.977 219.895 140.977L217.168 144.063L211.938 145.641V145.624Z" fill="#C7620D"/>
<path d="M221.784 147.202C221.784 147.202 221.596 147.442 221.338 147.51C220.944 147.613 220.55 147.442 220.464 147.202C220.344 146.876 220.258 144.715 219.966 144.509C219.606 144.252 219.092 144.715 219.092 144.715C219.092 144.715 220.018 141.885 220.755 141.662C221.493 141.44 221.904 142.16 221.904 142.16C221.904 142.16 221.733 142.726 221.75 143.515C221.75 144.098 221.801 147.047 221.784 147.202Z" fill="#C7620D"/>
<path d="M214.94 143.223C214.94 143.223 213.551 144.149 212.796 144.338C212.042 144.526 211.596 145.144 211.665 145.813C211.733 146.498 212.659 146.824 213.842 147.116C215.009 147.407 216.621 147.493 217.735 145.298C218.85 143.103 219.827 141.56 220.599 141.474C221.354 141.388 221.954 141.474 221.954 141.474C221.954 141.474 222.091 138.884 220.548 139.193C219.004 139.502 218.113 139.845 218.113 139.845L214.94 143.223Z" fill="#C7620D"/>
<path d="M215.284 135.695C215.593 137.409 216.382 140.839 213.775 142.606C212.763 143.755 213.226 145.195 214.375 144.852C214.821 144.715 215.147 144.269 215.473 143.737C215.97 142.88 216.45 141.8 217.291 141.388C219.589 140.239 220.806 140.411 220.617 139.553C220.412 138.678 220.669 131.424 220.583 124.599C220.48 117.774 218.217 115.287 218.422 113.795C218.525 113.024 219.28 110.091 220.017 106.713C220.72 103.523 221.406 99.9561 221.543 97.4009C221.766 93.3537 222.933 87.9346 212.575 86.2197C212.575 86.2197 209.316 95.3601 210.5 103.386C211.683 111.412 214.924 133.637 215.284 135.712V135.695Z" fill="#EFB185"/>
<path d="M213.998 117.62C216.176 119.317 214.564 120.569 215.61 124.102C216.656 127.635 217.719 138.799 216.828 140.188C216.022 141.422 215.799 141.714 215.473 143.72C215.97 142.863 216.45 141.783 217.291 141.371C219.589 140.222 220.806 140.394 220.618 139.536C220.412 138.662 220.669 131.407 220.583 124.582C220.48 117.757 218.217 115.27 218.423 113.778C218.525 113.007 219.28 110.074 220.017 106.696C217.617 106.73 215.387 108.068 214.273 108.462C212.197 109.2 211.855 115.939 214.015 117.637L213.998 117.62Z" fill="#E6A376"/>
<path d="M203.999 148.968C203.999 148.968 201.924 148.008 201.975 148.539C202.027 149.071 202.421 149.825 202.627 150.1C202.833 150.374 205.336 151.3 207.051 151.163C208.766 151.009 209.109 150.443 209.727 149.723C210.344 149.002 210.893 148.333 211.27 148.333C211.647 148.333 213.379 148.659 214.391 147.956C215.386 147.253 215.351 146.361 215.351 146.361L213.156 146.704L208.886 148.471L204.016 148.968H203.999Z" fill="#C7620D"/>
<path d="M211.612 147.836C211.612 147.836 212.178 148.848 212.264 149.053C212.333 149.259 212.418 151.197 212.418 151.386C212.418 151.471 213.019 151.557 213.276 151.506C213.619 151.454 213.619 151.249 213.619 151.249C213.619 151.249 213.945 148.59 214.236 148.145C214.528 147.699 214.699 147.287 214.699 147.287C214.699 147.287 212.727 148.007 211.612 147.836Z" fill="#C7620D"/>
<path d="M207.807 146.67C207.807 146.67 206.298 146.138 205.509 146.344C204.738 146.55 202.285 147.699 202.028 148.231C201.771 148.745 203.451 149.482 204.137 149.945C204.823 150.408 206.59 150.837 207.807 150.443C209.025 150.048 209.796 147.802 211.151 147.716C212.506 147.63 213.586 147.939 214.701 147.27C215.816 146.601 215.816 143.48 214.701 143.789C213.586 144.098 207.807 146.67 207.807 146.67Z" fill="#C7620D"/>
<path d="M207.069 148.334C207.155 148.316 207.241 148.282 207.326 148.231C208.373 147.613 209.007 146.087 211.511 145.144C214.015 144.201 215.026 145.144 214.838 144.286C214.649 143.412 214.803 135.438 214.7 128.612C214.598 121.787 212.437 118.357 212.625 116.865C212.797 115.613 215.575 111.703 215.609 104.775C215.609 103.472 215.524 102.083 215.301 100.574C214.718 96.5609 216.69 91.1075 206.349 89.3926C206.349 89.3926 204.154 109.251 205.749 117.208C207.224 124.531 209.967 138.353 209.727 140.445C209.607 141.508 210.173 143.463 205.783 146.327C204.651 147.133 206.023 148.608 207.069 148.351V148.334Z" fill="#EFB185"/>
<path d="M212.265 126.074C212.711 128.338 213.191 142.726 212.025 143.326C209.95 144.389 207.909 146.927 207.069 148.333C207.155 148.316 207.241 148.282 207.326 148.231C208.373 147.613 209.007 146.087 211.511 145.144C214.015 144.201 215.026 145.144 214.838 144.286C214.649 143.412 214.803 135.437 214.7 128.612C214.598 121.787 212.437 118.357 212.625 116.865C212.797 115.613 215.575 111.703 215.609 104.775C208.167 99.6818 205.972 107.502 206.332 109.56C208.304 120.604 211.013 119.626 212.265 126.091V126.074Z" fill="#E6A376"/>
<path d="M201.256 112.664C201.256 112.887 200.896 115.064 203.4 116.454C204.497 117.054 205.406 117.414 206.452 117.551C208.047 117.774 209.985 117.482 213.432 116.814C219.16 115.699 221.629 112.595 221.629 112.595C221.629 112.595 221.629 108.205 222.692 98.55C223.396 92.2049 221.801 88.4835 220.635 86.6829C220.017 85.7397 219.52 85.311 219.52 85.311C219.52 85.311 211.717 84.505 206.778 85.9112C205.955 86.1513 205.218 86.4428 204.617 86.8201C204.12 87.1116 203.709 87.4546 203.417 87.8662C200.467 91.7761 201.273 112.441 201.273 112.681L201.256 112.664Z" fill="#19496D"/>
<path d="M206.452 117.551C208.047 117.774 209.985 117.482 213.432 116.813C219.16 115.699 221.629 112.595 221.629 112.595C221.629 112.595 221.629 108.205 222.692 98.5497C223.396 92.2046 221.801 88.4833 220.635 86.6826C220.703 87.0427 220.755 87.3171 220.772 87.4029C220.943 88.3118 220.309 90.2839 214.307 91.6044C210.945 92.3589 208.596 91.9988 207.035 91.3986C207.018 94.3482 206.692 97.8295 205.766 101.774C204.446 107.399 205.132 113.812 206.47 117.568L206.452 117.551Z" fill="#2F628C"/>
<path d="M212.574 62.966C208.081 65.2982 205.731 66.2071 204.702 67.7848C203.673 69.3625 200.792 74.4729 200.964 77.3883C201.135 80.3036 201.804 79.9949 202.096 82.9274C202.387 85.8599 202.953 87.0603 203.159 88.4836C203.485 90.8502 208.046 93.9199 216.741 91.056C221.491 89.0324 220.994 88.0721 221.405 85.5512C221.817 83.0131 225.899 70.563 226.379 66.8073C226.859 63.0517 224.527 59.8105 221.268 59.8105C218.353 59.8105 212.591 62.966 212.591 62.966H212.574Z" fill="#AFC8E5"/>
<path d="M194.448 77.8168C194.997 77.2337 202.577 71.1287 202.577 71.1287C202.577 71.1287 205.424 70.0826 206.71 73.238C207.996 76.3934 208.065 77.148 205.801 78.6056C203.52 80.0633 197.947 82.9786 195.632 82.4985C193.316 82.0011 192.733 79.9261 192.733 79.9261L194.448 77.8168Z" fill="#EFB185"/>
<path d="M197.586 80.4065C198.032 78.3144 198.41 78.5716 196.952 77.1654C195.494 75.7592 190.264 69.7913 189.801 68.8481C189.338 67.9049 188.6 66.2243 188.12 65.5898C187.64 64.9553 186.508 64.115 186.508 64.115C186.508 64.115 186.148 63.5662 185.531 63.6348C184.913 63.7034 185.222 64.4065 185.411 64.6295C185.599 64.8524 186.388 65.5898 186.388 65.5898C186.388 65.5898 186.542 65.95 186.474 66.1386C186.405 66.3101 185.685 66.3787 185.222 66.2758C184.742 66.1729 184.262 65.6756 184.262 65.6756C184.262 65.6756 184.21 65.4526 184.022 64.8867C183.816 64.3036 183.524 64.1493 183.524 64.1493C183.524 64.1493 182.924 65.3326 182.804 65.6241C182.684 65.9328 182.89 66.3787 182.89 66.3787C182.89 66.3787 182.735 66.756 182.787 67.0303C182.838 67.3047 183.336 68.1793 183.336 68.1793C183.336 68.1793 183.627 68.9682 183.816 69.2597C183.987 69.5512 184.502 70.2201 184.879 70.4944C185.256 70.7688 186.097 70.8889 186.457 71.0946C186.817 71.3004 188.223 71.7463 188.309 71.9178C188.395 72.0893 190.761 77.6456 192.236 79.8406C193.711 82.0357 195.151 82.3958 195.151 82.3958L197.604 80.4237L197.586 80.4065Z" fill="#EFB185"/>
<path d="M200.588 62.3825C198.788 62.6569 198.479 60.9935 198.325 60.7019C198.17 60.4275 197.141 59.6387 196.627 59.6044C196.129 59.5701 195.444 59.4157 195.323 58.6269C195.581 58.404 195.907 58.5926 195.907 58.5926C195.907 58.5926 197.227 58.8327 197.45 58.8498C197.673 58.867 198.993 59.3643 199.371 59.6558C199.748 59.9474 200.828 60.479 201.086 60.942C201.326 61.405 201.6 62.2625 200.571 62.3825H200.588Z" fill="#EFB185"/>
<path d="M219.657 53.9285C219.108 54.9403 219.348 59.742 219.897 60.3422C220.446 60.9424 221.32 61.3197 221.32 61.3197C221.32 61.3197 221.08 62.3315 217.822 63.1547C214.564 63.9778 211.7 63.3776 211.7 63.3776C211.7 63.3776 211.494 59.1589 211.168 58.9189C210.842 58.6788 210.774 59.3476 209.145 58.593C207.533 57.8385 206.898 53.414 206.778 52.8138C206.641 52.2136 206.727 46.4172 207.858 45.4226C208.99 44.4451 214.083 44.4966 214.083 44.4966L219.64 53.8942L219.657 53.9285Z" fill="#EFB185"/>
<path d="M210.037 53.6366C210.037 52.8134 209.865 52.2303 210.346 52.2132C210.826 52.196 211.426 52.9163 211.289 54.031C211.152 55.1285 210.517 56.4147 210.346 55.5229C210.174 54.6312 210.037 53.6366 210.037 53.6366Z" fill="#EFB185"/>
<path d="M209.194 54.7171C208.92 54.2713 208.079 52.745 208.096 51.5446C208.114 50.3441 207.805 49.5553 207.805 49.5553C207.805 49.5553 207.239 47.2745 207.599 45.4738C207.959 43.656 211.183 42.8843 211.183 42.8843C211.183 42.8672 212.572 41.7182 215.402 41.6153C218.231 41.5124 222.141 44.0505 222.519 48.9036C222.896 53.7568 220.924 53.8768 220.512 55.0944C220.101 56.312 219.775 57.0322 219.363 57.3409C218.952 57.6496 218.969 57.9411 217.151 58.2327C215.333 58.5242 214.647 58.267 214.236 57.461C213.824 56.6721 212.692 55.0601 211.938 54.8886C211.183 54.7171 210.6 52.8993 210.274 52.6078C209.949 52.3163 209.28 52.5392 209.177 54.7L209.194 54.7171Z" fill="#603311"/>
<path d="M206.795 65.9842C208.115 65.4869 209.504 66.7559 209.504 66.7559C209.504 66.7559 211.682 68.9681 211.477 72.2779C211.254 75.5876 206.418 78.6916 205.594 78.7602C201.925 79.0346 200.107 73.9756 200.844 71.9349C203.176 68.728 204.908 67.0131 206.812 65.9842H206.795Z" fill="#D7E3F2"/>
<path d="M219.81 49.3496C221.92 47.8405 227.287 47.0859 227.99 53.3625C228.453 57.4268 226.104 59.519 225.761 61.6111C225.315 64.355 225.487 66.7901 229.482 67.2017C227.184 69.9455 223.703 70.5114 220.085 67.9905C213.465 63.3775 222.691 55.3175 220.085 52.8308C219.313 52.0763 219.793 49.3668 219.793 49.3668L219.81 49.3496Z" fill="#603311"/>
<path d="M221.783 48.6122C220.068 48.2692 219.159 51.6476 220.12 52.8137C218.662 52.4536 218.268 51.7676 218.491 50.1213C218.714 48.475 220.188 48.0291 221.783 48.6122Z" fill="#C7620D"/>
</g>
</g>
<defs>
<linearGradient id="paint0_linear_69587_102694" x1="123.329" y1="22.2358" x2="112.431" y2="16.3314" gradientUnits="userSpaceOnUse">
<stop stop-color="#231F20"/>
<stop offset="0.09" stop-color="#231F20"/>
<stop offset="1" stop-color="#231F20"/>
</linearGradient>
<clipPath id="clip0_69587_102694">
<rect width="260" height="160" fill="white" transform="translate(0.5 0.615234)"/>
</clipPath>
<clipPath id="clip1_69587_102694">
<rect width="128" height="160" fill="white" transform="translate(23.5 0.615234)"/>
</clipPath>
<clipPath id="clip2_69587_102694">
<rect width="57" height="120" fill="white" transform="matrix(-1 0 0 1 237.5 40.6152)"/>
</clipPath>
</defs>
</svg>
