<svg width="261" height="161" viewBox="0 0 261 161" fill="none" xmlns="http://www.w3.org/2000/svg">
<g clip-path="url(#clip0_69587_98587)">
<g clip-path="url(#clip1_69587_98587)">
<path fill-rule="evenodd" clip-rule="evenodd" d="M221.383 117.332C238.53 117.332 252.425 124.566 252.425 133.474C252.425 142.382 238.518 149.615 221.383 149.615C204.249 149.615 190.342 142.382 190.342 133.474C190.342 124.566 204.249 117.332 221.383 117.332Z" fill="#C2C7CF"/>
<path d="M225.812 98.8949C225.505 98.5736 225.211 98.2662 224.932 97.9729C223.702 96.7016 222.683 95.7517 221.789 94.9973C221.621 94.5224 221.481 94.0195 221.342 93.4048C219.637 85.1907 219.777 77.9544 219.945 76.6832C220.196 74.7135 211.004 74.5039 211.004 74.5039C211.004 74.5039 210.934 84.8833 210.753 88.6831C210.557 92.9019 210.557 94.4525 212.82 96.9112C215.097 99.3838 219.26 103.142 223.214 106.648C224.052 104.064 224.918 101.493 225.798 98.9088L225.812 98.8949Z" fill="#F0BC96"/>
<path d="M235.301 109.372C233.429 107.779 228.581 102.261 224.516 97.875C223.65 100.39 222.812 102.904 222.001 105.433C225.256 108.31 228.204 110.895 229.587 112.278C234.309 116.985 234.616 121.358 235.147 123.23C235.678 125.102 239.477 123.188 239.366 119.71C239.254 116.245 239.072 115.742 239.45 114.178C239.827 112.627 238.178 111.775 235.301 109.358V109.372Z" fill="#F0BC96"/>
<path d="M237.494 109.791C237.494 109.791 237.466 109.777 237.453 109.763C237.313 109.693 237.229 109.665 237.229 109.665C236.349 109.33 235.287 109.372 235.287 109.372C235.287 109.372 238.863 113.367 238.416 117.167C237.914 121.414 237.145 122.811 235.134 123.244C235.134 123.244 235.497 124.696 235.818 127.56C235.986 129.097 237.425 129.209 239.283 126.792C240.274 125.521 241.196 123.244 240.819 121.218C240.442 119.081 239.744 117.083 239.744 115.407C239.744 115.141 239.744 114.918 239.744 114.694C240.861 115.56 241.504 116.203 242.314 116.832C242.859 116.929 243.082 116.51 243.054 116.007C242.356 115.099 241.406 114.61 240.274 112.766C239.073 110.797 237.983 110.056 237.494 109.805V109.791Z" fill="#3A4857"/>
<path d="M233.232 82.7321C234.168 80.9859 222.391 77.9824 222.391 77.9824C222.391 77.9824 221.176 86.909 220.352 90.611C219.109 96.2128 218.857 98.9368 219.472 106.774C219.751 110.252 218.941 123.146 218.103 127.616C216.859 134.168 214.205 136.99 212.962 138.485C211.719 139.98 214.638 141.921 217.432 139.868C220.24 137.828 221.092 136.166 222.601 135.607C224.096 135.048 223.551 133.749 223.942 130.019C224.249 127.128 226.554 118.383 227.854 112.306C229.698 103.673 227.812 103.226 228.538 98.8251C229.893 90.5551 232.631 83.8497 233.246 82.7042L233.232 82.7321Z" fill="#FFDCC4"/>
<path d="M224.977 132.031C224.977 132.031 224.977 132.003 224.977 131.989C224.949 131.835 224.921 131.752 224.921 131.752C224.641 130.858 223.957 130.047 223.957 130.047C223.957 130.047 223.035 135.328 219.78 137.326C216.148 139.561 214.555 139.826 212.977 138.499C212.977 138.499 212.069 139.686 210.001 141.712C208.898 142.788 209.694 143.989 212.753 143.961C214.36 143.947 216.721 143.263 218.09 141.726C219.529 140.105 220.674 138.331 221.987 137.284C222.197 137.116 222.364 136.976 222.546 136.837C222.546 138.248 222.448 139.156 222.462 140.175C222.728 140.664 223.189 140.58 223.566 140.245C223.845 139.142 223.636 138.08 224.39 136.054C225.2 133.903 225.102 132.576 224.991 132.045L224.977 132.031Z" fill="#3A4857"/>
<path d="M210.69 89.8588C214.057 93.0718 217.94 97.3046 222.9 97.3884C227.118 97.4583 227.398 97.0811 229.326 95.9496C231.212 90.3198 235.682 80.3874 236.171 73.9753C236.576 68.7926 234.774 61.3608 232.888 58.8742C232.888 58.8602 228.781 57.1419 226.462 57.1C222.215 57.0302 217.465 58.1757 213.442 56.5273C213.205 56.4295 213.037 56.5692 212.967 56.7508C212.897 56.7508 212.828 56.7787 212.8 56.8765C210.872 64.0988 210.299 78.5993 210.676 89.8588H210.69Z" fill="#2F628C"/>
<path d="M197.803 50.909C197.803 50.909 204.243 41.1163 206.814 36.5203C208.993 32.6368 211.731 25.6799 215.489 21.6287C217.557 19.3936 218.241 20.5111 220.728 21.95C227.74 25.9872 215.489 35.9336 215.489 35.9336C215.489 35.9336 208.42 45.0697 206.814 47.8776C205.948 49.3864 201.366 54.3875 201.366 54.3875L197.803 50.923V50.909Z" fill="#7D5637"/>
<path d="M209.245 31.7147C209.245 31.7147 210.838 22.9279 213.869 20.9302C216.887 18.9325 220.491 20.8324 220.798 21.4471C221.106 22.0617 214.107 34.3829 214.107 34.3829C214.107 34.3829 210.67 32.5809 209.245 31.7147Z" fill="#B9C8DA"/>
<path d="M209.427 30.835L208.729 32.7628C208.729 32.7628 212.193 34.3274 214.009 35.6405C215.825 36.9537 216.189 35.1516 215.029 33.8384C213.604 32.2319 209.427 30.835 209.427 30.835Z" fill="#D5E4F6"/>
<path d="M213.94 48.8416C213.856 50.3224 213.325 54.7088 212.808 56.8182C215.49 63.2582 229.725 64.4317 233.665 59.6681C233.12 56.469 231.737 47.8078 231.905 44.7904C231.905 44.7904 238.833 37.1211 236.878 29.2981C236.277 26.9233 230.661 24.3668 230.661 24.3668C230.661 24.3668 226.61 27.5938 225.185 28.7114C223.816 29.787 221.539 32.5251 221.344 32.7626H221.316C221.344 32.3155 221.623 28.6834 223.034 24.8278C223.481 23.6125 222.796 20.0502 222.796 20.0502C222.796 20.0502 222.224 19.9105 221.413 19.7568C220.184 21.1259 217.753 24.744 216.44 26.2527C215.169 27.7056 211.439 32.7206 212.585 37.4703C213.562 41.5215 214.065 46.8439 213.968 48.8416H213.94Z" fill="#D5E4F6"/>
<path d="M228.944 21.6846C228.944 21.6846 227.785 26.3365 226.108 28.0128C224.432 29.6892 220.828 33.3492 220.828 33.3492C220.828 33.3492 224.669 33.7543 227.058 34.3969C228.818 32.6507 231.361 27.6636 231.361 26.1129C231.361 21.936 228.93 21.6846 228.93 21.6846H228.944Z" fill="#B9C8DA"/>
<path d="M220.73 21.936C220.73 21.936 217.126 27.3702 216.288 29.8289C217.825 30.8347 220.828 33.3492 220.828 33.3492L222.812 23.0257L220.716 21.936H220.73Z" fill="#B9C8DA"/>
<path d="M215.685 8.45538C215.685 8.45538 214.163 13.0514 215.029 23.6264C215.378 27.9989 217.278 31.3935 217.278 31.3935C217.278 31.3935 219.555 25.0932 222.824 23.0117C225.129 21.5449 221.678 18.8069 221.678 18.8069L215.685 8.44141V8.45538Z" fill="#FFDCC4"/>
<path d="M221.692 26.8394C221.091 27.7754 220.476 30.7509 220.839 33.3353C222.18 32.581 224.723 30.1502 226.176 28.404C227.573 26.7277 228.579 25.3028 229.054 23.2772C228.844 21.5589 228.83 18.4716 229.724 14.63C227.14 13.4705 222.362 20.5671 222.362 20.5671C222.362 20.5671 222.418 24.6462 221.692 26.8255V26.8394Z" fill="#F0BC96"/>
<path d="M229.055 5.88504C226.596 3.59402 220.366 2.33675 217.432 8.60911C214.345 15.1888 219.681 24.311 223.118 23.1934C225.046 22.5648 229.195 20.0642 230.634 16.5858C232.254 12.6603 230.969 7.65918 229.055 5.88504Z" fill="#FFDCC4"/>
<path d="M230.451 42.5133C230.451 42.5133 224.234 55.1558 222.586 57.6843C220.923 60.2128 208.784 64.725 208.784 64.725C208.784 64.725 207.624 65.8426 209.356 66.583C210.139 66.9182 212.667 67.6726 214.162 67.3233C218.954 66.1918 226.092 62.5737 227.852 61.023C231.303 57.9637 237.198 45.0697 237.198 45.0697C237.198 45.0697 234.027 42.3457 230.451 42.5133Z" fill="#FFDCC4"/>
<path d="M231.012 41.9965C231.012 41.9965 229.531 30.2481 234.309 27.6358C238.43 25.3867 241.88 29.815 241.852 34.3831C241.81 38.8953 237.48 44.2457 237.48 44.2457L231.012 41.9965Z" fill="#B9C8DA"/>
<path d="M230.887 40.6133L230.468 42.5132C230.468 42.5132 231.809 42.8764 233.918 43.6866C236.027 44.4968 237.215 45.0696 237.215 45.0696L238.221 43.2675C238.221 43.2675 235.72 41.661 230.901 40.6133H230.887Z" fill="#D5E4F6"/>
<path d="M222.824 9.2238C222.824 9.2238 222.53 14.0433 224.779 17.5078C227.028 20.9723 227.084 24.0875 227 27.6358C226.861 33.7964 225.212 35.6404 225.212 35.6404C225.212 35.6404 232.952 33.0141 233.79 23.9338C234.6 15.2307 234.418 8.37165 232.183 5.1307C230.144 2.18311 226.078 2.88159 226.078 2.88159C226.078 2.88159 220.812 -1.04387 216.481 6.47178C214.526 9.85243 215.671 12.5625 216.481 13.8338C218.437 9.62892 222.81 9.2238 222.81 9.2238H222.824Z" fill="#410005"/>
<path d="M212.346 61.4841L212.29 66.6249L195.722 57.1256L195.708 51.9429L212.346 61.4841Z" fill="#7D5637"/>
<path d="M208.911 61.0789L208.883 63.1045L200.012 58.0056L199.998 55.98L208.911 61.0789Z" fill="white"/>
<path d="M211.482 60.9812L211.413 66.136L210.225 65.4515L210.267 60.2827L211.482 60.9812Z" fill="white"/>
<path d="M197.96 54.8066C197.401 54.4853 196.94 54.6809 196.94 55.2397C196.94 55.7985 197.401 56.5109 197.96 56.8462C198.519 57.1675 198.98 56.9719 198.98 56.4131C198.98 55.8543 198.519 55.1419 197.96 54.8066Z" fill="#181C20"/>
<path d="M212.346 61.4841L195.708 51.9429L209.999 43.603L226.651 53.1583L212.346 61.4841Z" fill="#FFDCC4"/>
<path d="M226.65 53.9405L212.903 61.9172L212.917 65.5632L226.65 57.6844V58.1873L212.289 66.6249L212.345 61.4841L226.65 53.1582V53.9405Z" fill="#7D5637"/>
<path d="M212.907 61.9171L226.653 53.9404V57.6843L212.921 65.5632L212.907 61.9171Z" fill="white"/>
<path d="M212.346 55.6448L212.29 60.7996L195.722 51.3002L195.708 46.1035L212.346 55.6448Z" fill="#3A4857"/>
<path d="M208.911 55.2535L208.883 57.2651L200.012 52.1802L199.998 50.1406L208.911 55.2535Z" fill="white"/>
<path d="M211.482 55.156L211.413 60.2968L210.225 59.6263L210.267 54.4575L211.482 55.156Z" fill="white"/>
<path d="M197.96 48.9673C197.401 48.646 196.94 48.8415 196.94 49.4003C196.94 49.9591 197.401 50.6716 197.96 51.0068C198.519 51.3281 198.98 51.1326 198.98 50.5738C198.98 50.015 198.519 49.3025 197.96 48.9812V48.9673Z" fill="#181C20"/>
<path d="M212.346 55.645L195.708 46.1037L209.999 37.7778L226.651 47.3331L212.346 55.645Z" fill="#51606F"/>
<path d="M226.65 48.1013L212.903 56.092L212.917 59.738L226.65 51.8592V52.3621L212.289 60.7997L212.345 55.6449L226.65 47.333V48.1013Z" fill="#3A4857"/>
<path d="M212.907 56.0917L226.653 48.1011V51.8589L212.921 59.7378L212.907 56.0917Z" fill="white"/>
<path d="M212.346 49.7219L212.29 54.8767L195.722 45.3774L195.708 40.1807L212.346 49.7219Z" fill="#7D5637"/>
<path d="M208.911 49.3307L208.883 51.3423L200.012 46.2573L199.998 44.2178L208.911 49.3307Z" fill="white"/>
<path d="M211.482 49.2327L211.413 54.3874L210.225 53.7029L210.267 48.5342L211.482 49.2327Z" fill="white"/>
<path d="M197.96 43.0444C197.401 42.7231 196.94 42.9187 196.94 43.4775C196.94 44.0363 197.401 44.7487 197.96 45.07C198.519 45.3913 198.98 45.1957 198.98 44.6369C198.98 44.0782 198.519 43.3657 197.96 43.0304V43.0444Z" fill="#181C20"/>
<path d="M212.346 49.7216L195.708 40.1804L209.999 31.8545L226.651 41.4097L212.346 49.7216Z" fill="#F0BC96"/>
<path d="M226.65 42.192L212.903 50.1686L212.917 53.8147L226.65 45.9358V46.4387L212.289 54.8764L212.345 49.7216L226.65 41.4097V42.192Z" fill="#7D5637"/>
<path d="M212.907 50.1686L226.653 42.1919V45.9358L212.921 53.8146L212.907 50.1686Z" fill="white"/>
<path d="M197.497 59.5425C196.575 58.4668 195.932 56.3155 196.938 55.2398C197.944 54.1642 199.564 55.8545 200.011 57.6705C200.29 58.844 200.723 59.9895 200.723 59.9895L202.134 60.7997C202.134 60.7997 199.746 62.1408 197.51 59.5425H197.497Z" fill="#FFDCC4"/>
<path d="M207.389 65.1718C206.467 64.0962 205.824 61.9449 206.83 60.8692C207.836 59.7935 209.456 61.4839 209.903 63.2999C210.183 64.4734 210.616 65.6189 210.616 65.6189L212.027 66.4291C212.027 66.4291 209.638 67.7702 207.403 65.1718H207.389Z" fill="#FFDCC4"/>
</g>
<g clip-path="url(#clip2_69587_98587)">
<path d="M72.8046 86.9073L55.6888 96.794L44.2908 90.2071L61.394 80.333L72.8046 86.9073Z" fill="#F7F9FF"/>
<path d="M45.5634 84.25L36.7221 97.2475L21.7095 93.847L30.5508 80.8369L45.5634 84.25Z" fill="#F1F3F9"/>
<path d="M13.6484 79.3884L35.3865 73.2549L42.4646 81.6176L20.7265 87.7511L13.6484 79.3884Z" fill="white"/>
<path d="M107.415 79.3636L96.395 91.8069L82.0374 87.5626L93.0575 75.1318L107.415 79.3636Z" fill="white"/>
<path d="M42.9179 129.615L30.3235 117.688L44.0892 112.852L56.6837 124.779L42.9179 129.615Z" fill="#F7F9FF"/>
<path d="M84.87 111.567L78.6106 98.0662L94.1899 95.6606L100.449 109.149L84.87 111.567Z" fill="white"/>
<path d="M51.1296 107.965L71.2682 100.22L80.1977 107.978L60.0591 115.711L51.1296 107.965Z" fill="white"/>
<g style="mix-blend-mode:multiply" opacity="0.5">
<path d="M78.5736 69.8296L54.6567 83.6331L72.9817 94.2125H84.0774L78.5736 69.8296Z" fill="#72777F"/>
</g>
<path d="M85.8411 63.7461L85.8033 80.27L59.8083 95.3834L59.8461 78.872L85.8411 63.7461Z" fill="#E4AF6E"/>
<path d="M59.8456 78.8721L59.8078 95.3835L40.9287 84.4893L40.9665 67.9653L59.8456 78.8721Z" fill="#C98D56"/>
<path d="M85.8399 63.7463L59.8449 78.8722L40.9658 67.9654L66.9608 52.8521L85.8399 63.7463Z" fill="#FFC98E"/>
<path opacity="0.7" d="M74.8074 57.3481L48.6865 72.4363V76.2902L50.8654 77.5497V73.658L76.9611 58.595L74.8074 57.3481Z" fill="#623F21"/>
<g style="mix-blend-mode:multiply" opacity="0.9">
<path d="M49.8834 73.1164L75.9791 58.0535L75.702 57.9023L49.6189 72.9653L49.8834 73.1164Z" fill="#C58C67"/>
</g>
<path d="M84.5553 70.9753L76.7341 75.4841V70.5219L84.5553 66.0005V70.9753Z" fill="#F7F9FF"/>
<path opacity="0.4" d="M69.7945 83.4312L62.1497 87.8518V87.1843L69.7945 82.7637V83.4312ZM68.7366 84.7788L63.2076 87.9652V88.2171L68.7366 85.0307V84.7788ZM68.7366 85.6226L63.2076 88.809V89.0609L68.7366 85.8745V85.6226ZM68.7366 86.4538L63.2076 89.6402V89.8921L68.7366 86.7057V86.4538ZM68.7366 87.2977L63.2076 90.4841V90.736L68.7366 87.5496V87.2977ZM68.7366 88.1289L63.2076 91.3153V91.5672L68.7366 88.3808V88.1289Z" fill="#1D1D00"/>
<path opacity="0.4" d="M83.4584 67.3608L77.9294 70.5472V70.7991L83.4584 67.6127V67.3608ZM83.4584 68.1921L77.9294 71.3785V71.6304L83.4584 68.444V68.1921ZM83.4584 69.0359L77.9294 72.2223V72.4742L83.4584 69.2878V69.0359ZM83.4584 69.8671L77.9294 73.0535V73.3054L83.4584 70.119V69.8671ZM83.4584 70.711L77.9294 73.8974V74.1493L83.4584 70.9629V70.711Z" fill="#1D1D00"/>
<g style="mix-blend-mode:multiply" opacity="0.9">
<path d="M48.6865 72.4365V76.2904L50.8654 77.5499V73.6582L48.6865 72.4365Z" fill="#C58C67"/>
</g>
<path d="M61.5835 79.4515C61.4953 79.6656 61.2812 79.8419 61.1301 79.8419C60.979 79.8419 60.916 79.6656 61.0042 79.4515C61.0923 79.2374 61.3064 79.061 61.4576 79.061C61.6087 79.061 61.6717 79.2374 61.5835 79.4515Z" fill="#42474E"/>
<path d="M62.7913 78.7464C62.7031 78.9605 62.489 79.1368 62.3379 79.1368C62.1867 79.1368 62.1238 78.9605 62.2119 78.7464C62.3001 78.5323 62.5142 78.356 62.6653 78.356C62.8165 78.356 62.8794 78.5323 62.7913 78.7464Z" fill="#42474E"/>
<path d="M64.0137 78.0535C63.9255 78.2676 63.7114 78.4439 63.5603 78.4439C63.4092 78.4439 63.3462 78.2676 63.4343 78.0535C63.5225 77.8394 63.7366 77.6631 63.8877 77.6631C64.0389 77.6631 64.1018 77.8394 64.0137 78.0535Z" fill="#42474E"/>
<path d="M81.9611 47.1343L81.9107 63.6456L55.9158 78.759L55.9661 62.2476L81.9611 47.1343Z" fill="#E4AF6E"/>
<path d="M55.9661 62.2477L55.9157 78.7591L37.0366 67.8649L37.087 51.3535L55.9661 62.2477Z" fill="#C98D56"/>
<path d="M81.96 47.1343L55.965 62.2477L37.0859 51.3535L63.0809 36.2275L81.96 47.1343Z" fill="#FFC98E"/>
<path opacity="0.7" d="M70.9287 40.7236L44.7952 55.8118V59.6657L46.9866 60.9251V57.0461L73.0823 41.9705L70.9287 40.7236Z" fill="#623F21"/>
<g style="mix-blend-mode:multiply" opacity="0.9">
<path d="M46.0042 56.4919L72.0999 41.429L71.8229 41.2778L45.7397 56.3408L46.0042 56.4919Z" fill="#C58C67"/>
</g>
<path d="M80.6761 54.3508L72.855 58.8596V53.8974L80.6761 49.376V54.3508Z" fill="#F7F9FF"/>
<path opacity="0.4" d="M65.9151 66.8067L58.2703 71.2273V70.5598L65.9151 66.1392V66.8067ZM64.8572 68.1543L59.3282 71.3407V71.5926L64.8572 68.4062V68.1543ZM64.8572 68.9981L59.3282 72.1845V72.4364L64.8572 69.25V68.9981ZM64.8572 69.8293L59.3282 73.0157V73.2676L64.8572 70.0812V69.8293ZM64.8572 70.6732L59.3282 73.8596V74.1115L64.8572 70.9251V70.6732ZM64.8572 71.5044L59.3282 74.6908V74.9427L64.8572 71.7563V71.5044Z" fill="#1D1D00"/>
<path opacity="0.4" d="M79.5817 50.7363L74.0527 53.9227V54.1746L79.5817 50.9882V50.7363ZM79.5817 51.5676L74.0527 54.754V55.0058L79.5817 51.8194V51.5676ZM79.5817 52.4114L74.0527 55.5978V55.8497L79.5817 52.6633V52.4114ZM79.5817 53.2426L74.0527 56.429V56.6809L79.5817 53.4945V53.2426ZM79.5817 54.0865L74.0527 57.2729V57.5247L79.5817 54.3383V54.0865Z" fill="#1D1D00"/>
<g style="mix-blend-mode:multiply" opacity="0.9">
<path d="M44.7952 55.8115V59.6654L46.9866 60.9249V57.0458L44.7952 55.8115Z" fill="#C58C67"/>
</g>
<path d="M57.7534 62.9148C57.6653 63.1289 57.4512 63.3053 57.3 63.3053C57.1489 63.3053 57.0859 63.1289 57.1741 62.9148C57.2622 62.7007 57.4763 62.5244 57.6275 62.5244C57.7786 62.5244 57.8416 62.7007 57.7534 62.9148Z" fill="#42474E"/>
<path d="M58.9636 62.2098C58.8755 62.4239 58.6614 62.6002 58.5102 62.6002C58.3591 62.6002 58.2961 62.4239 58.3843 62.2098C58.4725 61.9957 58.6866 61.8193 58.8377 61.8193C58.9888 61.8193 59.0518 61.9957 58.9636 62.2098Z" fill="#42474E"/>
<path d="M60.1714 61.5169C60.0832 61.731 59.8691 61.9073 59.718 61.9073C59.5669 61.9073 59.5039 61.731 59.5921 61.5169C59.6802 61.3028 59.8943 61.1265 60.0455 61.1265C60.1966 61.1265 60.2596 61.3028 60.1714 61.5169Z" fill="#42474E"/>
<path d="M60.0443 58.847L42.7773 48.8848V33.9478L60.0443 43.91V58.847Z" fill="#C98D56"/>
<path d="M83.3703 45.3833L60.0454 58.8468V43.9098L83.3703 30.4463V45.3833Z" fill="#E4AF6E"/>
<path d="M60.0443 43.91L42.7773 33.9477L66.1023 20.4717L83.3693 30.4465L60.0443 43.91Z" fill="#FFC98E"/>
<path d="M43.23 33.9475L66.1015 20.7485L82.9151 30.4463L60.0436 43.6453L43.23 33.9475Z" fill="#E4AF6E"/>
<path d="M66.1018 20.7485V40.1566L82.9154 30.4463L66.1018 20.7485Z" fill="#C98D56"/>
<path d="M83.3451 30.459L66.0781 20.4842L71.796 14.2373L89.0756 24.2121L83.3451 30.459Z" fill="#EFB973"/>
<path d="M60.0464 43.91L42.7794 33.9478L35.1724 35.3205L52.4394 45.2828L60.0464 43.91Z" fill="#FFC98E"/>
<path d="M42.8154 33.935L66.1151 20.4842L60.435 14.6655L37.1353 28.1164L42.8154 33.935Z" fill="#FEC885"/>
<path d="M60.0464 43.8976L83.3587 30.4341L91.1421 32.2855L67.8424 45.7489L60.0464 43.8976Z" fill="#FFC98E"/>
<mask id="mask0_69587_98587" style="mask-type:luminance" maskUnits="userSpaceOnUse" x="30" y="9" width="62" height="35">
<path d="M43.2327 33.9477L31.8599 30.988L30.3738 24.1366L67.5778 9.61523L91.142 20.5598L82.9179 30.4465L60.0463 43.6455L43.2327 33.9477Z" fill="white"/>
</mask>
<g mask="url(#mask0_69587_98587)">
<path d="M55.5007 42.9651L64.5184 36.0508L81.1808 43.2926L72.1758 50.207L55.5007 42.9651Z" fill="#ECEEF3"/>
<path d="M55.55 41.6681L66.5324 35.7739L80.739 44.59L69.7692 50.4843L55.55 41.6681Z" fill="white"/>
<path d="M70.1067 49.5902L55.623 41.3282V38.5322L70.1067 46.7942V49.5902Z" fill="#C2C7CF"/>
<path d="M80.2326 43.5324L70.1067 49.5903V46.7944L80.2326 40.749V43.5324Z" fill="#D8DAE0"/>
<path d="M69.7802 46.7941L55.4729 38.5322L65.9641 32.4868L80.2714 40.7488L69.7802 46.7941Z" fill="white"/>
<path d="M56.1921 38.0031L67.1619 32.1089L81.3811 40.925L70.3987 46.8192L56.1921 38.0031Z" fill="white"/>
<path d="M70.4238 46.4288L55.9402 38.1668V36.2524L70.4238 44.5144V46.4288Z" fill="#C2C7CF"/>
<path d="M80.2348 40.383L70.1089 46.4283V44.514L80.2348 38.4561V40.383Z" fill="#D8DAE0"/>
<path d="M70.2475 44.5142L55.9402 36.2523L66.4314 30.1943L80.7387 38.4563L70.2475 44.5142Z" fill="white"/>
<path d="M68.662 44.0614L55.6267 35.7994V33.0034L68.662 41.2654V44.0614Z" fill="#C2C7CF"/>
<path d="M80.2354 38.0031L68.6611 44.061V41.2651L80.2354 35.2197V38.0031Z" fill="#D8DAE0"/>
<path d="M69.228 41.2653L54.9207 33.0033L65.3992 26.958L79.7065 35.22L69.228 41.2653Z" fill="white"/>
<path d="M55.752 32.3483L66.7217 26.4541L80.9409 35.2702L69.9585 41.1644L55.752 32.3483Z" fill="white"/>
<path d="M70.1067 41.0387L55.623 32.7768V30.5098L70.1067 38.7717V41.0387Z" fill="#C2C7CF"/>
<path d="M80.2326 34.9809L70.1067 41.0388V38.7718L80.2326 32.7139V34.9809Z" fill="#D8DAE0"/>
<path d="M69.7802 38.7716L55.4729 30.5096L65.9641 24.4517L80.2714 32.7136L69.7802 38.7716Z" fill="white"/>
<path d="M55.8401 29.0108L68.296 24.1997L79.9081 34.2123L67.4522 39.0234L55.8401 29.0108Z" fill="white"/>
<path d="M70.223 38.8345L55.752 30.5726V28.6582L70.223 36.9202V38.8345Z" fill="#C2C7CF"/>
<path d="M80.5504 32.7893L70.1096 38.8346V36.9202L80.5504 30.8623V32.7893Z" fill="#D8DAE0"/>
<path d="M70.0593 36.92L55.752 28.658L66.2305 22.6001L80.5504 30.8621L70.0593 36.92Z" fill="white"/>
<path d="M44.2544 49.4515L53.272 42.5371L69.9345 49.7915L60.9295 56.7059L44.2544 49.4515Z" fill="#ECEEF3"/>
<path d="M44.3035 48.1545L55.2858 42.2603L69.4924 51.089L58.5226 56.9832L44.3035 48.1545Z" fill="white"/>
<path d="M58.5353 53.2926L44.228 45.0306L54.7192 38.9727L69.0265 47.2346L58.5353 53.2926Z" fill="white"/>
<path d="M44.9458 44.4894L55.9156 38.5952L70.1347 47.4239L59.1524 53.3181L44.9458 44.4894Z" fill="white"/>
<path d="M59.1775 52.9277L44.6938 44.6657V42.7388L59.1775 51.0007V52.9277Z" fill="#C2C7CF"/>
<path d="M59.0012 51.0007L44.6938 42.7513L55.185 36.6934L69.4923 44.9553L59.0012 51.0007Z" fill="white"/>
<path d="M57.4151 50.5599L44.3799 42.2979V39.502L57.4151 47.7639V50.5599Z" fill="#C2C7CF"/>
<path d="M69.0012 44.502L57.4143 50.56V47.764L69.0012 41.7061V44.502Z" fill="#D8DAE0"/>
<path d="M57.9811 47.7637L43.6738 39.5018L54.1524 33.4438L68.4723 41.7058L57.9811 47.7637Z" fill="white"/>
<path d="M44.5051 38.8341L55.4749 32.9399L69.694 41.7687L58.7117 47.6629L44.5051 38.8341Z" fill="white"/>
</g>
<path d="M69.5301 51.2653L61.709 55.7742V50.8119L69.5301 46.2905V51.2653Z" fill="#F7F9FF"/>
<path opacity="0.4" d="M68.4335 47.6504L62.9045 50.8368V51.0887L68.4335 47.9023V47.6504ZM68.4335 48.4816L62.9045 51.668V51.9199L68.4335 48.7335V48.4816ZM68.4335 49.3255L62.9045 52.5119V52.7637L68.4335 49.5773V49.3255ZM68.4335 50.1567L62.9045 53.3431V53.595L68.4335 50.4086V50.1567ZM68.4335 51.0005L62.9045 54.1869V54.4388L68.4335 51.2524V51.0005Z" fill="#1D1D00"/>
<path d="M84.0762 94.2374L97.8797 86.2777V83.5825L84.0762 91.5548V94.2374Z" fill="#D8DAE0"/>
<path d="M73.9636 88.4062L84.077 94.2374V91.5548L73.9636 85.7109V88.4062Z" fill="#C2C7CF"/>
<path d="M84.077 91.5549L97.8805 83.5826L87.7671 77.7388L73.9636 85.7111L84.077 91.5549Z" fill="white"/>
<path d="M97.1884 83.0663L86.609 77.3862L72.9062 85.8875L83.4856 91.5676L97.1884 83.0663Z" fill="white"/>
<path d="M83.3953 91.668L97.1988 83.7083V81.8569L83.3953 89.8166V91.668Z" fill="#D8DAE0"/>
<path d="M73.2827 85.824L83.3961 91.6679V89.8165L73.2827 83.9727V85.824Z" fill="#C2C7CF"/>
<path d="M83.3961 89.8167L97.1996 81.857L87.0862 76.0132L73.2827 83.9729L83.3961 89.8167Z" fill="white"/>
<path d="M83.22 90.3077L97.0235 82.348V79.6528L83.22 87.6125V90.3077Z" fill="#D8DAE0"/>
<path d="M73.1199 84.4639L83.2206 90.3077V87.6125L73.1199 81.7812V84.4639Z" fill="#C2C7CF"/>
<path d="M83.2206 87.6126L97.0242 79.6529L86.9108 73.8091L73.1199 81.7814L83.2206 87.6126Z" fill="white"/>
<path d="M97.213 79.8797L86.6337 74.187L72.9309 82.7009L83.5103 88.381L97.213 79.8797Z" fill="white"/>
<path d="M83.0303 87.5496L96.8338 79.5899V77.3984L83.0303 85.3707V87.5496Z" fill="#D8DAE0"/>
<path d="M72.9177 81.7183L83.0311 87.5495V85.3707L72.9177 79.5269V81.7183Z" fill="#C2C7CF"/>
<path d="M83.0311 85.3708L96.8346 77.3985L86.7213 71.5547L72.9177 79.527L83.0311 85.3708Z" fill="white"/>
<path d="M83.3953 85.1316L97.1988 77.1719V76.3154L83.3953 84.2877V85.1316Z" fill="#D8DAE0"/>
<path d="M73.2827 79.2877L83.3961 85.1315V84.2877L73.2827 78.4438V79.2877Z" fill="#C2C7CF"/>
<path d="M83.3961 84.2879L97.1996 76.3156L87.0862 70.4844L73.2827 78.4441L83.3961 84.2879Z" fill="white"/>
<path d="M84.0129 83.721L97.8165 75.7613V73.5698L84.0129 81.5421V83.721Z" fill="#D8DAE0"/>
<path d="M73.9006 77.8897L84.014 83.7209V81.5421L73.9006 75.6982V77.8897Z" fill="#C2C7CF"/>
<path d="M84.014 81.5422L97.8175 73.5699L87.7042 67.7261L73.9006 75.6984L84.014 81.5422Z" fill="white"/>
<path d="M58.7104 81.769L65.4485 82.3988L81.9976 92.1091L75.2596 91.4794L58.7104 81.769Z" fill="#FFC98E"/>
<path d="M58.6866 81.7563L51.9612 82.3735L29.5808 95.4591L36.3063 94.8294L58.6866 81.7563Z" fill="#E4AF6E"/>
<path d="M75.625 91.4795L75.5746 106.278L53.0054 119.401L53.0558 104.616L75.625 91.4795Z" fill="#E4AF6E"/>
<path d="M53.0557 104.616L53.0053 119.402L36.1035 109.641L36.1413 94.855L53.0557 104.616Z" fill="#C98D56"/>
<path d="M75.6243 91.4795L53.055 104.615L36.1406 94.8548L58.7099 81.7188L75.6243 91.4795Z" fill="#FFC98E"/>
<path d="M36.7209 94.8546L58.7109 82.0586L75.0459 91.4918L53.056 104.288L36.7209 94.8546Z" fill="#E4AF6E"/>
<path d="M58.7118 96.8571V82.0586L75.0468 91.4918L53.0569 104.288L58.7118 96.8571Z" fill="#C98D56"/>
<path d="M74.4676 97.9527L67.4651 101.995V97.5497L74.4676 93.5068V97.9527Z" fill="#ECEEF3"/>
<path opacity="0.4" d="M61.9608 108.696L55.1094 112.65V112.046L61.9608 108.091V108.696ZM61.0162 109.905L56.0666 112.764V112.991L61.0162 110.132V109.905ZM61.0162 110.661L56.0666 113.52V113.746L61.0162 110.887V110.661ZM61.0162 111.404L56.0666 114.263V114.489L61.0162 111.63V111.404ZM61.0162 112.159L56.0666 115.018V115.245L61.0162 112.386V112.159ZM61.0162 112.902L56.0666 115.761V115.988L61.0162 113.129V112.902Z" fill="#1D1D00"/>
<path opacity="0.4" d="M73.4972 94.7158L68.5476 97.5748V97.8015L73.4972 94.9425V94.7158ZM73.4972 95.4589L68.5476 98.3178V98.5445L73.4972 95.6856V95.4589ZM73.4972 96.2146L68.5476 99.0735V99.3002L73.4972 96.4413V96.2146ZM73.4972 96.9576L68.5476 99.8166V100.043L73.4972 97.1843V96.9576ZM73.4972 97.7133L68.5476 100.572V100.799L73.4972 97.94V97.7133Z" fill="#1D1D00"/>
<path d="M81.3804 99.9556L75.6247 91.4795L53.0554 104.616L58.8237 113.079L81.3804 99.9556Z" fill="#FFC98E"/>
<path d="M30.4001 103.318L36.1684 94.8545L53.0828 104.615L47.3145 113.079L30.4001 103.318Z" fill="#E4AF6E"/>
<path d="M49.4934 102.222L53.0576 104.288L62.2768 98.9098L58.7126 96.8569L49.4934 102.222Z" fill="#FFC98E"/>
<mask id="mask1_69587_98587" style="mask-type:luminance" maskUnits="userSpaceOnUse" x="36" y="82" width="40" height="23">
<path d="M36.7209 94.8546L58.7109 82.0586L75.0459 91.4918L53.056 104.288L36.7209 94.8546Z" fill="white"/>
</mask>
<g mask="url(#mask1_69587_98587)">
<path d="M47.0876 100.308L56.1053 93.394L72.7677 100.636L63.7627 107.55L47.0876 100.308Z" fill="#ECEEF3"/>
<path d="M47.1389 99.0109L58.1213 93.1167L72.3278 101.933L61.3581 107.827L47.1389 99.0109Z" fill="white"/>
<path d="M61.6975 106.933L47.2139 98.671V95.875L61.6975 104.137V106.933Z" fill="#C2C7CF"/>
<path d="M71.836 100.875L61.6975 106.933V104.137L71.836 98.0913V100.875Z" fill="#D8DAE0"/>
<path d="M61.371 104.137L47.0637 95.8749L57.5549 89.8296L71.8622 98.0916L61.371 104.137Z" fill="white"/>
<path d="M47.781 95.3459L58.7508 89.4517L72.9699 98.2678L61.9876 104.162L47.781 95.3459Z" fill="white"/>
<path d="M62.0102 103.772L47.5266 95.5101V93.5957L62.0102 101.858V103.772Z" fill="#C2C7CF"/>
<path d="M71.8339 97.7268L61.6953 103.772V101.858L71.8339 95.7998V97.7268Z" fill="#D8DAE0"/>
<path d="M61.8339 101.857L47.5266 93.5955L58.0178 87.5376L72.3251 95.7996L61.8339 101.857Z" fill="white"/>
<path d="M60.2506 101.404L47.2153 93.1423V90.3589L60.2506 98.6083V101.404Z" fill="#C2C7CF"/>
<path d="M71.8367 95.359L60.2498 101.404V98.6083L71.8367 92.563V95.359Z" fill="#D8DAE0"/>
<path d="M60.8166 98.6081L46.5093 90.3587L56.9879 84.3008L71.3078 92.5627L60.8166 98.6081Z" fill="white"/>
<path d="M47.7417 89.1369L58.7241 83.2427L72.9306 92.0714L61.9608 97.9656L47.7417 89.1369Z" fill="white"/>
<path d="M35.2751 111.102L44.2928 104.188L60.9678 111.442L51.9502 118.356L35.2751 111.102Z" fill="#ECEEF3"/>
<path d="M35.3369 109.804L46.3067 103.91L60.5258 112.739L49.5435 118.633L35.3369 109.804Z" fill="white"/>
<path d="M49.5671 114.943L35.2598 106.681L45.7509 100.623L60.0583 108.885L49.5671 114.943Z" fill="white"/>
<path d="M35.9666 106.139L46.9489 100.245L61.1555 109.074L50.1857 114.968L35.9666 106.139Z" fill="white"/>
<path d="M50.0347 112.651L35.7148 104.389L46.206 98.3433L60.5133 106.605L50.0347 112.651Z" fill="white"/>
<path d="M48.4359 112.21L35.4006 103.948V101.152L48.4359 109.414V112.21Z" fill="#C2C7CF"/>
<path d="M60.022 106.152L48.4351 112.21V109.414L60.022 103.356V106.152Z" fill="#D8DAE0"/>
<path d="M49.0019 109.414L34.6946 101.152L45.1858 95.0942L59.4931 103.356L49.0019 109.414Z" fill="white"/>
<path d="M35.5259 100.485L46.5082 94.5903L60.7148 103.419L49.745 109.313L35.5259 100.485Z" fill="white"/>
<path d="M49.8811 109.175L35.3975 100.913V98.646L49.8811 106.908V109.175Z" fill="#C2C7CF"/>
<path d="M60.0196 103.117L49.8811 109.175V106.908L60.0196 100.85V103.117Z" fill="#D8DAE0"/>
<path d="M49.5671 106.908L35.2598 98.6458L45.7509 92.5879L60.0583 100.85L49.5671 106.908Z" fill="white"/>
<path d="M35.6265 97.147L48.0824 92.3359L59.6945 102.349L47.2386 107.16L35.6265 97.147Z" fill="white"/>
</g>
</g>
<g clip-path="url(#clip3_69587_98587)">
<path fill-rule="evenodd" clip-rule="evenodd" d="M128.5 134.615C114.69 134.615 103.5 140.441 103.5 147.615C103.5 154.789 114.7 160.615 128.5 160.615C142.3 160.615 153.5 154.789 153.5 147.615C153.5 140.441 142.3 134.615 128.5 134.615Z" fill="#C2C7CF"/>
<path d="M115.798 143.711V151.878C115.798 152.444 116.584 152.895 117.551 152.895C118.518 152.895 119.304 152.437 119.304 151.878V143.711H115.798Z" fill="#FFDCC4"/>
<path d="M89.0555 128.26V136.427C89.0555 136.993 89.8415 137.444 90.8088 137.444C91.7761 137.444 92.562 136.986 92.562 136.427V128.26H89.0555Z" fill="#FFDCC4"/>
<path d="M152.951 122.088V130.255C152.951 130.821 153.736 131.272 154.704 131.272C155.671 131.272 156.457 130.814 156.457 130.255V122.088H152.951Z" fill="#FFDCC4"/>
<path d="M157.499 102.48L140.067 111.361L128.789 104.818C128.104 104.421 127.257 104.421 126.572 104.818L104.102 117.917L87.5105 108.477V127.802L87.571 127.769C87.4702 128.112 87.571 128.51 87.927 128.712L116.194 145.12C117.154 145.679 118.343 145.679 119.304 145.12L156.881 123.261C157.331 122.998 157.512 122.533 157.472 122.082L157.499 122.095V102.48Z" fill="#FFDCC4"/>
<path d="M157.499 100.027L140.067 108.908L128.789 102.365C128.104 101.967 127.257 101.967 126.572 102.365L104.102 115.464L87.5105 106.024V125.349L87.571 125.315C87.4702 125.659 87.571 126.057 87.927 126.259L116.194 142.666C117.154 143.226 118.343 143.226 119.304 142.666L156.881 120.808C157.331 120.545 157.512 120.08 157.472 119.628L157.499 119.642V100.027Z" fill="#755845"/>
<path d="M156.88 101.321L119.29 123.173C118.329 123.732 117.14 123.732 116.18 123.173L87.9131 106.765C87.3623 106.449 87.3623 105.654 87.9131 105.337L126.572 82.8782C127.257 82.4807 128.103 82.4807 128.788 82.8782L156.88 99.1713C157.707 99.6497 157.707 100.842 156.88 101.328V101.321Z" fill="#7D5637"/>
<path d="M144.923 83.9364L144.191 86.2409C144.191 86.2409 141.82 85.6816 137.192 84.2531C137.01 84.1924 136.829 84.1385 136.641 84.0779C134.787 83.4984 132.906 82.7909 131.253 82.0901C128.446 80.9176 126.289 79.7856 125.994 79.4015C125.134 78.2695 123.018 74.0918 123.018 74.0918H128.842C128.842 74.0918 131.159 75.7494 131.986 76.2413C132.422 76.4906 132.926 76.7938 133.47 77.1173C134.948 77.9932 136.674 79.0377 137.816 79.7721C140.107 81.2613 144.93 83.9364 144.93 83.9364H144.923Z" fill="#B9C8DA"/>
<path d="M126.236 43.3247C126.236 43.3247 130.092 43.729 128.634 48.2167C127.754 50.9457 126.901 54.4698 127.962 57.2661C128.285 58.1152 128.782 58.2095 129.125 58.8766C129.373 59.3617 127.855 60.0895 127.365 60.3186C126.874 60.5544 126.323 60.6218 125.786 60.6689C123.455 60.8846 121.077 60.7902 118.813 60.1771C118.672 60.1366 118.525 60.0962 118.383 60.1434C118.222 60.1973 118.122 60.3455 118.014 60.4735C117.329 61.3023 116.059 61.4843 115.072 61.0665C113.836 60.5409 112.768 59.1663 113.131 57.8389C113.44 56.7069 113.775 55.5883 114.105 54.463C114.434 53.3108 114.77 52.1585 115.099 51.0063C115.166 50.7772 115.327 49.598 115.542 49.47L126.243 43.3247H126.236Z" fill="#623F21"/>
<path d="M112.748 90.4523C112.748 90.4523 106.689 102.244 117.309 107.817C128.279 113.578 132.759 115.377 132.759 115.377L148.914 101.375C148.914 101.375 144.105 97.2781 131.241 90.4523C129.239 89.1181 128.977 87.1101 128.977 87.1101C128.977 87.1101 114.622 86.3419 112.748 90.4523Z" fill="#181C20"/>
<path d="M135.251 104.798C135.251 104.798 140.222 101.516 144.212 100.283C146.751 99.4946 148.914 101.375 148.914 101.375L144.058 106.139L141.015 107.412L135.258 104.798H135.251Z" fill="#F0BC96"/>
<path d="M148.914 101.375C148.914 101.375 143.44 101.051 140.437 107.823C137.428 114.595 136.702 133.698 136.702 133.698C136.098 134.756 135.124 136.184 135.829 137.357C135.95 137.559 136.104 137.761 136.313 137.862C136.514 137.963 136.749 137.97 136.971 137.977C137.367 137.983 137.77 137.983 138.167 137.963C138.583 137.936 139.033 137.876 139.349 137.599C139.879 137.141 139.9 136.366 139.94 135.726C139.974 135.113 140.283 134.473 140.477 133.9C141.848 129.924 143.52 126.057 145.012 122.128C146.651 117.802 148.411 114.069 149.25 109.508C150.043 105.202 150.661 103.275 148.914 101.381V101.375Z" fill="#F0BC96"/>
<path d="M140.248 131.845L140.033 136.697C140.033 136.697 140.342 143.853 140.725 145.295C141.101 146.737 142.303 148.313 141.558 149.358C140.812 150.402 135.27 148.212 134.793 144.52C135.176 138.947 134.525 137.768 135.143 136.205C136.567 133.752 136.849 133.092 136.849 133.092L140.241 131.838L140.248 131.845Z" fill="#F0BC96"/>
<path d="M135.344 135.861C135.344 135.861 134.706 135.975 134.384 138.792C134.229 140.066 134.021 140.733 134.021 140.733L134.935 140.928C134.935 140.928 134.034 144.371 135.156 146.312C136.278 148.252 140.228 150.597 141.827 149.56C142.445 148.92 141.45 146.763 140.55 144.311C140.597 146.73 136.997 145.49 136.56 144.284C136.117 143.084 134.632 137.855 135.344 135.861Z" fill="#181C20"/>
<path d="M137.918 103.524C136.238 104.036 133.094 105.465 132.476 109.043C131.422 115.121 135.271 126.03 135.459 128.24C135.566 129.5 135.748 130.754 136.104 131.966C137.111 135.383 137.071 137.431 138.583 139.823C138.663 139.951 138.75 140.079 138.885 140.133C138.986 140.174 139.106 140.167 139.221 140.153C139.563 140.113 139.906 140.012 140.175 139.796C141.202 138.947 141.014 136.616 141.088 135.41C141.605 126.515 142.996 118.059 142.391 109.11C142.163 105.741 141.585 103.666 137.911 103.518L137.918 103.524Z" fill="#FFDCC4"/>
<path d="M131.073 74.4957C130.938 74.7989 130.817 75.1089 130.703 75.4054C130.448 76.0725 130.226 76.7328 130.045 77.3999C129.098 80.8094 129.071 84.2999 129.655 88.828C126.223 90.6473 121.178 90.9168 117.49 90.8157C114.743 90.7349 112.748 90.4519 112.748 90.4519C114.111 87.3186 111.841 78.4039 110.618 72.043C109.987 68.7413 109.631 66.1336 110.222 65.3789C111.827 63.3237 121.406 59.0382 124.906 59.8737C128.406 60.7025 127.741 62.879 128.97 64.9678C130.206 67.0567 132.987 70.0619 131.073 74.4957Z" fill="#D5E4F6"/>
<path d="M130.703 75.4055C130.447 76.0726 130.226 76.733 130.044 77.4001C128.331 78.0672 124.476 79.4889 120.989 80.0751C119.055 80.3986 117.658 82.1101 117.651 84.0777C117.651 86.4697 117.61 89.3807 117.49 90.8159C114.742 90.7351 112.747 90.452 112.747 90.452C114.111 87.3188 111.84 78.4041 110.618 72.0432C111.968 71.6995 113.298 71.4839 113.298 71.4839H116.012C116.012 71.4839 116.455 76.423 119.122 78.1413C120.721 79.1722 129.245 76.6386 130.696 75.4055H130.703Z" fill="#B9C8DA"/>
<path d="M117.161 61.5182C117.161 61.5182 117.04 63.4993 118.289 64.7189C118.894 65.3051 120.117 65.925 121.312 66.0396C122.468 66.1474 123.549 65.4197 123.791 64.2742C123.932 63.6071 123.898 62.9198 123.851 62.4279C123.69 60.804 122.495 59.8606 122.495 59.8606L122.582 55.2786L118.296 54.8608L117.161 61.5182Z" fill="#F0BC96"/>
<path d="M125.712 43.709C125.712 43.709 126.498 46.8625 126.747 49.2209C126.807 49.8273 127.116 52.1992 127.183 52.873C127.432 55.4335 126.807 57.6774 125.799 58.8768C124.523 60.3929 117.302 58.5062 115.925 55.9322C114.548 53.3581 117.866 53.183 117.866 53.183L119.734 44.9286L125.712 43.709Z" fill="#FFDCC4"/>
<path d="M124.913 41.7682C126.854 42.469 127.916 45.2923 126.498 46.795C126.021 47.3003 125.027 47.4149 124.134 47.6777C120.58 48.7019 120.271 54.389 120.271 54.4294C120.144 54.8606 118.961 52.8796 117.88 53.486C115.824 54.645 116.489 59.4494 117.013 59.9682C117.43 60.3793 118.061 60.4736 118.605 60.696C118.72 60.7431 118.847 60.8038 118.888 60.9251C118.941 61.08 118.834 61.235 118.733 61.3563C116.563 63.8899 112.466 63.3508 109.994 60.6016C107.797 58.1556 107.824 53.7354 108.549 49.908C109.181 46.5591 110.847 43.7223 113.802 41.9636C117.215 39.9354 121.286 40.4678 124.913 41.775V41.7682Z" fill="#623F21"/>
<path d="M140.793 132.991L141.558 138.893C141.558 138.893 143.372 147.464 144.084 149.129C144.796 150.786 146.428 152.431 145.831 153.852C145.233 155.274 138.744 153.832 137.467 149.472C136.735 142.66 135.788 141.373 136.137 139.358C137.179 136.09 137.36 135.235 137.36 135.235L140.793 132.991Z" fill="#FFDCC4"/>
<path d="M136.286 138.893C136.286 138.893 135.614 139.169 135.849 142.646C135.903 144.236 135.849 145.153 135.849 145.153L136.635 145.187C136.635 145.187 136.917 146.325 137.146 147.74C137.347 149.034 137.455 150.55 138.234 151.554C139.86 153.65 144.642 155.631 146.167 154.034C146.705 153.124 145.18 150.746 143.695 147.969C144.246 150.88 140.068 150.159 139.342 148.798C138.617 147.444 135.916 141.46 136.279 138.893H136.286Z" fill="#181C20"/>
<path d="M134.827 89.5961C134.693 89.4209 130.985 87.5476 130.407 87.3118C130.037 87.1635 129.628 87.1231 129.023 87.0153C129.023 87.0153 127.982 87.049 127.807 87.0557C127.31 87.0827 126.02 86.8536 126.02 86.8536L111.128 82.8848L105.123 86.3887C106.574 88.3495 124.818 89.5085 124.818 89.5085C125.409 89.6365 125.832 90.4383 126.491 90.6001C127.149 90.7618 127.707 90.8022 127.707 90.8022C127.707 90.8022 127.384 91.1122 127.639 91.4221C127.895 91.7321 129.043 91.9073 129.581 91.9881C130.118 92.069 130.702 91.5704 131.092 91.065C131.408 90.654 131.656 89.6837 131.65 89.1311L131.784 89.1581C131.784 89.1581 132.96 89.6971 133.813 89.9128C134.666 90.1216 134.968 89.7712 134.834 89.6028L134.827 89.5961Z" fill="#FFDCC4"/>
<path d="M151.729 73.431L150.849 72.7707C150.788 72.7235 150.694 72.7033 150.607 72.7505L138.556 79.6167C138.233 79.7987 137.965 80.075 137.79 80.4051L128.977 96.9879C128.896 97.1429 128.943 97.3046 129.044 97.4057L129.924 98.0593L131.133 96.4961L141.236 90.7349C141.478 90.5933 141.679 90.3912 141.807 90.1419L150.217 74.3138L151.715 73.4243L151.729 73.431Z" fill="#D5E4F6"/>
<path d="M151.796 73.7074L142.707 90.8158C142.573 91.0651 142.378 91.2673 142.136 91.4088L130.354 98.1268C130.052 98.302 129.709 97.9651 129.87 97.6551L138.683 81.0723C138.858 80.7421 139.12 80.4726 139.449 80.2839L151.5 73.4176C151.688 73.3098 151.903 73.5187 151.796 73.7074Z" fill="#181C20"/>
<path d="M147.087 82.5815C147.087 82.5815 145.992 83.0667 145.22 83.5182C144.763 83.7203 143.46 84.3537 143.386 84.8456C143.359 85.041 143.473 85.1084 143.628 85.1286C143.204 85.3847 142.815 85.6811 142.774 85.9439C142.734 86.2269 142.983 86.2606 143.265 86.2269C143.211 86.3011 143.177 86.3684 143.164 86.4358C143.124 86.6986 143.339 86.7458 143.587 86.7256C143.641 87.1299 144.521 86.8199 144.669 86.7593C144.756 86.7323 145.354 86.4965 145.448 86.4695C146.301 86.1932 148.007 83.06 147.087 82.5815Z" fill="#FFDCC4"/>
<path d="M110.349 65.2579C109.966 65.6285 109.704 66.1002 109.536 66.6056C109.059 68.0206 107.749 71.9759 106.554 76.3962C105.056 81.9351 104.183 85.978 105.721 87.3526C107.252 88.7205 124.597 90.1018 124.597 90.1018C124.597 90.1018 124.462 89.4482 124.838 88.1343C125.107 87.2044 125.645 86.6855 126.168 86.6316L121.661 85.284L112.653 82.4472C112.653 82.4472 114.85 75.2709 115.736 72.4207C116.623 69.5704 117.234 66.6999 116.032 65.514C114.729 64.2202 111.955 63.7216 110.349 65.2579Z" fill="#D5E4F6"/>
</g>
</g>
<defs>
<clipPath id="clip0_69587_98587">
<rect width="260" height="160" fill="white" transform="translate(0.5 0.615234)"/>
</clipPath>
<clipPath id="clip1_69587_98587">
<rect width="63.325" height="149" fill="white" transform="translate(189.5 0.615234)"/>
</clipPath>
<clipPath id="clip2_69587_98587">
<rect width="94" height="120" fill="white" transform="translate(8.5 9.61523)"/>
</clipPath>
<clipPath id="clip3_69587_98587">
<rect width="70" height="120" fill="white" transform="matrix(-1 0 0 1 157.5 40.6152)"/>
</clipPath>
</defs>
</svg>
