<?xml version="1.0" encoding="UTF-8" standalone="no"?>
<!DOCTYPE svg PUBLIC "-//W3C//DTD SVG 1.1//EN" "http://www.w3.org/Graphics/SVG/1.1/DTD/svg11.dtd">
<svg width="100%" height="100%" viewBox="0 0 307 296" version="1.1" xmlns="http://www.w3.org/2000/svg" xmlns:xlink="http://www.w3.org/1999/xlink" xml:space="preserve" xmlns:serif="http://www.serif.com/" style="fill-rule:evenodd;clip-rule:evenodd;stroke-linejoin:round;stroke-miterlimit:2;">
    <g transform="matrix(1,0,0,1,-19.5,0)">
        <path d="M222.517,193.653C194.499,193.653 169.179,174.216 162.885,145.755C157.058,119.407 173.754,93.23 200.103,87.403C205.133,86.291 210.332,86.18 215.405,87.077C220.478,87.974 225.324,89.862 229.667,92.631C234.01,95.401 237.765,99 240.718,103.221C243.67,107.442 245.762,112.203 246.875,117.233C248.666,125.377 247.154,133.9 242.669,140.931C238.185,147.962 231.095,152.927 222.954,154.737C217.329,155.958 211.457,155.23 206.301,152.673C201.145,150.116 197.011,145.882 194.58,140.665C194.559,140.621 194.547,140.573 194.545,140.524C194.543,140.475 194.551,140.427 194.568,140.381C194.584,140.335 194.61,140.293 194.643,140.257C194.677,140.221 194.716,140.192 194.761,140.172C194.805,140.151 194.853,140.14 194.902,140.138C194.951,140.136 195,140.144 195.046,140.161C195.091,140.178 195.133,140.204 195.169,140.237C195.205,140.271 195.234,140.311 195.254,140.355C197.614,145.418 201.626,149.528 206.63,152.01C211.635,154.492 217.334,155.198 222.793,154.012C230.742,152.245 237.665,147.397 242.044,140.532C246.423,133.667 247.899,125.345 246.15,117.393C243.946,107.427 237.873,98.746 229.268,93.257C220.662,87.769 210.229,85.924 200.263,88.128C187.789,90.901 176.925,98.509 170.053,109.282C163.182,120.056 160.864,133.115 163.609,145.595C170.794,178.08 203.069,198.665 235.557,191.48C246.29,189.114 256.377,184.431 265.11,177.757C273.843,171.084 281.012,162.583 286.115,152.849C286.138,152.805 286.169,152.767 286.206,152.736C286.244,152.704 286.287,152.681 286.334,152.666C286.38,152.652 286.429,152.646 286.478,152.651C286.527,152.655 286.574,152.669 286.617,152.692C286.66,152.715 286.699,152.746 286.73,152.783C286.761,152.821 286.784,152.864 286.799,152.911C286.813,152.957 286.818,153.006 286.814,153.055C286.809,153.104 286.795,153.151 286.772,153.194C281.619,163.024 274.38,171.609 265.561,178.347C256.741,185.086 246.556,189.816 235.717,192.205C231.383,193.166 226.957,193.651 222.517,193.653Z" style="fill:rgb(230,230,230);fill-rule:nonzero;"/>
    </g>
    <g transform="matrix(1,0,0,1,-19.5,0)">
        <path d="M295.723,102.117C295.631,102.116 295.543,102.082 295.475,102.021C295.407,101.96 295.364,101.876 295.354,101.785C295.052,98.98 294.596,96.194 293.986,93.439C284.295,49.617 244.742,18.442 199.94,19.353C199.842,19.355 199.746,19.318 199.676,19.25C199.605,19.182 199.564,19.088 199.562,18.99C199.56,18.891 199.597,18.796 199.665,18.725C199.733,18.654 199.827,18.613 199.925,18.611C221.916,18.203 243.37,25.416 260.647,39.026C277.924,52.636 289.96,71.805 294.711,93.279C295.326,96.06 295.787,98.874 296.092,101.706C296.097,101.754 296.093,101.803 296.079,101.85C296.065,101.897 296.043,101.94 296.012,101.978C295.981,102.016 295.944,102.048 295.901,102.071C295.858,102.094 295.811,102.109 295.763,102.114C295.749,102.116 295.736,102.117 295.723,102.117Z" style="fill:rgb(230,230,230);fill-rule:nonzero;"/>
    </g>
    <g transform="matrix(1,0,0,1,-19.5,0)">
        <path d="M78.185,161.454C78.1,161.454 78.018,161.425 77.953,161.372C77.887,161.319 77.841,161.246 77.823,161.163C73.152,140.117 74.294,118.197 81.127,97.751C87.959,77.304 100.225,59.101 116.61,45.091C116.647,45.059 116.69,45.034 116.737,45.019C116.783,45.004 116.832,44.997 116.881,45.001C116.93,45.005 116.977,45.018 117.021,45.04C117.065,45.062 117.103,45.092 117.135,45.13C117.167,45.167 117.191,45.21 117.206,45.256C117.222,45.303 117.227,45.352 117.223,45.401C117.22,45.449 117.206,45.497 117.184,45.541C117.161,45.584 117.131,45.623 117.093,45.654C100.81,59.577 88.621,77.667 81.831,97.986C75.041,118.305 73.906,140.088 78.547,161.003C78.559,161.057 78.559,161.114 78.546,161.168C78.534,161.222 78.509,161.272 78.474,161.316C78.44,161.359 78.395,161.394 78.345,161.418C78.295,161.442 78.24,161.454 78.185,161.454Z" style="fill:rgb(230,230,230);fill-rule:nonzero;"/>
    </g>
    <g transform="matrix(1,0,0,1,-19.5,0)">
        <path d="M192.663,60L125.337,60C123.392,59.998 121.527,59.33 120.151,58.142C118.776,56.955 118.002,55.344 118,53.665L118,6.335C118.002,4.656 118.776,3.045 120.151,1.858C121.527,0.67 123.392,0.002 125.337,0L192.663,0C194.608,0.002 196.473,0.67 197.849,1.858C199.224,3.045 199.998,4.656 200,6.335L200,53.665C199.998,55.344 199.224,56.955 197.849,58.142C196.473,59.33 194.608,59.998 192.663,60ZM125.337,0.745C123.621,0.747 121.975,1.337 120.761,2.384C119.548,3.432 118.865,4.853 118.863,6.335L118.863,53.665C118.865,55.147 119.548,56.568 120.761,57.615C121.975,58.664 123.621,59.253 125.337,59.255L192.663,59.255C194.379,59.253 196.025,58.664 197.239,57.615C198.452,56.568 199.135,55.147 199.137,53.665L199.137,6.335C199.135,4.853 198.452,3.432 197.239,2.384C196.025,1.337 194.379,0.747 192.663,0.745L125.337,0.745Z" style="fill:rgb(63,61,86);fill-rule:nonzero;"/>
    </g>
    <g transform="matrix(1,0,0,1,-19.5,0)">
        <path d="M184.875,14L151.189,14C150.893,14.005 150.606,13.91 150.385,13.735C150.165,13.559 150.028,13.316 150.002,13.054C149.993,12.918 150.016,12.782 150.069,12.655C150.122,12.527 150.203,12.411 150.309,12.312C150.414,12.214 150.54,12.135 150.681,12.081C150.821,12.028 150.973,12 151.126,12L185.416,12C186.545,12.882 185.857,14 184.875,14Z" style="fill:rgb(204,204,204);fill-rule:nonzero;"/>
    </g>
    <g transform="matrix(1,0,0,1,-19.5,0)">
        <path d="M184.875,19L151.189,19C150.893,19.005 150.606,18.91 150.385,18.735C150.165,18.559 150.028,18.316 150.002,18.054C149.993,17.918 150.016,17.782 150.069,17.655C150.122,17.527 150.203,17.411 150.309,17.312C150.414,17.214 150.54,17.135 150.681,17.081C150.821,17.028 150.973,17 151.126,17L185.416,17C186.545,17.882 185.857,19 184.875,19Z" style="fill:rgb(204,204,204);fill-rule:nonzero;"/>
    </g>
    <g transform="matrix(1,0,0,1,-19.5,0)">
        <path d="M143.715,22L133.285,22C132.944,22 132.617,21.881 132.377,21.671C132.136,21.461 132,21.175 132,20.878L132,10.122C132,9.825 132.136,9.539 132.377,9.329C132.617,9.119 132.944,9 133.285,9L143.715,9C144.056,9 144.382,9.119 144.623,9.329C144.864,9.54 145,9.825 145,10.122L145,20.878C145,21.175 144.864,21.461 144.623,21.671C144.383,21.881 144.056,22 143.715,22Z" style="fill:rgb(0,99,153);fill-rule:nonzero;"/>
    </g>
    <g transform="matrix(1,0,0,1,-19.5,0)">
        <path d="M184.869,30L133.195,30C132.898,30.005 132.609,29.91 132.387,29.735C132.166,29.559 132.028,29.316 132.002,29.054C131.993,28.918 132.016,28.782 132.07,28.655C132.123,28.527 132.204,28.411 132.31,28.312C132.416,28.214 132.543,28.135 132.684,28.081C132.826,28.028 132.978,28 133.131,28L185.413,28C186.548,28.882 185.856,30 184.869,30Z" style="fill:rgb(204,204,204);fill-rule:nonzero;"/>
    </g>
    <g transform="matrix(1,0,0,1,-19.5,0)">
        <path d="M184.869,35L133.195,35C132.898,35.005 132.609,34.91 132.387,34.735C132.166,34.559 132.028,34.316 132.002,34.054C131.993,33.918 132.016,33.782 132.07,33.655C132.123,33.527 132.204,33.411 132.31,33.312C132.416,33.214 132.543,33.135 132.684,33.081C132.826,33.028 132.978,33 133.131,33L185.413,33C186.548,33.882 185.856,35 184.869,35Z" style="fill:rgb(204,204,204);fill-rule:nonzero;"/>
    </g>
    <g transform="matrix(1,0,0,1,-19.5,0)">
        <path d="M184.869,40L133.195,40C132.898,40.005 132.609,39.91 132.387,39.735C132.166,39.559 132.028,39.316 132.002,39.054C131.993,38.918 132.016,38.782 132.07,38.655C132.123,38.527 132.204,38.411 132.31,38.312C132.416,38.214 132.543,38.135 132.684,38.081C132.826,38.028 132.978,38 133.131,38L185.413,38C186.548,38.882 185.856,40 184.869,40Z" style="fill:rgb(204,204,204);fill-rule:nonzero;"/>
    </g>
    <g transform="matrix(1,0,0,1,-19.5,0)">
        <path d="M184.869,45L133.195,45C132.898,45.005 132.609,44.91 132.387,44.735C132.166,44.559 132.028,44.316 132.002,44.054C131.993,43.918 132.016,43.782 132.07,43.655C132.123,43.527 132.204,43.411 132.31,43.312C132.416,43.214 132.543,43.135 132.684,43.081C132.826,43.028 132.978,43 133.131,43L185.413,43C186.548,43.882 185.856,45 184.869,45Z" style="fill:rgb(204,204,204);fill-rule:nonzero;"/>
    </g>
    <g transform="matrix(1,0,0,1,-19.5,0)">
        <path d="M184.869,50L133.195,50C132.898,50.005 132.609,49.91 132.387,49.735C132.166,49.559 132.028,49.316 132.002,49.054C131.993,48.918 132.016,48.782 132.07,48.655C132.123,48.527 132.204,48.411 132.31,48.312C132.416,48.214 132.543,48.135 132.684,48.081C132.826,48.028 132.978,48 133.131,48L185.413,48C186.548,48.882 185.856,50 184.869,50Z" style="fill:rgb(204,204,204);fill-rule:nonzero;"/>
    </g>
    <g transform="matrix(1,0,0,1,-19.5,0)">
        <path d="M319.993,153L269.007,153C267.415,152.998 265.888,152.383 264.761,151.289C263.635,150.194 263.002,148.711 263,147.164L263,106.836C263.002,105.289 263.635,103.806 264.761,102.711C265.888,101.617 267.415,101.002 269.007,101L319.993,101C321.585,101.002 323.112,101.617 324.238,102.711C325.365,103.806 325.998,105.289 326,106.836L326,147.164C325.998,148.711 325.365,150.194 324.238,151.289C323.112,152.383 321.585,152.998 319.993,153ZM269.007,101.877C267.654,101.878 266.356,102.401 265.399,103.331C264.442,104.261 263.904,105.521 263.902,106.836L263.902,147.164C263.904,148.479 264.442,149.739 265.399,150.669C266.356,151.599 267.654,152.122 269.007,152.123L319.993,152.123C321.346,152.122 322.644,151.599 323.601,150.669C324.558,149.739 325.096,148.479 325.098,147.164L325.098,106.836C325.096,105.521 324.558,104.261 323.601,103.331C322.644,102.401 321.346,101.878 319.993,101.877L269.007,101.877Z" style="fill:rgb(63,61,86);fill-rule:nonzero;"/>
    </g>
    <g transform="matrix(1,0,0,1,-19.5,0)">
        <path d="M314.156,114L288.892,114C288.67,114.005 288.454,113.91 288.289,113.735C288.124,113.559 288.021,113.316 288.001,113.054C287.995,112.918 288.012,112.782 288.052,112.655C288.091,112.527 288.153,112.411 288.231,112.312C288.31,112.214 288.405,112.135 288.511,112.081C288.616,112.028 288.729,112 288.844,112L314.562,112C315.409,112.882 314.893,114 314.156,114Z" style="fill:rgb(204,204,204);fill-rule:nonzero;"/>
    </g>
    <g transform="matrix(1,0,0,1,-19.5,0)">
        <path d="M314.156,120L288.892,120C288.67,120.005 288.454,119.91 288.289,119.735C288.124,119.559 288.021,119.316 288.001,119.054C287.995,118.918 288.012,118.782 288.052,118.655C288.091,118.527 288.153,118.411 288.231,118.312C288.31,118.214 288.405,118.135 288.511,118.081C288.616,118.028 288.729,118 288.844,118L314.562,118C315.409,118.882 314.893,120 314.156,120Z" style="fill:rgb(204,204,204);fill-rule:nonzero;"/>
    </g>
    <g transform="matrix(1,0,0,1,-19.5,0)">
        <path d="M282.111,121L274.889,121C274.654,121 274.427,120.918 274.261,120.772C274.094,120.627 274,120.429 274,120.223L274,112.777C274,112.571 274.094,112.373 274.261,112.228C274.427,112.082 274.654,112 274.889,112L282.111,112C282.346,112 282.572,112.082 282.739,112.228C282.906,112.374 283,112.571 283,112.777L283,120.223C283,120.429 282.906,120.627 282.739,120.772C282.573,120.918 282.346,121 282.111,121Z" style="fill:rgb(0,99,153);fill-rule:nonzero;"/>
    </g>
    <g transform="matrix(1,0,0,1,-19.5,0)">
        <path d="M314.12,132L273.93,132C273.698,132.005 273.474,131.91 273.301,131.735C273.129,131.559 273.022,131.316 273.001,131.054C272.995,130.918 273.013,130.782 273.054,130.655C273.095,130.527 273.159,130.411 273.241,130.312C273.323,130.214 273.422,130.135 273.532,130.081C273.642,130.028 273.76,130 273.88,130L314.543,130C315.426,130.882 314.888,132 314.12,132Z" style="fill:rgb(204,204,204);fill-rule:nonzero;"/>
    </g>
    <g transform="matrix(1,0,0,1,-19.5,0)">
        <path d="M314.12,128L273.93,128C273.698,128.005 273.474,127.91 273.301,127.735C273.129,127.559 273.022,127.316 273.001,127.054C272.995,126.918 273.013,126.782 273.054,126.655C273.095,126.527 273.159,126.411 273.241,126.312C273.323,126.214 273.422,126.135 273.532,126.081C273.642,126.028 273.76,126 273.88,126L314.543,126C315.426,126.882 314.888,128 314.12,128Z" style="fill:rgb(204,204,204);fill-rule:nonzero;"/>
    </g>
    <g transform="matrix(1,0,0,1,-19.5,0)">
        <path d="M314.12,136L273.93,136C273.698,136.005 273.474,135.91 273.301,135.735C273.129,135.559 273.022,135.316 273.001,135.054C272.995,134.918 273.013,134.782 273.054,134.655C273.095,134.527 273.159,134.411 273.241,134.312C273.323,134.214 273.422,134.135 273.532,134.081C273.642,134.028 273.76,134 273.88,134L314.543,134C315.426,134.882 314.888,136 314.12,136Z" style="fill:rgb(204,204,204);fill-rule:nonzero;"/>
    </g>
    <g transform="matrix(1,0,0,1,-19.5,0)">
        <path d="M314.12,140L273.93,140C273.698,140.005 273.474,139.91 273.301,139.735C273.129,139.559 273.022,139.316 273.001,139.054C272.995,138.918 273.013,138.782 273.054,138.655C273.095,138.527 273.159,138.411 273.241,138.312C273.323,138.214 273.422,138.135 273.532,138.081C273.642,138.028 273.76,138 273.88,138L314.543,138C315.426,138.882 314.888,140 314.12,140Z" style="fill:rgb(204,204,204);fill-rule:nonzero;"/>
    </g>
    <g transform="matrix(1,0,0,1,-19.5,0)">
        <path d="M314.12,144L273.93,144C273.698,144.005 273.474,143.91 273.301,143.735C273.129,143.559 273.022,143.316 273.001,143.054C272.995,142.918 273.013,142.782 273.054,142.655C273.095,142.527 273.159,142.411 273.241,142.312C273.323,142.214 273.422,142.135 273.532,142.081C273.642,142.028 273.76,142 273.88,142L314.543,142C315.426,142.882 314.888,144 314.12,144Z" style="fill:rgb(204,204,204);fill-rule:nonzero;"/>
    </g>
    <g transform="matrix(1,0,0,1,-19.5,0)">
        <path d="M213.854,140.179L187.268,140.179C186.402,140.178 185.571,139.833 184.958,139.22C184.346,138.608 184.001,137.777 184,136.911L184,115.268C184.001,114.402 184.346,113.571 184.958,112.958C185.571,112.346 186.402,112.001 187.268,112L213.854,112C214.72,112.001 215.551,112.346 216.164,112.958C216.777,113.571 217.121,114.402 217.122,115.268L217.122,136.911C217.121,137.777 216.777,138.608 216.164,139.22C215.551,139.833 214.72,140.178 213.854,140.179ZM187.268,112.742C186.599,112.743 185.956,113.009 185.483,113.483C185.009,113.956 184.743,114.598 184.742,115.268L184.742,136.911C184.743,137.58 185.009,138.222 185.483,138.696C185.956,139.169 186.599,139.436 187.268,139.436L213.854,139.436C214.524,139.436 215.166,139.169 215.639,138.696C216.113,138.222 216.379,137.58 216.38,136.911L216.38,115.268C216.379,114.598 216.113,113.956 215.639,113.483C215.166,113.009 214.524,112.743 213.854,112.742L187.268,112.742Z" style="fill:rgb(63,61,86);fill-rule:nonzero;"/>
    </g>
    <g transform="matrix(1,0,0,1,-19.5,0)">
        <path d="M209.653,128.409L191.47,128.409C191.027,128.409 190.602,128.233 190.289,127.92C189.976,127.607 189.8,127.182 189.8,126.739C189.8,126.296 189.976,125.872 190.289,125.558C190.602,125.245 191.027,125.069 191.47,125.069L209.653,125.069C210.096,125.069 210.521,125.245 210.834,125.558C211.147,125.872 211.323,126.296 211.323,126.739C211.323,127.182 211.147,127.607 210.834,127.92C210.521,128.233 210.096,128.409 209.653,128.409Z" style="fill:rgb(0,99,153);fill-rule:nonzero;"/>
    </g>
    <g transform="matrix(1,0,0,1,-19.5,0)">
        <path d="M205.942,121.544L195.181,121.544C194.738,121.544 194.313,121.368 194,121.055C193.687,120.742 193.511,120.317 193.511,119.874C193.511,119.431 193.687,119.006 194,118.693C194.313,118.38 194.738,118.204 195.181,118.204L205.942,118.204C206.385,118.204 206.81,118.38 207.123,118.693C207.436,119.006 207.612,119.431 207.612,119.874C207.612,120.317 207.436,120.742 207.123,121.055C206.81,121.368 206.385,121.544 205.942,121.544Z" style="fill:rgb(0,99,153);fill-rule:nonzero;"/>
    </g>
    <g transform="matrix(1,0,0,1,-19.5,0)">
        <path d="M209.653,133.974L191.47,133.974C191.027,133.974 190.602,133.799 190.289,133.485C189.976,133.172 189.8,132.747 189.8,132.305C189.8,131.862 189.976,131.437 190.289,131.124C190.602,130.811 191.027,130.635 191.47,130.635L209.653,130.635C210.096,130.635 210.521,130.811 210.834,131.124C211.147,131.437 211.323,131.862 211.323,132.305C211.323,132.747 211.147,133.172 210.834,133.485C210.521,133.799 210.096,133.974 209.653,133.974Z" style="fill:rgb(0,99,153);fill-rule:nonzero;"/>
    </g>
    <g transform="matrix(1,0,0,1,-19.5,0)">
        <path d="M66.404,229.804C66.147,229.323 65.999,228.791 65.97,228.246C65.941,227.702 66.032,227.157 66.236,226.651C66.441,226.146 66.753,225.691 67.152,225.319C67.551,224.947 68.027,224.667 68.546,224.499L68.82,211.241L74.493,215.153L73.364,227.143C73.588,228.033 73.478,228.975 73.055,229.79C72.632,230.605 71.924,231.236 71.066,231.565C70.208,231.893 69.26,231.895 68.4,231.57C67.541,231.246 66.831,230.618 66.404,229.804Z" style="fill:rgb(160,97,106);fill-rule:nonzero;"/>
    </g>
    <g transform="matrix(1,0,0,1,-19.5,0)">
        <path d="M72.677,178.755L67.124,220.507L73.809,220.759L79.396,176.93L78.055,176.139C77.545,175.838 76.969,175.668 76.377,175.644C75.785,175.621 75.196,175.744 74.664,176.003C74.131,176.262 73.671,176.649 73.324,177.129C72.978,177.61 72.755,178.168 72.677,178.755Z" style="fill:rgb(0,99,153);fill-rule:nonzero;"/>
    </g>
    <g transform="matrix(1,0,0,1,-19.5,0)">
        <path d="M90.402,290.643L94.951,290.642L97.115,273.095L90.4,273.095L90.402,290.643Z" style="fill:rgb(160,97,106);fill-rule:nonzero;"/>
    </g>
    <g transform="matrix(1,0,0,1,-19.5,0)">
        <path d="M103.725,294.866L89.426,294.867L89.426,289.343L98.2,289.342C99.665,289.342 101.07,289.924 102.106,290.96C103.142,291.996 103.725,293.401 103.725,294.866Z" style="fill:rgb(47,46,65);fill-rule:nonzero;"/>
    </g>
    <g transform="matrix(1,0,0,1,-19.5,0)">
        <path d="M52.549,285.205L56.677,287.116L66.014,272.102L59.921,269.281L52.549,285.205Z" style="fill:rgb(160,97,106);fill-rule:nonzero;"/>
    </g>
    <g transform="matrix(1,0,0,1,-19.5,0)">
        <path d="M62.864,294.636L49.889,288.629L52.21,283.616L60.172,287.302C61.501,287.917 62.532,289.036 63.037,290.411C63.542,291.787 63.48,293.306 62.864,294.636Z" style="fill:rgb(47,46,65);fill-rule:nonzero;"/>
    </g>
    <g transform="matrix(1,0,0,1,-19.5,0)">
        <path d="M95.17,286.934C95.103,286.934 95.037,286.93 94.971,286.923L91.371,286.499C90.993,286.453 90.641,286.279 90.374,286.007C90.108,285.734 89.942,285.379 89.904,284.999L85.583,239.676C85.572,239.557 85.523,239.446 85.444,239.357C85.364,239.268 85.259,239.208 85.142,239.183C85.026,239.159 84.905,239.173 84.796,239.223C84.688,239.272 84.599,239.355 84.542,239.46L60.502,283.012C60.321,283.341 60.034,283.6 59.687,283.746C59.341,283.891 58.955,283.915 58.593,283.813L54.55,282.69C54.331,282.63 54.128,282.526 53.951,282.384C53.774,282.242 53.628,282.066 53.522,281.866C53.415,281.666 53.351,281.447 53.332,281.221C53.313,280.995 53.34,280.768 53.412,280.553C56.934,270.017 74.577,217.21 76.085,212.35C77.888,206.542 91.343,204.254 92.502,204.067L93.168,203.401L93.296,203.574C99.235,211.568 102.109,222.156 101.388,233.387L101.388,233.391L96.829,285.41C96.793,285.825 96.602,286.212 96.295,286.494C95.988,286.776 95.587,286.933 95.17,286.934Z" style="fill:rgb(47,46,65);fill-rule:nonzero;"/>
    </g>
    <g transform="matrix(1,0,0,1,-19.5,0)">
        <path d="M76.208,169.248C81.242,169.248 85.323,165.167 85.323,160.134C85.323,155.1 81.242,151.02 76.208,151.02C71.174,151.02 67.094,155.1 67.094,160.134C67.094,165.167 71.174,169.248 76.208,169.248Z" style="fill:rgb(160,97,106);fill-rule:nonzero;"/>
    </g>
    <g transform="matrix(1,0,0,1,-19.5,0)">
        <path d="M76.673,210.954L71.265,182.766C70.812,180.385 71.282,177.921 72.578,175.873C73.874,173.825 75.901,172.346 78.247,171.736C79.696,171.359 81.221,171.384 82.658,171.809C84.094,172.235 85.388,173.043 86.399,174.149C89.159,177.162 92.666,181.547 93.694,185.327C94.565,188.535 97.016,200.558 97.041,200.679L97.06,200.774L96.992,200.845C96.979,200.858 95.666,202.215 93.623,203.909C92.423,204.903 91.197,205.825 89.979,206.651C86.558,208.961 77.251,210.838 76.856,210.917L76.673,210.954Z" style="fill:rgb(0,99,153);fill-rule:nonzero;"/>
    </g>
    <g transform="matrix(1,0,0,1,-19.5,0)">
        <path d="M89.875,206.498C91.234,205.577 92.466,204.627 93.505,203.766C93.13,198.222 84.962,186.615 81.652,186.615C81.652,186.615 80.869,204.505 89.875,206.498Z" style="fill-opacity:0.2;fill-rule:nonzero;"/>
    </g>
    <g transform="matrix(1,0,0,1,-19.5,0)">
        <path d="M106.687,221.058C106.174,220.872 105.708,220.576 105.322,220.19C104.936,219.805 104.639,219.339 104.453,218.827C104.266,218.314 104.194,217.767 104.242,217.223C104.289,216.68 104.456,216.154 104.729,215.681L96.061,205.646L102.894,204.757L110.078,214.423C110.841,214.934 111.39,215.708 111.62,216.597C111.851,217.486 111.748,218.428 111.33,219.246C110.912,220.064 110.208,220.7 109.353,221.034C108.497,221.368 107.549,221.376 106.687,221.058Z" style="fill:rgb(160,97,106);fill-rule:nonzero;"/>
    </g>
    <g transform="matrix(1,0,0,1,-19.5,0)">
        <path d="M82.453,172.338C82.83,172.346 83.206,172.389 83.576,172.467C84.324,172.638 85.018,172.992 85.595,173.497C86.173,174.002 86.616,174.642 86.885,175.361L97.602,197.748L109.105,209.993L103.353,214.632L85.17,198.304L77.905,178.533C77.673,177.819 77.615,177.06 77.734,176.319C77.853,175.577 78.147,174.875 78.591,174.27C79.036,173.665 79.618,173.174 80.289,172.838C80.96,172.502 81.702,172.331 82.453,172.338Z" style="fill:rgb(0,99,153);fill-rule:nonzero;"/>
    </g>
    <g transform="matrix(1,0,0,1,-19.5,0)">
        <path d="M75.669,169.163C74.372,167.222 73.348,164.529 74.776,162.682C76.186,160.859 78.966,161.127 81.126,160.32C84.133,159.196 85.877,155.663 85.333,152.5C84.789,149.336 82.249,146.713 79.223,145.64C76.198,144.567 72.786,144.916 69.822,146.151C66.175,147.673 63.046,150.616 61.734,154.343C60.422,158.071 61.123,162.547 63.845,165.412C66.763,168.484 71.343,169.303 75.58,169.253" style="fill:rgb(47,46,65);fill-rule:nonzero;"/>
    </g>
    <g transform="matrix(1,0,0,1,-19.5,0)">
        <path d="M61.356,158.417C60.984,160.492 58.709,161.67 56.617,161.929C54.525,162.188 52.361,161.856 50.325,162.4C46.735,163.359 44.367,166.812 43.064,170.291C41.76,173.771 41.182,177.527 39.489,180.834C37.796,184.142 34.513,187.058 30.81,186.748C31.535,188.575 32.806,190.133 34.45,191.21C36.094,192.287 38.029,192.831 39.994,192.767C41.958,192.704 43.854,192.035 45.425,190.854C46.995,189.673 48.163,188.036 48.768,186.166C50.129,181.967 48.567,176.959 50.946,173.24C52.263,171.183 54.536,169.972 56.727,168.894C58.919,167.815 61.22,166.708 62.689,164.757C64.159,162.806 64.452,159.724 62.642,158.085" style="fill:rgb(47,46,65);fill-rule:nonzero;"/>
    </g>
    <g transform="matrix(1,0,0,1,-19.5,0)">
        <path d="M19.941,295.061L138.799,295.061C138.916,295.061 139.028,295.014 139.111,294.932C139.193,294.849 139.24,294.737 139.24,294.62C139.24,294.503 139.193,294.39 139.111,294.308C139.028,294.225 138.916,294.178 138.799,294.178L19.941,294.178C19.824,294.178 19.712,294.225 19.629,294.308C19.546,294.39 19.5,294.503 19.5,294.62C19.5,294.737 19.546,294.849 19.629,294.932C19.712,295.014 19.824,295.061 19.941,295.061Z" style="fill:rgb(203,203,203);fill-rule:nonzero;"/>
    </g>
    <g transform="matrix(1,0,0,1,-19.5,0)">
        <path d="M85.606,92.434C88.476,92.434 90.802,90.108 90.802,87.239C90.802,84.37 88.476,82.044 85.606,82.044C82.737,82.044 80.411,84.37 80.411,87.239C80.411,90.108 82.737,92.434 85.606,92.434Z" style="fill:rgb(230,230,230);fill-rule:nonzero;"/>
    </g>
    <g transform="matrix(1,0,0,1,-19.5,0)">
        <path d="M263.623,48.31C266.492,48.31 268.818,45.984 268.818,43.115C268.818,40.246 266.492,37.92 263.623,37.92C260.754,37.92 258.428,40.246 258.428,43.115C258.428,45.984 260.754,48.31 263.623,48.31Z" style="fill:rgb(230,230,230);fill-rule:nonzero;"/>
    </g>
    <g transform="matrix(1,0,0,1,-19.5,0)">
        <path d="M206.846,188.578C209.715,188.578 212.041,186.252 212.041,183.383C212.041,180.513 209.715,178.188 206.846,178.188C203.976,178.188 201.65,180.513 201.65,183.383C201.65,186.252 203.976,188.578 206.846,188.578Z" style="fill:rgb(230,230,230);fill-rule:nonzero;"/>
    </g>
</svg>
