<svg width="261" height="160" viewBox="0 0 261 160" fill="none" xmlns="http://www.w3.org/2000/svg">
<g clip-path="url(#clip0_69597_227563)">
<path d="M55.1878 159.645L45.2357 157.028L10.1778 136.873C5.30494 134.071 5.26577 127.054 10.1073 124.198L47.3588 102.231C50.469 100.397 54.4775 101.405 56.3472 104.495L65.5654 119.709L55.1851 159.645H55.1878Z" fill="#94989E"/>
<path d="M54.4592 26.0144L98.3489 0.676069C99.7408 -0.12824 100.994 -0.188302 101.895 0.354868C101.924 0.370536 101.953 0.386204 101.981 0.404484C102.01 0.420152 102.039 0.435821 102.068 0.454101C102.096 0.469769 102.125 0.485437 102.154 0.503717C102.182 0.519385 102.211 0.535054 102.24 0.553333C102.269 0.569002 102.297 0.58467 102.326 0.60295C102.355 0.618618 102.383 0.634287 102.412 0.652566C102.441 0.668235 102.47 0.683903 102.498 0.702183C102.527 0.717851 102.556 0.73352 102.585 0.751799C102.613 0.767468 102.642 0.783136 102.671 0.801416C102.699 0.817084 102.728 0.832752 102.757 0.851032C102.786 0.866701 102.814 0.882369 102.843 0.900649C102.872 0.916317 102.901 0.931985 102.929 0.950265C102.958 0.965933 102.987 0.981602 103.015 0.999882C103.044 1.01555 103.073 1.03122 103.102 1.0495C103.13 1.06517 103.159 1.08083 103.188 1.09911C103.217 1.11478 103.245 1.13045 103.274 1.14873C103.303 1.1644 103.331 1.18007 103.36 1.19835C103.389 1.21402 103.418 1.22968 103.446 1.24796C103.475 1.26363 103.504 1.2793 103.532 1.29758C103.561 1.31325 103.59 1.32892 103.619 1.3472C103.647 1.36286 103.676 1.37853 103.705 1.39681C103.734 1.41248 103.762 1.42815 103.791 1.44643C103.82 1.4621 103.848 1.47777 103.877 1.49605C103.906 1.51171 103.935 1.52738 103.963 1.54566C103.992 1.56133 104.021 1.577 104.05 1.59528C104.078 1.61095 104.107 1.62662 104.136 1.6449C104.164 1.66056 104.193 1.67623 104.222 1.69451C104.251 1.71018 104.279 1.72585 104.308 1.74413C104.337 1.7598 104.366 1.77547 104.394 1.79374C104.423 1.80941 104.452 1.82508 104.48 1.84336C104.509 1.85903 104.538 1.8747 104.567 1.89298C104.595 1.90865 104.624 1.92431 104.653 1.94259C104.682 1.95826 104.71 1.97393 104.739 1.99221C104.768 2.00788 104.796 2.02355 104.825 2.04183C104.854 2.0575 104.883 2.07316 104.911 2.09144C104.94 2.10711 104.969 2.12278 104.997 2.14106C105.026 2.15673 105.055 2.1724 105.084 2.19068C105.112 2.20634 105.141 2.22201 105.17 2.24029C105.199 2.25596 105.227 2.27163 105.256 2.28991C105.285 2.30558 105.313 2.32125 105.342 2.33953C105.371 2.35519 105.4 2.37086 105.428 2.38914C105.457 2.40481 105.486 2.42048 105.515 2.43876C105.543 2.45443 105.572 2.4701 105.601 2.48837C105.629 2.50404 105.658 2.51971 105.687 2.53799C105.716 2.55366 105.744 2.56933 105.773 2.58761C105.802 2.60328 105.831 2.61894 105.859 2.63722C105.888 2.65289 105.917 2.66856 105.945 2.68684C106.859 3.16473 107.437 4.2824 107.437 5.89102V125.391C107.437 128.553 105.217 132.4 102.477 133.982L58.5878 159.321C57.1986 160.122 55.9425 160.185 55.0416 159.642C55.0128 159.626 54.9841 159.611 54.9554 159.592C54.9267 159.577 54.8979 159.561 54.8692 159.543C54.8405 159.527 54.8117 159.511 54.783 159.493C54.7543 159.477 54.7256 159.462 54.6968 159.443C54.6681 159.428 54.6394 159.412 54.6107 159.394C54.5819 159.378 54.5532 159.363 54.5245 159.344C54.4958 159.329 54.467 159.313 54.4383 159.295C54.4096 159.279 54.3809 159.263 54.3521 159.245C54.3234 159.229 54.2947 159.214 54.266 159.195C54.2372 159.18 54.2085 159.164 54.1798 159.146C54.1511 159.13 54.1223 159.114 54.0936 159.096C54.0649 159.08 54.0362 159.065 54.0074 159.047C53.9787 159.031 53.95 159.015 53.9213 158.997C53.8925 158.981 53.8638 158.966 53.8351 158.947C53.8064 158.932 53.7776 158.916 53.7489 158.898C53.7202 158.882 53.6915 158.866 53.6627 158.848C53.634 158.832 53.6053 158.817 53.5766 158.798C53.5478 158.783 53.5191 158.767 53.4904 158.749C53.4617 158.733 53.4329 158.718 53.4042 158.699C53.3755 158.684 53.3468 158.668 53.318 158.65C53.2893 158.634 53.2606 158.618 53.2319 158.6C53.2031 158.584 53.1744 158.569 53.1457 158.55C53.117 158.535 53.0882 158.519 53.0595 158.501C53.0308 158.485 53.0021 158.469 52.9733 158.451C52.9446 158.435 52.9159 158.42 52.8872 158.402C52.8584 158.386 52.8297 158.37 52.801 158.352C52.7723 158.336 52.7435 158.321 52.7148 158.302C52.6861 158.287 52.6573 158.271 52.6286 158.253C52.5999 158.237 52.5712 158.221 52.5424 158.203C52.5137 158.187 52.485 158.172 52.4563 158.153C52.4276 158.138 52.3988 158.122 52.3701 158.104C52.3414 158.088 52.3126 158.073 52.2839 158.054C52.2552 158.039 52.2265 158.023 52.1977 158.005C52.169 157.989 52.1403 157.973 52.1116 157.955C52.0828 157.939 52.0541 157.924 52.0254 157.905C51.9967 157.89 51.9679 157.874 51.9392 157.856C51.9105 157.84 51.8818 157.824 51.853 157.806C51.8243 157.79 51.7956 157.775 51.7669 157.757C51.7381 157.741 51.7094 157.725 51.6807 157.707C51.652 157.691 51.6232 157.676 51.5945 157.657C51.5658 157.642 51.5371 157.626 51.5083 157.608C51.4796 157.592 51.4509 157.576 51.4222 157.558C51.3934 157.542 51.3647 157.527 51.336 157.508C51.3073 157.493 51.2785 157.477 51.2498 157.459C51.2211 157.443 51.1924 157.427 51.1636 157.409C51.1349 157.394 51.1062 157.378 51.0775 157.36C51.0487 157.344 51.02 157.328 50.9913 157.31C50.0669 156.803 49.4897 155.686 49.4897 154.077V34.6059C49.4897 31.4435 51.7094 27.5969 54.4488 26.0144H54.4592Z" fill="#006685"/>
<path d="M58.5888 159.323L102.478 133.985C105.218 132.403 107.438 128.556 107.438 125.394V5.89115C107.438 2.72875 105.215 1.44656 102.476 3.02645L58.5862 28.3648C55.8468 29.9473 53.6245 33.7939 53.6245 36.9563V156.456C53.6245 159.619 55.8468 160.901 58.5862 159.321L58.5888 159.323Z" fill="#B4CAD6"/>
<path d="M102.475 132.619C104.559 131.415 106.254 128.48 106.254 126.075V6.57517C106.254 4.17008 104.557 3.19081 102.475 4.39466L58.5856 29.733C56.5017 30.9368 54.8069 33.8721 54.8069 36.2771V155.78C54.8069 158.185 56.5043 159.164 58.5856 157.96L102.475 132.619Z" fill="#006685"/>
<path d="M102.476 132.163C104.341 131.087 105.86 128.457 105.86 126.303V6.80264C105.86 4.64824 104.341 3.77081 102.476 4.84932L58.5863 30.1877C56.7218 31.2635 55.202 33.8932 55.202 36.0476V155.548C55.202 157.702 56.7218 158.579 58.5863 157.501L102.476 132.163Z" fill="#006685"/>
<path d="M101.755 130.76C103.152 129.953 104.285 127.992 104.285 126.378V8.54711C104.285 6.93327 103.152 6.28042 101.755 7.08734L59.3118 31.5926C57.9147 32.3996 56.7813 34.3607 56.7813 35.9746V153.806C56.7813 155.42 57.9147 156.072 59.3118 155.266L101.755 130.76Z" fill="#191919"/>
<path d="M74.6818 25.5993L86.2294 18.9324C87.2713 18.3318 88.2271 17.1123 88.7128 15.77L89.7939 12.7773L71.2661 23.4736L72.4177 25.3303C72.8617 26.0432 73.7313 26.1477 74.6792 25.5993H74.6818Z" fill="#006685"/>
<g style="mix-blend-mode:screen">
<path d="M102.719 4.46023C104.584 3.38434 106.104 4.25915 106.104 6.41355V125.913C106.104 127.441 105.338 129.206 104.229 130.491L68.4368 24.252L102.719 4.46023Z" fill="#333333"/>
</g>
</g>
<path d="M120.5 75.9998V83.9998H160.5V75.9998H120.5ZM140.5 39.9998C118.42 39.9998 100.5 57.9198 100.5 79.9998C100.5 102.08 118.42 120 140.5 120C162.58 120 180.5 102.08 180.5 79.9998C180.5 57.9198 162.58 39.9998 140.5 39.9998ZM140.5 112C122.86 112 108.5 97.6398 108.5 79.9998C108.5 62.3598 122.86 47.9998 140.5 47.9998C158.14 47.9998 172.5 62.3598 172.5 79.9998C172.5 97.6398 158.14 112 140.5 112Z" fill="#FF5354"/>
<g clip-path="url(#clip1_69597_227563)">
<path fill-rule="evenodd" clip-rule="evenodd" d="M196.838 127.445C179.527 127.445 165.5 134.74 165.5 143.723C165.5 152.705 179.54 160 196.838 160C214.136 160 228.176 152.705 228.176 143.723C228.176 134.74 214.136 127.445 196.838 127.445Z" fill="#D1CDCB"/>
<path fill-rule="evenodd" clip-rule="evenodd" d="M217.58 59.5179C219.356 66.2196 227.458 74.4468 228.896 77.4976C229.296 78.3603 233.047 76.4223 231.834 74.5593C229.871 71.5335 229.208 68.9579 227.595 61.9685C227.245 60.4431 224.294 55.4293 221.806 56.092C219.331 56.7671 217.167 57.2673 217.568 59.5179H217.58Z" fill="#DB9669"/>
<path fill-rule="evenodd" clip-rule="evenodd" d="M231.16 74.1717C232.36 74.2842 233.585 75.7971 233.998 76.5348C235.161 77.6226 236.136 81.5362 236.249 81.7862C236.424 82.2363 235.536 82.1363 235.661 82.5739C235.373 82.7115 234.911 81.6487 234.198 82.799C233.685 82.6489 233.473 81.2236 232.773 82.824C232.385 82.3364 232.247 82.2613 231.972 81.8487C231.322 81.9488 231.51 82.5614 231.222 82.2363C230.034 81.6862 228.471 79.2355 228.559 78.3478L228.284 76.2223C228.509 73.6591 229.734 73.384 231.147 74.1717H231.16Z" fill="#DB9669"/>
<path fill-rule="evenodd" clip-rule="evenodd" d="M233.748 75.0597C234.398 75.4348 235.049 76.0349 235.586 76.56C236.274 77.2227 236.512 77.7729 237.199 78.4355C236.599 78.9357 235.911 78.9107 234.761 77.5603C234.311 77.1727 233.936 76.8851 233.548 76.8101C232.648 76.6101 231.373 77.1227 231.11 75.3722C230.998 74.597 231.523 73.7718 233.736 75.0597H233.748Z" fill="#F2B387"/>
<path d="M243.336 91.6639C243.411 91.6639 243.487 91.6639 243.562 91.6389C244.087 91.5139 244.412 90.9888 244.287 90.4636C242.361 82.2614 236.872 78.698 232.259 78.848C227.932 78.9606 224.569 82.1989 223.694 87.1002C223.594 87.6254 223.956 88.138 224.481 88.2255C225.019 88.313 225.519 87.9629 225.619 87.4378C226.332 83.4368 228.908 80.8861 232.321 80.7861C236.135 80.661 240.723 83.7743 242.399 90.9012C242.499 91.3513 242.899 91.6514 243.349 91.6514L243.336 91.6639Z" fill="#47471D"/>
<path fill-rule="evenodd" clip-rule="evenodd" d="M248.577 115.833C246.501 114.957 243.713 121.784 241.537 121.172C229.834 117.846 217.356 106.98 211.855 96.3276C209.116 91.0137 211.217 85.1746 222.782 82.699C231.485 80.836 245.338 87.7378 249.402 95.7524C254.316 105.442 255.028 118.571 248.564 115.845L248.577 115.833Z" fill="#575727"/>
<path fill-rule="evenodd" clip-rule="evenodd" d="M241.025 121.234C226.759 118.921 216.218 113.52 208.129 101.879C204.715 96.9654 210.529 84.9497 219.482 84.5121C225.346 84.2245 240.1 91.1139 243.313 98.7784C246.739 106.956 244.888 121.859 241.025 121.234Z" fill="#70702B"/>
<path fill-rule="evenodd" clip-rule="evenodd" d="M247.438 103.78C243.925 89.9009 232.384 83.0616 220.156 83.3617C234.297 82.2489 244.025 88.9382 249.326 103.442C248.701 103.555 248.063 103.667 247.438 103.78Z" fill="#70702B"/>
<path d="M237.936 98.8283C238.361 98.8283 238.736 98.5157 238.811 98.0906C241.349 82.6616 236.535 79.5357 234.347 78.8981C229.908 77.6227 224.257 82.1239 221.194 89.3633C221.006 89.8134 221.219 90.3386 221.669 90.5261C222.119 90.7137 222.644 90.5011 222.832 90.051C225.445 83.8369 230.409 79.5982 233.859 80.5985C237.473 81.6363 238.673 88.063 237.073 97.7906C236.998 98.2782 237.323 98.7283 237.798 98.8033C237.848 98.8033 237.898 98.8033 237.948 98.8033L237.936 98.8283Z" fill="#47471D"/>
<path fill-rule="evenodd" clip-rule="evenodd" d="M238.273 101.467C230.02 99.0409 223.369 95.2649 218.067 90.3511C217.855 90.7262 217.642 91.1138 217.442 91.4889C223.544 96.6152 230.421 100.391 238.073 102.817C238.148 102.367 238.21 101.917 238.285 101.479L238.273 101.467Z" fill="#47471D"/>
<path fill-rule="evenodd" clip-rule="evenodd" d="M178.308 35.5491C178.308 27.622 192.249 19.945 196.363 22.2331L206.266 27.9096L197.926 58.7928V64.4568L191.062 67.3075L188.711 79.3107C185.56 79.1231 181.997 76.4974 180.096 74.7095C179.146 73.8217 178.308 72.9715 178.308 71.6712V35.5366V35.5491Z" fill="#4F498F"/>
<path fill-rule="evenodd" clip-rule="evenodd" d="M189.862 73.4841L188.725 79.3106C185.574 79.1231 182.023 76.4974 180.11 74.7094C179.159 73.8217 178.322 72.9714 178.322 71.6711V67.9326C181.698 70.4958 186.549 73.9217 189.237 73.5841C189.437 73.5591 189.65 73.5216 189.862 73.4841Z" fill="#A25E33"/>
<path fill-rule="evenodd" clip-rule="evenodd" d="M178.394 34.4737C179.544 26.9467 192.435 20.0449 196.374 22.233L206.276 27.9095C201.388 46.0392 181.182 39.7751 178.394 34.4737Z" fill="#635DA5"/>
<path fill-rule="evenodd" clip-rule="evenodd" d="M187.986 40.8881C187.986 31.1105 207.604 22.0707 207.604 30.8105V68.4579C207.604 69.3331 207.203 70.0958 206.478 70.596C201.714 73.8843 196.363 76.9351 189.236 79.2357C188.936 79.3358 188.649 79.3608 188.386 79.2107C188.123 79.0482 187.973 78.7856 187.973 78.473V40.8881H187.986Z" fill="#56321A"/>
<path fill-rule="evenodd" clip-rule="evenodd" d="M187.986 40.8881C187.986 31.1105 207.604 22.0707 207.604 30.8105V66.9325C207.466 67.0825 207.316 67.2326 207.166 67.3701C200.602 73.1341 194.037 76.9101 187.986 75.9349V40.8881Z" fill="#423C82"/>
<path fill-rule="evenodd" clip-rule="evenodd" d="M207.616 64.7817V66.9198C206.716 71.2709 195.238 78.3228 187.999 75.9222V73.5215C188.449 73.6091 188.861 73.6341 189.236 73.5841C194.15 72.9589 202.115 68.1576 207.616 64.7817Z" fill="#56321A"/>
<path d="M184.91 53.8289C185.097 53.8289 185.247 53.6788 185.26 53.4913L185.335 38.9249C185.347 36.1117 187.398 32.8733 190.961 30.0226C194.75 26.9968 199.326 25.2088 201.852 25.7715C202.039 25.809 202.227 25.6965 202.264 25.5089C202.302 25.3214 202.189 25.1338 202.002 25.0963C199.238 24.4836 194.525 26.2966 190.536 29.485C186.81 32.4607 184.66 35.8991 184.647 38.9249L184.572 53.4913C184.572 53.6788 184.722 53.8414 184.91 53.8414V53.8289Z" fill="#333333"/>
<path fill-rule="evenodd" clip-rule="evenodd" d="M187.108 60.5557L178.206 55.8545L175.755 57.2048L177.893 62.6063V68.7329L184.12 72.2713L185.595 75.0846L187.721 73.9093C187.921 73.7967 188.046 73.5967 188.046 73.3716V62.1562C188.046 61.4685 187.708 60.8683 187.108 60.5432V60.5557Z" fill="#423C82"/>
<path fill-rule="evenodd" clip-rule="evenodd" d="M184.659 61.8936C181.408 60.6808 178.67 59.0929 176.369 57.1924C176.194 57.0549 175.944 57.0799 175.757 57.1924C175.557 57.3049 175.457 57.505 175.457 57.73V68.9955C175.457 69.6832 175.869 70.1583 176.394 70.6084C178.695 72.5339 181.608 73.9968 184.684 75.3097C184.896 75.3972 185.109 75.4222 185.297 75.3097C185.497 75.1971 185.597 74.9971 185.597 74.772V63.5066C185.597 62.8189 185.297 62.1312 184.659 61.8936Z" fill="#4F498F"/>
<path fill-rule="evenodd" clip-rule="evenodd" d="M188.91 61.2185C189.135 62.5063 187.135 63.8442 185.884 62.7439C185.672 61.9562 185.584 61.4685 185.372 60.6808C186.185 60.6433 186.997 60.6183 187.81 60.5808C188.223 60.8184 188.498 60.9809 188.91 61.2185Z" fill="#333333"/>
<path fill-rule="evenodd" clip-rule="evenodd" d="M188.097 59.7804C185.371 57.6549 179.27 55.0417 178.62 55.2793C175.169 56.5171 174.681 56.4796 174.881 61.1558C176.732 62.2186 179.47 64.8193 183.483 65.757C185.171 66.1571 184.684 62.2936 189.072 61.3559C188.922 60.7557 188.61 60.1806 188.11 59.7804H188.097Z" fill="#635DA5"/>
<path fill-rule="evenodd" clip-rule="evenodd" d="M180.297 62.7313C179.834 62.5437 179.347 62.3812 178.934 62.0686L178.784 62.1561C178.784 63.8941 178.871 65.7071 178.934 67.445C178.984 68.8079 180.259 69.7331 180.297 68.1077C180.334 66.4323 180.297 64.5318 180.297 62.7438V62.7313Z" fill="#56321A"/>
<path fill-rule="evenodd" clip-rule="evenodd" d="M180.157 62.8062C179.695 62.6187 179.207 62.4561 178.794 62.1436C178.794 63.9315 178.732 65.7195 178.794 67.5075C178.844 68.8703 180.12 69.7956 180.157 68.1701C180.195 66.4947 180.157 64.5942 180.157 62.8062Z" fill="#A25E33"/>
<path fill-rule="evenodd" clip-rule="evenodd" d="M187.108 44.1014L178.206 39.4001L175.755 40.7505L177.893 46.1519V52.2785L184.12 55.817L185.595 58.6302L187.721 57.4549C187.921 57.3424 188.046 57.1423 188.046 56.9173V45.7018C188.046 45.0141 187.708 44.414 187.108 44.0889V44.1014Z" fill="#423C82"/>
<path fill-rule="evenodd" clip-rule="evenodd" d="M184.659 45.4517C181.408 44.2389 178.67 42.651 176.369 40.7505C176.194 40.613 175.944 40.638 175.757 40.7505C175.557 40.863 175.457 41.0631 175.457 41.2881V52.5536C175.457 53.2413 175.869 53.7164 176.394 54.1665C178.695 56.0921 181.608 57.5549 184.684 58.8678C184.896 58.9553 185.109 58.9803 185.297 58.8678C185.497 58.7553 185.597 58.5552 185.597 58.3301V47.0647C185.597 46.377 185.297 45.6893 184.659 45.4517Z" fill="#4F498F"/>
<path fill-rule="evenodd" clip-rule="evenodd" d="M188.548 45.1892C188.773 46.477 186.772 47.8149 185.522 46.7146C185.31 45.9269 185.222 45.4392 185.01 44.6515C185.822 44.614 186.635 44.589 187.448 44.5515C187.86 44.7891 188.135 44.9516 188.548 45.1892Z" fill="#333333"/>
<path fill-rule="evenodd" clip-rule="evenodd" d="M187.722 43.7512C184.996 41.6256 178.895 39.0124 178.245 39.25C174.794 40.4878 174.306 40.4503 174.506 45.1265C176.357 46.1893 179.095 48.79 183.108 49.7277C184.796 50.1278 184.309 46.2643 188.697 45.3266C188.547 44.7264 188.235 44.1513 187.735 43.7512H187.722Z" fill="#635DA5"/>
<path fill-rule="evenodd" clip-rule="evenodd" d="M179.932 46.702C179.469 46.5144 178.981 46.3519 178.569 46.0393L178.419 46.1268C178.419 47.8648 178.506 49.6778 178.569 51.4157C178.619 52.7786 179.894 53.7038 179.932 52.0784C179.969 50.403 179.932 48.5025 179.932 46.7145V46.702Z" fill="#56321A"/>
<path fill-rule="evenodd" clip-rule="evenodd" d="M179.785 46.7769C179.322 46.5894 178.835 46.4268 178.422 46.1143C178.422 47.9022 178.36 49.6902 178.422 51.4782C178.472 52.841 179.748 53.7663 179.785 52.1408C179.823 50.4654 179.785 48.5649 179.785 46.7769Z" fill="#A25E33"/>
<path fill-rule="evenodd" clip-rule="evenodd" d="M195.563 23.821L197.426 23.7209L197.376 23.5084L193.675 22.8457L195.563 23.821Z" fill="#56321A"/>
<path fill-rule="evenodd" clip-rule="evenodd" d="M187.385 27.0344L185.497 29.21L183.784 28.2848L183.596 27.9972L185.684 26.0967L187.385 27.0344Z" fill="#56321A"/>
<path fill-rule="evenodd" clip-rule="evenodd" d="M187.109 26.8468L185.309 28.9223L183.596 27.9971L185.396 25.9465L187.109 26.8468Z" fill="#A25E33"/>
<path fill-rule="evenodd" clip-rule="evenodd" d="M195.512 23.6085L197.375 23.5085L195.575 22.5332L193.624 22.6332L195.512 23.6085Z" fill="#A25E33"/>
<path fill-rule="evenodd" clip-rule="evenodd" d="M193.886 22.8083C194.624 23.1834 195.099 23.421 195.824 23.8086C195.824 23.4335 195.887 22.9959 195.012 22.3457C194.386 21.8956 193.986 21.7331 193.036 21.6956C193.386 22.0707 193.761 22.0081 193.874 22.8083H193.886Z" fill="#56321A"/>
<path fill-rule="evenodd" clip-rule="evenodd" d="M193.636 22.8331C194.373 23.2082 194.861 23.4582 195.599 23.8333C195.599 23.4582 195.799 23.0706 194.886 22.4705C194.261 22.0203 193.323 21.8203 192.623 21.5327C192.973 21.9078 193.511 22.0328 193.636 22.8206V22.8331Z" fill="#3C3C3B"/>
<path fill-rule="evenodd" clip-rule="evenodd" d="M185.684 26.1342C186.247 26.4342 186.822 26.7343 187.384 27.0344C187.847 22.2331 192.811 21.2704 195.187 22.4957C194.574 22.1581 193.949 21.833 193.336 21.4954C191.723 20.3451 185.834 21.808 185.684 26.1217V26.1342Z" fill="#56321A"/>
<path fill-rule="evenodd" clip-rule="evenodd" d="M185.398 25.9466C185.961 26.2466 186.536 26.5467 187.098 26.8468C187.561 22.0455 193.025 20.7577 194.9 22.3081C194.363 21.8455 193.362 21.3954 192.537 21.0828C190.587 20.3451 185.548 21.6204 185.385 25.9466H185.398Z" fill="#A25E33"/>
<path fill-rule="evenodd" clip-rule="evenodd" d="M209.792 44.6766C212.255 54.0666 216.144 54.0041 217.544 58.7678C221.883 62.0187 223.859 59.3055 223.483 56.3672C221.595 51.841 222.446 45.3393 217.219 38.4124C216.244 31.8482 211.793 31.6482 209.255 32.986C206.717 34.3239 205.991 37.4747 209.792 44.6641V44.6766Z" fill="#DB9669"/>
<path fill-rule="evenodd" clip-rule="evenodd" d="M211.142 47.7523C214.355 46.827 218.043 46.0518 219.156 41.4381C218.043 39.2876 218.118 38.2248 217.856 36.8744C216.331 29.0599 211.329 28.7473 208.291 30.3602C201.752 33.8111 208.829 43.4136 211.129 47.7398L211.142 47.7523Z" fill="#A6847B"/>
<path fill-rule="evenodd" clip-rule="evenodd" d="M194.312 135.9C194.312 135.9 195.424 137.288 193.086 137.951C192.336 138.164 188.86 139.314 186.022 137.251C181.783 134.338 181.546 132.687 180.433 132.137C179.32 131.599 176.632 129.199 176.607 127.986C176.607 127.348 178.332 125.685 178.332 125.685C183.184 130.574 188.36 132.525 194.312 135.9Z" fill="#B89A92"/>
<path fill-rule="evenodd" clip-rule="evenodd" d="M186.861 127.773C188.686 130.099 189.449 131.812 190.937 133.462C191.5 134.05 194.463 135.2 194.313 135.888C194.013 137.313 188.924 138.239 187.048 136.651C185.273 135.15 183.535 131.937 181.672 131.012C178.696 129.536 177.308 127.311 177.508 126.648C177.896 125.348 179.509 124.373 180.522 124.21C179.897 125.585 180.334 127.061 181.672 127.811C183.372 128.761 186.061 128.249 186.861 127.786V127.773Z" fill="#2B3E78"/>
<path fill-rule="evenodd" clip-rule="evenodd" d="M186.235 130.524C188.261 129.411 188.948 130.474 188.948 130.474C188.923 130.324 188.898 130.199 188.873 130.074C188.811 129.711 188.623 129.424 188.323 129.224C188.023 129.024 187.685 128.961 187.323 129.036C187.023 129.111 186.673 129.224 186.285 129.424C185.16 129.999 184.597 131.424 186.223 130.536L186.235 130.524Z" fill="#B89A92"/>
<path fill-rule="evenodd" clip-rule="evenodd" d="M186.798 131.612C188.823 130.499 189.511 131.562 189.511 131.562C189.486 131.412 189.461 131.287 189.436 131.162C189.373 130.799 189.186 130.512 188.886 130.312C188.585 130.111 188.248 130.049 187.885 130.124C187.585 130.199 187.235 130.311 186.848 130.512C185.722 131.087 185.16 132.512 186.785 131.624L186.798 131.612Z" fill="#B89A92"/>
<path fill-rule="evenodd" clip-rule="evenodd" d="M187.486 132.75C189.374 131.412 190.174 132.387 190.174 132.387C190.124 132.237 190.086 132.112 190.049 131.987C189.949 131.637 189.736 131.374 189.411 131.199C189.086 131.037 188.748 131.012 188.398 131.124C188.098 131.224 187.773 131.387 187.411 131.624C186.36 132.325 185.96 133.812 187.473 132.737L187.486 132.75Z" fill="#B89A92"/>
<path fill-rule="evenodd" clip-rule="evenodd" d="M194.625 84.737C193.025 90.0634 194.775 98.7532 193.025 101.754C187.874 105.918 183.472 115.533 179.371 124.623C178.246 128.361 185.223 130.487 186.711 128.298C188.036 122.722 196.238 113.695 200.389 109.106C201.302 108.518 202.227 107.543 203.115 106.093C203.628 104.33 206.266 91.1637 207.529 87.8628C209.654 81.4986 196.651 74.2467 194.613 84.737H194.625Z" fill="#351536"/>
<path fill-rule="evenodd" clip-rule="evenodd" d="M220.356 135.413C218.481 135.288 216.468 132.975 216.993 130.199C214.93 131.974 214.117 132.212 212.067 133.975C213.555 136.876 214.03 138.801 215.518 141.702C218.894 141.677 219.231 139.301 220.356 135.413Z" fill="#DB9669"/>
<path fill-rule="evenodd" clip-rule="evenodd" d="M193.662 88.1754C197.65 90.2884 202.714 93.0392 209.253 90.0884C211.191 85.5622 212.892 78.3728 212.792 71.9336C207.29 72.2712 202.451 73.459 196.95 73.7966C193.349 82.0488 194.362 82.974 193.662 88.1754Z" fill="#351536"/>
<path fill-rule="evenodd" clip-rule="evenodd" d="M221.107 134.563C221.307 134.663 222.27 134.763 222.47 134.775C224.858 134.175 226.271 132.412 227.071 132.3C227.709 132.2 228.934 132.5 229.397 133.4C230.36 135.238 229.084 138.801 227.246 139.527C226.109 139.964 224.596 140.739 223.745 141.315C221.07 143.09 219.844 145.666 218.056 146.091C216.056 146.553 215.443 146.091 215.018 145.153C214.18 143.328 214.518 141.69 214.743 140.277C215.343 141.452 216.894 141.54 218.907 136.988C219.157 136.413 219.332 134.875 221.12 134.588L221.107 134.563Z" fill="#2B3E78"/>
<path fill-rule="evenodd" clip-rule="evenodd" d="M229.121 133.025C229.121 133.025 230.734 133.5 230.358 136.151C230.196 137.288 229.271 139.376 225.632 141.677C221.981 143.978 220.918 146.278 220.131 147.116C219.343 147.954 216.617 148.841 215.705 147.629C215.217 146.978 215.279 145.616 215.279 145.616C216.592 145.353 216.98 143.603 217.943 142.202C218.355 141.614 220.156 140.402 220.481 139.889C223.094 135.8 225.97 132.199 229.121 133V133.025Z" fill="#B89A92"/>
<path fill-rule="evenodd" clip-rule="evenodd" d="M229.058 133.763C229.058 133.763 230.708 133.613 230.345 136.151C230.195 137.239 229.183 139.852 225.707 142.052C222.218 144.253 221.143 146.378 220.455 147.254C219.693 148.204 216.879 149.092 216.017 147.929C214.941 146.891 219.13 143.94 220.405 141.952C222.893 138.039 226.069 133 229.07 133.763H229.058Z" fill="#878787"/>
<path fill-rule="evenodd" clip-rule="evenodd" d="M220.046 136.001C220.471 134.913 221.221 134.625 221.646 134.538C221.459 134.5 221.296 134.475 221.221 134.438C219.921 134.65 219.421 135.501 219.146 136.201C219.246 136.688 219.683 136.888 220.034 136.001H220.046Z" fill="#B89A92"/>
<path fill-rule="evenodd" clip-rule="evenodd" d="M221.245 135.826C221.32 135.25 221.52 134.838 221.758 134.563C221.52 134.525 221.32 134.488 221.233 134.438C221.02 134.475 220.833 134.525 220.658 134.588C220.52 134.838 220.407 135.138 220.332 135.501C220.17 136.426 221.058 137.176 221.233 135.826H221.245Z" fill="#B89A92"/>
<path fill-rule="evenodd" clip-rule="evenodd" d="M222.258 135.688C222.233 135.263 222.283 134.925 222.383 134.638C222.108 134.613 221.733 134.563 221.47 134.513C221.37 134.8 221.308 135.138 221.32 135.55C221.345 136.488 222.37 137.051 222.27 135.688H222.258Z" fill="#B89A92"/>
<path fill-rule="evenodd" clip-rule="evenodd" d="M204.103 117.908C203.803 116.195 203.578 114.045 203.616 111.332C201.928 105.88 199.714 103.88 197.439 100.079C195.376 96.6528 195.451 92.6517 193.138 89.3758C189.237 83.9869 189.449 78.7355 192.838 73.2841C198.977 69.9457 204.291 76.2599 204.291 76.2599C206.766 81.5738 207.917 85.0122 209.129 87.6379C211.505 92.8017 212.818 103.142 213.793 104.692C214.418 105.868 214.981 107.231 214.981 108.593C215.194 110.106 214.881 114.22 215.144 116.533C215.894 122.985 217.407 130.699 219.595 134.463C214.543 135.538 214.381 139.239 214.343 141.202C211.405 134.5 205.366 124.885 204.103 117.908Z" fill="#431E44"/>
<path fill-rule="evenodd" clip-rule="evenodd" d="M198.751 30.5978C195.638 32.3607 193.175 35.7241 190.524 39.1375C188.586 41.6632 188.686 47.3022 188.774 48.0399C187.173 58.8427 194.05 66.3072 190.499 77.8853C194.038 84.2995 214.105 79.0106 213.005 72.6839C212.167 67.8451 212.155 53.5914 212.667 50.9156C213.18 48.2399 216.393 36.2868 212.867 31.3855C212.055 30.2602 210.654 29.1349 209.404 29.2724C204.928 29.7851 201.464 28.9098 198.751 30.5978Z" fill="#B89A92"/>
<path fill-rule="evenodd" clip-rule="evenodd" d="M187.472 48.9275C185.759 53.3287 184.396 61.9185 184.921 67.1824C188.109 66.7072 191.06 69.3579 191.448 66.7822C194.099 58.08 196.062 59.2052 197.174 48.6025C200.463 42.8384 197.087 39.9252 194.274 39.425C191.46 38.9124 188.935 40.9379 187.484 48.9275H187.472Z" fill="#F2B387"/>
<path fill-rule="evenodd" clip-rule="evenodd" d="M186.96 49.9155C189.723 52.1411 194.199 52.5287 197.362 52.4787C199 47.865 197.988 49.0153 198.613 47.79C202.251 40.7006 198.513 37.3747 195.124 36.7621C186.81 36.0744 187.81 45.0892 186.947 49.9155H186.96Z" fill="#E1C3B9"/>
<path fill-rule="evenodd" clip-rule="evenodd" d="M197.837 24.9337C197.837 24.9337 198.75 29.2349 196.286 33.4235C205.076 40.1878 210.965 38.3873 206.589 31.2729C204.514 29.8975 204.376 29.76 206.101 24.2085C206.389 22.4581 197.824 24.9212 197.824 24.9212L197.837 24.9337Z" fill="#DB9669"/>
<path fill-rule="evenodd" clip-rule="evenodd" d="M236.549 81.6864L235.474 78.9732C235.149 78.1479 234.186 78.5981 234.449 79.4483L235.299 82.1865C235.561 83.0367 236.874 82.5116 236.549 81.6864Z" fill="#F2B387"/>
<path fill-rule="evenodd" clip-rule="evenodd" d="M235.208 81.8361L234.008 78.8353C233.645 77.9226 232.57 78.4227 232.87 79.3604L233.82 82.3987C234.108 83.3365 235.571 82.7613 235.208 81.8486V81.8361Z" fill="#F2B387"/>
<path fill-rule="evenodd" clip-rule="evenodd" d="M233.587 81.9862L232.574 79.448C232.274 78.6728 231.374 79.0979 231.611 79.8856L232.412 82.4363C232.662 83.224 233.887 82.7489 233.574 81.9737L233.587 81.9862Z" fill="#F2B387"/>
<path fill-rule="evenodd" clip-rule="evenodd" d="M231.885 81.7612L231.322 79.5481C231.147 78.8729 230.36 79.123 230.472 79.8107L230.86 82.0238C230.985 82.7114 232.06 82.4364 231.885 81.7612Z" fill="#F2B387"/>
<path fill-rule="evenodd" clip-rule="evenodd" d="M195.049 34.2363C198.113 34.3238 204.677 44.5515 205.59 48.34C209.341 63.8566 193.449 72.4339 190.423 71.4211C190.461 70.4333 190.561 67.5326 190.561 67.22C215.642 59.4555 196.95 36.787 190.173 37.5747C189.848 36.0493 192.449 34.1613 195.049 34.2363Z" fill="#3C3C3B"/>
<path fill-rule="evenodd" clip-rule="evenodd" d="M207.677 26.8219C214.767 34.749 214.217 50.8532 213.704 58.8553C213.679 59.318 212.341 61.3935 212.341 61.2935C213.229 53.7915 210.778 33.061 208.09 29.21C208.002 27.9347 205.939 24.8714 207.677 26.8219Z" fill="#3C3C3B"/>
<path fill-rule="evenodd" clip-rule="evenodd" d="M194.875 33.4986C201.702 35.1365 205.29 43.5387 206.215 47.3272C209.966 62.8438 195.85 71.7712 190.424 71.5836C190.461 70.5959 190.461 67.095 190.461 66.7949C215.88 58.9553 197.413 35.9117 190.236 36.7745C190.974 35.3116 192.612 33.3611 194.887 33.4986H194.875Z" fill="#706F6F"/>
<path fill-rule="evenodd" clip-rule="evenodd" d="M208.49 28.4972C214.754 31.7605 215.442 56.2045 212.803 61.2183C212.341 57.2923 213.078 36.5618 208.902 30.8853C208.815 29.61 206.752 26.5467 208.49 28.4972Z" fill="#706F6F"/>
<path fill-rule="evenodd" clip-rule="evenodd" d="M187.747 68.8203C194.662 69.3829 205.114 64.4566 208.465 64.119C209.416 64.0315 208.265 59.8804 206.115 60.4055C202.614 61.2433 199.826 61.7934 192.686 60.9807C191.123 60.8056 186.122 61.1307 185.922 63.6814C185.734 66.2446 182.859 68.4076 187.747 68.8078V68.8203Z" fill="#F2B387"/>
<path fill-rule="evenodd" clip-rule="evenodd" d="M208.852 60.8058C209.714 60.4807 209.952 59.0804 210.252 58.2551C210.602 57.3174 212.203 57.3174 212.465 55.9295C212.715 54.6042 208.802 57.4174 208.264 57.83C207.839 58.1551 206.664 59.6055 207.014 60.2307C207.626 61.3309 208.114 60.9183 208.852 60.8058Z" fill="#F4BA8A"/>
<path fill-rule="evenodd" clip-rule="evenodd" d="M218.155 54.2039H209.241L210.716 61.5808C210.866 62.6561 212.129 63.5063 213.842 63.5063C215.392 63.5063 216.668 62.8061 216.905 61.8809C216.918 61.8184 216.955 61.6683 216.968 61.5808L218.168 54.2039H218.155Z" fill="#EAEEF3"/>
<path fill-rule="evenodd" clip-rule="evenodd" d="M218.155 54.2041H209.24L210.528 60.6808H210.553C210.553 60.6808 210.553 60.7808 210.553 60.8308L210.591 61.0434C210.866 62.0062 212.216 62.7314 213.829 62.7314C215.342 62.7314 216.617 62.0937 217.005 61.231L218.143 54.2041H218.155Z" fill="#76302A"/>
<path fill-rule="evenodd" clip-rule="evenodd" d="M209.366 54.8291L210.528 60.6806L210.553 60.8307L210.591 61.0432C210.866 62.006 212.216 62.7312 213.829 62.7312C214.68 62.7312 215.455 62.5311 216.042 62.206L216.768 54.8416H209.366V54.8291Z" fill="#883A2E"/>
<path fill-rule="evenodd" clip-rule="evenodd" d="M210.393 54.8291L211.293 61.9685C211.893 62.4186 212.818 62.7187 213.831 62.7187C214.294 62.7187 214.744 62.6562 215.144 62.5561L215.494 54.9916L214.031 54.8291H210.405H210.393Z" fill="#883A2E"/>
<path fill-rule="evenodd" clip-rule="evenodd" d="M213.691 49.7654C211.44 49.7654 209.54 50.6906 208.902 51.9535H208.69V52.6286C208.69 52.7037 208.677 52.7912 208.677 52.8662C208.677 54.5792 210.915 55.9795 213.678 55.9795C216.442 55.9795 218.68 54.5917 218.68 52.8662V51.9535H218.455C217.829 50.6781 215.916 49.7654 213.666 49.7654H213.691Z" fill="#EAEEF3"/>
<path fill-rule="evenodd" clip-rule="evenodd" d="M208.702 52.7412V52.8287C208.702 52.8287 208.702 52.8537 208.702 52.8787C208.865 54.5041 211.041 55.792 213.704 55.792C216.367 55.792 218.705 54.4041 218.705 52.6786C218.705 52.6411 218.705 52.6161 218.705 52.5786C218.63 54.2541 216.417 55.5919 213.704 55.5919C210.991 55.5919 208.915 54.3291 208.715 52.7287L208.702 52.7412Z" fill="#D4DAE1"/>
<path fill-rule="evenodd" clip-rule="evenodd" d="M213.692 48.615C210.929 48.615 208.691 50.0029 208.691 51.7283C208.691 53.4538 210.929 54.8416 213.692 54.8416C216.455 54.8416 218.693 53.4538 218.693 51.7283C218.693 50.0029 216.455 48.615 213.692 48.615Z" fill="url(#paint0_linear_69597_227563)"/>
<path fill-rule="evenodd" clip-rule="evenodd" d="M213.692 48.8274C211.116 48.8274 209.028 50.1278 209.028 51.7282C209.028 53.3286 211.116 54.629 213.692 54.629V54.4414C211.279 54.4414 209.316 53.2286 209.316 51.7282C209.316 50.2278 211.266 49.015 213.692 49.015V48.8274ZM213.692 54.6165C216.267 54.6165 218.355 53.3161 218.355 51.7157C218.355 50.1153 216.267 48.8149 213.692 48.8149V49.0025C216.105 49.0025 218.068 50.2153 218.068 51.7157C218.068 53.2161 216.117 54.4289 213.692 54.4289V54.6165Z" fill="#F0F2F4"/>
<path fill-rule="evenodd" clip-rule="evenodd" d="M213.693 49.6404C211.843 49.6404 210.33 50.5781 210.33 51.7284C210.33 52.8787 211.83 53.8165 213.693 53.8165C215.556 53.8165 217.057 52.8787 217.057 51.7284C217.057 50.5781 215.556 49.6404 213.693 49.6404Z" fill="#EAEEF3"/>
<path fill-rule="evenodd" clip-rule="evenodd" d="M213.69 50.1655C211.977 50.1655 210.564 50.9532 210.352 51.991C210.564 53.0163 211.977 53.8165 213.69 53.8165C215.403 53.8165 216.816 53.0288 217.028 51.991C216.816 50.9657 215.403 50.1655 213.69 50.1655Z" fill="#F0F2F4"/>
<path fill-rule="evenodd" clip-rule="evenodd" d="M213.691 50.7905C212.541 50.7905 211.603 51.3657 211.603 52.0909C211.603 52.8161 212.541 53.3912 213.691 53.3912C214.842 53.3912 215.779 52.8161 215.779 52.0909C215.779 51.3657 214.842 50.7905 213.691 50.7905Z" fill="#EAEEF3"/>
<path fill-rule="evenodd" clip-rule="evenodd" d="M213.691 50.428C212.541 50.428 211.603 51.0031 211.603 51.7283C211.603 52.4535 212.541 53.0287 213.691 53.0287C214.842 53.0287 215.779 52.4535 215.779 51.7283C215.779 51.0031 214.842 50.428 213.691 50.428Z" fill="url(#paint1_linear_69597_227563)"/>
<path fill-rule="evenodd" clip-rule="evenodd" d="M211.944 53.6537C211.581 53.5162 211.269 53.3662 211.044 53.1911C210.794 53.0036 210.406 53.4162 210.694 53.5537C210.994 53.7037 211.294 53.8663 211.594 54.0163C211.881 54.1664 212.244 53.7538 211.944 53.6537Z" fill="#D4DAE1"/>
<path fill-rule="evenodd" clip-rule="evenodd" d="M211.953 53.7413C211.578 53.6038 211.253 53.4537 211.053 53.2787C210.878 53.1286 210.628 53.3287 210.603 53.4662C210.616 53.4912 210.653 53.5287 210.691 53.5412C210.903 53.7163 211.216 53.8663 211.591 54.0039C211.803 54.0789 212.016 53.9539 212.041 53.8163C212.029 53.7913 212.004 53.7538 211.953 53.7413Z" fill="#A2B1BD"/>
<path fill-rule="evenodd" clip-rule="evenodd" d="M210.19 57.6924C210.102 56.7047 210.49 56.0295 211.053 56.1545C211.165 56.4046 211.24 56.6422 211.278 56.8547V57.6299C211.265 57.705 211.253 57.7925 211.228 57.88C211.203 57.9675 211.19 58.03 211.165 58.1051C211.053 58.5177 210.94 58.9053 211.24 59.7555C210.715 59.4679 210.265 58.6052 210.19 57.6924ZM211.278 59.2179V58.5427C211.24 58.7302 211.228 58.9428 211.278 59.2179ZM211.278 56.8547V56.9423C211.315 57.1673 211.315 57.3924 211.278 57.6299V56.8547ZM211.278 56.2421C211.378 56.5171 211.453 56.7547 211.478 56.9923C211.528 57.3299 211.49 57.6549 211.415 58.0175C211.403 58.0926 211.378 58.1801 211.353 58.2551C211.328 58.3551 211.303 58.4552 211.278 58.5552V59.2304C211.303 59.4054 211.365 59.6055 211.453 59.8555C212.028 59.9931 212.428 59.3179 212.341 58.3176C212.266 57.4049 211.803 56.5421 211.278 56.2546V56.2421Z" fill="#DACFB0"/>
<path fill-rule="evenodd" clip-rule="evenodd" d="M206.715 63.9317C205.815 63.7942 204.177 61.481 205.34 60.9559C206.24 60.3057 209.741 57.8301 210.016 57.705C210.479 57.4925 210.791 57.38 211.279 57.2174C211.967 56.9924 212.254 57.0174 212.967 57.2174C213.567 57.355 215.293 57.6925 215.818 57.8551C216.73 58.2552 217.993 58.6303 218.743 59.1804C218.693 59.3805 218.506 59.7306 218.268 59.8056C218.568 60.0057 219.156 60.2182 219.043 60.4558C218.706 61.0934 217.943 60.9559 217.943 60.9559L218.318 61.1059C218.081 61.8436 217.493 61.9437 217.093 61.9562C216.693 61.9562 215.418 61.7061 215.017 61.6936C214.042 61.6686 211.779 61.6061 214.08 61.8436C215.08 61.9312 216.468 62.2938 216.093 62.6939C215.43 63.394 214.78 62.8189 213.767 62.8314C212.879 62.8314 210.929 63.1065 210.079 63.5441C208.228 64.5068 207.978 64.1442 206.74 63.9442L206.715 63.9317Z" fill="#F1B287"/>
<path fill-rule="evenodd" clip-rule="evenodd" d="M211.09 19.5573C211.04 20.3075 210.14 20.4075 211.228 23.5083C211.903 25.4213 211.578 25.4463 210.715 28.6972C210.228 30.5352 209.065 34.4362 203.463 31.0103C203.463 31.0103 198.062 26.4341 196.624 22.6956C195.186 18.9571 195.574 15.3687 198.674 12.6179C198.099 12.6179 209.865 8.56687 211.078 19.5448L211.09 19.5573Z" fill="#F2B387"/>
<path fill-rule="evenodd" clip-rule="evenodd" d="M210.677 15.4938C210.54 16.5191 210.04 17.1442 209.302 17.5443C207.189 17.3818 206.564 16.9817 203.901 18.0195C202 18.7697 204.038 20.1825 203.125 21.3828C202.763 21.858 201.275 23.0458 201.488 23.871L200.1 23.3209C198.512 20.9077 198.187 23.771 197.987 27.8095C197.987 27.8095 192.823 19.7199 195.136 15.1437C196.649 12.1429 199.362 9.37968 206.651 12.1304C207.914 12.6055 210.89 14.0934 210.702 15.5063L210.677 15.4938Z" fill="#704321"/>
<path fill-rule="evenodd" clip-rule="evenodd" d="M198.776 22.0829C197.538 22.3204 197.425 23.3832 197.625 24.7086C197.825 26.0339 198.913 27.8594 199.626 27.1967C200.489 26.409 198.913 25.6338 199.213 24.5585C199.376 23.9709 200.189 23.6458 200.414 23.5833C201.026 23.4082 200.013 21.8453 198.788 22.0829H198.776Z" fill="#F1B287"/>
</g>
<defs>
<linearGradient id="paint0_linear_69597_227563" x1="213.692" y1="48.615" x2="213.692" y2="54.8291" gradientUnits="userSpaceOnUse">
<stop stop-color="#F9F9FB"/>
<stop offset="1" stop-color="white"/>
</linearGradient>
<linearGradient id="paint1_linear_69597_227563" x1="213.691" y1="50.428" x2="213.691" y2="53.0162" gradientUnits="userSpaceOnUse">
<stop stop-color="#F9F9FB"/>
<stop offset="1" stop-color="white"/>
</linearGradient>
<clipPath id="clip0_69597_227563">
<rect width="101.082" height="160" fill="white" transform="matrix(-1 0 0 1 107.582 0)"/>
</clipPath>
<clipPath id="clip1_69597_227563">
<rect width="89" height="149" fill="white" transform="matrix(-1 0 0 1 254.5 11)"/>
</clipPath>
</defs>
</svg>
