<svg width="154" height="161" viewBox="0 0 154 161" fill="none" xmlns="http://www.w3.org/2000/svg">
<path d="M90.9443 80.22C90.4029 80.2866 89.8534 80.2337 89.3346 80.0651C88.8158 79.8964 88.3403 79.616 87.9416 79.2437C87.543 78.8713 87.2307 78.4161 87.027 77.91C86.8233 77.404 86.733 76.8594 86.7625 76.3147L74.4882 71.2968L80.1765 67.4073L90.9603 72.7687C91.8721 72.8788 92.7119 73.3197 93.3204 74.0076C93.9288 74.6956 94.2638 75.5829 94.2619 76.5014C94.2599 77.4198 93.9211 78.3057 93.3096 78.9911C92.6982 79.6764 91.8566 80.1137 90.9443 80.22Z" fill="#C0947B"/>
<path d="M48.5015 53.0001L65.1127 67.3355L82.1632 75.761L85.81 69.3743L67.8492 60.4486L49.8883 43.5229C48.3308 44.5742 46.7857 45.6142 46.644 47.6953C46.5494 49.0843 47.4435 52.2291 48.5015 53.0001Z" fill="#006399"/>
<path d="M48.3641 156.646L52.9134 156.645L55.0779 139.098L48.363 139.098L48.3641 156.646Z" fill="#C0947B"/>
<path d="M61.6873 160.871L47.3888 160.872L47.3886 155.348L56.1626 155.347C57.6278 155.347 59.0329 155.929 60.069 156.965C61.1051 158.001 61.6872 159.406 61.6873 160.871Z" fill="#2F2E41"/>
<path d="M10.5115 151.209L14.6399 153.12L23.9765 138.106L17.8832 135.285L10.5115 151.209Z" fill="#C0947B"/>
<path d="M20.8269 160.641L7.85142 154.634L10.1722 149.621L18.1345 153.307C19.4641 153.922 20.4947 155.041 20.9996 156.416C21.5046 157.791 21.4424 159.311 20.8269 160.641Z" fill="#2F2E41"/>
<path d="M53.1325 152.939C53.0659 152.939 52.9994 152.935 52.9332 152.927L49.3338 152.503C48.9552 152.457 48.6036 152.284 48.3369 152.011C48.0702 151.738 47.9043 151.383 47.8665 151.004L41.5457 103.68C41.5344 103.561 41.4855 103.45 41.4062 103.361C41.3268 103.273 41.2211 103.212 41.1047 103.188C40.9882 103.164 40.8671 103.177 40.7591 103.227C40.651 103.277 40.5617 103.36 40.5043 103.464L18.4646 149.016C18.2838 149.345 17.9967 149.604 17.6501 149.75C17.3034 149.895 16.9176 149.919 16.5556 149.818L12.5121 148.695C12.2939 148.634 12.0902 148.53 11.9135 148.388C11.7368 148.246 11.5908 148.07 11.4844 147.87C11.378 147.67 11.3134 147.451 11.2946 147.225C11.2758 146.999 11.3031 146.772 11.3748 146.557C14.8964 136.021 29.9542 82.3596 31.4626 77.4994C32.9711 72.6391 34.3033 72.1866 35.4626 72L51.2589 69.5781C57.1977 77.5724 58.6834 89.7683 57.9626 100.999L54.7918 151.414C54.7553 151.83 54.5649 152.216 54.2579 152.498C53.9508 152.78 53.5494 152.937 53.1325 152.939Z" fill="#2F2E41"/>
<path d="M54.4341 39.2179C59.0726 41.173 64.4178 38.9978 66.3728 34.3594C68.3278 29.721 66.1524 24.376 61.5138 22.4209C56.8753 20.4658 51.5301 22.641 49.5751 27.2794C47.6201 31.9177 49.7955 37.2628 54.4341 39.2179Z" fill="#C0947B"/>
<path d="M30.5801 73.2106L40.2239 46.1774C41.0423 43.896 42.6972 42.0109 44.8535 40.904C47.0098 39.7972 49.5062 39.5512 51.8371 40.216C53.2777 40.6269 54.579 41.4227 55.6009 42.5179C56.6229 43.6132 57.3269 44.9663 57.6372 46.4318C58.4868 50.4292 59.2831 55.9872 58.2515 59.7662C57.3738 62.9726 54.0033 74.8832 53.9631 75C52.3091 74.5804 50.4172 75.4744 48.7602 75.7414C42.5479 76.7429 36.4233 75.245 30.5801 73.2106Z" fill="#006399"/>
<path opacity="0.2" d="M45.2715 76.6972C47.6025 77.0019 49.7757 77.1793 51.6386 77.2771C53.9375 72.1972 48.6173 55.5937 44.0741 52.9182C44.0741 52.9182 33.9214 67.7005 45.2715 76.6972Z" fill="black"/>
<path d="M7.42477 93.7303L129.034 69.6769C129.154 69.6525 129.248 69.5261 129.296 69.3255C129.344 69.1249 129.342 68.8664 129.291 68.6068C129.239 68.3471 129.143 68.1074 129.022 67.9402C128.901 67.7731 128.766 67.692 128.646 67.7149L7.03671 91.7683C6.91719 91.7927 6.82305 91.9191 6.77492 92.1197C6.72679 92.3203 6.7286 92.5787 6.77997 92.8384C6.83133 93.0981 6.92805 93.3378 7.04892 93.505C7.16979 93.6722 7.30495 93.7532 7.42477 93.7303Z" fill="#CBCBCB"/>
<path d="M131.702 84.4405L133.599 84.0653L127.39 52.6735L125.493 53.0487C123.481 57.4786 127.725 80.7063 131.702 84.4405Z" fill="#CBCBCB"/>
<path d="M127.671 53.9213L132.601 53.1709C132.606 53.1694 132.595 53.0907 132.571 52.9521C132.523 52.6749 132.427 52.1876 132.366 51.9131C132.335 51.7759 132.315 51.699 132.31 51.6994L127.483 52.9498L127.671 53.9213Z" fill="#006399"/>
<path d="M130.776 69.6185L135.706 68.8681C135.71 68.8666 135.699 68.7879 135.676 68.6494C135.628 68.3722 135.531 67.8849 135.47 67.6104C135.439 67.4731 135.419 67.3963 135.414 67.3966L130.587 68.6471L130.776 69.6185Z" fill="#006399"/>
<path d="M129.223 61.7689L134.153 61.0185C134.158 61.017 134.147 60.9383 134.123 60.7998C134.075 60.5226 133.979 60.0353 133.918 59.7608C133.887 59.6235 133.867 59.5467 133.862 59.547L129.035 60.7974L129.223 61.7689Z" fill="#006399"/>
<path d="M132.328 77.4662L137.258 76.7158C137.262 76.7143 137.252 76.6356 137.228 76.497C137.18 76.2198 137.084 75.7325 137.022 75.458C136.992 75.3208 136.972 75.2439 136.967 75.2443L132.14 76.4947L132.328 77.4662Z" fill="#006399"/>
<path d="M128.447 57.8451L133.377 57.0947C133.382 57.0932 133.371 57.0145 133.347 56.8759C133.299 56.5988 133.203 56.1114 133.142 55.8369C133.111 55.6997 133.091 55.6228 133.086 55.6232L128.259 56.8736L128.447 57.8451Z" fill="#006399"/>
<path d="M131.552 73.5423L136.482 72.792C136.486 72.7905 136.476 72.7118 136.452 72.5732C136.404 72.296 136.307 71.8087 136.246 71.5342C136.215 71.397 136.196 71.3201 136.191 71.3205L131.364 72.5709L131.552 73.5423Z" fill="#006399"/>
<path d="M129.999 65.6927L134.929 64.9424C134.934 64.9408 134.923 64.8622 134.899 64.7236C134.852 64.4464 134.755 63.9591 134.694 63.6846C134.663 63.5473 134.643 63.4705 134.638 63.4709L129.811 64.7213L129.999 65.6927Z" fill="#006399"/>
<path d="M133.104 81.39L138.034 80.6396C138.039 80.6381 138.028 80.5594 138.004 80.4208C137.956 80.1437 137.86 79.6564 137.798 79.3819C137.768 79.2446 137.748 79.1677 137.743 79.1681L132.916 80.4185L133.104 81.39Z" fill="#006399"/>
<path d="M128.059 55.8841L132.989 55.1338C132.994 55.1323 132.983 55.0536 132.959 54.915C132.911 54.6378 132.815 54.1505 132.754 53.876C132.723 53.7388 132.703 53.6619 132.698 53.6623L127.871 54.9127L128.059 55.8841Z" fill="#006399"/>
<path d="M131.164 71.5795L136.094 70.8291C136.098 70.8276 136.088 70.7489 136.064 70.6103C136.016 70.3331 135.92 69.8458 135.858 69.5713C135.828 69.4341 135.808 69.3572 135.803 69.3576L130.976 70.608L131.164 71.5795Z" fill="#006399"/>
<path d="M129.612 63.7318L134.541 62.9814C134.546 62.9799 134.535 62.9012 134.511 62.7626C134.464 62.4855 134.367 61.9981 134.306 61.7237C134.275 61.5864 134.255 61.5095 134.25 61.5099L129.423 62.7603L129.612 63.7318Z" fill="#006399"/>
<path d="M132.716 79.4271L137.646 78.6767C137.651 78.6752 137.64 78.5965 137.616 78.458C137.568 78.1808 137.472 77.6935 137.41 77.419C137.38 77.2817 137.36 77.2049 137.355 77.2052L132.528 78.4556L132.716 79.4271Z" fill="#006399"/>
<path d="M128.835 59.808L133.765 59.0576C133.77 59.0561 133.759 58.9774 133.735 58.8388C133.688 58.5616 133.591 58.0743 133.53 57.7998C133.499 57.6626 133.479 57.5857 133.474 57.5861L128.647 58.8365L128.835 59.808Z" fill="#006399"/>
<path d="M131.94 75.5033L136.87 74.7529C136.875 74.7514 136.864 74.6727 136.84 74.5341C136.792 74.257 136.696 73.7696 136.634 73.4951C136.604 73.3579 136.584 73.281 136.579 73.2814L131.752 74.5318L131.94 75.5033Z" fill="#006399"/>
<path d="M130.388 67.6556L135.318 66.9052C135.322 66.9037 135.311 66.8251 135.288 66.6865C135.24 66.4093 135.143 65.922 135.082 65.6475C135.051 65.5102 135.031 65.4334 135.027 65.4338L130.2 66.6842L130.388 67.6556Z" fill="#006399"/>
<path d="M133.492 83.3509L138.422 82.6006C138.427 82.599 138.416 82.5204 138.392 82.3818C138.344 82.1046 138.248 81.6173 138.187 81.3428C138.156 81.2056 138.136 81.1287 138.131 81.1291L133.304 82.3795L133.492 83.3509Z" fill="#006399"/>
<path d="M68.3812 86.4516C67.8377 86.4046 67.3111 86.239 66.8386 85.9665C66.366 85.6939 65.9589 85.3211 65.646 84.8743C65.3331 84.4274 65.122 83.9174 65.0276 83.3801C64.9331 82.8428 64.9576 82.2914 65.0993 81.7646L54.1309 74.3123L60.5019 71.6861L69.941 79.1655C70.8102 79.4623 71.5403 80.0675 71.9931 80.8666C72.4458 81.6657 72.5897 82.6031 72.3975 83.5012C72.2052 84.3993 71.6902 85.1957 70.9499 85.7395C70.2097 86.2833 69.2958 86.5366 68.3812 86.4516Z" fill="#C0947B"/>
<path d="M50.4155 42.3401C50.793 42.3478 51.169 42.3909 51.5385 42.4687C52.2865 42.6396 52.9804 42.9936 53.558 43.4987C54.1356 44.0038 54.5788 44.6444 54.8478 45.363L53.5641 64.7496L67.068 75.9951L61.3161 80.6336L43.1326 66.3062L45.8681 48.5347C45.6361 47.8207 45.5773 47.0617 45.6966 46.3205C45.8159 45.5793 46.1098 44.8771 46.5541 44.272C46.9983 43.6668 47.5802 43.1759 48.2516 42.84C48.923 42.5041 49.6647 42.3327 50.4155 42.3401Z" fill="#006399"/>
<path d="M53.9702 38.9294C53.5289 36.6364 53.6312 33.7579 55.6648 32.6103C57.6722 31.4775 60.1302 32.8051 62.4332 32.9001C65.641 33.0325 68.6204 30.4544 69.348 27.3276C70.0756 24.2008 68.7537 20.7974 66.3823 18.6333C64.0109 16.4692 60.7311 15.4656 57.5207 15.4535C53.5686 15.4387 49.5423 16.9352 46.8853 19.8607C44.2284 22.7863 43.1363 27.1833 44.5316 30.8808C46.0276 34.845 49.93 37.3782 53.8535 38.978" fill="#2F2E41"/>
<path d="M46.4626 26C50.3286 26 53.4626 22.866 53.4626 19C53.4626 15.134 50.3286 12 46.4626 12C42.5967 12 39.4626 15.134 39.4626 19C39.4626 22.866 42.5967 26 46.4626 26Z" fill="#2F2E41"/>
<path d="M58.9626 19C62.0002 19 64.4626 16.5376 64.4626 13.5C64.4626 10.4624 62.0002 8 58.9626 8C55.9251 8 53.4626 10.4624 53.4626 13.5C53.4626 16.5376 55.9251 19 58.9626 19Z" fill="#2F2E41"/>
<ellipse cx="128.963" cy="152.5" rx="24.5" ry="8.5" fill="#94CCFF"/>
<path d="M105.382 124.818H133.382L129.021 154.818H109.972L105.382 124.818Z" fill="#D9D9D9"/>
<path d="M126.384 128.589C126.563 128.378 126.537 128.063 126.327 127.884C126.117 127.705 125.801 127.73 125.622 127.941L126.384 128.589ZM117.311 133.722C113.88 135.238 110.524 135.985 107.883 135.983C106.562 135.982 105.444 135.794 104.59 135.441C103.74 135.09 103.182 134.589 102.907 133.968L101.993 134.373C102.399 135.292 103.194 135.946 104.208 136.366C105.22 136.784 106.478 136.982 107.882 136.983C110.693 136.985 114.188 136.196 117.715 134.637L117.311 133.722ZM125.622 127.941C123.871 129.999 120.938 132.119 117.311 133.722L117.715 134.637C121.442 132.99 124.512 130.79 126.384 128.589L125.622 127.941ZM102.907 133.968C102.762 133.64 102.768 133.108 102.962 132.406C103.15 131.724 103.493 130.968 103.9 130.258C104.306 129.548 104.766 128.905 105.175 128.446C105.381 128.215 105.563 128.043 105.711 127.932C105.881 127.805 105.929 127.818 105.882 127.818L105.881 126.818C105.584 126.818 105.31 126.983 105.112 127.131C104.892 127.296 104.659 127.521 104.429 127.78C103.965 128.3 103.467 129.002 103.032 129.76C102.598 130.518 102.216 131.353 101.998 132.139C101.786 132.906 101.704 133.72 101.993 134.373L102.907 133.968Z" fill="black"/>
<path d="M104.989 126.318H133.775C133.803 126.317 133.831 126.185 133.851 125.951C133.871 125.717 133.882 125.399 133.882 125.068C133.882 124.737 133.871 124.42 133.851 124.186C133.831 123.951 133.803 123.819 133.775 123.818H104.989C104.96 123.819 104.933 123.951 104.913 124.186C104.893 124.42 104.882 124.737 104.882 125.068C104.882 125.399 104.893 125.717 104.913 125.951C104.933 126.185 104.96 126.317 104.989 126.318Z" fill="#CBCBCB"/>
</svg>
