<svg width="205" height="160" viewBox="0 0 205 160" fill="none" xmlns="http://www.w3.org/2000/svg">
<g clip-path="url(#clip0_56986_37696)">
<path d="M0.659926 21.8923C-0.0257267 18.2011 0.692703 14.1011 3.24797 11.3748C5.80342 8.64853 11.2406 7.85251 14.8294 8.94694C21.3942 10.9489 30.2415 25.0961 29.7557 31.3075C29.1523 31.5877 27.1151 32.6389 26.5094 32.9318L24.1836 30.577L25.6545 33.3498C20.9424 35.6658 16.1634 38.3158 11.3834 40.9702C9.20554 37.9102 1.34556 25.5834 0.659926 21.8923Z" fill="#2F2E41"/>
<path d="M72.5265 49.1741C72.0797 49.3395 71.6022 49.4049 71.1274 49.3658C70.6527 49.3267 70.1922 49.184 69.7786 48.9477C69.365 48.7114 69.0082 48.3873 68.7334 47.9982C68.4586 47.6091 68.2724 47.1645 68.188 46.6956L56.7489 44.8978L60.8013 40.4496L71.0428 42.8389C71.8398 42.7493 72.642 42.9552 73.2973 43.4175C73.9527 43.8799 74.4157 44.5666 74.5985 45.3475C74.7814 46.1284 74.6715 46.9492 74.2896 47.6545C73.9077 48.3598 73.2804 48.9004 72.5265 49.1741Z" fill="#9E616A"/>
<path d="M22.9524 34.2431L22.2659 31.058C22.2659 31.058 23.8807 29.3858 28.4939 30.0348C33.107 30.6839 65.1128 41.3431 65.1128 41.3431L59.4443 45.4469L33.6411 42.0051L22.9524 34.2431Z" fill="#E6E6E6"/>
<path d="M183.727 150.755C195.595 144.23 205.044 131.148 204.784 116.803C193.688 126.839 179.653 132.326 165.161 132.294C159.572 132.26 153.359 131.595 149.015 135.381C146.313 137.737 144.896 141.47 144.477 145.186C144.057 148.903 144.528 152.662 144.998 156.372L144.706 157.252C158.001 158.234 171.858 157.28 183.727 150.755Z" fill="#F0F0F0"/>
<path d="M165.533 106.437C165.482 106.623 165.431 106.809 165.376 106.997C164.675 109.501 163.737 111.952 162.569 114.327C162.482 114.512 162.391 114.698 162.298 114.88C159.413 120.576 155.308 125.767 150.192 130.19C148.155 131.948 145.963 133.572 143.635 135.048C140.42 137.086 136.744 139.078 134.574 141.818C134.343 142.102 134.134 142.398 133.947 142.703L141.015 159.235C141.054 159.266 141.088 159.298 141.126 159.329L141.373 160C141.499 159.931 141.628 159.857 141.754 159.788C141.828 159.749 141.9 159.705 141.973 159.665C142.022 159.638 142.07 159.61 142.116 159.587C142.132 159.578 142.148 159.569 142.16 159.561C142.205 159.538 142.245 159.513 142.286 159.492C143.01 159.081 143.732 158.665 144.451 158.243C144.456 158.242 144.456 158.242 144.458 158.237C149.931 155.016 155.136 151.378 159.525 147.184C159.657 147.058 159.793 146.931 159.922 146.797C161.888 144.898 163.668 142.865 165.244 140.719C166.103 139.542 166.89 138.328 167.605 137.083C169.443 133.863 170.673 130.418 171.25 126.873C172.4 119.807 170.877 112.507 165.917 106.864C165.79 106.72 165.664 106.579 165.533 106.437Z" fill="#F0F0F0"/>
<path d="M150.044 96.4662C149.993 95.5801 149.631 94.7404 149.02 94.0961C148.41 93.4518 147.591 93.0445 146.709 92.9463L92.4333 86.8221C91.9128 86.7627 91.3857 86.8128 90.8857 86.9692L78.4349 90.8675L71.2911 93.1064L58.1073 97.2333C57.3115 97.4834 56.6212 97.9906 56.1446 98.6752C55.668 99.3599 55.4322 100.183 55.474 101.017L57.6994 153.915C57.7468 154.775 58.0859 155.593 58.6609 156.234C59.2358 156.875 60.0121 157.3 60.8616 157.441L116.279 157.561C116.54 157.604 116.804 157.618 117.067 157.603C117.451 157.585 117.829 157.507 118.189 157.374L150.664 157.15C151.421 156.871 152.067 156.356 152.508 155.68C152.949 155.005 153.16 154.206 153.111 153.401L150.044 96.4662Z" fill="white"/>
<path d="M61.3845 154.187L116.802 154.307C116.883 154.321 116.966 154.313 117.043 154.285L149.514 154.062C149.609 154.028 149.69 153.963 149.746 153.879C149.801 153.794 149.827 153.693 149.82 153.592L146.757 96.6563C146.75 96.5461 146.704 96.4419 146.628 96.3616C146.552 96.2814 146.451 96.23 146.341 96.2162L145.976 96.1732L92.0631 90.0964C92.0385 90.0931 92.0135 90.0924 91.9887 90.0943C91.9481 90.0954 91.9079 90.1018 91.869 90.1133L61.5009 99.6234L59.0907 100.376C58.9921 100.408 58.9067 100.472 58.8476 100.557C58.7884 100.642 58.7588 100.745 58.7631 100.848L60.9894 153.745C60.9948 153.853 61.037 153.955 61.1089 154.036C61.1808 154.116 61.278 154.17 61.3845 154.187Z" fill="#0077B6"/>
<path d="M61.501 99.6234L91.869 90.1133C91.9079 90.1018 91.9482 90.0954 91.9888 90.0943C92.0136 90.0924 92.0385 90.0931 92.0632 90.0964L145.976 96.1732L132.992 100.398L128.132 101.977L114.304 106.474C114.263 106.485 114.222 106.493 114.18 106.499C114.153 106.496 114.127 106.494 114.095 106.492L61.501 99.6234Z" fill="#2F2E41"/>
<path d="M60.8612 157.443L116.279 157.563C116.539 157.605 116.804 157.617 117.067 157.6C117.451 157.582 117.831 157.507 118.192 157.376L150.662 157.153C151.419 156.874 152.066 156.358 152.507 155.682C152.948 155.007 153.16 154.207 153.111 153.401L150.043 96.466C150.004 95.7991 149.789 95.1544 149.421 94.5973C149.37 94.5236 149.319 94.4499 149.264 94.3821C148.882 93.883 148.379 93.4898 147.803 93.24C147.455 93.0875 147.087 92.9885 146.709 92.9464L146.645 92.9379L92.4359 86.8208C92.215 86.7987 91.9929 86.7922 91.7711 86.8014C91.4697 86.8221 91.1719 86.8793 90.8843 86.9717L78.4346 90.8655L71.2923 93.1081L58.106 97.2345C57.5665 97.4027 57.0721 97.6912 56.6603 98.0783C56.6275 98.1037 56.597 98.132 56.5692 98.1629C56.549 98.1831 56.5303 98.2048 56.513 98.2276C56.16 98.597 55.8859 99.0344 55.7074 99.5131C55.5289 99.9919 55.4497 100.502 55.4747 101.012L57.6964 153.915C57.744 154.775 58.0835 155.594 58.6589 156.235C59.2342 156.877 60.0111 157.303 60.8612 157.443ZM56.4131 100.969C56.3876 100.44 56.5132 99.9141 56.7752 99.4538C56.8529 99.307 56.9454 99.1686 57.0512 99.0406C57.339 98.6859 57.7092 98.407 58.1296 98.2282C58.2124 98.192 58.2973 98.161 58.384 98.1355L80.5861 91.1865L91.1669 87.867C91.2383 87.8429 91.3057 87.8299 91.3725 87.8116C91.5353 87.7735 91.7013 87.751 91.8684 87.7443C92.0207 87.7321 92.1739 87.7359 92.3254 87.7556L146.599 93.8813C146.642 93.887 146.68 93.8933 146.723 93.8989C147.22 93.9726 147.688 94.1813 148.074 94.5022C148.378 94.7464 148.627 95.0518 148.804 95.3987C148.982 95.7455 149.084 96.1259 149.105 96.515L152.169 153.456C152.205 154.059 152.047 154.658 151.718 155.164C151.388 155.671 150.905 156.057 150.338 156.268L117.863 156.491C117.404 156.66 116.909 156.707 116.426 156.629L61.0094 156.515C60.3732 156.408 59.7922 156.088 59.3616 155.608C58.9311 155.127 58.6766 154.515 58.64 153.871L56.4131 100.969Z" fill="#3F3D56"/>
<path d="M117.236 157.705C117.112 157.711 116.99 157.668 116.898 157.585C116.805 157.503 116.749 157.387 116.742 157.263L113.688 106.054C113.68 105.93 113.723 105.807 113.806 105.714C113.889 105.621 114.005 105.564 114.13 105.556L114.134 105.556C114.258 105.55 114.379 105.593 114.472 105.676C114.564 105.758 114.62 105.874 114.627 105.998L117.682 157.207C117.689 157.331 117.647 157.454 117.564 157.547C117.481 157.64 117.364 157.697 117.24 157.705L117.236 157.705Z" fill="#3F3D56"/>
<path d="M148.351 94.9504L147.967 94.6362C147.572 94.3113 147.09 94.1087 146.582 94.0531L92.3089 87.9276C92.0095 87.8947 91.7067 87.9114 91.4128 87.9772L91.2095 88.0275L91.1685 87.2155L100.169 77.2587C100.705 76.6685 101.37 76.2099 102.112 75.9188C102.855 75.6276 103.654 75.5117 104.448 75.5801L141.139 78.8263C142.235 78.9196 143.272 79.3626 144.097 80.0899C144.922 80.8173 145.492 81.7905 145.723 82.8662L148.351 94.9504Z" fill="#3F3D56"/>
<path d="M79.5356 132.019C79.5898 132.041 79.6414 132.069 79.6894 132.103L93.3853 141.719C93.5568 141.84 93.6734 142.023 93.7096 142.23C93.7457 142.436 93.6985 142.648 93.5781 142.82C93.4578 142.991 93.2742 143.108 93.0679 143.144C92.8615 143.18 92.6492 143.133 92.4777 143.013L78.7819 133.396C78.6229 133.285 78.5106 133.118 78.4665 132.929C78.4225 132.74 78.4496 132.541 78.5429 132.371C78.6362 132.2 78.789 132.07 78.9721 132.005C79.1552 131.94 79.3558 131.945 79.5356 132.019Z" fill="white"/>
<path d="M78.7844 142.419C78.8187 142.371 78.8581 142.327 78.9019 142.289L91.415 131.177C91.5716 131.038 91.7771 130.966 91.9863 130.979C92.1954 130.991 92.3911 131.086 92.5302 131.243C92.6694 131.399 92.7406 131.605 92.7282 131.814C92.7159 132.023 92.6209 132.219 92.4643 132.358L79.9512 143.47C79.8059 143.599 79.6182 143.67 79.4239 143.669C79.2296 143.668 79.0424 143.596 78.898 143.466C78.7536 143.336 78.6622 143.157 78.6413 142.964C78.6203 142.771 78.6713 142.577 78.7844 142.419Z" fill="white"/>
<path d="M73.0699 49.3901C72.7369 49.017 72.6235 48.979 72.5053 49.0606L54.1693 61.7116C54.0524 61.7922 54.0455 61.9113 54.2724 62.3498C54.8717 63.2774 55.6042 64.3728 56.406 65.5348L79.9976 99.7279C82.209 102.933 84.1302 105.456 84.2799 105.353L102.616 92.702C102.766 92.5987 101.089 89.9069 98.8772 86.7019L75.2856 52.5087C74.4856 51.3494 73.7234 50.2783 73.0699 49.3901Z" fill="white"/>
<path d="M77.8336 46.8201C77.3722 46.1695 76.9326 45.5662 76.5397 45.0406C76.0669 44.4108 75.6794 43.9117 75.3852 43.5549C75.2884 43.4387 75.205 43.3391 75.1297 43.2575C74.7612 42.8423 74.6356 42.8 74.5048 42.8908L54.2081 56.9732C54.0788 57.0629 54.0711 57.1955 54.3222 57.6836C54.3738 57.7837 54.4374 57.9014 54.513 58.0366C54.7393 58.4383 55.0657 58.9798 55.4844 59.6494C56.1848 60.7641 57.1062 62.157 58.0779 63.5733L82.8766 99.7175C84.0027 101.359 85.0946 102.881 85.9505 104.007C87.3757 105.881 87.4803 105.808 87.6387 105.698L107.935 91.6161C108.094 91.5061 108.198 91.4335 106.962 89.4285C106.22 88.2243 105.192 86.6573 104.066 85.0159L79.2669 48.8717C78.7806 48.1629 78.2955 47.4683 77.8336 46.8201ZM58.3686 63.3716C57.3999 61.9597 56.4805 60.5697 55.7841 59.4608C55.367 58.7967 55.044 58.2571 54.8217 57.8612C54.6959 57.6518 54.586 57.4331 54.493 57.207L74.6211 43.2416C74.7982 43.4093 74.9625 43.5903 75.1126 43.7829C75.2584 43.9579 75.4273 44.1686 75.6193 44.4151C75.8103 44.6622 76.0233 44.9423 76.2581 45.2554C77.0418 46.3038 78.0066 47.6601 78.9763 49.0734L103.775 85.2176C106.129 88.6479 107.484 90.9086 107.652 91.3812L87.521 105.349C87.1412 105.023 85.5208 102.946 83.1673 99.5158L58.3686 63.3716Z" fill="#E4E4E4"/>
<path d="M70.8084 54.7603L66.944 57.4815C66.7503 57.618 66.6176 57.8275 66.5751 58.0638C66.5326 58.3001 66.5838 58.544 66.7175 58.7419L69.0267 62.1578C69.1607 62.3553 69.3659 62.4905 69.5974 62.5338C69.8289 62.5772 70.0678 62.5251 70.2617 62.389L74.1261 59.6679C74.3193 59.531 74.4516 59.3215 74.4941 59.0854C74.5365 58.8492 74.4857 58.6055 74.3527 58.4075L72.0434 54.9915C71.9094 54.7941 71.7042 54.6588 71.4727 54.6155C71.2412 54.5721 71.0024 54.6242 70.8084 54.7603Z" fill="#0077B6"/>
<path d="M80.4469 58.4726L67.0786 67.6942C67.0354 67.724 66.9985 67.7621 66.9699 67.8062C66.9414 67.8503 66.9218 67.8996 66.9123 67.9513C66.9029 68.0029 66.9036 68.056 66.9146 68.1073C66.9257 68.1587 66.9467 68.2074 66.9765 68.2506C67.0064 68.2938 67.0444 68.3308 67.0885 68.3593C67.1327 68.3878 67.182 68.4074 67.2337 68.4169C67.2853 68.4264 67.3384 68.4256 67.3897 68.4146C67.4411 68.4036 67.4898 68.3825 67.5331 68.3527L80.9013 59.1311C80.9446 59.1013 80.9815 59.0632 81.0101 59.0191C81.0386 58.975 81.0582 58.9257 81.0677 58.874C81.0771 58.8224 81.0764 58.7694 81.0653 58.718C81.0543 58.6666 81.0333 58.6179 81.0035 58.5747C80.9736 58.5315 80.9356 58.4945 80.8914 58.466C80.8473 58.4375 80.798 58.4179 80.7463 58.4084C80.6947 58.3989 80.6416 58.3997 80.5903 58.4108C80.5389 58.4218 80.4902 58.4428 80.4469 58.4726Z" fill="#E4E4E4"/>
<path d="M71.2583 69.7897L66.6628 72.9603C66.6237 72.9873 66.5902 73.0218 66.5644 73.0617C66.5386 73.1016 66.5209 73.1463 66.5123 73.193C66.5037 73.2398 66.5044 73.2878 66.5144 73.3343C66.5244 73.3808 66.5434 73.4249 66.5704 73.464C66.5974 73.5032 66.6319 73.5366 66.6718 73.5624C66.7117 73.5883 66.7564 73.606 66.8031 73.6146C66.8499 73.6231 66.8979 73.6224 66.9444 73.6125C66.9909 73.6025 67.035 73.5834 67.0741 73.5564L71.6696 70.3858C71.7487 70.3312 71.8028 70.2475 71.8201 70.153C71.8375 70.0586 71.8166 69.9611 71.762 69.8821C71.7075 69.803 71.6238 69.7489 71.5293 69.7315C71.4348 69.7142 71.3374 69.7351 71.2583 69.7897Z" fill="#E4E4E4"/>
<path d="M80.8299 69.274L76.9656 71.9951C76.7718 72.1317 76.6391 72.3411 76.5966 72.5775C76.5541 72.8138 76.6053 73.0577 76.739 73.2556L79.0482 76.6715C79.1822 76.8689 79.3874 77.0042 79.6189 77.0475C79.8504 77.0909 80.0893 77.0388 80.2832 76.9027L84.1476 74.1815C84.3408 74.0446 84.4731 73.8352 84.5156 73.599C84.558 73.3629 84.5072 73.1192 84.3741 72.9211L82.0649 69.5052C81.9309 69.3077 81.7257 69.1725 81.4942 69.1292C81.2627 69.0858 81.0238 69.1379 80.8299 69.274Z" fill="#0077B6"/>
<path d="M86.767 76.214L74.6677 84.5619C74.5886 84.6165 74.5345 84.7002 74.5172 84.7946C74.4998 84.8891 74.5207 84.9866 74.5753 85.0656C74.6298 85.1447 74.7135 85.1988 74.808 85.2161C74.9025 85.2335 74.9999 85.2126 75.079 85.158L87.1783 76.8101C87.2174 76.7831 87.2508 76.7486 87.2767 76.7087C87.3025 76.6688 87.3202 76.6241 87.3288 76.5774C87.3374 76.5306 87.3367 76.4826 87.3267 76.4361C87.3167 76.3896 87.2977 76.3455 87.2707 76.3064C87.2437 76.2672 87.2092 76.2338 87.1693 76.208C87.1294 76.1821 87.0847 76.1644 87.038 76.1558C86.9912 76.1473 86.9432 76.148 86.8967 76.158C86.8502 76.1679 86.8061 76.187 86.767 76.214Z" fill="#E4E4E4"/>
<path d="M80.2271 82.7882L75.6316 85.9589C75.5525 86.0134 75.4984 86.0971 75.481 86.1916C75.4637 86.286 75.4846 86.3835 75.5392 86.4626C75.5937 86.5416 75.6774 86.5958 75.7719 86.6131C75.8663 86.6304 75.9638 86.6095 76.0429 86.555L80.6383 83.3843C80.6775 83.3573 80.7109 83.3228 80.7368 83.2829C80.7626 83.243 80.7803 83.1984 80.7889 83.1516C80.7975 83.1048 80.7967 83.0568 80.7868 83.0103C80.7768 82.9638 80.7578 82.9197 80.7308 82.8806C80.7038 82.8415 80.6693 82.808 80.6294 82.7822C80.5895 82.7564 80.5448 82.7386 80.498 82.7301C80.4513 82.7215 80.4033 82.7222 80.3568 82.7322C80.3103 82.7421 80.2662 82.7612 80.2271 82.7882Z" fill="#E4E4E4"/>
<path d="M90.8514 83.7812L86.987 86.384C86.7933 86.5146 86.6606 86.715 86.6181 86.9411C86.5756 87.1671 86.6268 87.4004 86.7605 87.5897L89.0697 90.8571C89.2037 91.046 89.4089 91.1753 89.6404 91.2168C89.8719 91.2582 90.1108 91.2084 90.3047 91.0782L94.1691 88.4754C94.3623 88.3444 94.4946 88.1441 94.5371 87.9182C94.5795 87.6923 94.5287 87.4592 94.3956 87.2698L92.0864 84.0024C91.9524 83.8135 91.7472 83.6841 91.5157 83.6427C91.2842 83.6012 91.0453 83.651 90.8514 83.7812Z" fill="#0077B6"/>
<path d="M100.475 87.5005L86.7806 96.722C86.7363 96.7519 86.6985 96.7899 86.6692 96.834C86.64 96.8781 86.62 96.9274 86.6102 96.9791C86.6005 97.0308 86.6013 97.0838 86.6126 97.1351C86.6239 97.1865 86.6454 97.2352 86.676 97.2784C86.7066 97.3217 86.7456 97.3586 86.7908 97.3871C86.836 97.4157 86.8865 97.4352 86.9394 97.4447C86.9923 97.4542 87.0467 97.4534 87.0993 97.4424C87.1519 97.4314 87.2018 97.4104 87.2461 97.3805L100.94 88.1589C101.03 88.0987 101.091 88.0062 101.111 87.9019C101.13 87.7975 101.107 87.6899 101.045 87.6025C100.983 87.5152 100.889 87.4554 100.782 87.4363C100.675 87.4171 100.564 87.4402 100.475 87.5005Z" fill="#E4E4E4"/>
<path d="M89.1953 95.7867L84.5998 98.9574C84.5607 98.9844 84.5272 99.0189 84.5014 99.0588C84.4756 99.0987 84.4579 99.1433 84.4493 99.1901C84.4407 99.2369 84.4414 99.2849 84.4514 99.3314C84.4614 99.3779 84.4804 99.422 84.5074 99.4611C84.5344 99.5002 84.5689 99.5337 84.6088 99.5595C84.6487 99.5853 84.6933 99.6031 84.7401 99.6116C84.7869 99.6202 84.8349 99.6195 84.8814 99.6095C84.9279 99.5996 84.972 99.5805 85.0111 99.5535L89.6066 96.3828C89.6857 96.3283 89.7398 96.2446 89.7571 96.1501C89.7745 96.0557 89.7536 95.9582 89.699 95.8791C89.6445 95.8001 89.5608 95.7459 89.4663 95.7286C89.3719 95.7113 89.2744 95.7322 89.1953 95.7867Z" fill="#E4E4E4"/>
<path d="M119.58 104.274H99.7544L107.589 105.297H116.864L119.818 104.336C119.746 104.294 119.664 104.273 119.58 104.274Z" fill="#E4E4E4"/>
<path d="M148.729 95.2615C148.691 95.2859 148.651 95.3056 148.608 95.3203L146.891 95.8766L132.992 100.4L128.133 101.976L127.953 102.035L127.573 102.159L119.818 104.682L116.864 105.643L114.303 106.475C114.265 106.486 114.224 106.493 114.182 106.5C114.154 106.496 114.127 106.496 114.096 106.493L107.589 105.643L99.7544 104.62L96.0914 104.143L88.0741 103.092L80.3817 102.09L80.1916 102.066L80.0015 102.038L57.0521 99.0421L56.8586 99.0145C56.8138 99.0103 56.7704 98.9974 56.7307 98.9764C56.6382 98.9349 56.5615 98.8648 56.5118 98.7765C56.462 98.6882 56.4419 98.5863 56.4542 98.4857C56.4633 98.4014 56.4956 98.3212 56.5475 98.2542C56.5683 98.2335 56.5855 98.2127 56.6063 98.1954C56.6236 98.1851 56.6443 98.1643 56.665 98.154C56.7579 98.09 56.8712 98.0629 56.983 98.0779L58.1303 98.23L80.0015 101.088L80.1916 101.112L80.3817 101.136L91.713 102.619L95.929 103.168L107.025 104.62L114.113 105.546L116.964 104.62L126.032 101.672L127.573 101.171L127.763 101.109L127.953 101.046L132.698 99.5051L146.811 94.9125L148.076 94.5013L148.321 94.4218C148.427 94.3884 148.541 94.3933 148.643 94.4357C148.746 94.478 148.83 94.5551 148.881 94.6533C148.893 94.6766 148.904 94.7009 148.912 94.7259C148.943 94.823 148.942 94.9275 148.909 95.024C148.876 95.1204 148.813 95.2037 148.729 95.2615Z" fill="#3F3D56"/>
<path d="M101.008 127.759C100.705 127.759 100.402 127.736 100.102 127.689L65.4049 122.27C64.2135 122.08 63.1079 121.533 62.2345 120.701C61.361 119.868 60.761 118.79 60.5139 117.61L56.6416 98.814L56.88 98.843L114.884 105.855L106.403 124.308C105.926 125.337 105.165 126.209 104.209 126.82C103.253 127.432 102.143 127.757 101.008 127.759Z" fill="#3F3D56"/>
<path d="M47.8202 149.7L51.9388 148.409L48.92 131.908L42.8413 133.814L47.8202 149.7Z" fill="#9E616A"/>
<path d="M46.6214 146.576L46.8698 156.914L46.8702 156.935L46.9705 156.924L49.9164 156.606L50.1512 153.673L51.851 156.4L53.7566 156.197L53.7569 156.194L57.6052 155.78L57.9166 155.748L59.1044 155.62L59.9279 155.532C60.2363 155.498 60.5311 155.386 60.7844 155.207C61.0377 155.028 61.2413 154.787 61.376 154.508C61.5107 154.228 61.572 153.919 61.5543 153.609C61.5365 153.3 61.4403 153 61.2745 152.737C61.1473 152.539 60.9836 152.366 60.7923 152.227C60.7677 152.212 60.7433 152.194 60.7187 152.178L60.7162 152.178C60.6793 152.154 60.6423 152.132 60.6028 152.109L60.536 152.072L59.3537 151.43L59.3488 151.427L56.228 149.734L53.675 148.349L53.364 145.443L52.6336 145.567L48.0661 146.333L46.6214 146.576Z" fill="#2F2E41"/>
<path d="M19.5863 142.13L23.127 144.599L34.3345 132.118L29.1093 128.474L19.5863 142.13Z" fill="#9E616A"/>
<path d="M15.5042 149.277L17.6072 147.217L17.1018 150.389L23.7644 155.035C23.9589 155.172 24.1789 155.269 24.4114 155.32C24.5867 155.358 24.7666 155.371 24.9455 155.357C25.228 155.336 25.5019 155.25 25.7453 155.105C25.9887 154.96 26.195 154.76 26.3479 154.522C26.5008 154.283 26.5961 154.012 26.6262 153.731C26.6563 153.449 26.6204 153.164 26.5214 152.899L23.7623 145.513L25.4356 143.116L24.8033 142.73L20.8536 140.311L19.6044 139.546L12.9929 147.522L15.5042 149.277Z" fill="#2F2E41"/>
<path d="M23.2128 73.9681L44.1893 69.9691L33.7424 45.6503L18.8163 54.1926L23.2128 73.9681Z" fill="#9E616A"/>
<path d="M16.9966 26.6639C20.7762 24.659 22.2149 19.9697 20.21 16.1901C18.2051 12.4105 13.5158 10.9718 9.73618 12.9767C5.95656 14.9816 4.51787 19.6709 6.52278 23.4505C8.52768 27.2302 13.217 28.6688 16.9966 26.6639Z" fill="#9E616A"/>
<path d="M4.2741 16.9431L10.0609 8.81773C12.0569 8.68912 14.051 9.09686 15.8364 9.99866C17.6218 10.9005 19.1333 12.2635 20.2144 13.9464L21.6587 16.1948L17.9135 17.1051L15.9563 14.2886L16.8672 17.3595L15.1389 17.7798L12.676 13.1018L13.6279 18.577L7.52647 20.2124L4.2741 16.9431Z" fill="#2F2E41"/>
<path d="M42.8339 66.3135C53.1373 78.6272 48.0617 98.9143 47.3891 113.778L30.1999 139.134L20.8038 135.605L34.1558 117.221L20.7224 102.667C18.1415 97.5334 17.0606 93.2912 16.7224 87.5556C16.4888 83.2602 19.26 76.2744 22.6271 70.7953C32.2834 74.8574 42.9187 68.9817 42.8339 66.3135Z" fill="#2F2E41"/>
<path d="M43.3264 111.36L52.0763 138.655L43.5536 141.148L36.2992 118.192L43.3264 111.36Z" fill="#2F2E41"/>
<path d="M13.1957 31.613L22.1064 27.0375L26.9258 29.1666C30.945 28.8887 32.2783 30.2221 35.4437 32.0633L36.5481 33.4891C38.8329 36.4388 40.0091 40.0974 39.8711 43.826L37.174 51.7902L37.634 52.0916C37.8614 52.2406 38.0258 52.4683 38.0956 52.731C38.1655 52.9937 38.1359 53.2729 38.0126 53.5152C38.4001 53.8455 38.6645 54.2972 38.7625 54.7968L38.8485 55.2348C38.8485 55.2348 42.3041 54.4334 22.1487 61.571C21.7215 61.7221 21.2568 61.7299 20.8248 61.5932C20.3928 61.4566 20.017 61.183 19.7544 60.8137C19.443 60.7172 19.1698 60.5253 18.9733 60.2652C18.7767 60.0051 18.6668 59.6899 18.659 59.364L18.6567 59.2677L18.345 59.1435C17.9981 59.0053 17.7074 58.7551 17.519 58.4328C17.3306 58.1104 17.2553 57.7343 17.3052 57.3643L11.5767 46.6834C10.4999 45.1959 9.98653 43.3742 10.1283 41.5433C10.2701 39.7124 11.0577 37.9914 12.3507 36.6874L13.1957 31.613Z" fill="#E6E6E6"/>
<path d="M62.6429 64.0358C62.4152 63.6174 62.0985 63.254 61.7151 62.9712C61.3318 62.6884 60.8911 62.4931 60.4241 62.399C59.9571 62.3049 59.4752 62.3144 59.0123 62.4268C58.5493 62.5391 58.1167 62.7516 57.7447 63.0493L47.9455 56.88L48.0725 62.8959L57.3586 67.8321C57.9 68.4238 58.6397 68.7963 59.4375 68.879C60.2352 68.9618 61.0356 68.749 61.6869 68.2811C62.3383 67.8131 62.7954 67.1225 62.9715 66.3401C63.1477 65.5576 63.0308 64.7378 62.6429 64.0358Z" fill="#9E616A"/>
<path d="M15.4808 42.6762L12.8688 44.6241C12.8688 44.6241 12.9853 46.9457 16.8872 49.491C20.7891 52.0362 51.9087 65.0573 51.9087 65.0573L50.3379 58.2379L28.6374 43.8594L15.4808 42.6762Z" fill="#E6E6E6"/>
<path d="M179.66 158.16H0.458043C0.392311 158.16 0.329338 158.113 0.282926 158.029C0.236514 157.946 0.210449 157.833 0.210449 157.715C0.210449 157.598 0.236514 157.485 0.282926 157.402C0.329338 157.318 0.392311 157.271 0.458043 157.271H179.66C179.726 157.271 179.789 157.318 179.835 157.401C179.882 157.485 179.908 157.598 179.908 157.715C179.908 157.833 179.882 157.946 179.835 158.03C179.789 158.113 179.726 158.16 179.66 158.16Z" fill="#CCCCCC"/>
</g>
<defs>
<clipPath id="clip0_56986_37696">
<rect width="204.579" height="160" fill="white" transform="translate(0.210449)"/>
</clipPath>
</defs>
</svg>
