<svg width="261" height="160" viewBox="0 0 261 160" fill="none" xmlns="http://www.w3.org/2000/svg">
<path d="M64.5 36V25.5L50.5 39.5L64.5 53.5V43C76.085 43 85.5 52.415 85.5 64C85.5 67.535 84.625 70.895 83.05 73.8L88.16 78.91C90.89 74.605 92.5 69.495 92.5 64C92.5 48.53 79.97 36 64.5 36ZM64.5 85C52.915 85 43.5 75.585 43.5 64C43.5 60.465 44.375 57.105 45.95 54.2L40.84 49.09C38.11 53.395 36.5 58.505 36.5 64C36.5 79.47 49.03 92 64.5 92V102.5L78.5 88.5L64.5 74.5V85Z" fill="#2C5B2C"/>
<path d="M64.4994 10.6665C35.0594 10.6665 11.166 34.5598 11.166 63.9998C11.166 93.4398 35.0594 117.333 64.4994 117.333C93.9394 117.333 117.833 93.4398 117.833 63.9998C117.833 34.5598 93.9394 10.6665 64.4994 10.6665ZM64.4994 106.667C40.9794 106.667 21.8327 87.5198 21.8327 63.9998C21.8327 40.4798 40.9794 21.3332 64.4994 21.3332C88.0194 21.3332 107.166 40.4798 107.166 63.9998C107.166 87.5198 88.0194 106.667 64.4994 106.667Z" fill="#2C5B2C"/>
<g clip-path="url(#clip0_67956_29669)">
<path d="M228.794 137.927C228.794 138.037 228.786 138.151 228.776 138.265C228.769 138.318 228.765 138.368 228.754 138.422C228.722 138.625 228.673 138.82 228.601 139.016C228.277 139.921 227.554 140.733 226.507 141.349L196.2 158.844C195.605 159.186 194.626 159.577 193.967 159.709C193.469 159.848 192.6 159.948 191.841 159.948C190.567 159.948 189.416 159.688 188.458 159.143L155.765 140.266C154.921 139.785 154.305 139.112 154.006 138.357C153.913 138.126 153.853 137.887 153.821 137.642C153.807 137.538 153.799 137.421 153.799 137.296C153.799 136.435 154.184 135.096 156.171 133.931L186.464 116.44C187.671 115.735 189.249 115.329 190.798 115.329C192.105 115.329 193.287 115.606 194.213 116.133L226.91 135.01C228.124 135.701 228.794 136.751 228.794 137.927Z" fill="#C2C7CF"/>
<path d="M206.816 143.279L216.249 137.834L220.572 93.9204L206.845 100.487L201.119 139.789L206.816 143.279Z" fill="#CEE5FF"/>
<path d="M192.544 100.302V154.211C191.561 154.471 190.478 154.475 189.616 154.211C189.389 154.144 189.175 154.051 188.983 153.944L181.968 149.867L181.109 125.862L169.44 119.125L170.113 142.973L162.923 138.796C162.418 138.507 162.144 138.13 162.094 137.728L155.841 80.3887C155.901 80.8872 156.325 81.4036 156.948 81.7596L188.392 99.9135C188.758 100.124 189.2 100.273 189.616 100.359C190.82 100.629 192.326 100.391 192.547 100.302H192.544Z" fill="#007BBD"/>
<path d="M192.542 100.301V154.211C191.559 154.471 190.477 154.474 189.615 154.211V100.358C190.52 100.547 191.563 100.526 192.542 100.301Z" fill="#9BCBFB"/>
<path d="M224.849 81.069L223.044 95.2559C209.06 103.614 207.981 145.359 207.981 145.359L193.769 153.709C193.402 153.927 192.982 154.094 192.54 154.208V100.298C192.644 100.298 193.577 100.038 194.296 99.6217C194.303 99.6181 223.428 82.8032 223.428 82.8032C224.258 82.3153 224.76 81.685 224.849 81.0654V81.069Z" fill="#007BBD"/>
<path d="M209.735 140.128C209.735 136.442 212.324 131.962 215.515 130.118C218.705 128.277 221.294 129.769 221.294 133.454C221.294 137.14 218.705 141.62 215.515 143.464C212.324 145.305 209.735 143.813 209.735 140.128Z" fill="#191C20"/>
<path d="M219.6 129.712L211.427 143.867L212.898 144.716L221.071 130.561L219.6 129.712Z" fill="#191C20"/>
<path d="M211.206 140.975C211.206 137.29 213.795 132.81 216.986 130.965C220.176 129.124 222.765 130.616 222.765 134.302C222.765 137.988 220.176 142.467 216.986 144.312C213.795 146.156 211.206 144.661 211.206 140.975Z" fill="#2D3135"/>
<path d="M213.283 139.775C213.283 137.414 214.939 134.548 216.983 133.365C219.027 132.187 220.683 133.141 220.683 135.502C220.683 137.863 219.027 140.729 216.983 141.912C214.939 143.094 213.283 142.136 213.283 139.775Z" fill="#42474E"/>
<path d="M181.854 146.637L173.19 141.63L170.11 142.976L169.44 119.128L181.11 125.866L181.854 146.637Z" fill="#007BBD"/>
<path d="M173.19 141.63L170.11 142.976L169.44 119.128L170.776 119.898L173.19 141.63Z" fill="#CEE5FF"/>
<path d="M224.856 81.0258C224.856 81.0258 224.856 81.0543 224.848 81.0685C224.759 81.6881 224.261 82.3184 223.428 82.8063L194.302 99.6212C193.572 100.041 192.643 100.301 192.54 100.301C192.397 100.358 190.891 100.647 189.613 100.358C189.185 100.273 188.747 100.12 188.384 99.9132L156.941 81.7594C156.317 81.4033 155.894 80.8869 155.833 80.3884C155.744 79.6726 156.314 78.9426 157.343 78.3408L186.475 61.5223C188.217 60.5003 190.862 60.3721 192.387 61.2339L223.83 79.3878C224.606 79.8293 224.923 80.4204 224.856 81.0222V81.0258Z" fill="#9BCBFB"/>
<path d="M191.522 100.462C191.091 100.497 190.66 100.497 190.247 100.458C190.66 100.497 191.091 100.501 191.522 100.462Z" fill="#0D4A73"/>
<path d="M181.327 133.166L170.031 126.642C169.736 126.471 169.632 126.094 169.803 125.798C169.974 125.503 170.352 125.399 170.651 125.57L181.284 131.709L181.327 133.166Z" fill="#42474E"/>
<path d="M226.416 80.8511C226.416 82.945 226.43 83.1195 226.377 83.3901C226.206 84.4869 225.437 85.4875 224.215 86.2033L195.065 103.032C194.492 103.36 193.552 103.738 192.918 103.866C192.437 103.997 191.604 104.094 190.87 104.094C189.645 104.094 188.538 103.844 187.616 103.317L156.169 85.1599C155.104 84.5545 154.42 83.6322 154.299 82.6387C154.271 82.4179 154.278 82.4963 154.278 80.2422C154.278 80.3633 154.285 80.4737 154.299 80.5769C154.328 80.8119 154.388 81.0398 154.477 81.2642C154.766 81.9871 155.357 82.6352 156.169 83.0981L187.616 101.256C188.534 101.783 189.642 102.032 190.87 102.032C191.6 102.032 192.437 101.936 192.918 101.804C193.552 101.676 194.492 101.302 195.065 100.971L224.215 84.1415C225.223 83.5503 225.918 82.7705 226.231 81.898C226.299 81.7129 226.348 81.5206 226.377 81.3247C226.388 81.2749 226.391 81.225 226.398 81.1752C226.409 81.0648 226.416 80.9579 226.416 80.8511Z" fill="#CEE5FF"/>
<path d="M226.415 80.8516C226.415 80.9584 226.408 81.0688 226.397 81.1756C226.394 81.2255 226.387 81.2753 226.376 81.3252C226.344 81.5175 226.298 81.7098 226.23 81.8985C225.92 82.7674 225.222 83.5508 224.215 84.1419L195.064 100.971C194.491 101.299 193.551 101.676 192.917 101.804C192.436 101.936 191.603 102.032 190.87 102.032C189.645 102.032 188.537 101.783 187.615 101.256L156.168 83.0985C155.356 82.6356 154.765 81.9875 154.476 81.2646C154.387 81.0403 154.327 80.8124 154.298 80.5774C154.288 80.4777 154.277 80.3673 154.277 80.2426C154.277 79.4129 154.647 78.1274 156.56 77.0057L185.699 60.1801C186.86 59.5 188.381 59.1118 189.865 59.1118C191.122 59.1118 192.258 59.3789 193.152 59.8881L224.603 78.0455C225.771 78.7114 226.415 79.7192 226.415 80.8516Z" fill="#9BCBFB"/>
<path d="M221.917 83.0131C221.764 83.1484 221.582 83.2766 221.379 83.3941L194.045 99.1764C193.173 99.6785 192.09 99.9705 190.869 99.9705C190.132 99.9705 189.273 99.8316 188.64 99.4684L188.077 99.1443L157.2 81.3181C157.15 81.2896 157.104 81.2611 157.057 81.229C157.218 81.1009 157.399 80.9762 157.606 80.8552L184.947 65.0693C185.805 64.5672 186.945 64.2788 188.077 64.2788C188.964 64.2788 189.768 64.4569 190.342 64.7845L221.782 82.9348C221.824 82.9597 221.871 82.9846 221.913 83.0167L221.917 83.0131Z" fill="#007BBD"/>
<path d="M188.08 62.2135V99.1408L157.203 81.3146C157.153 81.2861 157.106 81.2576 157.06 81.2256C156.658 80.9621 156.387 80.6202 156.351 80.3282C156.294 79.8582 156.765 79.2848 157.608 78.7863L184.95 63.0005C185.808 62.4984 186.947 62.21 188.08 62.21V62.2135Z" fill="#CEE5FF"/>
<path d="M222.554 81.9983V82.0268C222.504 82.358 222.279 82.7034 221.916 83.0132C221.873 82.9847 221.827 82.9562 221.784 82.9313L190.345 64.781C189.771 64.4534 188.966 64.2753 188.08 64.2753C186.947 64.2753 185.804 64.5638 184.95 65.0659L157.608 80.8517C157.402 80.9727 157.22 81.0974 157.06 81.2256C156.658 80.9621 156.387 80.6202 156.351 80.3282C156.294 79.8582 156.765 79.2848 157.608 78.7863L184.95 63.0005C185.808 62.4984 186.947 62.21 188.08 62.21C188.966 62.21 189.771 62.388 190.345 62.7156L221.784 80.8659C222.173 81.0867 222.618 81.4606 222.554 81.9947V81.9983Z" fill="#CEE5FF"/>
<path d="M198.38 65.8346C198.643 65.6673 198.857 65.3254 198.957 64.8589L199.117 64.0898L199.644 61.59L191.756 57.064L191.069 60.3329C191.055 60.397 191.044 60.4647 191.037 60.5324C190.937 61.3229 191.219 62.1419 191.707 62.4232L196.977 65.4465L197.678 65.8489C197.917 65.9878 198.166 65.97 198.383 65.8346H198.38Z" fill="#9BCBFB"/>
<path d="M198.38 65.835L199.989 64.8166C200.253 64.6492 200.466 64.3074 200.566 63.8409L201.253 60.5719L193.366 56.0459L191.756 57.0643L199.644 61.5903L199.117 64.0901L198.956 64.8593C198.86 65.3258 198.643 65.6677 198.38 65.835Z" fill="#CEE5FF"/>
<path d="M217.07 74.4883C216.96 74.4883 216.849 74.4598 216.746 74.4028L199.546 64.6884C199.23 64.5068 199.116 64.1044 199.297 63.7875C199.479 63.4706 199.881 63.3566 200.198 63.5383L217.398 73.2526C217.715 73.4342 217.828 73.8366 217.647 74.1535C217.526 74.3707 217.301 74.4918 217.07 74.4918V74.4883Z" fill="#42474E"/>
<path d="M222.447 79.6476C222.71 79.4803 222.924 79.1384 223.024 78.6719L223.184 77.9028L223.711 75.403L215.824 70.877L215.136 74.1459C215.122 74.21 215.111 74.2777 215.104 74.3453C215.004 75.1359 215.286 75.9549 215.774 76.2362L221.044 79.2595L221.745 79.6619C221.984 79.8008 222.233 79.783 222.451 79.6476H222.447Z" fill="#9BCBFB"/>
<path d="M222.449 79.6475L224.059 78.6291C224.322 78.4617 224.536 78.1199 224.636 77.6534L225.323 74.3844L217.435 69.8584L215.826 70.8768L223.713 75.4028L223.186 77.9026L223.026 78.6718C222.93 79.1383 222.713 79.4802 222.449 79.6475Z" fill="#CEE5FF"/>
<path d="M229.723 74.9436C229.513 75.4066 229.228 75.8766 228.911 76.3182C228.562 76.806 228.181 77.244 227.836 77.5716C227.401 77.9847 227.027 78.2162 226.86 78.12C226.796 78.0844 226.764 77.999 226.764 77.8636C226.771 77.6108 226.807 77.3153 226.878 76.9734L234.804 39.3232L236.824 36.0293C237.39 48.0796 235.346 62.5372 229.723 74.9472V74.9436Z" fill="#007BBD"/>
<path d="M236.638 38.1767C236.791 37.4396 236.877 36.3321 236.799 35.6733C236.777 35.1463 236.606 34.3237 236.364 33.6578C235.962 32.5397 235.339 31.6922 234.491 31.2007L205.305 14.4428C204.326 13.8695 203.144 13.8517 202.072 14.3965C201.83 14.5176 202.225 14.2647 199.885 15.7426C200.014 15.6642 200.131 15.5966 200.238 15.5431C200.491 15.4149 200.751 15.3188 201.011 15.2547C201.858 15.041 202.724 15.155 203.471 15.593L232.661 32.3438C233.508 32.8352 234.131 33.6827 234.534 34.8009C234.772 35.4668 234.947 36.2929 234.968 36.8164C235.043 37.4752 234.961 38.5826 234.808 39.3198L236.642 38.1731L236.638 38.1767Z" fill="#007BBD"/>
<path d="M226.86 78.1166L189.943 56.9288C189.914 56.9145 189.9 56.9003 189.889 56.886C189.857 56.8469 189.84 56.7899 189.836 56.7151C189.836 56.7009 189.836 56.6831 189.836 56.6653C189.843 56.4445 189.868 56.1917 189.922 55.9032C189.929 55.8605 189.936 55.8178 189.946 55.775L197.731 18.805C197.877 18.1106 198.204 17.4019 198.703 16.793C199.038 16.3871 199.429 16.0274 199.885 15.739C200.01 15.6606 200.131 15.593 200.238 15.5396C200.494 15.4114 200.75 15.3152 201.01 15.2511C201.858 15.0375 202.723 15.1514 203.471 15.5894L232.66 32.3402C233.508 32.8317 234.131 33.6792 234.533 34.7973C234.772 35.4632 234.947 36.2894 234.968 36.8128C235.043 37.4752 234.961 38.5791 234.808 39.3162L226.881 76.9664C226.81 77.3082 226.774 77.6038 226.767 77.8566C226.767 77.992 226.799 78.0774 226.863 78.113L226.86 78.1166Z" fill="#007BBD"/>
<path d="M192.793 53.7488C192.583 54.2118 192.298 54.6818 191.981 55.1234C191.632 55.6077 191.251 56.0492 190.906 56.3768C190.482 56.7792 190.115 57.0107 189.941 56.9288C189.912 56.9145 189.898 56.9003 189.887 56.886C189.855 56.8469 189.837 56.7899 189.834 56.7151C189.834 56.7009 189.834 56.6831 189.834 56.6653C189.841 56.4445 189.866 56.1917 189.919 55.9032C189.926 55.8605 189.937 55.8177 189.944 55.775L197.728 18.805C197.874 18.1106 198.202 17.4019 198.701 16.793C199.035 16.3871 199.427 16.0274 199.883 15.739C200.007 15.6606 200.128 15.593 200.235 15.5396C200.648 27.4118 198.27 41.6486 192.789 53.7453L192.793 53.7488Z" fill="#CEE5FF"/>
<path d="M201.2 16.551C201.663 16.5012 202.13 16.608 202.553 16.8573C202.561 16.8608 231.746 33.6117 231.746 33.6117C232.402 33.9891 232.904 34.6657 233.246 35.6165C233.47 36.2361 233.602 36.9483 233.616 37.3044V37.3507L233.623 37.3934C233.68 37.892 233.616 38.8392 233.484 39.4623L226.024 74.8905C225.946 75.268 225.504 75.5493 225.23 75.3926L191.561 56.0672C191.344 55.9425 191.251 55.6826 191.315 55.3799L199.046 18.6662C199.139 18.2282 199.334 17.8152 199.612 17.4769C199.808 17.2383 200.018 17.046 200.253 16.8929L200.517 16.7433C200.641 16.6828 200.773 16.6365 200.912 16.6009C201.004 16.576 201.101 16.5617 201.197 16.551H201.2ZM201.489 15.1658C201.329 15.1836 201.168 15.2121 201.008 15.2513C200.748 15.3154 200.492 15.4115 200.239 15.5397C200.128 15.5967 200.007 15.6608 199.883 15.7427C199.427 16.0311 199.035 16.3908 198.701 16.7967C198.202 17.4057 197.874 18.1107 197.728 18.8051L189.944 55.7752C189.933 55.8179 189.926 55.8606 189.919 55.9034C189.866 56.1918 189.837 56.4482 189.834 56.6654C189.834 56.6832 189.834 56.6975 189.834 56.7153C189.837 56.7936 189.855 56.8506 189.887 56.8862C189.901 56.9004 189.916 56.9147 189.93 56.9218C189.944 56.9289 226.861 78.1167 226.861 78.1167C226.797 78.0811 226.765 77.9957 226.765 77.8604C226.772 77.6075 226.807 77.312 226.879 76.9701L234.805 39.3199C234.962 38.5828 235.044 37.4753 234.965 36.8165C234.944 36.2931 234.773 35.4669 234.531 34.801C234.129 33.6829 233.505 32.8354 232.658 32.344L203.472 15.5896C202.867 15.2335 202.18 15.091 201.492 15.1658H201.489Z" fill="#9BCBFB"/>
<path d="M222.704 26.632L223.15 24.5168C223.164 24.4527 223.175 24.385 223.182 24.3174C223.281 23.5268 223 22.7078 222.512 22.4265L217.242 19.4032L216.54 19.0008C216.302 18.862 216.053 18.8798 215.835 19.0151C215.572 19.1824 215.358 19.5243 215.258 19.9908L214.813 22.106L222.701 26.632H222.704Z" fill="#9BCBFB"/>
<path d="M222.705 26.6321L224.112 25.7561L224.557 23.6409C224.735 22.7898 224.45 21.8568 223.923 21.5506L217.952 18.1249C217.713 17.9896 217.464 18.0038 217.246 18.1392L215.84 19.0152C216.057 18.8798 216.306 18.862 216.545 19.0009L217.246 19.4033L222.517 22.4266C223.005 22.7079 223.286 23.5234 223.186 24.3175C223.179 24.3851 223.165 24.4528 223.154 24.5169L222.709 26.6321H222.705Z" fill="#007BBD"/>
<path d="M172.643 106.43L170.115 103.314L171.564 101.833C171.564 101.833 171.842 101.427 172.33 101.687C172.817 101.943 175.869 103.977 175.869 103.977C175.869 103.977 175.171 103.727 174.854 104.084C174.544 104.433 172.646 106.434 172.646 106.434L172.643 106.43Z" fill="white"/>
<path d="M174.413 105.009L175.082 104.365C175.185 104.265 175.321 104.205 175.484 104.194C175.73 104.18 176.101 104.272 176.528 104.757C176.734 104.992 176.905 105.262 177.026 105.536L177.614 106.858L178.508 106.925L177.087 108.499L174.185 106.598L175.103 106.69L174.413 105.006V105.009Z" fill="white"/>
<path d="M176.35 109.514L178.864 109.71L180.139 112.666C180.263 112.95 180.342 113.232 180.359 113.485C180.388 113.844 180.306 114.225 179.818 114.165C179.626 114.14 179.405 114.047 179.188 113.905L177.842 113.022L176.35 109.51V109.514Z" fill="white"/>
<path d="M176.268 112.267L179.188 114.222C179.188 114.222 179.932 114.766 180.317 114.45L178.7 116.301C178.615 116.397 178.504 116.465 178.369 116.486C178.241 116.508 178.077 116.494 177.902 116.38L176.321 115.343L176.311 116.486L174.84 112.772L176.268 111.198V112.267Z" fill="white"/>
<path d="M170.926 108.855L173.839 110.76V113.691L171.218 111.975C171.218 111.975 170.064 111.198 170.047 110.151C170.043 109.891 170.114 109.689 170.246 109.553L170.926 108.852V108.855Z" fill="white"/>
<path d="M168.925 104.561L167.967 103.371L170.955 105.369L172.404 108.82L171.485 107.687L170 109.158C170 109.158 169.516 109.475 169.954 110.639L168.106 106.231C168.106 106.231 167.846 105.697 168.27 105.237C168.697 104.778 168.925 104.564 168.925 104.564V104.561Z" fill="white"/>
<mask id="mask0_67956_29669" style="mask-type:alpha" maskUnits="userSpaceOnUse" x="166" y="74" width="48" height="33">
<g clip-path="url(#clip1_67956_29669)">
<path d="M185.827 81.586C185.827 81.586 187.579 73.1423 193.37 75.1377C199.162 77.133 203.116 83.63 195.268 85.8808C187.421 88.1317 185.352 82.6202 185.839 81.586H185.827Z" fill="#C1D2D6"/>
<path d="M187.348 84.9564C187.348 84.9564 188.662 80.2235 194.453 82.2189C200.232 84.2142 202.301 86.4772 194.453 88.728C186.606 90.9789 186.873 86.0027 187.348 84.9685V84.9564Z" fill="#619393"/>
<path d="M201.186 89.505C201.186 89.505 202.342 82.8068 209.219 85.0126C216.082 87.2185 218.942 91.1728 209.624 93.6611C200.305 96.1494 200.623 90.6483 201.186 89.505Z" fill="#619393"/>
<path d="M188.37 80.9658C187.907 80.5399 187.311 80.3939 186.715 80.2966C186.131 80.1993 185.547 80.0898 184.963 79.9438C183.783 79.6518 178.138 85.7351 179.257 86.8544C179.671 87.2559 180.413 87.2924 180.814 86.8544C181.605 87.6209 182.542 88.2779 183.576 88.7038C183.771 88.8741 183.953 89.0688 184.16 89.2148C185.036 89.8474 186.18 90.0421 187.141 89.4824C188.017 88.9714 188.467 88.0346 188.832 87.1343C188.856 87.0856 188.893 87.0369 188.905 86.9883C188.905 86.9518 188.905 86.9153 188.905 86.8788C189.246 85.9663 189.477 84.9929 189.465 84.0196C189.465 82.9733 189.197 81.6836 188.382 80.9536L188.37 80.9658Z" fill="#6B8484"/>
<path d="M182.802 98.6542C183.609 98.2015 184.082 97.4592 184.502 96.6624C184.906 95.8838 185.344 95.1233 185.817 94.3809C186.799 92.8781 187.903 91.4657 189.147 90.1982C189.884 89.4558 189.778 88.5142 189.288 87.9348C189.656 87.4821 189.936 86.9751 189.989 86.3052C190.147 84.422 188.622 83.3175 187.167 82.6475C186.729 82.4484 186.255 82.557 185.852 82.8105C183.766 81.8508 181.242 81.9233 179.191 82.9554C178.438 83.3356 178.035 84.3496 178.438 85.1463C177.018 85.8706 175.668 86.8484 174.581 88.0978C174.248 88.2788 173.915 88.4418 173.6 88.6591C172.32 89.5645 171.514 91.0673 171.812 92.697C172.075 94.1637 173.127 95.2863 174.178 96.2279C174.231 96.2822 174.283 96.3546 174.336 96.4089C174.371 96.4452 174.441 96.4452 174.476 96.4633C175.546 97.3867 176.773 98.2015 178.087 98.6723C179.524 99.1793 181.382 99.469 182.767 98.6723L182.802 98.6542Z" fill="#72A2A3"/>
<path d="M182.226 88.1569C182.226 88.1569 187.878 84.1302 194.888 86.567C201.897 89.0039 198.179 93.506 188.645 96.24C179.127 98.9889 181.636 89.4199 182.211 88.1421L182.226 88.1569Z" fill="#C1D2D6"/>
<path d="M166.956 89.9447C166.956 89.9447 171.616 86.6476 177.395 88.6429C183.175 90.6382 184.172 96.2714 176.325 98.5101C168.465 100.773 166.47 90.9911 166.956 89.9447Z" fill="#C1D2D6"/>
<path d="M185.644 95.2981C185.182 94.8723 184.586 94.7263 183.99 94.629C183.406 94.5317 182.822 94.4221 182.238 94.2761C181.058 93.9841 179.914 93.5705 178.819 93.0351C178.174 92.7188 177.602 92.9986 177.347 93.4488C176.982 93.315 176.58 93.242 176.154 93.3515C174.938 93.6678 174.585 94.921 174.488 96.0281C174.463 96.3566 174.634 96.6487 174.889 96.8555C174.767 98.4372 175.4 100.08 176.532 101.187C176.945 101.588 177.687 101.625 178.089 101.187C178.88 101.953 179.817 102.61 180.851 103.036C181.045 103.206 181.228 103.401 181.435 103.547C182.311 104.18 183.454 104.374 184.416 103.815C185.292 103.304 185.742 102.367 186.107 101.467C186.131 101.418 186.168 101.369 186.18 101.321C186.18 101.284 186.18 101.248 186.18 101.211C186.52 100.299 186.752 99.3253 186.739 98.352C186.739 97.3056 186.472 96.016 185.657 95.286L185.644 95.2981Z" fill="#6B8484"/>
<path d="M195.188 84.8928C194.493 85.2359 194.07 85.822 193.692 86.4368C193.33 87.0515 192.937 87.6376 192.514 88.2237C191.653 89.396 190.671 90.4967 189.583 91.4831C188.934 92.0549 189.009 92.7983 189.432 93.2701C189.115 93.6132 188.858 94.0277 188.798 94.5424C188.632 96.0148 189.931 96.9155 191.185 97.473C191.562 97.6445 191.97 97.5588 192.318 97.3729C194.115 98.1592 196.29 98.1306 198.073 97.3586C198.723 97.0727 199.085 96.2722 198.753 95.6432C199.991 95.0856 201.155 94.328 202.106 93.3701C202.393 93.2272 202.695 93.1128 202.952 92.9413C204.07 92.2408 204.795 91.0685 204.554 89.7819C204.342 88.6097 203.451 87.7234 202.56 86.9657C202.514 86.9228 202.484 86.8656 202.424 86.8227C202.393 86.7941 202.333 86.7941 202.303 86.7799C201.381 86.0365 200.354 85.3789 199.221 84.9929C197.997 84.5783 196.396 84.321 195.188 84.9214V84.8928Z" fill="#6B8484"/>
<path d="M192.482 102.318C193.042 102.014 193.37 101.515 193.662 100.98C193.942 100.457 194.246 99.9458 194.575 99.447C195.256 98.4371 196.023 97.4881 196.886 96.6365C197.397 96.1376 197.324 95.505 196.984 95.1156C197.239 94.8115 197.434 94.4708 197.47 94.0206C197.58 92.7553 196.521 92.0131 195.512 91.563C195.207 91.4291 194.879 91.5021 194.599 91.6725C193.151 91.0276 191.399 91.0763 189.976 91.7698C189.453 92.0253 189.173 92.7066 189.453 93.242C188.467 93.7286 187.53 94.3856 186.776 95.2251C186.545 95.3468 186.314 95.4563 186.095 95.6023C185.206 96.2106 184.647 97.2205 184.854 98.3155C185.036 99.301 185.766 100.055 186.496 100.688C186.533 100.724 186.569 100.773 186.606 100.81C186.63 100.834 186.679 100.834 186.703 100.846C187.445 101.467 188.297 102.014 189.209 102.33C190.195 102.671 191.497 102.866 192.458 102.33L192.482 102.318Z" fill="#72A2A3"/>
<path d="M184.476 101.759C184.476 101.759 185.79 97.0258 191.582 99.0211C197.361 101.016 199.429 103.279 191.582 105.53C183.734 107.781 184.002 102.805 184.476 101.771V101.759Z" fill="#619393"/>
<path d="M195.791 96.9524C195.791 96.9524 199.454 90.9056 205.245 92.9009C211.024 94.8963 207.958 98.5828 200.098 100.821C192.251 103.072 195.305 97.9866 195.791 96.9524Z" fill="#C1D2D6"/>
</g>
</mask>
<g mask="url(#mask0_67956_29669)">
<path d="M221.917 83.0131C221.764 83.1484 221.582 83.2766 221.379 83.3941L194.045 99.1764C193.173 99.6785 192.09 99.9705 190.869 99.9705C190.132 99.9705 189.274 99.8316 188.64 99.4684L188.077 99.1443L157.2 81.3181C157.15 81.2896 157.104 81.2611 157.057 81.229C157.218 81.1009 157.399 80.9762 157.606 80.8552L184.947 65.0693C185.805 64.5672 186.945 64.2788 188.077 64.2788C188.964 64.2788 189.768 64.4569 190.342 64.7845L221.782 82.9348C221.824 82.9597 221.871 82.9846 221.913 83.0167L221.917 83.0131Z" fill="#2D3135"/>
</g>
</g>
<g clip-path="url(#clip2_67956_29669)">
<path d="M171.931 73.977L178.563 68.8901L190.817 74.2188L184.185 79.3056L171.931 73.977Z" fill="#F4F4F4"/>
<path d="M171.972 73.0204L180.044 68.6797L190.491 75.1749L182.419 79.5051L171.972 73.0204Z" fill="white"/>
<path d="M182.672 78.8536L172.025 72.7682V70.7188L182.672 76.7936V78.8536Z" fill="#C9C9C9"/>
<path d="M190.124 74.3969L182.673 78.8532V76.7932L190.124 72.3369V74.3969Z" fill="#DDDDDD"/>
<path d="M182.442 76.7933L171.91 70.7185L179.625 66.2622L190.156 72.337L182.442 76.7933Z" fill="white"/>
<path d="M172.436 70.3194L180.508 65.9893L190.965 72.474L182.893 76.8147L172.436 70.3194Z" fill="white"/>
<path d="M182.904 76.5313L172.258 70.4459V69.0376L182.904 75.1124V76.5313Z" fill="#C9C9C9"/>
<path d="M190.125 72.0749L182.673 76.5311V75.1123L190.125 70.6665V72.0749Z" fill="#DDDDDD"/>
<path d="M182.778 75.1122L172.258 69.0373L179.972 64.5811L190.493 70.6664L182.778 75.1122Z" fill="white"/>
<path d="M181.61 74.7862L172.025 68.7113V66.6514L181.61 72.7262V74.7862Z" fill="#C9C9C9"/>
<path d="M190.122 70.3297L181.609 74.786V72.726L190.122 68.2803V70.3297Z" fill="#DDDDDD"/>
<path d="M182.02 72.7259L171.5 66.6511L179.214 62.1948L189.735 68.2802L182.02 72.7259Z" fill="white"/>
<path d="M172.109 66.1678L180.181 61.8271L190.639 68.3224L182.567 72.6525L172.109 66.1678Z" fill="white"/>
<path d="M182.672 72.5584L172.025 66.4836V64.8125L182.672 70.8873V72.5584Z" fill="#C9C9C9"/>
<path d="M190.124 68.1018L182.673 72.558V70.8869L190.124 66.4307V68.1018Z" fill="#DDDDDD"/>
<path d="M182.442 70.8871L171.91 64.8122L179.625 60.356L190.156 66.4308L182.442 70.8871Z" fill="white"/>
<path d="M172.183 63.7084L181.348 60.1665L189.882 67.5341L180.718 71.076L172.183 63.7084Z" fill="white"/>
<path d="M182.767 70.9397L172.11 64.8649V63.4565L182.767 69.5314V70.9397Z" fill="#C9C9C9"/>
<path d="M190.346 66.4831L182.673 70.9393V69.531L190.346 65.0747V66.4831Z" fill="#DDDDDD"/>
<path d="M182.641 69.5311L172.11 63.4563L179.824 59L190.345 65.0748L182.641 69.5311Z" fill="white"/>
<path d="M181.946 78.8324L190.028 74.4917L200.476 80.9869L192.404 85.3171L181.946 78.8324Z" fill="white"/>
<path d="M194.138 84.9602L183.618 78.8854V76.8359L194.138 82.9108V84.9602Z" fill="#C9C9C9"/>
<path d="M201.853 80.5141L194.138 84.9598V82.9104L201.853 78.4541V80.5141Z" fill="#DDDDDD"/>
<path d="M194.138 82.9105L183.618 76.8357L191.332 72.3794L201.853 78.4542L194.138 82.9105Z" fill="white"/>
<path d="M184.143 76.4361L192.214 72.106L202.661 78.5907L194.59 82.9313L184.143 76.4361Z" fill="white"/>
<path d="M194.654 83.0049L184.133 76.9196V75.5112L194.654 81.5861V83.0049Z" fill="#C9C9C9"/>
<path d="M202.368 78.5487L194.654 83.005V81.5862L202.368 77.1299V78.5487Z" fill="#DDDDDD"/>
<path d="M194.654 81.5863L184.133 75.5115L191.847 71.0552L202.368 77.13L194.654 81.5863Z" fill="white"/>
<path d="M194.791 81.9644L184.27 75.8896V73.8296L194.791 79.9044V81.9644Z" fill="#C9C9C9"/>
<path d="M202.505 77.5085L194.791 81.9647V79.9048L202.505 75.459V77.5085Z" fill="#DDDDDD"/>
<path d="M194.791 79.9044L184.27 73.8296L191.985 69.3838L202.505 75.4586L194.791 79.9044Z" fill="white"/>
<path d="M184.122 74.0086L192.194 69.668L202.652 76.1632L194.58 80.4934L184.122 74.0086Z" fill="white"/>
<path d="M195.209 79.7367L184.678 73.6618V71.9907L195.209 78.0656V79.7367Z" fill="#C9C9C9"/>
<path d="M202.913 75.28L195.209 79.7363V78.0652L202.913 73.6089V75.28Z" fill="#DDDDDD"/>
<path d="M195.209 78.0653L184.678 71.9905L192.393 67.5342L202.913 73.609L195.209 78.0653Z" fill="white"/>
<path d="M194.654 78.013L184.133 71.9381V70.5298L194.654 76.6046V78.013Z" fill="#C9C9C9"/>
<path d="M202.368 73.5568L194.654 78.0131V76.6047L202.368 72.1484V73.5568Z" fill="#DDDDDD"/>
<path d="M194.654 76.6044L184.133 70.5295L191.847 66.0732L202.368 72.1481L194.654 76.6044Z" fill="white"/>
<path d="M195.547 76.6044L185.026 70.5295L192.74 66.0732L203.261 72.1481L195.547 76.6044Z" fill="white"/>
<path d="M195.209 75.6373L184.678 69.5625V67.2607L195.209 73.3356V75.6373Z" fill="#C9C9C9"/>
<path d="M202.913 71.1916L195.209 75.6374V73.3357L202.913 68.8794V71.1916Z" fill="#DDDDDD"/>
<path d="M195.209 73.3358L184.678 67.261L192.393 62.8047L202.913 68.8795L195.209 73.3358Z" fill="white"/>
<path d="M194.138 73.3251L183.617 67.2502L191.332 62.7939L201.852 68.8688L194.138 73.3251Z" fill="white"/>
<path d="M176.24 88.5019L188.264 81.5127V84.0036L176.24 90.9928V88.5019Z" fill="#5F328F"/>
<path d="M176.24 90.9926L188.264 84.0034L197.46 89.311L185.426 96.3002L176.24 90.9926Z" fill="#6E3BA4"/>
<path d="M185.426 96.3002L197.46 89.311L197.45 89.5107L185.426 96.4999V96.3002Z" fill="#5F328F"/>
<path d="M185.425 95.5644L176.859 90.6247V88.1338L185.425 93.084V95.5644Z" fill="#C9C9C9"/>
<path d="M196.472 89.185L185.426 95.5646V93.0842L196.472 86.7046V89.185Z" fill="#E8E8E8"/>
<path d="M185.425 93.0843L176.859 88.134L187.906 81.7544L196.471 86.7046L185.425 93.0843Z" fill="#4B344E"/>
<path d="M185.437 93.6098L197.46 86.6206V86.8203L185.437 93.8095V93.6098Z" fill="#5F328F"/>
<path d="M176.072 88.2075L188.095 81.2183L197.46 86.6204L185.436 93.6097L176.072 88.2075Z" fill="#6E3BA4"/>
<path d="M185.437 93.6097V93.8094L176.24 88.5018V90.9927L185.426 96.3003V96.5L176.062 91.0873L176.072 88.2075L185.437 93.6097Z" fill="#39175A"/>
<path d="M193.718 85.6325L192.499 86.3366L187.864 83.6671L189.083 82.9629L193.718 85.6325Z" fill="white"/>
<path d="M176.03 87.2092L188.054 80.2305L197.25 85.5381L185.227 92.5273L176.03 87.2092Z" fill="#C0B923"/>
<path d="M185.415 91.9707L176.839 87.0309V84.54L185.415 89.4903V91.9707Z" fill="#C9C9C9"/>
<path d="M196.461 85.5907L185.415 91.9704V89.49L196.461 83.1104V85.5907Z" fill="#E8E8E8"/>
<path d="M185.415 89.49L176.839 84.5398L187.895 78.1602L196.461 83.1104L185.415 89.49Z" fill="#4B344E"/>
<path d="M185.405 89.9423L197.429 82.9531V85.8329L185.405 92.8221V89.9423Z" fill="#A8A21C"/>
<path d="M176.041 84.5293L188.064 77.54L197.429 82.9527L185.405 89.9419L176.041 84.5293Z" fill="#C0B923"/>
<path d="M185.405 89.942V92.8218L176.03 87.4091V87.2094L185.227 92.5275L185.237 90.0366L176.041 84.729V84.5293L185.405 89.942Z" fill="#6B670A"/>
<path d="M188.378 89.6161C188.378 90.0575 188.021 90.625 187.579 90.8773C187.138 91.1295 186.78 90.9824 186.78 90.541C186.78 90.0995 187.138 89.532 187.579 89.2798C188.021 89.0275 188.378 89.1747 188.378 89.6161Z" fill="#BEC7EE"/>
<path d="M188.17 89.7315C188.17 90.0574 187.907 90.4778 187.57 90.6669C187.245 90.8561 186.971 90.7405 186.971 90.4147C186.971 90.0889 187.234 89.6685 187.57 89.4793C187.896 89.2901 188.17 89.4057 188.17 89.7315Z" fill="#110F14"/>
<path d="M195.169 86.631L189.851 89.6999V87.9132L195.169 84.8442V86.631Z" fill="#E8E8E8"/>
<path d="M185.583 86.9674L184.364 87.6716L179.74 85.002L180.959 84.2979L185.583 86.9674Z" fill="white"/>
<path d="M176.283 84.4977L188.306 77.519L197.503 82.8266L185.479 89.8158L176.283 84.4977Z" fill="#235FC0"/>
<path d="M185.667 89.2588L177.091 84.319V81.8281L185.667 86.7784V89.2588Z" fill="#C9C9C9"/>
<path d="M196.713 82.8788L185.667 89.2584V86.7781L196.713 80.3984V82.8788Z" fill="#E8E8E8"/>
<path d="M185.667 86.7781L177.091 81.8279L188.137 75.4482L196.713 80.3985L185.667 86.7781Z" fill="#4B344E"/>
<path d="M185.658 87.2304L197.681 80.2412V83.121L185.647 90.1102L185.658 87.2304Z" fill="#1C52A8"/>
<path d="M176.293 81.8173L188.317 74.8281L197.681 80.2408L185.658 87.23L176.293 81.8173Z" fill="#235FC0"/>
<path d="M185.658 87.2301L185.647 90.1098L176.283 84.6971V84.4975L185.479 89.8156V87.3247L176.293 82.0171V81.8174L185.658 87.2301Z" fill="#0A2E6B"/>
<path d="M188.63 86.9042C188.63 87.3456 188.273 87.9131 187.832 88.1654C187.39 88.4176 187.033 88.2705 187.033 87.8291C187.033 87.3876 187.39 86.8201 187.832 86.5678C188.273 86.3156 188.63 86.4627 188.63 86.9042Z" fill="#BEC7EE"/>
<path d="M188.422 87.0201C188.422 87.3459 188.159 87.7663 187.823 87.9555C187.497 88.1447 187.224 88.0291 187.224 87.7033C187.224 87.3775 187.487 86.9571 187.823 86.7679C188.149 86.5787 188.422 86.6943 188.422 87.0201Z" fill="#110F14"/>
<path d="M195.42 83.9195L190.092 86.9885V85.2018L195.42 82.1328V83.9195Z" fill="#E8E8E8"/>
<path d="M185.836 84.256L184.617 84.9602L179.982 82.2906L181.201 81.5864L185.836 84.256Z" fill="white"/>
<path d="M174.663 78.9272L186.697 71.938L186.687 74.4289L174.663 81.4181V78.9272Z" fill="#17A489"/>
<path d="M174.663 81.4179L186.687 74.4287L195.883 79.7363L183.86 86.7255L174.663 81.4179Z" fill="#1DBC9E"/>
<path d="M183.86 86.7255L195.883 79.7363V79.936L183.86 86.9252V86.7255Z" fill="#17A489"/>
<path d="M183.86 86.0007L175.283 81.0505V78.5596L183.86 83.5098V86.0007Z" fill="#C9C9C9"/>
<path d="M194.906 79.6208L183.86 86.0004V83.5095L194.906 77.1299V79.6208Z" fill="#E8E8E8"/>
<path d="M183.86 83.5096L175.283 78.5593L186.329 72.1797L194.906 77.1299L183.86 83.5096Z" fill="#4B344E"/>
<path d="M183.86 84.0351L195.883 77.0459V77.2456L183.86 84.2348V84.0351Z" fill="#17A489"/>
<path d="M174.495 78.6328L186.519 71.6436L195.883 77.0457L183.86 84.035L174.495 78.6328Z" fill="#1DBC9E"/>
<path d="M183.86 84.035V84.2347L174.663 78.9271V81.418L183.86 86.7256V86.9253L174.495 81.5126V78.6328L183.86 84.035Z" fill="#066755"/>
<path d="M192.142 76.0577L190.923 76.7619L186.288 74.0924L187.507 73.3882L192.142 76.0577Z" fill="white"/>
<path d="M175.303 77.3085L187.327 70.3193L196.523 75.6269L184.5 82.6161L175.303 77.3085Z" fill="#C4516E"/>
<path d="M184.689 82.0698L176.113 77.1195V74.6392L184.689 79.5894V82.0698Z" fill="#C9C9C9"/>
<path d="M195.735 75.6899L184.689 82.0695V79.5891L195.735 73.2095V75.6899Z" fill="#E8E8E8"/>
<path d="M184.689 79.5892L176.113 74.6389L187.169 68.2593L195.735 73.2095L184.689 79.5892Z" fill="#4B344E"/>
<path d="M184.678 80.041L196.702 73.0518V75.9315L184.678 82.9207V80.041Z" fill="#AE4560"/>
<path d="M175.314 74.6284L187.337 67.6392L196.702 73.0519L184.678 80.0411L175.314 74.6284Z" fill="#D35777"/>
<path d="M184.678 80.0411V82.9209L175.303 77.5082V77.3085L184.5 82.6161L184.51 80.1357L175.314 74.8281V74.6284L184.678 80.0411Z" fill="#75263A"/>
<path d="M187.653 79.7152C187.653 80.1566 187.296 80.7242 186.855 80.9764C186.413 81.2287 186.056 81.0815 186.056 80.6401C186.056 80.1987 186.413 79.6311 186.855 79.3789C187.296 79.1266 187.653 79.2738 187.653 79.7152Z" fill="#BEC7EE"/>
<path d="M187.443 79.8312C187.443 80.157 187.18 80.5774 186.844 80.7666C186.507 80.9557 186.245 80.8401 186.245 80.5143C186.245 80.1885 186.507 79.7681 186.844 79.5789C187.18 79.3897 187.443 79.5053 187.443 79.8312Z" fill="#110F14"/>
<path d="M194.443 76.7303L189.125 79.7993V78.0126L194.443 74.9331V76.7303Z" fill="#E8E8E8"/>
<path d="M184.859 77.067L183.639 77.7712L179.015 75.0911L180.234 74.3975L184.859 77.067Z" fill="white"/>
</g>
<g clip-path="url(#clip3_67956_29669)">
<path fill-rule="evenodd" clip-rule="evenodd" d="M129.93 122.217C147.077 122.217 160.972 129.451 160.972 138.358C160.972 147.266 147.065 154.5 129.93 154.5C112.795 154.5 98.8883 147.266 98.8883 138.358C98.8883 129.451 112.795 122.217 129.93 122.217Z" fill="#D1CDCB"/>
<path d="M153.386 39.5142L156.816 40.7712L162.324 39.9509L165.914 40.5581L167.938 41.453C168.087 41.5169 168.215 41.6234 168.311 41.7513L168.599 42.1561L169.089 42.4437C169.408 42.6355 169.579 42.9977 169.536 43.3705L169.909 43.9458C170.047 44.2867 169.664 44.6915 169.323 44.553L168.662 44.1588L167.31 43.8286L164.891 43.754L162.771 45.0856C162.771 45.0856 162.75 45.6289 162.825 45.7035C163.443 46.332 164.774 46.9925 164.774 46.9925L165.499 47.2695C166.01 47.7808 166.063 48.4413 165.339 48.3774L164.241 48.2389L160.193 47.1416L156.603 45.0111L152.364 43.8392L153.376 39.5461L153.386 39.5142Z" fill="#EFB185"/>
<path d="M136.77 143.752C136.77 143.752 137.079 146.277 131.848 146.927C126.618 147.577 123.976 146.927 123.976 146.927C123.976 146.927 119.981 148.205 117.744 147.215C115.507 146.224 116.103 145.521 116.103 145.521C116.263 142.847 117.019 140.194 118.415 137.595L124.466 135.358L125.339 139.459L129.867 141.1C129.867 141.1 136.099 141.473 136.77 143.752Z" fill="#191C20"/>
<path d="M142.488 121.893C140.177 122.191 138.909 122.265 138.035 122.297C136.874 122.329 136.427 122.276 135.127 122.542C133.199 122.947 132.847 124.268 130.376 124.748C130.195 124.78 129.992 124.811 129.79 124.843C129.524 124.875 129.225 124.897 128.895 124.897V113.498L130.483 112.848L131.985 112.252C131.985 112.252 133.646 111.581 133.657 111.581L133.753 111.783L135.021 114.659L136.81 115.139L139.388 115.831C139.388 115.831 140.763 115.725 142.382 115.831C143.799 115.927 145.439 116.172 146.526 116.779C148.88 118.058 147.889 121.179 142.478 121.882L142.488 121.893Z" fill="#191C20"/>
<path d="M139.303 84.2772C137.311 96.9328 137.449 105.988 135.021 114.67C134.392 115.224 133.742 115.703 133.06 116.108C132.89 116.204 132.73 116.289 132.549 116.374C132.443 116.438 132.325 116.502 132.208 116.545C131.473 116.907 130.695 117.152 129.897 117.301C129.577 117.354 129.236 117.408 128.906 117.429C127.841 117.525 126.743 117.44 123.164 117.237L124.474 91.4679L124.144 84.2239L120.501 74.6363L118.413 69.1394L120.692 68.3511L126.2 66.4442L128.48 65.6559L132.666 64.2178L133.167 65.5387L135.329 71.3446L137.599 77.4487L139.005 81.2091C139.378 82.1785 139.463 83.2332 139.303 84.2665V84.2772Z" fill="#183248"/>
<path d="M135.18 106.371C135.18 106.371 134.605 108.534 133.753 111.783C133.412 113.146 132.996 114.702 132.549 116.374C131.867 119.006 131.121 121.892 130.386 124.737C129.204 129.339 128.043 133.813 127.286 136.892C127.276 136.924 127.265 136.956 127.254 136.998C126.977 138.032 126.434 138.894 125.71 139.576C124.73 140.471 123.441 141.014 122.034 141.025C121.076 141.036 120.064 140.993 119.094 140.833C118.412 140.716 117.805 140.418 117.305 140.002C116.431 139.257 115.909 138.117 115.941 136.902C116.122 131.075 117.038 116.758 121.651 105.327L117.006 82.7005C113.651 79.3768 111.765 75.0517 113.491 68.1486C113.672 67.3923 113.906 66.604 114.183 65.7837L120.692 68.3404L123.238 69.3418L127.318 70.9397L132.517 72.9744C132.517 72.9744 132.709 73.6242 133.028 74.7747C134.36 79.7816 137.726 94.3654 135.18 106.35V106.371Z" fill="#183248"/>
<g style="mix-blend-mode:multiply" opacity="0.5">
<path d="M142.384 115.853L138.037 122.308C136.876 122.34 136.429 122.287 135.129 122.553C133.201 122.958 132.849 124.279 130.378 124.759C129.195 129.361 128.034 133.835 127.278 136.913C127.267 136.945 127.257 136.977 127.246 137.02L128.897 124.737L129.888 117.323L130.484 112.859L131.496 105.264C131.369 94.8772 129.249 85.0126 124.636 75.8085L123.134 69.4061L123.23 69.3741L128.205 67.4779L133.148 65.5711L135.96 64.4951L136.514 65.4006C135.981 67.6058 135.545 69.1717 135.523 69.5872C135.513 70.2477 135.438 70.8336 135.321 71.3769L137.59 77.481L138.996 81.2415C139.369 82.2109 139.454 83.2655 139.294 84.2988C137.302 96.9545 137.441 106.009 135.012 114.692L136.802 115.171L139.38 115.863C139.38 115.863 140.754 115.757 142.373 115.863L142.384 115.853Z" fill="#183248"/>
</g>
<path d="M157.381 40.7177C157.03 42.4541 156.38 43.9988 154.867 44.9363C154.867 44.9363 143.746 43.5088 134.041 39.695L124.4 26.1978L131.623 22.3628L138.579 32.6961L157.371 40.7177H157.381Z" fill="#007BBD"/>
<path d="M139.242 46.1827C139.146 48.3559 138.912 50.5397 138.507 52.7129C138.507 52.7981 138.486 52.862 138.475 52.9473C138.411 55.0565 138.145 57.2297 137.793 59.2857C137.42 61.5441 136.952 63.6641 136.536 65.3898C136.004 67.595 135.567 69.161 135.545 69.5764C135.535 70.2369 135.46 70.8228 135.343 71.3661C134.96 72.9321 134.129 74.0506 133.042 74.7963C130.89 76.3091 127.726 76.4049 125.244 75.9255C125.052 75.8936 124.85 75.8403 124.669 75.7977L124.498 75.7658C123.327 75.574 121.942 75.2012 120.525 74.6366C119.321 74.1572 118.107 73.518 116.977 72.7297C115.326 71.5792 114.165 69.9599 113.515 68.1596C112.759 66.061 112.695 63.696 113.387 61.4589C116.466 51.5411 116.818 42.0174 115.933 37.703C114.783 32.1528 119.161 19.4972 127.748 20.7542C128.067 20.7862 128.408 20.8607 128.749 20.946C128.834 20.9673 128.909 20.9886 128.994 21.0099C129.388 21.1164 129.782 21.2549 130.176 21.4254C130.517 21.6278 130.858 21.8408 131.178 22.0432C131.572 22.2882 131.923 22.5226 132.275 22.7783C133.149 23.3855 133.884 24.0033 134.544 24.6425C135.173 25.2391 135.716 25.8783 136.185 26.5707C136.568 27.1353 136.898 27.7319 137.165 28.371C137.442 29.0209 137.665 29.692 137.836 30.4377C137.942 30.949 138.028 31.4497 138.123 31.9717C138.699 35.1676 139.104 38.3315 139.253 41.4847C139.317 43.0507 139.338 44.6167 139.263 46.172L139.242 46.1827Z" fill="#007BBD"/>
<path d="M138.505 52.7129C138.505 52.7981 138.484 52.862 138.473 52.9472C138.409 55.0565 138.143 57.2297 137.791 59.2857C137.419 61.5441 136.95 63.664 136.534 65.3898C136.002 67.595 135.565 69.1609 135.544 69.5764C135.533 70.2369 135.458 70.8228 135.341 71.3661C134.958 72.9321 134.127 74.0506 133.04 74.7963C130.888 76.309 127.724 76.4049 125.242 75.9255C126.105 74.2637 126.798 72.6231 127.341 70.9613C127.724 69.8108 128.012 68.6283 128.236 67.4565C128.342 66.8706 128.428 66.274 128.502 65.6668C129.163 60.3084 128.321 54.5984 126.19 47.8658C125.775 46.5448 125.317 45.1919 124.806 43.7964L138.516 52.7129H138.505Z" fill="#0D4A73"/>
<path d="M127.425 21.127L124.378 23.1084C124.378 23.1084 124.4 26.528 128.192 28.9781C131.984 31.4283 137.162 34.017 137.162 34.017L135.18 28.797L137.417 28.3283C137.417 28.3283 134.136 21.4465 127.425 21.127Z" fill="#0D4A73"/>
<path d="M135.257 29.0848L137.664 22.3734L128.908 18.3999L126.915 22.3734C126.202 24.9195 134.255 30.7786 135.246 29.0848H135.257Z" fill="#EFB185"/>
<path d="M134.99 25.6118L139.08 25.452C139.996 25.42 140.838 24.9513 141.339 24.1843C142.66 22.1709 144.322 17.6115 144.609 14.1173C145.057 8.74827 139.56 6.22354 135.916 6.50051C132.273 6.77749 128.555 8.76958 127.447 13.2438C126.339 17.718 128.939 22.0005 128.939 22.0005L134.99 25.6225V25.6118Z" fill="#EFB185"/>
<path d="M144.385 15.8431C144.385 15.8431 143.139 17.3452 140.849 18.1761C140.401 18.3359 140.05 18.6874 139.847 19.1136L139.112 20.6689L137.184 21.7981L136.715 22.7036C136.278 23.5665 135.362 24.0778 134.404 23.9819C132.944 23.8328 130.601 23.1403 127.682 20.6902C127.682 20.6902 124.582 14.2665 128.843 9.34485C133.125 4.43387 139.123 6.17029 141.051 7.19296C142.979 8.21564 147.528 12.1572 144.385 15.8431Z" fill="#191C20"/>
<path d="M137.611 19.0391C137.451 19.2309 137.344 19.4653 137.259 19.7103C137.003 20.4134 136.875 21.1697 136.875 21.9154C136.875 22.2137 136.897 22.512 137.035 22.7783C137.174 23.0446 137.44 23.247 137.738 23.2364C138.133 23.2151 138.41 22.8316 138.58 22.4694C138.921 21.7876 139.485 20.7223 139.379 19.934C139.272 19.1031 138.335 18.1976 137.611 19.0391Z" fill="#EFB185"/>
<path d="M159.481 60.6496C159.63 60.5538 164.488 62.0665 164.488 62.0665L168.706 62.3861L173.724 64.5699L175.205 65.9654L176.131 67.3716C176.749 68.3197 175.865 68.7139 175.343 68.096L176.302 70.0135C176.696 70.8338 176.025 71.2812 175.439 70.6101L173.734 68.6819L174.938 71.686C175.194 72.5063 174.288 72.8365 173.937 72.1548L173.202 70.3864L171.242 69.2146L172.52 70.8338L172.935 72.2613C173.095 73.1455 172.254 73.1348 171.838 72.2613L171.338 71.1108L168.696 70.0774C167.961 69.7898 167.289 69.3637 166.714 68.8204L165.351 67.5207L163.252 66.3489L159.406 63.2702L159.491 60.6177L159.481 60.6496Z" fill="#EFB185"/>
<path d="M135.022 41.2185L144.716 52.6384C150.49 55.9515 157.872 58.6253 164.488 62.0769L163.028 67.1263C156.637 66.8068 148.519 64.3566 140.157 61.6081L127.288 48.9738C118.883 41.389 129.493 35.2955 135.033 41.2185H135.022Z" fill="#007BBD"/>
</g>
<defs>
<clipPath id="clip0_67956_29669">
<rect width="83.95" height="146" fill="white" transform="translate(153.5 14)"/>
</clipPath>
<clipPath id="clip1_67956_29669">
<rect width="46.6957" height="31.2683" fill="white" transform="translate(166.883 74.8335)"/>
</clipPath>
<clipPath id="clip2_67956_29669">
<rect width="31.7615" height="37.5" fill="white" transform="translate(171.5 59)"/>
</clipPath>
<clipPath id="clip3_67956_29669">
<rect width="78.225" height="149" fill="white" transform="matrix(-1 0 0 1 177.113 5.5)"/>
</clipPath>
</defs>
</svg>
