<svg width="261" height="160" viewBox="0 0 261 160" fill="none" xmlns="http://www.w3.org/2000/svg">
<path d="M64.5 29.2998L104.66 98.6865H24.34L64.5 29.2998ZM15.1133 93.3532C11.0067 100.446 16.1267 109.353 24.34 109.353H104.66C112.873 109.353 117.993 100.446 113.887 93.3532L73.7267 23.9665C69.62 16.8732 59.38 16.8732 55.2733 23.9665L15.1133 93.3532ZM59.1667 56.0198V66.6865C59.1667 69.6198 61.5667 72.0198 64.5 72.0198C67.4333 72.0198 69.8333 69.6198 69.8333 66.6865V56.0198C69.8333 53.0865 67.4333 50.6865 64.5 50.6865C61.5667 50.6865 59.1667 53.0865 59.1667 56.0198ZM59.1667 82.6865H69.8333V93.3532H59.1667V82.6865Z" fill="#FF9746"/>
<path fill-rule="evenodd" clip-rule="evenodd" d="M124.024 116.717C141.171 116.717 155.066 123.951 155.066 132.858C155.066 141.766 141.159 149 124.024 149C106.889 149 92.9824 141.766 92.9824 132.858C92.9824 123.951 106.889 116.717 124.024 116.717Z" fill="#C2C7CF"/>
<path d="M130.281 15.0101C137.026 16.9338 135.962 29.4305 136.928 39.5121C136.928 39.5121 143.393 55.1962 143.351 55.8702C143.253 57.3165 139.083 60.897 137.642 58.7346L128.994 45.1287L123.746 18.9276L130.267 14.9961L130.281 15.0101Z" fill="#007BBD"/>
<path d="M133.36 44.0773C133.108 49.5955 132.702 53.7517 132.632 54.0606C132.632 54.0887 132.436 56.1247 132.436 56.1668C132.338 56.6302 130.827 57.2761 130.169 57.7816C129.847 58.0343 129.497 58.2871 129.134 58.4977C125.215 60.983 118.863 62.4012 114.455 62.4714C113.489 62.4995 112.621 62.4433 111.88 62.331C111.04 62.1905 110.089 62.0782 109.599 61.7553C109.557 61.7272 109.515 61.6991 109.487 61.671C108.312 60.8285 108.284 59.2559 107.976 56.7706C107.948 56.574 107.92 56.4055 107.906 56.237C107.78 55.0997 107.668 53.9764 107.556 52.8952C107.486 52.1651 107.416 51.463 107.346 50.775C107.248 49.75 107.15 48.739 107.066 47.7702C106.842 45.1866 106.646 42.8417 106.506 40.7214C106.478 40.3002 106.45 39.893 106.422 39.4718C106.115 34.6977 106.031 31.2155 106.073 28.8706C106.073 28.5477 106.087 28.2247 106.101 27.9439C106.101 27.298 106.157 26.7925 106.185 26.3713C107.122 25.262 108.326 24.1387 109.627 23.0435C111.908 21.1339 114.553 19.2804 116.917 17.8061C119.366 16.6968 121.689 15.7842 123.732 15.1944C125.887 14.5626 127.72 14.2817 129.092 14.4222C133.863 14.9978 133.905 32.5073 133.374 44.0633L133.36 44.0773Z" fill="#007BBD"/>
<path d="M133.36 44.0773C133.108 49.5955 132.702 53.7517 132.632 54.0606C132.632 54.0887 132.436 56.1247 132.436 56.1668C132.338 56.6302 130.827 57.2761 130.169 57.7816C129.847 58.0343 129.497 58.2871 129.134 58.4977C125.215 60.983 118.863 62.4012 114.455 62.4714C113.489 62.4995 112.621 62.4433 111.88 62.331C111.04 62.1905 110.089 62.0782 109.599 61.7553C109.557 61.7272 109.515 61.6991 109.487 61.671C108.312 60.8285 108.284 59.2559 107.976 56.7706C107.948 56.574 107.92 56.4055 107.906 56.237C107.78 55.0997 107.668 53.9764 107.556 52.8952C107.486 52.1651 107.416 51.463 107.346 50.775C107.248 49.75 107.15 48.739 107.066 47.7702C106.842 45.1866 106.646 42.8417 106.506 40.7214C106.478 40.3002 106.45 39.893 106.422 39.4718C106.115 34.6977 106.031 31.2155 106.073 28.8706C106.073 28.5477 106.087 28.2247 106.101 27.9439C106.101 27.298 106.157 26.7925 106.185 26.3713C107.122 25.262 108.326 24.1387 109.627 23.0435C111.908 21.1339 114.553 19.2804 116.917 17.8061C119.366 16.6968 121.689 15.7842 123.732 15.1944C125.887 14.5626 127.72 14.2817 129.092 14.4222C133.863 14.9978 133.905 32.5073 133.374 44.0633L133.36 44.0773Z" fill="#007BBD"/>
<path d="M120.319 141.551C118.444 141.579 112.819 139.248 109.573 137.226C109.503 137.184 109.419 137.128 109.349 137.086C108.257 136.37 107.488 135.71 107.264 135.218C107.32 132.93 107.586 130.88 108.327 129.546L108.523 127.692L108.719 125.881L108.845 124.688H117.227L117.045 127.117L116.919 128.689L116.821 130.023C116.821 130.023 118.36 132.691 123.496 136.286C125.021 137.339 125.147 141.579 120.305 141.579L120.319 141.551Z" fill="#191C20"/>
<path d="M124.767 112.795L124.235 117.667C123.494 119.001 123.242 121.065 123.172 123.326C123.983 125.292 133.653 129.729 136.228 129.673C141.055 129.673 140.929 125.418 139.404 124.365C134.269 120.784 132.715 118.131 132.715 118.131L133.135 112.795H124.753H124.767Z" fill="#191C20"/>
<path d="M134.633 105.225C134.619 107.402 134.577 109.367 134.451 111.01C134.339 112.667 134.171 114.015 133.891 114.956C133.192 117.596 122.641 117.581 122.263 113.748C122.109 111.305 121.955 108.848 121.829 106.447C121.773 105.45 121.731 104.453 121.689 103.456C121.661 102.712 121.647 101.968 121.619 101.251C121.591 100.465 121.577 99.6788 121.577 98.9206V98.3449C121.549 93.599 121.815 89.2883 122.641 85.8622C120.71 78.8556 119.772 72.0878 119.744 65.5024L128.98 63.2839L132.506 62.4414C132.506 62.4414 132.506 62.5257 132.52 62.5818L134.101 83.9386C134.213 88.2212 134.367 92.6161 134.479 96.7302C134.507 97.8254 134.521 98.9347 134.549 99.9878C134.563 100.634 134.563 101.266 134.577 101.869C134.591 103.021 134.605 104.144 134.605 105.211L134.633 105.225Z" fill="#0D4A73"/>
<path d="M132.634 65.8825C132.046 70.0106 129.01 72.1028 125.105 73.4227L121.789 96.1274C121.719 97.0541 121.663 97.9808 121.593 98.9216C121.355 102.362 121.089 105.83 120.851 109.13C120.767 110.267 120.683 111.39 120.599 112.471C120.544 113.117 120.488 113.749 120.432 114.367C120.334 115.546 120.208 116.698 120.11 117.765C119.886 119.984 119.62 121.949 119.326 123.62C119.046 125.291 118.71 126.653 118.347 127.58C118.179 128.057 117.661 128.408 116.947 128.633C116.835 128.675 116.695 128.717 116.569 128.745C114.876 129.181 112.315 129.012 110.216 128.352C110.188 128.338 110.174 128.338 110.146 128.324C109.559 128.141 109.027 127.903 108.551 127.65C108.481 127.622 108.425 127.58 108.369 127.552C107.348 126.906 106.662 126.091 106.662 125.123C106.76 122.609 106.858 120.11 106.984 117.653C107.04 116.642 107.096 115.631 107.166 114.62C107.208 113.862 107.264 113.103 107.32 112.373C107.39 111.362 107.46 110.379 107.558 109.41C108.033 104.58 108.733 100.241 109.937 96.8435C108.691 89.5421 109.265 81.6789 109.937 74.9953C108.943 71.9343 108.411 68.101 109.027 63.7763C109.055 63.4534 109.111 63.1164 109.181 62.7934C109.237 62.4143 109.307 62.0352 109.391 61.6561L109.489 61.628L109.727 61.5718L113.519 60.617L114.135 60.4626L125.007 57.7386L129.177 56.6995L132.06 55.9694L132.424 55.8711C132.424 55.9553 132.438 56.0536 132.438 56.1379C132.522 58.2862 132.508 60.252 132.536 62.4424C132.536 62.4845 132.536 62.5267 132.55 62.5828C132.564 63.6078 132.578 64.703 132.634 65.8685V65.8825Z" fill="#007BBD"/>
<path opacity="0.15" d="M113.811 72.0475C113.252 79.2366 113.448 86.4819 114.385 93.6289C114.483 94.4152 114.595 95.2155 114.539 96.0019C114.455 97.1532 114.007 98.2485 113.56 99.3015C111.391 104.679 109.32 110.24 109.39 116.011C109.417 118.047 109.697 120.069 109.893 122.091C109.963 122.947 110.019 123.804 110.061 124.646C110.103 125.208 110.117 125.755 110.131 126.303C110.145 126.949 110.145 127.595 110.131 128.227V128.325C110.089 131.259 109.837 134.166 109.348 137.059C108.256 136.342 107.486 135.682 107.263 135.191C107.318 132.902 107.584 130.852 108.326 129.518L108.522 127.665C108.452 127.637 108.396 127.595 108.34 127.567C107.318 126.921 106.633 126.106 106.633 125.137C106.731 122.624 106.829 120.125 106.955 117.668C107.011 116.657 107.067 115.646 107.137 114.635C107.179 113.876 107.235 113.118 107.291 112.388C107.36 111.377 107.43 110.394 107.528 109.425C108.004 104.595 108.704 100.256 109.907 96.8584C108.662 89.5569 109.236 81.6938 109.907 75.0102C108.914 71.9492 108.382 68.1159 108.998 63.7912C109.138 63.5104 109.25 63.2015 109.306 62.9206C109.25 62.8925 109.194 62.8504 109.152 62.8083C108.032 61.9518 108.004 60.3932 107.682 57.936C107.654 57.7394 107.64 57.5709 107.612 57.4164C107.5 56.3072 107.388 55.226 107.291 54.187L113.643 39.8789C113.546 39.9772 112.636 51.7157 114.105 60.4353L124.754 55.3524L124.992 57.7394L126 67.4138C126.265 68.495 118.233 72.0475 114.217 72.0475C114.077 72.0475 113.937 72.0474 113.797 72.0334L113.811 72.0475Z" fill="#0D4A73"/>
<path opacity="0.15" d="M132.438 56.1517C132.522 58.3 132.508 60.2658 132.536 62.4562C132.536 62.4983 132.536 62.5404 132.55 62.5966C131.249 63.2846 129.919 63.5795 129.01 63.2987L129.136 58.4825L129.178 56.7133L129.793 32.1973L132.634 34.3456L133.362 44.0762C133.11 49.5944 132.704 53.7506 132.634 54.0595C132.634 54.0876 132.438 56.1236 132.438 56.1657V56.1517Z" fill="#0D4A73"/>
<path d="M206.81 109.594C205.313 110.282 203.004 111.054 201.507 111.728C201.661 111.756 201.829 111.784 202.025 111.812H202.039C202.864 111.924 203.886 111.995 204.823 112.079H204.837C205.425 112.135 205.971 112.191 206.405 112.261C204.488 113.16 201.997 114.171 199.8 115.112H199.786C199.128 115.393 198.484 115.673 197.925 115.94C198.848 115.912 199.772 115.87 200.709 115.842C200.639 115.898 200.583 115.94 200.513 115.982H200.485C195.826 119.647 188.045 119.043 182.868 116.137C177.858 113.3 174.78 107.333 175.311 101.59C175.339 101.351 175.367 101.113 175.395 100.874C175.199 100.776 174.962 100.649 174.738 100.523C172.793 99.4417 169.994 97.6725 168.483 96.1701C165.53 93.2355 172.345 87.3943 174.388 89.6971C177.788 93.5163 179.817 97.6585 179.817 97.6585C189.221 101.955 192.271 100.846 197.701 102.39H197.715C198.149 102.517 198.596 102.657 199.072 102.84C199.954 103.135 200.891 103.514 201.955 103.991C201.199 104.174 200.262 104.412 199.324 104.637C198.582 104.819 197.841 105.002 197.239 105.171C197.729 105.395 198.289 105.606 198.89 105.76C201.493 106.49 204.921 106.589 207.23 106.139C206.377 106.799 205.593 107.852 204.124 108.47C204.11 108.47 204.11 108.484 204.11 108.484C203.578 108.695 202.962 108.849 202.221 108.92C202.892 109.06 203.788 109.158 204.655 109.271H204.669C205.467 109.369 206.223 109.481 206.824 109.594H206.81Z" fill="#F0BC96"/>
<path d="M174.626 100.48C176.012 100.157 177.383 99.5957 178.376 98.5426C178.824 98.0652 179.174 97.5176 179.412 96.9138C179.79 96.5768 180.517 97.5176 180.615 97.7843C181.007 98.7953 178.964 100.522 178.236 100.972C177.215 101.59 174.556 102.558 174.612 100.48C174.598 100.958 176.823 99.9748 174.612 100.48H174.626Z" fill="#191C20"/>
<path opacity="0.1" d="M169.604 95.0605C171.884 95.5941 173.746 97.602 175.117 99.3853C177.132 102.011 177.748 105.156 178.979 108.161C180.91 112.879 185.192 116.165 190.258 116.853C185.248 117.26 180.448 114.381 178.209 109.902C176.768 107.024 176.502 103.71 174.935 100.874C173.732 98.6832 171.968 96.0996 169.604 95.0605Z" fill="#191C20"/>
<path opacity="0.1" d="M199.772 115.111C199.114 115.392 198.471 115.673 197.911 115.94C197.155 115.954 196.4 115.996 195.63 116.038C192.678 116.22 188.983 116.571 186.325 114.985C181.889 112.345 179.832 107.964 178.404 103.092C179.79 105.549 180.979 108.076 182.714 110.309C183.624 111.446 185.443 113.44 187.038 113.777C189.823 115.083 193.097 114.816 196.092 114.83C197.351 114.844 198.569 114.901 199.758 115.097L199.772 115.111Z" fill="#191C20"/>
<path opacity="0.1" d="M200.697 115.842C200.627 115.898 200.571 115.94 200.501 115.982H200.473C199.619 115.926 198.766 115.912 197.912 115.94C198.836 115.912 199.759 115.87 200.697 115.842Z" fill="#191C20"/>
<path opacity="0.1" d="M172.609 94.1621C177.115 97.0265 179.886 101.59 182.978 105.802C185.931 109.776 189.961 113.75 195.307 113.357C190.171 114.943 185.399 111.264 182.433 107.431C179.032 103.05 176.625 98.0796 172.623 94.1621H172.609Z" fill="#191C20"/>
<path opacity="0.1" d="M204.81 112.078C197.632 114.296 189.852 111.825 185.178 105.773C186.535 106.672 187.794 107.613 189.194 108.455C191.027 109.551 193.056 110.239 195.071 110.927C197.17 111.376 199.255 111.825 201.396 111.811C201.592 111.811 201.802 111.811 202.012 111.797H202.026C202.851 111.909 203.873 111.98 204.81 112.064V112.078Z" fill="#191C20"/>
<path opacity="0.1" d="M204.643 109.256C204.013 109.41 203.383 109.523 202.74 109.621C199.815 110.084 196.96 109.593 194.092 109.087C191.587 108.217 188.732 107.374 186.661 105.647C184.758 104.201 183.135 102.628 181.596 100.789C183.233 101.969 184.744 103.204 186.451 104.257C188.816 105.718 191.321 106.672 193.938 107.529C197.282 108.638 200.683 108.694 204.097 108.456C203.565 108.666 202.95 108.821 202.208 108.891C202.88 109.031 203.775 109.13 204.643 109.242V109.256Z" fill="#191C20"/>
<path opacity="0.1" d="M197.226 105.156C197.715 105.38 198.275 105.591 198.877 105.745C193.028 106.686 187.052 104.608 182.812 99.834C184.296 100.719 185.681 101.631 187.206 102.418C189.221 103.457 191.404 103.976 193.601 104.496C195.504 104.664 197.408 104.819 199.297 104.636C198.555 104.819 197.813 105.001 197.212 105.17L197.226 105.156Z" fill="#191C20"/>
<path opacity="0.1" d="M173.828 91.8164C175.213 93.2346 176.515 94.7932 177.83 96.2815C179.286 97.6435 180.797 98.9775 182.196 100.396C178.446 98.5562 175.591 95.6075 173.828 91.8164Z" fill="#191C20"/>
<path opacity="0.1" d="M199.059 102.825C195.28 103.921 191.404 103.794 187.92 101.295C190.453 102.236 192.678 102.783 195.392 102.685C196.162 102.629 196.932 102.531 197.687 102.39H197.701C198.135 102.517 198.583 102.657 199.059 102.839V102.825Z" fill="#191C20"/>
<path d="M140.385 62.6662C140.483 62.1186 140.581 61.585 140.679 61.0374C140.734 60.7145 140.804 60.3634 140.748 60.0405C140.679 59.5771 140.385 59.1839 140.021 58.8891C139.657 58.5942 138.971 57.8079 138.552 57.6113C138.048 58.3134 138.272 59.8018 138.314 60.6583C138.356 61.5148 138.482 62.3854 138.3 63.2138C138.244 63.4806 138.146 63.7614 138.216 64.0141C138.328 64.3933 138.775 64.6179 139.167 64.5337C139.559 64.4635 139.867 64.1546 140.049 63.7895C140.231 63.4385 140.301 63.0313 140.385 62.6381V62.6662Z" fill="#FFDCC4"/>
<path d="M127.188 62.9198C123.969 66.3177 119.729 68.0589 114.398 68.101C110.48 67.5253 107.261 66.1633 104.812 63.9026L105.078 56.1799L106.058 28.6871L106.142 26.3844C108.437 23.5059 111.949 20.5432 115.489 18.3809C115.266 21.0066 116.903 21.5261 118.75 22.3405C123.508 27.5358 124.879 34.6687 125.509 42.4055C125.649 44.2449 125.761 46.1404 125.859 48.036C126.124 52.9645 126.348 58.0334 127.16 62.9057L127.188 62.9198Z" fill="#F55C5C"/>
<path opacity="0.15" d="M125.9 48.0367C123.955 48.9213 122.094 49.4128 120.429 48.9775C115.531 52.8248 110.423 55.3382 105.092 56.1666L106.071 28.6738L115.615 31.8893C115.727 35.203 114.999 37.6883 113.474 40.5247L125.536 42.4062C125.676 44.2456 125.788 46.1412 125.886 48.0367H125.9Z" fill="#0D4A73"/>
<path d="M106.171 26.385C102.994 33.1107 100.895 40.2858 100.434 48.1489C100.797 49.3424 101.329 50.3534 102.001 51.252C103.204 52.8527 105.177 53.625 107.136 53.288C111.194 52.586 115.462 49.7777 119.758 46.7167C118.681 44.9335 117.883 43.1362 118.485 41.3529L111.95 41.8303L115.029 34.922C117.464 27.9014 110.103 21.0352 106.171 26.3709V26.385Z" fill="#007BBD"/>
<path d="M121.816 16.1904C126.742 18.9986 129.359 25.8367 130.003 34.5142C130.52 41.4506 130.786 61.2348 130.786 61.2348C133.571 61.4594 136.453 58.1738 136.16 57.5138C132.843 49.8333 137.559 18.086 128.771 15.5585L124.923 14.2246L121.816 16.1763V16.1904Z" fill="#F55C5C"/>
<path d="M123.689 21.7083C123.409 22.0172 123.018 22.27 122.472 22.4244C122.43 22.4385 122.374 22.4665 122.332 22.4665C120.387 23.0142 117.616 22.3121 116.161 20.8939C114.706 19.4758 115.111 17.875 117.056 17.3134C117.504 17.2011 117.98 17.1309 118.484 17.1309C118.75 17.1309 119.016 17.1309 119.295 17.173C119.435 17.187 119.561 17.2151 119.701 17.2291C119.925 17.2572 120.135 17.3134 120.345 17.3696C121.45 17.6504 122.5 18.1699 123.228 18.886C123.731 19.3775 123.997 19.8829 124.081 20.3604C124.109 20.4867 124.109 20.5991 124.081 20.7114C124.067 21.0765 123.913 21.3994 123.675 21.6802L123.689 21.7083Z" fill="#FFDCC4"/>
<path d="M118.202 7.46954L115.346 18.7949L124.069 21.0097L126.924 9.6843L118.202 7.46954Z" fill="#FFDCC4"/>
<path opacity="0.1" d="M124.097 20.7248C124.083 21.0899 123.929 21.4129 123.691 21.6937C123.411 22.0026 123.019 22.2553 122.473 22.4098C120.514 20.8793 119.773 19.1943 119.703 17.2426C119.689 16.6669 119.717 16.0772 119.801 15.4453L125.496 17.5234L124.95 20.8933L124.083 20.7108L124.097 20.7248Z" fill="#0D4A73"/>
<path d="M129.568 15.5163L128.784 15.5865C128.686 16.1201 128.364 18.3667 128.364 18.3667C128.28 18.7318 128.154 19.0969 127.972 19.4619C127.483 20.4308 126.629 21.2452 125.482 21.0065L124.978 20.9082L124.138 20.7397H124.11L123.816 20.6695C122.753 20.3465 121.507 19.3636 120.682 17.9736C120.57 17.791 120.472 17.5804 120.374 17.3838C120.108 16.7941 119.898 16.1342 119.828 15.4602C119.772 14.9126 119.786 14.3228 119.912 13.7331L119.786 13.705C118.933 13.5365 117.589 13.6629 116.722 13.4242C116.26 13.3119 115.938 13.1153 115.854 12.7081C115.504 11.0231 116.05 9.52072 116.288 7.79364C116.442 7.07754 116.652 6.81075 116.862 6.26315C118.877 0.646639 122.263 1.30658 124.88 1.76994C127.175 2.26138 129.218 3.7638 130.043 6.37548C130.253 7.04946 130.365 7.79364 130.393 8.62208C130.421 9.22585 130.393 9.87175 130.309 10.5598C130.043 11.0231 129.778 11.4163 129.778 11.4163L129.875 11.9358L130.393 14.5194C130.491 15.0109 130.127 15.5023 129.61 15.5304L129.568 15.5163Z" fill="#FFDCC4"/>
<path d="M124.237 0.675643C120.347 0.00166243 117.87 1.41983 116.527 5.14077C115.211 8.76341 115.225 13.1022 116.359 14.8994C121.41 16.9495 119.493 10.4203 119.493 10.4203C119.493 10.4203 119.675 10.8556 119.899 11.3891L122.894 10.4343C123.719 5.89899 124.139 4.01746 130.016 6.3764C130.786 5.19693 131.164 1.91127 124.237 0.703726V0.675643Z" fill="#191C20"/>
<path d="M118.513 10.7695C118.303 11.9911 119.1 13.5778 119.898 13.7182C120.696 13.8586 120.779 12.8476 120.989 11.626C121.129 10.8116 121.535 9.70237 120.696 9.29518C119.968 8.94415 118.806 8.97223 118.513 10.7695Z" fill="#FFDCC4"/>
<path opacity="0.1" d="M129.735 11.3877L130.043 12.9042C126.6 12.7357 122.221 9.92744 121.549 6.375C122.137 6.64178 122.78 6.79624 123.424 6.93665L123.718 7.00686C125.943 7.54042 128.154 8.04591 130.379 8.57948C130.407 9.18325 130.379 9.82915 130.295 10.5172C130.029 10.9805 129.763 11.3737 129.763 11.3737L129.735 11.3877Z" fill="#0D4A73"/>
<path d="M116.219 5.96838L131.108 8.76259L131.276 5.18207C131.569 1.9947 129.163 0.745031 126.7 0.365917C126.7 0.365917 119.045 -1.68411 116.555 3.94644L116.233 5.96838H116.219Z" fill="#007BBD"/>
<path d="M124.938 7.59766C133.25 12.7929 137.811 12.5261 138.875 10.1532L131.193 7.6117C130.185 8.0891 127.834 7.97677 124.938 7.6117V7.59766Z" fill="#007BBD"/>
<path d="M123.327 35.8203C123.509 35.8203 123.691 35.9186 123.803 36.0871C123.915 36.2416 123.957 36.4381 123.971 36.6207C124.041 37.2806 123.845 37.9546 123.439 38.4882C122.908 37.8984 122.362 37.3087 121.83 36.733C122.194 36.4943 122.558 36.2556 122.922 36.0169C123.048 35.9326 123.173 35.8484 123.327 35.8344V35.8203Z" fill="#F0BC96"/>
<path d="M170.346 93.2774L115.996 34.5989C115.464 34.0232 115.492 33.1106 116.066 32.577C116.639 32.0434 117.549 32.0715 118.081 32.6472L172.417 91.3257C173.256 92.2805 170.99 94.2041 170.332 93.2774H170.346Z" fill="#623F21"/>
<path d="M118.486 41.3665L119.759 38.6846L121.536 40.5802C122.922 42.4617 125.147 40.7066 124.111 39.148L122.614 37.5333C122.502 37.112 124.587 37.1963 125.525 37.5333C126.182 37.772 128.687 41.8158 128.449 42.2511C128.043 43.908 127.302 45.3542 126.14 46.5337C123.985 47.1375 121.858 47.2779 119.773 46.7162C118.29 44.8768 117.954 42.9391 118.5 41.3525L118.486 41.3665Z" fill="#FFDCC4"/>
<path d="M140.048 56.377L142.245 58.75C143.379 59.9856 141.783 62.1199 140.678 61.2634L139.489 59.9716L139.307 62.4709C140.524 64.2401 142.035 65.5319 142.959 65.6302C145.184 64.9983 146.765 62.6675 146.751 60.8983C146.317 59.1291 144.974 57.7811 143.365 55.8996C142.077 55.5064 140.986 55.703 140.062 56.391L140.048 56.377Z" fill="#FFDCC4"/>
</svg>
